<svg width="80" height="50" viewBox="0 0 80 50" fill="none" xmlns="http://www.w3.org/2000/svg">
<rect width="80" height="50" rx="6" fill="url(#paint0_linear_1_5447)"/>
<g clip-path="url(#clip0_1_5447)">
<path d="M37.6063 30.4844H34.6682L36.5041 19.2015H39.442L37.6063 30.4844ZM32.1976 19.2015L29.3971 26.962L29.0651 25.2909L28.0776 20.2174C28.0776 20.2174 27.9568 19.2015 26.6841 19.2015H22.0543L22 19.3926C23.0838 19.6638 24.12 20.0987 25.0727 20.6822L27.6248 30.4847H30.6843L35.3591 19.2015H32.1976ZM55.3027 30.4844H58L55.6483 19.2012H53.2869C53.0009 19.1791 52.7152 19.2486 52.4713 19.3998C52.2275 19.551 52.0382 19.776 51.9309 20.0421L47.5498 30.4847H50.612L51.2243 28.8088H54.9587L55.3027 30.4844ZM52.0703 26.4933L53.6138 22.271L54.4821 26.4933H52.0703ZM47.7795 21.9148L48.1987 19.4919C47.3498 19.1885 46.4579 19.0224 45.5566 18.9999C44.0989 18.9999 40.6371 19.6371 40.6371 22.7352C40.6371 25.65 44.7001 25.6863 44.7001 27.2173C44.7001 28.7484 41.0557 28.4741 39.853 27.5086L39.4163 30.0405C40.4656 30.4797 41.5946 30.6966 42.732 30.6776C44.7366 30.6776 47.7608 29.6397 47.7608 26.8144C47.7608 23.8835 43.6622 23.6095 43.6622 22.334C43.6622 21.0586 46.5233 21.2222 47.7804 21.9148H47.7795Z" fill="white"/>
</g>
<defs>
<linearGradient id="paint0_linear_1_5447" x1="15.2" y1="-0.792884" x2="57.4157" y2="50.5867" gradientUnits="userSpaceOnUse">
<stop stop-color="#7879F1"/>
<stop offset="1" stop-color="#D39751" stop-opacity="0.8"/>
</linearGradient>
<clipPath id="clip0_1_5447">
<rect width="36" height="11.6792" fill="white" transform="translate(22 19)"/>
</clipPath>
</defs>
</svg>
