<svg width="80" height="50" viewBox="0 0 80 50" fill="none" xmlns="http://www.w3.org/2000/svg">
<rect width="80" height="50" rx="6" fill="#17DDE9"/>
<path fill-rule="evenodd" clip-rule="evenodd" d="M38.6391 17.3377L39.849 16.0815C39.8543 16.0759 39.8608 16.0714 39.8679 16.0684C39.875 16.0653 39.8826 16.0637 39.8904 16.0637C39.8981 16.0637 39.9057 16.0653 39.9129 16.0684C39.92 16.0714 39.9264 16.0759 39.9318 16.0815L41.1415 17.3377C41.1526 17.3493 41.1588 17.3647 41.1588 17.3807C41.1588 17.3967 41.1526 17.4121 41.1415 17.4237L39.9318 18.68C39.9264 18.6856 39.92 18.69 39.9129 18.6931C39.9057 18.6961 39.8981 18.6978 39.8904 18.6978C39.8826 18.6978 39.875 18.6961 39.8679 18.6931C39.8608 18.69 39.8543 18.6856 39.849 18.68L38.6391 17.4237C38.6281 17.4121 38.622 17.3967 38.622 17.3807C38.622 17.3647 38.6281 17.3493 38.6391 17.3377ZM34.1039 26.4708L34.53 26.0284C34.5318 26.0264 34.5341 26.0249 34.5366 26.0238C34.5391 26.0227 34.5418 26.0222 34.5445 26.0222C34.5472 26.0222 34.5499 26.0227 34.5524 26.0238C34.5549 26.0249 34.5571 26.0264 34.559 26.0284L34.9853 26.4708C34.9891 26.4749 34.9912 26.4803 34.9912 26.4859C34.9912 26.4916 34.9891 26.497 34.9853 26.5011L34.559 26.9434C34.5571 26.9454 34.5549 26.9469 34.5524 26.948C34.5499 26.949 34.5472 26.9496 34.5445 26.9496C34.5418 26.9496 34.5391 26.949 34.5366 26.948C34.5341 26.9469 34.5318 26.9454 34.53 26.9434L34.1039 26.5011C34.1001 26.497 34.0979 26.4916 34.0979 26.4859C34.0979 26.4803 34.1001 26.4749 34.1039 26.4708ZM44.9703 26.4309L45.3962 25.9886C45.3981 25.9866 45.4004 25.985 45.4029 25.9839C45.4055 25.9829 45.4082 25.9823 45.4109 25.9823C45.4137 25.9823 45.4164 25.9829 45.4189 25.9839C45.4214 25.985 45.4237 25.9866 45.4256 25.9886L45.8516 26.4309C45.8554 26.435 45.8575 26.4404 45.8575 26.4461C45.8575 26.4517 45.8554 26.4571 45.8516 26.4611L45.4256 26.9036C45.4237 26.9056 45.4214 26.9071 45.4189 26.9082C45.4164 26.9093 45.4137 26.9098 45.4109 26.9098C45.4082 26.9098 45.4055 26.9093 45.4029 26.9082C45.4004 26.9071 45.3982 26.9056 45.3962 26.9036L44.9703 26.4611C44.9665 26.4571 44.9643 26.4517 44.9643 26.4461C44.9643 26.4405 44.9664 26.4351 44.9702 26.431L44.9703 26.4309ZM36.614 26.4664L37.3106 25.7432C37.3137 25.7399 37.3174 25.7373 37.3215 25.7355C37.3256 25.7338 37.33 25.7328 37.3344 25.7328C37.3389 25.7328 37.3433 25.7338 37.3474 25.7355C37.3515 25.7373 37.3552 25.7399 37.3582 25.7432L38.0548 26.4664C38.0609 26.4731 38.0644 26.482 38.0644 26.4911C38.0644 26.5003 38.0609 26.5091 38.0548 26.5159L37.3582 27.2392C37.3552 27.2424 37.3515 27.245 37.3474 27.2468C37.3433 27.2485 37.3389 27.2494 37.3344 27.2494C37.33 27.2494 37.3256 27.2485 37.3215 27.2468C37.3174 27.245 37.3137 27.2424 37.3106 27.2392L36.614 26.5159C36.6077 26.5093 36.6041 26.5004 36.6041 26.4912C36.6041 26.482 36.6076 26.4731 36.6139 26.4664L36.614 26.4664ZM39.2661 26.3963L39.9627 25.673C39.9658 25.6698 39.9695 25.6672 39.9736 25.6655C39.9777 25.6637 39.9821 25.6629 39.9865 25.6629C39.991 25.6629 39.9954 25.6637 39.9995 25.6655C40.0036 25.6672 40.0073 25.6698 40.0104 25.673L40.7069 26.3963C40.7133 26.403 40.7169 26.4119 40.7169 26.4211C40.7169 26.4303 40.7133 26.4392 40.7069 26.4459L40.0104 27.1692C40.0073 27.1725 40.0036 27.175 39.9995 27.1768C39.9954 27.1785 39.991 27.1794 39.9865 27.1794C39.9821 27.1794 39.9777 27.1785 39.9736 27.1768C39.9695 27.175 39.9658 27.1725 39.9627 27.1692L39.2661 26.4459C39.26 26.4391 39.2565 26.4303 39.2565 26.4212C39.2565 26.412 39.2599 26.4032 39.266 26.3964L39.2661 26.3963ZM41.9952 26.4764L42.6917 25.7531C42.6948 25.7499 42.6985 25.7474 42.7026 25.7456C42.7067 25.7438 42.7111 25.7429 42.7156 25.7429C42.72 25.7429 42.7244 25.7438 42.7285 25.7456C42.7326 25.7474 42.7363 25.7499 42.7393 25.7531L43.436 26.4764C43.4423 26.4831 43.4458 26.492 43.4458 26.5012C43.4458 26.5104 43.4423 26.5192 43.436 26.5259L42.7393 27.2491C42.7363 27.2523 42.7326 27.2549 42.7285 27.2567C42.7244 27.2585 42.72 27.2594 42.7156 27.2594C42.7111 27.2594 42.7067 27.2585 42.7026 27.2567C42.6985 27.2549 42.6948 27.2523 42.6917 27.2491L41.9952 26.5259C41.989 26.5192 41.9855 26.5104 41.9854 26.5012C41.9854 26.492 41.9889 26.4832 41.9951 26.4765L41.9952 26.4764ZM43.2923 27.9451L43.9889 27.2217C43.992 27.2185 43.9957 27.2159 43.9997 27.2142C44.0038 27.2124 44.0083 27.2115 44.0127 27.2115C44.0172 27.2115 44.0216 27.2124 44.0257 27.2142C44.0298 27.2159 44.0335 27.2185 44.0365 27.2217L44.7331 27.9451C44.7395 27.9517 44.743 27.9606 44.743 27.9698C44.743 27.979 44.7395 27.9878 44.7331 27.9945L44.0365 28.7177C44.0335 28.721 44.0298 28.7236 44.0257 28.7254C44.0216 28.7271 44.0172 28.728 44.0127 28.728C44.0083 28.728 44.0038 28.7271 43.9997 28.7254C43.9957 28.7236 43.9919 28.721 43.9889 28.7177L43.2923 27.9945C43.2861 27.9878 43.2826 27.979 43.2826 27.9699C43.2826 27.9607 43.286 27.9519 43.2922 27.9452L43.2923 27.9451ZM35.2207 27.9649L35.9172 27.2417C35.9203 27.2385 35.924 27.2359 35.9281 27.2342C35.9322 27.2324 35.9366 27.2315 35.9411 27.2315C35.9455 27.2315 35.9499 27.2324 35.954 27.2342C35.9581 27.2359 35.9618 27.2385 35.9649 27.2417L36.6615 27.9649C36.6679 27.9716 36.6714 27.9805 36.6714 27.9897C36.6714 27.9989 36.6679 28.0077 36.6615 28.0144L35.9649 28.7378C35.9618 28.741 35.9581 28.7436 35.954 28.7453C35.9499 28.7471 35.9455 28.748 35.9411 28.748C35.9366 28.748 35.9322 28.7471 35.9281 28.7453C35.924 28.7436 35.9203 28.741 35.9172 28.7378L35.2207 28.0144C35.2145 28.0076 35.211 27.9989 35.211 27.9897C35.211 27.9805 35.2145 27.9717 35.2207 27.9649ZM37.7026 27.9778L38.5921 27.0541C38.596 27.05 38.6008 27.0467 38.606 27.0445C38.6112 27.0423 38.6168 27.0412 38.6225 27.0412C38.6281 27.0412 38.6338 27.0423 38.639 27.0445C38.6442 27.0467 38.6489 27.05 38.6529 27.0541L39.5424 27.9778C39.5505 27.9863 39.555 27.9976 39.555 28.0094C39.555 28.0211 39.5505 28.0324 39.5424 28.041L38.6529 28.9645C38.6489 28.9686 38.6443 28.972 38.639 28.9742C38.6338 28.9765 38.6281 28.9776 38.6225 28.9776C38.6168 28.9776 38.6112 28.9765 38.6059 28.9742C38.6007 28.972 38.596 28.9686 38.5921 28.9645L37.7026 28.041C37.6945 28.0324 37.69 28.0211 37.69 28.0094C37.69 27.9976 37.6946 27.9863 37.7026 27.9778ZM40.4026 27.938L41.2921 27.0142C41.296 27.01 41.3008 27.0068 41.306 27.0045C41.3113 27.0023 41.3169 27.0011 41.3226 27.0011C41.3284 27.0011 41.334 27.0023 41.3393 27.0045C41.3445 27.0068 41.3492 27.01 41.3532 27.0142L42.2426 27.938C42.2507 27.9465 42.2552 27.9577 42.2552 27.9695C42.2552 27.9812 42.2507 27.9926 42.2426 28.0011L41.3532 28.9247C41.3492 28.9288 41.3445 28.9321 41.3392 28.9343C41.334 28.9366 41.3283 28.9377 41.3226 28.9377C41.3169 28.9377 41.3113 28.9366 41.306 28.9343C41.3008 28.9321 41.2961 28.9288 41.2921 28.9247L40.4026 28.0011C40.3946 27.9926 40.3901 27.9812 40.3901 27.9695C40.3901 27.9577 40.3946 27.9465 40.4026 27.938ZM38.8771 29.4519L39.9128 28.3766C39.9174 28.3717 39.9228 28.3679 39.9289 28.3653C39.935 28.3626 39.9416 28.3612 39.9482 28.3612C39.9549 28.3612 39.9615 28.3626 39.9675 28.3653C39.9736 28.3679 39.9792 28.3717 39.9837 28.3766L41.0192 29.4519C41.0287 29.4618 41.0339 29.4749 41.0339 29.4886C41.0339 29.5023 41.0287 29.5155 41.0192 29.5254L39.9837 30.6008C39.9791 30.6055 39.9736 30.6094 39.9675 30.612C39.9615 30.6146 39.9549 30.6159 39.9482 30.6159C39.9416 30.6159 39.9351 30.6146 39.929 30.612C39.9229 30.6094 39.9174 30.6055 39.9128 30.6008L38.8771 29.5254C38.8676 29.5155 38.8623 29.5023 38.8623 29.4886C38.8623 29.4749 38.8676 29.4618 38.8771 29.4519ZM40.2029 30.9905L41.2387 29.9146C41.2432 29.9098 41.2487 29.9059 41.2548 29.9033C41.2609 29.9007 41.2675 29.8994 41.2741 29.8994C41.2807 29.8994 41.2873 29.9007 41.2934 29.9033C41.2995 29.9059 41.305 29.9098 41.3096 29.9146L42.3453 30.9905C42.3547 31.0004 42.36 31.0136 42.36 31.0273C42.36 31.041 42.3547 31.0541 42.3453 31.0641L41.3096 32.14C41.305 32.1448 41.2995 32.1486 41.2934 32.1512C41.2873 32.1538 41.2807 32.1553 41.2741 32.1553C41.2675 32.1553 41.2609 32.1538 41.2548 32.1512C41.2487 32.1486 41.2432 32.1448 41.2387 32.14L40.2029 31.0641C40.1936 31.0541 40.1884 31.041 40.1884 31.0273C40.1884 31.0137 40.1936 31.0004 40.2029 30.9905ZM41.7288 29.4563L42.6183 28.5327C42.6223 28.5286 42.627 28.5253 42.6322 28.523C42.6374 28.5208 42.6431 28.5196 42.6487 28.5196C42.6544 28.5196 42.66 28.5208 42.6653 28.523C42.6705 28.5253 42.6752 28.5286 42.6791 28.5327L43.5688 29.4563C43.5768 29.4649 43.5813 29.4762 43.5813 29.488C43.5813 29.4998 43.5768 29.511 43.5688 29.5196L42.6791 30.443C42.6752 30.4471 42.6705 30.4505 42.6653 30.4528C42.6601 30.455 42.6544 30.4562 42.6487 30.4562C42.643 30.4562 42.6374 30.455 42.6322 30.4528C42.6269 30.4505 42.6222 30.4471 42.6183 30.443L41.7288 29.5196C41.7207 29.5111 41.7162 29.4998 41.7162 29.488C41.7162 29.4762 41.7207 29.4649 41.7287 29.4564L41.7288 29.4563ZM36.338 29.4661L37.2277 28.5427C37.2316 28.5385 37.2363 28.5353 37.2415 28.533C37.2467 28.5307 37.2524 28.5295 37.2581 28.5295C37.2638 28.5295 37.2694 28.5307 37.2746 28.533C37.2799 28.5353 37.2846 28.5385 37.2885 28.5427L38.1779 29.4661C38.186 29.4746 38.1905 29.486 38.1905 29.4978C38.1905 29.5096 38.186 29.5209 38.1779 29.5295L37.2885 30.4531C37.2845 30.4572 37.2798 30.4605 37.2746 30.4627C37.2694 30.465 37.2638 30.4661 37.2581 30.4661C37.2524 30.4661 37.2468 30.465 37.2415 30.4627C37.2363 30.4605 37.2316 30.4572 37.2277 30.4531L36.338 29.5295C36.3299 29.521 36.3254 29.5096 36.3254 29.4979C36.3253 29.4861 36.3298 29.4748 36.3379 29.4663L36.338 29.4661ZM37.5316 30.9602L38.5673 29.885C38.5719 29.8803 38.5774 29.8765 38.5835 29.8739C38.5896 29.8713 38.5962 29.8699 38.6028 29.8699C38.6094 29.8699 38.616 29.8713 38.6221 29.8739C38.6281 29.8765 38.6336 29.8803 38.6382 29.885L39.674 30.9602C39.6833 30.9702 39.6885 30.9834 39.6885 30.9971C39.6885 31.0107 39.6833 31.0239 39.674 31.0339L38.6382 32.1097C38.6336 32.1145 38.6281 32.1183 38.6221 32.1209C38.616 32.1235 38.6094 32.1248 38.6028 32.1248C38.5962 32.1248 38.5896 32.1235 38.5835 32.1209C38.5774 32.1183 38.5719 32.1145 38.5673 32.1097L37.5316 31.0339C37.5224 31.0239 37.5173 31.0108 37.5173 30.9972C37.5173 30.9837 37.5224 30.9706 37.5316 30.9606V30.9602ZM41.1417 32.5235L39.9319 31.2674C39.9265 31.2618 39.9201 31.2573 39.913 31.2543C39.9059 31.2512 39.8982 31.2497 39.8905 31.2497C39.8827 31.2497 39.8751 31.2512 39.868 31.2543C39.8608 31.2573 39.8544 31.2618 39.8491 31.2674L38.6391 32.5235C38.6281 32.5352 38.622 32.5506 38.622 32.5667C38.622 32.5827 38.6281 32.5981 38.6391 32.6098L39.8491 33.8661C39.8544 33.8717 39.8609 33.876 39.868 33.879C39.8751 33.8821 39.8827 33.8836 39.8905 33.8836C39.8982 33.8836 39.9058 33.8821 39.9129 33.879C39.9201 33.876 39.9265 33.8717 39.9319 33.8661L41.1417 32.6098C41.1528 32.5981 41.1589 32.5826 41.1589 32.5666C41.1589 32.5505 41.1527 32.535 41.1416 32.5234L41.1417 32.5235ZM46.4895 24.2255H47.6331V24.2635C47.5753 24.2582 47.5173 24.2725 47.4687 24.3043C47.4376 24.3565 47.4249 24.4178 47.4328 24.4781V25.2456C47.4264 25.3383 47.435 25.4314 47.4582 25.5214C47.4755 25.5562 47.5305 25.5742 47.6238 25.5742V26.0102H47.589C47.5743 25.9228 47.5407 25.8397 47.4905 25.7666C47.4527 25.7107 47.3989 25.6676 47.3361 25.6428C47.2695 25.6207 47.1995 25.6101 47.1292 25.6117H46.7755C46.7129 25.6063 46.65 25.6148 46.591 25.6365C46.5321 25.6582 46.4787 25.6925 46.4346 25.7371C46.3656 25.8137 46.3204 25.9085 46.3043 26.0102H46.2696V25.5742C46.3273 25.5667 46.3823 25.5446 46.4291 25.51C46.476 25.4755 46.5133 25.4296 46.5375 25.3766C46.6121 25.2369 46.6605 25.0848 46.6804 24.9277C46.7042 24.7831 46.7175 24.637 46.7204 24.4906C46.7236 24.4392 46.7149 24.3877 46.6949 24.3402C46.683 24.3133 46.6614 24.2918 46.6343 24.2802C46.5868 24.2689 46.5382 24.2634 46.4894 24.2637V24.2258L46.4895 24.2255ZM46.8226 24.3009C46.8204 24.5871 46.7879 24.8722 46.7257 25.1515C46.6895 25.2917 46.624 25.4226 46.5336 25.5356H47.0466C47.1024 25.5423 47.159 25.534 47.2106 25.5116C47.229 25.4954 47.2382 25.444 47.2382 25.356V24.3009H46.8226ZM43.7701 24.8682H44.4138V24.4717C44.4165 24.4246 44.412 24.3774 44.4006 24.3316C44.3917 24.3126 44.3766 24.2971 44.3578 24.2878C44.3294 24.2717 44.2973 24.2633 44.2647 24.2634H44.2157V24.2254H44.8083V24.2634H44.7592C44.7268 24.2633 44.695 24.2713 44.6665 24.2868C44.6562 24.2916 44.6468 24.2984 44.6392 24.3069C44.6315 24.3154 44.6256 24.3255 44.6219 24.3363C44.6118 24.3807 44.6079 24.4262 44.6102 24.4717V25.3661C44.6074 25.4128 44.6119 25.4597 44.6234 25.5051C44.6319 25.5241 44.6467 25.5396 44.6653 25.5489C44.694 25.5651 44.7263 25.5738 44.7592 25.5739H44.8083V25.6114H44.2157V25.5739H44.2647C44.2878 25.5759 44.3111 25.5723 44.3326 25.5636C44.3541 25.5548 44.3733 25.5411 44.3885 25.5235C44.411 25.4743 44.4197 25.4199 44.4138 25.3662V24.944H43.7701V25.3662C43.7675 25.4129 43.7719 25.4598 43.7834 25.5052C43.7923 25.5244 43.8076 25.5398 43.8267 25.549C43.8549 25.5653 43.8869 25.574 43.9196 25.574H43.9697V25.6115H43.3761V25.574H43.4248C43.4481 25.576 43.4716 25.5724 43.4933 25.5636C43.5149 25.5549 43.5343 25.5412 43.5497 25.5236C43.5713 25.4741 43.5797 25.4199 43.5742 25.3663V24.4718C43.5767 24.4248 43.5722 24.3775 43.5609 24.3318C43.5522 24.3129 43.5374 24.2974 43.5189 24.2879C43.4901 24.2719 43.4577 24.2635 43.4247 24.2635H43.376V24.2256H43.9697V24.2635H43.9196C43.8871 24.2633 43.8552 24.2714 43.8267 24.287C43.8165 24.2919 43.8073 24.2988 43.7998 24.3073C43.7923 24.3158 43.7865 24.3257 43.7827 24.3364C43.7719 24.3807 43.7676 24.4263 43.7701 24.4718V24.8682ZM41.3945 25.1474H40.858L40.7642 25.3661C40.7451 25.4038 40.7333 25.4447 40.7292 25.4868C40.7296 25.4977 40.7325 25.5084 40.7378 25.5179C40.743 25.5275 40.7503 25.5357 40.7593 25.5419C40.7993 25.5636 40.8442 25.5744 40.8896 25.5734V25.6111H40.4533V25.5734C40.4935 25.5697 40.5321 25.556 40.5655 25.5333C40.616 25.4747 40.6552 25.4071 40.681 25.3341L41.1683 24.1938H41.2038L41.6864 25.3464C41.7091 25.4131 41.745 25.4744 41.7921 25.5267C41.8298 25.5566 41.8764 25.573 41.9245 25.5735V25.6111H41.3777V25.5735C41.4169 25.5751 41.4557 25.5655 41.4896 25.546C41.4987 25.5394 41.5061 25.5308 41.5112 25.5209C41.5163 25.5109 41.519 25.4999 41.519 25.4887C41.5136 25.4394 41.4996 25.3913 41.4778 25.3468L41.394 25.1476L41.3945 25.1474ZM41.3659 25.0716L41.1307 24.5118L40.8896 25.0716H41.3659ZM38.7477 24.9042C38.8273 24.9167 38.9019 24.9506 38.9637 25.0023C38.9955 25.0314 39.0208 25.067 39.0379 25.1066C39.0549 25.1463 39.0634 25.189 39.0627 25.2322C39.0619 25.3033 39.039 25.3724 38.9971 25.4299C38.9531 25.4934 38.8904 25.5417 38.8177 25.5679C38.7052 25.602 38.5876 25.6167 38.4701 25.6115H37.8158V25.5739H37.8678C37.8915 25.5761 37.9155 25.5721 37.9373 25.5625C37.9591 25.5528 37.978 25.5377 37.9923 25.5187C38.0127 25.4707 38.0208 25.4184 38.0161 25.3665V24.4712C38.0228 24.4153 38.0125 24.3586 37.9863 24.3088C37.9711 24.2931 37.9525 24.281 37.932 24.2732C37.9116 24.2655 37.8896 24.2623 37.8678 24.2639H37.8158V24.226H38.4144C38.5048 24.224 38.595 24.2322 38.6835 24.2507C38.7734 24.2681 38.8553 24.3137 38.9175 24.3808C38.9701 24.4401 38.9987 24.5168 38.998 24.5961C38.9987 24.6637 38.9764 24.7295 38.9348 24.7827C38.8864 24.8416 38.821 24.8842 38.7476 24.9047L38.7477 24.9042ZM38.2121 24.849C38.2408 24.8542 38.2697 24.8579 38.2987 24.8599C38.3312 24.8622 38.3667 24.8632 38.4054 24.8632C38.4816 24.867 38.5577 24.8562 38.6298 24.8312C38.6779 24.8116 38.7183 24.777 38.7449 24.7324C38.7714 24.6887 38.7852 24.6384 38.7847 24.5873C38.7848 24.5475 38.7759 24.5082 38.7587 24.4723C38.7415 24.4365 38.7165 24.405 38.6854 24.3801C38.6026 24.3175 38.4999 24.287 38.3964 24.2942C38.3343 24.2934 38.2725 24.3009 38.2125 24.3165L38.2121 24.849ZM38.2121 25.5111C38.2888 25.5292 38.3673 25.5385 38.4461 25.5387C38.5471 25.5456 38.6473 25.5161 38.7284 25.4554C38.7591 25.4307 38.7837 25.3992 38.8005 25.3636C38.8173 25.3279 38.8257 25.2889 38.8253 25.2495C38.825 25.1947 38.8098 25.141 38.7813 25.0942C38.7475 25.0407 38.6974 24.9996 38.6384 24.9769C38.5604 24.9461 38.477 24.9315 38.3932 24.9339C38.3509 24.9339 38.3146 24.9347 38.2846 24.9357C38.2602 24.9364 38.2359 24.9389 38.2119 24.9431L38.2121 25.5111ZM35.6544 24.9624V25.3661C35.6476 25.4219 35.6577 25.4786 35.6833 25.5287C35.6983 25.5444 35.7166 25.5566 35.7368 25.5644C35.7571 25.5722 35.7788 25.5754 35.8005 25.5738H35.8539V25.6113H35.26V25.5738H35.3121C35.3361 25.576 35.3604 25.5718 35.3824 25.5618C35.4044 25.5517 35.4234 25.5362 35.4376 25.5166C35.4557 25.4686 35.4628 25.4171 35.4582 25.3661V24.4706C35.465 24.415 35.4554 24.3586 35.4306 24.3084C35.4153 24.2927 35.3968 24.2805 35.3763 24.2727C35.3558 24.2649 35.3339 24.2618 35.3121 24.2635H35.26V24.2255H35.768C35.8672 24.222 35.9662 24.235 36.0612 24.2638C36.1324 24.2891 36.1952 24.3338 36.2423 24.393C36.2914 24.454 36.3174 24.5305 36.3158 24.6088C36.3177 24.6601 36.3087 24.7112 36.2894 24.7587C36.27 24.8063 36.2409 24.8492 36.2037 24.8846C36.1162 24.9601 36.0026 24.9983 35.8873 24.9911C35.8512 24.9908 35.8151 24.9885 35.7792 24.9838C35.7404 24.9788 35.6987 24.9718 35.6543 24.9622L35.6544 24.9624ZM35.6544 24.9041C35.6906 24.9108 35.7228 24.916 35.7505 24.9195C35.7742 24.9225 35.7981 24.9242 35.822 24.9245C35.8568 24.9247 35.8912 24.9174 35.923 24.9031C35.9547 24.8889 35.983 24.8679 36.0059 24.8417C36.0585 24.7836 36.0862 24.7072 36.0831 24.6289C36.0835 24.5712 36.0709 24.514 36.0463 24.4618C36.0244 24.4134 35.988 24.3731 35.942 24.3464C35.8951 24.3202 35.8421 24.3069 35.7883 24.3079C35.7431 24.3093 35.6982 24.3158 35.6544 24.3271V24.9038V24.9041ZM33.2797 25.1473H32.7432L32.6493 25.366C32.6302 25.4037 32.6184 25.4447 32.6143 25.4868C32.6147 25.4977 32.6177 25.5084 32.6229 25.5179C32.6281 25.5275 32.6355 25.5357 32.6444 25.5419C32.6844 25.5636 32.7293 25.5744 32.7747 25.5734V25.6111H32.3384V25.5734C32.3786 25.5698 32.4173 25.556 32.4507 25.5333C32.5012 25.4747 32.5403 25.4072 32.566 25.3342L33.0534 24.1939H33.089L33.5715 25.3465C33.5942 25.4131 33.6301 25.4744 33.6771 25.5268C33.7149 25.5566 33.7614 25.5731 33.8095 25.5736V25.6112H33.2628V25.5736C33.3019 25.5752 33.3407 25.5656 33.3747 25.546C33.3838 25.5395 33.3912 25.5309 33.3963 25.521C33.4014 25.511 33.404 25.5 33.404 25.4888C33.3986 25.4395 33.3847 25.3914 33.3628 25.3469L33.2797 25.1473ZM33.2511 25.0716L33.0159 24.5118L32.7748 25.0716H33.2511ZM34.1038 23.4465L34.5298 23.004C34.5317 23.0021 34.5339 23.0005 34.5364 22.9994C34.5389 22.9983 34.5416 22.9978 34.5444 22.9978C34.5471 22.9978 34.5498 22.9983 34.5523 22.9994C34.5548 23.0005 34.557 23.0021 34.5589 23.004L34.985 23.4466C34.9889 23.4506 34.991 23.456 34.991 23.4616C34.991 23.4672 34.9889 23.4726 34.985 23.4766L34.5589 23.9192C34.557 23.9212 34.5548 23.9227 34.5523 23.9238C34.5498 23.9249 34.5471 23.9255 34.5444 23.9255C34.5416 23.9255 34.5389 23.9249 34.5364 23.9238C34.5339 23.9227 34.5317 23.9212 34.5298 23.9192L34.1038 23.4767C34.1018 23.4747 34.1002 23.4724 34.0992 23.4698C34.0981 23.4672 34.0975 23.4643 34.0975 23.4615C34.0975 23.4587 34.0981 23.4559 34.0992 23.4533C34.1002 23.4507 34.1018 23.4483 34.1038 23.4463V23.4465ZM44.9702 23.4864L45.3962 23.044C45.398 23.042 45.4003 23.0404 45.4028 23.0393C45.4053 23.0383 45.408 23.0377 45.4108 23.0377C45.4135 23.0377 45.4161 23.0383 45.4187 23.0393C45.4212 23.0404 45.4234 23.042 45.4253 23.044L45.8515 23.4864C45.8553 23.4905 45.8574 23.4959 45.8574 23.5015C45.8574 23.5071 45.8553 23.5126 45.8515 23.5166L45.4253 23.9589C45.4234 23.9609 45.4212 23.9624 45.4187 23.9635C45.4161 23.9646 45.4135 23.9652 45.4108 23.9652C45.408 23.9652 45.4053 23.9646 45.4028 23.9635C45.4003 23.9624 45.398 23.9609 45.3962 23.9589L44.9702 23.5166C44.9663 23.5125 44.9641 23.5071 44.9641 23.5014C44.9641 23.4957 44.9663 23.4902 44.9702 23.4861V23.4864ZM36.6139 23.4312L37.3102 22.7081C37.3133 22.7049 37.317 22.7022 37.3212 22.7004C37.3253 22.6986 37.3297 22.6977 37.3342 22.6977C37.3387 22.6977 37.3431 22.6986 37.3472 22.7004C37.3513 22.7022 37.355 22.7049 37.3581 22.7081L38.0547 23.4312C38.0609 23.4379 38.0643 23.4468 38.0643 23.4559C38.0643 23.4651 38.0609 23.474 38.0547 23.4807L37.3581 24.2039C37.355 24.2071 37.3513 24.2097 37.3472 24.2115C37.343 24.2132 37.3386 24.2141 37.3342 24.2141C37.3297 24.2141 37.3253 24.2132 37.3212 24.2115C37.317 24.2097 37.3133 24.2071 37.3102 24.2039L36.6139 23.4807C36.6076 23.4741 36.604 23.4652 36.604 23.456C36.604 23.4468 36.6076 23.4378 36.6139 23.4312ZM39.266 23.5013L39.9627 22.7778C39.9657 22.7746 39.9694 22.772 39.9735 22.7702C39.9776 22.7684 39.982 22.7675 39.9865 22.7675C39.9909 22.7675 39.9953 22.7684 39.9994 22.7702C40.0035 22.772 40.0072 22.7746 40.0103 22.7778L40.7069 23.5013C40.7132 23.508 40.7168 23.5168 40.7168 23.526C40.7168 23.5352 40.7132 23.5441 40.7069 23.5508L40.0103 24.2739C40.0072 24.2771 40.0035 24.2797 39.9994 24.2814C39.9953 24.2832 39.9909 24.2841 39.9865 24.2841C39.982 24.2841 39.9776 24.2832 39.9735 24.2814C39.9694 24.2797 39.9657 24.2771 39.9627 24.2739L39.266 23.5508C39.2597 23.5441 39.2561 23.5352 39.2561 23.526C39.2561 23.5168 39.2597 23.508 39.266 23.5013ZM41.9951 23.4214L42.6916 22.698C42.6947 22.6948 42.6984 22.6922 42.7025 22.6905C42.7066 22.6887 42.711 22.6878 42.7155 22.6878C42.7199 22.6878 42.7243 22.6887 42.7284 22.6905C42.7325 22.6922 42.7362 22.6948 42.7393 22.698L43.4359 23.4214C43.4421 23.4281 43.4456 23.4369 43.4456 23.4461C43.4456 23.4552 43.4421 23.4641 43.4359 23.4708L42.7393 24.194C42.7362 24.1973 42.7325 24.1998 42.7284 24.2016C42.7243 24.2033 42.7199 24.2043 42.7155 24.2043C42.711 24.2043 42.7066 24.2033 42.7025 24.2016C42.6984 24.1998 42.6947 24.1973 42.6916 24.194L41.9951 23.4708C41.9887 23.4641 41.9851 23.4553 41.9851 23.4461C41.9851 23.4369 41.9887 23.428 41.9951 23.4214ZM43.2922 21.9526L43.9888 21.2294C43.9919 21.2262 43.9956 21.2236 43.9997 21.2219C44.0038 21.2201 44.0082 21.2192 44.0126 21.2192C44.0171 21.2192 44.0215 21.2201 44.0256 21.2219C44.0297 21.2236 44.0334 21.2262 44.0364 21.2294L44.733 21.9526C44.7392 21.9593 44.7427 21.9682 44.7427 21.9774C44.7427 21.9866 44.7392 21.9954 44.733 22.0021L44.0364 22.7253C44.0334 22.7286 44.0297 22.7312 44.0256 22.733C44.0215 22.7348 44.0171 22.7357 44.0126 22.7357C44.0082 22.7357 44.0037 22.7348 43.9996 22.733C43.9955 22.7312 43.9918 22.7286 43.9888 22.7253L43.2922 22.0021C43.2859 21.9954 43.2823 21.9866 43.2823 21.9774C43.2823 21.9682 43.2859 21.9593 43.2922 21.9526ZM35.2206 21.9325L35.9172 21.2094C35.9202 21.2062 35.9239 21.2036 35.928 21.2019C35.9321 21.2001 35.9365 21.1992 35.941 21.1992C35.9455 21.1992 35.9498 21.2001 35.9539 21.2019C35.958 21.2036 35.9617 21.2062 35.9648 21.2094L36.6613 21.9325C36.6677 21.9392 36.6712 21.9481 36.6712 21.9573C36.6712 21.9665 36.6677 21.9754 36.6613 21.9821L35.9648 22.7054C35.9617 22.7086 35.958 22.7112 35.9539 22.713C35.9498 22.7148 35.9455 22.7156 35.941 22.7156C35.9365 22.7156 35.9321 22.7148 35.928 22.713C35.9239 22.7112 35.9202 22.7086 35.9172 22.7054L35.2206 21.9821C35.2143 21.9754 35.2107 21.9666 35.2107 21.9574C35.2107 21.9482 35.2143 21.9392 35.2206 21.9325ZM37.7023 21.9061L38.5918 20.9824C38.5957 20.9783 38.6005 20.975 38.6057 20.9728C38.611 20.9705 38.6166 20.9694 38.6223 20.9694C38.628 20.9694 38.6336 20.9705 38.6389 20.9728C38.6441 20.975 38.6488 20.9783 38.6528 20.9824L39.5423 21.9061C39.5504 21.9146 39.5549 21.926 39.5549 21.9377C39.5549 21.9495 39.5504 21.9608 39.5423 21.9693L38.6528 22.893C38.6488 22.8971 38.6441 22.9003 38.6389 22.9026C38.6336 22.9048 38.628 22.906 38.6223 22.906C38.6166 22.906 38.611 22.9048 38.6057 22.9026C38.6005 22.9003 38.5957 22.8971 38.5918 22.893L37.7023 21.9693C37.6942 21.9608 37.6898 21.9495 37.6898 21.9378C37.6898 21.9261 37.6942 21.9146 37.7023 21.9061ZM40.4026 21.9461L41.292 21.0223C41.296 21.0182 41.3007 21.015 41.3059 21.0127C41.3111 21.0105 41.3168 21.0093 41.3225 21.0093C41.3282 21.0093 41.3338 21.0105 41.339 21.0127C41.3442 21.015 41.3489 21.0182 41.3529 21.0223L42.2425 21.9461C42.2506 21.9546 42.255 21.9659 42.255 21.9776C42.255 21.9893 42.2506 22.0006 42.2425 22.0091L41.3529 22.9328C41.3489 22.937 41.3443 22.9403 41.339 22.9425C41.3338 22.9448 41.3282 22.9459 41.3225 22.9459C41.3168 22.9459 41.3111 22.9448 41.3059 22.9425C41.3007 22.9403 41.2959 22.937 41.292 22.9328L40.4026 22.0091C40.3945 22.0006 40.39 21.9893 40.39 21.9776C40.39 21.9659 40.3945 21.9546 40.4026 21.9461ZM38.877 20.4216L39.9125 19.3462C39.9171 19.3414 39.9226 19.3376 39.9287 19.335C39.9348 19.3324 39.9413 19.3311 39.948 19.3311C39.9546 19.3311 39.9612 19.3324 39.9673 19.335C39.9734 19.3376 39.9789 19.3414 39.9834 19.3462L41.0192 20.4216C41.0286 20.4315 41.0338 20.4446 41.0338 20.4583C41.0338 20.472 41.0286 20.4852 41.0192 20.4951L39.9834 21.5704C39.9789 21.5753 39.9734 21.5791 39.9673 21.5817C39.9612 21.5844 39.9546 21.5858 39.948 21.5858C39.9413 21.5858 39.9348 21.5844 39.9287 21.5817C39.9226 21.5791 39.9171 21.5753 39.9125 21.5704L38.877 20.4951C38.8676 20.4852 38.8623 20.4721 38.8623 20.4584C38.8623 20.4447 38.8676 20.4315 38.877 20.4216ZM40.2029 18.883L41.2387 17.8072C41.2433 17.8024 41.2488 17.7986 41.2548 17.796C41.2609 17.7934 41.2675 17.792 41.2741 17.792C41.2807 17.792 41.2873 17.7934 41.2934 17.796C41.2995 17.7986 41.305 17.8024 41.3096 17.8072L42.3453 18.883C42.3547 18.893 42.36 18.9062 42.36 18.9198C42.36 18.9335 42.3547 18.9467 42.3453 18.9567L41.3096 20.0325C41.305 20.0373 41.2995 20.0411 41.2934 20.0437C41.2873 20.0463 41.2807 20.0477 41.2741 20.0477C41.2675 20.0477 41.2609 20.0463 41.2548 20.0437C41.2488 20.0411 41.2433 20.0373 41.2387 20.0325L40.2029 18.9567C40.1935 18.9467 40.1883 18.9335 40.1883 18.9198C40.1883 18.9062 40.1935 18.893 40.2029 18.883ZM41.7288 20.428L42.6182 19.5043C42.6221 19.5001 42.6269 19.4969 42.6321 19.4946C42.6373 19.4923 42.6429 19.4911 42.6486 19.4911C42.6543 19.4911 42.66 19.4923 42.6652 19.4946C42.6704 19.4969 42.6752 19.5001 42.679 19.5043L43.5686 20.428C43.5766 20.4366 43.5811 20.4478 43.5811 20.4595C43.5811 20.4713 43.5766 20.4826 43.5686 20.4912L42.679 21.4148C42.6751 21.4189 42.6704 21.4222 42.6652 21.4244C42.6599 21.4266 42.6543 21.4278 42.6486 21.4278C42.643 21.4278 42.6373 21.4266 42.6321 21.4244C42.6269 21.4222 42.6222 21.4189 42.6182 21.4148L41.7288 20.4912C41.7206 20.4826 41.716 20.4712 41.716 20.4594C41.716 20.4475 41.7206 20.4361 41.7287 20.4276L41.7288 20.428ZM36.338 20.4179L37.2277 19.4942C37.2316 19.4901 37.2363 19.4869 37.2415 19.4846C37.2468 19.4824 37.2524 19.4813 37.2581 19.4813C37.2637 19.4813 37.2694 19.4824 37.2746 19.4846C37.2798 19.4869 37.2845 19.4901 37.2885 19.4942L38.1779 20.4179C38.186 20.4264 38.1905 20.4377 38.1905 20.4495C38.1905 20.4613 38.186 20.4726 38.1779 20.4811L37.2885 21.4045C37.2846 21.4087 37.2799 21.4121 37.2746 21.4143C37.2694 21.4166 37.2638 21.4178 37.2581 21.4178C37.2524 21.4178 37.2467 21.4166 37.2415 21.4143C37.2363 21.4121 37.2316 21.4087 37.2277 21.4045L36.338 20.4811C36.3297 20.4725 36.3251 20.4612 36.3251 20.4493C36.3251 20.4374 36.3297 20.426 36.3379 20.4174L36.338 20.4179ZM37.5316 18.9135L38.5673 17.8382C38.5719 17.8333 38.5774 17.8295 38.5835 17.8268C38.5896 17.8242 38.5962 17.8228 38.6028 17.8228C38.6094 17.8228 38.616 17.8242 38.6221 17.8268C38.6282 17.8295 38.6337 17.8333 38.6382 17.8382L39.6738 18.9135C39.6832 18.9234 39.6885 18.9366 39.6885 18.9503C39.6885 18.964 39.6832 18.9771 39.6738 18.987L38.6382 20.0624C38.6336 20.0672 38.6282 20.071 38.6221 20.0737C38.616 20.0763 38.6094 20.0776 38.6028 20.0776C38.5962 20.0776 38.5896 20.0763 38.5835 20.0737C38.5774 20.071 38.5719 20.0672 38.5673 20.0624L37.5316 18.987C37.5221 18.977 37.5168 18.9638 37.5168 18.95C37.5168 18.9362 37.5221 18.923 37.5316 18.913V18.9135Z" fill="white"/>
<circle cx="40.0635" cy="25.0638" r="11.0721" stroke="white" stroke-width="0.451498"/>
<circle cx="40" cy="25" r="11.871" stroke="white" stroke-width="0.257999"/>
</svg>
