<svg width="50" height="50" viewBox="0 0 50 50" fill="none" xmlns="http://www.w3.org/2000/svg">
<circle cx="25" cy="25" r="25" fill="#F3F9F9"/>
<path d="M30.4943 11.3511H18.858C17.1976 11.3511 15.8516 12.6971 15.8516 14.3575V35.9739C15.8516 37.6344 17.1976 38.9804 18.858 38.9804H30.4943C32.1547 38.9804 33.5007 37.6344 33.5007 35.9739V14.3575C33.5007 12.6971 32.1547 11.3511 30.4943 11.3511Z" stroke="#47AAAF" stroke-width="2.52"/>
<path d="M29.274 14.1997H22.5229C21.9019 14.1997 21.3984 14.7236 21.3984 15.37V15.3716C21.3984 16.0179 21.9019 16.5418 22.5229 16.5418H29.274C29.895 16.5418 30.3984 16.0179 30.3984 15.3716V15.37C30.3984 14.7236 29.895 14.1997 29.274 14.1997Z" fill="#47AAAF"/>
<path d="M19.5352 14.1997H19.5335C18.8872 14.1997 18.3633 14.7236 18.3633 15.37V15.3716C18.3633 16.0179 18.8872 16.5418 19.5335 16.5418H19.5352C20.1815 16.5418 20.7054 16.0179 20.7054 15.3716V15.37C20.7054 14.7236 20.1815 14.1997 19.5352 14.1997Z" fill="#47AAAF"/>
<path d="M27.9264 33.9995H21.1752C20.5542 33.9995 20.0508 34.5431 20.0508 35.2137V35.2154C20.0508 35.8859 20.5542 36.4295 21.1752 36.4295H27.9264C28.5474 36.4295 29.0508 35.8859 29.0508 35.2154V35.2137C29.0508 34.5431 28.5474 33.9995 27.9264 33.9995Z" fill="#47AAAF"/>
</svg>
