<svg width="50" height="50" viewBox="0 0 50 50" fill="none" xmlns="http://www.w3.org/2000/svg">
<circle cx="25" cy="25" r="25" fill="#F3F9F9"/>
<g clip-path="url(#clip0_1_11266)">
<path d="M26.2733 39.0243C24.3195 39.0243 24.1297 37.9008 24.1297 37.9008L24.1289 35.0601L24.1296 30.3056C24.1296 30.3056 24.1315 23.2997 24.1315 21.3458L24.1305 19.203V10.6316C24.1305 10.6316 24.3195 10.5244 26.2733 10.5244C28.2425 10.5244 30.0901 10.8989 31.8161 11.648C33.542 12.397 35.0502 13.4167 36.3406 14.7071C37.631 15.9975 38.6507 17.5057 39.3997 19.2316C40.1488 20.9576 40.5233 22.8052 40.5233 24.7744C40.5233 26.7282 40.1488 28.572 39.3997 30.3056C38.6507 32.0392 37.631 33.5513 36.3406 34.8417C35.0502 36.132 33.542 37.1517 31.8161 37.9008C30.0901 38.6498 28.2425 39.0243 26.2733 39.0243ZM26.2733 36.7427C27.0387 35.7273 27.683 34.7032 28.206 33.6705C28.7291 32.6378 29.1551 31.5089 29.4839 30.284H26.2733V33.6705V36.7427ZM29.1781 36.3302C30.8569 35.9763 32.3627 35.2696 33.6954 34.21C35.0281 33.1504 36.0906 31.8417 36.883 30.284H31.7944C31.4925 31.3974 31.1127 32.4797 30.655 33.5306C30.1973 34.5816 29.705 35.5148 29.1781 36.3302ZM26.2733 28.034H30.0003C30.0945 27.4763 30.1628 26.9345 30.2051 26.4085C30.2474 25.8826 30.2685 25.3378 30.2685 24.7744C30.2685 24.2109 30.2474 23.6662 30.2051 23.1402C30.1628 22.6143 30.0945 22.0724 30.0003 21.5147H26.2733V23.1546C26.231 23.6806 26.2733 28.034 26.2733 28.034ZM32.2502 28.034H37.8262C37.9704 27.5244 38.081 26.9946 38.1579 26.4446C38.2349 25.8946 38.2733 25.3378 38.2733 24.7744C38.2733 24.2109 38.2349 23.6542 38.1579 23.1042C38.081 22.5542 37.9704 22.0244 37.8262 21.5147H32.2502C32.3444 22.0724 32.4127 22.6191 32.455 23.1546C32.4973 23.6902 32.5185 24.2302 32.5185 24.7744C32.5185 25.3186 32.4973 25.8585 32.455 26.3941C32.4127 26.9297 32.3444 27.4763 32.2502 28.034ZM31.7944 19.2648H36.883C36.081 17.6879 35.0257 16.3792 33.7171 15.3388C32.4084 14.2984 30.8954 13.5869 29.1781 13.2042C29.7531 14.0772 30.2646 15.0321 30.7127 16.0686C31.1608 17.1052 31.5214 18.1706 31.7944 19.2648ZM26.2733 19.2316L29.4839 19.2648C29.1358 18.011 28.6979 16.8557 28.17 15.7989C27.6421 14.7422 27.0099 13.7446 26.2733 12.8061V16.0686V19.2316Z" fill="#47AAAF"/>
<path d="M16.8443 38.9174C15.2161 37.2892 13.1412 35.0857 12.2572 32.6834C11.3732 30.2811 10.9345 27.7004 10.9412 24.9414C10.9478 22.1824 11.395 19.6019 12.2829 17.1999C13.1708 14.7979 15.3155 12.182 16.9483 10.5493C17.2105 10.287 17.5155 10.1548 17.8632 10.1528C18.2108 10.1507 18.5142 10.2792 18.7734 10.5384L22.0518 13.6978C22.27 13.916 22.3911 14.1799 22.4151 14.4893C22.4391 14.7987 22.3688 15.0811 22.2043 15.3364L19.8757 18.8813C19.6735 19.1522 19.463 19.3483 19.2443 19.4695C19.0257 19.5907 18.7955 19.6459 18.5537 19.6352L14.6107 19.5874C14.3421 20.4984 13.9527 21.156 13.8394 22.0945C13.7261 23.033 13.6704 23.982 13.6724 24.9414C13.6711 25.8908 13.7336 26.8363 13.8598 27.7778C13.986 28.7193 14.1832 29.6751 14.4514 30.6453L18.5586 30.346C18.8348 30.3401 19.0973 30.4049 19.3461 30.5404C19.5949 30.6759 19.8084 30.8617 19.9867 31.0977L21.9872 34.2031C22.1476 34.4791 22.214 34.7688 22.1865 35.0721C22.1589 35.3755 22.0401 35.6322 21.8302 35.8421L18.6694 38.9232C18.4095 39.1831 18.1057 39.3125 17.7581 39.3114C17.4105 39.3103 17.1059 39.179 16.8443 38.9174ZM15.0287 17.4777L18.05 17.54C18.0999 17.5455 18.1484 17.533 18.1956 17.5024C18.2428 17.4718 18.2775 17.4343 18.2998 17.39L19.8602 15.0785C19.8936 15.023 19.9075 14.9703 19.902 14.9204C19.8966 14.8705 19.8717 14.8234 19.8274 14.7791L17.9799 12.9316C17.9467 12.8983 17.9079 12.8818 17.8635 12.8818C17.8191 12.8819 17.7803 12.8986 17.7469 12.9319C17.1992 13.5682 16.6944 14.2663 16.2325 15.0261C15.7706 15.786 15.3693 16.6032 15.0287 17.4777ZM15.0578 32.4811C15.3627 33.3215 15.7554 34.1234 16.2357 34.8869C16.716 35.6505 17.2131 36.3158 17.727 36.883C17.7602 36.9162 17.799 36.9328 17.8433 36.9328C17.8877 36.9327 17.9266 36.916 17.9599 36.8827L19.7825 35.06C19.827 35.0156 19.852 34.9684 19.8576 34.9185C19.8632 34.8686 19.8494 34.8159 19.8162 34.7605L18.3718 32.5764C18.3497 32.532 18.322 32.5016 18.2888 32.485C18.2555 32.4684 18.2112 32.4601 18.1557 32.4602L15.0578 32.4811Z" fill="#47AAAF"/>
</g>
<defs>
<clipPath id="clip0_1_11266">
<rect width="36" height="36" fill="white" transform="translate(7 7)"/>
</clipPath>
</defs>
</svg>
