<svg width="50" height="50" viewBox="0 0 50 50" fill="none" xmlns="http://www.w3.org/2000/svg">
<circle cx="25" cy="25" r="25" fill="#F3F9F9"/>
<path d="M25.2452 34.9888C24.5566 34.9888 23.9745 34.7511 23.499 34.2756C23.0236 33.8001 22.7858 33.2181 22.7858 32.5295C22.7858 31.8408 23.0236 31.2588 23.499 30.7833C23.9745 30.3078 24.5566 30.0701 25.2452 30.0701C25.9338 30.0701 26.5158 30.3078 26.9913 30.7833C27.4668 31.2588 27.7046 31.8408 27.7046 32.5295C27.7046 33.2181 27.4668 33.8001 26.9913 34.2756C26.5158 34.7511 25.9338 34.9888 25.2452 34.9888ZM18.3635 28.4585L16.4616 26.5192C17.589 25.3917 18.9018 24.5032 20.3998 23.8536C21.8978 23.204 23.5136 22.8792 25.2471 22.8792C26.9807 22.8792 28.5958 23.2072 30.0925 23.863C31.5893 24.5188 32.9013 25.4167 34.0287 26.5566L32.1268 28.4585C31.2337 27.5653 30.1984 26.865 29.021 26.3575C27.8436 25.85 26.585 25.5963 25.2452 25.5963C23.9054 25.5963 22.6468 25.85 21.4694 26.3575C20.292 26.865 19.2567 27.5653 18.3635 28.4585ZM13.1871 23.2821L11.2852 21.3802C13.0669 19.5735 15.1476 18.1537 17.5273 17.1207C19.9071 16.0878 22.4797 15.5713 25.2452 15.5713C28.0106 15.5713 30.5833 16.0878 32.963 17.1207C35.3428 18.1537 37.4235 19.5735 39.2052 21.3802L37.3033 23.2821C35.7402 21.719 33.9285 20.4959 31.868 19.6129C29.8076 18.7298 27.6 18.2883 25.2452 18.2883C22.8904 18.2883 20.6828 18.7298 18.6223 19.6129C16.5619 20.4959 14.7501 21.719 13.1871 23.2821Z" fill="#47AAAF"/>
</svg>
