<svg width="50" height="50" viewBox="0 0 50 50" fill="none" xmlns="http://www.w3.org/2000/svg">
<circle cx="25" cy="25" r="25" fill="#F3F9F9"/>
<path d="M20.0244 37.7499V34.8381H13.9209C13.1855 34.8381 12.563 34.5833 12.0534 34.0738C11.5438 33.5642 11.2891 32.9417 11.2891 32.2063V15.6317C11.2891 14.8963 11.5438 14.2738 12.0534 13.7642C12.563 13.2547 13.1855 12.9999 13.9209 12.9999H36.319C37.0544 12.9999 37.6769 13.2547 38.1865 13.7642C38.6961 14.2738 38.9508 14.8963 38.9508 15.6317V32.2063C38.9508 32.9417 38.6961 33.5642 38.1865 34.0738C37.6769 34.5833 37.0544 34.8381 36.319 34.8381H30.2155V37.7499H20.0244ZM13.9209 32.6543H36.319C36.431 32.6543 36.5337 32.6076 36.6271 32.5143C36.7204 32.421 36.767 32.3183 36.767 32.2063V15.6317C36.767 15.5197 36.7204 15.417 36.6271 15.3237C36.5337 15.2303 36.431 15.1837 36.319 15.1837H13.9209C13.8089 15.1837 13.7062 15.2303 13.6128 15.3237C13.5195 15.417 13.4729 15.5197 13.4729 15.6317V32.2063C13.4729 32.3183 13.5195 32.421 13.6128 32.5143C13.7062 32.6076 13.8089 32.6543 13.9209 32.6543Z" fill="#47AAAF"/>
<path d="M19.2964 28.2867V21.0073H16.3847V19.5514H23.6641V21.0073H20.7523V28.2867H19.2964Z" fill="#47AAAF"/>
<path d="M25.12 19.5514L28.7597 28.2867H30.2156L33.8553 19.5514H32.3994L29.4876 26.1029L26.5759 19.5514H25.12Z" fill="#47AAAF"/>
</svg>
