<svg width="36" height="36" viewBox="0 0 36 36" fill="none" xmlns="http://www.w3.org/2000/svg">
<mask id="path-1-inside-1_1_12087" fill="white">
<path fill-rule="evenodd" clip-rule="evenodd" d="M16.3655 8.8061L17.8174 7.29868C17.8238 7.29195 17.8315 7.28661 17.8401 7.28295C17.8486 7.27929 17.8578 7.27734 17.8671 7.27734C17.8764 7.27734 17.8855 7.27929 17.8941 7.28295C17.9026 7.28661 17.9103 7.29195 17.9167 7.29868L19.3684 8.8061C19.3817 8.82 19.3891 8.83847 19.3891 8.85772C19.3891 8.87696 19.3817 8.89543 19.3684 8.90933L17.9167 10.4169C17.9103 10.4236 17.9026 10.4289 17.8941 10.4326C17.8855 10.4362 17.8764 10.4382 17.8671 10.4382C17.8578 10.4382 17.8486 10.4362 17.8401 10.4326C17.8315 10.4289 17.8238 10.4236 17.8174 10.4169L16.3655 8.90933C16.3524 8.89535 16.345 8.87691 16.345 8.85772C16.345 8.83852 16.3524 8.82008 16.3655 8.8061ZM10.9233 19.7658L11.4346 19.2349C11.4368 19.2326 11.4396 19.2307 11.4426 19.2294C11.4456 19.2282 11.4488 19.2275 11.452 19.2275C11.4553 19.2275 11.4585 19.2282 11.4615 19.2294C11.4645 19.2307 11.4672 19.2326 11.4694 19.2349L11.9809 19.7658C11.9856 19.7707 11.9881 19.7772 11.9881 19.784C11.9881 19.7908 11.9856 19.7973 11.9809 19.8022L11.4694 20.3329C11.4672 20.3353 11.4645 20.3372 11.4615 20.3384C11.4585 20.3397 11.4553 20.3404 11.452 20.3404C11.4488 20.3404 11.4456 20.3397 11.4426 20.3384C11.4396 20.3372 11.4368 20.3353 11.4346 20.3329L10.9233 19.8022C10.9187 19.7973 10.9161 19.7908 10.9161 19.784C10.9161 19.7772 10.9188 19.7707 10.9233 19.7658ZM23.963 19.7179L24.4741 19.1872C24.4764 19.1848 24.4791 19.1829 24.4822 19.1816C24.4852 19.1803 24.4885 19.1796 24.4917 19.1796C24.495 19.1796 24.4983 19.1803 24.5013 19.1816C24.5043 19.1829 24.507 19.1848 24.5093 19.1872L25.0205 19.7179C25.0251 19.7228 25.0277 19.7294 25.0277 19.7361C25.0277 19.7429 25.0251 19.7493 25.0205 19.7543L24.5093 20.2852C24.507 20.2876 24.5043 20.2894 24.5013 20.2907C24.4983 20.292 24.495 20.2926 24.4917 20.2926C24.4885 20.2926 24.4852 20.292 24.4822 20.2907C24.4791 20.2894 24.4764 20.2876 24.4741 20.2852L23.963 19.7543C23.9584 19.7494 23.9558 19.7429 23.9558 19.7361C23.9558 19.7294 23.9584 19.7229 23.963 19.7179ZM13.9355 19.7605L14.7714 18.8927C14.7751 18.8888 14.7795 18.8856 14.7844 18.8835C14.7893 18.8814 14.7946 18.8803 14.8 18.8803C14.8053 18.8803 14.8106 18.8814 14.8155 18.8835C14.8205 18.8856 14.8249 18.8888 14.8285 18.8927L15.6644 19.7605C15.6718 19.7686 15.6759 19.7792 15.6759 19.7902C15.6759 19.8012 15.6718 19.8119 15.6644 19.82L14.8285 20.6879C14.8248 20.6918 14.8204 20.6949 14.8155 20.697C14.8106 20.6991 14.8053 20.7002 14.8 20.7002C14.7946 20.7002 14.7893 20.6991 14.7844 20.697C14.7795 20.6949 14.7751 20.6918 14.7714 20.6879L13.9355 19.82C13.9279 19.812 13.9236 19.8014 13.9236 19.7904C13.9236 19.7793 13.9279 19.7685 13.9355 19.7605ZM17.118 19.6764L17.9539 18.8085C17.9576 18.8046 17.9621 18.8016 17.967 18.7995C17.9719 18.7974 17.9771 18.7963 17.9825 18.7963C17.9878 18.7963 17.9931 18.7974 17.9981 18.7995C18.003 18.8016 18.0074 18.8046 18.0111 18.8085L18.847 19.6764C18.8546 19.6845 18.8589 19.6951 18.8589 19.7062C18.8589 19.7173 18.8546 19.7279 18.847 19.7359L18.0111 20.604C18.0074 20.6078 18.003 20.6109 17.9981 20.613C17.9931 20.6151 17.9878 20.6162 17.9825 20.6162C17.9771 20.6162 17.9719 20.6151 17.967 20.613C17.9621 20.6109 17.9576 20.6078 17.9539 20.604L17.118 19.7359C17.1106 19.7278 17.1065 19.7173 17.1065 19.7063C17.1064 19.6953 17.1106 19.6846 17.118 19.6764ZM20.3929 19.7726L21.2287 18.9046C21.2324 18.9007 21.2368 18.8977 21.2417 18.8956C21.2466 18.8935 21.2519 18.8923 21.2573 18.8923C21.2626 18.8923 21.268 18.8935 21.2729 18.8956C21.2778 18.8977 21.2822 18.9007 21.2859 18.9046L22.1218 19.7726C22.1294 19.7806 22.1336 19.7913 22.1336 19.8023C22.1336 19.8134 22.1294 19.8239 22.1218 19.832L21.2859 20.6998C21.2822 20.7037 21.2778 20.7068 21.2729 20.7089C21.268 20.7111 21.2627 20.7122 21.2573 20.7122C21.2519 20.7122 21.2466 20.7111 21.2417 20.7089C21.2368 20.7068 21.2323 20.7037 21.2287 20.6998L20.3929 19.832C20.3854 19.8239 20.3812 19.8133 20.3812 19.8023C20.3811 19.7913 20.3854 19.7806 20.3929 19.7726ZM21.9494 21.535L22.7853 20.6669C22.789 20.663 22.7934 20.66 22.7983 20.6579C22.8032 20.6558 22.8086 20.6546 22.8139 20.6546C22.8192 20.6546 22.8245 20.6558 22.8294 20.6579C22.8343 20.66 22.8388 20.663 22.8425 20.6669L23.6784 21.535C23.686 21.5429 23.6902 21.5536 23.6902 21.5646C23.6902 21.5756 23.686 21.5862 23.6784 21.5942L22.8425 22.4622C22.8388 22.4661 22.8344 22.4692 22.8295 22.4713C22.8246 22.4734 22.8193 22.4745 22.8139 22.4745C22.8086 22.4745 22.8032 22.4734 22.7983 22.4713C22.7934 22.4692 22.789 22.4661 22.7853 22.4622L21.9494 21.5942C21.9419 21.5862 21.9377 21.5757 21.9377 21.5647C21.9377 21.5537 21.9419 21.543 21.9494 21.535ZM12.2635 21.5588L13.0993 20.6909C13.103 20.6871 13.1075 20.684 13.1124 20.6819C13.1173 20.6798 13.1226 20.6787 13.1279 20.6787C13.1333 20.6787 13.1386 20.6798 13.1435 20.6819C13.1484 20.684 13.1528 20.6871 13.1565 20.6909L13.9924 21.5588C14.0001 21.5668 14.0043 21.5774 14.0043 21.5885C14.0043 21.5996 14.0001 21.6101 13.9924 21.6182L13.1565 22.4862C13.1528 22.4901 13.1484 22.4931 13.1435 22.4953C13.1386 22.4974 13.1333 22.4985 13.1279 22.4985C13.1226 22.4985 13.1173 22.4974 13.1124 22.4953C13.1075 22.4931 13.103 22.4901 13.0993 22.4862L12.2635 21.6182C12.256 21.61 12.2519 21.5995 12.2519 21.5885C12.2518 21.5775 12.2561 21.5669 12.2635 21.5588ZM15.2418 21.5742L16.3091 20.4658C16.3138 20.4609 16.3195 20.457 16.3258 20.4543C16.3321 20.4516 16.3388 20.4503 16.3456 20.4503C16.3524 20.4503 16.3591 20.4516 16.3654 20.4543C16.3717 20.457 16.3773 20.4609 16.3821 20.4658L17.4495 21.5742C17.4592 21.5844 17.4646 21.598 17.4646 21.6121C17.4646 21.6262 17.4592 21.6398 17.4495 21.6501L16.3821 22.7583C16.3774 22.7632 16.3717 22.7673 16.3655 22.7699C16.3592 22.7726 16.3524 22.774 16.3456 22.774C16.3388 22.774 16.332 22.7726 16.3258 22.7699C16.3195 22.7673 16.3138 22.7632 16.3091 22.7583L15.2418 21.6501C15.2321 21.6398 15.2266 21.6262 15.2266 21.6121C15.2266 21.598 15.2321 21.5844 15.2418 21.5742ZM18.4818 21.5264L19.5492 20.4179C19.5539 20.4129 19.5596 20.409 19.5659 20.4063C19.5722 20.4036 19.579 20.4022 19.5858 20.4022C19.5927 20.4022 19.5994 20.4036 19.6057 20.4063C19.612 20.409 19.6177 20.4129 19.6224 20.4179L20.6898 21.5264C20.6994 21.5367 20.7048 21.5502 20.7048 21.5643C20.7048 21.5784 20.6994 21.592 20.6898 21.6022L19.6224 22.7106C19.6177 22.7155 19.612 22.7194 19.6057 22.7221C19.5994 22.7248 19.5926 22.7261 19.5858 22.7261C19.579 22.7261 19.5722 22.7248 19.5659 22.7221C19.5596 22.7194 19.5539 22.7155 19.5492 22.7106L18.4818 21.6022C18.4721 21.592 18.4667 21.5784 18.4667 21.5643C18.4667 21.5502 18.4721 21.5367 18.4818 21.5264ZM16.6511 23.3431L17.894 22.0528C17.8995 22.047 17.906 22.0424 17.9134 22.0392C17.9207 22.036 17.9285 22.0343 17.9365 22.0343C17.9445 22.0343 17.9524 22.036 17.9597 22.0392C17.967 22.0424 17.9736 22.047 17.9791 22.0528L19.2217 23.3431C19.233 23.3551 19.2393 23.3708 19.2393 23.3872C19.2393 23.4036 19.233 23.4195 19.2217 23.4314L17.9791 24.7218C17.9736 24.7275 17.967 24.7321 17.9597 24.7353C17.9524 24.7384 17.9445 24.74 17.9365 24.74C17.9286 24.74 17.9207 24.7384 17.9134 24.7353C17.9061 24.7321 17.8995 24.7275 17.894 24.7218L16.6511 23.4314C16.6398 23.4195 16.6334 23.4036 16.6334 23.3872C16.6334 23.3708 16.6398 23.3551 16.6511 23.3431ZM18.2421 25.1895L19.485 23.8983C19.4905 23.8926 19.4971 23.888 19.5044 23.8849C19.5118 23.8817 19.5196 23.8801 19.5276 23.8801C19.5355 23.8801 19.5434 23.8817 19.5507 23.8849C19.558 23.888 19.5646 23.8926 19.5701 23.8983L20.813 25.1895C20.8243 25.2014 20.8306 25.2172 20.8306 25.2337C20.8306 25.2501 20.8243 25.2658 20.813 25.2777L19.5701 26.5689C19.5646 26.5746 19.558 26.5792 19.5507 26.5823C19.5434 26.5855 19.5355 26.5872 19.5276 26.5872C19.5196 26.5872 19.5118 26.5855 19.5044 26.5823C19.4971 26.5792 19.4905 26.5746 19.485 26.5689L18.2421 25.2777C18.2309 25.2658 18.2247 25.25 18.2247 25.2337C18.2247 25.2173 18.2309 25.2014 18.2421 25.1895ZM20.0732 23.3484L21.1406 22.2401C21.1454 22.2351 21.151 22.2312 21.1573 22.2285C21.1636 22.2259 21.1703 22.2244 21.1771 22.2244C21.1839 22.2244 21.1907 22.2259 21.1969 22.2285C21.2032 22.2312 21.2089 22.2351 21.2136 22.2401L22.2812 23.3484C22.2908 23.3587 22.2962 23.3724 22.2962 23.3865C22.2962 23.4006 22.2908 23.4141 22.2812 23.4244L21.2136 24.5324C21.2089 24.5374 21.2033 24.5415 21.197 24.5442C21.1907 24.5469 21.184 24.5483 21.1771 24.5483C21.1703 24.5483 21.1635 24.5469 21.1572 24.5442C21.151 24.5415 21.1453 24.5374 21.1406 24.5324L20.0732 23.4244C20.0635 23.4142 20.0581 23.4006 20.058 23.3865C20.058 23.3723 20.0635 23.3587 20.0732 23.3484ZM13.6042 23.3602L14.6718 22.2521C14.6765 22.2471 14.6822 22.2432 14.6884 22.2405C14.6947 22.2378 14.7015 22.2363 14.7083 22.2363C14.7152 22.2363 14.7219 22.2378 14.7282 22.2405C14.7345 22.2432 14.7401 22.2471 14.7448 22.2521L15.8121 23.3602C15.8218 23.3704 15.8273 23.3841 15.8273 23.3982C15.8273 23.4124 15.8218 23.426 15.8121 23.4363L14.7448 24.5446C14.7401 24.5495 14.7344 24.5535 14.7281 24.5561C14.7219 24.5588 14.7151 24.5602 14.7083 24.5602C14.7015 24.5602 14.6948 24.5588 14.6885 24.5561C14.6822 24.5535 14.6765 24.5495 14.6718 24.5446L13.6042 23.4363C13.5945 23.426 13.5891 23.4124 13.5891 23.3983C13.589 23.3842 13.5945 23.3704 13.6042 23.3602ZM15.0366 25.1532L16.2794 23.8629C16.2849 23.8572 16.2916 23.8526 16.2989 23.8495C16.3062 23.8464 16.314 23.8448 16.322 23.8448C16.3299 23.8448 16.3378 23.8464 16.3451 23.8495C16.3524 23.8526 16.359 23.8572 16.3645 23.8629L17.6074 25.1532C17.6186 25.1651 17.6249 25.181 17.6249 25.1973C17.6249 25.2137 17.6186 25.2296 17.6074 25.2415L16.3645 26.5326C16.359 26.5383 16.3524 26.5428 16.3451 26.5459C16.3378 26.549 16.3299 26.5507 16.322 26.5507C16.314 26.5507 16.3062 26.549 16.2989 26.5459C16.2916 26.5428 16.2849 26.5383 16.2794 26.5326L15.0366 25.2415C15.0255 25.2296 15.0194 25.2138 15.0194 25.1976C15.0194 25.1813 15.0255 25.1651 15.0366 25.1532ZM19.3687 27.0291L17.9169 25.5217C17.9105 25.515 17.9028 25.5096 17.8942 25.506C17.8857 25.5023 17.8765 25.5005 17.8672 25.5005C17.8579 25.5005 17.8487 25.5023 17.8402 25.506C17.8316 25.5096 17.8239 25.515 17.8175 25.5217L16.3655 27.0291C16.3524 27.0431 16.345 27.0617 16.345 27.0809C16.345 27.1001 16.3524 27.1186 16.3655 27.1326L17.8175 28.6402C17.8239 28.6469 17.8317 28.6521 17.8402 28.6557C17.8488 28.6594 17.8579 28.6612 17.8672 28.6612C17.8764 28.6612 17.8856 28.6594 17.8942 28.6557C17.9027 28.6521 17.9104 28.6469 17.9169 28.6402L19.3687 27.1326C19.3819 27.1186 19.3893 27.1 19.3893 27.0808C19.3893 27.0615 19.382 27.0431 19.3687 27.0291ZM25.786 17.0714H27.1583V17.117C27.0889 17.1107 27.0194 17.1279 26.9611 17.1661C26.9237 17.2287 26.9085 17.3022 26.918 17.3746V18.2955C26.9103 18.4068 26.9206 18.5186 26.9485 18.6266C26.9693 18.6683 27.0353 18.6899 27.1472 18.6899V19.2132H27.1055C27.0878 19.1082 27.0475 19.0085 26.9873 18.9208C26.9419 18.8538 26.8773 18.802 26.802 18.7723C26.722 18.7457 26.638 18.733 26.5537 18.7349H26.1292C26.0541 18.7285 25.9786 18.7386 25.9079 18.7646C25.8372 18.7907 25.7731 18.8319 25.7201 18.8855C25.6374 18.9773 25.5831 19.0911 25.5638 19.2132H25.5221V18.6899C25.5915 18.6809 25.6573 18.6544 25.7136 18.6129C25.7698 18.5714 25.8146 18.5163 25.8436 18.4528C25.9331 18.2851 25.9913 18.1026 26.0152 17.9141C26.0437 17.7406 26.0597 17.5653 26.0631 17.3896C26.0669 17.3279 26.0565 17.2662 26.0325 17.2092C26.0183 17.1768 25.9923 17.151 25.9598 17.1371C25.9028 17.1235 25.8445 17.1169 25.7859 17.1174L25.786 17.0714ZM26.1858 17.162C26.1831 17.5054 26.1441 17.8475 26.0695 18.1827C26.026 18.3509 25.9475 18.508 25.839 18.6436H26.4546C26.5216 18.6516 26.5895 18.6416 26.6514 18.6147C26.6734 18.5953 26.6844 18.5337 26.6844 18.4281V17.162H26.1858ZM22.5228 17.8427H23.2952V17.3669C23.2984 17.3104 23.2931 17.2537 23.2793 17.1988C23.2687 17.176 23.2506 17.1574 23.2279 17.1462C23.1939 17.127 23.1554 17.1169 23.1162 17.1169H23.0575V17.0713H23.7686V17.1169H23.7097C23.6708 17.1168 23.6326 17.1265 23.5985 17.145C23.586 17.1508 23.5748 17.159 23.5656 17.1692C23.5564 17.1794 23.5494 17.1914 23.5449 17.2044C23.5328 17.2577 23.5281 17.3124 23.5309 17.3669V18.4402C23.5275 18.4962 23.5329 18.5526 23.5468 18.607C23.5569 18.6298 23.5747 18.6484 23.597 18.6596C23.6314 18.679 23.6702 18.6894 23.7097 18.6895H23.7686V18.7346H23.0575V18.6895H23.1162C23.144 18.6919 23.1719 18.6876 23.1978 18.6771C23.2236 18.6667 23.2466 18.6501 23.2648 18.6291C23.2918 18.57 23.3023 18.5048 23.2952 18.4403V17.9337H22.5228V18.4403C22.5196 18.4963 22.525 18.5526 22.5387 18.6071C22.5494 18.6301 22.5678 18.6486 22.5907 18.6597C22.6245 18.6793 22.663 18.6896 22.7021 18.6896H22.7622V18.7347H22.0499V18.6896H22.1084C22.1364 18.692 22.1645 18.6877 22.1905 18.6772C22.2166 18.6668 22.2398 18.6503 22.2583 18.6292C22.2841 18.5698 22.2943 18.5048 22.2876 18.4404V17.367C22.2907 17.3106 22.2853 17.2539 22.2717 17.199C22.2613 17.1763 22.2435 17.1578 22.2213 17.1463C22.1867 17.1271 22.1479 17.1171 22.1083 17.117H22.0498V17.0716H22.7622V17.117H22.7021C22.6632 17.1169 22.6248 17.1266 22.5907 17.1453C22.5784 17.1512 22.5674 17.1595 22.5584 17.1696C22.5493 17.1798 22.5424 17.1917 22.5379 17.2045C22.5249 17.2577 22.5198 17.3124 22.5228 17.367V17.8427ZM19.6721 18.1778H19.0283L18.9156 18.4402C18.8928 18.4854 18.8785 18.5346 18.8737 18.585C18.8742 18.5981 18.8777 18.6109 18.8839 18.6224C18.8902 18.6339 18.8991 18.6437 18.9098 18.6512C18.9577 18.6772 19.0116 18.6902 19.0662 18.689V18.7341H18.5425V18.689C18.5908 18.6846 18.6371 18.668 18.6772 18.6408C18.7379 18.5705 18.7849 18.4894 18.8158 18.4018L19.4006 17.0334H19.4432L20.0224 18.4166C20.0495 18.4965 20.0926 18.5702 20.1491 18.633C20.1944 18.6688 20.2503 18.6885 20.308 18.6891V18.7343H19.6519V18.6891C19.6989 18.691 19.7455 18.6795 19.7862 18.656C19.7971 18.6482 19.806 18.6379 19.8121 18.626C19.8182 18.614 19.8214 18.6008 19.8214 18.5874C19.8149 18.5281 19.7982 18.4705 19.772 18.417L19.6721 18.1778ZM19.6378 18.0868L19.3555 17.415L19.0662 18.0868H19.6378ZM16.4959 17.8859C16.5914 17.9009 16.6809 17.9416 16.755 18.0036C16.7932 18.0386 16.8236 18.0813 16.8441 18.1288C16.8645 18.1764 16.8747 18.2277 16.8739 18.2795C16.8729 18.3648 16.8454 18.4478 16.7951 18.5168C16.7424 18.593 16.6671 18.6509 16.5799 18.6823C16.4448 18.7233 16.3038 18.741 16.1627 18.7347H15.3775V18.6895H15.44C15.4685 18.6922 15.4972 18.6874 15.5233 18.6758C15.5495 18.6643 15.5723 18.6462 15.5894 18.6233C15.6138 18.5657 15.6236 18.503 15.6179 18.4407V17.3663C15.6261 17.2993 15.6136 17.2313 15.5822 17.1715C15.5639 17.1526 15.5417 17.1381 15.5171 17.1288C15.4925 17.1195 15.4662 17.1156 15.44 17.1176H15.3775V17.0721H16.096C16.2044 17.0696 16.3127 17.0795 16.4188 17.1017C16.5267 17.1226 16.625 17.1773 16.6996 17.2579C16.7627 17.3291 16.7971 17.4211 16.7962 17.5162C16.7971 17.5973 16.7703 17.6763 16.7204 17.7401C16.6623 17.8108 16.584 17.8613 16.4959 17.8859ZM15.8532 17.8197C15.8875 17.8259 15.9222 17.8303 15.9571 17.8328C15.996 17.8356 16.0387 17.8367 16.0851 17.8367C16.1765 17.8413 16.2679 17.8283 16.3544 17.7983C16.4121 17.7749 16.4606 17.7332 16.4925 17.6798C16.5243 17.6273 16.5408 17.567 16.5403 17.5056C16.5404 17.4579 16.5297 17.4107 16.5091 17.3677C16.4884 17.3247 16.4584 17.2869 16.4211 17.257C16.3218 17.1819 16.1986 17.1453 16.0743 17.1539C15.9998 17.153 15.9256 17.1619 15.8536 17.1807L15.8532 17.8197ZM15.8532 18.6142C15.9452 18.636 16.0394 18.6471 16.134 18.6473C16.2552 18.6556 16.3754 18.6202 16.4727 18.5474C16.5095 18.5177 16.5391 18.4799 16.5592 18.4372C16.5794 18.3944 16.5895 18.3476 16.589 18.3003C16.5886 18.2346 16.5704 18.1701 16.5362 18.114C16.4957 18.0498 16.4355 18.0004 16.3647 17.9731C16.2711 17.9362 16.171 17.9187 16.0705 17.9216C16.0197 17.9216 15.9761 17.9225 15.9401 17.9238C15.9109 17.9246 15.8818 17.9276 15.8529 17.9326L15.8532 18.6142ZM12.784 17.9558V18.4402C12.7758 18.5072 12.7878 18.5752 12.8186 18.6353C12.8366 18.6542 12.8585 18.6688 12.8828 18.6781C12.9071 18.6875 12.9332 18.6914 12.9592 18.6894H13.0233V18.7345H12.3107V18.6894H12.3731C12.402 18.692 12.4311 18.687 12.4575 18.675C12.4839 18.663 12.5068 18.6443 12.5238 18.6208C12.5455 18.5632 12.554 18.5014 12.5485 18.4402V17.3656C12.5566 17.2989 12.5451 17.2312 12.5154 17.1709C12.497 17.1521 12.4748 17.1375 12.4502 17.1281C12.4256 17.1188 12.3993 17.1151 12.3731 17.117H12.3107V17.0714H12.9202C13.0392 17.0673 13.1581 17.0828 13.272 17.1175C13.3576 17.1478 13.4329 17.2015 13.4893 17.2725C13.5483 17.3457 13.5795 17.4374 13.5776 17.5314C13.5798 17.5929 13.569 17.6543 13.5459 17.7114C13.5227 17.7684 13.4877 17.8199 13.4431 17.8624C13.3381 17.953 13.2018 17.9988 13.0634 17.9901C13.02 17.9899 12.9767 17.987 12.9337 17.9814C12.8871 17.9755 12.8371 17.9672 12.784 17.9558ZM12.784 17.8858C12.8273 17.8939 12.8661 17.9001 12.8993 17.9043C12.9277 17.9079 12.9563 17.9099 12.985 17.9103C13.0268 17.9105 13.0681 17.9018 13.1062 17.8846C13.1443 17.8675 13.1782 17.8423 13.2057 17.8109C13.2688 17.7412 13.3021 17.6495 13.2983 17.5555C13.2988 17.4863 13.2837 17.4177 13.2542 17.3551C13.228 17.297 13.1842 17.2486 13.129 17.2166C13.0727 17.1851 13.0091 17.1692 12.9446 17.1704C12.8904 17.1721 12.8365 17.1798 12.784 17.1934V17.8858ZM9.93423 18.1777H9.29044L9.17777 18.4401C9.15488 18.4853 9.14067 18.5345 9.13585 18.585C9.13629 18.5981 9.13982 18.6109 9.14609 18.6224C9.15235 18.6339 9.1612 18.6437 9.17195 18.6512C9.21989 18.6772 9.27379 18.6902 9.32832 18.689V18.7341H8.80469V18.689C8.85296 18.6846 8.89935 18.6681 8.93945 18.6408C9.00007 18.5705 9.04699 18.4895 9.07782 18.4019L9.66266 17.0335H9.70539L10.2844 18.4167C10.3117 18.4966 10.3548 18.5702 10.4112 18.6331C10.4565 18.6688 10.5124 18.6886 10.5701 18.6892V18.7344H9.91397V18.6892C9.96096 18.6911 10.0075 18.6796 10.0482 18.6561C10.0591 18.6483 10.068 18.638 10.0742 18.6261C10.0803 18.6141 10.0834 18.6009 10.0834 18.5875C10.077 18.5282 10.0603 18.4706 10.034 18.4171L9.93423 18.1777ZM9.89996 18.0868L9.61767 17.415L9.32842 18.0868H9.89996ZM10.9232 16.1367L11.4344 15.6057C11.4366 15.6034 11.4393 15.6014 11.4423 15.6001C11.4453 15.5988 11.4486 15.5982 11.4519 15.5982C11.4552 15.5982 11.4584 15.5988 11.4614 15.6001C11.4644 15.6014 11.4671 15.6034 11.4693 15.6057L11.9806 16.1368C11.9853 16.1416 11.9878 16.1481 11.9878 16.1548C11.9878 16.1615 11.9853 16.168 11.9806 16.1728L11.4693 16.704C11.4671 16.7063 11.4644 16.7082 11.4614 16.7095C11.4584 16.7108 11.4552 16.7115 11.4519 16.7115C11.4486 16.7115 11.4453 16.7108 11.4423 16.7095C11.4393 16.7082 11.4366 16.7063 11.4344 16.704L10.9232 16.1729C10.9208 16.1705 10.9189 16.1677 10.9176 16.1646C10.9163 16.1615 10.9156 16.1581 10.9156 16.1547C10.9156 16.1513 10.9163 16.148 10.9176 16.1449C10.9189 16.1418 10.9208 16.1391 10.9232 16.1367ZM23.9629 16.1845L24.474 15.6537C24.4763 15.6513 24.479 15.6494 24.482 15.6481C24.485 15.6468 24.4883 15.6461 24.4915 15.6461C24.4948 15.6461 24.498 15.6468 24.501 15.6481C24.504 15.6494 24.5068 15.6513 24.509 15.6537L25.0204 16.1845C25.025 16.1895 25.0276 16.1959 25.0276 16.2026C25.0276 16.2094 25.025 16.2159 25.0204 16.2209L24.509 16.7516C24.5067 16.754 24.504 16.7558 24.501 16.7571C24.498 16.7584 24.4948 16.7591 24.4915 16.7591C24.4883 16.7591 24.485 16.7584 24.482 16.7571C24.479 16.7558 24.4763 16.754 24.474 16.7516L23.9629 16.2209C23.9582 16.2159 23.9556 16.2094 23.9556 16.2025C23.9556 16.1957 23.9582 16.1895 23.9629 16.1845ZM13.9354 16.1183L14.7709 15.2507C14.7746 15.2467 14.7791 15.2435 14.784 15.2414C14.789 15.2392 14.7943 15.2381 14.7996 15.2381C14.805 15.2381 14.8103 15.2392 14.8153 15.2414C14.8202 15.2435 14.8246 15.2467 14.8283 15.2507L15.6642 16.1183C15.6717 16.1264 15.6758 16.137 15.6758 16.148C15.6758 16.159 15.6717 16.1696 15.6642 16.1778L14.8283 17.0456C14.8246 17.0494 14.8201 17.0525 14.8152 17.0546C14.8103 17.0567 14.805 17.0578 14.7996 17.0578C14.7943 17.0578 14.789 17.0567 14.784 17.0546C14.7791 17.0525 14.7746 17.0494 14.7709 17.0456L13.9354 16.1778C13.9277 16.1697 13.9235 16.1592 13.9235 16.1481C13.9235 16.1371 13.9277 16.1263 13.9354 16.1183ZM17.1179 16.2024L17.9538 15.3343C17.9575 15.3304 17.9619 15.3272 17.9668 15.3251C17.9717 15.323 17.977 15.3219 17.9824 15.3219C17.9877 15.3219 17.993 15.323 17.9979 15.3251C18.0029 15.3272 18.0073 15.3304 18.011 15.3343L18.8469 16.2024C18.8545 16.2104 18.8588 16.221 18.8588 16.2321C18.8588 16.2431 18.8545 16.2538 18.8469 16.2618L18.011 17.1295C18.0073 17.1334 18.0029 17.1365 17.9979 17.1386C17.993 17.1407 17.9877 17.1418 17.9824 17.1418C17.977 17.1418 17.9718 17.1407 17.9669 17.1386C17.9619 17.1365 17.9575 17.1334 17.9538 17.1295L17.1179 16.2618C17.1102 16.2538 17.106 16.2431 17.106 16.2321C17.106 16.221 17.1102 16.2104 17.1179 16.2024ZM20.3927 16.1065L21.2286 15.2385C21.2323 15.2346 21.2367 15.2315 21.2416 15.2294C21.2465 15.2273 21.2518 15.2262 21.2572 15.2262C21.2625 15.2262 21.2678 15.2273 21.2727 15.2294C21.2776 15.2315 21.2821 15.2346 21.2857 15.2385L22.1217 16.1065C22.1292 16.1146 22.1334 16.1252 22.1334 16.1362C22.1334 16.1472 22.1292 16.1578 22.1217 16.1658L21.2857 17.0337C21.2821 17.0376 21.2776 17.0407 21.2727 17.0428C21.2678 17.0449 21.2625 17.046 21.2572 17.046C21.2518 17.046 21.2465 17.0449 21.2416 17.0428C21.2367 17.0407 21.2323 17.0376 21.2286 17.0337L20.3927 16.1658C20.3851 16.1578 20.3808 16.1472 20.3808 16.1362C20.3808 16.1251 20.3851 16.1145 20.3927 16.1065ZM21.9493 14.344L22.7852 13.4762C22.7889 13.4723 22.7933 13.4692 22.7982 13.4671C22.8031 13.465 22.8085 13.4639 22.8138 13.4639C22.8191 13.4639 22.8244 13.465 22.8293 13.4671C22.8342 13.4692 22.8387 13.4723 22.8424 13.4762L23.6782 14.344C23.6857 14.3521 23.6899 14.3627 23.6899 14.3738C23.6899 14.3848 23.6857 14.3953 23.6782 14.4034L22.8424 15.2712C22.8387 15.2752 22.8343 15.2784 22.8294 15.2805C22.8245 15.2826 22.8192 15.2837 22.8138 15.2837C22.8084 15.2837 22.8031 15.2826 22.7982 15.2805C22.7933 15.2784 22.7888 15.2752 22.7852 15.2712L21.9493 14.4034C21.9417 14.3954 21.9375 14.3848 21.9375 14.3738C21.9375 14.3627 21.9417 14.352 21.9493 14.344ZM12.2633 14.3199L13.0992 13.4522C13.1029 13.4483 13.1073 13.4452 13.1123 13.4431C13.1172 13.441 13.1225 13.4399 13.1278 13.4399C13.1332 13.4399 13.1384 13.441 13.1434 13.4431C13.1483 13.4452 13.1527 13.4483 13.1564 13.4522L13.9922 14.3199C13.9999 14.3279 14.0041 14.3385 14.0041 14.3496C14.0041 14.3607 13.9999 14.3714 13.9922 14.3794L13.1564 15.2473C13.1527 15.2512 13.1483 15.2543 13.1434 15.2565C13.1384 15.2586 13.1332 15.2596 13.1278 15.2596C13.1225 15.2596 13.1172 15.2586 13.1123 15.2565C13.1073 15.2543 13.1029 15.2512 13.0992 15.2473L12.2633 14.3794C12.2557 14.3714 12.2515 14.3608 12.2515 14.3497C12.2515 14.3387 12.2557 14.3279 12.2633 14.3199ZM15.2414 14.2882L16.3088 13.1797C16.3135 13.1748 16.3192 13.1709 16.3255 13.1682C16.3318 13.1655 16.3385 13.1641 16.3454 13.1641C16.3522 13.1641 16.359 13.1655 16.3653 13.1682C16.3715 13.1709 16.3772 13.1748 16.382 13.1797L17.4494 14.2882C17.4591 14.2984 17.4645 14.312 17.4645 14.3261C17.4645 14.3402 17.4591 14.3538 17.4494 14.3641L16.382 15.4724C16.3772 15.4774 16.3715 15.4813 16.3653 15.484C16.359 15.4866 16.3522 15.4881 16.3454 15.4881C16.3385 15.4881 16.3318 15.4866 16.3255 15.484C16.3192 15.4813 16.3135 15.4774 16.3088 15.4724L15.2414 14.3641C15.2317 14.3538 15.2263 14.3403 15.2263 14.3262C15.2263 14.3122 15.2317 14.2984 15.2414 14.2882ZM18.4817 14.3362L19.5491 13.2277C19.5538 13.2228 19.5594 13.2188 19.5657 13.2162C19.572 13.2135 19.5788 13.2121 19.5856 13.2121C19.5924 13.2121 19.5991 13.2135 19.6054 13.2162C19.6117 13.2188 19.6173 13.2228 19.6221 13.2277L20.6896 14.3362C20.6993 14.3464 20.7047 14.3599 20.7047 14.374C20.7047 14.3881 20.6993 14.4016 20.6896 14.4118L19.6221 15.5203C19.6174 15.5252 19.6118 15.5292 19.6055 15.5319C19.5992 15.5346 19.5924 15.536 19.5856 15.536C19.5788 15.536 19.572 15.5346 19.5657 15.5319C19.5594 15.5292 19.5538 15.5252 19.5491 15.5203L18.4817 14.4118C18.472 14.4016 18.4667 14.3881 18.4667 14.374C18.4667 14.3599 18.472 14.3464 18.4817 14.3362ZM16.651 12.5067L17.8937 11.2164C17.8992 11.2106 17.9058 11.206 17.9131 11.2029C17.9204 11.1998 17.9282 11.1982 17.9362 11.1982C17.9442 11.1982 17.9521 11.1998 17.9594 11.2029C17.9667 11.206 17.9733 11.2106 17.9788 11.2164L19.2216 12.5067C19.2329 12.5187 19.2392 12.5344 19.2392 12.5508C19.2392 12.5672 19.2329 12.5831 19.2216 12.595L17.9788 13.8854C17.9733 13.8912 17.9667 13.8958 17.9594 13.899C17.952 13.9021 17.9442 13.9038 17.9362 13.9038C17.9282 13.9038 17.9203 13.9021 17.913 13.899C17.9057 13.8958 17.8991 13.8912 17.8937 13.8854L16.651 12.595C16.6397 12.5831 16.6334 12.5673 16.6334 12.5509C16.6334 12.5345 16.6397 12.5187 16.651 12.5067ZM18.2421 10.6605L19.485 9.36949C19.4905 9.36375 19.4971 9.35914 19.5044 9.35602C19.5118 9.3529 19.5196 9.35128 19.5276 9.35128C19.5355 9.35128 19.5434 9.3529 19.5507 9.35602C19.558 9.35914 19.5646 9.36375 19.5701 9.36949L20.813 10.6605C20.8243 10.6724 20.8306 10.6883 20.8306 10.7047C20.8306 10.7211 20.8243 10.737 20.813 10.7489L19.5701 12.0399C19.5646 12.0456 19.558 12.0503 19.5507 12.0534C19.5434 12.0565 19.5355 12.0581 19.5276 12.0581C19.5196 12.0581 19.5118 12.0565 19.5044 12.0534C19.4971 12.0503 19.4905 12.0456 19.485 12.0399L18.2421 10.7489C18.2309 10.7369 18.2246 10.7211 18.2246 10.7047C18.2246 10.6883 18.2309 10.6725 18.2421 10.6605ZM20.0732 12.5145L21.1405 11.406C21.1452 11.401 21.1509 11.3971 21.1571 11.3944C21.1634 11.3917 21.1702 11.3902 21.177 11.3902C21.1839 11.3902 21.1906 11.3917 21.1969 11.3944C21.2032 11.3971 21.2088 11.401 21.2135 11.406L22.2809 12.5145C22.2906 12.5247 22.296 12.5382 22.296 12.5523C22.296 12.5664 22.2906 12.58 22.2809 12.5903L21.2135 13.6986C21.2088 13.7036 21.2031 13.7075 21.1968 13.7102C21.1906 13.7128 21.1838 13.7142 21.177 13.7142C21.1702 13.7142 21.1634 13.7128 21.1572 13.7102C21.1509 13.7075 21.1452 13.7036 21.1405 13.6986L20.0732 12.5903C20.0634 12.58 20.0579 12.5663 20.0579 12.5521C20.0579 12.5379 20.0634 12.5248 20.0732 12.5145ZM13.6042 12.5023L14.6718 11.394C14.6766 11.389 14.6822 11.3851 14.6885 11.3824C14.6948 11.3798 14.7015 11.3784 14.7083 11.3784C14.7151 11.3784 14.7219 11.3798 14.7281 11.3824C14.7344 11.3851 14.7401 11.389 14.7448 11.394L15.8121 12.5023C15.8218 12.5126 15.8272 12.5261 15.8272 12.5403C15.8272 12.5544 15.8218 12.5679 15.8121 12.5782L14.7448 13.6863C14.7401 13.6913 14.7345 13.6954 14.7282 13.6981C14.7219 13.7008 14.7152 13.7023 14.7083 13.7023C14.7015 13.7023 14.6947 13.7008 14.6884 13.6981C14.6822 13.6954 14.6765 13.6913 14.6718 13.6863L13.6042 12.5782C13.5943 12.5679 13.5888 12.5543 13.5887 12.54C13.5887 12.5258 13.5943 12.5126 13.6042 12.5023ZM15.0366 10.697L16.2794 9.40667C16.2849 9.40088 16.2915 9.39625 16.2988 9.39309C16.3061 9.38994 16.314 9.38824 16.322 9.38824C16.33 9.38824 16.3378 9.38994 16.3452 9.39309C16.3525 9.39625 16.359 9.40088 16.3645 9.40667L17.6072 10.697C17.6185 10.709 17.6248 10.7248 17.6248 10.7412C17.6248 10.7577 17.6185 10.7734 17.6072 10.7853L16.3645 12.0758C16.359 12.0815 16.3524 12.0861 16.3451 12.0893C16.3378 12.0924 16.3299 12.094 16.322 12.094C16.314 12.094 16.3062 12.0924 16.2989 12.0893C16.2916 12.0861 16.2849 12.0815 16.2794 12.0758L15.0366 10.7853C15.0252 10.7733 15.0188 10.7574 15.0188 10.7409C15.0188 10.7244 15.0252 10.709 15.0366 10.697Z"/>
<path d="M31.6344 18.077C31.6344 25.5645 25.5645 31.6344 18.077 31.6344C10.5894 31.6344 4.51953 25.5645 4.51953 18.077C4.51953 10.5894 10.5894 4.51953 18.077 4.51953C25.5645 4.51953 31.6344 10.5894 31.6344 18.077Z"/>
<path d="M32.3977 18.0006C32.3977 25.9535 25.9506 32.4006 17.9977 32.4006C10.0448 32.4006 3.59766 25.9535 3.59766 18.0006C3.59766 10.0477 10.0448 3.60059 17.9977 3.60059C25.9506 3.60059 32.3977 10.0477 32.3977 18.0006Z"/>
</mask>
<path fill-rule="evenodd" clip-rule="evenodd" d="M16.3655 8.8061L17.8174 7.29868C17.8238 7.29195 17.8315 7.28661 17.8401 7.28295C17.8486 7.27929 17.8578 7.27734 17.8671 7.27734C17.8764 7.27734 17.8855 7.27929 17.8941 7.28295C17.9026 7.28661 17.9103 7.29195 17.9167 7.29868L19.3684 8.8061C19.3817 8.82 19.3891 8.83847 19.3891 8.85772C19.3891 8.87696 19.3817 8.89543 19.3684 8.90933L17.9167 10.4169C17.9103 10.4236 17.9026 10.4289 17.8941 10.4326C17.8855 10.4362 17.8764 10.4382 17.8671 10.4382C17.8578 10.4382 17.8486 10.4362 17.8401 10.4326C17.8315 10.4289 17.8238 10.4236 17.8174 10.4169L16.3655 8.90933C16.3524 8.89535 16.345 8.87691 16.345 8.85772C16.345 8.83852 16.3524 8.82008 16.3655 8.8061ZM10.9233 19.7658L11.4346 19.2349C11.4368 19.2326 11.4396 19.2307 11.4426 19.2294C11.4456 19.2282 11.4488 19.2275 11.452 19.2275C11.4553 19.2275 11.4585 19.2282 11.4615 19.2294C11.4645 19.2307 11.4672 19.2326 11.4694 19.2349L11.9809 19.7658C11.9856 19.7707 11.9881 19.7772 11.9881 19.784C11.9881 19.7908 11.9856 19.7973 11.9809 19.8022L11.4694 20.3329C11.4672 20.3353 11.4645 20.3372 11.4615 20.3384C11.4585 20.3397 11.4553 20.3404 11.452 20.3404C11.4488 20.3404 11.4456 20.3397 11.4426 20.3384C11.4396 20.3372 11.4368 20.3353 11.4346 20.3329L10.9233 19.8022C10.9187 19.7973 10.9161 19.7908 10.9161 19.784C10.9161 19.7772 10.9188 19.7707 10.9233 19.7658ZM23.963 19.7179L24.4741 19.1872C24.4764 19.1848 24.4791 19.1829 24.4822 19.1816C24.4852 19.1803 24.4885 19.1796 24.4917 19.1796C24.495 19.1796 24.4983 19.1803 24.5013 19.1816C24.5043 19.1829 24.507 19.1848 24.5093 19.1872L25.0205 19.7179C25.0251 19.7228 25.0277 19.7294 25.0277 19.7361C25.0277 19.7429 25.0251 19.7493 25.0205 19.7543L24.5093 20.2852C24.507 20.2876 24.5043 20.2894 24.5013 20.2907C24.4983 20.292 24.495 20.2926 24.4917 20.2926C24.4885 20.2926 24.4852 20.292 24.4822 20.2907C24.4791 20.2894 24.4764 20.2876 24.4741 20.2852L23.963 19.7543C23.9584 19.7494 23.9558 19.7429 23.9558 19.7361C23.9558 19.7294 23.9584 19.7229 23.963 19.7179ZM13.9355 19.7605L14.7714 18.8927C14.7751 18.8888 14.7795 18.8856 14.7844 18.8835C14.7893 18.8814 14.7946 18.8803 14.8 18.8803C14.8053 18.8803 14.8106 18.8814 14.8155 18.8835C14.8205 18.8856 14.8249 18.8888 14.8285 18.8927L15.6644 19.7605C15.6718 19.7686 15.6759 19.7792 15.6759 19.7902C15.6759 19.8012 15.6718 19.8119 15.6644 19.82L14.8285 20.6879C14.8248 20.6918 14.8204 20.6949 14.8155 20.697C14.8106 20.6991 14.8053 20.7002 14.8 20.7002C14.7946 20.7002 14.7893 20.6991 14.7844 20.697C14.7795 20.6949 14.7751 20.6918 14.7714 20.6879L13.9355 19.82C13.9279 19.812 13.9236 19.8014 13.9236 19.7904C13.9236 19.7793 13.9279 19.7685 13.9355 19.7605ZM17.118 19.6764L17.9539 18.8085C17.9576 18.8046 17.9621 18.8016 17.967 18.7995C17.9719 18.7974 17.9771 18.7963 17.9825 18.7963C17.9878 18.7963 17.9931 18.7974 17.9981 18.7995C18.003 18.8016 18.0074 18.8046 18.0111 18.8085L18.847 19.6764C18.8546 19.6845 18.8589 19.6951 18.8589 19.7062C18.8589 19.7173 18.8546 19.7279 18.847 19.7359L18.0111 20.604C18.0074 20.6078 18.003 20.6109 17.9981 20.613C17.9931 20.6151 17.9878 20.6162 17.9825 20.6162C17.9771 20.6162 17.9719 20.6151 17.967 20.613C17.9621 20.6109 17.9576 20.6078 17.9539 20.604L17.118 19.7359C17.1106 19.7278 17.1065 19.7173 17.1065 19.7063C17.1064 19.6953 17.1106 19.6846 17.118 19.6764ZM20.3929 19.7726L21.2287 18.9046C21.2324 18.9007 21.2368 18.8977 21.2417 18.8956C21.2466 18.8935 21.2519 18.8923 21.2573 18.8923C21.2626 18.8923 21.268 18.8935 21.2729 18.8956C21.2778 18.8977 21.2822 18.9007 21.2859 18.9046L22.1218 19.7726C22.1294 19.7806 22.1336 19.7913 22.1336 19.8023C22.1336 19.8134 22.1294 19.8239 22.1218 19.832L21.2859 20.6998C21.2822 20.7037 21.2778 20.7068 21.2729 20.7089C21.268 20.7111 21.2627 20.7122 21.2573 20.7122C21.2519 20.7122 21.2466 20.7111 21.2417 20.7089C21.2368 20.7068 21.2323 20.7037 21.2287 20.6998L20.3929 19.832C20.3854 19.8239 20.3812 19.8133 20.3812 19.8023C20.3811 19.7913 20.3854 19.7806 20.3929 19.7726ZM21.9494 21.535L22.7853 20.6669C22.789 20.663 22.7934 20.66 22.7983 20.6579C22.8032 20.6558 22.8086 20.6546 22.8139 20.6546C22.8192 20.6546 22.8245 20.6558 22.8294 20.6579C22.8343 20.66 22.8388 20.663 22.8425 20.6669L23.6784 21.535C23.686 21.5429 23.6902 21.5536 23.6902 21.5646C23.6902 21.5756 23.686 21.5862 23.6784 21.5942L22.8425 22.4622C22.8388 22.4661 22.8344 22.4692 22.8295 22.4713C22.8246 22.4734 22.8193 22.4745 22.8139 22.4745C22.8086 22.4745 22.8032 22.4734 22.7983 22.4713C22.7934 22.4692 22.789 22.4661 22.7853 22.4622L21.9494 21.5942C21.9419 21.5862 21.9377 21.5757 21.9377 21.5647C21.9377 21.5537 21.9419 21.543 21.9494 21.535ZM12.2635 21.5588L13.0993 20.6909C13.103 20.6871 13.1075 20.684 13.1124 20.6819C13.1173 20.6798 13.1226 20.6787 13.1279 20.6787C13.1333 20.6787 13.1386 20.6798 13.1435 20.6819C13.1484 20.684 13.1528 20.6871 13.1565 20.6909L13.9924 21.5588C14.0001 21.5668 14.0043 21.5774 14.0043 21.5885C14.0043 21.5996 14.0001 21.6101 13.9924 21.6182L13.1565 22.4862C13.1528 22.4901 13.1484 22.4931 13.1435 22.4953C13.1386 22.4974 13.1333 22.4985 13.1279 22.4985C13.1226 22.4985 13.1173 22.4974 13.1124 22.4953C13.1075 22.4931 13.103 22.4901 13.0993 22.4862L12.2635 21.6182C12.256 21.61 12.2519 21.5995 12.2519 21.5885C12.2518 21.5775 12.2561 21.5669 12.2635 21.5588ZM15.2418 21.5742L16.3091 20.4658C16.3138 20.4609 16.3195 20.457 16.3258 20.4543C16.3321 20.4516 16.3388 20.4503 16.3456 20.4503C16.3524 20.4503 16.3591 20.4516 16.3654 20.4543C16.3717 20.457 16.3773 20.4609 16.3821 20.4658L17.4495 21.5742C17.4592 21.5844 17.4646 21.598 17.4646 21.6121C17.4646 21.6262 17.4592 21.6398 17.4495 21.6501L16.3821 22.7583C16.3774 22.7632 16.3717 22.7673 16.3655 22.7699C16.3592 22.7726 16.3524 22.774 16.3456 22.774C16.3388 22.774 16.332 22.7726 16.3258 22.7699C16.3195 22.7673 16.3138 22.7632 16.3091 22.7583L15.2418 21.6501C15.2321 21.6398 15.2266 21.6262 15.2266 21.6121C15.2266 21.598 15.2321 21.5844 15.2418 21.5742ZM18.4818 21.5264L19.5492 20.4179C19.5539 20.4129 19.5596 20.409 19.5659 20.4063C19.5722 20.4036 19.579 20.4022 19.5858 20.4022C19.5927 20.4022 19.5994 20.4036 19.6057 20.4063C19.612 20.409 19.6177 20.4129 19.6224 20.4179L20.6898 21.5264C20.6994 21.5367 20.7048 21.5502 20.7048 21.5643C20.7048 21.5784 20.6994 21.592 20.6898 21.6022L19.6224 22.7106C19.6177 22.7155 19.612 22.7194 19.6057 22.7221C19.5994 22.7248 19.5926 22.7261 19.5858 22.7261C19.579 22.7261 19.5722 22.7248 19.5659 22.7221C19.5596 22.7194 19.5539 22.7155 19.5492 22.7106L18.4818 21.6022C18.4721 21.592 18.4667 21.5784 18.4667 21.5643C18.4667 21.5502 18.4721 21.5367 18.4818 21.5264ZM16.6511 23.3431L17.894 22.0528C17.8995 22.047 17.906 22.0424 17.9134 22.0392C17.9207 22.036 17.9285 22.0343 17.9365 22.0343C17.9445 22.0343 17.9524 22.036 17.9597 22.0392C17.967 22.0424 17.9736 22.047 17.9791 22.0528L19.2217 23.3431C19.233 23.3551 19.2393 23.3708 19.2393 23.3872C19.2393 23.4036 19.233 23.4195 19.2217 23.4314L17.9791 24.7218C17.9736 24.7275 17.967 24.7321 17.9597 24.7353C17.9524 24.7384 17.9445 24.74 17.9365 24.74C17.9286 24.74 17.9207 24.7384 17.9134 24.7353C17.9061 24.7321 17.8995 24.7275 17.894 24.7218L16.6511 23.4314C16.6398 23.4195 16.6334 23.4036 16.6334 23.3872C16.6334 23.3708 16.6398 23.3551 16.6511 23.3431ZM18.2421 25.1895L19.485 23.8983C19.4905 23.8926 19.4971 23.888 19.5044 23.8849C19.5118 23.8817 19.5196 23.8801 19.5276 23.8801C19.5355 23.8801 19.5434 23.8817 19.5507 23.8849C19.558 23.888 19.5646 23.8926 19.5701 23.8983L20.813 25.1895C20.8243 25.2014 20.8306 25.2172 20.8306 25.2337C20.8306 25.2501 20.8243 25.2658 20.813 25.2777L19.5701 26.5689C19.5646 26.5746 19.558 26.5792 19.5507 26.5823C19.5434 26.5855 19.5355 26.5872 19.5276 26.5872C19.5196 26.5872 19.5118 26.5855 19.5044 26.5823C19.4971 26.5792 19.4905 26.5746 19.485 26.5689L18.2421 25.2777C18.2309 25.2658 18.2247 25.25 18.2247 25.2337C18.2247 25.2173 18.2309 25.2014 18.2421 25.1895ZM20.0732 23.3484L21.1406 22.2401C21.1454 22.2351 21.151 22.2312 21.1573 22.2285C21.1636 22.2259 21.1703 22.2244 21.1771 22.2244C21.1839 22.2244 21.1907 22.2259 21.1969 22.2285C21.2032 22.2312 21.2089 22.2351 21.2136 22.2401L22.2812 23.3484C22.2908 23.3587 22.2962 23.3724 22.2962 23.3865C22.2962 23.4006 22.2908 23.4141 22.2812 23.4244L21.2136 24.5324C21.2089 24.5374 21.2033 24.5415 21.197 24.5442C21.1907 24.5469 21.184 24.5483 21.1771 24.5483C21.1703 24.5483 21.1635 24.5469 21.1572 24.5442C21.151 24.5415 21.1453 24.5374 21.1406 24.5324L20.0732 23.4244C20.0635 23.4142 20.0581 23.4006 20.058 23.3865C20.058 23.3723 20.0635 23.3587 20.0732 23.3484ZM13.6042 23.3602L14.6718 22.2521C14.6765 22.2471 14.6822 22.2432 14.6884 22.2405C14.6947 22.2378 14.7015 22.2363 14.7083 22.2363C14.7152 22.2363 14.7219 22.2378 14.7282 22.2405C14.7345 22.2432 14.7401 22.2471 14.7448 22.2521L15.8121 23.3602C15.8218 23.3704 15.8273 23.3841 15.8273 23.3982C15.8273 23.4124 15.8218 23.426 15.8121 23.4363L14.7448 24.5446C14.7401 24.5495 14.7344 24.5535 14.7281 24.5561C14.7219 24.5588 14.7151 24.5602 14.7083 24.5602C14.7015 24.5602 14.6948 24.5588 14.6885 24.5561C14.6822 24.5535 14.6765 24.5495 14.6718 24.5446L13.6042 23.4363C13.5945 23.426 13.5891 23.4124 13.5891 23.3983C13.589 23.3842 13.5945 23.3704 13.6042 23.3602ZM15.0366 25.1532L16.2794 23.8629C16.2849 23.8572 16.2916 23.8526 16.2989 23.8495C16.3062 23.8464 16.314 23.8448 16.322 23.8448C16.3299 23.8448 16.3378 23.8464 16.3451 23.8495C16.3524 23.8526 16.359 23.8572 16.3645 23.8629L17.6074 25.1532C17.6186 25.1651 17.6249 25.181 17.6249 25.1973C17.6249 25.2137 17.6186 25.2296 17.6074 25.2415L16.3645 26.5326C16.359 26.5383 16.3524 26.5428 16.3451 26.5459C16.3378 26.549 16.3299 26.5507 16.322 26.5507C16.314 26.5507 16.3062 26.549 16.2989 26.5459C16.2916 26.5428 16.2849 26.5383 16.2794 26.5326L15.0366 25.2415C15.0255 25.2296 15.0194 25.2138 15.0194 25.1976C15.0194 25.1813 15.0255 25.1651 15.0366 25.1532ZM19.3687 27.0291L17.9169 25.5217C17.9105 25.515 17.9028 25.5096 17.8942 25.506C17.8857 25.5023 17.8765 25.5005 17.8672 25.5005C17.8579 25.5005 17.8487 25.5023 17.8402 25.506C17.8316 25.5096 17.8239 25.515 17.8175 25.5217L16.3655 27.0291C16.3524 27.0431 16.345 27.0617 16.345 27.0809C16.345 27.1001 16.3524 27.1186 16.3655 27.1326L17.8175 28.6402C17.8239 28.6469 17.8317 28.6521 17.8402 28.6557C17.8488 28.6594 17.8579 28.6612 17.8672 28.6612C17.8764 28.6612 17.8856 28.6594 17.8942 28.6557C17.9027 28.6521 17.9104 28.6469 17.9169 28.6402L19.3687 27.1326C19.3819 27.1186 19.3893 27.1 19.3893 27.0808C19.3893 27.0615 19.382 27.0431 19.3687 27.0291ZM25.786 17.0714H27.1583V17.117C27.0889 17.1107 27.0194 17.1279 26.9611 17.1661C26.9237 17.2287 26.9085 17.3022 26.918 17.3746V18.2955C26.9103 18.4068 26.9206 18.5186 26.9485 18.6266C26.9693 18.6683 27.0353 18.6899 27.1472 18.6899V19.2132H27.1055C27.0878 19.1082 27.0475 19.0085 26.9873 18.9208C26.9419 18.8538 26.8773 18.802 26.802 18.7723C26.722 18.7457 26.638 18.733 26.5537 18.7349H26.1292C26.0541 18.7285 25.9786 18.7386 25.9079 18.7646C25.8372 18.7907 25.7731 18.8319 25.7201 18.8855C25.6374 18.9773 25.5831 19.0911 25.5638 19.2132H25.5221V18.6899C25.5915 18.6809 25.6573 18.6544 25.7136 18.6129C25.7698 18.5714 25.8146 18.5163 25.8436 18.4528C25.9331 18.2851 25.9913 18.1026 26.0152 17.9141C26.0437 17.7406 26.0597 17.5653 26.0631 17.3896C26.0669 17.3279 26.0565 17.2662 26.0325 17.2092C26.0183 17.1768 25.9923 17.151 25.9598 17.1371C25.9028 17.1235 25.8445 17.1169 25.7859 17.1174L25.786 17.0714ZM26.1858 17.162C26.1831 17.5054 26.1441 17.8475 26.0695 18.1827C26.026 18.3509 25.9475 18.508 25.839 18.6436H26.4546C26.5216 18.6516 26.5895 18.6416 26.6514 18.6147C26.6734 18.5953 26.6844 18.5337 26.6844 18.4281V17.162H26.1858ZM22.5228 17.8427H23.2952V17.3669C23.2984 17.3104 23.2931 17.2537 23.2793 17.1988C23.2687 17.176 23.2506 17.1574 23.2279 17.1462C23.1939 17.127 23.1554 17.1169 23.1162 17.1169H23.0575V17.0713H23.7686V17.1169H23.7097C23.6708 17.1168 23.6326 17.1265 23.5985 17.145C23.586 17.1508 23.5748 17.159 23.5656 17.1692C23.5564 17.1794 23.5494 17.1914 23.5449 17.2044C23.5328 17.2577 23.5281 17.3124 23.5309 17.3669V18.4402C23.5275 18.4962 23.5329 18.5526 23.5468 18.607C23.5569 18.6298 23.5747 18.6484 23.597 18.6596C23.6314 18.679 23.6702 18.6894 23.7097 18.6895H23.7686V18.7346H23.0575V18.6895H23.1162C23.144 18.6919 23.1719 18.6876 23.1978 18.6771C23.2236 18.6667 23.2466 18.6501 23.2648 18.6291C23.2918 18.57 23.3023 18.5048 23.2952 18.4403V17.9337H22.5228V18.4403C22.5196 18.4963 22.525 18.5526 22.5387 18.6071C22.5494 18.6301 22.5678 18.6486 22.5907 18.6597C22.6245 18.6793 22.663 18.6896 22.7021 18.6896H22.7622V18.7347H22.0499V18.6896H22.1084C22.1364 18.692 22.1645 18.6877 22.1905 18.6772C22.2166 18.6668 22.2398 18.6503 22.2583 18.6292C22.2841 18.5698 22.2943 18.5048 22.2876 18.4404V17.367C22.2907 17.3106 22.2853 17.2539 22.2717 17.199C22.2613 17.1763 22.2435 17.1578 22.2213 17.1463C22.1867 17.1271 22.1479 17.1171 22.1083 17.117H22.0498V17.0716H22.7622V17.117H22.7021C22.6632 17.1169 22.6248 17.1266 22.5907 17.1453C22.5784 17.1512 22.5674 17.1595 22.5584 17.1696C22.5493 17.1798 22.5424 17.1917 22.5379 17.2045C22.5249 17.2577 22.5198 17.3124 22.5228 17.367V17.8427ZM19.6721 18.1778H19.0283L18.9156 18.4402C18.8928 18.4854 18.8785 18.5346 18.8737 18.585C18.8742 18.5981 18.8777 18.6109 18.8839 18.6224C18.8902 18.6339 18.8991 18.6437 18.9098 18.6512C18.9577 18.6772 19.0116 18.6902 19.0662 18.689V18.7341H18.5425V18.689C18.5908 18.6846 18.6371 18.668 18.6772 18.6408C18.7379 18.5705 18.7849 18.4894 18.8158 18.4018L19.4006 17.0334H19.4432L20.0224 18.4166C20.0495 18.4965 20.0926 18.5702 20.1491 18.633C20.1944 18.6688 20.2503 18.6885 20.308 18.6891V18.7343H19.6519V18.6891C19.6989 18.691 19.7455 18.6795 19.7862 18.656C19.7971 18.6482 19.806 18.6379 19.8121 18.626C19.8182 18.614 19.8214 18.6008 19.8214 18.5874C19.8149 18.5281 19.7982 18.4705 19.772 18.417L19.6721 18.1778ZM19.6378 18.0868L19.3555 17.415L19.0662 18.0868H19.6378ZM16.4959 17.8859C16.5914 17.9009 16.6809 17.9416 16.755 18.0036C16.7932 18.0386 16.8236 18.0813 16.8441 18.1288C16.8645 18.1764 16.8747 18.2277 16.8739 18.2795C16.8729 18.3648 16.8454 18.4478 16.7951 18.5168C16.7424 18.593 16.6671 18.6509 16.5799 18.6823C16.4448 18.7233 16.3038 18.741 16.1627 18.7347H15.3775V18.6895H15.44C15.4685 18.6922 15.4972 18.6874 15.5233 18.6758C15.5495 18.6643 15.5723 18.6462 15.5894 18.6233C15.6138 18.5657 15.6236 18.503 15.6179 18.4407V17.3663C15.6261 17.2993 15.6136 17.2313 15.5822 17.1715C15.5639 17.1526 15.5417 17.1381 15.5171 17.1288C15.4925 17.1195 15.4662 17.1156 15.44 17.1176H15.3775V17.0721H16.096C16.2044 17.0696 16.3127 17.0795 16.4188 17.1017C16.5267 17.1226 16.625 17.1773 16.6996 17.2579C16.7627 17.3291 16.7971 17.4211 16.7962 17.5162C16.7971 17.5973 16.7703 17.6763 16.7204 17.7401C16.6623 17.8108 16.584 17.8613 16.4959 17.8859ZM15.8532 17.8197C15.8875 17.8259 15.9222 17.8303 15.9571 17.8328C15.996 17.8356 16.0387 17.8367 16.0851 17.8367C16.1765 17.8413 16.2679 17.8283 16.3544 17.7983C16.4121 17.7749 16.4606 17.7332 16.4925 17.6798C16.5243 17.6273 16.5408 17.567 16.5403 17.5056C16.5404 17.4579 16.5297 17.4107 16.5091 17.3677C16.4884 17.3247 16.4584 17.2869 16.4211 17.257C16.3218 17.1819 16.1986 17.1453 16.0743 17.1539C15.9998 17.153 15.9256 17.1619 15.8536 17.1807L15.8532 17.8197ZM15.8532 18.6142C15.9452 18.636 16.0394 18.6471 16.134 18.6473C16.2552 18.6556 16.3754 18.6202 16.4727 18.5474C16.5095 18.5177 16.5391 18.4799 16.5592 18.4372C16.5794 18.3944 16.5895 18.3476 16.589 18.3003C16.5886 18.2346 16.5704 18.1701 16.5362 18.114C16.4957 18.0498 16.4355 18.0004 16.3647 17.9731C16.2711 17.9362 16.171 17.9187 16.0705 17.9216C16.0197 17.9216 15.9761 17.9225 15.9401 17.9238C15.9109 17.9246 15.8818 17.9276 15.8529 17.9326L15.8532 18.6142ZM12.784 17.9558V18.4402C12.7758 18.5072 12.7878 18.5752 12.8186 18.6353C12.8366 18.6542 12.8585 18.6688 12.8828 18.6781C12.9071 18.6875 12.9332 18.6914 12.9592 18.6894H13.0233V18.7345H12.3107V18.6894H12.3731C12.402 18.692 12.4311 18.687 12.4575 18.675C12.4839 18.663 12.5068 18.6443 12.5238 18.6208C12.5455 18.5632 12.554 18.5014 12.5485 18.4402V17.3656C12.5566 17.2989 12.5451 17.2312 12.5154 17.1709C12.497 17.1521 12.4748 17.1375 12.4502 17.1281C12.4256 17.1188 12.3993 17.1151 12.3731 17.117H12.3107V17.0714H12.9202C13.0392 17.0673 13.1581 17.0828 13.272 17.1175C13.3576 17.1478 13.4329 17.2015 13.4893 17.2725C13.5483 17.3457 13.5795 17.4374 13.5776 17.5314C13.5798 17.5929 13.569 17.6543 13.5459 17.7114C13.5227 17.7684 13.4877 17.8199 13.4431 17.8624C13.3381 17.953 13.2018 17.9988 13.0634 17.9901C13.02 17.9899 12.9767 17.987 12.9337 17.9814C12.8871 17.9755 12.8371 17.9672 12.784 17.9558ZM12.784 17.8858C12.8273 17.8939 12.8661 17.9001 12.8993 17.9043C12.9277 17.9079 12.9563 17.9099 12.985 17.9103C13.0268 17.9105 13.0681 17.9018 13.1062 17.8846C13.1443 17.8675 13.1782 17.8423 13.2057 17.8109C13.2688 17.7412 13.3021 17.6495 13.2983 17.5555C13.2988 17.4863 13.2837 17.4177 13.2542 17.3551C13.228 17.297 13.1842 17.2486 13.129 17.2166C13.0727 17.1851 13.0091 17.1692 12.9446 17.1704C12.8904 17.1721 12.8365 17.1798 12.784 17.1934V17.8858ZM9.93423 18.1777H9.29044L9.17777 18.4401C9.15488 18.4853 9.14067 18.5345 9.13585 18.585C9.13629 18.5981 9.13982 18.6109 9.14609 18.6224C9.15235 18.6339 9.1612 18.6437 9.17195 18.6512C9.21989 18.6772 9.27379 18.6902 9.32832 18.689V18.7341H8.80469V18.689C8.85296 18.6846 8.89935 18.6681 8.93945 18.6408C9.00007 18.5705 9.04699 18.4895 9.07782 18.4019L9.66266 17.0335H9.70539L10.2844 18.4167C10.3117 18.4966 10.3548 18.5702 10.4112 18.6331C10.4565 18.6688 10.5124 18.6886 10.5701 18.6892V18.7344H9.91397V18.6892C9.96096 18.6911 10.0075 18.6796 10.0482 18.6561C10.0591 18.6483 10.068 18.638 10.0742 18.6261C10.0803 18.6141 10.0834 18.6009 10.0834 18.5875C10.077 18.5282 10.0603 18.4706 10.034 18.4171L9.93423 18.1777ZM9.89996 18.0868L9.61767 17.415L9.32842 18.0868H9.89996ZM10.9232 16.1367L11.4344 15.6057C11.4366 15.6034 11.4393 15.6014 11.4423 15.6001C11.4453 15.5988 11.4486 15.5982 11.4519 15.5982C11.4552 15.5982 11.4584 15.5988 11.4614 15.6001C11.4644 15.6014 11.4671 15.6034 11.4693 15.6057L11.9806 16.1368C11.9853 16.1416 11.9878 16.1481 11.9878 16.1548C11.9878 16.1615 11.9853 16.168 11.9806 16.1728L11.4693 16.704C11.4671 16.7063 11.4644 16.7082 11.4614 16.7095C11.4584 16.7108 11.4552 16.7115 11.4519 16.7115C11.4486 16.7115 11.4453 16.7108 11.4423 16.7095C11.4393 16.7082 11.4366 16.7063 11.4344 16.704L10.9232 16.1729C10.9208 16.1705 10.9189 16.1677 10.9176 16.1646C10.9163 16.1615 10.9156 16.1581 10.9156 16.1547C10.9156 16.1513 10.9163 16.148 10.9176 16.1449C10.9189 16.1418 10.9208 16.1391 10.9232 16.1367ZM23.9629 16.1845L24.474 15.6537C24.4763 15.6513 24.479 15.6494 24.482 15.6481C24.485 15.6468 24.4883 15.6461 24.4915 15.6461C24.4948 15.6461 24.498 15.6468 24.501 15.6481C24.504 15.6494 24.5068 15.6513 24.509 15.6537L25.0204 16.1845C25.025 16.1895 25.0276 16.1959 25.0276 16.2026C25.0276 16.2094 25.025 16.2159 25.0204 16.2209L24.509 16.7516C24.5067 16.754 24.504 16.7558 24.501 16.7571C24.498 16.7584 24.4948 16.7591 24.4915 16.7591C24.4883 16.7591 24.485 16.7584 24.482 16.7571C24.479 16.7558 24.4763 16.754 24.474 16.7516L23.9629 16.2209C23.9582 16.2159 23.9556 16.2094 23.9556 16.2025C23.9556 16.1957 23.9582 16.1895 23.9629 16.1845ZM13.9354 16.1183L14.7709 15.2507C14.7746 15.2467 14.7791 15.2435 14.784 15.2414C14.789 15.2392 14.7943 15.2381 14.7996 15.2381C14.805 15.2381 14.8103 15.2392 14.8153 15.2414C14.8202 15.2435 14.8246 15.2467 14.8283 15.2507L15.6642 16.1183C15.6717 16.1264 15.6758 16.137 15.6758 16.148C15.6758 16.159 15.6717 16.1696 15.6642 16.1778L14.8283 17.0456C14.8246 17.0494 14.8201 17.0525 14.8152 17.0546C14.8103 17.0567 14.805 17.0578 14.7996 17.0578C14.7943 17.0578 14.789 17.0567 14.784 17.0546C14.7791 17.0525 14.7746 17.0494 14.7709 17.0456L13.9354 16.1778C13.9277 16.1697 13.9235 16.1592 13.9235 16.1481C13.9235 16.1371 13.9277 16.1263 13.9354 16.1183ZM17.1179 16.2024L17.9538 15.3343C17.9575 15.3304 17.9619 15.3272 17.9668 15.3251C17.9717 15.323 17.977 15.3219 17.9824 15.3219C17.9877 15.3219 17.993 15.323 17.9979 15.3251C18.0029 15.3272 18.0073 15.3304 18.011 15.3343L18.8469 16.2024C18.8545 16.2104 18.8588 16.221 18.8588 16.2321C18.8588 16.2431 18.8545 16.2538 18.8469 16.2618L18.011 17.1295C18.0073 17.1334 18.0029 17.1365 17.9979 17.1386C17.993 17.1407 17.9877 17.1418 17.9824 17.1418C17.977 17.1418 17.9718 17.1407 17.9669 17.1386C17.9619 17.1365 17.9575 17.1334 17.9538 17.1295L17.1179 16.2618C17.1102 16.2538 17.106 16.2431 17.106 16.2321C17.106 16.221 17.1102 16.2104 17.1179 16.2024ZM20.3927 16.1065L21.2286 15.2385C21.2323 15.2346 21.2367 15.2315 21.2416 15.2294C21.2465 15.2273 21.2518 15.2262 21.2572 15.2262C21.2625 15.2262 21.2678 15.2273 21.2727 15.2294C21.2776 15.2315 21.2821 15.2346 21.2857 15.2385L22.1217 16.1065C22.1292 16.1146 22.1334 16.1252 22.1334 16.1362C22.1334 16.1472 22.1292 16.1578 22.1217 16.1658L21.2857 17.0337C21.2821 17.0376 21.2776 17.0407 21.2727 17.0428C21.2678 17.0449 21.2625 17.046 21.2572 17.046C21.2518 17.046 21.2465 17.0449 21.2416 17.0428C21.2367 17.0407 21.2323 17.0376 21.2286 17.0337L20.3927 16.1658C20.3851 16.1578 20.3808 16.1472 20.3808 16.1362C20.3808 16.1251 20.3851 16.1145 20.3927 16.1065ZM21.9493 14.344L22.7852 13.4762C22.7889 13.4723 22.7933 13.4692 22.7982 13.4671C22.8031 13.465 22.8085 13.4639 22.8138 13.4639C22.8191 13.4639 22.8244 13.465 22.8293 13.4671C22.8342 13.4692 22.8387 13.4723 22.8424 13.4762L23.6782 14.344C23.6857 14.3521 23.6899 14.3627 23.6899 14.3738C23.6899 14.3848 23.6857 14.3953 23.6782 14.4034L22.8424 15.2712C22.8387 15.2752 22.8343 15.2784 22.8294 15.2805C22.8245 15.2826 22.8192 15.2837 22.8138 15.2837C22.8084 15.2837 22.8031 15.2826 22.7982 15.2805C22.7933 15.2784 22.7888 15.2752 22.7852 15.2712L21.9493 14.4034C21.9417 14.3954 21.9375 14.3848 21.9375 14.3738C21.9375 14.3627 21.9417 14.352 21.9493 14.344ZM12.2633 14.3199L13.0992 13.4522C13.1029 13.4483 13.1073 13.4452 13.1123 13.4431C13.1172 13.441 13.1225 13.4399 13.1278 13.4399C13.1332 13.4399 13.1384 13.441 13.1434 13.4431C13.1483 13.4452 13.1527 13.4483 13.1564 13.4522L13.9922 14.3199C13.9999 14.3279 14.0041 14.3385 14.0041 14.3496C14.0041 14.3607 13.9999 14.3714 13.9922 14.3794L13.1564 15.2473C13.1527 15.2512 13.1483 15.2543 13.1434 15.2565C13.1384 15.2586 13.1332 15.2596 13.1278 15.2596C13.1225 15.2596 13.1172 15.2586 13.1123 15.2565C13.1073 15.2543 13.1029 15.2512 13.0992 15.2473L12.2633 14.3794C12.2557 14.3714 12.2515 14.3608 12.2515 14.3497C12.2515 14.3387 12.2557 14.3279 12.2633 14.3199ZM15.2414 14.2882L16.3088 13.1797C16.3135 13.1748 16.3192 13.1709 16.3255 13.1682C16.3318 13.1655 16.3385 13.1641 16.3454 13.1641C16.3522 13.1641 16.359 13.1655 16.3653 13.1682C16.3715 13.1709 16.3772 13.1748 16.382 13.1797L17.4494 14.2882C17.4591 14.2984 17.4645 14.312 17.4645 14.3261C17.4645 14.3402 17.4591 14.3538 17.4494 14.3641L16.382 15.4724C16.3772 15.4774 16.3715 15.4813 16.3653 15.484C16.359 15.4866 16.3522 15.4881 16.3454 15.4881C16.3385 15.4881 16.3318 15.4866 16.3255 15.484C16.3192 15.4813 16.3135 15.4774 16.3088 15.4724L15.2414 14.3641C15.2317 14.3538 15.2263 14.3403 15.2263 14.3262C15.2263 14.3122 15.2317 14.2984 15.2414 14.2882ZM18.4817 14.3362L19.5491 13.2277C19.5538 13.2228 19.5594 13.2188 19.5657 13.2162C19.572 13.2135 19.5788 13.2121 19.5856 13.2121C19.5924 13.2121 19.5991 13.2135 19.6054 13.2162C19.6117 13.2188 19.6173 13.2228 19.6221 13.2277L20.6896 14.3362C20.6993 14.3464 20.7047 14.3599 20.7047 14.374C20.7047 14.3881 20.6993 14.4016 20.6896 14.4118L19.6221 15.5203C19.6174 15.5252 19.6118 15.5292 19.6055 15.5319C19.5992 15.5346 19.5924 15.536 19.5856 15.536C19.5788 15.536 19.572 15.5346 19.5657 15.5319C19.5594 15.5292 19.5538 15.5252 19.5491 15.5203L18.4817 14.4118C18.472 14.4016 18.4667 14.3881 18.4667 14.374C18.4667 14.3599 18.472 14.3464 18.4817 14.3362ZM16.651 12.5067L17.8937 11.2164C17.8992 11.2106 17.9058 11.206 17.9131 11.2029C17.9204 11.1998 17.9282 11.1982 17.9362 11.1982C17.9442 11.1982 17.9521 11.1998 17.9594 11.2029C17.9667 11.206 17.9733 11.2106 17.9788 11.2164L19.2216 12.5067C19.2329 12.5187 19.2392 12.5344 19.2392 12.5508C19.2392 12.5672 19.2329 12.5831 19.2216 12.595L17.9788 13.8854C17.9733 13.8912 17.9667 13.8958 17.9594 13.899C17.952 13.9021 17.9442 13.9038 17.9362 13.9038C17.9282 13.9038 17.9203 13.9021 17.913 13.899C17.9057 13.8958 17.8991 13.8912 17.8937 13.8854L16.651 12.595C16.6397 12.5831 16.6334 12.5673 16.6334 12.5509C16.6334 12.5345 16.6397 12.5187 16.651 12.5067ZM18.2421 10.6605L19.485 9.36949C19.4905 9.36375 19.4971 9.35914 19.5044 9.35602C19.5118 9.3529 19.5196 9.35128 19.5276 9.35128C19.5355 9.35128 19.5434 9.3529 19.5507 9.35602C19.558 9.35914 19.5646 9.36375 19.5701 9.36949L20.813 10.6605C20.8243 10.6724 20.8306 10.6883 20.8306 10.7047C20.8306 10.7211 20.8243 10.737 20.813 10.7489L19.5701 12.0399C19.5646 12.0456 19.558 12.0503 19.5507 12.0534C19.5434 12.0565 19.5355 12.0581 19.5276 12.0581C19.5196 12.0581 19.5118 12.0565 19.5044 12.0534C19.4971 12.0503 19.4905 12.0456 19.485 12.0399L18.2421 10.7489C18.2309 10.7369 18.2246 10.7211 18.2246 10.7047C18.2246 10.6883 18.2309 10.6725 18.2421 10.6605ZM20.0732 12.5145L21.1405 11.406C21.1452 11.401 21.1509 11.3971 21.1571 11.3944C21.1634 11.3917 21.1702 11.3902 21.177 11.3902C21.1839 11.3902 21.1906 11.3917 21.1969 11.3944C21.2032 11.3971 21.2088 11.401 21.2135 11.406L22.2809 12.5145C22.2906 12.5247 22.296 12.5382 22.296 12.5523C22.296 12.5664 22.2906 12.58 22.2809 12.5903L21.2135 13.6986C21.2088 13.7036 21.2031 13.7075 21.1968 13.7102C21.1906 13.7128 21.1838 13.7142 21.177 13.7142C21.1702 13.7142 21.1634 13.7128 21.1572 13.7102C21.1509 13.7075 21.1452 13.7036 21.1405 13.6986L20.0732 12.5903C20.0634 12.58 20.0579 12.5663 20.0579 12.5521C20.0579 12.5379 20.0634 12.5248 20.0732 12.5145ZM13.6042 12.5023L14.6718 11.394C14.6766 11.389 14.6822 11.3851 14.6885 11.3824C14.6948 11.3798 14.7015 11.3784 14.7083 11.3784C14.7151 11.3784 14.7219 11.3798 14.7281 11.3824C14.7344 11.3851 14.7401 11.389 14.7448 11.394L15.8121 12.5023C15.8218 12.5126 15.8272 12.5261 15.8272 12.5403C15.8272 12.5544 15.8218 12.5679 15.8121 12.5782L14.7448 13.6863C14.7401 13.6913 14.7345 13.6954 14.7282 13.6981C14.7219 13.7008 14.7152 13.7023 14.7083 13.7023C14.7015 13.7023 14.6947 13.7008 14.6884 13.6981C14.6822 13.6954 14.6765 13.6913 14.6718 13.6863L13.6042 12.5782C13.5943 12.5679 13.5888 12.5543 13.5887 12.54C13.5887 12.5258 13.5943 12.5126 13.6042 12.5023ZM15.0366 10.697L16.2794 9.40667C16.2849 9.40088 16.2915 9.39625 16.2988 9.39309C16.3061 9.38994 16.314 9.38824 16.322 9.38824C16.33 9.38824 16.3378 9.38994 16.3452 9.39309C16.3525 9.39625 16.359 9.40088 16.3645 9.40667L17.6072 10.697C17.6185 10.709 17.6248 10.7248 17.6248 10.7412C17.6248 10.7577 17.6185 10.7734 17.6072 10.7853L16.3645 12.0758C16.359 12.0815 16.3524 12.0861 16.3451 12.0893C16.3378 12.0924 16.3299 12.094 16.322 12.094C16.314 12.094 16.3062 12.0924 16.2989 12.0893C16.2916 12.0861 16.2849 12.0815 16.2794 12.0758L15.0366 10.7853C15.0252 10.7733 15.0188 10.7574 15.0188 10.7409C15.0188 10.7244 15.0252 10.709 15.0366 10.697Z" fill="#47AAAF"/>
<path fill-rule="evenodd" clip-rule="evenodd" d="M16.3655 8.8061L17.8174 7.29868C17.8238 7.29195 17.8315 7.28661 17.8401 7.28295C17.8486 7.27929 17.8578 7.27734 17.8671 7.27734C17.8764 7.27734 17.8855 7.27929 17.8941 7.28295C17.9026 7.28661 17.9103 7.29195 17.9167 7.29868L19.3684 8.8061C19.3817 8.82 19.3891 8.83847 19.3891 8.85772C19.3891 8.87696 19.3817 8.89543 19.3684 8.90933L17.9167 10.4169C17.9103 10.4236 17.9026 10.4289 17.8941 10.4326C17.8855 10.4362 17.8764 10.4382 17.8671 10.4382C17.8578 10.4382 17.8486 10.4362 17.8401 10.4326C17.8315 10.4289 17.8238 10.4236 17.8174 10.4169L16.3655 8.90933C16.3524 8.89535 16.345 8.87691 16.345 8.85772C16.345 8.83852 16.3524 8.82008 16.3655 8.8061ZM10.9233 19.7658L11.4346 19.2349C11.4368 19.2326 11.4396 19.2307 11.4426 19.2294C11.4456 19.2282 11.4488 19.2275 11.452 19.2275C11.4553 19.2275 11.4585 19.2282 11.4615 19.2294C11.4645 19.2307 11.4672 19.2326 11.4694 19.2349L11.9809 19.7658C11.9856 19.7707 11.9881 19.7772 11.9881 19.784C11.9881 19.7908 11.9856 19.7973 11.9809 19.8022L11.4694 20.3329C11.4672 20.3353 11.4645 20.3372 11.4615 20.3384C11.4585 20.3397 11.4553 20.3404 11.452 20.3404C11.4488 20.3404 11.4456 20.3397 11.4426 20.3384C11.4396 20.3372 11.4368 20.3353 11.4346 20.3329L10.9233 19.8022C10.9187 19.7973 10.9161 19.7908 10.9161 19.784C10.9161 19.7772 10.9188 19.7707 10.9233 19.7658ZM23.963 19.7179L24.4741 19.1872C24.4764 19.1848 24.4791 19.1829 24.4822 19.1816C24.4852 19.1803 24.4885 19.1796 24.4917 19.1796C24.495 19.1796 24.4983 19.1803 24.5013 19.1816C24.5043 19.1829 24.507 19.1848 24.5093 19.1872L25.0205 19.7179C25.0251 19.7228 25.0277 19.7294 25.0277 19.7361C25.0277 19.7429 25.0251 19.7493 25.0205 19.7543L24.5093 20.2852C24.507 20.2876 24.5043 20.2894 24.5013 20.2907C24.4983 20.292 24.495 20.2926 24.4917 20.2926C24.4885 20.2926 24.4852 20.292 24.4822 20.2907C24.4791 20.2894 24.4764 20.2876 24.4741 20.2852L23.963 19.7543C23.9584 19.7494 23.9558 19.7429 23.9558 19.7361C23.9558 19.7294 23.9584 19.7229 23.963 19.7179ZM13.9355 19.7605L14.7714 18.8927C14.7751 18.8888 14.7795 18.8856 14.7844 18.8835C14.7893 18.8814 14.7946 18.8803 14.8 18.8803C14.8053 18.8803 14.8106 18.8814 14.8155 18.8835C14.8205 18.8856 14.8249 18.8888 14.8285 18.8927L15.6644 19.7605C15.6718 19.7686 15.6759 19.7792 15.6759 19.7902C15.6759 19.8012 15.6718 19.8119 15.6644 19.82L14.8285 20.6879C14.8248 20.6918 14.8204 20.6949 14.8155 20.697C14.8106 20.6991 14.8053 20.7002 14.8 20.7002C14.7946 20.7002 14.7893 20.6991 14.7844 20.697C14.7795 20.6949 14.7751 20.6918 14.7714 20.6879L13.9355 19.82C13.9279 19.812 13.9236 19.8014 13.9236 19.7904C13.9236 19.7793 13.9279 19.7685 13.9355 19.7605ZM17.118 19.6764L17.9539 18.8085C17.9576 18.8046 17.9621 18.8016 17.967 18.7995C17.9719 18.7974 17.9771 18.7963 17.9825 18.7963C17.9878 18.7963 17.9931 18.7974 17.9981 18.7995C18.003 18.8016 18.0074 18.8046 18.0111 18.8085L18.847 19.6764C18.8546 19.6845 18.8589 19.6951 18.8589 19.7062C18.8589 19.7173 18.8546 19.7279 18.847 19.7359L18.0111 20.604C18.0074 20.6078 18.003 20.6109 17.9981 20.613C17.9931 20.6151 17.9878 20.6162 17.9825 20.6162C17.9771 20.6162 17.9719 20.6151 17.967 20.613C17.9621 20.6109 17.9576 20.6078 17.9539 20.604L17.118 19.7359C17.1106 19.7278 17.1065 19.7173 17.1065 19.7063C17.1064 19.6953 17.1106 19.6846 17.118 19.6764ZM20.3929 19.7726L21.2287 18.9046C21.2324 18.9007 21.2368 18.8977 21.2417 18.8956C21.2466 18.8935 21.2519 18.8923 21.2573 18.8923C21.2626 18.8923 21.268 18.8935 21.2729 18.8956C21.2778 18.8977 21.2822 18.9007 21.2859 18.9046L22.1218 19.7726C22.1294 19.7806 22.1336 19.7913 22.1336 19.8023C22.1336 19.8134 22.1294 19.8239 22.1218 19.832L21.2859 20.6998C21.2822 20.7037 21.2778 20.7068 21.2729 20.7089C21.268 20.7111 21.2627 20.7122 21.2573 20.7122C21.2519 20.7122 21.2466 20.7111 21.2417 20.7089C21.2368 20.7068 21.2323 20.7037 21.2287 20.6998L20.3929 19.832C20.3854 19.8239 20.3812 19.8133 20.3812 19.8023C20.3811 19.7913 20.3854 19.7806 20.3929 19.7726ZM21.9494 21.535L22.7853 20.6669C22.789 20.663 22.7934 20.66 22.7983 20.6579C22.8032 20.6558 22.8086 20.6546 22.8139 20.6546C22.8192 20.6546 22.8245 20.6558 22.8294 20.6579C22.8343 20.66 22.8388 20.663 22.8425 20.6669L23.6784 21.535C23.686 21.5429 23.6902 21.5536 23.6902 21.5646C23.6902 21.5756 23.686 21.5862 23.6784 21.5942L22.8425 22.4622C22.8388 22.4661 22.8344 22.4692 22.8295 22.4713C22.8246 22.4734 22.8193 22.4745 22.8139 22.4745C22.8086 22.4745 22.8032 22.4734 22.7983 22.4713C22.7934 22.4692 22.789 22.4661 22.7853 22.4622L21.9494 21.5942C21.9419 21.5862 21.9377 21.5757 21.9377 21.5647C21.9377 21.5537 21.9419 21.543 21.9494 21.535ZM12.2635 21.5588L13.0993 20.6909C13.103 20.6871 13.1075 20.684 13.1124 20.6819C13.1173 20.6798 13.1226 20.6787 13.1279 20.6787C13.1333 20.6787 13.1386 20.6798 13.1435 20.6819C13.1484 20.684 13.1528 20.6871 13.1565 20.6909L13.9924 21.5588C14.0001 21.5668 14.0043 21.5774 14.0043 21.5885C14.0043 21.5996 14.0001 21.6101 13.9924 21.6182L13.1565 22.4862C13.1528 22.4901 13.1484 22.4931 13.1435 22.4953C13.1386 22.4974 13.1333 22.4985 13.1279 22.4985C13.1226 22.4985 13.1173 22.4974 13.1124 22.4953C13.1075 22.4931 13.103 22.4901 13.0993 22.4862L12.2635 21.6182C12.256 21.61 12.2519 21.5995 12.2519 21.5885C12.2518 21.5775 12.2561 21.5669 12.2635 21.5588ZM15.2418 21.5742L16.3091 20.4658C16.3138 20.4609 16.3195 20.457 16.3258 20.4543C16.3321 20.4516 16.3388 20.4503 16.3456 20.4503C16.3524 20.4503 16.3591 20.4516 16.3654 20.4543C16.3717 20.457 16.3773 20.4609 16.3821 20.4658L17.4495 21.5742C17.4592 21.5844 17.4646 21.598 17.4646 21.6121C17.4646 21.6262 17.4592 21.6398 17.4495 21.6501L16.3821 22.7583C16.3774 22.7632 16.3717 22.7673 16.3655 22.7699C16.3592 22.7726 16.3524 22.774 16.3456 22.774C16.3388 22.774 16.332 22.7726 16.3258 22.7699C16.3195 22.7673 16.3138 22.7632 16.3091 22.7583L15.2418 21.6501C15.2321 21.6398 15.2266 21.6262 15.2266 21.6121C15.2266 21.598 15.2321 21.5844 15.2418 21.5742ZM18.4818 21.5264L19.5492 20.4179C19.5539 20.4129 19.5596 20.409 19.5659 20.4063C19.5722 20.4036 19.579 20.4022 19.5858 20.4022C19.5927 20.4022 19.5994 20.4036 19.6057 20.4063C19.612 20.409 19.6177 20.4129 19.6224 20.4179L20.6898 21.5264C20.6994 21.5367 20.7048 21.5502 20.7048 21.5643C20.7048 21.5784 20.6994 21.592 20.6898 21.6022L19.6224 22.7106C19.6177 22.7155 19.612 22.7194 19.6057 22.7221C19.5994 22.7248 19.5926 22.7261 19.5858 22.7261C19.579 22.7261 19.5722 22.7248 19.5659 22.7221C19.5596 22.7194 19.5539 22.7155 19.5492 22.7106L18.4818 21.6022C18.4721 21.592 18.4667 21.5784 18.4667 21.5643C18.4667 21.5502 18.4721 21.5367 18.4818 21.5264ZM16.6511 23.3431L17.894 22.0528C17.8995 22.047 17.906 22.0424 17.9134 22.0392C17.9207 22.036 17.9285 22.0343 17.9365 22.0343C17.9445 22.0343 17.9524 22.036 17.9597 22.0392C17.967 22.0424 17.9736 22.047 17.9791 22.0528L19.2217 23.3431C19.233 23.3551 19.2393 23.3708 19.2393 23.3872C19.2393 23.4036 19.233 23.4195 19.2217 23.4314L17.9791 24.7218C17.9736 24.7275 17.967 24.7321 17.9597 24.7353C17.9524 24.7384 17.9445 24.74 17.9365 24.74C17.9286 24.74 17.9207 24.7384 17.9134 24.7353C17.9061 24.7321 17.8995 24.7275 17.894 24.7218L16.6511 23.4314C16.6398 23.4195 16.6334 23.4036 16.6334 23.3872C16.6334 23.3708 16.6398 23.3551 16.6511 23.3431ZM18.2421 25.1895L19.485 23.8983C19.4905 23.8926 19.4971 23.888 19.5044 23.8849C19.5118 23.8817 19.5196 23.8801 19.5276 23.8801C19.5355 23.8801 19.5434 23.8817 19.5507 23.8849C19.558 23.888 19.5646 23.8926 19.5701 23.8983L20.813 25.1895C20.8243 25.2014 20.8306 25.2172 20.8306 25.2337C20.8306 25.2501 20.8243 25.2658 20.813 25.2777L19.5701 26.5689C19.5646 26.5746 19.558 26.5792 19.5507 26.5823C19.5434 26.5855 19.5355 26.5872 19.5276 26.5872C19.5196 26.5872 19.5118 26.5855 19.5044 26.5823C19.4971 26.5792 19.4905 26.5746 19.485 26.5689L18.2421 25.2777C18.2309 25.2658 18.2247 25.25 18.2247 25.2337C18.2247 25.2173 18.2309 25.2014 18.2421 25.1895ZM20.0732 23.3484L21.1406 22.2401C21.1454 22.2351 21.151 22.2312 21.1573 22.2285C21.1636 22.2259 21.1703 22.2244 21.1771 22.2244C21.1839 22.2244 21.1907 22.2259 21.1969 22.2285C21.2032 22.2312 21.2089 22.2351 21.2136 22.2401L22.2812 23.3484C22.2908 23.3587 22.2962 23.3724 22.2962 23.3865C22.2962 23.4006 22.2908 23.4141 22.2812 23.4244L21.2136 24.5324C21.2089 24.5374 21.2033 24.5415 21.197 24.5442C21.1907 24.5469 21.184 24.5483 21.1771 24.5483C21.1703 24.5483 21.1635 24.5469 21.1572 24.5442C21.151 24.5415 21.1453 24.5374 21.1406 24.5324L20.0732 23.4244C20.0635 23.4142 20.0581 23.4006 20.058 23.3865C20.058 23.3723 20.0635 23.3587 20.0732 23.3484ZM13.6042 23.3602L14.6718 22.2521C14.6765 22.2471 14.6822 22.2432 14.6884 22.2405C14.6947 22.2378 14.7015 22.2363 14.7083 22.2363C14.7152 22.2363 14.7219 22.2378 14.7282 22.2405C14.7345 22.2432 14.7401 22.2471 14.7448 22.2521L15.8121 23.3602C15.8218 23.3704 15.8273 23.3841 15.8273 23.3982C15.8273 23.4124 15.8218 23.426 15.8121 23.4363L14.7448 24.5446C14.7401 24.5495 14.7344 24.5535 14.7281 24.5561C14.7219 24.5588 14.7151 24.5602 14.7083 24.5602C14.7015 24.5602 14.6948 24.5588 14.6885 24.5561C14.6822 24.5535 14.6765 24.5495 14.6718 24.5446L13.6042 23.4363C13.5945 23.426 13.5891 23.4124 13.5891 23.3983C13.589 23.3842 13.5945 23.3704 13.6042 23.3602ZM15.0366 25.1532L16.2794 23.8629C16.2849 23.8572 16.2916 23.8526 16.2989 23.8495C16.3062 23.8464 16.314 23.8448 16.322 23.8448C16.3299 23.8448 16.3378 23.8464 16.3451 23.8495C16.3524 23.8526 16.359 23.8572 16.3645 23.8629L17.6074 25.1532C17.6186 25.1651 17.6249 25.181 17.6249 25.1973C17.6249 25.2137 17.6186 25.2296 17.6074 25.2415L16.3645 26.5326C16.359 26.5383 16.3524 26.5428 16.3451 26.5459C16.3378 26.549 16.3299 26.5507 16.322 26.5507C16.314 26.5507 16.3062 26.549 16.2989 26.5459C16.2916 26.5428 16.2849 26.5383 16.2794 26.5326L15.0366 25.2415C15.0255 25.2296 15.0194 25.2138 15.0194 25.1976C15.0194 25.1813 15.0255 25.1651 15.0366 25.1532ZM19.3687 27.0291L17.9169 25.5217C17.9105 25.515 17.9028 25.5096 17.8942 25.506C17.8857 25.5023 17.8765 25.5005 17.8672 25.5005C17.8579 25.5005 17.8487 25.5023 17.8402 25.506C17.8316 25.5096 17.8239 25.515 17.8175 25.5217L16.3655 27.0291C16.3524 27.0431 16.345 27.0617 16.345 27.0809C16.345 27.1001 16.3524 27.1186 16.3655 27.1326L17.8175 28.6402C17.8239 28.6469 17.8317 28.6521 17.8402 28.6557C17.8488 28.6594 17.8579 28.6612 17.8672 28.6612C17.8764 28.6612 17.8856 28.6594 17.8942 28.6557C17.9027 28.6521 17.9104 28.6469 17.9169 28.6402L19.3687 27.1326C19.3819 27.1186 19.3893 27.1 19.3893 27.0808C19.3893 27.0615 19.382 27.0431 19.3687 27.0291ZM25.786 17.0714H27.1583V17.117C27.0889 17.1107 27.0194 17.1279 26.9611 17.1661C26.9237 17.2287 26.9085 17.3022 26.918 17.3746V18.2955C26.9103 18.4068 26.9206 18.5186 26.9485 18.6266C26.9693 18.6683 27.0353 18.6899 27.1472 18.6899V19.2132H27.1055C27.0878 19.1082 27.0475 19.0085 26.9873 18.9208C26.9419 18.8538 26.8773 18.802 26.802 18.7723C26.722 18.7457 26.638 18.733 26.5537 18.7349H26.1292C26.0541 18.7285 25.9786 18.7386 25.9079 18.7646C25.8372 18.7907 25.7731 18.8319 25.7201 18.8855C25.6374 18.9773 25.5831 19.0911 25.5638 19.2132H25.5221V18.6899C25.5915 18.6809 25.6573 18.6544 25.7136 18.6129C25.7698 18.5714 25.8146 18.5163 25.8436 18.4528C25.9331 18.2851 25.9913 18.1026 26.0152 17.9141C26.0437 17.7406 26.0597 17.5653 26.0631 17.3896C26.0669 17.3279 26.0565 17.2662 26.0325 17.2092C26.0183 17.1768 25.9923 17.151 25.9598 17.1371C25.9028 17.1235 25.8445 17.1169 25.7859 17.1174L25.786 17.0714ZM26.1858 17.162C26.1831 17.5054 26.1441 17.8475 26.0695 18.1827C26.026 18.3509 25.9475 18.508 25.839 18.6436H26.4546C26.5216 18.6516 26.5895 18.6416 26.6514 18.6147C26.6734 18.5953 26.6844 18.5337 26.6844 18.4281V17.162H26.1858ZM22.5228 17.8427H23.2952V17.3669C23.2984 17.3104 23.2931 17.2537 23.2793 17.1988C23.2687 17.176 23.2506 17.1574 23.2279 17.1462C23.1939 17.127 23.1554 17.1169 23.1162 17.1169H23.0575V17.0713H23.7686V17.1169H23.7097C23.6708 17.1168 23.6326 17.1265 23.5985 17.145C23.586 17.1508 23.5748 17.159 23.5656 17.1692C23.5564 17.1794 23.5494 17.1914 23.5449 17.2044C23.5328 17.2577 23.5281 17.3124 23.5309 17.3669V18.4402C23.5275 18.4962 23.5329 18.5526 23.5468 18.607C23.5569 18.6298 23.5747 18.6484 23.597 18.6596C23.6314 18.679 23.6702 18.6894 23.7097 18.6895H23.7686V18.7346H23.0575V18.6895H23.1162C23.144 18.6919 23.1719 18.6876 23.1978 18.6771C23.2236 18.6667 23.2466 18.6501 23.2648 18.6291C23.2918 18.57 23.3023 18.5048 23.2952 18.4403V17.9337H22.5228V18.4403C22.5196 18.4963 22.525 18.5526 22.5387 18.6071C22.5494 18.6301 22.5678 18.6486 22.5907 18.6597C22.6245 18.6793 22.663 18.6896 22.7021 18.6896H22.7622V18.7347H22.0499V18.6896H22.1084C22.1364 18.692 22.1645 18.6877 22.1905 18.6772C22.2166 18.6668 22.2398 18.6503 22.2583 18.6292C22.2841 18.5698 22.2943 18.5048 22.2876 18.4404V17.367C22.2907 17.3106 22.2853 17.2539 22.2717 17.199C22.2613 17.1763 22.2435 17.1578 22.2213 17.1463C22.1867 17.1271 22.1479 17.1171 22.1083 17.117H22.0498V17.0716H22.7622V17.117H22.7021C22.6632 17.1169 22.6248 17.1266 22.5907 17.1453C22.5784 17.1512 22.5674 17.1595 22.5584 17.1696C22.5493 17.1798 22.5424 17.1917 22.5379 17.2045C22.5249 17.2577 22.5198 17.3124 22.5228 17.367V17.8427ZM19.6721 18.1778H19.0283L18.9156 18.4402C18.8928 18.4854 18.8785 18.5346 18.8737 18.585C18.8742 18.5981 18.8777 18.6109 18.8839 18.6224C18.8902 18.6339 18.8991 18.6437 18.9098 18.6512C18.9577 18.6772 19.0116 18.6902 19.0662 18.689V18.7341H18.5425V18.689C18.5908 18.6846 18.6371 18.668 18.6772 18.6408C18.7379 18.5705 18.7849 18.4894 18.8158 18.4018L19.4006 17.0334H19.4432L20.0224 18.4166C20.0495 18.4965 20.0926 18.5702 20.1491 18.633C20.1944 18.6688 20.2503 18.6885 20.308 18.6891V18.7343H19.6519V18.6891C19.6989 18.691 19.7455 18.6795 19.7862 18.656C19.7971 18.6482 19.806 18.6379 19.8121 18.626C19.8182 18.614 19.8214 18.6008 19.8214 18.5874C19.8149 18.5281 19.7982 18.4705 19.772 18.417L19.6721 18.1778ZM19.6378 18.0868L19.3555 17.415L19.0662 18.0868H19.6378ZM16.4959 17.8859C16.5914 17.9009 16.6809 17.9416 16.755 18.0036C16.7932 18.0386 16.8236 18.0813 16.8441 18.1288C16.8645 18.1764 16.8747 18.2277 16.8739 18.2795C16.8729 18.3648 16.8454 18.4478 16.7951 18.5168C16.7424 18.593 16.6671 18.6509 16.5799 18.6823C16.4448 18.7233 16.3038 18.741 16.1627 18.7347H15.3775V18.6895H15.44C15.4685 18.6922 15.4972 18.6874 15.5233 18.6758C15.5495 18.6643 15.5723 18.6462 15.5894 18.6233C15.6138 18.5657 15.6236 18.503 15.6179 18.4407V17.3663C15.6261 17.2993 15.6136 17.2313 15.5822 17.1715C15.5639 17.1526 15.5417 17.1381 15.5171 17.1288C15.4925 17.1195 15.4662 17.1156 15.44 17.1176H15.3775V17.0721H16.096C16.2044 17.0696 16.3127 17.0795 16.4188 17.1017C16.5267 17.1226 16.625 17.1773 16.6996 17.2579C16.7627 17.3291 16.7971 17.4211 16.7962 17.5162C16.7971 17.5973 16.7703 17.6763 16.7204 17.7401C16.6623 17.8108 16.584 17.8613 16.4959 17.8859ZM15.8532 17.8197C15.8875 17.8259 15.9222 17.8303 15.9571 17.8328C15.996 17.8356 16.0387 17.8367 16.0851 17.8367C16.1765 17.8413 16.2679 17.8283 16.3544 17.7983C16.4121 17.7749 16.4606 17.7332 16.4925 17.6798C16.5243 17.6273 16.5408 17.567 16.5403 17.5056C16.5404 17.4579 16.5297 17.4107 16.5091 17.3677C16.4884 17.3247 16.4584 17.2869 16.4211 17.257C16.3218 17.1819 16.1986 17.1453 16.0743 17.1539C15.9998 17.153 15.9256 17.1619 15.8536 17.1807L15.8532 17.8197ZM15.8532 18.6142C15.9452 18.636 16.0394 18.6471 16.134 18.6473C16.2552 18.6556 16.3754 18.6202 16.4727 18.5474C16.5095 18.5177 16.5391 18.4799 16.5592 18.4372C16.5794 18.3944 16.5895 18.3476 16.589 18.3003C16.5886 18.2346 16.5704 18.1701 16.5362 18.114C16.4957 18.0498 16.4355 18.0004 16.3647 17.9731C16.2711 17.9362 16.171 17.9187 16.0705 17.9216C16.0197 17.9216 15.9761 17.9225 15.9401 17.9238C15.9109 17.9246 15.8818 17.9276 15.8529 17.9326L15.8532 18.6142ZM12.784 17.9558V18.4402C12.7758 18.5072 12.7878 18.5752 12.8186 18.6353C12.8366 18.6542 12.8585 18.6688 12.8828 18.6781C12.9071 18.6875 12.9332 18.6914 12.9592 18.6894H13.0233V18.7345H12.3107V18.6894H12.3731C12.402 18.692 12.4311 18.687 12.4575 18.675C12.4839 18.663 12.5068 18.6443 12.5238 18.6208C12.5455 18.5632 12.554 18.5014 12.5485 18.4402V17.3656C12.5566 17.2989 12.5451 17.2312 12.5154 17.1709C12.497 17.1521 12.4748 17.1375 12.4502 17.1281C12.4256 17.1188 12.3993 17.1151 12.3731 17.117H12.3107V17.0714H12.9202C13.0392 17.0673 13.1581 17.0828 13.272 17.1175C13.3576 17.1478 13.4329 17.2015 13.4893 17.2725C13.5483 17.3457 13.5795 17.4374 13.5776 17.5314C13.5798 17.5929 13.569 17.6543 13.5459 17.7114C13.5227 17.7684 13.4877 17.8199 13.4431 17.8624C13.3381 17.953 13.2018 17.9988 13.0634 17.9901C13.02 17.9899 12.9767 17.987 12.9337 17.9814C12.8871 17.9755 12.8371 17.9672 12.784 17.9558ZM12.784 17.8858C12.8273 17.8939 12.8661 17.9001 12.8993 17.9043C12.9277 17.9079 12.9563 17.9099 12.985 17.9103C13.0268 17.9105 13.0681 17.9018 13.1062 17.8846C13.1443 17.8675 13.1782 17.8423 13.2057 17.8109C13.2688 17.7412 13.3021 17.6495 13.2983 17.5555C13.2988 17.4863 13.2837 17.4177 13.2542 17.3551C13.228 17.297 13.1842 17.2486 13.129 17.2166C13.0727 17.1851 13.0091 17.1692 12.9446 17.1704C12.8904 17.1721 12.8365 17.1798 12.784 17.1934V17.8858ZM9.93423 18.1777H9.29044L9.17777 18.4401C9.15488 18.4853 9.14067 18.5345 9.13585 18.585C9.13629 18.5981 9.13982 18.6109 9.14609 18.6224C9.15235 18.6339 9.1612 18.6437 9.17195 18.6512C9.21989 18.6772 9.27379 18.6902 9.32832 18.689V18.7341H8.80469V18.689C8.85296 18.6846 8.89935 18.6681 8.93945 18.6408C9.00007 18.5705 9.04699 18.4895 9.07782 18.4019L9.66266 17.0335H9.70539L10.2844 18.4167C10.3117 18.4966 10.3548 18.5702 10.4112 18.6331C10.4565 18.6688 10.5124 18.6886 10.5701 18.6892V18.7344H9.91397V18.6892C9.96096 18.6911 10.0075 18.6796 10.0482 18.6561C10.0591 18.6483 10.068 18.638 10.0742 18.6261C10.0803 18.6141 10.0834 18.6009 10.0834 18.5875C10.077 18.5282 10.0603 18.4706 10.034 18.4171L9.93423 18.1777ZM9.89996 18.0868L9.61767 17.415L9.32842 18.0868H9.89996ZM10.9232 16.1367L11.4344 15.6057C11.4366 15.6034 11.4393 15.6014 11.4423 15.6001C11.4453 15.5988 11.4486 15.5982 11.4519 15.5982C11.4552 15.5982 11.4584 15.5988 11.4614 15.6001C11.4644 15.6014 11.4671 15.6034 11.4693 15.6057L11.9806 16.1368C11.9853 16.1416 11.9878 16.1481 11.9878 16.1548C11.9878 16.1615 11.9853 16.168 11.9806 16.1728L11.4693 16.704C11.4671 16.7063 11.4644 16.7082 11.4614 16.7095C11.4584 16.7108 11.4552 16.7115 11.4519 16.7115C11.4486 16.7115 11.4453 16.7108 11.4423 16.7095C11.4393 16.7082 11.4366 16.7063 11.4344 16.704L10.9232 16.1729C10.9208 16.1705 10.9189 16.1677 10.9176 16.1646C10.9163 16.1615 10.9156 16.1581 10.9156 16.1547C10.9156 16.1513 10.9163 16.148 10.9176 16.1449C10.9189 16.1418 10.9208 16.1391 10.9232 16.1367ZM23.9629 16.1845L24.474 15.6537C24.4763 15.6513 24.479 15.6494 24.482 15.6481C24.485 15.6468 24.4883 15.6461 24.4915 15.6461C24.4948 15.6461 24.498 15.6468 24.501 15.6481C24.504 15.6494 24.5068 15.6513 24.509 15.6537L25.0204 16.1845C25.025 16.1895 25.0276 16.1959 25.0276 16.2026C25.0276 16.2094 25.025 16.2159 25.0204 16.2209L24.509 16.7516C24.5067 16.754 24.504 16.7558 24.501 16.7571C24.498 16.7584 24.4948 16.7591 24.4915 16.7591C24.4883 16.7591 24.485 16.7584 24.482 16.7571C24.479 16.7558 24.4763 16.754 24.474 16.7516L23.9629 16.2209C23.9582 16.2159 23.9556 16.2094 23.9556 16.2025C23.9556 16.1957 23.9582 16.1895 23.9629 16.1845ZM13.9354 16.1183L14.7709 15.2507C14.7746 15.2467 14.7791 15.2435 14.784 15.2414C14.789 15.2392 14.7943 15.2381 14.7996 15.2381C14.805 15.2381 14.8103 15.2392 14.8153 15.2414C14.8202 15.2435 14.8246 15.2467 14.8283 15.2507L15.6642 16.1183C15.6717 16.1264 15.6758 16.137 15.6758 16.148C15.6758 16.159 15.6717 16.1696 15.6642 16.1778L14.8283 17.0456C14.8246 17.0494 14.8201 17.0525 14.8152 17.0546C14.8103 17.0567 14.805 17.0578 14.7996 17.0578C14.7943 17.0578 14.789 17.0567 14.784 17.0546C14.7791 17.0525 14.7746 17.0494 14.7709 17.0456L13.9354 16.1778C13.9277 16.1697 13.9235 16.1592 13.9235 16.1481C13.9235 16.1371 13.9277 16.1263 13.9354 16.1183ZM17.1179 16.2024L17.9538 15.3343C17.9575 15.3304 17.9619 15.3272 17.9668 15.3251C17.9717 15.323 17.977 15.3219 17.9824 15.3219C17.9877 15.3219 17.993 15.323 17.9979 15.3251C18.0029 15.3272 18.0073 15.3304 18.011 15.3343L18.8469 16.2024C18.8545 16.2104 18.8588 16.221 18.8588 16.2321C18.8588 16.2431 18.8545 16.2538 18.8469 16.2618L18.011 17.1295C18.0073 17.1334 18.0029 17.1365 17.9979 17.1386C17.993 17.1407 17.9877 17.1418 17.9824 17.1418C17.977 17.1418 17.9718 17.1407 17.9669 17.1386C17.9619 17.1365 17.9575 17.1334 17.9538 17.1295L17.1179 16.2618C17.1102 16.2538 17.106 16.2431 17.106 16.2321C17.106 16.221 17.1102 16.2104 17.1179 16.2024ZM20.3927 16.1065L21.2286 15.2385C21.2323 15.2346 21.2367 15.2315 21.2416 15.2294C21.2465 15.2273 21.2518 15.2262 21.2572 15.2262C21.2625 15.2262 21.2678 15.2273 21.2727 15.2294C21.2776 15.2315 21.2821 15.2346 21.2857 15.2385L22.1217 16.1065C22.1292 16.1146 22.1334 16.1252 22.1334 16.1362C22.1334 16.1472 22.1292 16.1578 22.1217 16.1658L21.2857 17.0337C21.2821 17.0376 21.2776 17.0407 21.2727 17.0428C21.2678 17.0449 21.2625 17.046 21.2572 17.046C21.2518 17.046 21.2465 17.0449 21.2416 17.0428C21.2367 17.0407 21.2323 17.0376 21.2286 17.0337L20.3927 16.1658C20.3851 16.1578 20.3808 16.1472 20.3808 16.1362C20.3808 16.1251 20.3851 16.1145 20.3927 16.1065ZM21.9493 14.344L22.7852 13.4762C22.7889 13.4723 22.7933 13.4692 22.7982 13.4671C22.8031 13.465 22.8085 13.4639 22.8138 13.4639C22.8191 13.4639 22.8244 13.465 22.8293 13.4671C22.8342 13.4692 22.8387 13.4723 22.8424 13.4762L23.6782 14.344C23.6857 14.3521 23.6899 14.3627 23.6899 14.3738C23.6899 14.3848 23.6857 14.3953 23.6782 14.4034L22.8424 15.2712C22.8387 15.2752 22.8343 15.2784 22.8294 15.2805C22.8245 15.2826 22.8192 15.2837 22.8138 15.2837C22.8084 15.2837 22.8031 15.2826 22.7982 15.2805C22.7933 15.2784 22.7888 15.2752 22.7852 15.2712L21.9493 14.4034C21.9417 14.3954 21.9375 14.3848 21.9375 14.3738C21.9375 14.3627 21.9417 14.352 21.9493 14.344ZM12.2633 14.3199L13.0992 13.4522C13.1029 13.4483 13.1073 13.4452 13.1123 13.4431C13.1172 13.441 13.1225 13.4399 13.1278 13.4399C13.1332 13.4399 13.1384 13.441 13.1434 13.4431C13.1483 13.4452 13.1527 13.4483 13.1564 13.4522L13.9922 14.3199C13.9999 14.3279 14.0041 14.3385 14.0041 14.3496C14.0041 14.3607 13.9999 14.3714 13.9922 14.3794L13.1564 15.2473C13.1527 15.2512 13.1483 15.2543 13.1434 15.2565C13.1384 15.2586 13.1332 15.2596 13.1278 15.2596C13.1225 15.2596 13.1172 15.2586 13.1123 15.2565C13.1073 15.2543 13.1029 15.2512 13.0992 15.2473L12.2633 14.3794C12.2557 14.3714 12.2515 14.3608 12.2515 14.3497C12.2515 14.3387 12.2557 14.3279 12.2633 14.3199ZM15.2414 14.2882L16.3088 13.1797C16.3135 13.1748 16.3192 13.1709 16.3255 13.1682C16.3318 13.1655 16.3385 13.1641 16.3454 13.1641C16.3522 13.1641 16.359 13.1655 16.3653 13.1682C16.3715 13.1709 16.3772 13.1748 16.382 13.1797L17.4494 14.2882C17.4591 14.2984 17.4645 14.312 17.4645 14.3261C17.4645 14.3402 17.4591 14.3538 17.4494 14.3641L16.382 15.4724C16.3772 15.4774 16.3715 15.4813 16.3653 15.484C16.359 15.4866 16.3522 15.4881 16.3454 15.4881C16.3385 15.4881 16.3318 15.4866 16.3255 15.484C16.3192 15.4813 16.3135 15.4774 16.3088 15.4724L15.2414 14.3641C15.2317 14.3538 15.2263 14.3403 15.2263 14.3262C15.2263 14.3122 15.2317 14.2984 15.2414 14.2882ZM18.4817 14.3362L19.5491 13.2277C19.5538 13.2228 19.5594 13.2188 19.5657 13.2162C19.572 13.2135 19.5788 13.2121 19.5856 13.2121C19.5924 13.2121 19.5991 13.2135 19.6054 13.2162C19.6117 13.2188 19.6173 13.2228 19.6221 13.2277L20.6896 14.3362C20.6993 14.3464 20.7047 14.3599 20.7047 14.374C20.7047 14.3881 20.6993 14.4016 20.6896 14.4118L19.6221 15.5203C19.6174 15.5252 19.6118 15.5292 19.6055 15.5319C19.5992 15.5346 19.5924 15.536 19.5856 15.536C19.5788 15.536 19.572 15.5346 19.5657 15.5319C19.5594 15.5292 19.5538 15.5252 19.5491 15.5203L18.4817 14.4118C18.472 14.4016 18.4667 14.3881 18.4667 14.374C18.4667 14.3599 18.472 14.3464 18.4817 14.3362ZM16.651 12.5067L17.8937 11.2164C17.8992 11.2106 17.9058 11.206 17.9131 11.2029C17.9204 11.1998 17.9282 11.1982 17.9362 11.1982C17.9442 11.1982 17.9521 11.1998 17.9594 11.2029C17.9667 11.206 17.9733 11.2106 17.9788 11.2164L19.2216 12.5067C19.2329 12.5187 19.2392 12.5344 19.2392 12.5508C19.2392 12.5672 19.2329 12.5831 19.2216 12.595L17.9788 13.8854C17.9733 13.8912 17.9667 13.8958 17.9594 13.899C17.952 13.9021 17.9442 13.9038 17.9362 13.9038C17.9282 13.9038 17.9203 13.9021 17.913 13.899C17.9057 13.8958 17.8991 13.8912 17.8937 13.8854L16.651 12.595C16.6397 12.5831 16.6334 12.5673 16.6334 12.5509C16.6334 12.5345 16.6397 12.5187 16.651 12.5067ZM18.2421 10.6605L19.485 9.36949C19.4905 9.36375 19.4971 9.35914 19.5044 9.35602C19.5118 9.3529 19.5196 9.35128 19.5276 9.35128C19.5355 9.35128 19.5434 9.3529 19.5507 9.35602C19.558 9.35914 19.5646 9.36375 19.5701 9.36949L20.813 10.6605C20.8243 10.6724 20.8306 10.6883 20.8306 10.7047C20.8306 10.7211 20.8243 10.737 20.813 10.7489L19.5701 12.0399C19.5646 12.0456 19.558 12.0503 19.5507 12.0534C19.5434 12.0565 19.5355 12.0581 19.5276 12.0581C19.5196 12.0581 19.5118 12.0565 19.5044 12.0534C19.4971 12.0503 19.4905 12.0456 19.485 12.0399L18.2421 10.7489C18.2309 10.7369 18.2246 10.7211 18.2246 10.7047C18.2246 10.6883 18.2309 10.6725 18.2421 10.6605ZM20.0732 12.5145L21.1405 11.406C21.1452 11.401 21.1509 11.3971 21.1571 11.3944C21.1634 11.3917 21.1702 11.3902 21.177 11.3902C21.1839 11.3902 21.1906 11.3917 21.1969 11.3944C21.2032 11.3971 21.2088 11.401 21.2135 11.406L22.2809 12.5145C22.2906 12.5247 22.296 12.5382 22.296 12.5523C22.296 12.5664 22.2906 12.58 22.2809 12.5903L21.2135 13.6986C21.2088 13.7036 21.2031 13.7075 21.1968 13.7102C21.1906 13.7128 21.1838 13.7142 21.177 13.7142C21.1702 13.7142 21.1634 13.7128 21.1572 13.7102C21.1509 13.7075 21.1452 13.7036 21.1405 13.6986L20.0732 12.5903C20.0634 12.58 20.0579 12.5663 20.0579 12.5521C20.0579 12.5379 20.0634 12.5248 20.0732 12.5145ZM13.6042 12.5023L14.6718 11.394C14.6766 11.389 14.6822 11.3851 14.6885 11.3824C14.6948 11.3798 14.7015 11.3784 14.7083 11.3784C14.7151 11.3784 14.7219 11.3798 14.7281 11.3824C14.7344 11.3851 14.7401 11.389 14.7448 11.394L15.8121 12.5023C15.8218 12.5126 15.8272 12.5261 15.8272 12.5403C15.8272 12.5544 15.8218 12.5679 15.8121 12.5782L14.7448 13.6863C14.7401 13.6913 14.7345 13.6954 14.7282 13.6981C14.7219 13.7008 14.7152 13.7023 14.7083 13.7023C14.7015 13.7023 14.6947 13.7008 14.6884 13.6981C14.6822 13.6954 14.6765 13.6913 14.6718 13.6863L13.6042 12.5782C13.5943 12.5679 13.5888 12.5543 13.5887 12.54C13.5887 12.5258 13.5943 12.5126 13.6042 12.5023ZM15.0366 10.697L16.2794 9.40667C16.2849 9.40088 16.2915 9.39625 16.2988 9.39309C16.3061 9.38994 16.314 9.38824 16.322 9.38824C16.33 9.38824 16.3378 9.38994 16.3452 9.39309C16.3525 9.39625 16.359 9.40088 16.3645 9.40667L17.6072 10.697C17.6185 10.709 17.6248 10.7248 17.6248 10.7412C17.6248 10.7577 17.6185 10.7734 17.6072 10.7853L16.3645 12.0758C16.359 12.0815 16.3524 12.0861 16.3451 12.0893C16.3378 12.0924 16.3299 12.094 16.322 12.094C16.314 12.094 16.3062 12.0924 16.2989 12.0893C16.2916 12.0861 16.2849 12.0815 16.2794 12.0758L15.0366 10.7853C15.0252 10.7733 15.0188 10.7574 15.0188 10.7409C15.0188 10.7244 15.0252 10.709 15.0366 10.697Z" stroke="#47AAAF" stroke-width="0.612766" mask="url(#path-1-inside-1_1_12087)"/>
<path d="M31.6344 18.077C31.6344 25.5645 25.5645 31.6344 18.077 31.6344C10.5894 31.6344 4.51953 25.5645 4.51953 18.077C4.51953 10.5894 10.5894 4.51953 18.077 4.51953C25.5645 4.51953 31.6344 10.5894 31.6344 18.077Z" stroke="#47AAAF" stroke-width="0.612766" mask="url(#path-1-inside-1_1_12087)"/>
<path d="M32.3977 18.0006C32.3977 25.9535 25.9506 32.4006 17.9977 32.4006C10.0448 32.4006 3.59766 25.9535 3.59766 18.0006C3.59766 10.0477 10.0448 3.60059 17.9977 3.60059C25.9506 3.60059 32.3977 10.0477 32.3977 18.0006Z" stroke="#47AAAF" stroke-width="0.612766" mask="url(#path-1-inside-1_1_12087)"/>
</svg>
