<svg width="36" height="36" viewBox="0 0 36 36" fill="none" xmlns="http://www.w3.org/2000/svg">
<path d="M3 9.37504C3 7.78723 4.28717 6.50006 5.87498 6.50006H30.7915C32.3792 6.50006 33.6664 7.78723 33.6664 9.37504V12.25H3V9.37504Z" fill="#47AAAF"/>
<path fill-rule="evenodd" clip-rule="evenodd" d="M3 14.1701H33.6664V26.6283C33.6664 28.2161 32.3792 29.5033 30.7915 29.5033H5.87498C4.28717 29.5033 3 28.2161 3 26.6283V14.1701ZM8.74996 19.9201C8.74996 19.3909 9.17902 18.9617 9.70828 18.9617H17.3749C17.9041 18.9617 18.3332 19.3909 18.3332 19.9201C18.3332 20.4492 17.9041 20.8784 17.3749 20.8784H9.70828C9.17902 20.8784 8.74996 20.4492 8.74996 19.9201ZM9.70828 22.795C9.17902 22.795 8.74996 23.2242 8.74996 23.7534C8.74996 24.2825 9.17902 24.7117 9.70828 24.7117H15.4582C15.9874 24.7117 16.4166 24.2825 16.4166 23.7534C16.4166 23.2242 15.9874 22.795 15.4582 22.795H9.70828Z" fill="#47AAAF"/>
</svg>
