<svg width="100" height="62" viewBox="0 0 100 62" fill="none" xmlns="http://www.w3.org/2000/svg">
<path d="M0 8C0 3.58172 3.58172 0 8 0H92C96.4183 0 100 3.58172 100 8V54C100 58.4183 96.4183 62 92 62H8C3.58172 62 0 58.4183 0 54V8Z" fill="#55B1B5" fill-opacity="0.1"/>
<path d="M38.3333 39.3333V27.6667H41.6667V39.3333H38.3333ZM48.3333 39.3333V27.6667H51.6667V39.3333H48.3333ZM33.3333 46V42.6667H66.6667V46H33.3333ZM58.3333 39.3333V27.6667H61.6667V39.3333H58.3333ZM33.3333 24.3333V21L50 12.6667L66.6667 21V24.3333H33.3333ZM40.75 21H59.25L50 16.4167L40.75 21Z" fill="#47AAAF"/>
</svg>
