<svg width="100" height="64" viewBox="0 0 100 64" fill="none" xmlns="http://www.w3.org/2000/svg">
<rect width="100" height="64" rx="16" fill="url(#paint0_linear_470_5099)"/>
<g filter="url(#filter0_b_470_5099)">
<rect width="100" height="64" rx="8" fill="white" fill-opacity="0.15"/>
</g>
<path d="M43.7396 42.8636C43.7396 43.8956 42.8366 44.7986 41.8046 44.7986C40.7726 44.7986 39.8696 43.8956 39.8696 42.8636M56.6397 42.8636C56.6397 43.8956 57.5428 44.7986 58.5748 44.7986C59.6068 44.7986 60.5098 43.8956 60.5098 42.8636M64.3798 21.5783V38.3485C64.3798 39.7675 63.2188 40.9285 61.7998 40.9285H38.5795C37.1605 40.9285 35.9995 39.7675 35.9995 38.3485V21.5783C35.9995 20.1593 37.1605 18.9983 38.5795 18.9983H61.7998C63.2188 18.9983 64.3798 20.1593 64.3798 21.5783ZM55.3497 29.9634C55.3497 26.0934 52.1247 22.8683 48.2546 22.8683C44.3846 22.8683 41.1596 26.0934 41.1596 29.9634C41.1596 33.8335 44.3846 37.0585 48.2546 37.0585C52.1247 37.0585 55.3497 33.8335 55.3497 29.9634ZM60.5098 28.0284C60.5098 27.2544 59.9938 26.7384 59.2198 26.7384C58.4458 26.7384 57.9298 27.2544 57.9298 28.0284V31.8984C57.9298 32.6724 58.4458 33.1885 59.2198 33.1885C59.9938 33.1885 60.5098 32.6724 60.5098 31.8984V28.0284ZM51.6087 28.1574L51.9957 26.6094C52.1247 26.3514 51.8667 26.0934 51.4797 26.0934L49.9317 26.4804C49.4157 26.2224 48.7707 25.9644 48.1256 25.9644C45.9326 25.9644 44.2556 27.6414 44.2556 29.8344C44.2556 32.0274 45.9326 33.7045 48.1256 33.7045C50.3187 33.7045 51.9957 32.0274 51.9957 29.8344C52.1247 29.3184 51.9957 28.6734 51.6087 28.1574Z" fill="white"/>
<defs>
<filter id="filter0_b_470_5099" x="-40" y="-40" width="180" height="144" filterUnits="userSpaceOnUse" color-interpolation-filters="sRGB">
<feFlood flood-opacity="0" result="BackgroundImageFix"/>
<feGaussianBlur in="BackgroundImageFix" stdDeviation="20"/>
<feComposite in2="SourceAlpha" operator="in" result="effect1_backgroundBlur_470_5099"/>
<feBlend mode="normal" in="SourceGraphic" in2="effect1_backgroundBlur_470_5099" result="shape"/>
</filter>
<linearGradient id="paint0_linear_470_5099" x1="8.92857" y1="-4.13483" x2="97.1094" y2="61.3263" gradientUnits="userSpaceOnUse">
<stop stop-color="#56CFF5"/>
<stop offset="0.496666" stop-color="#479587"/>
<stop offset="1" stop-color="#1DDB80"/>
</linearGradient>
</defs>
</svg>
