<svg width="108" height="70" viewBox="0 0 108 70" fill="none" xmlns="http://www.w3.org/2000/svg">
<g filter="url(#filter0_d_1_11345)">
<rect x="4" y="4" width="100" height="62" rx="8" fill="#55B1B5" fill-opacity="0.1" shape-rendering="crispEdges"/>
</g>
<path d="M54 26.6667V48.3333M54 26.6667H48.1071C47.2389 26.6667 46.4062 26.3155 45.7922 25.6903C45.1782 25.0652 44.8333 24.2174 44.8333 23.3333C44.8333 22.4493 45.1782 21.6014 45.7922 20.9763C46.4062 20.3512 47.2389 20 48.1071 20C52.6905 20 54 26.6667 54 26.6667ZM54 26.6667H59.8928C60.7612 26.6667 61.5938 26.3155 62.2078 25.6903C62.8217 25.0652 63.1667 24.2174 63.1667 23.3333C63.1667 22.4493 62.8217 21.6014 62.2078 20.9763C61.5938 20.3512 60.7612 20 59.8928 20C55.3095 20 54 26.6667 54 26.6667ZM42.3333 35H65.6667V44.6667C65.6667 46.5335 65.6667 47.467 65.3033 48.18C64.9838 48.8072 64.4738 49.3172 63.8467 49.6367C63.1337 50 62.2002 50 60.3333 50H47.6667C45.7998 50 44.8664 50 44.1534 49.6367C43.5261 49.3172 43.0162 48.8072 42.6966 48.18C42.3333 47.467 42.3333 46.5335 42.3333 44.6667V35ZM41.6667 35H66.3333C67.2668 35 67.7335 35 68.09 34.8183C68.4037 34.6585 68.6585 34.4037 68.8183 34.09C69 33.7335 69 33.2668 69 32.3333V29.3333C69 28.3999 69 27.9332 68.8183 27.5767C68.6585 27.2631 68.4037 27.0081 68.09 26.8483C67.7335 26.6667 67.2668 26.6667 66.3333 26.6667H41.6667C40.7332 26.6667 40.2665 26.6667 39.91 26.8483C39.5964 27.0081 39.3414 27.2631 39.1816 27.5767C39 27.9332 39 28.3999 39 29.3333V32.3333C39 33.2668 39 33.7335 39.1816 34.09C39.3414 34.4037 39.5964 34.6585 39.91 34.8183C40.2665 35 40.7332 35 41.6667 35Z" stroke="#47AAAF" stroke-width="3.33333" stroke-linecap="round" stroke-linejoin="round"/>
<defs>
<filter id="filter0_d_1_11345" x="0.171428" y="0.171428" width="107.657" height="69.6571" filterUnits="userSpaceOnUse" color-interpolation-filters="sRGB">
<feFlood flood-opacity="0" result="BackgroundImageFix"/>
<feColorMatrix in="SourceAlpha" type="matrix" values="0 0 0 0 0 0 0 0 0 0 0 0 0 0 0 0 0 0 127 0" result="hardAlpha"/>
<feOffset/>
<feGaussianBlur stdDeviation="1.91429"/>
<feComposite in2="hardAlpha" operator="out"/>
<feColorMatrix type="matrix" values="0 0 0 0 0 0 0 0 0 0 0 0 0 0 0 0 0 0 0.3 0"/>
<feBlend mode="normal" in2="BackgroundImageFix" result="effect1_dropShadow_1_11345"/>
<feBlend mode="normal" in="SourceGraphic" in2="effect1_dropShadow_1_11345" result="shape"/>
</filter>
</defs>
</svg>
