<svg width="84" height="84" viewBox="0 0 84 84" fill="none" xmlns="http://www.w3.org/2000/svg">
<g filter="url(#filter0_d_1063_4269)">
<rect x="4" width="76" height="76" rx="20.2667" fill="#F3F9F9"/>
</g>
<path d="M41.9724 48.5916C42.2505 48.565 42.4795 48.461 42.6595 48.2795C42.8395 48.098 42.9294 47.8791 42.9294 47.6229C42.9294 47.324 42.8314 47.0871 42.6352 46.9123C42.4391 46.7374 42.1885 46.6633 41.8835 46.6899C40.7935 46.7696 39.6065 46.4501 38.3223 45.7313C37.0381 45.0125 36.2365 43.7626 35.9175 41.9815C35.8643 41.7095 35.7503 41.4958 35.5755 41.3404C35.4006 41.185 35.1926 41.1073 34.9513 41.1073C34.6609 41.1073 34.4191 41.2162 34.2258 41.434C34.0326 41.6518 33.9708 41.9314 34.0403 42.2729C34.4718 44.5898 35.5146 46.2461 37.169 47.242C38.8233 48.2378 40.4244 48.6877 41.9724 48.5916ZM41.577 52.8245C38.1618 52.8245 35.3148 51.6513 33.0358 49.3048C30.7567 46.9583 29.6172 44.0377 29.6172 40.5429C29.6172 38.0686 30.6074 35.3566 32.5879 32.4068C34.5684 29.457 37.5657 26.243 41.5798 22.7646C45.5939 26.243 48.5912 29.457 50.5717 32.4068C52.5522 35.3566 53.5424 38.0686 53.5424 40.5429C53.5424 44.0377 52.402 46.9583 50.1211 49.3048C47.8401 51.6513 44.9921 52.8245 41.577 52.8245ZM41.5798 50.432C44.3445 50.432 46.6307 49.495 48.4384 47.6208C50.2461 45.7467 51.1499 43.3874 51.1499 40.5429C51.1499 38.6023 50.3458 36.4091 48.7375 33.9634C47.1291 31.5177 44.7433 28.8461 41.5798 25.9485C38.4163 28.8461 36.0305 31.5177 34.4221 33.9634C32.8138 36.4091 32.0097 38.6023 32.0097 40.5429C32.0097 43.3874 32.9135 45.7467 34.7212 47.6208C36.5289 49.495 38.8151 50.432 41.5798 50.432Z" fill="#47AAAF"/>
<defs>
<filter id="filter0_d_1063_4269" x="0" y="0" width="84" height="84" filterUnits="userSpaceOnUse" color-interpolation-filters="sRGB">
<feFlood flood-opacity="0" result="BackgroundImageFix"/>
<feColorMatrix in="SourceAlpha" type="matrix" values="0 0 0 0 0 0 0 0 0 0 0 0 0 0 0 0 0 0 127 0" result="hardAlpha"/>
<feOffset dy="4"/>
<feGaussianBlur stdDeviation="2"/>
<feComposite in2="hardAlpha" operator="out"/>
<feColorMatrix type="matrix" values="0 0 0 0 0.620833 0 0 0 0 0.620833 0 0 0 0 0.620833 0 0 0 0.1 0"/>
<feBlend mode="normal" in2="BackgroundImageFix" result="effect1_dropShadow_1063_4269"/>
<feBlend mode="normal" in="SourceGraphic" in2="effect1_dropShadow_1063_4269" result="shape"/>
</filter>
</defs>
</svg>
