<svg width="40" height="40" viewBox="0 0 40 40" fill="none" xmlns="http://www.w3.org/2000/svg">
<circle cx="20" cy="20" r="20" fill="#8331A7"/>
<path d="M29.212 15.1998C28.844 15.1998 28.543 15.5009 28.543 15.8689V24.5164H29.212C29.58 24.5164 29.8811 24.2154 29.8811 23.8474V15.1998H29.212Z" fill="white"/>
<path d="M32.1495 15.1998C31.7815 15.1998 31.4805 15.5009 31.4805 15.8689V24.5164H32.1495C32.5175 24.5164 32.8186 24.2154 32.8186 23.8474V15.1998H32.1495Z" fill="white"/>
<path d="M16.8168 19.1976H19.4847C19.8527 19.1976 20.1538 18.8965 20.1538 18.5286V17.8595H16.8252C15.738 17.8595 14.7679 18.3864 14.1573 19.1892C13.7392 19.7496 13.4883 20.4354 13.4883 21.1881C13.4883 21.9407 13.7392 22.6265 14.1573 23.1869C14.7679 23.9981 15.7296 24.5166 16.8252 24.5166H20.1538V23.8476C20.1538 23.4796 19.8527 23.1785 19.4847 23.1785H16.8168C15.7129 23.1785 14.818 22.2836 14.818 21.1797C14.818 20.0925 15.7129 19.1976 16.8168 19.1976Z" fill="white"/>
<path d="M7.87609 15.1998C7.50811 15.1998 7.20703 15.5009 7.20703 15.8689V16.5379H10.5356V24.5332H11.2046C11.5726 24.5332 11.8737 24.2321 11.8737 23.8641V16.5379H14.5499C14.9179 16.5379 15.219 16.2369 15.219 15.8689V15.1998H7.87609Z" fill="white"/>
<path d="M23.9028 19.1976H26.5706C26.9386 19.1976 27.2397 18.8965 27.2397 18.5286V17.8595H23.9111C22.8239 17.8595 21.8538 18.3864 21.2433 19.1892C20.8251 19.7496 20.5742 20.4354 20.5742 21.1881C20.5742 21.9407 20.8251 22.6265 21.2433 23.1869C21.8538 23.9981 22.8156 24.5166 23.9111 24.5166H27.2397V23.8476C27.2397 23.4796 26.9386 23.1785 26.5706 23.1785H23.9028C23.0246 23.1785 22.2719 22.6098 22.0043 21.8153H26.0438V21.1964C26.0438 20.8452 25.7594 20.5524 25.3998 20.5524H22.0043C22.2803 19.7663 23.0246 19.1976 23.9028 19.1976Z" fill="white"/>
</svg>
