<svg width="40" height="40" viewBox="0 0 40 40" fill="none" xmlns="http://www.w3.org/2000/svg">
<path d="M20 40C31.0457 40 40 31.0457 40 20C40 8.9543 31.0457 0 20 0C8.9543 0 0 8.9543 0 20C0 31.0457 8.9543 40 20 40Z" fill="#F3F9F9"/>
<path d="M11.25 28.2141V29.4642V11.9642V28.2141ZM11.6346 31.3392C11.0112 31.3392 10.4788 31.1184 10.0373 30.6769C9.59576 30.2354 9.375 29.7029 9.375 29.0795V12.3489C9.375 11.7255 9.59576 11.193 10.0373 10.7515C10.4788 10.31 11.0112 10.0892 11.6346 10.0892H28.3653C28.9887 10.0892 29.5212 10.31 29.9627 10.7515C30.4042 11.193 30.6249 11.7255 30.6249 12.3489V15.7503H28.75V12.3489C28.75 12.2367 28.7139 12.1445 28.6418 12.0724C28.5697 12.0003 28.4775 11.9642 28.3653 11.9642H11.6346C11.5224 11.9642 11.4303 12.0003 11.3582 12.0724C11.286 12.1445 11.25 12.2367 11.25 12.3489V29.0795C11.25 29.1917 11.286 29.2839 11.3582 29.356C11.4303 29.4281 11.5224 29.4642 11.6346 29.4642H28.3653C28.4775 29.4642 28.5697 29.4281 28.6418 29.356C28.7139 29.2839 28.75 29.1917 28.75 29.0795V25.6781H30.6249V29.0795C30.6249 29.7029 30.4042 30.2354 29.9627 30.6769C29.5212 31.1184 28.9887 31.3392 28.3653 31.3392H11.6346ZM21.6346 26.3392C21.0112 26.3392 20.4788 26.1184 20.0373 25.6769C19.5958 25.2354 19.375 24.7029 19.375 24.0795V17.3489C19.375 16.7255 19.5958 16.193 20.0373 15.7515C20.4788 15.31 21.0112 15.0892 21.6346 15.0892H29.6153C30.2387 15.0892 30.7712 15.31 31.2127 15.7515C31.6542 16.193 31.8749 16.7255 31.8749 17.3489V24.0795C31.8749 24.7029 31.6542 25.2354 31.2127 25.6769C30.7712 26.1184 30.2387 26.3392 29.6153 26.3392H21.6346ZM29.6153 24.4642C29.7275 24.4642 29.8197 24.4281 29.8918 24.356C29.9639 24.2839 30 24.1917 30 24.0795V17.3489C30 17.2367 29.9639 17.1445 29.8918 17.0724C29.8197 17.0003 29.7275 16.9642 29.6153 16.9642H21.6346C21.5224 16.9642 21.4303 17.0003 21.3582 17.0724C21.286 17.1445 21.25 17.2367 21.25 17.3489V24.0795C21.25 24.1917 21.286 24.2839 21.3582 24.356C21.4303 24.4281 21.5224 24.4642 21.6346 24.4642H29.6153ZM25 22.5892C25.5208 22.5892 25.9635 22.4069 26.3281 22.0423C26.6927 21.6777 26.875 21.235 26.875 20.7142C26.875 20.1934 26.6927 19.7507 26.3281 19.3861C25.9635 19.0215 25.5208 18.8392 25 18.8392C24.4791 18.8392 24.0364 19.0215 23.6718 19.3861C23.3073 19.7507 23.125 20.1934 23.125 20.7142C23.125 21.235 23.3073 21.6777 23.6718 22.0423C24.0364 22.4069 24.4791 22.5892 25 22.5892Z" fill="#47AAAF"/>
</svg>
