<svg width="40" height="40" viewBox="0 0 40 40" fill="none" xmlns="http://www.w3.org/2000/svg">
<circle cx="20" cy="20" r="20" fill="#8331A7"/>
<path d="M29.212 15.2C28.844 15.2 28.543 15.501 28.543 15.869V24.5166H29.212C29.58 24.5166 29.8811 24.2155 29.8811 23.8475V15.2H29.212Z" fill="white"/>
<path d="M32.1495 15.2C31.7815 15.2 31.4805 15.501 31.4805 15.869V24.5166H32.1495C32.5175 24.5166 32.8186 24.2155 32.8186 23.8475V15.2H32.1495Z" fill="white"/>
<path d="M16.8207 19.1976H19.4886C19.8566 19.1976 20.1577 18.8965 20.1577 18.5286V17.8595H16.8291C15.7419 17.8595 14.7718 18.3864 14.1612 19.1892C13.7431 19.7496 13.4922 20.4354 13.4922 21.1881C13.4922 21.9407 13.7431 22.6265 14.1612 23.1869C14.7718 23.9981 15.7335 24.5166 16.8291 24.5166H20.1577V23.8476C20.1577 23.4796 19.8566 23.1785 19.4886 23.1785H16.8207C15.7168 23.1785 14.8219 22.2836 14.8219 21.1797C14.8219 20.0925 15.7168 19.1976 16.8207 19.1976Z" fill="white"/>
<path d="M7.87999 15.2C7.51201 15.2 7.21094 15.501 7.21094 15.869V16.5381H10.5395V24.5333H11.2085C11.5765 24.5333 11.8776 24.2322 11.8776 23.8642V16.5381H14.5538C14.9218 16.5381 15.2229 16.237 15.2229 15.869V15.2H7.87999Z" fill="white"/>
<path d="M23.9106 19.1977H26.5784C26.9464 19.1977 27.2475 18.8967 27.2475 18.5287V17.8596H23.9189C22.8317 17.8596 21.8616 18.3865 21.2511 19.1894C20.8329 19.7497 20.582 20.4355 20.582 21.1882C20.582 21.9409 20.8329 22.6266 21.2511 23.187C21.8616 23.9982 22.8234 24.5167 23.9189 24.5167H27.2475V23.8477C27.2475 23.4797 26.9464 23.1786 26.5784 23.1786H23.9106C23.0324 23.1786 22.2798 22.6099 22.0121 21.8154H26.0516V21.1965C26.0516 20.8453 25.7672 20.5526 25.4076 20.5526H22.0121C22.2881 19.7664 23.0324 19.1977 23.9106 19.1977Z" fill="white"/>
<path d="M20 0C14.6957 0 9.60859 2.10714 5.85786 5.85786C2.10714 9.60859 0 14.6957 0 20C0 25.3043 2.10714 30.3914 5.85786 34.1421C9.60859 37.8929 14.6957 40 20 40C25.3043 40 30.3914 37.8929 34.1421 34.1421C37.8929 30.3914 40 25.3043 40 20C40 14.6957 37.8929 9.60859 34.1421 5.85786C30.3914 2.10714 25.3043 0 20 0Z" fill="#1976D2"/>
<path d="M31.937 14.041C31.983 13.89 32.005 13.75 31.999 13.625C31.984 13.263 31.735 13 31.149 13H28.531C27.87 13 27.565 13.4 27.387 13.801C27.387 13.801 25.755 17.16 23.874 19.375C23.264 20.016 22.954 20 22.624 20C22.447 20 22 19.786 22 19.199V14.014C22 13.32 21.827 13 21.268 13H16.619C16.212 13 16 13.32 16 13.641C16 14.308 16.898 14.468 17 16.337V19.96C17 20.84 16.847 21 16.517 21C15.627 21 13.875 18 12.702 14.068C12.448 13.294 12.194 13 11.533 13H8.89C8.127 13 8 13.374 8 13.774C8 14.495 8.6 18.393 11.875 22.875C14.25 26.125 17.379 28 20.149 28C21.827 28 21.999 27.573 21.999 26.906V23.934C22 23.133 22.183 23 22.717 23C23.098 23 23.875 23.25 25.375 25C27.105 27.018 27.419 28 28.411 28H31.029C31.637 28 31.986 27.745 32 27.25C32.003 27.124 31.985 26.983 31.944 26.826C31.75 26.25 30.86 24.842 29.75 23.5C29.135 22.757 28.528 22.021 28.249 21.621C28.062 21.36 27.991 21.176 28 21C28.009 20.815 28.105 20.639 28.249 20.393C28.223 20.393 31.607 15.642 31.937 14.041Z" fill="white"/>
</svg>
