<svg width="42" height="42" viewBox="0 0 42 42" fill="none" xmlns="http://www.w3.org/2000/svg">
<path d="M8.74996 31.4998V33.25V8.74996V31.4998ZM9.28848 35.8749C8.41572 35.8749 7.67029 35.5659 7.05219 34.9477C6.43406 34.3296 6.125 33.5842 6.125 32.7114V9.28848C6.125 8.41572 6.43406 7.67029 7.05219 7.05219C7.67029 6.43406 8.41572 6.125 9.28848 6.125H32.7114C33.5842 6.125 34.3296 6.43406 34.9477 7.05219C35.5659 7.67029 35.8749 8.41572 35.8749 9.28848V14.0505H33.25V9.28848C33.25 9.13141 33.1995 9.00239 33.0985 8.90142C32.9975 8.80044 32.8685 8.74996 32.7114 8.74996H9.28848C9.13141 8.74996 9.00239 8.80044 8.90142 8.90142C8.80044 9.00239 8.74996 9.13141 8.74996 9.28848V32.7114C8.74996 32.8685 8.80044 32.9975 8.90142 33.0985C9.00239 33.1995 9.13141 33.25 9.28848 33.25H32.7114C32.8685 33.25 32.9975 33.1995 33.0985 33.0985C33.1995 32.9975 33.25 32.8685 33.25 32.7114V27.9494H35.8749V32.7114C35.8749 33.5842 35.5659 34.3296 34.9477 34.9477C34.3296 35.5659 33.5842 35.8749 32.7114 35.8749H9.28848ZM23.2885 28.8749C22.4157 28.8749 21.6703 28.5659 21.0522 27.9477C20.4341 27.3296 20.125 26.5842 20.125 25.7114V16.2885C20.125 15.4157 20.4341 14.6703 21.0522 14.0522C21.6703 13.4341 22.4157 13.125 23.2885 13.125H34.4614C35.3342 13.125 36.0796 13.4341 36.6977 14.0522C37.3159 14.6703 37.6249 15.4157 37.6249 16.2885V25.7114C37.6249 26.5842 37.3159 27.3296 36.6977 27.9477C36.0796 28.5659 35.3342 28.8749 34.4614 28.8749H23.2885ZM34.4614 26.25C34.6185 26.25 34.7475 26.1995 34.8485 26.0985C34.9495 25.9975 35 25.8685 35 25.7114V16.2885C35 16.1314 34.9495 16.0024 34.8485 15.9014C34.7475 15.8004 34.6185 15.75 34.4614 15.75H23.2885C23.1314 15.75 23.0024 15.8004 22.9014 15.9014C22.8004 16.0024 22.75 16.1314 22.75 16.2885V25.7114C22.75 25.8685 22.8004 25.9975 22.9014 26.0985C23.0024 26.1995 23.1314 26.25 23.2885 26.25H34.4614ZM28 23.625C28.7291 23.625 29.3489 23.3698 29.8593 22.8593C30.3698 22.3489 30.625 21.7291 30.625 21C30.625 20.2708 30.3698 19.651 29.8593 19.1406C29.3489 18.6302 28.7291 18.375 28 18.375C27.2708 18.375 26.651 18.6302 26.1406 19.1406C25.6302 19.651 25.375 20.2708 25.375 21C25.375 21.7291 25.6302 22.3489 26.1406 22.8593C26.651 23.3698 27.2708 23.625 28 23.625Z" fill="#47AAAF"/>
</svg>
