<svg width="100" height="62" viewBox="0 0 100 62" fill="none" xmlns="http://www.w3.org/2000/svg">
<path d="M0 8C0 3.58172 3.58172 0 8 0H92C96.4183 0 100 3.58172 100 8V54C100 58.4183 96.4183 62 92 62H8C3.58172 62 0 58.4183 0 54V8Z" fill="#37A72E"/>
<path d="M58.8554 30.1234V36.3333H62.3054V32.6534H66.2153C67.8597 32.6419 69.257 31.5896 69.7859 30.1234H58.8554Z" fill="white"/>
<path d="M58.3987 25.006C58.5999 27.5417 61.0034 29.5484 63.9358 29.5484C63.9473 29.5484 69.9329 29.5484 69.9329 29.5484C69.9789 29.3184 70.0019 29.0769 70.0019 28.8297C70.0019 26.7252 68.3057 25.0233 66.207 25.006H58.3987Z" fill="white"/>
<path d="M53.2918 29.4852C53.332 29.4162 53.3953 29.3759 53.4758 29.3759C53.5908 29.3759 53.677 29.4679 53.6828 29.5772V36.2757H57.1327V25.006H53.6828C53.2458 25.0233 52.7513 25.3395 52.5673 25.7362L49.8246 31.6241C49.8188 31.6471 49.8073 31.6701 49.7958 31.6931C49.7556 31.7506 49.6866 31.7909 49.6061 31.7909C49.4796 31.7909 49.3761 31.6874 49.3761 31.5609V25.006H45.9262V36.2757H49.3761C49.8073 36.2527 50.2903 35.9365 50.4743 35.5455L53.2918 29.5024C53.286 29.4967 53.2918 29.4909 53.2918 29.4852Z" fill="white"/>
<path d="M40.413 29.6804L38.3948 36.2755H35.9109L33.8984 29.6746C33.8812 29.5711 33.7892 29.4906 33.6742 29.4906C33.5477 29.4906 33.4499 29.5941 33.4499 29.7149V36.2697H30V25H33.8409C34.4734 25 35.1404 25.4945 35.3244 26.0982L37.0033 31.5893C37.0896 31.8653 37.2218 31.8596 37.3081 31.5893L38.987 26.0982C39.171 25.4887 39.838 25 40.4705 25H44.3114V36.2697H40.8615V29.7149C40.8615 29.7149 40.8615 29.7149 40.8615 29.7091C40.8615 29.5826 40.758 29.4849 40.6373 29.4849C40.5223 29.4906 40.4303 29.5711 40.413 29.6804Z" fill="white"/>
</svg>
