<svg width="28" height="42" viewBox="0 0 28 42" fill="none" xmlns="http://www.w3.org/2000/svg">
<path d="M22.1425 2.0321H6.16556C3.88575 2.0321 2.0376 3.88026 2.0376 6.16007V35.8402C2.0376 38.12 3.88575 39.9681 6.16556 39.9681H22.1425C24.4223 39.9681 26.2705 38.12 26.2705 35.8402V6.16007C26.2705 3.88026 24.4223 2.0321 22.1425 2.0321Z" stroke="#47AAAF" stroke-width="3.46005"/>
<path d="M20.4634 5.94293H11.1938C10.3411 5.94293 9.6499 6.66232 9.6499 7.54972V7.55195C9.6499 8.43936 10.3411 9.15874 11.1938 9.15874H20.4634C21.316 9.15874 22.0072 8.43936 22.0072 7.55195V7.54972C22.0072 6.66232 21.316 5.94293 20.4634 5.94293Z" fill="#47AAAF"/>
<path d="M7.08851 5.94293H7.08628C6.19888 5.94293 5.47949 6.66232 5.47949 7.54972V7.55195C5.47949 8.43936 6.19888 9.15874 7.08628 9.15874H7.08851C7.97592 9.15874 8.6953 8.43936 8.6953 7.55195V7.54972C8.6953 6.66232 7.97592 5.94293 7.08851 5.94293Z" fill="#47AAAF"/>
<path d="M18.6098 33.129H9.34025C8.4876 33.129 7.79639 33.8754 7.79639 34.7961V34.7984C7.79639 35.7191 8.4876 36.4655 9.34025 36.4655H18.6098C19.4625 36.4655 20.1537 35.7191 20.1537 34.7984V34.7961C20.1537 33.8754 19.4625 33.129 18.6098 33.129Z" fill="#47AAAF"/>
</svg>
