<svg width="40" height="40" viewBox="0 0 40 40" fill="none" xmlns="http://www.w3.org/2000/svg">
<circle cx="20" cy="20" r="20" fill="#8331A7"/>
<path d="M29.2091 15.1998C28.8411 15.1998 28.54 15.5009 28.54 15.8689V24.5164H29.2091C29.5771 24.5164 29.8782 24.2154 29.8782 23.8474V15.1998H29.2091Z" fill="white"/>
<path d="M32.1466 15.1998C31.7786 15.1998 31.4775 15.5009 31.4775 15.8689V24.5164H32.1466C32.5146 24.5164 32.8157 24.2154 32.8157 23.8474V15.1998H32.1466Z" fill="white"/>
<path d="M16.8154 19.1976H19.4832C19.8512 19.1976 20.1523 18.8965 20.1523 18.5286V17.8595H16.8237C15.7365 17.8595 14.7664 18.3864 14.1559 19.1892C13.7377 19.7496 13.4868 20.4354 13.4868 21.1881C13.4868 21.9407 13.7377 22.6265 14.1559 23.1869C14.7664 23.9981 15.7282 24.5166 16.8237 24.5166H20.1523V23.8476C20.1523 23.4796 19.8512 23.1785 19.4832 23.1785H16.8154C15.7114 23.1785 14.8166 22.2836 14.8166 21.1797C14.8166 20.0925 15.7114 19.1976 16.8154 19.1976Z" fill="white"/>
<path d="M7.87462 15.1998C7.50664 15.1998 7.20557 15.5009 7.20557 15.8689V16.5379H10.5341V24.5332H11.2032C11.5712 24.5332 11.8722 24.2321 11.8722 23.8641V16.5379H14.5485C14.9164 16.5379 15.2175 16.2369 15.2175 15.8689V15.1998H7.87462Z" fill="white"/>
<path d="M23.9028 19.1976H26.5706C26.9386 19.1976 27.2397 18.8965 27.2397 18.5286V17.8595H23.9111C22.8239 17.8595 21.8538 18.3864 21.2433 19.1892C20.8251 19.7496 20.5742 20.4354 20.5742 21.1881C20.5742 21.9407 20.8251 22.6265 21.2433 23.1869C21.8538 23.9981 22.8156 24.5166 23.9111 24.5166H27.2397V23.8476C27.2397 23.4796 26.9386 23.1785 26.5706 23.1785H23.9028C23.0246 23.1785 22.2719 22.6098 22.0043 21.8153H26.0438V21.1964C26.0438 20.8452 25.7594 20.5524 25.3998 20.5524H22.0043C22.2803 19.7663 23.0246 19.1976 23.9028 19.1976Z" fill="white"/>
</svg>
