<svg width="40" height="40" viewBox="0 0 40 40" fill="none" xmlns="http://www.w3.org/2000/svg">
<path d="M22.4677 0.117676V20.7059C22.4677 21.6471 21.7618 22.353 20.8206 22.353H18.35C18.2324 22.353 18.1147 22.4706 18.1147 22.5883V39.8824C18.703 39.8824 19.2912 40.0001 19.9971 40.0001C31.0558 40.0001 39.997 31.0589 39.997 20C39.997 9.76474 32.35 1.29415 22.4677 0.117676ZM21.9971 30.9412C20.5853 30.9412 19.5265 29.7648 19.5265 28.4706C19.5265 27.0589 20.703 26 21.9971 26C23.4088 26 24.4676 27.1765 24.4676 28.4706C24.5853 29.7648 23.4088 30.9412 21.9971 30.9412ZM27.8794 30.9412C26.4676 30.9412 25.4088 29.7648 25.4088 28.4706C25.4088 27.0589 26.5853 26 27.8794 26C29.2912 26 30.35 27.1765 30.35 28.4706C30.35 29.7648 29.2912 30.9412 27.8794 30.9412ZM33.7617 30.9412C32.35 30.9412 31.2911 29.7648 31.2911 28.4706C31.2911 27.0589 32.4676 26 33.7617 26C35.1735 26 36.2323 27.1765 36.2323 28.4706C36.2323 29.7648 35.1735 30.9412 33.7617 30.9412Z" fill="#00985F"/>
<path d="M19.9999 0C8.94113 0 0 8.94119 0 20C0 29.6471 6.70584 37.6471 15.7646 39.5294V21.5294C15.7646 20.7059 16.4705 20 17.294 19.8824H19.7646C19.8822 19.8824 19.9999 19.7647 19.9999 19.6471V0ZM16.1176 16.4706C14.7058 16.4706 13.647 15.2941 13.647 14C13.647 12.5882 14.8234 11.5294 16.1176 11.5294C17.5293 11.5294 18.5881 12.7059 18.5881 14C18.5881 15.2941 17.5293 16.4706 16.1176 16.4706Z" fill="#00985F"/>
</svg>
