<svg width="170" height="176" viewBox="0 0 170 176" fill="none" xmlns="http://www.w3.org/2000/svg">
<g clip-path="url(#clip0_1_7114)">
<path d="M70.8767 144.641L49.8088 119.359V94.0774H91.9464V119.36L70.8767 144.641Z" fill="#E4B692"/>
<path d="M114.437 65.8977C114.437 67.5647 113.943 69.1942 113.017 70.5802C112.091 71.9662 110.774 73.0465 109.234 73.6844C107.694 74.3223 105.999 74.4893 104.365 74.164C102.73 73.8388 101.228 73.0361 100.049 71.8574C98.8704 70.6787 98.0677 69.1769 97.7425 67.542C97.4173 65.9071 97.5842 64.2125 98.2221 62.6724C98.86 61.1323 99.9403 59.816 101.326 58.8899C102.712 57.9638 104.342 57.4695 106.009 57.4695C107.116 57.469 108.212 57.6867 109.235 58.1101C110.257 58.5335 111.187 59.1543 111.97 59.937C112.752 60.7197 113.373 61.6491 113.796 62.6718C114.22 63.6946 114.438 64.7908 114.437 65.8977ZM38.59 65.8977C38.59 64.2308 38.0957 62.6013 37.1696 61.2152C36.2435 59.8292 34.9272 58.749 33.3871 58.1111C31.8471 57.4731 30.1524 57.3062 28.5175 57.6314C26.8826 57.9566 25.3808 58.7594 24.2021 59.9381C23.0234 61.1168 22.2207 62.6186 21.8955 64.2535C21.5703 65.8884 21.7372 67.583 22.3751 69.1231C23.013 70.6631 24.0933 71.9795 25.4793 72.9056C26.8653 73.8317 28.4948 74.326 30.1618 74.326C31.2686 74.326 32.3646 74.108 33.3871 73.6844C34.4097 73.2609 35.3388 72.64 36.1214 71.8574C36.9041 71.0748 37.5249 70.1456 37.9485 69.1231C38.372 68.1005 38.59 67.0046 38.59 65.8977Z" fill="#E4B692"/>
<path d="M108.497 37.9245C108.497 5.75242 32.6503 16.9787 32.6503 37.9245V67.4207C32.6158 72.4228 33.5713 77.3823 35.4617 82.0137C37.3521 86.645 40.1401 90.8565 43.665 94.4058C47.19 97.9551 51.3823 100.772 56.0005 102.694C60.6186 104.616 65.5715 105.606 70.5738 105.606C75.576 105.606 80.5289 104.616 85.147 102.694C89.7652 100.772 93.9575 97.9551 97.4825 94.4058C101.007 90.8565 103.795 86.645 105.686 82.0137C107.576 77.3823 108.532 72.4228 108.497 67.4207V37.9245Z" fill="#F1C9A5"/>
<path d="M70.4515 0C44.8525 0 28.3139 20.7572 28.3139 46.3509V55.9788L36.7421 63.2056V42.1376L87.3098 25.2829L104.165 42.1376V63.2056L112.593 55.8656V46.3473C112.593 29.3866 108.218 12.5696 87.3098 8.42285L83.093 0H70.4515Z" fill="#1B1B1B"/>
<path d="M70.8767 171.785L49.8088 121.221L70.8767 125.434L91.9446 121.221L70.8767 171.785Z" fill="white"/>
<path d="M66.8075 138.077L63.9969 156.891L71.0207 173.746L78.0446 156.891L75.234 138.077L79.4472 133.864L71.019 125.436L62.5907 133.864L66.8075 138.077Z" fill="#A91B1B"/>
<path d="M89.1621 121.221L68.0942 171.785L47.0244 121.221C47.0244 121.221 0.673584 129.59 0.673584 176H135.513C135.513 129.753 89.1621 121.221 89.1621 121.221Z" fill="#3C7C85"/>
<g clip-path="url(#clip1_1_7114)">
<path d="M100.27 127.515H162.754C163.447 127.515 164.112 127.79 164.602 128.281C165.093 128.771 165.368 129.436 165.368 130.129V165.946C165.368 166.639 165.093 167.304 164.602 167.794C164.112 168.285 163.447 168.56 162.754 168.56H100.27C99.577 168.56 98.9121 168.285 98.4219 167.794C97.9317 167.304 97.6562 166.639 97.6562 165.946V130.129C97.6562 129.436 97.9317 128.771 98.4219 128.281C98.9121 127.79 99.577 127.515 100.27 127.515Z" fill="#E3D6D6"/>
<path d="M111.435 157.467L108.6 154.065V150.663H114.27V154.065L111.435 157.467Z" fill="#B6ACAD"/>
<path d="M117.678 147.261C117.678 147.888 117.17 148.395 116.544 148.395C115.917 148.395 115.411 147.888 115.411 147.261C115.411 146.634 115.917 146.127 116.544 146.127C117.17 146.127 117.678 146.634 117.678 147.261ZM107.472 147.261C107.472 146.634 106.964 146.127 106.338 146.127C105.711 146.127 105.205 146.634 105.205 147.261C105.205 147.888 105.711 148.395 106.338 148.395C106.964 148.395 107.472 147.888 107.472 147.261Z" fill="#B6ACAD"/>
<path d="M116.533 143.859C116.533 139.53 106.327 141.04 106.327 143.859V147.828C106.327 150.646 108.611 152.931 111.43 152.931C114.248 152.931 116.533 150.646 116.533 147.828V143.859Z" fill="#C7BABC"/>
<path d="M111.422 138.756C107.977 138.756 105.752 141.549 105.752 144.993V146.289L106.886 147.261V144.426L113.69 142.158L115.958 144.426V147.261L117.092 146.273V144.993C117.092 142.711 116.503 140.448 113.69 139.89L113.123 138.756H111.422Z" fill="#321F49"/>
<path d="M111.435 160.869L108.6 154.065L111.435 154.632L114.27 154.065L111.435 160.869Z" fill="white"/>
<path d="M110.865 156.333L110.487 158.864L111.432 161.132L112.377 158.864L111.999 156.333L112.566 155.766L111.432 154.632L110.298 155.766L110.865 156.333Z" fill="#321F49"/>
<path d="M114.263 154.065L111.428 160.869L108.593 154.065C108.593 154.065 102.357 155.191 102.357 161.436H120.5C120.5 155.213 114.263 154.065 114.263 154.065Z" fill="#7C707A"/>
<path d="M145.251 164.288C145.327 164.043 145.455 163.65 145.515 163.388C145.592 163.05 145.5 163.135 145.394 163.379C145.206 163.811 145.071 164.271 144.963 164.728C144.874 165.099 144.764 165.525 144.782 165.911C144.794 166.179 144.969 165.918 145.023 165.836C145.288 165.431 145.502 164.979 145.715 164.547C146.134 163.698 146.511 162.824 146.789 161.918C146.824 161.808 146.84 161.659 146.832 161.866C146.813 162.334 146.712 162.805 146.644 163.267C146.573 163.746 146.446 164.19 146.318 164.654C146.258 164.873 146.232 164.986 146.322 164.689C146.411 164.395 146.536 164.104 146.591 163.799C146.641 163.52 146.402 164.336 146.334 164.612C146.302 164.745 146.211 165.136 146.422 164.834C146.516 164.699 146.612 164.216 146.612 164.38C146.612 164.423 146.495 164.841 146.619 164.735C146.828 164.557 147.014 164.252 147.129 164.007C147.142 163.98 147.297 163.496 147.249 163.525C147.14 163.593 147.042 164.057 147.089 164.174C147.093 164.186 147.211 164.043 147.224 164.025C147.235 164.009 147.244 163.946 147.263 163.96C147.603 164.203 148.235 163.362 148.376 163.124C148.419 163.051 148.806 162.094 148.409 162.421C148.146 162.638 147.941 162.977 147.741 163.248C147.041 164.194 146.451 165.227 145.856 166.24C145.607 166.664 145.365 167.092 145.119 167.517C145.106 167.539 145.023 167.767 144.952 167.661C144.75 167.361 144.614 167.035 144.375 166.754C144.207 166.556 144.019 166.402 143.808 166.255C143.771 166.228 143.665 166.209 143.697 166.177C143.771 166.104 143.891 166.097 143.992 166.073C144.325 165.994 144.662 165.932 144.998 165.868C147.686 165.35 150.446 164.996 153.069 164.186C153.412 164.08 153.822 163.964 154.14 163.78C154.183 163.756 154.045 163.81 154.001 163.831C153.877 163.892 153.76 163.97 153.639 164.035" stroke="black" stroke-width="0.163843"/>
<path d="M97.6562 135.619L165.368 135.88" stroke="#A4A4A4" stroke-width="0.261436"/>
<path d="M116.478 130.477V132.83C116.478 132.83 115.389 133.091 114.474 133.048C114.1 133.03 113.852 132.969 113.598 132.907C113.271 132.826 112.818 132.742 112.295 132.742C111.772 132.742 111.428 132.841 111.042 132.937C110.499 133.071 109.932 133.2 109.245 133.048C108.069 132.786 107.197 132.786 107.197 132.786C107.197 132.786 107.224 132.67 107.269 132.347C107.303 132.144 107.324 131.927 107.328 131.7C107.359 131.337 107.343 130.825 107.302 130.521C107.302 130.521 108.112 130.433 109.289 130.695C109.976 130.848 110.499 130.718 111.042 130.584C111.428 130.488 111.824 130.39 112.295 130.39C112.932 130.39 113.271 130.473 113.598 130.554C113.852 130.616 114.1 130.677 114.474 130.695C115.389 130.738 116.478 130.477 116.478 130.477Z" fill="white"/>
<path d="M106.72 129.129C106.72 129.129 107.464 128.997 109.258 129.434C109.934 129.551 110.467 129.419 111.004 129.286C111.406 129.187 111.81 129.087 112.279 129.091C112.429 129.092 112.522 129.088 112.595 129.086C112.639 129.084 112.675 129.083 112.711 129.083C112.875 129.084 113.039 129.115 113.947 129.286C114.098 129.315 114.271 129.347 114.467 129.384C115.598 129.485 116.48 129.174 116.48 129.174V130.536C116.48 130.536 115.386 130.8 114.467 130.756C114.091 130.738 113.843 130.677 113.587 130.613C113.259 130.532 112.918 130.448 112.279 130.448C111.805 130.448 111.408 130.547 111.019 130.644C110.475 130.78 109.949 130.91 109.258 130.756C108.077 130.492 107.262 130.58 107.262 130.58C107.127 129.593 106.72 129.129 106.72 129.129Z" fill="#CF3B3B"/>
<path d="M114.468 133.048C115.383 133.091 116.472 132.83 116.472 132.83V134.27C116.472 134.27 115.906 134.469 114.468 134.4C114.198 134.386 113.978 134.348 113.74 134.306C113.377 134.243 112.972 134.173 112.289 134.173C111.751 134.173 111.358 134.251 110.974 134.327C110.486 134.424 110.014 134.517 109.282 134.444C107.322 133.834 106.538 134.183 106.538 134.183C106.538 134.183 106.94 133.649 107.169 132.786C107.169 132.786 108.106 132.786 109.282 133.048C109.97 133.2 110.493 133.071 111.035 132.937C111.422 132.841 111.818 132.742 112.289 132.742C112.925 132.742 113.265 132.826 113.592 132.907C113.847 132.969 114.094 133.03 114.468 133.048Z" fill="#349C51"/>
<path d="M123.01 138.233H141.833V139.541H123.01V138.233Z" fill="#403148"/>
<path d="M123.01 140.063H141.833V141.371H123.01V140.063Z" fill="#403148"/>
<path d="M123.01 143.462H141.833V144.768H123.01V143.462Z" fill="#403148"/>
<path d="M123.01 145.292H141.833V146.599H123.01V145.292Z" fill="#403148"/>
<path d="M123.01 148.691H141.833V149.998H123.01V148.691Z" fill="#403148"/>
<path d="M123.01 155.226H125.363V156.533H123.01V155.226Z" fill="#403148"/>
<path d="M123.01 160.194H133.99V161.501H123.01V160.194Z" fill="#403148"/>
<path d="M100.533 163.854H112.82V165.161H100.533V163.854Z" fill="#403148"/>
<path d="M136.872 160.194H144.715V161.501H136.872V160.194Z" fill="#403148"/>
<path d="M149.948 160.194H161.19V161.501H149.948V160.194Z" fill="#403148"/>
<path d="M127.99 155.226H134.003V156.533H127.99V155.226Z" fill="#403148"/>
<path d="M136.872 155.226H144.715V156.533H136.872V155.226Z" fill="#403148"/>
<path d="M149.948 155.226H155.961V156.533H149.948V155.226Z" fill="#403148"/>
<path d="M123.01 150.521H141.833V151.828H123.01V150.521Z" fill="#403148"/>
</g>
<path d="M154.999 116.201C154.263 115.502 153.316 115.067 152.305 114.966C151.162 114.868 150.017 115.142 149.042 115.749C148.677 115.965 148.268 116.098 147.846 116.138C147.423 116.178 146.997 116.123 146.598 115.979C145.916 115.742 145.209 115.589 144.491 115.521C143.623 115.475 142.771 115.765 142.112 116.332C141.601 116.798 141.189 117.36 140.901 117.988C140.612 118.615 140.452 119.293 140.431 119.984C140.237 123.743 140.336 127.512 140.727 131.257L140.781 131.937C140.802 132.964 141.163 133.955 141.808 134.755C142.261 135.267 142.891 135.588 143.572 135.653C144.317 135.727 145.064 135.543 145.691 135.134C146.255 134.742 146.662 134.163 146.838 133.5C146.798 133.225 146.792 132.946 146.819 132.67L147.641 123.992C147.654 123.843 147.678 123.694 147.713 123.549C147.726 123.495 147.743 123.443 147.765 123.392C147.777 123.366 147.792 123.34 147.81 123.317C147.84 123.275 147.881 123.242 147.929 123.222C147.971 123.204 148.017 123.197 148.062 123.203C148.108 123.209 148.151 123.226 148.187 123.254C148.228 123.286 148.26 123.329 148.279 123.378C148.299 123.436 148.311 123.496 148.313 123.557C148.32 123.725 148.314 123.893 148.295 124.06L147.472 132.738C147.448 133.006 147.402 133.27 147.334 133.53C147.488 134.264 147.906 134.915 148.51 135.358C149.211 135.9 150.045 136.245 150.924 136.355C151.728 136.417 152.532 136.229 153.225 135.816C153.828 135.458 154.284 134.896 154.509 134.231C154.482 133.955 154.482 133.678 154.509 133.403L155.331 124.725C155.344 124.575 155.368 124.427 155.403 124.281C155.416 124.228 155.434 124.175 155.455 124.125C155.467 124.098 155.482 124.073 155.498 124.05C155.529 124.008 155.57 123.975 155.617 123.954C155.659 123.936 155.705 123.93 155.751 123.936C155.796 123.941 155.839 123.959 155.876 123.987C155.917 124.019 155.948 124.062 155.967 124.111C155.988 124.168 155.999 124.229 156.001 124.29C156.009 124.458 156.004 124.626 155.985 124.793L155.163 133.471C155.137 133.747 155.084 134.021 155.003 134.286C155.085 134.943 155.382 135.554 155.849 136.023C156.421 136.591 157.171 136.944 157.973 137.025C158.599 137.067 159.22 136.9 159.74 136.55C160.261 136.201 160.65 135.688 160.847 135.093C160.84 134.934 160.844 134.776 160.859 134.619L161.617 126.618C161.63 126.468 161.654 126.32 161.689 126.174C161.702 126.121 161.719 126.07 161.741 126.02C161.753 125.992 161.768 125.967 161.786 125.942C161.817 125.9 161.859 125.867 161.908 125.847C161.95 125.83 161.996 125.824 162.041 125.831C162.086 125.837 162.129 125.855 162.165 125.883C162.205 125.916 162.236 125.959 162.255 126.007C162.275 126.065 162.287 126.125 162.289 126.187C162.296 126.355 162.29 126.523 162.271 126.69L161.57 134.085C161.536 134.452 161.458 134.814 161.337 135.163C161.365 135.52 161.476 135.867 161.661 136.174C161.846 136.481 162.101 136.741 162.404 136.933C162.997 137.321 163.674 137.561 164.379 137.636C164.924 137.706 165.475 137.573 165.927 137.262C166.263 136.967 166.531 136.602 166.714 136.194C166.896 135.785 166.988 135.342 166.983 134.895L167.939 124.811C168.057 124.288 168.067 123.746 167.969 123.219C167.871 122.692 167.667 122.19 167.369 121.744C167.071 121.299 166.685 120.918 166.236 120.626C165.786 120.334 165.281 120.137 164.753 120.046C164.496 120.022 164.237 120.016 163.979 120.03C163.457 120.064 162.936 119.952 162.473 119.709C162.01 119.466 161.623 119.1 161.355 118.651C161.079 118.147 160.68 117.72 160.196 117.409C159.712 117.099 159.157 116.915 158.584 116.875C158.154 116.835 157.721 116.849 157.294 116.914C156.883 116.975 156.463 116.943 156.066 116.819C155.668 116.696 155.304 116.485 154.999 116.201Z" fill="#F1C9A5" stroke="#E4B692" stroke-width="2.62922"/>
</g>
<defs>
<clipPath id="clip0_1_7114">
<rect width="168.653" height="176" fill="white" transform="translate(0.673584)"/>
</clipPath>
<clipPath id="clip1_1_7114">
<rect width="68.2449" height="41.0536" fill="white" transform="translate(97.6532 127.51)"/>
</clipPath>
</defs>
</svg>
