<svg width="270" height="164" viewBox="0 0 270 164" fill="none" xmlns="http://www.w3.org/2000/svg">
<path d="M10.4814 0.20459H259.519C262.282 0.20459 264.932 1.30229 266.886 3.25621C268.84 5.21012 269.937 7.86021 269.937 10.6235V153.377C269.937 156.14 268.84 158.79 266.886 160.744C264.932 162.698 262.282 163.796 259.519 163.796H10.4814C7.71812 163.796 5.06804 162.698 3.11412 160.744C1.1602 158.79 0.0625 156.14 0.0625 153.377V10.6235C0.0625 7.86021 1.1602 5.21012 3.11412 3.25621C5.06804 1.30229 7.71812 0.20459 10.4814 0.20459Z" fill="#E3D6D6"/>
<path d="M54.9673 119.586L43.6665 106.026V92.4665H66.2659V106.026L54.9673 119.586Z" fill="#B6ACAD"/>
<path d="M79.8292 78.9065C79.8292 81.4077 77.804 83.4264 75.3093 83.4264C72.8103 83.4264 70.7915 81.4077 70.7915 78.9065C70.7915 76.4097 72.8103 74.3867 75.3093 74.3867C77.804 74.3867 79.8292 76.4097 79.8292 78.9065ZM39.1524 78.9065C39.1524 76.4097 37.1273 74.3867 34.6325 74.3867C32.1335 74.3867 30.1148 76.4097 30.1148 78.9065C30.1148 81.4077 32.1335 83.4264 34.6325 83.4264C37.1273 83.4264 39.1524 81.4077 39.1524 78.9065Z" fill="#B6ACAD"/>
<path d="M75.3009 65.3491C75.3009 48.0941 34.6242 54.1142 34.6242 65.3491V81.1676C34.6242 92.4004 43.7256 101.506 54.9626 101.506C66.1953 101.506 75.3009 92.4004 75.3009 81.1676V65.3491Z" fill="#C7BABC"/>
<path d="M54.9628 45.0103C41.2353 45.0103 32.3656 56.1411 32.3656 69.8686V75.0323L36.8854 78.9062V67.6076L64.0026 58.5678L73.0423 67.6076V78.9062L77.5622 74.9707V69.8686C77.5622 60.7714 75.2162 51.7529 64.0026 49.5302L61.7437 45.0103H54.9628Z" fill="#321F49"/>
<path d="M54.9673 133.142L43.6665 106.026L54.9673 108.284L66.2659 106.026L54.9673 133.142Z" fill="white"/>
<path d="M52.7013 115.066L51.1947 125.155L54.9623 134.195L58.7299 125.155L57.2212 115.066L59.4822 112.805L54.9623 108.285L50.4424 112.805L52.7013 115.066Z" fill="#321F49"/>
<path d="M66.2693 106.025L54.9707 133.142L43.6721 106.025C43.6721 106.025 18.8138 110.513 18.8138 135.401H91.1276C91.1276 110.6 66.2693 106.025 66.2693 106.025Z" fill="#7C707A"/>
<path d="M75.0983 12.0134V21.3911C75.0983 21.3911 70.7569 22.4323 67.1083 22.2602C65.6186 22.1879 64.6326 21.9457 63.6169 21.6971C62.3164 21.3762 60.5101 21.0426 58.4255 21.0426C56.3409 21.0426 54.9703 21.4336 53.4296 21.8161C51.2685 22.3516 49.0075 22.8679 46.2705 22.2602C41.5806 21.2168 38.1063 21.2168 38.1063 21.2168C38.1063 21.2168 38.2125 20.7536 38.3931 19.4679C38.527 18.6562 38.612 17.7934 38.629 16.8861C38.7522 15.4411 38.6885 13.4011 38.5228 12.1877C38.5228 12.1877 41.7549 11.8392 46.4426 12.8804C49.1817 13.4903 51.2685 12.9739 53.4296 12.4384C54.9703 12.0559 56.547 11.6649 58.4255 11.6649C60.9627 11.6649 62.3164 11.9986 63.6169 12.3194C64.6326 12.5681 65.6186 12.8103 67.1083 12.8804C70.7569 13.0547 75.0983 12.0134 75.0983 12.0134Z" fill="white"/>
<path d="M36.1927 6.64136C36.1927 6.64136 39.1592 6.11436 46.3098 7.85474C49.0022 8.32011 51.1272 7.79524 53.2671 7.26611C54.8693 6.86874 56.4801 6.47136 58.3479 6.48624C58.9451 6.49049 59.3191 6.47561 59.6081 6.46711C59.7823 6.46074 59.9268 6.45436 60.0713 6.45649C60.7258 6.45861 61.3782 6.58186 64.9971 7.26399C65.6006 7.37874 66.2869 7.50836 67.0689 7.65498C71.5782 8.05661 75.0929 6.81774 75.0929 6.81774V12.2471C75.0929 12.2471 70.7324 13.3011 67.0689 13.1247C65.5708 13.0525 64.5827 12.8081 63.5627 12.5552C62.2537 12.2322 60.8958 11.8965 58.3479 11.8965C56.4609 11.8965 54.8757 12.2917 53.3287 12.6764C51.1569 13.2182 49.0617 13.7389 46.3098 13.1247C41.6008 12.0729 38.3538 12.4235 38.3538 12.4235C37.8141 8.49011 36.1927 6.64136 36.1927 6.64136Z" fill="#CF3B3B"/>
<path d="M67.0863 22.2604C70.7328 22.4325 75.0741 21.3913 75.0741 21.3913V27.1309C75.0741 27.1309 72.8174 27.9235 67.0863 27.6473C66.011 27.5942 65.1334 27.4412 64.1835 27.2754C62.7385 27.0247 61.1256 26.7442 58.4014 26.7442C56.2594 26.7442 54.6911 27.0544 53.159 27.3583C51.2146 27.745 49.334 28.1169 46.4185 27.8258C38.6049 25.3948 35.479 26.7845 35.479 26.7845C35.479 26.7845 37.0834 24.6553 37.995 21.217C37.995 21.217 41.7308 21.217 46.4185 22.2604C49.1576 22.8682 51.2444 22.3518 53.4055 21.8163C54.9461 21.4338 56.525 21.0428 58.4014 21.0428C60.9386 21.0428 62.2923 21.3764 63.5949 21.6973C64.6106 21.9459 65.5945 22.1882 67.0863 22.2604Z" fill="#349C51"/>
<path d="M101.136 42.9264H176.159V48.1369H101.136V42.9264Z" fill="#403148"/>
<path d="M101.136 50.2187H176.159V55.4292H101.136V50.2187Z" fill="#403148"/>
<path d="M101.136 63.7658H176.159V68.9742H101.136V63.7658Z" fill="#403148"/>
<path d="M101.136 71.059H176.159V76.2695H101.136V71.059Z" fill="#403148"/>
<path d="M101.136 84.6059H176.159V89.8164H101.136V84.6059Z" fill="#403148"/>
<path d="M101.136 110.654H110.516V115.864H101.136V110.654Z" fill="#403148"/>
<path d="M101.136 130.453H144.9V135.663H101.136V130.453Z" fill="#403148"/>
<path d="M11.536 145.041H60.5088V150.251H11.536V145.041Z" fill="#403148"/>
<path d="M156.363 130.453H187.621V135.663H156.363V130.453Z" fill="#403148"/>
<path d="M208.46 130.453H253.266V135.663H208.46V130.453Z" fill="#403148"/>
<path d="M120.946 110.654H144.912V115.864H120.946V110.654Z" fill="#403148"/>
<path d="M156.363 110.654H187.621V115.864H156.363V110.654Z" fill="#403148"/>
<path d="M208.46 110.654H232.426V115.864H208.46V110.654Z" fill="#403148"/>
<path d="M101.136 91.8986H176.159V97.1091H101.136V91.8986Z" fill="#403148"/>
</svg>
