<svg width="242" height="168" viewBox="0 0 242 168" fill="none" xmlns="http://www.w3.org/2000/svg">
<g clip-path="url(#clip0_1_6751)">
<path d="M0.917969 167.831V0.169189H241.082V167.831H0.917969Z" fill="#E5D0BF"/>
<path d="M121 167.831V0.169189" stroke="#403148" stroke-width="1.13285"/>
<path d="M121.002 26.2249H31.5065" stroke="#403148" stroke-width="1.13285"/>
<path d="M63.2255 126.198C69.4391 126.198 75.0513 127.711 79.1001 130.14C83.1557 132.573 85.5992 135.895 85.5992 139.509C85.5992 143.124 83.1557 146.446 79.1001 148.879C75.0513 151.308 69.4391 152.82 63.2255 152.82C57.0118 152.82 51.3996 151.308 47.3497 148.879C43.2952 146.446 40.8517 143.124 40.8517 139.509C40.8517 135.895 43.2952 132.573 47.3497 130.14C51.3996 127.711 57.0118 126.198 63.2255 126.198Z" fill="#F3C3D3" stroke="#CCA0A1" stroke-width="0.566425"/>
<path d="M179.904 126.198C186.117 126.198 191.729 127.711 195.779 130.14C199.834 132.573 202.277 135.895 202.277 139.509C202.277 143.124 199.834 146.446 195.779 148.879C191.729 151.308 186.117 152.82 179.904 152.82C173.69 152.82 168.078 151.308 164.028 148.879C159.973 146.446 157.53 143.124 157.53 139.509C157.53 135.895 159.973 132.573 164.028 130.14C168.078 127.711 173.69 126.198 179.904 126.198Z" fill="#F3C3D3" stroke="#CCA0A1" stroke-width="0.566425"/>
<path d="M169.63 146.409L169.685 146.481L169.774 146.477C171.132 146.41 172.434 146.377 173.679 146.377C173.816 146.377 174.411 146.387 175.467 146.406C176.527 146.433 177.09 146.45 177.17 146.456H177.174L177.513 146.477L177.583 146.48L177.636 146.432L177.736 146.343L177.774 146.308L177.787 146.257L177.916 145.719L177.935 145.639L177.885 145.575L177.815 145.485L177.764 145.42H177.681C177.347 145.42 176.892 145.407 176.316 145.38C176.035 145.364 175.812 145.339 175.645 145.309C175.472 145.276 175.382 145.241 175.343 145.213C175.262 145.151 175.203 145.037 175.203 144.823C175.203 144.528 175.27 144.011 175.409 143.262V143.259L176.415 137.575C176.941 134.522 177.248 132.84 177.337 132.512L177.368 132.401L177.276 132.332L176.908 132.052L176.807 131.976L176.705 132.051C176.452 132.235 175.826 132.54 174.798 132.967C173.793 133.381 172.437 133.81 170.729 134.254L170.631 134.279L170.607 134.378L170.268 135.742L170.242 135.845L170.325 135.913L170.504 136.062L170.585 136.13L170.683 136.086L173.031 135.021C173.032 135.021 173.032 135.021 173.032 135.021C173.424 134.846 173.732 134.704 173.958 134.596C174.008 134.574 174.053 134.551 174.095 134.531C174.037 134.919 173.923 135.607 173.75 136.599L172.954 141.21C172.615 143.149 172.388 144.324 172.271 144.747C172.214 144.942 172.151 145.062 172.091 145.126C172.024 145.199 171.967 145.234 171.924 145.249C171.803 145.286 171.582 145.32 171.248 145.348C170.916 145.377 170.483 145.397 169.951 145.409L169.893 145.412L169.848 145.448L169.738 145.537L169.695 145.574L169.681 145.628L169.541 146.185L169.521 146.265L169.57 146.329L169.63 146.409ZM180.845 146.409L180.9 146.481L180.989 146.477C182.348 146.41 183.649 146.377 184.894 146.377C185.031 146.377 185.626 146.387 186.682 146.406C187.742 146.433 188.305 146.45 188.386 146.456H188.389L188.728 146.477L188.798 146.48L188.851 146.432L188.951 146.343L188.989 146.308L189.002 146.257L189.131 145.719L189.15 145.639L189.101 145.575L189.03 145.485L188.979 145.42H188.897C188.562 145.42 188.107 145.407 187.532 145.38C187.251 145.364 187.027 145.339 186.86 145.309C186.688 145.276 186.597 145.241 186.558 145.213C186.477 145.151 186.418 145.037 186.418 144.823C186.418 144.528 186.485 144.011 186.624 143.262V143.259L187.63 137.575C188.156 134.522 188.463 132.84 188.552 132.512L188.583 132.401L188.491 132.332L188.123 132.052L188.022 131.976L187.92 132.051C187.667 132.235 187.041 132.54 186.014 132.967C185.009 133.381 183.653 133.81 181.944 134.254L181.846 134.279L181.822 134.378L181.483 135.742L181.457 135.845L181.54 135.913L181.719 136.062L181.8 136.13L181.898 136.086L184.246 135.021C184.638 134.846 184.947 134.704 185.173 134.596C185.223 134.574 185.268 134.551 185.31 134.531C185.252 134.919 185.138 135.607 184.966 136.599L184.169 141.21C183.83 143.149 183.603 144.324 183.486 144.747C183.429 144.942 183.366 145.062 183.306 145.126C183.239 145.199 183.183 145.234 183.139 145.249C183.018 145.286 182.797 145.32 182.463 145.348C182.131 145.377 181.698 145.397 181.166 145.409L181.108 145.412L181.063 145.448L180.953 145.537L180.91 145.574L180.896 145.628L180.756 146.185L180.737 146.265L180.785 146.329L180.845 146.409Z" fill="#F3C3D3" stroke="white" stroke-width="0.339855"/>
<path d="M72.3239 142.803C72.7079 141.959 73.007 141.007 73.2211 139.948C73.4363 138.89 73.5439 137.883 73.5439 136.928C73.5439 136.195 73.476 135.535 73.34 134.949C73.212 134.363 73.0523 133.877 72.8586 133.495C72.6648 133.109 72.4269 132.786 72.1437 132.53C71.8673 132.275 71.5275 132.07 71.1276 131.912C70.7197 131.743 70.2655 131.66 69.7693 131.66C68.0258 131.66 66.6528 132.679 65.6457 134.64C64.642 136.591 64.1436 138.83 64.1436 141.348C64.1436 142.441 64.2738 143.35 64.5423 144.066C64.8108 144.782 65.2186 145.365 65.7692 145.812L65.7703 145.813C66.33 146.258 67.0221 146.477 67.8378 146.477C68.4574 146.477 69.0273 146.355 69.5427 146.112C70.0684 145.867 70.5679 145.461 71.0437 144.903C71.5207 144.338 71.9466 143.637 72.3239 142.803ZM52.9521 146.08L53.0054 146.153L53.096 146.148C54.4543 146.081 55.7559 146.048 57.0009 146.048C57.138 146.048 57.7328 146.059 58.7897 146.078C59.8489 146.105 60.4119 146.121 60.4924 146.128H60.4958L60.8345 146.148L60.9047 146.152L60.958 146.104L61.0577 146.015L61.0962 145.979L61.1086 145.928L61.2378 145.39L61.2571 145.311L61.2072 145.246L61.137 145.157L61.086 145.091H61.0033C60.6691 145.091 60.2137 145.079 59.6382 145.052C59.3573 145.036 59.133 145.011 58.9664 144.98C58.7942 144.947 58.7036 144.912 58.6651 144.885C58.5835 144.823 58.5246 144.708 58.5246 144.494C58.5246 144.2 58.5915 143.683 58.7308 142.933V142.931L59.7368 137.246C60.2624 134.193 60.5694 132.511 60.6589 132.184L60.6895 132.073L60.5977 132.003L60.2296 131.724L60.1287 131.648L60.0268 131.722C59.7742 131.907 59.1477 132.212 58.1202 132.639C57.1154 133.052 55.7593 133.482 54.051 133.926L53.9524 133.951L53.9286 134.049L53.5899 135.413L53.5639 135.516L53.6466 135.584L53.8256 135.734L53.9071 135.802L54.0046 135.758L56.3541 134.693C56.746 134.517 57.0542 134.376 57.2808 134.268C57.3295 134.245 57.3748 134.223 57.4167 134.202C57.3601 134.591 57.2445 135.278 57.0723 136.271L56.2759 140.882C55.9372 142.821 55.7095 143.996 55.5928 144.418C55.5362 144.613 55.4727 144.733 55.4127 144.797C55.3458 144.869 55.2892 144.905 55.2462 144.92C55.1249 144.958 54.904 144.992 54.5698 145.02C54.2379 145.048 53.8052 145.069 53.2727 145.081L53.215 145.083L53.1696 145.12L53.0598 145.209L53.0167 145.245L53.0031 145.3L52.8626 145.857L52.8434 145.936L52.8921 146.001L52.9521 146.08ZM70.5487 133.207L70.5498 133.208C70.756 133.476 70.8738 133.907 70.8738 134.529C70.8738 135.412 70.7685 136.585 70.5566 138.048C70.3448 139.511 70.1001 140.814 69.8237 141.956C69.5438 143.104 69.3116 143.88 69.1258 144.296C68.9389 144.715 68.7395 144.986 68.5345 145.133C68.334 145.277 68.1006 145.351 67.8276 145.351C67.4923 145.351 67.2487 145.219 67.0754 144.952C66.8998 144.665 66.8024 144.234 66.8024 143.639C66.8024 142.837 66.859 141.967 66.9711 141.031C67.0901 140.086 67.2646 138.998 67.4968 137.766C67.7347 136.534 67.9601 135.579 68.1697 134.897C68.3804 134.209 68.5741 133.738 68.7463 133.466C68.9321 133.184 69.102 133.015 69.2516 132.936L69.2561 132.933C69.417 132.842 69.5869 132.796 69.7693 132.796C70.0831 132.796 70.3402 132.927 70.5487 133.207Z" fill="#F3C3D3"/>
<path d="M72.3239 142.803C72.7079 141.959 73.007 141.007 73.2211 139.948C73.4363 138.89 73.5439 137.883 73.5439 136.928C73.5439 136.195 73.476 135.535 73.34 134.949C73.212 134.363 73.0523 133.877 72.8586 133.495C72.6648 133.109 72.4269 132.786 72.1437 132.53C71.8673 132.275 71.5275 132.07 71.1276 131.912C70.7197 131.743 70.2655 131.66 69.7693 131.66C68.0258 131.66 66.6528 132.679 65.6457 134.64C64.642 136.591 64.1436 138.83 64.1436 141.348C64.1436 142.441 64.2738 143.35 64.5423 144.066C64.8108 144.782 65.2186 145.365 65.7692 145.812L65.7703 145.813C66.33 146.258 67.0221 146.477 67.8378 146.477C68.4574 146.477 69.0273 146.355 69.5427 146.112C70.0684 145.867 70.5679 145.461 71.0437 144.903C71.5207 144.338 71.9466 143.637 72.3239 142.803ZM72.3239 142.803L72.1687 142.733M52.9521 146.08L53.0054 146.153L53.096 146.148C54.4543 146.081 55.7559 146.048 57.0009 146.048C57.138 146.048 57.7328 146.059 58.7897 146.078C59.8489 146.105 60.4119 146.121 60.4924 146.128H60.4958L60.8345 146.148L60.9047 146.152L60.958 146.104L61.0577 146.015L61.0962 145.979L61.1086 145.928L61.2378 145.39L61.2571 145.311L61.2072 145.246L61.137 145.157L61.086 145.091H61.0033C60.6691 145.091 60.2137 145.079 59.6382 145.052C59.3573 145.036 59.133 145.011 58.9664 144.98C58.7942 144.947 58.7036 144.912 58.6651 144.885C58.5835 144.823 58.5246 144.708 58.5246 144.494C58.5246 144.2 58.5915 143.683 58.7308 142.933V142.931L59.7368 137.246C60.2624 134.193 60.5694 132.511 60.6589 132.184L60.6895 132.073L60.5977 132.003L60.2296 131.724L60.1287 131.648L60.0268 131.722C59.7742 131.907 59.1477 132.212 58.1202 132.639C57.1154 133.052 55.7593 133.482 54.051 133.926L53.9524 133.951L53.9286 134.049L53.5899 135.413L53.5639 135.516L53.6466 135.584L53.8256 135.734L53.9071 135.802L54.0046 135.758L56.3541 134.693C56.746 134.517 57.0542 134.376 57.2808 134.268C57.3295 134.245 57.3748 134.223 57.4167 134.202C57.3601 134.591 57.2445 135.278 57.0723 136.271L56.2759 140.882C55.9372 142.821 55.7095 143.996 55.5928 144.418C55.5362 144.613 55.4727 144.733 55.4127 144.797C55.3458 144.869 55.2892 144.905 55.2462 144.92C55.1249 144.958 54.904 144.992 54.5698 145.02C54.2379 145.048 53.8052 145.069 53.2727 145.081L53.215 145.083L53.1696 145.12L53.0598 145.209L53.0167 145.245L53.0031 145.3L52.8626 145.857L52.8434 145.936L52.8921 146.001L52.9521 146.08ZM70.5487 133.207L70.5498 133.208C70.756 133.476 70.8738 133.907 70.8738 134.529C70.8738 135.412 70.7685 136.585 70.5566 138.048C70.3448 139.511 70.1001 140.814 69.8237 141.956C69.5438 143.104 69.3116 143.88 69.1258 144.296C68.9389 144.715 68.7395 144.986 68.5345 145.133C68.334 145.277 68.1006 145.351 67.8276 145.351C67.4923 145.351 67.2487 145.219 67.0754 144.952C66.8998 144.665 66.8024 144.234 66.8024 143.639C66.8024 142.837 66.859 141.967 66.9711 141.031C67.0901 140.086 67.2646 138.998 67.4968 137.766C67.7347 136.534 67.9601 135.579 68.1697 134.897C68.3804 134.209 68.5741 133.738 68.7463 133.466C68.9321 133.184 69.102 133.015 69.2516 132.936L69.2561 132.933C69.417 132.842 69.5869 132.796 69.7693 132.796C70.0831 132.796 70.3402 132.927 70.5487 133.207Z" stroke="white" stroke-width="0.339855"/>
<path d="M148.727 42.4801L221.5 51.9621L221.633 50.9436L148.86 41.4628L148.727 42.4801ZM147.998 48.0787L220.771 57.5595L220.903 56.5422L148.13 47.0602L147.998 48.0787ZM145.737 17.7659L230.214 28.7726L225.308 66.4319L140.83 55.4252L145.737 17.7659Z" stroke="#312194" stroke-width="1.02641"/>
<path d="M148.532 20.2L226.904 30.4103L222.528 63.9982L144.156 53.7878L148.532 20.2Z" stroke="#312194" stroke-width="1.02641"/>
</g>
<defs>
<clipPath id="clip0_1_6751">
<rect width="240.164" height="167.662" fill="white" transform="translate(0.917969 0.169189)"/>
</clipPath>
</defs>
</svg>
