<svg width="36" height="36" viewBox="0 0 36 36" fill="none" xmlns="http://www.w3.org/2000/svg">
<circle cx="18" cy="18" r="18" fill="#EFFEFF"/>
<path d="M24 28C23.1667 28 22.4583 27.7083 21.875 27.125C21.2917 26.5417 21 25.8333 21 25C21 24.8833 21.0083 24.7625 21.025 24.6375C21.0417 24.5125 21.0667 24.4 21.1 24.3L14.05 20.2C13.7667 20.45 13.45 20.6458 13.1 20.7875C12.75 20.9292 12.3833 21 12 21C11.1667 21 10.4583 20.7083 9.875 20.125C9.29167 19.5417 9 18.8333 9 18C9 17.1667 9.29167 16.4583 9.875 15.875C10.4583 15.2917 11.1667 15 12 15C12.3833 15 12.75 15.0708 13.1 15.2125C13.45 15.3542 13.7667 15.55 14.05 15.8L21.1 11.7C21.0667 11.6 21.0417 11.4875 21.025 11.3625C21.0083 11.2375 21 11.1167 21 11C21 10.1667 21.2917 9.45833 21.875 8.875C22.4583 8.29167 23.1667 8 24 8C24.8333 8 25.5417 8.29167 26.125 8.875C26.7083 9.45833 27 10.1667 27 11C27 11.8333 26.7083 12.5417 26.125 13.125C25.5417 13.7083 24.8333 14 24 14C23.6167 14 23.25 13.9292 22.9 13.7875C22.55 13.6458 22.2333 13.45 21.95 13.2L14.9 17.3C14.9333 17.4 14.9583 17.5125 14.975 17.6375C14.9917 17.7625 15 17.8833 15 18C15 18.1167 14.9917 18.2375 14.975 18.3625C14.9583 18.4875 14.9333 18.6 14.9 18.7L21.95 22.8C22.2333 22.55 22.55 22.3542 22.9 22.2125C23.25 22.0708 23.6167 22 24 22C24.8333 22 25.5417 22.2917 26.125 22.875C26.7083 23.4583 27 24.1667 27 25C27 25.8333 26.7083 26.5417 26.125 27.125C25.5417 27.7083 24.8333 28 24 28ZM24 12C24.2833 12 24.5208 11.9042 24.7125 11.7125C24.9042 11.5208 25 11.2833 25 11C25 10.7167 24.9042 10.4792 24.7125 10.2875C24.5208 10.0958 24.2833 10 24 10C23.7167 10 23.4792 10.0958 23.2875 10.2875C23.0958 10.4792 23 10.7167 23 11C23 11.2833 23.0958 11.5208 23.2875 11.7125C23.4792 11.9042 23.7167 12 24 12ZM12 19C12.2833 19 12.5208 18.9042 12.7125 18.7125C12.9042 18.5208 13 18.2833 13 18C13 17.7167 12.9042 17.4792 12.7125 17.2875C12.5208 17.0958 12.2833 17 12 17C11.7167 17 11.4792 17.0958 11.2875 17.2875C11.0958 17.4792 11 17.7167 11 18C11 18.2833 11.0958 18.5208 11.2875 18.7125C11.4792 18.9042 11.7167 19 12 19ZM24 26C24.2833 26 24.5208 25.9042 24.7125 25.7125C24.9042 25.5208 25 25.2833 25 25C25 24.7167 24.9042 24.4792 24.7125 24.2875C24.5208 24.0958 24.2833 24 24 24C23.7167 24 23.4792 24.0958 23.2875 24.2875C23.0958 24.4792 23 24.7167 23 25C23 25.2833 23.0958 25.5208 23.2875 25.7125C23.4792 25.9042 23.7167 26 24 26Z" fill="#47AAAF"/>
</svg>
