<svg width="36" height="36" viewBox="0 0 36 36" fill="none" xmlns="http://www.w3.org/2000/svg">
<circle cx="18" cy="18" r="18" fill="#EFFEFF"/>
<path d="M10 25V23H12V16C12 14.6167 12.4167 13.3875 13.25 12.3125C14.0833 11.2375 15.1667 10.5333 16.5 10.2V9.5C16.5 9.08333 16.6458 8.72917 16.9375 8.4375C17.2292 8.14583 17.5833 8 18 8C18.4167 8 18.7708 8.14583 19.0625 8.4375C19.3542 8.72917 19.5 9.08333 19.5 9.5V10.2C20.8333 10.5333 21.9167 11.2375 22.75 12.3125C23.5833 13.3875 24 14.6167 24 16V23H26V25H10ZM18 28C17.45 28 16.9792 27.8042 16.5875 27.4125C16.1958 27.0208 16 26.55 16 26H20C20 26.55 19.8042 27.0208 19.4125 27.4125C19.0208 27.8042 18.55 28 18 28ZM14 23H22V16C22 14.9 21.6083 13.9583 20.825 13.175C20.0417 12.3917 19.1 12 18 12C16.9 12 15.9583 12.3917 15.175 13.175C14.3917 13.9583 14 14.9 14 16V23Z" fill="#47AAAF"/>
</svg>
