<svg width="64" height="64" viewBox="0 0 64 64" fill="none" xmlns="http://www.w3.org/2000/svg">
<path d="M2 32C2 35.9397 2.77597 39.8407 4.28361 43.4805C5.79125 47.1203 8.00104 50.4274 10.7868 53.2132C13.5726 55.999 16.8797 58.2087 20.5195 59.7164C24.1593 61.224 28.0603 62 32 62C35.9397 62 39.8407 61.224 43.4805 59.7164C47.1203 58.2087 50.4274 55.999 53.2132 53.2132C55.999 50.4274 58.2087 47.1203 59.7164 43.4805C61.224 39.8407 62 35.9397 62 32C62 28.0603 61.224 24.1593 59.7164 20.5195C58.2087 16.8797 55.999 13.5726 53.2132 10.7868C50.4274 8.00104 47.1203 5.79126 43.4805 4.28361C39.8407 2.77597 35.9397 2 32 2C28.0603 2 24.1593 2.77597 20.5195 4.28361C16.8797 5.79126 13.5726 8.00104 10.7868 10.7868C8.00104 13.5726 5.79125 16.8797 4.28361 20.5195C2.77597 24.1593 2 28.0603 2 32Z" fill="#FFE5CF"/>
<path d="M16.3984 19.1998C16.3984 17.9998 17.5984 16.7998 18.7984 16.7998H45.9984C47.1984 16.7998 48.3984 17.5998 48.3984 19.1998C48.3984 20.3998 47.1984 21.5998 45.9984 21.5998H18.3984C17.1984 21.5998 16.3984 20.3998 16.3984 19.1998Z" fill="#FF8746"/>
<path d="M19 19V47C19 48.2 20.6 49 21.4 48.2L23.4 46.2L25.4 47.8C25.8 48.2 27 48.2 27.4 47.8L29.4 45.8L31.4 47.8C31.8 48.2 33 48.2 33.4 47.8L35.4 45.8L37.4 47.8C37.8 48.2 39 48.2 39.4 47.8L41.4 45.8L43.4 47.8C44.2 48.6 45.8 48.2 45.8 46.6V19H19Z" fill="#FF9D68"/>
<path d="M23.1992 25.1999C23.1992 24.7999 23.5992 24.3999 23.9992 24.3999H37.5992C37.9992 24.3999 38.3992 24.7999 38.3992 25.1999C38.3992 25.5999 37.9992 25.9999 37.5992 25.9999H23.5992C23.1992 25.9999 23.1992 25.5999 23.1992 25.1999ZM23.1992 29.5999C23.1992 29.1999 23.5992 28.7999 23.9992 28.7999H34.3992C34.7992 28.7999 35.1992 29.1999 35.1992 29.5999C35.1992 29.9999 34.7992 30.3999 34.3992 30.3999H23.5992C23.1992 30.3999 23.1992 29.9999 23.1992 29.5999ZM23.1992 34.3999C23.1992 33.9999 23.5992 33.5999 23.9992 33.5999H40.3992C40.7992 33.5999 41.1992 33.9999 41.1992 34.3999C41.1992 34.7999 40.7992 35.1999 40.3992 35.1999H23.5992C23.1992 35.1999 23.1992 34.7999 23.1992 34.3999ZM23.1992 38.7999C23.1992 38.3999 23.5992 37.9999 23.9992 37.9999H37.5992C37.9992 37.9999 38.3992 38.3999 38.3992 38.7999C38.3992 39.1999 37.9992 39.5999 37.5992 39.5999H23.5992C23.1992 39.5999 23.1992 39.1999 23.1992 38.7999Z" fill="#F27632"/>
</svg>
