<svg width="64" height="64" viewBox="0 0 64 64" fill="none" xmlns="http://www.w3.org/2000/svg">
<rect width="64" height="64" rx="32" fill="#E5F1FF"/>
<path d="M24.3602 22.1223C26.4442 20.4872 29.0605 19.5132 31.9156 19.5132C31.9514 19.5132 31.986 19.5156 32.023 19.5156L31.1027 22.2966L40.2563 20.0598L33.9578 13.667L32.8346 17.0639C32.5291 17.0448 32.2235 17.0329 31.9156 17.0329C27.8502 17.0329 24.1573 18.6848 21.4944 21.3489C21.4002 21.4444 21.3106 21.5422 21.2188 21.639C21.2331 21.639 21.2474 21.6377 21.2618 21.6377C22.3419 21.6377 23.3838 21.8072 24.3602 22.1223Z" fill="#72AEFD"/>
<path d="M39.6461 42.6406C37.5621 44.2734 34.9458 45.2473 32.0908 45.2497C32.0549 45.2497 32.0191 45.2449 31.9834 45.2449L32.9035 42.4639L23.75 44.7006L30.0474 51.0935L31.1717 47.6965C31.4761 47.7156 31.7828 47.7275 32.0908 47.7275C36.1561 47.7275 39.8491 46.0768 42.5119 43.4115C42.6062 43.3173 42.6957 43.2182 42.7876 43.1227C42.7732 43.1227 42.7589 43.1227 42.7446 43.1227C41.6632 43.1227 40.6224 42.9532 39.6461 42.6406Z" fill="#72AEFD"/>
<path d="M42.7454 23.5669C37.8756 23.5669 33.9297 27.5128 33.9297 32.3803C33.9297 37.2477 37.8756 41.1949 42.7454 41.1949C47.6129 41.1949 51.5588 37.2477 51.5588 32.3803C51.5588 27.5128 47.6129 23.5669 42.7454 23.5669Z" fill="#72AEFD"/>
<path d="M43.3161 31.7619L42.4544 31.6878C42.1452 31.6568 41.9268 31.5828 41.7979 31.4706C41.6666 31.3572 41.6033 31.1961 41.6033 30.9836C41.6033 30.7496 41.6952 30.5587 41.8766 30.4131C42.058 30.2675 42.3398 30.1935 42.7217 30.1935C43.013 30.1935 43.2899 30.2293 43.5537 30.2985C43.8174 30.3677 44.123 30.5849 44.123 30.5849C44.1922 30.6208 44.2781 30.6064 44.3331 30.5503L44.8487 30.0264C44.8881 29.9858 44.906 29.9285 44.8977 29.8736C44.8893 29.8163 44.8546 29.7662 44.8045 29.7399C44.8045 29.7399 44.3999 29.4248 44.0156 29.3198C43.7888 29.2577 43.5441 29.216 43.2875 29.1908V28.415H42.1918V29.2076C42.0677 29.2267 41.9448 29.2506 41.8277 29.284C41.5485 29.3652 41.3038 29.4857 41.0925 29.648C40.8812 29.8091 40.7165 30.0085 40.5947 30.2436C40.473 30.4776 40.4109 30.745 40.4109 31.0457C40.4109 31.5876 40.5697 31.9934 40.886 32.2608C41.2011 32.5281 41.6523 32.6905 42.2347 32.7454L43.2182 32.8313C43.5191 32.8648 43.7315 32.9412 43.8568 33.0629C43.9833 33.1846 44.0454 33.3493 44.0454 33.5617C44.0454 33.853 43.9177 34.0678 43.6622 34.2051C43.408 34.3424 43.0857 34.4116 42.6966 34.4116C42.3874 34.4116 42.0795 34.3686 41.7668 34.2851C41.4553 34.1991 41.0434 33.8423 41.0434 33.8423C40.9718 33.7981 40.8811 33.81 40.8215 33.8673L40.2724 34.4188C40.233 34.457 40.2139 34.513 40.2198 34.5668C40.227 34.6217 40.258 34.6718 40.307 34.7005C40.307 34.7005 40.8691 35.1755 41.2988 35.2925C41.5805 35.3701 41.8789 35.419 42.1917 35.4453V36.3464H43.2874V35.4274C43.4354 35.4071 43.5786 35.3832 43.7171 35.3474C44.0334 35.2662 44.3043 35.1421 44.5311 34.9762C44.7578 34.8104 44.9369 34.6074 45.0658 34.3639C45.1947 34.1204 45.2604 33.8364 45.2604 33.5117C45.2604 32.9698 45.0968 32.5556 44.7674 32.2728C44.4405 31.9887 43.9559 31.8192 43.3161 31.7619Z" fill="white"/>
<path d="M21.015 24.2998C16.1452 24.2998 12.1992 28.2458 12.1992 33.1132C12.1992 37.9806 16.1452 41.9278 21.015 41.9278C25.8824 41.9278 29.8284 37.9806 29.8284 33.1132C29.8284 28.2458 25.8824 24.2998 21.015 24.2998Z" fill="#72AEFD"/>
<path d="M23.1974 35.3417L23.3947 36.2373C23.3983 36.2502 23.4003 36.265 23.4003 36.2802C23.4003 36.311 23.392 36.3397 23.3772 36.3645L23.3775 36.3639C23.3563 36.4015 23.3233 36.4303 23.283 36.4451L23.2817 36.4455L23.2532 36.4511C23.2364 36.4594 23.2166 36.466 23.1957 36.4706L23.1941 36.4709C23.1698 36.4767 23.1398 36.4855 23.1039 36.4974C23.068 36.5093 23.0276 36.5196 22.9829 36.5284C22.9378 36.5377 22.8899 36.5471 22.8395 36.5568C22.789 36.5665 22.7328 36.576 22.6706 36.5853C22.6085 36.5945 22.5456 36.6033 22.4819 36.6117C22.4183 36.6201 22.3498 36.6257 22.2764 36.6286C22.203 36.6323 22.1308 36.6342 22.0596 36.6342C22.0378 36.6345 22.012 36.6348 21.9859 36.6348C21.1459 36.6348 20.3706 36.3586 19.7457 35.892L19.7557 35.8989C19.1106 35.4141 18.6364 34.7327 18.4209 33.9446L18.415 33.9191H17.88C17.7808 33.9178 17.7009 33.8378 17.6995 33.739V33.1022C17.7009 33.0031 17.7808 32.9231 17.8796 32.9218H18.2514C18.2439 32.7079 18.2458 32.5107 18.257 32.3303H17.8796C17.8777 32.3303 17.875 32.3303 17.8727 32.3303C17.7769 32.3303 17.6992 32.2526 17.6992 32.1568C17.6992 32.1545 17.6992 32.1518 17.6992 32.1495V31.5078C17.6992 31.5058 17.6992 31.5031 17.6992 31.5008C17.6992 31.405 17.7769 31.3273 17.8727 31.3273H17.88H17.8796H18.4315C18.6787 30.5412 19.1598 29.8879 19.7923 29.4312L19.8032 29.4239C20.4149 28.9718 21.1842 28.7002 22.0167 28.7002C22.0312 28.7002 22.0457 28.7002 22.0603 28.7005H22.058H22.0798C22.4601 28.7005 22.8293 28.7478 23.1819 28.8367L23.1508 28.8301C23.1977 28.8453 23.2367 28.875 23.2628 28.914L23.2631 28.9147C23.2774 28.9404 23.2859 28.9708 23.2859 29.0036C23.2859 29.0201 23.284 29.0359 23.2797 29.0511L23.28 29.0498L23.0378 29.9454C23.0279 29.9926 22.9988 30.0316 22.9591 30.0547L22.9585 30.0551C22.935 30.0693 22.9062 30.0779 22.8758 30.0779C22.857 30.0779 22.8392 30.0746 22.8223 30.0686L22.8233 30.069L22.8008 30.0633C22.7859 30.0596 22.7643 30.055 22.7361 30.0495L22.6376 30.0296L22.511 30.0098L22.3646 29.9929L22.2014 29.9791L22.0352 29.9735C22.0252 29.9735 22.0137 29.9731 22.0021 29.9731C21.5418 29.9731 21.1132 30.1076 20.753 30.3396L20.7622 30.334C20.3898 30.5739 20.0987 30.9116 19.9219 31.3111L19.9163 31.3254H22.5527C22.6538 31.3267 22.7354 31.409 22.7354 31.5104C22.7354 31.5207 22.7344 31.5309 22.7331 31.5405V31.5395L22.5979 32.1816C22.5887 32.2648 22.519 32.329 22.434 32.329C22.4281 32.329 22.4225 32.3286 22.4168 32.328H22.4175H19.6681C19.6625 32.4162 19.6595 32.5196 19.6595 32.6237C19.6595 32.7278 19.6625 32.8309 19.6688 32.9334L19.6681 32.9192H22.2536H22.2559C22.3121 32.9192 22.362 32.9456 22.3944 32.9866L22.3947 32.9869C22.4185 33.0176 22.433 33.0566 22.433 33.0989C22.433 33.1131 22.4314 33.127 22.4284 33.1402L22.4287 33.1389L22.2936 33.7698C22.2767 33.8524 22.2053 33.9142 22.1194 33.9161H22.1191H19.9404C20.2827 34.7615 21.097 35.347 22.048 35.347H22.0709H22.0699C22.1375 35.347 22.2051 35.3442 22.2728 35.3384C22.3404 35.3327 22.4033 35.3261 22.4615 35.3186C22.5196 35.3111 22.575 35.3023 22.6277 35.2922C22.6803 35.282 22.7264 35.2726 22.7658 35.2638L22.8699 35.2373L22.9376 35.2205L22.9661 35.2092C22.9842 35.202 23.0054 35.1977 23.0275 35.1977C23.0589 35.1977 23.088 35.2063 23.1131 35.2211L23.1125 35.2208C23.1567 35.2462 23.1885 35.2895 23.1977 35.3404V35.3414L23.1974 35.3417Z" fill="white"/>
</svg>
