<svg width="84" height="84" viewBox="0 0 84 84" fill="none" xmlns="http://www.w3.org/2000/svg">
<g filter="url(#filter0_d_1063_4262)">
<rect x="4" width="76" height="76" rx="20.2667" fill="#F3F9F9"/>
</g>
<path d="M53.6658 30.0861H53.2491V26.3361C53.2448 25.5639 52.9361 24.8246 52.3899 24.2785C51.8439 23.7325 51.1046 23.4238 50.3324 23.4194C50.2003 23.3953 50.0646 23.3953 49.9324 23.4194L30.0991 30.0861H29.9158H29.6491L29.3658 30.1861H29.1324L28.8658 30.3361L28.6658 30.6194L28.4324 30.8194L28.2491 30.9861L28.0491 31.2361C27.9958 31.2839 27.9507 31.3402 27.9158 31.4028C27.8539 31.4991 27.7982 31.5993 27.7491 31.7028L27.6491 31.8861C27.6027 32.0058 27.5637 32.1282 27.5324 32.2528C27.5399 32.3136 27.5399 32.3752 27.5324 32.4361C27.5152 32.6246 27.5152 32.8143 27.5324 33.0028V49.6695C27.5359 50.422 27.8285 51.1443 28.3497 51.6871C28.8708 52.2301 29.5807 52.552 30.3324 52.5861H53.6658C54.4379 52.5816 55.1773 52.273 55.7233 51.727C56.2694 51.181 56.5781 50.4416 56.5824 49.6695V33.0028C56.5781 32.2306 56.2694 31.4912 55.7233 30.9452C55.1773 30.3992 54.4379 30.0905 53.6658 30.0861ZM50.4658 25.9361C50.5479 25.9664 50.6189 26.0208 50.6694 26.0922C50.7199 26.1636 50.7478 26.2486 50.7491 26.3361V30.0861H38.0324L50.4658 25.9361ZM54.0824 49.6695C54.0824 49.78 54.0386 49.886 53.9604 49.964C53.8823 50.0421 53.7763 50.0861 53.6658 50.0861H30.3324C30.2219 50.0861 30.116 50.0421 30.0378 49.964C29.9597 49.886 29.9158 49.78 29.9158 49.6695V33.0028C29.9158 32.8923 29.9597 32.7863 30.0378 32.7081C30.116 32.63 30.2219 32.5861 30.3324 32.5861H53.6658C53.7763 32.5861 53.8823 32.63 53.9604 32.7081C54.0386 32.7863 54.0824 32.8923 54.0824 33.0028V49.6695Z" fill="#47AAAF"/>
<path d="M49.5013 43.4167C50.652 43.4167 51.5846 42.484 51.5846 41.3333C51.5846 40.1827 50.652 39.25 49.5013 39.25C48.3506 39.25 47.418 40.1827 47.418 41.3333C47.418 42.484 48.3506 43.4167 49.5013 43.4167Z" fill="#47AAAF"/>
<defs>
<filter id="filter0_d_1063_4262" x="0" y="0" width="84" height="84" filterUnits="userSpaceOnUse" color-interpolation-filters="sRGB">
<feFlood flood-opacity="0" result="BackgroundImageFix"/>
<feColorMatrix in="SourceAlpha" type="matrix" values="0 0 0 0 0 0 0 0 0 0 0 0 0 0 0 0 0 0 127 0" result="hardAlpha"/>
<feOffset dy="4"/>
<feGaussianBlur stdDeviation="2"/>
<feComposite in2="hardAlpha" operator="out"/>
<feColorMatrix type="matrix" values="0 0 0 0 0.620833 0 0 0 0 0.620833 0 0 0 0 0.620833 0 0 0 0.1 0"/>
<feBlend mode="normal" in2="BackgroundImageFix" result="effect1_dropShadow_1063_4262"/>
<feBlend mode="normal" in="SourceGraphic" in2="effect1_dropShadow_1063_4262" result="shape"/>
</filter>
</defs>
</svg>
