<svg width="80" height="50" viewBox="0 0 80 50" fill="none" xmlns="http://www.w3.org/2000/svg">
<rect width="80" height="50" rx="6" fill="url(#paint0_linear_1_5316)"/>
<path d="M29.4859 37.6667V23.1539H27.332V16.2052H34.2269C34.0389 15.9881 33.9111 15.7437 33.8436 15.4718C33.7761 15.1999 33.7423 14.9145 33.7423 14.6155C33.7423 13.6183 34.0913 12.7708 34.7893 12.0728C35.4873 11.3748 36.3349 11.0258 37.332 11.0258C37.8431 11.0258 38.3166 11.133 38.7525 11.3476C39.1884 11.5621 39.5782 11.8488 39.9217 12.2078C40.2653 11.8352 40.6551 11.545 41.091 11.3373C41.5269 11.1296 42.0004 11.0258 42.5115 11.0258C43.5086 11.0258 44.3562 11.3748 45.0542 12.0728C45.7522 12.7708 46.1012 13.6183 46.1012 14.6155C46.1012 14.9112 46.064 15.1924 45.9896 15.4591C45.9153 15.7257 45.7909 15.9744 45.6166 16.2052H52.6653V23.1539H50.5115V37.6667H29.4859ZM42.5115 13.0257C42.061 13.0257 41.6835 13.178 41.3788 13.4828C41.0741 13.7875 40.9217 14.165 40.9217 14.6155C40.9217 15.0659 41.0741 15.4435 41.3788 15.7482C41.6835 16.0529 42.061 16.2052 42.5115 16.2052C42.9619 16.2052 43.3395 16.0529 43.6442 15.7482C43.9489 15.4435 44.1012 15.0659 44.1012 14.6155C44.1012 14.165 43.9489 13.7875 43.6442 13.4828C43.3395 13.178 42.9619 13.0257 42.5115 13.0257ZM35.7422 14.6155C35.7422 15.0659 35.8946 15.4435 36.1993 15.7482C36.504 16.0529 36.8816 16.2052 37.332 16.2052C37.7824 16.2052 38.16 16.0529 38.4647 15.7482C38.7694 15.4435 38.9218 15.0659 38.9218 14.6155C38.9218 14.165 38.7694 13.7875 38.4647 13.4828C38.16 13.178 37.7824 13.0257 37.332 13.0257C36.8816 13.0257 36.504 13.178 36.1993 13.4828C35.8946 13.7875 35.7422 14.165 35.7422 14.6155ZM29.332 18.2052V21.1539H38.9987V18.2052H29.332ZM38.9987 35.6667V23.1539H31.4858V35.6667H38.9987ZM40.9986 35.6667H48.5115V23.1539H40.9986V35.6667ZM50.6653 21.1539V18.2052H40.9986V21.1539H50.6653Z" fill="white"/>
<defs>
<linearGradient id="paint0_linear_1_5316" x1="15.2" y1="-0.792884" x2="57.4157" y2="50.5867" gradientUnits="userSpaceOnUse">
<stop stop-color="#17DDE9"/>
<stop offset="1" stop-color="#84D247" stop-opacity="0.8"/>
</linearGradient>
</defs>
</svg>
