<svg width="80" height="50" viewBox="0 0 80 50" fill="none" xmlns="http://www.w3.org/2000/svg">
<rect width="80" height="50" rx="6" fill="url(#paint0_linear_1_5307)"/>
<path d="M30.6679 32.9998V34.3333V15.6666V32.9998ZM31.0782 36.3332C30.4133 36.3332 29.8453 36.0978 29.3744 35.6268C28.9034 35.1559 28.668 34.5879 28.668 33.923V16.0769C28.668 15.4119 28.9034 14.844 29.3744 14.3731C29.8453 13.9021 30.4133 13.6666 31.0782 13.6666H48.9243C49.5893 13.6666 50.1572 13.9021 50.6281 14.3731C51.0991 14.844 51.3346 15.4119 51.3346 16.0769V19.7051H49.3346V16.0769C49.3346 15.9572 49.2961 15.8589 49.2192 15.782C49.1423 15.7051 49.044 15.6666 48.9243 15.6666H31.0782C30.9586 15.6666 30.8603 15.7051 30.7833 15.782C30.7064 15.8589 30.6679 15.9572 30.6679 16.0769V33.923C30.6679 34.0426 30.7064 34.1409 30.7833 34.2179C30.8603 34.2948 30.9586 34.3333 31.0782 34.3333H48.9243C49.044 34.3333 49.1423 34.2948 49.2192 34.2179C49.2961 34.1409 49.3346 34.0426 49.3346 33.923V30.2948H51.3346V33.923C51.3346 34.5879 51.0991 35.1559 50.6281 35.6268C50.1572 36.0978 49.5893 36.3332 48.9243 36.3332H31.0782ZM41.7449 30.9999C41.0799 30.9999 40.512 30.7644 40.0411 30.2935C39.5701 29.8225 39.3346 29.2546 39.3346 28.5896V21.4102C39.3346 20.7453 39.5701 20.1773 40.0411 19.7064C40.512 19.2354 41.0799 19 41.7449 19H50.2576C50.9226 19 51.4905 19.2354 51.9615 19.7064C52.4324 20.1773 52.6679 20.7453 52.6679 21.4102V28.5896C52.6679 29.2546 52.4324 29.8225 51.9615 30.2935C51.4905 30.7644 50.9226 30.9999 50.2576 30.9999H41.7449ZM50.2576 28.9999C50.3773 28.9999 50.4756 28.9615 50.5525 28.8845C50.6295 28.8076 50.6679 28.7093 50.6679 28.5896V21.4102C50.6679 21.2906 50.6295 21.1923 50.5525 21.1153C50.4756 21.0384 50.3773 20.9999 50.2576 20.9999H41.7449C41.6252 20.9999 41.5269 21.0384 41.45 21.1153C41.3731 21.1923 41.3346 21.2906 41.3346 21.4102V28.5896C41.3346 28.7093 41.3731 28.8076 41.45 28.8845C41.5269 28.9615 41.6252 28.9999 41.7449 28.9999H50.2576ZM45.3346 26.9999C45.8902 26.9999 46.3624 26.8055 46.7513 26.4166C47.1402 26.0277 47.3346 25.5555 47.3346 24.9999C47.3346 24.4444 47.1402 23.9721 46.7513 23.5833C46.3624 23.1944 45.8902 22.9999 45.3346 22.9999C44.779 22.9999 44.3068 23.1944 43.9179 23.5833C43.529 23.9721 43.3346 24.4444 43.3346 24.9999C43.3346 25.5555 43.529 26.0277 43.9179 26.4166C44.3068 26.8055 44.779 26.9999 45.3346 26.9999Z" fill="white"/>
<defs>
<linearGradient id="paint0_linear_1_5307" x1="15.2" y1="-0.792884" x2="57.4157" y2="50.5867" gradientUnits="userSpaceOnUse">
<stop stop-color="#17DDE9"/>
<stop offset="1" stop-color="#84D247" stop-opacity="0.8"/>
</linearGradient>
</defs>
</svg>
