<svg width="80" height="50" viewBox="0 0 80 50" fill="none" xmlns="http://www.w3.org/2000/svg">
<rect width="80" height="50" rx="5.33336" fill="url(#paint0_linear_50_4760)"/>
<g clip-path="url(#clip0_50_4760)">
<path d="M31.7011 20.002V20.0064C31.6966 20.0064 30.2945 20.002 29.9205 21.3418C29.5778 22.5704 28.6118 25.9609 28.5851 26.0544H28.318C28.318 26.0544 27.3298 22.5882 26.9826 21.3374C26.6087 19.9975 25.202 20.002 25.202 20.002H22V30.1927H25.2035V24.1402H25.4706L27.3402 30.1927H29.5644L31.434 24.1447H31.7011V30.1927H34.9046V20.002H31.7011ZM43.4038 20.002C43.4038 20.002 42.4646 20.0865 42.0239 21.0703L39.7552 26.0544H39.4881V20.002H36.2846V30.1927H39.31C39.31 30.1927 40.2938 30.1037 40.7345 29.1244L42.9587 24.1403H43.2258V30.1927H46.4294V20.002H43.4038ZM47.8538 24.6299V30.1927H51.0573V26.9447H54.5279C56.0414 26.9447 57.3219 25.9787 57.7982 24.6314H47.8538V24.6299Z" fill="white"/>
<path d="M54.5354 20.0022H47.4102C47.7663 21.943 49.2218 23.4995 51.1033 24.007C51.5401 24.1253 51.9906 24.1852 52.4432 24.1851H57.9347C57.9837 23.9536 58.0059 23.7177 58.0059 23.4729C58.006 21.5557 56.4524 20.0022 54.5354 20.0022Z" fill="white"/>
</g>
<defs>
<linearGradient id="paint0_linear_50_4760" x1="25.4898" y1="-1.05263" x2="59.319" y2="50.2786" gradientUnits="userSpaceOnUse">
<stop stop-color="#27AE60"/>
<stop offset="0.511666" stop-color="#299F8C" stop-opacity="0.897667"/>
<stop offset="1" stop-color="#207BA2" stop-opacity="0.8"/>
</linearGradient>
<clipPath id="clip0_50_4760">
<rect width="36" height="10.1952" fill="white" transform="translate(22 20)"/>
</clipPath>
</defs>
</svg>
