<svg width="332" height="202" viewBox="0 0 332 202" fill="none" xmlns="http://www.w3.org/2000/svg">
<path d="M0 14C0 6.26801 6.26801 0 14 0H318C325.732 0 332 6.26801 332 14V188C332 195.732 325.732 202 318 202H14C6.26801 202 0 195.732 0 188V14Z" fill="url(#paint0_linear_150_4765)"/>
<path d="M298.531 43.3073V50.3903H302.466V46.193H306.926C308.802 46.1799 310.395 44.9797 310.999 43.3073H298.531Z" fill="white"/>
<path d="M298.012 37.4717C298.241 40.3639 300.983 42.6528 304.327 42.6528C304.341 42.6528 311.168 42.6528 311.168 42.6528C311.22 42.3905 311.247 42.115 311.247 41.833C311.247 39.4326 309.312 37.4914 306.918 37.4717H298.012Z" fill="white"/>
<path d="M292.185 42.5807C292.231 42.5019 292.303 42.456 292.395 42.456C292.526 42.456 292.625 42.561 292.631 42.6856V50.3261H296.566V37.4717H292.631C292.133 37.4914 291.569 37.8521 291.359 38.3046L288.23 45.0204C288.224 45.0466 288.211 45.0728 288.198 45.0991C288.152 45.1646 288.073 45.2106 287.981 45.2106C287.837 45.2106 287.719 45.0925 287.719 44.9482V37.4717H283.784V50.3261H287.719C288.211 50.2999 288.762 49.9391 288.972 49.4932L292.185 42.6003C292.179 42.5938 292.185 42.5872 292.185 42.5807Z" fill="white"/>
<path d="M277.496 42.8034L275.194 50.3258H272.361L270.065 42.7968C270.045 42.6787 269.94 42.5869 269.809 42.5869C269.665 42.5869 269.553 42.705 269.553 42.8427V50.3192H265.618V37.4648H269.999C270.721 37.4648 271.482 38.0289 271.692 38.7175L273.607 44.9807C273.705 45.2955 273.856 45.289 273.954 44.9807L275.869 38.7175C276.079 38.0223 276.84 37.4648 277.561 37.4648H281.942V50.3192H278.007V42.8427C278.007 42.8427 278.007 42.8427 278.007 42.8362C278.007 42.6919 277.889 42.5804 277.751 42.5804C277.62 42.5869 277.515 42.6787 277.496 42.8034Z" fill="white"/>
<defs>
<linearGradient id="paint0_linear_150_4765" x1="21.5" y1="-17.5" x2="304" y2="225.5" gradientUnits="userSpaceOnUse">
<stop stop-color="#29CBD3"/>
<stop offset="1" stop-color="#5BAC5F"/>
</linearGradient>
</defs>
</svg>
