<svg width="332" height="202" viewBox="0 0 332 202" fill="none" xmlns="http://www.w3.org/2000/svg">
<path d="M0 14C0 6.26801 6.26801 0 14 0H318C325.732 0 332 6.26801 332 14V188C332 195.732 325.732 202 318 202H14C6.26801 202 0 195.732 0 188V14Z" fill="url(#paint0_linear_150_4762)"/>
<path fill-rule="evenodd" clip-rule="evenodd" d="M276.315 58.4603V58.7268C276.337 58.7746 276.375 58.813 276.423 58.8355C276.46 58.8288 276.497 58.8322 276.532 58.8455C276.569 58.865 276.603 58.8917 276.63 58.9243C276.652 58.9824 276.652 59.0462 276.63 59.1044C276.626 59.131 276.614 59.1559 276.597 59.1765C276.58 59.1972 276.557 59.2129 276.532 59.2219C276.456 59.2631 276.371 59.2834 276.285 59.2807H274.994C274.906 59.2826 274.819 59.2658 274.738 59.2313C274.707 59.2138 274.683 59.1875 274.667 59.1559C274.651 59.1242 274.645 59.0886 274.65 59.0535C274.648 59.0236 274.653 58.9936 274.665 58.9661C274.677 58.9386 274.696 58.9144 274.719 58.8955C274.749 58.8712 274.782 58.8514 274.818 58.8367C274.843 58.8277 274.871 58.8277 274.896 58.8367C274.939 58.8105 274.973 58.7728 274.995 58.728V55.1023C275.001 55.0498 275.001 54.9967 274.995 54.9442C274.985 54.9209 274.97 54.9 274.952 54.883C274.933 54.8659 274.911 54.8532 274.886 54.8455H274.808L274.69 54.7573C274.673 54.741 274.659 54.721 274.651 54.6988C274.642 54.6765 274.639 54.6527 274.641 54.6289C274.636 54.5928 274.643 54.556 274.661 54.5242C274.679 54.4924 274.706 54.4673 274.74 54.4526C274.816 54.4135 274.9 54.3933 274.986 54.3938H276.335C276.42 54.393 276.504 54.4098 276.582 54.4432C276.651 54.4432 276.68 54.5314 276.68 54.631C276.681 54.6592 276.676 54.6872 276.664 54.7128C276.652 54.7383 276.634 54.7606 276.612 54.7779L276.513 54.847H276.434C276.398 54.8646 276.367 54.892 276.346 54.926C276.328 54.9834 276.328 55.0449 276.346 55.1023V56.7713L277.509 55.8824L277.845 55.5663L278.101 55.2898C278.203 55.1975 278.28 55.0824 278.328 54.9539C278.328 54.8951 278.279 54.8364 278.181 54.7776C278.137 54.7605 278.098 54.7309 278.07 54.6924C278.042 54.6539 278.026 54.608 278.023 54.5605C278.024 54.5276 278.033 54.4954 278.05 54.4675C278.068 54.4396 278.093 54.417 278.122 54.4024C278.193 54.37 278.271 54.3532 278.349 54.353H279.512C279.562 54.3664 279.605 54.3961 279.636 54.4373C279.666 54.4786 279.682 54.5289 279.68 54.5801C279.678 54.6076 279.669 54.6342 279.656 54.6582C279.642 54.6821 279.623 54.7027 279.601 54.7185C279.559 54.7657 279.504 54.7999 279.443 54.8173C279.282 54.8938 279.138 55.0011 279.019 55.1332L278.782 55.39L277.866 56.3085C278.185 56.6332 278.482 56.9797 278.753 57.3455C279 57.6813 279.246 58.0665 279.502 58.4914L279.631 58.6889C279.683 58.7562 279.751 58.8103 279.828 58.847L279.974 58.9351C280.011 58.9793 280.029 59.0361 280.023 59.0932C280.023 59.1723 279.965 59.2316 279.856 59.2695H278.328C278.233 59.2834 278.137 59.2834 278.042 59.2695C277.996 59.2622 277.954 59.2379 277.925 59.2014C277.896 59.1648 277.881 59.1187 277.884 59.0721C277.889 59.0328 277.902 58.995 277.922 58.961C277.942 58.927 277.969 58.8976 278.001 58.8746C278.09 58.8158 278.13 58.7659 278.13 58.7362C278.038 58.4 277.865 58.0915 277.627 57.8376C277.405 57.5303 277.161 57.2398 276.897 56.9685L276.345 57.3834L276.315 58.4603Z" fill="white"/>
<path fill-rule="evenodd" clip-rule="evenodd" d="M284.19 56.9219C284.213 56.4198 284.094 55.9215 283.845 55.4847C283.745 55.2644 283.582 55.0785 283.377 54.9503C283.171 54.8221 282.933 54.7572 282.691 54.7636C282.446 54.7612 282.205 54.8336 282.001 54.9711C281.811 55.1175 281.653 55.3026 281.538 55.5141C281.444 55.7063 281.371 55.9083 281.321 56.1165C281.235 56.404 281.208 56.7063 281.243 57.0045C281.292 57.4105 281.419 57.8031 281.617 58.1607C281.719 58.3763 281.881 58.5583 282.082 58.6857C282.284 58.8132 282.517 58.8808 282.756 58.8808C282.994 58.8808 283.227 58.8132 283.429 58.6857C283.631 58.5583 283.792 58.3763 283.894 58.1607C284.112 57.7441 284.136 57.6227 284.19 56.9219ZM280.68 58.6849C280.427 58.445 280.225 58.1555 280.088 57.8345C279.95 57.5135 279.88 57.1677 279.881 56.8185C279.872 56.4715 279.94 56.1269 280.08 55.8093C280.22 55.4917 280.428 55.2091 280.69 54.9817C281.231 54.4961 281.936 54.2348 282.662 54.2509C283.383 54.2361 284.084 54.4854 284.634 54.952C284.904 55.1806 285.12 55.4669 285.265 55.7899C285.41 56.1129 285.481 56.4644 285.472 56.8185C285.481 57.1712 285.411 57.5215 285.265 57.843C285.12 58.1645 284.904 58.449 284.634 58.6752C284.077 59.1676 283.355 59.432 282.613 59.416C282.249 59.418 281.889 59.3544 281.548 59.2282C281.224 59.1094 280.928 58.9244 280.68 58.6849Z" fill="white"/>
<path fill-rule="evenodd" clip-rule="evenodd" d="M287.491 56.9272C287.858 56.8907 288.213 56.7798 288.536 56.6014C288.694 56.5196 288.827 56.3965 288.92 56.2453C289.014 56.094 289.065 55.9202 289.068 55.7422C289.076 55.6166 289.056 55.4908 289.008 55.3745C288.96 55.2581 288.886 55.1541 288.792 55.0705C288.581 54.8986 288.315 54.8108 288.043 54.8237H287.767C287.703 54.8451 287.643 54.8786 287.591 54.9224C287.562 54.9487 287.538 54.9805 287.521 55.0162C287.504 55.0518 287.495 55.0904 287.493 55.1298V56.9076L287.491 56.9272ZM287.491 58.4678V58.7147L287.549 58.7937L287.725 58.8728C287.76 58.8728 287.793 58.8819 287.823 58.8993C287.852 58.9167 287.876 58.9416 287.893 58.9715C287.902 58.9934 287.907 59.0169 287.907 59.0407C287.907 59.0645 287.902 59.088 287.893 59.1099C287.894 59.1533 287.88 59.1958 287.853 59.2299C287.826 59.2641 287.789 59.288 287.746 59.2974C287.658 59.3065 287.569 59.3065 287.48 59.2974H286.08C285.992 59.2993 285.905 59.2824 285.824 59.248C285.793 59.2306 285.768 59.2044 285.753 59.1727C285.737 59.141 285.731 59.1053 285.736 59.0702C285.734 59.0403 285.739 59.0103 285.751 58.9828C285.763 58.9553 285.782 58.931 285.805 58.9121L285.904 58.8534L285.982 58.804C286.021 58.7768 286.054 58.7434 286.081 58.7053V55.0717C286.088 55.0192 286.088 54.966 286.081 54.9136C286.071 54.8891 286.056 54.8669 286.038 54.8482C286.019 54.8295 285.997 54.8148 285.972 54.8048H285.894L285.776 54.7258C285.767 54.7056 285.763 54.6837 285.763 54.6616C285.763 54.6395 285.767 54.6176 285.776 54.5974C285.773 54.5626 285.781 54.5277 285.799 54.4975C285.816 54.4674 285.843 54.4436 285.875 54.4293C285.951 54.3901 286.036 54.37 286.122 54.3706H288.32C288.564 54.3695 288.808 54.386 289.05 54.4199C289.276 54.449 289.496 54.5158 289.701 54.6174C289.905 54.7211 290.081 54.8737 290.213 55.0617C290.344 55.2572 290.413 55.4879 290.411 55.7234C290.409 56.0262 290.297 56.3179 290.095 56.5432C289.889 56.7714 289.637 56.9532 289.356 57.0765C289.063 57.2084 288.755 57.3045 288.439 57.363C288.114 57.428 287.784 57.461 287.453 57.4617L287.491 58.4678Z" fill="white"/>
<path fill-rule="evenodd" clip-rule="evenodd" d="M292.344 55.2216V55.1334C292.359 55.0618 292.359 54.9879 292.344 54.9163C292.267 54.8801 292.183 54.8601 292.097 54.8575C291.817 54.8531 291.546 54.9555 291.338 55.144C291.23 55.2638 291.095 55.3553 290.944 55.4105C290.768 55.4105 290.678 55.3315 290.678 55.1537V54.7374C290.672 54.7082 290.672 54.6783 290.678 54.6492C290.69 54.56 290.723 54.4752 290.776 54.4024C290.809 54.3745 290.85 54.3573 290.893 54.353H294.956C295.012 54.3529 295.067 54.3702 295.114 54.4024C295.167 54.4762 295.204 54.5603 295.222 54.6492L295.281 54.9357V55.1528C295.281 55.3291 295.193 55.4097 295.015 55.4097C294.837 55.4097 294.818 55.3215 294.62 55.1332C294.414 54.9438 294.141 54.8444 293.861 54.8566C293.778 54.8468 293.694 54.8677 293.625 54.9154C293.59 54.9824 293.573 55.0572 293.575 55.1326V58.7274C293.598 58.7752 293.636 58.8137 293.684 58.8361H293.763L293.891 58.9243C293.908 58.9654 293.908 59.0116 293.891 59.0527C293.892 59.087 293.883 59.1208 293.865 59.1503C293.848 59.1799 293.823 59.2042 293.793 59.2205C293.717 59.2616 293.632 59.2819 293.546 59.2792H292.197C292.109 59.2812 292.022 59.2643 291.941 59.2299C291.91 59.2126 291.886 59.1866 291.87 59.1552C291.854 59.1238 291.848 59.0884 291.853 59.0536C291.851 59.0236 291.856 58.9936 291.868 58.9661C291.88 58.9386 291.898 58.9144 291.922 58.8955L292.02 58.8367H292.099C292.144 58.813 292.179 58.7746 292.198 58.728V58.5699L292.344 55.2216Z" fill="white"/>
<path fill-rule="evenodd" clip-rule="evenodd" d="M297.321 58.4555V58.722C297.343 58.7698 297.381 58.8082 297.429 58.8307H297.508L297.636 58.9188C297.653 58.96 297.653 59.0062 297.636 59.0473C297.637 59.0816 297.628 59.1154 297.61 59.145C297.593 59.1745 297.568 59.1988 297.538 59.215C297.462 59.2562 297.377 59.2765 297.291 59.2738H295.942C295.854 59.2758 295.766 59.2589 295.685 59.2244C295.655 59.2071 295.63 59.1808 295.614 59.1491C295.598 59.1174 295.592 59.0817 295.597 59.0467C295.595 59.0167 295.601 58.9867 295.613 58.9592C295.625 58.9317 295.643 58.9075 295.666 58.8886L295.765 58.8298H295.844C295.888 58.8062 295.923 58.7677 295.942 58.7211V55.0978C295.948 55.0452 295.948 54.9922 295.942 54.9397C295.932 54.9164 295.918 54.8955 295.899 54.8785C295.88 54.8614 295.858 54.8486 295.834 54.841H295.752L295.635 54.7528C295.626 54.7326 295.621 54.7107 295.621 54.6886C295.621 54.6665 295.626 54.6446 295.635 54.6244C295.63 54.588 295.637 54.551 295.654 54.5188C295.672 54.4867 295.7 54.4614 295.734 54.4466C295.81 54.4075 295.895 54.3873 295.98 54.3879H297.33C297.415 54.3858 297.499 54.4026 297.576 54.4372C297.645 54.4372 297.675 54.5254 297.675 54.625C297.676 54.6532 297.67 54.6813 297.658 54.7069C297.646 54.7324 297.628 54.7547 297.606 54.7719L297.507 54.841H297.428C297.392 54.8586 297.362 54.886 297.34 54.92C297.323 54.9774 297.323 55.0389 297.34 55.0963V57.4176L299.46 55.3831V55.0681C299.467 55.0156 299.467 54.9625 299.46 54.91C299.45 54.8868 299.435 54.8659 299.417 54.8489C299.398 54.8319 299.376 54.8191 299.352 54.8113H299.273L299.156 54.7231C299.138 54.7068 299.125 54.6868 299.116 54.6646C299.108 54.6423 299.104 54.6185 299.106 54.5947C299.102 54.5574 299.111 54.5198 299.13 54.4878C299.15 54.4559 299.18 54.4314 299.215 54.4184C299.287 54.3785 299.369 54.3582 299.452 54.3596H300.763C300.851 54.3588 300.938 54.3756 301.019 54.409C301.048 54.426 301.072 54.4497 301.089 54.4781C301.106 54.5065 301.116 54.5386 301.118 54.5717C301.12 54.6049 301.114 54.6379 301.1 54.6681C301.086 54.6983 301.065 54.7247 301.039 54.7449L300.94 54.8139H300.862C300.825 54.8316 300.795 54.8589 300.774 54.893C300.76 54.9514 300.76 55.0123 300.774 55.0707V58.6952C300.792 58.7424 300.827 58.7811 300.872 58.804H300.951C300.999 58.8245 301.043 58.8545 301.079 58.8921C301.096 58.9088 301.109 58.9289 301.118 58.951C301.126 58.9732 301.13 58.9968 301.129 59.0205C301.127 59.0557 301.116 59.0898 301.097 59.1194C301.078 59.1489 301.051 59.1728 301.02 59.1886C300.944 59.2298 300.859 59.2501 300.774 59.2474H299.424C299.339 59.2494 299.255 59.2326 299.178 59.198C299.144 59.1833 299.116 59.158 299.098 59.1258C299.08 59.0937 299.073 59.0566 299.079 59.0202C299.077 58.9902 299.082 58.9602 299.094 58.9327C299.106 58.9052 299.125 58.881 299.148 58.8621L299.247 58.8034H299.325C299.37 58.7797 299.405 58.7412 299.424 58.6946V56.0974L297.304 58.132L297.321 58.4555Z" fill="white"/>
<path fill-rule="evenodd" clip-rule="evenodd" d="M277.734 62.6865C277.773 62.5829 277.833 62.4886 277.91 62.41C277.997 62.3521 278.102 62.3276 278.206 62.341H279.526C279.558 62.3396 279.59 62.3448 279.62 62.3561C279.65 62.3675 279.677 62.3847 279.7 62.4069C279.723 62.429 279.741 62.4556 279.754 62.485C279.766 62.5145 279.773 62.5461 279.773 62.5781C279.772 62.6124 279.764 62.6463 279.749 62.6771C279.734 62.7079 279.712 62.7348 279.685 62.7558L279.497 62.8349C279.463 62.8382 279.429 62.8498 279.4 62.8687C279.371 62.8877 279.347 62.9133 279.329 62.9436C279.311 63.0182 279.311 63.0962 279.329 63.1707V66.7162C279.329 66.7162 279.329 66.7853 279.438 66.8149H279.517C279.564 66.841 279.608 66.8743 279.645 66.9137C279.659 66.9516 279.659 66.9933 279.645 67.0312C279.645 67.0678 279.635 67.1036 279.616 67.1347C279.596 67.1659 279.569 67.191 279.536 67.2075C279.464 67.2475 279.382 67.2678 279.3 67.2663H277.939C277.854 67.2684 277.77 67.2515 277.693 67.2169C277.659 67.1993 277.632 67.1719 277.614 67.1383C277.597 67.1048 277.59 67.0668 277.594 67.0292C277.598 66.97 277.623 66.9142 277.663 66.8711L277.762 66.8123H277.841C277.863 66.8039 277.884 66.7907 277.901 66.7737C277.918 66.7566 277.931 66.7361 277.939 66.7136V63.4963L276.795 66.222L276.667 66.4788C276.623 66.5409 276.563 66.59 276.494 66.621C276.425 66.652 276.348 66.6638 276.273 66.6551C276.161 66.6712 276.049 66.6712 275.937 66.6551C275.849 66.5942 275.78 66.5083 275.74 66.4083L274.488 63.6136V66.7738L274.664 66.8528C274.699 66.8519 274.734 66.8606 274.765 66.878C274.796 66.8953 274.822 66.9208 274.84 66.9516C274.849 66.9718 274.853 66.9937 274.853 67.0158C274.853 67.0379 274.849 67.0598 274.84 67.08C274.84 67.1787 274.781 67.2381 274.664 67.2775H273.432C273.407 67.2776 273.382 67.2725 273.359 67.2623C273.336 67.2522 273.316 67.2372 273.299 67.2186C273.282 67.1999 273.27 67.1779 273.262 67.154C273.255 67.1301 273.253 67.1049 273.256 67.08C273.255 67.0316 273.271 66.9844 273.299 66.9453C273.327 66.9062 273.367 66.8772 273.413 66.8625L273.63 66.7744C273.666 66.7386 273.694 66.6945 273.709 66.646C273.714 66.6132 273.714 66.58 273.709 66.5472C273.709 66.5472 273.709 66.4782 273.709 66.4485V63.0321C273.694 62.9833 273.667 62.9392 273.63 62.9036C273.566 62.8505 273.493 62.8106 273.413 62.7861L273.246 62.7273C273.218 62.7102 273.195 62.6852 273.181 62.6554C273.167 62.6255 273.162 62.5922 273.167 62.5596C273.165 62.516 273.177 62.473 273.202 62.4373C273.227 62.4015 273.263 62.3751 273.305 62.3621H275.119C275.181 62.3554 275.244 62.3636 275.302 62.3859C275.361 62.4082 275.413 62.4441 275.454 62.4905C275.454 62.4905 275.523 62.6374 275.612 62.8361L276.598 65.2749L277.734 62.6865Z" fill="white"/>
<path fill-rule="evenodd" clip-rule="evenodd" d="M281.733 66.4391V66.7156C281.733 66.7156 281.733 66.7846 281.831 66.8143H281.91C281.957 66.8409 282 66.8742 282.038 66.913C282.055 66.9272 282.069 66.9453 282.077 66.9658C282.086 66.9862 282.089 67.0084 282.087 67.0305C282.088 67.0673 282.078 67.1035 282.059 67.1349C282.04 67.1663 282.012 67.1918 281.979 67.2083C281.904 67.2495 281.819 67.2698 281.733 67.2671H280.383C280.299 67.2692 280.214 67.2523 280.137 67.2177C280.103 67.2001 280.076 67.1727 280.059 67.1393C280.041 67.1058 280.034 67.0678 280.038 67.0303C280.038 67.0005 280.044 66.971 280.056 66.9437C280.067 66.9164 280.085 66.892 280.107 66.8722L280.206 66.8134H280.285C280.307 66.805 280.328 66.7918 280.345 66.7748C280.362 66.7577 280.375 66.7373 280.383 66.7147V63.0913C280.394 63.0359 280.394 62.979 280.383 62.9236C280.383 62.9236 280.383 62.8545 280.275 62.8248H280.196L280.078 62.7458C280.059 62.7223 280.044 62.6947 280.036 62.6649C280.028 62.6352 280.027 62.604 280.033 62.5737C280.038 62.5435 280.051 62.5148 280.069 62.4899C280.087 62.465 280.11 62.4444 280.137 62.4296C280.215 62.4137 280.296 62.4137 280.374 62.4296H281.723C281.808 62.4131 281.895 62.4131 281.98 62.4296C282.013 62.4473 282.041 62.4747 282.058 62.5082C282.076 62.5417 282.083 62.5798 282.078 62.6174C282.076 62.6769 282.052 62.7334 282.009 62.7755L281.901 62.8342H281.822C281.788 62.8548 281.758 62.8816 281.734 62.9133C281.722 62.9753 281.722 63.0391 281.734 63.101V65.4518L283.854 63.4172V63.101C283.865 63.0456 283.865 62.9887 283.854 62.9333C283.825 62.8933 283.788 62.8597 283.746 62.8345H283.677L283.548 62.7555C283.536 62.7102 283.536 62.6624 283.548 62.6171C283.549 62.5805 283.559 62.5447 283.578 62.5136C283.597 62.4824 283.624 62.4572 283.657 62.4408C283.738 62.424 283.822 62.424 283.903 62.4408H285.253C285.334 62.424 285.418 62.424 285.499 62.4408C285.568 62.4408 285.598 62.5289 285.598 62.6285C285.599 62.6584 285.594 62.6881 285.582 62.7155C285.57 62.7429 285.552 62.7672 285.529 62.7866L285.43 62.8454H285.352C285.314 62.8609 285.283 62.8888 285.264 62.9244C285.247 62.9858 285.247 63.0505 285.264 63.1119V66.7364C285.264 66.7364 285.264 66.8055 285.372 66.8351H285.451C285.499 66.8612 285.542 66.8945 285.579 66.9339C285.579 66.9339 285.579 66.9927 285.579 67.0514C285.579 67.088 285.569 67.1238 285.55 67.155C285.531 67.1861 285.503 67.2113 285.471 67.2277C285.399 67.2691 285.317 67.2895 285.234 67.2865H283.884C283.796 67.2894 283.709 67.2725 283.628 67.2371C283.595 67.2194 283.567 67.192 283.55 67.1585C283.532 67.125 283.525 67.087 283.529 67.0494C283.534 66.9902 283.558 66.9344 283.599 66.8913L283.707 66.8325H283.776C283.823 66.8139 283.862 66.7788 283.885 66.7338V64.1365L281.765 66.1711L281.733 66.4391Z" fill="white"/>
<path fill-rule="evenodd" clip-rule="evenodd" d="M287.64 63.051C287.64 62.982 287.64 62.9226 287.473 62.8536C287.424 62.8232 287.384 62.781 287.357 62.7309C287.329 62.6807 287.315 62.6243 287.315 62.5671C287.315 62.4201 287.443 62.3399 287.709 62.3399H290.667C290.752 62.3234 290.839 62.3234 290.924 62.3399C290.957 62.3576 290.985 62.385 291.002 62.4185C291.02 62.452 291.027 62.4901 291.022 62.5277C291.022 62.5582 291.014 62.5882 291.001 62.6156C290.987 62.6429 290.967 62.6669 290.943 62.6858L290.845 62.7445H290.766C290.732 62.7651 290.702 62.7919 290.678 62.8236C290.666 62.8856 290.666 62.9494 290.678 63.0114V66.6359C290.705 66.674 290.738 66.7073 290.777 66.7346H290.855C290.905 66.7577 290.949 66.7914 290.984 66.8333C290.992 66.8517 290.997 66.8718 290.997 66.8921C290.997 66.9124 290.992 66.9325 290.984 66.9509C290.984 66.9877 290.974 67.0238 290.955 67.0553C290.936 67.0867 290.908 67.1121 290.875 67.1286C290.8 67.1699 290.715 67.1901 290.629 67.1874H289.279C289.194 67.1895 289.11 67.1726 289.033 67.138C288.999 67.1203 288.972 67.0929 288.954 67.0594C288.937 67.0259 288.93 66.9879 288.934 66.9503C288.934 66.9205 288.939 66.8909 288.951 66.8636C288.963 66.8363 288.981 66.812 289.003 66.7922L289.102 66.7334H289.181C289.203 66.725 289.224 66.7118 289.241 66.6948C289.258 66.6778 289.271 66.6573 289.279 66.6347V63.2479C289.293 63.1288 289.262 63.0088 289.191 62.912L289.093 62.8627C288.988 62.8499 288.882 62.8499 288.777 62.8627H288.639C288.55 62.8712 288.464 62.8996 288.387 62.9457C288.311 62.9918 288.245 63.0545 288.195 63.1292C288.067 63.3062 287.955 63.4946 287.86 63.6922C287.611 64.2016 287.394 64.726 287.209 65.2625C287.039 65.6678 286.936 66.0981 286.904 66.5365C286.909 66.6105 286.936 66.6812 286.981 66.7394C287.027 66.7976 287.089 66.8405 287.16 66.8624C287.328 66.9506 287.417 67.0387 287.417 67.1289C287.418 67.1724 287.404 67.2149 287.377 67.2491C287.35 67.2834 287.312 67.3072 287.27 67.3167H286.191C286.109 67.3311 286.026 67.3311 285.944 67.3167C285.903 67.3057 285.866 67.2814 285.839 67.2475C285.813 67.2136 285.798 67.172 285.797 67.1289C285.783 67.091 285.783 67.0493 285.797 67.0114C285.825 66.9624 285.866 66.9219 285.915 66.8939C285.981 66.8488 286.037 66.7919 286.082 66.7261L286.181 66.4692C286.312 65.9899 286.47 65.5184 286.654 65.0571C286.723 64.8693 286.812 64.6621 286.901 64.4447L287.256 63.6743L287.402 63.3484C287.498 63.2646 287.578 63.1643 287.639 63.0522L287.64 63.051Z" fill="white"/>
<path fill-rule="evenodd" clip-rule="evenodd" d="M292.936 63.0516C292.936 62.9826 292.877 62.9232 292.769 62.8542C292.72 62.8238 292.68 62.7816 292.653 62.7315C292.625 62.6813 292.611 62.6249 292.611 62.5677C292.611 62.4208 292.739 62.3405 293.005 62.3405H295.963C296.045 62.3232 296.129 62.3232 296.21 62.3405C296.279 62.3405 296.308 62.4287 296.308 62.5283C296.31 62.5582 296.304 62.5879 296.292 62.6153C296.28 62.6427 296.262 62.667 296.24 62.6864L296.141 62.7452H296.062C296.028 62.7657 295.998 62.7925 295.974 62.8242C295.962 62.8862 295.962 62.95 295.974 63.012V66.6365C295.998 66.681 296.036 66.7159 296.083 66.7352H296.161C296.211 66.7584 296.255 66.7921 296.29 66.8339C296.29 66.8339 296.29 66.8927 296.29 66.9515C296.292 66.9872 296.284 67.0228 296.266 67.054C296.249 67.0853 296.223 67.1109 296.191 67.1278C296.116 67.169 296.031 67.1893 295.945 67.1865H294.595C294.507 67.1874 294.42 67.1706 294.339 67.1372C294.308 67.1171 294.284 67.089 294.268 67.0558C294.253 67.0226 294.247 66.9858 294.251 66.9494C294.25 66.9196 294.256 66.8901 294.268 66.8628C294.28 66.8355 294.298 66.8112 294.32 66.7913L294.419 66.7326H294.497C294.542 66.7136 294.577 66.6782 294.596 66.6338V63.2482C294.61 63.1291 294.579 63.0091 294.508 62.9124L294.409 62.863C294.305 62.8502 294.199 62.8502 294.094 62.863H293.947C293.86 62.8736 293.776 62.9029 293.701 62.949C293.627 62.995 293.562 63.0567 293.514 63.1298C293.385 63.3068 293.273 63.4953 293.178 63.6928C292.93 64.2038 292.709 64.728 292.518 65.2631C292.352 65.6704 292.251 66.1008 292.216 66.5392C292.221 66.6132 292.248 66.6839 292.294 66.7421C292.34 66.8003 292.402 66.8432 292.473 66.8651C292.64 66.9532 292.719 67.0414 292.719 67.1316C292.721 67.1739 292.708 67.2154 292.683 67.2494C292.658 67.2835 292.622 67.308 292.581 67.3191H291.506C291.425 67.3346 291.341 67.3346 291.26 67.3191C291.218 67.3081 291.182 67.2837 291.155 67.2499C291.129 67.216 291.114 67.1743 291.113 67.1313C291.099 67.0934 291.099 67.0517 291.113 67.0138C291.141 66.9648 291.182 66.9243 291.23 66.8962C291.296 66.8512 291.353 66.7943 291.398 66.7284L291.486 66.4716C291.62 65.9921 291.781 65.5206 291.969 65.0594C292.038 64.872 292.116 64.6645 292.216 64.4471L292.571 63.6766L292.717 63.3508C292.806 63.2654 292.88 63.1652 292.934 63.0546L292.936 63.0516Z" fill="white"/>
<path fill-rule="evenodd" clip-rule="evenodd" d="M297.819 61.7554C297.724 61.7693 297.628 61.7693 297.533 61.7554C297.474 61.7554 297.445 61.6467 297.445 61.5383C297.445 61.4298 297.445 61.3505 297.514 61.3211C297.6 61.2829 297.695 61.266 297.79 61.2718H300.521C300.619 61.2576 300.719 61.2576 300.817 61.2718C300.875 61.2718 300.905 61.3599 300.905 61.4692C300.905 61.5785 300.905 61.6767 300.826 61.7063C300.742 61.7548 300.646 61.7754 300.55 61.7651L297.819 61.7554ZM298.144 66.4357V66.7122C298.144 66.7122 298.144 66.7812 298.243 66.8109H298.322C298.369 66.8376 298.412 66.8708 298.45 66.9097C298.467 66.9239 298.48 66.942 298.489 66.9624C298.498 66.9829 298.501 67.0051 298.499 67.0272C298.5 67.064 298.49 67.1001 298.471 67.1315C298.451 67.1629 298.424 67.1884 298.391 67.205C298.316 67.2461 298.231 67.2664 298.145 67.2637H296.833C296.749 67.2658 296.664 67.2489 296.587 67.2144C296.553 67.1967 296.526 67.1693 296.509 67.1358C296.491 67.1023 296.484 67.0642 296.488 67.0266C296.488 66.9968 296.494 66.9673 296.506 66.94C296.518 66.9128 296.535 66.8884 296.557 66.8685L296.656 66.8097H296.735C296.757 66.8013 296.778 66.7882 296.795 66.7711C296.812 66.7541 296.825 66.7336 296.833 66.711V63.0886C296.839 63.0328 296.839 62.9765 296.833 62.9208C296.804 62.8808 296.767 62.8472 296.725 62.822H296.646L296.529 62.743C296.509 62.7195 296.494 62.6919 296.486 62.6621C296.478 62.6324 296.477 62.6012 296.483 62.571C296.488 62.5407 296.501 62.5121 296.519 62.4871C296.537 62.4622 296.56 62.4416 296.587 62.4268C296.665 62.4109 296.746 62.4109 296.824 62.4268H298.173C298.258 62.4103 298.345 62.4103 298.43 62.4268C298.463 62.4445 298.491 62.4719 298.508 62.5054C298.526 62.5389 298.533 62.577 298.528 62.6146C298.526 62.6741 298.501 62.7305 298.459 62.7727L298.351 62.8315H298.272C298.238 62.852 298.208 62.8788 298.184 62.9105C298.172 62.9724 298.172 63.0361 298.184 63.098V65.4487L300.304 63.4141V63.098C300.315 63.0426 300.315 62.9856 300.304 62.9302C300.304 62.9302 300.304 62.8611 300.195 62.8315H300.126L299.998 62.7524C299.986 62.7071 299.986 62.6593 299.998 62.614C299.998 62.5774 300.008 62.5416 300.028 62.5105C300.047 62.4793 300.074 62.4541 300.107 62.4377C300.188 62.421 300.272 62.421 300.353 62.4377H301.703C301.784 62.421 301.868 62.421 301.949 62.4377C302.018 62.4377 302.048 62.5259 302.048 62.6255C302.049 62.6553 302.043 62.6851 302.031 62.7125C302.019 62.7398 302.001 62.7642 301.979 62.7836L301.88 62.8423H301.801C301.764 62.8578 301.733 62.8857 301.713 62.9214C301.697 62.9827 301.697 63.0475 301.713 63.1088V66.7333C301.742 66.7733 301.779 66.8069 301.822 66.8321H301.901C301.948 66.8582 301.992 66.8915 302.029 66.9308C302.029 66.9308 302.029 66.9896 302.029 67.0483C302.029 67.0849 302.019 67.1208 302 67.1519C301.98 67.183 301.953 67.2082 301.92 67.2246C301.849 67.266 301.766 67.2864 301.684 67.2834H300.334C300.246 67.2863 300.158 67.2694 300.078 67.234C300.044 67.2164 300.017 67.1889 299.999 67.1554C299.982 67.1219 299.975 67.0839 299.979 67.0463C299.983 66.9872 300.008 66.9313 300.048 66.8882L300.157 66.8294H300.226C300.273 66.8109 300.311 66.7757 300.334 66.7307V64.1335L298.215 66.168L298.144 66.4357Z" fill="white"/>
<path fill-rule="evenodd" clip-rule="evenodd" d="M298.329 38.6554C299.1 38.3541 299.763 37.8267 300.23 37.1422C300.697 36.4576 300.947 35.6477 300.947 34.8186C300.947 33.9894 300.697 33.1795 300.23 32.495C299.763 31.8104 299.1 31.283 298.329 30.9818L298.033 30.8533C298.436 30.0256 298.547 29.0858 298.349 28.1868C298.195 27.5756 297.912 27.0042 297.521 26.5106C297.129 26.017 296.638 25.6124 296.078 25.3238C295.518 25.0352 294.904 24.8691 294.276 24.8366C293.647 24.8041 293.019 24.9059 292.432 25.1352L292.127 25.244C291.781 24.3729 291.166 23.6357 290.372 23.1404C289.838 22.8075 289.24 22.5902 288.617 22.5023C287.994 22.4144 287.359 22.4578 286.754 22.6299C286.149 22.8019 285.586 23.0987 285.102 23.5012C284.618 23.9038 284.223 24.4032 283.943 24.9675L283.815 25.244C282.934 24.8605 281.956 24.7571 281.015 24.9478C280.406 25.0513 279.827 25.289 279.321 25.6438C278.815 25.9986 278.394 26.4615 278.088 26.9992C277.782 27.537 277.6 28.136 277.553 28.753C277.507 29.37 277.598 29.9897 277.82 30.5671L277.928 30.8536C277.036 31.1666 276.266 31.7543 275.728 32.5326C275.384 33.043 275.159 33.6242 275.07 34.2334C274.981 34.8425 275.029 35.464 275.212 36.0518C275.395 36.6397 275.707 37.1789 276.126 37.6296C276.544 38.0803 277.059 38.4309 277.631 38.6557L277.927 38.7841C277.528 39.6163 277.417 40.5579 277.611 41.4604C277.768 42.0698 278.052 42.6391 278.444 43.1308C278.836 43.6224 279.328 44.0252 279.887 44.3126C280.446 44.6 281.059 44.7655 281.687 44.7982C282.314 44.8308 282.942 44.73 283.527 44.5022L283.833 44.3935C284.176 45.2664 284.792 46.0045 285.588 46.4971C286.122 46.8302 286.719 47.0481 287.342 47.1367C287.964 47.2253 288.599 47.1827 289.204 47.0117C289.809 46.8406 290.372 46.5449 290.856 46.1433C291.341 45.7418 291.736 45.2434 292.017 44.68L292.145 44.3935C293.026 44.7769 294.004 44.8803 294.945 44.6897C295.549 44.5836 296.122 44.3458 296.623 43.993C297.124 43.6402 297.541 43.1812 297.845 42.6485C298.149 42.1158 298.333 41.5226 298.382 40.911C298.431 40.2995 298.345 39.6845 298.13 39.1099L298.013 38.8234L298.309 38.695L298.329 38.6554ZM281.173 23.101L281.942 20.8678L284.141 21.9256C285.26 21.107 286.61 20.6659 287.996 20.6659C289.382 20.6659 290.732 21.107 291.851 21.9256L294.06 20.8678L294.829 23.101C296.185 23.2408 297.456 23.8279 298.443 24.7699C299.43 25.7119 300.077 26.9555 300.282 28.3055L302.619 29.0362L301.514 31.1398C302.366 32.1761 302.832 33.4765 302.832 34.8186C302.832 36.1607 302.366 37.4611 301.514 38.4973L302.619 40.6009L300.282 41.3317C300.077 42.6816 299.431 43.9252 298.444 44.8672C297.457 45.8092 296.185 46.3962 294.829 46.5361L294.06 48.7693L291.851 47.7115C290.732 48.5301 289.382 48.9713 287.996 48.9713C286.61 48.9713 285.26 48.5301 284.141 47.7115L281.942 48.7693L281.173 46.5361C279.817 46.3962 278.545 45.8092 277.559 44.8672C276.572 43.9252 275.925 42.6816 275.72 41.3317L273.373 40.6009L274.488 38.4973C273.633 37.4628 273.165 36.1617 273.165 34.8186C273.165 33.4754 273.633 32.1743 274.488 31.1398L273.373 29.0362L275.72 28.3055C275.925 26.9556 276.571 25.712 277.558 24.77C278.545 23.828 279.817 23.241 281.173 23.101Z" fill="white"/>
<path fill-rule="evenodd" clip-rule="evenodd" d="M299.974 28.5633L302.143 29.2447L301.157 31.2199C300.796 30.8195 300.385 30.4676 299.934 30.173C300.034 29.6559 300.061 29.1272 300.013 28.6027L299.974 28.5633ZM301.118 38.439L302.104 40.4142L299.935 41.0956C299.982 40.571 299.956 40.0424 299.856 39.5253C300.309 39.2338 300.72 38.8817 301.078 38.4786L301.118 38.439ZM294.59 46.2013L293.871 48.2652L291.839 47.2776C292.259 46.9412 292.63 46.5492 292.944 46.1123C293.484 46.2075 294.034 46.2341 294.58 46.1913L294.59 46.2013ZM284.218 47.2885L282.177 48.2761L281.467 46.2122C282.017 46.2601 282.57 46.2335 283.113 46.1331C283.424 46.5726 283.796 46.965 284.218 47.2985V47.2885ZM276.073 41.0865L273.904 40.405L274.939 38.4299C275.298 38.8329 275.709 39.1852 276.162 39.4768C276.054 39.9928 276.025 40.5222 276.074 41.0471L276.073 41.0865ZM274.939 31.2108L273.904 29.2356L276.073 28.5542C276.024 29.0791 276.053 29.6084 276.161 30.1245C275.71 30.4191 275.299 30.771 274.939 31.1714L274.939 31.2108ZM281.467 23.4385L282.177 21.3745L284.218 22.3621C283.796 22.6956 283.424 23.0881 283.114 23.5275C282.57 23.4321 282.017 23.4055 281.467 23.4485V23.4385ZM291.84 22.3513L293.871 21.3637L294.591 23.4276C294.041 23.3847 293.487 23.4112 292.944 23.5066C292.628 23.0717 292.257 22.6799 291.84 22.3413V22.3513Z" fill="white"/>
<path fill-rule="evenodd" clip-rule="evenodd" d="M281.113 39.2651L281.883 40.8651C285.732 39.6438 289.865 39.6438 293.714 40.8651L294.543 39.4823C292.906 39.541 292.442 39.018 291.989 37.902C291.704 38.1766 291.36 38.3804 290.982 38.4971C290.604 38.6138 290.205 38.64 289.815 38.5737C289.426 38.5074 289.057 38.3504 288.74 38.1154C288.422 37.8804 288.163 37.5739 287.986 37.2206C286.615 38.9193 285.254 38.9883 283.904 37.5368C283.839 37.8352 283.717 38.1181 283.543 38.3691C283.369 38.62 283.148 38.8342 282.892 38.9994C282.635 39.1645 282.349 39.2773 282.049 39.3314C281.748 39.3855 281.441 39.3797 281.143 39.3145L281.113 39.2651ZM286.566 32.2632C286.419 30.772 289.238 30.6436 289.287 32.2632C288.853 32.2632 287.986 32.1163 288.065 32.7866H287.779C287.779 32.1348 287.266 32.2729 286.566 32.2829V32.2632ZM289.849 33.0731C289.744 32.9698 289.618 32.89 289.479 32.839C289.341 32.788 289.193 32.767 289.046 32.7772C288.899 32.7875 288.756 32.8289 288.626 32.8986C288.495 32.9683 288.382 33.0648 288.292 33.1818V35.9965C289.041 37.6061 290.904 37.9716 292.295 35.9965C292.522 38.6037 294.168 39.1467 296.554 37.7642L294.061 41.8133C289.032 40.5498 286.518 40.4702 281.44 41.8133L279.093 37.6655C281.489 38.7124 282.692 38.505 283.599 35.8484C284.585 37.5667 286.557 38.0704 287.415 35.8484V33.1827C287.09 32.7384 286.626 32.669 285.995 33.0839C285.404 29.3707 290.501 29.6078 289.821 33.0839L289.849 33.0731ZM284.061 38.5147C284.153 38.5519 284.236 38.6077 284.305 38.6786C284.375 38.7495 284.429 38.8339 284.464 38.9266C284.499 39.0193 284.515 39.1183 284.51 39.2173C284.505 39.3164 284.48 39.4134 284.436 39.5023C284.643 39.0874 284.85 39.0283 285.363 39.048C285.216 40.3021 283.391 40.3515 283.066 39.4726C283.216 39.3719 283.396 39.3266 283.576 39.3446C283.756 39.3627 283.924 39.4428 284.052 39.5713C283.628 39.2651 283.905 38.7221 284.052 38.5837L284.061 38.5147ZM287.897 38.2085C287.975 38.2603 288.042 38.3269 288.094 38.4046C288.146 38.4823 288.182 38.5696 288.2 38.6613C288.218 38.753 288.218 38.8475 288.2 38.9393C288.182 39.031 288.146 39.1183 288.094 39.1961C288.37 38.8305 288.587 38.8012 289.08 38.9096C288.705 40.1243 286.85 39.8378 286.743 38.9096C286.91 38.82 287.104 38.7967 287.287 38.8443C287.469 38.8919 287.628 39.007 287.729 39.1664C287.374 38.7912 287.729 38.3072 287.927 38.1788L287.897 38.2085ZM291.713 38.5837C291.843 38.715 291.916 38.8925 291.916 39.0775C291.916 39.2625 291.843 39.44 291.713 39.5713C292.058 39.2751 292.275 39.2848 292.699 39.4923C292.078 40.6089 290.322 39.9565 290.41 39.0477C290.585 39.0066 290.769 39.0298 290.929 39.1132C291.088 39.1966 291.212 39.3346 291.278 39.502C291.012 39.0577 291.475 38.6528 291.673 38.5637L291.713 38.5837ZM295.657 37.1418L296.643 36.3814L297.678 37.1122L297.304 35.9074L298.29 35.1273H296.978L296.594 34.0107L296.209 35.1273H294.927L295.913 35.9074L295.519 37.1416L295.657 37.1418ZM294.464 32.6582L295.45 31.8977L296.495 32.6385L296.12 31.4337L297.106 30.6436H295.884L295.499 29.527L295.125 30.6436H293.843L294.829 31.4337L294.425 32.6584L294.464 32.6582ZM291.25 29.5097L292.236 28.7492L293.271 29.48L292.926 28.2459L293.912 27.4557H292.601L292.216 26.3497L291.831 27.4557H290.55L291.536 28.2462L291.132 29.4803L291.25 29.5097ZM287.02 28.158L287.424 26.9239L286.389 26.1337H287.67L288.055 25.0277L288.44 26.1337H289.751L288.765 26.9239L289.13 28.1286L288.144 27.3978L287.158 28.1583L287.02 28.158ZM282.859 29.3134L283.263 28.0793L282.277 27.2991H283.559L283.943 26.1825L284.328 27.2991H285.639L284.653 28.0793L285.028 29.284L283.993 28.5532L283.007 29.3137L282.859 29.3134ZM279.615 32.602L280.65 31.8416L281.696 32.5724L281.321 31.3676L282.307 30.5875H280.996L280.611 29.4709L280.236 30.5875H278.955L279.941 31.3676L279.536 32.6017L279.615 32.602ZM278.295 36.9176L279.281 36.1572L280.326 36.888L279.952 35.6832L280.938 34.9031H279.625L279.241 33.7865L278.866 34.9031H277.583L278.569 35.6803L278.295 36.9176Z" fill="white"/>
<defs>
<linearGradient id="paint0_linear_150_4762" x1="21.5" y1="-17.5" x2="304" y2="225.5" gradientUnits="userSpaceOnUse">
<stop stop-color="#29CBD3"/>
<stop offset="1" stop-color="#5BAC5F"/>
</linearGradient>
</defs>
</svg>
