<svg width="332" height="202" viewBox="0 0 332 202" fill="none" xmlns="http://www.w3.org/2000/svg">
<path d="M0 14C0 6.26801 6.26801 0 14 0H318C325.732 0 332 6.26801 332 14V188C332 195.732 325.732 202 318 202H14C6.26801 202 0 195.732 0 188V14Z" fill="url(#paint0_linear_150_4763)"/>
<path d="M281.145 51.132L283.505 37.2803H287.28L284.918 51.132H281.145Z" fill="white"/>
<path d="M298.58 37.5818C297.832 37.3011 296.66 37 295.197 37C291.466 37 288.838 38.8787 288.816 41.5712C288.795 43.5616 290.692 44.6719 292.124 45.3345C293.593 46.0135 294.087 46.4465 294.08 47.0527C294.071 47.9812 292.907 48.4053 291.822 48.4053C290.311 48.4053 289.508 48.1953 288.268 47.6783L287.781 47.4581L287.251 50.5589C288.133 50.9457 289.764 51.2806 291.457 51.298C295.426 51.298 298.002 49.4407 298.031 46.5654C298.046 44.9897 297.04 43.7906 294.861 42.802C293.542 42.1612 292.734 41.7336 292.742 41.0848C292.742 40.509 293.426 39.8933 294.905 39.8933C296.139 39.8742 297.033 40.1434 297.73 40.424L298.069 40.5839L298.58 37.5818Z" fill="white"/>
<path d="M308.28 37.2803H305.363C304.459 37.2803 303.783 37.5269 303.386 38.429L297.779 51.123H301.743C301.743 51.123 302.391 49.4162 302.538 49.0414C302.971 49.0414 306.823 49.0474 307.373 49.0474C307.486 49.5324 307.833 51.123 307.833 51.123H311.336L308.28 37.2803ZM303.651 46.2246C303.964 45.4265 305.156 42.3525 305.156 42.3525C305.133 42.3893 305.466 41.5505 305.656 41.0304L305.911 42.2247C305.911 42.2247 306.634 45.5311 306.785 46.2244L303.651 46.2246Z" fill="white"/>
<path d="M264.714 37.2803L264.665 37.5684C266.158 37.9297 267.491 38.4526 268.658 39.1031L272.008 51.1098L276.003 51.1053L281.947 37.2803H277.947L274.251 46.7261L273.857 44.8064C273.838 44.7471 273.818 44.6877 273.798 44.6281L272.513 38.4497C272.284 37.5726 271.622 37.3108 270.802 37.2803H264.714Z" fill="white"/>
<defs>
<linearGradient id="paint0_linear_150_4763" x1="21.5" y1="-17.5" x2="304" y2="225.5" gradientUnits="userSpaceOnUse">
<stop stop-color="#29CBD3"/>
<stop offset="1" stop-color="#5BAC5F"/>
</linearGradient>
</defs>
</svg>
