<svg width="108" height="70" viewBox="0 0 108 70" fill="none" xmlns="http://www.w3.org/2000/svg">
<g filter="url(#filter0_d_859_22093)">
<rect x="4" y="4" width="100" height="62" rx="8" fill="#3AB980"/>
</g>
<path fill-rule="evenodd" clip-rule="evenodd" d="M85.7602 10.001H96.2398C96.4648 9.99452 96.689 10.0325 96.8993 10.1129C97.1096 10.1933 97.3021 10.3145 97.4656 10.4695C97.6291 10.6245 97.7605 10.8103 97.8522 11.0162C97.9439 11.2221 97.9941 11.4442 98 11.6696V28.3307C97.9941 28.5561 97.9438 28.7782 97.8521 28.9841C97.7604 29.19 97.6291 29.3758 97.4656 29.5308C97.302 29.6858 97.1096 29.807 96.8993 29.8874C96.6889 29.9677 96.4648 30.0058 96.2398 29.9993H85.7602C85.5352 30.0058 85.311 29.9678 85.1007 29.8874C84.8904 29.807 84.6979 29.6858 84.5344 29.5308C84.3709 29.3758 84.2395 29.1901 84.1478 28.9841C84.0561 28.7782 84.0059 28.5561 84 28.3307V11.6693C84.0059 11.4439 84.0561 11.2218 84.1479 11.0159C84.2396 10.81 84.3709 10.6242 84.5344 10.4692C84.698 10.3142 84.8904 10.193 85.1007 10.1126C85.3111 10.0323 85.5352 9.99422 85.7602 10.0007V10.001Z" fill="white" stroke="#AC8734" stroke-width="0.0226399" stroke-miterlimit="22.926"/>
<path fill-rule="evenodd" clip-rule="evenodd" d="M86.9616 24.6583V24.7534C86.9696 24.7705 86.9833 24.7842 87.0003 24.7923C87.0133 24.7899 87.0267 24.7911 87.0391 24.7958C87.0526 24.8028 87.0645 24.8123 87.0743 24.824C87.0819 24.8447 87.0819 24.8675 87.0743 24.8883C87.0727 24.8978 87.0686 24.9067 87.0624 24.9141C87.0562 24.9214 87.0482 24.927 87.0391 24.9303C87.0121 24.945 86.9818 24.9522 86.9511 24.9513H86.4901C86.4587 24.9519 86.4274 24.9459 86.3985 24.9336C86.3876 24.9274 86.3787 24.918 86.3731 24.9067C86.3675 24.8954 86.3654 24.8826 86.3671 24.8701C86.3664 24.8594 86.3683 24.8487 86.3725 24.8389C86.3768 24.8291 86.3834 24.8204 86.3917 24.8137C86.4024 24.805 86.4142 24.7979 86.4269 24.7927C86.436 24.7895 86.446 24.7895 86.4551 24.7927C86.4703 24.7833 86.4825 24.7699 86.4903 24.7539V23.459C86.4925 23.4402 86.4925 23.4213 86.4903 23.4025C86.4867 23.3942 86.4814 23.3868 86.4747 23.3807C86.4681 23.3746 86.4601 23.37 86.4515 23.3673H86.4233L86.3814 23.3358C86.3752 23.33 86.3704 23.3228 86.3674 23.3149C86.3643 23.307 86.3631 23.2984 86.3638 23.2899C86.3621 23.277 86.3646 23.2639 86.3709 23.2526C86.3773 23.2412 86.3871 23.2322 86.399 23.227C86.4263 23.213 86.4565 23.2058 86.487 23.206H86.969C86.9992 23.2057 87.0292 23.2117 87.057 23.2236C87.0816 23.2236 87.0922 23.2551 87.0922 23.2907C87.0926 23.3008 87.0905 23.3108 87.0862 23.3199C87.0819 23.329 87.0756 23.337 87.0676 23.3431L87.0324 23.3678H87.0042C86.9913 23.3741 86.9804 23.3839 86.9728 23.396C86.9664 23.4165 86.9664 23.4385 86.9728 23.459V24.0551L87.3883 23.7376L87.5081 23.6247L87.5996 23.526C87.6358 23.493 87.6636 23.4519 87.6806 23.406C87.6806 23.385 87.6632 23.364 87.6282 23.343C87.6124 23.3369 87.5986 23.3264 87.5886 23.3126C87.5786 23.2988 87.5728 23.2825 87.5719 23.2655C87.572 23.2537 87.5753 23.2422 87.5815 23.2323C87.5877 23.2223 87.5966 23.2143 87.6071 23.209C87.6325 23.1975 87.6601 23.1915 87.6881 23.1914H88.1036C88.1212 23.1962 88.1368 23.2068 88.1476 23.2215C88.1585 23.2362 88.164 23.2542 88.1634 23.2725C88.1626 23.2823 88.1597 23.2918 88.1548 23.3004C88.15 23.3089 88.1433 23.3163 88.1352 23.322C88.1201 23.3388 88.1006 23.351 88.0789 23.3572C88.0215 23.3845 87.97 23.4229 87.9274 23.47L87.8429 23.5617L87.5155 23.8898C87.6296 24.0057 87.7355 24.1295 87.8324 24.2601C87.9204 24.3801 88.0085 24.5176 88.1 24.6694L88.1458 24.7399C88.1646 24.7639 88.1887 24.7833 88.2162 24.7964L88.2686 24.8278C88.2816 24.8436 88.2879 24.8639 88.2861 24.8843C88.2861 24.9125 88.2651 24.9337 88.2263 24.9473H87.6805C87.6466 24.9522 87.6122 24.9522 87.5784 24.9473C87.5619 24.9447 87.547 24.936 87.5366 24.9229C87.5262 24.9099 87.521 24.8934 87.5221 24.8767C87.5238 24.8627 87.5285 24.8492 87.5357 24.8371C87.5429 24.825 87.5525 24.8144 87.564 24.8062C87.5954 24.7852 87.6098 24.7674 87.6098 24.7568C87.577 24.6367 87.5154 24.5265 87.4302 24.4359C87.3511 24.3261 87.264 24.2224 87.1696 24.1255L86.9725 24.2737L86.9616 24.6583Z" fill="#AC8734"/>
<path fill-rule="evenodd" clip-rule="evenodd" d="M89.7696 24.1104C89.7778 23.9311 89.7351 23.7531 89.6463 23.5971C89.6105 23.5185 89.5523 23.4521 89.479 23.4063C89.4057 23.3605 89.3206 23.3373 89.2343 23.3396C89.1465 23.3388 89.0606 23.3646 88.9878 23.4137C88.9197 23.466 88.8633 23.5321 88.8223 23.6076C88.7886 23.6763 88.7627 23.7484 88.7449 23.8228C88.714 23.9255 88.7046 24.0334 88.7171 24.1399C88.7345 24.2849 88.7798 24.4251 88.8505 24.5528C88.8871 24.6298 88.9447 24.6948 89.0167 24.7403C89.0887 24.7859 89.1721 24.81 89.2572 24.81C89.3423 24.81 89.4257 24.7859 89.4977 24.7403C89.5697 24.6948 89.6273 24.6298 89.6639 24.5528C89.7415 24.404 89.7502 24.3607 89.7696 24.1104ZM88.5159 24.74C88.4255 24.6543 88.3535 24.551 88.3044 24.4363C88.2554 24.3217 88.2303 24.1982 88.2307 24.0735C88.2275 23.9496 88.2518 23.8265 88.3017 23.7131C88.3516 23.5996 88.426 23.4987 88.5195 23.4175C88.7127 23.2441 88.9645 23.1507 89.2238 23.1565C89.4812 23.1512 89.7316 23.2403 89.9281 23.4069C90.0245 23.4885 90.1015 23.5908 90.1533 23.7061C90.2051 23.8215 90.2304 23.947 90.2274 24.0735C90.2306 24.1995 90.2054 24.3245 90.1536 24.4394C90.1017 24.5542 90.0246 24.6558 89.9281 24.7366C89.7291 24.9124 89.4714 25.0069 89.2062 25.0011C89.0764 25.0018 88.9476 24.9791 88.8259 24.9341C88.7102 24.8916 88.6047 24.8256 88.5159 24.74Z" fill="#AC8734"/>
<path fill-rule="evenodd" clip-rule="evenodd" d="M90.9397 24.1123C91.0708 24.0993 91.1978 24.0597 91.313 23.9959C91.3694 23.9667 91.4169 23.9228 91.4503 23.8688C91.4838 23.8147 91.5021 23.7527 91.5032 23.6891C91.506 23.6442 91.4986 23.5993 91.4815 23.5578C91.4644 23.5162 91.4381 23.4791 91.4046 23.4492C91.3293 23.3878 91.234 23.3564 91.137 23.3611H91.0385C91.0155 23.3687 90.9942 23.3807 90.9757 23.3963C90.9652 23.4057 90.9567 23.4171 90.9506 23.4298C90.9446 23.4425 90.9411 23.4563 90.9405 23.4704V24.1053L90.9397 24.1123ZM90.9397 24.6625V24.7507L90.9607 24.7789L91.0236 24.8071C91.0358 24.8071 91.0477 24.8104 91.0583 24.8166C91.0688 24.8228 91.0774 24.8317 91.0834 24.8424C91.0867 24.8502 91.0884 24.8586 91.0884 24.8671C91.0884 24.8756 91.0867 24.884 91.0834 24.8918C91.0837 24.9073 91.0787 24.9225 91.0692 24.9347C91.0596 24.9469 91.0461 24.9554 91.031 24.9588C90.9994 24.962 90.9676 24.962 90.936 24.9588H90.4361C90.4047 24.9595 90.3735 24.9534 90.3445 24.9411C90.3335 24.9349 90.3247 24.9256 90.319 24.9142C90.3134 24.9029 90.3114 24.8902 90.3131 24.8776C90.3124 24.867 90.3143 24.8562 90.3185 24.8464C90.3228 24.8366 90.3294 24.8279 90.3377 24.8212L90.3729 24.8002L90.4011 24.7826C90.4147 24.7728 90.4266 24.7609 90.4363 24.7473V23.4496C90.4387 23.4309 90.4387 23.4119 90.4363 23.3932C90.4328 23.3844 90.4275 23.3765 90.4209 23.3698C90.4142 23.3631 90.4063 23.3579 90.3975 23.3543H90.3694L90.3274 23.3261C90.3242 23.3189 90.3226 23.3111 90.3226 23.3032C90.3226 23.2953 90.3242 23.2875 90.3274 23.2802C90.3263 23.2678 90.3291 23.2554 90.3355 23.2446C90.3418 23.2338 90.3513 23.2253 90.3627 23.2202C90.3899 23.2062 90.4201 23.199 90.4508 23.1992H91.236C91.3232 23.1989 91.4103 23.2048 91.4966 23.2169C91.5775 23.2273 91.656 23.2511 91.729 23.2874C91.8021 23.3244 91.865 23.3789 91.9121 23.4461C91.9589 23.5159 91.9834 23.5983 91.9825 23.6824C91.9821 23.7905 91.942 23.8947 91.8699 23.9752C91.7963 24.0567 91.7063 24.1216 91.6058 24.1656C91.5011 24.2127 91.3912 24.2471 91.2784 24.2679C91.1624 24.2911 91.0445 24.303 90.9262 24.3032L90.9397 24.6625Z" fill="#AC8734"/>
<path fill-rule="evenodd" clip-rule="evenodd" d="M92.6824 23.5016V23.4701C92.6877 23.4446 92.6877 23.4182 92.6824 23.3926C92.6548 23.3796 92.6249 23.3725 92.5944 23.3716C92.4943 23.37 92.3974 23.4066 92.3232 23.4739C92.2848 23.5167 92.2364 23.5493 92.1824 23.5691C92.1196 23.5691 92.0874 23.5409 92.0874 23.4774V23.3287C92.0855 23.3183 92.0855 23.3076 92.0874 23.2972C92.0916 23.2653 92.1037 23.235 92.1225 23.209C92.1344 23.1991 92.149 23.1929 92.1644 23.1914H93.6152C93.6354 23.1914 93.655 23.1975 93.6716 23.209C93.6905 23.2354 93.7037 23.2654 93.7103 23.2972L93.7313 23.3995V23.4771C93.7313 23.54 93.6999 23.5688 93.6363 23.5688C93.5727 23.5688 93.5659 23.5373 93.4954 23.47C93.4217 23.4024 93.3242 23.3669 93.2243 23.3713C93.1945 23.3678 93.1645 23.3752 93.1399 23.3923C93.1275 23.4162 93.1214 23.4429 93.1222 23.4698V24.7537C93.1302 24.7707 93.144 24.7845 93.161 24.7925H93.1892L93.235 24.824C93.2411 24.8386 93.2411 24.8551 93.235 24.8698C93.2351 24.8821 93.2319 24.8941 93.2257 24.9047C93.2195 24.9153 93.2105 24.9239 93.1998 24.9297C93.1728 24.9445 93.1424 24.9517 93.1118 24.9507H92.63C92.5986 24.9514 92.5674 24.9454 92.5384 24.9331C92.5275 24.9269 92.5187 24.9176 92.5131 24.9064C92.5075 24.8952 92.5054 24.8826 92.507 24.8701C92.5063 24.8594 92.5082 24.8487 92.5125 24.8389C92.5168 24.8291 92.5233 24.8204 92.5316 24.8137L92.5668 24.7927H92.595C92.6109 24.7842 92.6234 24.7705 92.6302 24.7539V24.6974L92.6824 23.5016Z" fill="#AC8734"/>
<path fill-rule="evenodd" clip-rule="evenodd" d="M94.452 24.6601V24.7552C94.46 24.7723 94.4737 24.786 94.4907 24.7941H94.5189L94.5647 24.8255C94.5708 24.8402 94.5708 24.8567 94.5647 24.8714C94.5649 24.8837 94.5617 24.8957 94.5555 24.9063C94.5493 24.9169 94.5403 24.9255 94.5295 24.9313C94.5025 24.946 94.4722 24.9533 94.4415 24.9523H93.9595C93.9281 24.953 93.8969 24.947 93.868 24.9347C93.857 24.9285 93.8481 24.9191 93.8425 24.9078C93.8369 24.8965 93.8348 24.8837 93.8365 24.8712C93.8358 24.8605 93.8377 24.8498 93.842 24.84C93.8463 24.8301 93.8528 24.8215 93.8611 24.8147L93.8964 24.7937H93.9245C93.9404 24.7853 93.9529 24.7716 93.9597 24.7549V23.4609C93.9619 23.4421 93.9619 23.4232 93.9597 23.4044C93.9562 23.3961 93.9509 23.3887 93.9442 23.3826C93.9375 23.3765 93.9296 23.3719 93.921 23.3692H93.892L93.85 23.3377C93.8468 23.3305 93.8452 23.3227 93.8452 23.3148C93.8452 23.3069 93.8468 23.2991 93.85 23.2918C93.8482 23.2789 93.8506 23.2656 93.8569 23.2541C93.8633 23.2427 93.8733 23.2336 93.8853 23.2284C93.9125 23.2144 93.9427 23.2072 93.9734 23.2074H94.4553C94.4856 23.2066 94.5157 23.2126 94.5433 23.225C94.568 23.225 94.5785 23.2565 94.5785 23.2921C94.5789 23.3021 94.5769 23.3122 94.5726 23.3213C94.5683 23.3304 94.5619 23.3384 94.5539 23.3445L94.5187 23.3692H94.4905C94.4776 23.3755 94.4668 23.3853 94.4591 23.3974C94.4527 23.4179 94.4527 23.4399 94.4591 23.4604V24.2894L95.2162 23.5628V23.4503C95.2184 23.4315 95.2184 23.4126 95.2162 23.3938C95.2126 23.3855 95.2073 23.3781 95.2006 23.372C95.1939 23.3659 95.186 23.3614 95.1774 23.3586H95.1492L95.1073 23.3271C95.1011 23.3213 95.0963 23.3141 95.0933 23.3062C95.0902 23.2983 95.089 23.2897 95.0897 23.2812C95.0882 23.2679 95.0912 23.2545 95.0983 23.2431C95.1053 23.2317 95.1159 23.2229 95.1285 23.2183C95.1544 23.204 95.1835 23.1968 95.213 23.1973H95.6814C95.7128 23.197 95.7439 23.203 95.7729 23.2149C95.7831 23.221 95.7916 23.2295 95.7978 23.2396C95.8039 23.2497 95.8075 23.2612 95.8082 23.273C95.8089 23.2849 95.8067 23.2967 95.8017 23.3075C95.7968 23.3182 95.7894 23.3276 95.78 23.3349L95.7448 23.3595H95.7166C95.7037 23.3658 95.6928 23.3756 95.6851 23.3878C95.6803 23.4086 95.6803 23.4304 95.6851 23.4512V24.7457C95.6917 24.7625 95.7042 24.7764 95.7203 24.7845H95.7485C95.7657 24.7919 95.7813 24.8026 95.7943 24.816C95.8003 24.822 95.805 24.8291 95.808 24.837C95.8111 24.8449 95.8124 24.8534 95.8119 24.8619C95.8114 24.8744 95.8075 24.8866 95.8007 24.8972C95.7939 24.9077 95.7844 24.9162 95.7732 24.9219C95.7462 24.9366 95.7158 24.9438 95.6851 24.9429H95.2032C95.1729 24.9436 95.1428 24.9376 95.1152 24.9252C95.1032 24.92 95.0932 24.9109 95.0868 24.8995C95.0804 24.888 95.078 24.8747 95.0799 24.8617C95.0792 24.851 95.0811 24.8403 95.0854 24.8305C95.0897 24.8207 95.0963 24.812 95.1046 24.8053L95.1398 24.7843H95.168C95.1839 24.7758 95.1963 24.7621 95.2032 24.7455V23.8179L94.4461 24.5445L94.452 24.6601Z" fill="#AC8734"/>
<path fill-rule="evenodd" clip-rule="evenodd" d="M87.46 26.1696C87.4737 26.1326 87.4951 26.0989 87.5228 26.0709C87.5539 26.0502 87.5914 26.0414 87.6284 26.0462H88.0999C88.1113 26.0457 88.1227 26.0476 88.1333 26.0516C88.144 26.0557 88.1537 26.0618 88.162 26.0697C88.1702 26.0777 88.1767 26.0871 88.1812 26.0977C88.1856 26.1082 88.1879 26.1195 88.1879 26.1309C88.1878 26.1432 88.185 26.1553 88.1795 26.1663C88.1741 26.1773 88.1662 26.1869 88.1565 26.1944L88.0895 26.2226C88.0772 26.2238 88.0653 26.2279 88.0548 26.2347C88.0444 26.2414 88.0358 26.2506 88.0296 26.2614C88.0229 26.288 88.0229 26.3159 88.0296 26.3425V27.6088C88.0296 27.6088 88.0296 27.6334 88.0684 27.644H88.0966C88.1136 27.6533 88.129 27.6652 88.1424 27.6793C88.1474 27.6928 88.1474 27.7077 88.1424 27.7213C88.1423 27.7343 88.1387 27.7471 88.1319 27.7582C88.125 27.7693 88.1152 27.7783 88.1036 27.7842C88.0777 27.7985 88.0486 27.8057 88.019 27.8052H87.5331C87.5028 27.8059 87.4728 27.7999 87.4451 27.7876C87.4331 27.7813 87.4234 27.7715 87.4171 27.7595C87.4108 27.7475 87.4083 27.7339 87.4099 27.7205C87.4114 27.6994 87.4201 27.6795 87.4346 27.6641L87.4698 27.6431H87.498C87.506 27.6401 87.5134 27.6354 87.5194 27.6293C87.5255 27.6232 87.5302 27.6159 87.5332 27.6078V26.4588L87.1246 27.4322L87.0788 27.524C87.0631 27.5461 87.0418 27.5637 87.017 27.5747C86.9922 27.5858 86.9649 27.59 86.938 27.5869C86.8983 27.5927 86.8579 27.5927 86.8182 27.5869C86.7866 27.5652 86.762 27.5345 86.7478 27.4988L86.3005 26.5007V27.6293L86.3634 27.6576C86.3761 27.6572 86.3886 27.6603 86.3997 27.6665C86.4108 27.6727 86.4199 27.6818 86.4263 27.6928C86.4295 27.7 86.4311 27.7078 86.4311 27.7157C86.4311 27.7236 86.4295 27.7315 86.4263 27.7387C86.4263 27.7739 86.4053 27.7951 86.3634 27.8092H85.9234C85.9144 27.8093 85.9056 27.8074 85.8974 27.8038C85.8893 27.8002 85.882 27.7948 85.876 27.7882C85.8701 27.7815 85.8656 27.7736 85.8629 27.7651C85.8603 27.7566 85.8594 27.7476 85.8605 27.7387C85.8604 27.7214 85.8658 27.7046 85.876 27.6906C85.8861 27.6766 85.9004 27.6663 85.9169 27.661L85.9943 27.6295C86.0072 27.6167 86.0169 27.601 86.0225 27.5837C86.0241 27.572 86.0241 27.5601 86.0225 27.5484C86.0225 27.5484 86.0225 27.5238 86.0225 27.5132V26.293C86.017 26.2756 86.0074 26.2599 85.9943 26.2472C85.9715 26.2282 85.9451 26.2139 85.9168 26.2052L85.8569 26.1842C85.8469 26.1781 85.8388 26.1691 85.8338 26.1585C85.8288 26.1478 85.8271 26.1359 85.8288 26.1243C85.828 26.1087 85.8325 26.0933 85.8414 26.0806C85.8504 26.0678 85.8633 26.0584 85.8781 26.0538H86.526C86.5482 26.0514 86.5706 26.0543 86.5914 26.0623C86.6122 26.0702 86.6309 26.083 86.6458 26.0996C86.6458 26.0996 86.6704 26.1521 86.7021 26.223L87.0543 27.094L87.46 26.1696Z" fill="#AC8734"/>
<path fill-rule="evenodd" clip-rule="evenodd" d="M88.8895 27.5106V27.6093C88.8895 27.6093 88.8895 27.634 88.9247 27.6446H88.9529C88.9697 27.6541 88.9852 27.666 88.9987 27.6798C89.0048 27.6849 89.0095 27.6914 89.0126 27.6987C89.0157 27.706 89.0169 27.7139 89.0163 27.7218C89.0164 27.7349 89.0128 27.7479 89.006 27.7591C88.9992 27.7703 88.9893 27.7794 88.9776 27.7853C88.9507 27.8 88.9203 27.8072 88.8896 27.8063H88.4076C88.3774 27.807 88.3473 27.801 88.3196 27.7886C88.3077 27.7823 88.298 27.7726 88.2917 27.7606C88.2854 27.7487 88.2829 27.7351 88.2844 27.7217C88.2842 27.7111 88.2863 27.7005 88.2906 27.6908C88.2948 27.681 88.3011 27.6723 88.3091 27.6652L88.3443 27.6442H88.3724C88.3805 27.6412 88.3878 27.6365 88.3939 27.6305C88.3999 27.6244 88.4046 27.6171 88.4076 27.609V26.315C88.4115 26.2952 88.4115 26.2748 88.4076 26.255C88.4076 26.255 88.4076 26.2304 88.3689 26.2198H88.3407L88.2988 26.1916C88.2917 26.1832 88.2865 26.1733 88.2837 26.1627C88.2809 26.1521 88.2805 26.1409 88.2825 26.1301C88.2845 26.1193 88.2889 26.1091 88.2953 26.1002C88.3018 26.0913 88.3101 26.0839 88.3197 26.0786C88.3476 26.0729 88.3764 26.0729 88.4043 26.0786H88.8863C88.9165 26.0727 88.9476 26.0727 88.9778 26.0786C88.9898 26.085 88.9995 26.0947 89.0058 26.1067C89.0121 26.1187 89.0146 26.1323 89.013 26.1457C89.0123 26.167 89.0035 26.1871 88.9884 26.2022L88.9496 26.2231H88.9216C88.9094 26.2305 88.8987 26.2401 88.8901 26.2514C88.8858 26.2735 88.8858 26.2963 88.8901 26.3184V27.158L89.6472 26.4313V26.3184C89.6511 26.2986 89.6511 26.2783 89.6472 26.2585C89.6368 26.2442 89.6236 26.2322 89.6085 26.2233H89.5838L89.538 26.195C89.5336 26.1789 89.5336 26.1618 89.538 26.1456C89.5381 26.1325 89.5417 26.1197 89.5485 26.1086C89.5554 26.0975 89.5652 26.0885 89.5768 26.0826C89.6058 26.0766 89.6358 26.0766 89.6648 26.0826H90.1468C90.1758 26.0766 90.2058 26.0766 90.2348 26.0826C90.2594 26.0826 90.27 26.1141 90.27 26.1497C90.2704 26.1604 90.2684 26.171 90.2642 26.1808C90.2599 26.1905 90.2535 26.1992 90.2454 26.2061L90.2102 26.2271H90.182C90.1686 26.2327 90.1575 26.2426 90.1506 26.2554C90.1446 26.2773 90.1446 26.3004 90.1506 26.3223V27.6168C90.1506 27.6168 90.1506 27.6414 90.1893 27.652H90.2175C90.2345 27.6613 90.2499 27.6732 90.2633 27.6873C90.2633 27.6873 90.2633 27.7083 90.2633 27.7293C90.2633 27.7423 90.2596 27.7551 90.2528 27.7662C90.246 27.7773 90.2362 27.7863 90.2245 27.7922C90.1989 27.807 90.1696 27.8143 90.14 27.8132H89.658C89.6266 27.8142 89.5953 27.8082 89.5664 27.7956C89.5545 27.7893 89.5448 27.7795 89.5385 27.7675C89.5322 27.7555 89.5297 27.7419 89.5312 27.7285C89.5327 27.7074 89.5415 27.6875 89.556 27.6721L89.5947 27.6511H89.6194C89.6361 27.6444 89.6499 27.6319 89.6581 27.6158V26.6882L88.901 27.4148L88.8895 27.5106Z" fill="#AC8734"/>
<path fill-rule="evenodd" clip-rule="evenodd" d="M90.9978 26.2994C90.9978 26.2747 90.9978 26.2535 90.938 26.2289C90.9206 26.218 90.9064 26.203 90.8965 26.1851C90.8866 26.1672 90.8815 26.147 90.8816 26.1266C90.8816 26.0741 90.9274 26.0454 91.0225 26.0454H92.079C92.1092 26.0395 92.1403 26.0395 92.1705 26.0454C92.1825 26.0518 92.1922 26.0615 92.1985 26.0735C92.2048 26.0855 92.2073 26.0991 92.2057 26.1125C92.2055 26.1234 92.2028 26.1341 92.1979 26.1439C92.1931 26.1536 92.1861 26.1622 92.1775 26.169L92.1423 26.1899H92.1142C92.102 26.1973 92.0913 26.2069 92.0827 26.2182C92.0784 26.2403 92.0784 26.2631 92.0827 26.2852V27.5797C92.0924 27.5933 92.1043 27.6052 92.1179 27.6149H92.1461C92.1638 27.6232 92.1794 27.6352 92.1919 27.6502C92.195 27.6568 92.1966 27.6639 92.1966 27.6712C92.1966 27.6784 92.195 27.6856 92.1919 27.6922C92.192 27.7053 92.1884 27.7182 92.1816 27.7294C92.1747 27.7407 92.1649 27.7497 92.1531 27.7557C92.1262 27.7704 92.0958 27.7776 92.0651 27.7766H91.5832C91.5529 27.7774 91.5228 27.7714 91.4952 27.759C91.4832 27.7527 91.4735 27.7429 91.4672 27.7309C91.4609 27.719 91.4584 27.7054 91.46 27.692C91.4597 27.6813 91.4618 27.6708 91.4661 27.661C91.4703 27.6513 91.4766 27.6426 91.4846 27.6355L91.5198 27.6145H91.548C91.556 27.6115 91.5633 27.6068 91.5694 27.6007C91.5755 27.5946 91.5802 27.5873 91.5832 27.5792V26.3697C91.5882 26.3272 91.577 26.2843 91.5517 26.2498L91.5165 26.2321C91.4791 26.2276 91.4413 26.2276 91.4039 26.2321H91.3547C91.3228 26.2352 91.2921 26.2453 91.2647 26.2618C91.2372 26.2782 91.2138 26.3006 91.1961 26.3273C91.1502 26.3905 91.1101 26.4578 91.0764 26.5284C90.9874 26.7103 90.9098 26.8976 90.844 27.0892C90.7833 27.2339 90.7464 27.3876 90.7348 27.5442C90.7365 27.5706 90.7462 27.5959 90.7625 27.6167C90.7789 27.6374 90.8011 27.6528 90.8264 27.6606C90.8862 27.6921 90.918 27.7235 90.918 27.7558C90.9183 27.7713 90.9133 27.7865 90.9038 27.7987C90.8942 27.8109 90.8807 27.8194 90.8656 27.8228H90.4801C90.451 27.8279 90.4212 27.8279 90.3921 27.8228C90.3773 27.8189 90.3641 27.8102 90.3547 27.7981C90.3452 27.786 90.34 27.7711 90.3397 27.7558C90.3347 27.7422 90.3347 27.7273 90.3397 27.7138C90.3497 27.6963 90.3642 27.6818 90.3816 27.6718C90.4051 27.6557 90.4254 27.6354 90.4415 27.6119L90.4767 27.5202C90.5234 27.349 90.5798 27.1806 90.6457 27.0158C90.6703 26.9488 90.702 26.8748 90.7337 26.7971L90.8604 26.522L90.9128 26.4056C90.9471 26.3757 90.9757 26.3399 90.9974 26.2998L90.9978 26.2994Z" fill="#AC8734"/>
<path fill-rule="evenodd" clip-rule="evenodd" d="M92.8892 26.2996C92.8892 26.275 92.8683 26.2538 92.8294 26.2291C92.8121 26.2183 92.7978 26.2032 92.788 26.1853C92.7781 26.1674 92.773 26.1472 92.773 26.1268C92.773 26.0743 92.8188 26.0457 92.914 26.0457H93.9704C93.9994 26.0395 94.0294 26.0395 94.0584 26.0457C94.083 26.0457 94.0936 26.0771 94.0936 26.1127C94.094 26.1234 94.0921 26.134 94.0878 26.1438C94.0835 26.1536 94.0771 26.1622 94.069 26.1692L94.0338 26.1902H94.0056C93.9934 26.1975 93.9828 26.2071 93.9742 26.2184C93.9698 26.2405 93.9698 26.2633 93.9742 26.2854V27.5799C93.9826 27.5958 93.9963 27.6083 94.0129 27.6151H94.0411C94.0588 27.6234 94.0744 27.6355 94.0869 27.6504C94.0869 27.6504 94.0869 27.6714 94.0869 27.6924C94.0876 27.7051 94.0847 27.7179 94.0785 27.729C94.0722 27.7402 94.063 27.7493 94.0517 27.7553C94.0248 27.7701 93.9944 27.7773 93.9637 27.7763H93.4817C93.4503 27.7766 93.4192 27.7706 93.3902 27.7587C93.3792 27.7515 93.3705 27.7415 93.3649 27.7296C93.3594 27.7178 93.3572 27.7046 93.3587 27.6916C93.3586 27.681 93.3607 27.6705 93.365 27.6607C93.3692 27.651 93.3755 27.6423 93.3835 27.6352L93.4187 27.6142H93.4468C93.4627 27.6074 93.4753 27.5948 93.482 27.5789V26.3698C93.4871 26.3273 93.4759 26.2844 93.4506 26.2499L93.4154 26.2322C93.378 26.2277 93.3402 26.2277 93.3028 26.2322H93.2504C93.2192 26.236 93.1893 26.2465 93.1625 26.263C93.1358 26.2794 93.1129 26.3014 93.0954 26.3275C93.0495 26.3907 93.0094 26.4581 92.9757 26.5286C92.8869 26.7111 92.8081 26.8983 92.7397 27.0894C92.6807 27.2349 92.6444 27.3886 92.6321 27.5451C92.6338 27.5716 92.6435 27.5968 92.6598 27.6176C92.6762 27.6384 92.6985 27.6537 92.7237 27.6615C92.7835 27.693 92.8117 27.7245 92.8117 27.7567C92.8122 27.7718 92.8076 27.7866 92.7987 27.7988C92.7897 27.811 92.7769 27.8197 92.7624 27.8237H92.3786C92.3495 27.8292 92.3196 27.8292 92.2906 27.8237C92.2757 27.8197 92.2626 27.8111 92.2531 27.7989C92.2437 27.7868 92.2384 27.772 92.2382 27.7566C92.2331 27.7431 92.2331 27.7282 92.2382 27.7146C92.2482 27.6972 92.2626 27.6827 92.2801 27.6727C92.3036 27.6566 92.3239 27.6363 92.3399 27.6127L92.3713 27.521C92.4193 27.3498 92.4768 27.1814 92.5438 27.0167C92.5685 26.9497 92.5962 26.8756 92.6319 26.798L92.7587 26.5228L92.8111 26.4064C92.8428 26.3759 92.8691 26.3402 92.8886 26.3007L92.8892 26.2996Z" fill="#AC8734"/>
<path fill-rule="evenodd" clip-rule="evenodd" d="M94.6268 25.8367C94.5929 25.8416 94.5585 25.8416 94.5246 25.8367C94.5037 25.8367 94.4932 25.7979 94.4932 25.7591C94.4932 25.7204 94.4932 25.6921 94.5178 25.6816C94.5488 25.6679 94.5826 25.6619 94.6164 25.6639H95.5918C95.6269 25.6589 95.6624 25.6589 95.6975 25.6639C95.7184 25.6639 95.7289 25.6954 95.7289 25.7345C95.7289 25.7735 95.7289 25.8086 95.7007 25.8192C95.6709 25.8365 95.6364 25.8438 95.6021 25.8401L94.6268 25.8367ZM94.7431 27.5082V27.6069C94.7431 27.6069 94.7431 27.6316 94.7783 27.6422H94.8065C94.8233 27.6517 94.8387 27.6636 94.8522 27.6774C94.8583 27.6825 94.8631 27.689 94.8661 27.6963C94.8692 27.7036 94.8705 27.7115 94.8699 27.7194C94.87 27.7326 94.8664 27.7455 94.8595 27.7567C94.8527 27.7679 94.8429 27.777 94.8312 27.7829C94.8042 27.7976 94.7739 27.8048 94.7432 27.8039H94.2748C94.2446 27.8046 94.2145 27.7986 94.1868 27.7863C94.1749 27.7799 94.1652 27.7702 94.1589 27.7582C94.1526 27.7462 94.1501 27.7326 94.1516 27.7192C94.1514 27.7086 94.1536 27.698 94.1578 27.6883C94.1621 27.6785 94.1683 27.6698 94.1762 27.6627L94.2115 27.6418H94.2396C94.2477 27.6388 94.255 27.634 94.2611 27.628C94.2671 27.6219 94.2718 27.6146 94.2748 27.6065V26.3128C94.277 26.2929 94.277 26.2728 94.2748 26.2529C94.2644 26.2386 94.2513 26.2266 94.2361 26.2176H94.2079L94.166 26.1894C94.1589 26.181 94.1537 26.1711 94.1509 26.1605C94.1481 26.1499 94.1477 26.1388 94.1497 26.1279C94.1517 26.1171 94.1561 26.1069 94.1625 26.098C94.169 26.0891 94.1773 26.0817 94.1869 26.0765C94.2148 26.0708 94.2436 26.0708 94.2715 26.0765H94.7534C94.7837 26.0706 94.8148 26.0706 94.845 26.0765C94.857 26.0828 94.8667 26.0926 94.873 26.1045C94.8793 26.1165 94.8818 26.1301 94.8802 26.1435C94.8794 26.1648 94.8706 26.1849 94.8556 26.2L94.8168 26.221H94.7886C94.7765 26.2283 94.7658 26.2379 94.7572 26.2492C94.7529 26.2713 94.7529 26.294 94.7572 26.3162V27.1557L95.5143 26.4291V26.3162C95.5182 26.2964 95.5182 26.276 95.5143 26.2562C95.5143 26.2562 95.5143 26.2316 95.4755 26.221H95.4509L95.4051 26.1927C95.4006 26.1766 95.4006 26.1595 95.4051 26.1433C95.4051 26.1303 95.4088 26.1175 95.4156 26.1063C95.4225 26.0952 95.4322 26.0862 95.4439 26.0804C95.4729 26.0744 95.5029 26.0744 95.5319 26.0804H96.0139C96.0429 26.0744 96.0728 26.0744 96.1019 26.0804C96.1266 26.0804 96.1371 26.1118 96.1371 26.1474C96.1375 26.1581 96.1355 26.1687 96.1312 26.1785C96.127 26.1883 96.1206 26.1969 96.1125 26.2039L96.0773 26.2249H96.0491C96.0357 26.2304 96.0246 26.2404 96.0176 26.2531C96.0117 26.275 96.0117 26.2981 96.0176 26.32V27.6145C96.028 27.6288 96.0412 27.6408 96.0564 27.6497H96.0846C96.1016 27.6591 96.117 27.6709 96.1304 27.685C96.1304 27.685 96.1304 27.706 96.1304 27.727C96.1304 27.74 96.1267 27.7528 96.1199 27.764C96.1131 27.7751 96.1033 27.7841 96.0916 27.7899C96.0659 27.8047 96.0366 27.812 96.0071 27.8109H95.5251C95.4936 27.812 95.4624 27.8059 95.4335 27.7933C95.4216 27.787 95.4118 27.7772 95.4056 27.7652C95.3993 27.7533 95.3968 27.7397 95.3983 27.7262C95.3998 27.7051 95.4085 27.6852 95.4231 27.6698L95.4618 27.6488H95.4864C95.5032 27.6422 95.517 27.6296 95.5252 27.6135V26.686L94.7681 27.4126L94.7431 27.5082Z" fill="#AC8734"/>
<path fill-rule="evenodd" clip-rule="evenodd" d="M94.6863 17.7782C94.9617 17.6706 95.1983 17.4823 95.3651 17.2378C95.532 16.9933 95.6212 16.7041 95.6212 16.4079C95.6212 16.1118 95.532 15.8226 95.3651 15.5781C95.1983 15.3336 94.9617 15.1453 94.6863 15.0377L94.5806 14.9918C94.7244 14.6962 94.7641 14.3606 94.6933 14.0395C94.6382 13.8212 94.5375 13.6172 94.3977 13.4409C94.2579 13.2646 94.0822 13.1201 93.8824 13.017C93.6825 12.914 93.4631 12.8547 93.2386 12.843C93.0142 12.8314 92.7898 12.8678 92.5804 12.9497L92.4712 12.9885C92.3479 12.6774 92.1282 12.4141 91.8445 12.2372C91.6537 12.1184 91.4402 12.0408 91.2177 12.0094C90.9952 11.978 90.7686 11.9935 90.5525 12.0549C90.3363 12.1164 90.1353 12.2224 89.9625 12.3661C89.7896 12.5099 89.6486 12.6882 89.5486 12.8898L89.5028 12.9885C89.1881 12.8516 88.8391 12.8147 88.5028 12.8827C88.2852 12.9197 88.0786 13.0046 87.8978 13.1313C87.7171 13.258 87.5667 13.4234 87.4575 13.6154C87.3483 13.8074 87.2831 14.0214 87.2665 14.2417C87.25 14.4621 87.2825 14.6834 87.3618 14.8896L87.4005 14.9919C87.082 15.1037 86.8069 15.3136 86.6147 15.5916C86.4919 15.7738 86.4116 15.9814 86.3797 16.1989C86.3478 16.4165 86.3651 16.6384 86.4304 16.8484C86.4956 17.0583 86.6071 17.2509 86.7567 17.4119C86.9063 17.5728 87.09 17.698 87.2944 17.7783L87.4 17.8242C87.2575 18.1214 87.2179 18.4577 87.2873 18.78C87.3432 18.9976 87.4446 19.2009 87.5846 19.3765C87.7247 19.5521 87.9004 19.6959 88.1 19.7986C88.2996 19.9012 88.5187 19.9603 88.7428 19.972C88.9669 19.9837 89.191 19.9477 89.4001 19.8663L89.5093 19.8275C89.6316 20.1392 89.8516 20.4028 90.1362 20.5787C90.3267 20.6977 90.54 20.7755 90.7624 20.8072C90.9847 20.8388 91.2112 20.8236 91.4273 20.7625C91.6434 20.7014 91.8445 20.5958 92.0175 20.4524C92.1905 20.309 92.3317 20.131 92.4321 19.9298L92.4778 19.8275C92.7925 19.9644 93.1416 20.0013 93.4779 19.9333C93.6934 19.8954 93.8979 19.8104 94.0769 19.6844C94.2559 19.5585 94.405 19.3945 94.5136 19.2043C94.6222 19.0141 94.6876 18.8022 94.7051 18.5838C94.7227 18.3654 94.6921 18.1457 94.6153 17.9405L94.5734 17.8382L94.679 17.7924L94.6863 17.7782ZM88.5591 12.2232L88.8338 11.4256L89.6191 11.8034C90.0188 11.5111 90.501 11.3535 90.9959 11.3535C91.4909 11.3535 91.973 11.5111 92.3728 11.8034L93.1616 11.4256L93.4363 12.2232C93.9206 12.2731 94.3747 12.4828 94.7271 12.8192C95.0796 13.1556 95.3105 13.5998 95.3836 14.0819L96.2182 14.3429L95.8239 15.0941C96.128 15.4642 96.2943 15.9286 96.2943 16.4079C96.2943 16.8872 96.128 17.3517 95.8239 17.7217L96.2182 18.473L95.3837 18.734C95.3106 19.2161 95.0797 19.6602 94.7272 19.9967C94.3748 20.3331 93.9207 20.5427 93.4364 20.5927L93.1617 21.3902L92.3729 21.0125C91.9731 21.3048 91.491 21.4624 90.996 21.4624C90.5011 21.4624 90.0189 21.3048 89.6192 21.0125L88.8339 21.3902L88.5592 20.5927C88.0749 20.5427 87.6209 20.3331 87.2684 19.9967C86.916 19.6602 86.685 19.2161 86.6119 18.734L85.7737 18.473L86.1719 17.7217C85.8664 17.3523 85.6992 16.8876 85.6992 16.4079C85.6992 15.9282 85.8664 15.4636 86.1719 15.0941L85.7737 14.3429L86.6119 14.0819C86.685 13.5998 86.9159 13.1557 87.2683 12.8193C87.6207 12.4828 88.0748 12.2732 88.5591 12.2232Z" fill="#AC8734"/>
<path fill-rule="evenodd" clip-rule="evenodd" d="M95.2791 14.1728L96.0538 14.4162L95.7017 15.1216C95.5729 14.9786 95.4261 14.8529 95.2651 14.7477C95.3007 14.563 95.3102 14.3742 95.2933 14.1869L95.2791 14.1728ZM95.6877 17.6997L96.0399 18.4052L95.2652 18.6485C95.2821 18.4612 95.2727 18.2724 95.237 18.0877C95.3989 17.9836 95.5458 17.8579 95.6737 17.7139L95.6877 17.6997ZM93.3565 20.472L93.0995 21.2091L92.3741 20.8563C92.5238 20.7362 92.6565 20.5962 92.7684 20.4402C92.9613 20.4742 93.1577 20.4837 93.353 20.4684L93.3565 20.472ZM89.6521 20.8602L88.9231 21.2129L88.6696 20.4758C88.866 20.4929 89.0638 20.4834 89.2577 20.4476C89.3686 20.6045 89.5014 20.7447 89.6521 20.8638V20.8602ZM86.7434 18.6453L85.9688 18.4019L86.3385 17.6965C86.4664 17.8405 86.6133 17.9662 86.7752 18.0704C86.7367 18.2547 86.7261 18.4437 86.7438 18.6312L86.7434 18.6453ZM86.3385 15.1183L85.9688 14.4129L86.7434 14.1696C86.7258 14.357 86.7364 14.5461 86.7749 14.7304C86.6138 14.8356 86.4671 14.9613 86.3383 15.1043L86.3385 15.1183ZM88.6697 12.3425L88.9233 11.6054L89.6522 11.9581C89.5015 12.0772 89.3687 12.2174 89.2578 12.3743C89.0637 12.3403 88.8661 12.3308 88.6697 12.3461V12.3425ZM92.3742 11.9543L93.0996 11.6016L93.3566 12.3387C93.1602 12.3233 92.9626 12.3328 92.7685 12.3669C92.6557 12.2115 92.5232 12.0716 92.3742 11.9507V11.9543Z" fill="#AC8734" stroke="white" stroke-width="0.0226399" stroke-miterlimit="22.926"/>
<path fill-rule="evenodd" clip-rule="evenodd" d="M86.7664 14.7352C86.7002 14.4085 86.7189 14.0703 86.8207 13.7529C86.9225 13.4355 87.1039 13.1495 87.3476 12.9225C87.5987 12.6867 87.9016 12.5134 88.232 12.4166C88.5623 12.3198 88.9107 12.3022 89.2491 12.3653C89.4514 12.0875 89.7163 11.8615 90.0223 11.7057C90.3282 11.55 90.6666 11.4688 91.0098 11.4688C91.3531 11.4688 91.6915 11.55 91.9974 11.7057C92.3034 11.8615 92.5683 12.0875 92.7705 12.3653C93.1089 12.3025 93.4573 12.3203 93.7876 12.4171C94.1179 12.5138 94.4208 12.687 94.6721 12.9225C94.9144 13.1506 95.0949 13.4366 95.1965 13.7537C95.2982 14.0708 95.3177 14.4086 95.2531 14.7353C95.5387 14.9111 95.7746 15.1572 95.9382 15.4503C96.1018 15.7433 96.1878 16.0734 96.1878 16.4091C96.1878 16.7449 96.1018 17.075 95.9382 17.368C95.7746 17.661 95.5387 17.9072 95.2531 18.0829C95.3177 18.4097 95.2982 18.7475 95.1965 19.0646C95.0949 19.3817 94.9144 19.6677 94.6721 19.8958C94.4208 20.1313 94.1179 20.3044 93.7876 20.4012C93.4573 20.498 93.1089 20.5158 92.7705 20.453C92.5683 20.7307 92.3034 20.9567 91.9974 21.1125C91.6915 21.2683 91.3531 21.3495 91.0099 21.3495C90.6667 21.3495 90.3283 21.2683 90.0223 21.1125C89.7164 20.9567 89.4515 20.7307 89.2492 20.453C88.9109 20.5169 88.5622 20.4997 88.2317 20.4029C87.9012 20.306 87.5983 20.1323 87.3477 19.8958C87.104 19.6687 86.9226 19.3828 86.8208 19.0654C86.7191 18.7479 86.7004 18.4097 86.7666 18.0829C86.481 17.9072 86.2452 17.661 86.0816 17.368C85.9179 17.075 85.832 16.7449 85.832 16.4091C85.832 16.0734 85.9179 15.7433 86.0816 15.4503C86.2452 15.1572 86.481 14.9111 86.7666 14.7353L86.7664 14.7352Z" stroke="white" stroke-width="0.0226399" stroke-miterlimit="22.926"/>
<path fill-rule="evenodd" clip-rule="evenodd" d="M89.4564 19.9759C89.6004 20.264 89.8215 20.5063 90.0952 20.6757C90.3688 20.845 90.6841 20.9347 91.0058 20.9347C91.3275 20.9347 91.6428 20.845 91.9164 20.6757C92.1901 20.5063 92.4113 20.264 92.5552 19.9759C92.8599 20.0905 93.1904 20.1182 93.51 20.0559C93.8295 19.9937 94.1255 19.8439 94.3651 19.6232C94.5953 19.408 94.7548 19.1279 94.8227 18.82C94.8906 18.5121 94.8637 18.1908 94.7455 17.8985C95.0424 17.7829 95.2976 17.5801 95.4775 17.3167C95.6574 17.0533 95.7537 16.7416 95.7537 16.4225C95.7537 16.1033 95.6574 15.7916 95.4775 15.5283C95.2976 15.2649 95.0424 15.0621 94.7455 14.9464C94.8627 14.654 94.8891 14.333 94.8213 14.0253C94.7534 13.7176 94.5944 13.4375 94.3651 13.2217C94.1255 13.0011 93.8295 12.8514 93.51 12.7891C93.1904 12.7268 92.86 12.7545 92.5552 12.869C92.4113 12.5809 92.1901 12.3386 91.9164 12.1692C91.6428 11.9999 91.3274 11.9102 91.0058 11.9102C90.6841 11.9102 90.3687 11.9999 90.0951 12.1692C89.8214 12.3386 89.6002 12.5809 89.4563 12.869C89.152 12.7552 88.8223 12.7278 88.5034 12.7901C88.1846 12.8523 87.8892 13.0017 87.6499 13.2217C87.4196 13.4368 87.2597 13.7167 87.1912 14.0245C87.1227 14.3323 87.1488 14.6537 87.266 14.9464C86.9691 15.0621 86.7139 15.2649 86.534 15.5283C86.3541 15.7916 86.2578 16.1033 86.2578 16.4225C86.2578 16.7416 86.3541 17.0533 86.534 17.3167C86.7139 17.5801 86.9691 17.7829 87.266 17.8985C87.1488 18.1912 87.1227 18.5126 87.1912 18.8204C87.2597 19.1283 87.4196 19.4081 87.6499 19.6232C87.8892 19.8432 88.1846 19.9926 88.5035 20.0549C88.8223 20.1171 89.1521 20.0898 89.4564 19.9759Z" stroke="white" stroke-width="0.0226399" stroke-miterlimit="22.926"/>
<path d="M90.7079 11.9064L90.6328 11.5078" stroke="white" stroke-width="0.0226399" stroke-miterlimit="22.926"/>
<path d="M91.0039 11.8805V11.4785" stroke="white" stroke-width="0.0226399" stroke-miterlimit="22.926"/>
<path d="M91.3008 11.9064L91.3722 11.5078" stroke="white" stroke-width="0.0226399" stroke-miterlimit="22.926"/>
<path d="M91.5898 11.9786L91.7345 11.5977" stroke="white" stroke-width="0.0226399" stroke-miterlimit="22.926"/>
<path d="M91.8477 12.0952L92.0593 11.7461" stroke="white" stroke-width="0.0226399" stroke-miterlimit="22.926"/>
<path d="M92.0859 12.2577L92.3611 11.9473" stroke="white" stroke-width="0.0226399" stroke-miterlimit="22.926"/>
<path d="M92.3047 12.4602L92.6292 12.1992" stroke="white" stroke-width="0.0226399" stroke-miterlimit="22.926"/>
<path d="M90.4294 11.9786L90.2812 11.5977" stroke="white" stroke-width="0.0226399" stroke-miterlimit="22.926"/>
<path d="M90.1565 12.0952L89.9414 11.7461" stroke="white" stroke-width="0.0226399" stroke-miterlimit="22.926"/>
<path d="M89.9122 12.26L89.6406 11.9531" stroke="white" stroke-width="0.0226399" stroke-miterlimit="22.926"/>
<path d="M89.7109 12.4602L89.3828 12.1992" stroke="white" stroke-width="0.0226399" stroke-miterlimit="22.926"/>
<path d="M87.4629 13.4227L87.1172 13.1934" stroke="white" stroke-width="0.0226399" stroke-miterlimit="22.926"/>
<path d="M87.6514 13.2075L87.3516 12.9219" stroke="white" stroke-width="0.0226399" stroke-miterlimit="22.926"/>
<path d="M87.8762 13.0268L87.6328 12.6953" stroke="white" stroke-width="0.0226399" stroke-miterlimit="22.926"/>
<path d="M88.1291 12.8863L87.9492 12.5195" stroke="white" stroke-width="0.0226399" stroke-miterlimit="22.926"/>
<path d="M88.4059 12.7919L88.293 12.4004" stroke="white" stroke-width="0.0226399" stroke-miterlimit="22.926"/>
<path d="M88.6959 12.7419L88.6602 12.3398" stroke="white" stroke-width="0.0226399" stroke-miterlimit="22.926"/>
<path d="M88.9922 12.7419L89.0279 12.3398" stroke="white" stroke-width="0.0226399" stroke-miterlimit="22.926"/>
<path d="M87.3102 13.6654L86.9258 13.4961" stroke="white" stroke-width="0.0226399" stroke-miterlimit="22.926"/>
<path d="M87.2138 13.9304L86.8047 13.8281" stroke="white" stroke-width="0.0226399" stroke-miterlimit="22.926"/>
<path d="M87.1576 14.2095L86.7344 14.1738" stroke="white" stroke-width="0.0226399" stroke-miterlimit="22.926"/>
<path d="M87.1576 14.4902L86.7344 14.5259" stroke="white" stroke-width="0.0226399" stroke-miterlimit="22.926"/>
<path d="M86.2873 16.6914L85.8711 16.7593" stroke="white" stroke-width="0.0226399" stroke-miterlimit="22.926"/>
<path d="M86.2553 16.4102H85.832" stroke="white" stroke-width="0.0226399" stroke-miterlimit="22.926"/>
<path d="M86.2873 16.1285L85.8711 16.0605" stroke="white" stroke-width="0.0226399" stroke-miterlimit="22.926"/>
<path d="M86.3673 15.8563L85.9688 15.7188" stroke="white" stroke-width="0.0226399" stroke-miterlimit="22.926"/>
<path d="M86.484 15.6015L86.1172 15.4004" stroke="white" stroke-width="0.0226399" stroke-miterlimit="22.926"/>
<path d="M86.6562 15.3723L86.3281 15.1113" stroke="white" stroke-width="0.0226399" stroke-miterlimit="22.926"/>
<path d="M86.8614 15.1717L86.5898 14.8613" stroke="white" stroke-width="0.0226399" stroke-miterlimit="22.926"/>
<path d="M86.3673 16.9629L85.9688 17.1005" stroke="white" stroke-width="0.0226399" stroke-miterlimit="22.926"/>
<path d="M86.484 17.2168L86.1172 17.4179" stroke="white" stroke-width="0.0226399" stroke-miterlimit="22.926"/>
<path d="M86.6562 17.4473L86.3281 17.7083" stroke="white" stroke-width="0.0226399" stroke-miterlimit="22.926"/>
<path d="M86.8614 17.6484L86.5898 17.9589" stroke="white" stroke-width="0.0226399" stroke-miterlimit="22.926"/>
<path d="M87.8762 19.791L87.6328 20.1225" stroke="white" stroke-width="0.0226399" stroke-miterlimit="22.926"/>
<path d="M87.6514 19.6113L87.3516 19.897" stroke="white" stroke-width="0.0226399" stroke-miterlimit="22.926"/>
<path d="M87.4629 19.3965L87.1172 19.6258" stroke="white" stroke-width="0.0226399" stroke-miterlimit="22.926"/>
<path d="M87.3102 19.1504L86.9258 19.3232" stroke="white" stroke-width="0.0226399" stroke-miterlimit="22.926"/>
<path d="M87.2138 18.8867L86.8047 18.9925" stroke="white" stroke-width="0.0226399" stroke-miterlimit="22.926"/>
<path d="M87.1576 18.6113L86.7344 18.647" stroke="white" stroke-width="0.0226399" stroke-miterlimit="22.926"/>
<path d="M87.1576 18.3287L86.7344 18.293" stroke="white" stroke-width="0.0226399" stroke-miterlimit="22.926"/>
<path d="M88.1291 19.9336L87.9492 20.3004" stroke="white" stroke-width="0.0226399" stroke-miterlimit="22.926"/>
<path d="M88.4059 20.0273L88.293 20.4189" stroke="white" stroke-width="0.0226399" stroke-miterlimit="22.926"/>
<path d="M88.6959 20.0781L88.6602 20.4802" stroke="white" stroke-width="0.0226399" stroke-miterlimit="22.926"/>
<path d="M88.9922 20.0781L89.0279 20.4802" stroke="white" stroke-width="0.0226399" stroke-miterlimit="22.926"/>
<path d="M91.3008 20.9141L91.3758 21.3126" stroke="white" stroke-width="0.0226399" stroke-miterlimit="22.926"/>
<path d="M91.0039 20.9375V21.3395" stroke="white" stroke-width="0.0226399" stroke-miterlimit="22.926"/>
<path d="M90.7079 20.9141L90.6328 21.3126" stroke="white" stroke-width="0.0226399" stroke-miterlimit="22.926"/>
<path d="M90.4294 20.8398L90.2812 21.2208" stroke="white" stroke-width="0.0226399" stroke-miterlimit="22.926"/>
<path d="M90.1609 20.7188L89.9492 21.0715" stroke="white" stroke-width="0.0226399" stroke-miterlimit="22.926"/>
<path d="M89.9122 20.5605L89.6406 20.8674" stroke="white" stroke-width="0.0226399" stroke-miterlimit="22.926"/>
<path d="M89.7112 20.3613L89.3867 20.6223" stroke="white" stroke-width="0.0226399" stroke-miterlimit="22.926"/>
<path d="M91.5898 20.8398L91.7345 21.2208" stroke="white" stroke-width="0.0226399" stroke-miterlimit="22.926"/>
<path d="M91.8477 20.7188L92.0593 21.0715" stroke="white" stroke-width="0.0226399" stroke-miterlimit="22.926"/>
<path d="M92.0859 20.5605L92.3611 20.8674" stroke="white" stroke-width="0.0226399" stroke-miterlimit="22.926"/>
<path d="M92.3047 20.3613L92.6292 20.6223" stroke="white" stroke-width="0.0226399" stroke-miterlimit="22.926"/>
<path d="M94.5508 19.3965L94.8999 19.6258" stroke="white" stroke-width="0.0226399" stroke-miterlimit="22.926"/>
<path d="M94.3633 19.6113L94.6631 19.897" stroke="white" stroke-width="0.0226399" stroke-miterlimit="22.926"/>
<path d="M94.1328 19.791L94.3762 20.1225" stroke="white" stroke-width="0.0226399" stroke-miterlimit="22.926"/>
<path d="M93.8789 19.9336L94.0552 20.3004" stroke="white" stroke-width="0.0226399" stroke-miterlimit="22.926"/>
<path d="M93.5977 20.0273L93.707 20.4189" stroke="white" stroke-width="0.0226399" stroke-miterlimit="22.926"/>
<path d="M93.3086 20.0781L93.3479 20.4802" stroke="white" stroke-width="0.0226399" stroke-miterlimit="22.926"/>
<path d="M93.0084 20.0781L92.9727 20.4802" stroke="white" stroke-width="0.0226399" stroke-miterlimit="22.926"/>
<path d="M94.6953 19.1504L95.0797 19.3232" stroke="white" stroke-width="0.0226399" stroke-miterlimit="22.926"/>
<path d="M94.7969 18.8867L95.206 18.9925" stroke="white" stroke-width="0.0226399" stroke-miterlimit="22.926"/>
<path d="M94.8516 18.6113L95.2748 18.647" stroke="white" stroke-width="0.0226399" stroke-miterlimit="22.926"/>
<path d="M94.8516 18.3287L95.2748 18.293" stroke="white" stroke-width="0.0226399" stroke-miterlimit="22.926"/>
<path d="M95.7305 16.1281L96.1467 16.0566" stroke="white" stroke-width="0.0226399" stroke-miterlimit="22.926"/>
<path d="M95.7461 16.4102H96.1693" stroke="white" stroke-width="0.0226399" stroke-miterlimit="22.926"/>
<path d="M95.7305 16.6875L96.1467 16.7589" stroke="white" stroke-width="0.0226399" stroke-miterlimit="22.926"/>
<path d="M95.6523 16.9629L96.0509 17.1005" stroke="white" stroke-width="0.0226399" stroke-miterlimit="22.926"/>
<path d="M95.5234 17.2168L95.8902 17.4179" stroke="white" stroke-width="0.0226399" stroke-miterlimit="22.926"/>
<path d="M95.3594 17.4473L95.6839 17.7083" stroke="white" stroke-width="0.0226399" stroke-miterlimit="22.926"/>
<path d="M95.1445 17.6484L95.4197 17.9589" stroke="white" stroke-width="0.0226399" stroke-miterlimit="22.926"/>
<path d="M95.6523 15.8563L96.0509 15.7188" stroke="white" stroke-width="0.0226399" stroke-miterlimit="22.926"/>
<path d="M95.5234 15.6015L95.8902 15.4004" stroke="white" stroke-width="0.0226399" stroke-miterlimit="22.926"/>
<path d="M95.3594 15.3723L95.6839 15.1113" stroke="white" stroke-width="0.0226399" stroke-miterlimit="22.926"/>
<path d="M95.1445 15.1717L95.4197 14.8613" stroke="white" stroke-width="0.0226399" stroke-miterlimit="22.926"/>
<path d="M94.1328 13.0268L94.3762 12.6953" stroke="white" stroke-width="0.0226399" stroke-miterlimit="22.926"/>
<path d="M94.3633 13.2075L94.6631 12.9219" stroke="white" stroke-width="0.0226399" stroke-miterlimit="22.926"/>
<path d="M94.5508 13.4227L94.8999 13.1934" stroke="white" stroke-width="0.0226399" stroke-miterlimit="22.926"/>
<path d="M94.6953 13.6654L95.0797 13.4961" stroke="white" stroke-width="0.0226399" stroke-miterlimit="22.926"/>
<path d="M94.7969 13.9304L95.206 13.8281" stroke="white" stroke-width="0.0226399" stroke-miterlimit="22.926"/>
<path d="M94.8516 14.2095L95.2748 14.1738" stroke="white" stroke-width="0.0226399" stroke-miterlimit="22.926"/>
<path d="M94.8516 14.4902L95.2748 14.5259" stroke="white" stroke-width="0.0226399" stroke-miterlimit="22.926"/>
<path d="M93.8789 12.8863L94.0552 12.5195" stroke="white" stroke-width="0.0226399" stroke-miterlimit="22.926"/>
<path d="M93.5977 12.7919L93.707 12.4004" stroke="white" stroke-width="0.0226399" stroke-miterlimit="22.926"/>
<path d="M93.3086 12.7419L93.3479 12.3398" stroke="white" stroke-width="0.0226399" stroke-miterlimit="22.926"/>
<path d="M93.0084 12.7419L92.9727 12.3398" stroke="white" stroke-width="0.0226399" stroke-miterlimit="22.926"/>
<path d="M89.2539 12.3672L89.4584 12.8433" stroke="white" stroke-width="0.0226399" stroke-miterlimit="22.926"/>
<path d="M92.7628 12.3672L92.5547 12.8433" stroke="white" stroke-width="0.0226399" stroke-miterlimit="22.926"/>
<path d="M95.2431 14.7344L94.7422 14.9319" stroke="white" stroke-width="0.0226399" stroke-miterlimit="22.926"/>
<path d="M86.7656 14.7344L87.2629 14.9319" stroke="white" stroke-width="0.0226399" stroke-miterlimit="22.926"/>
<path d="M86.7656 18.0842L87.2629 17.8867" stroke="white" stroke-width="0.0226399" stroke-miterlimit="22.926"/>
<path d="M89.4584 19.9746L89.2539 20.4507" stroke="white" stroke-width="0.0226399" stroke-miterlimit="22.926"/>
<path d="M92.5547 19.9746L92.7628 20.4507" stroke="white" stroke-width="0.0226399" stroke-miterlimit="22.926"/>
<path d="M94.7422 17.8867L95.2431 18.0842" stroke="white" stroke-width="0.0226399" stroke-miterlimit="22.926"/>
<path fill-rule="evenodd" clip-rule="evenodd" d="M88.5419 17.9968L88.8166 18.5682C90.1915 18.132 91.6673 18.132 93.0422 18.5682L93.338 18.0743C92.7534 18.0953 92.5879 17.9085 92.4259 17.51C92.3243 17.608 92.2012 17.6808 92.0663 17.7225C91.9315 17.7642 91.7888 17.7735 91.6497 17.7499C91.5106 17.7262 91.379 17.6701 91.2655 17.5862C91.152 17.5022 91.0597 17.3928 90.9962 17.2666C90.5067 17.8733 90.0208 17.8979 89.5384 17.3795C89.5154 17.4861 89.4716 17.5871 89.4096 17.6768C89.3476 17.7664 89.2685 17.8429 89.1769 17.9019C89.0854 17.9608 88.9831 18.0011 88.8759 18.0205C88.7687 18.0398 88.6588 18.0377 88.5525 18.0144L88.5419 17.9968ZM90.4892 15.4962C90.4368 14.9636 91.4435 14.9177 91.4611 15.4962C91.3061 15.4962 90.9963 15.4437 91.0245 15.6831H90.9223C90.9223 15.4503 90.7392 15.4996 90.4892 15.5032V15.4962ZM91.6618 15.7854C91.6242 15.7485 91.5791 15.72 91.5297 15.7018C91.4802 15.6836 91.4275 15.6761 91.3749 15.6797C91.3224 15.6834 91.2712 15.6982 91.2248 15.7231C91.1783 15.748 91.1377 15.7824 91.1055 15.8242V16.8294C91.3731 17.4043 92.0386 17.5348 92.5352 16.8294C92.6162 17.7606 93.2043 17.9545 94.0564 17.4607L93.1658 18.9068C91.3699 18.4556 90.472 18.4271 88.6585 18.9068L87.8203 17.4255C88.676 17.7994 89.1057 17.7253 89.4296 16.7765C89.7818 17.3902 90.486 17.5701 90.7924 16.7765V15.8245C90.6762 15.6658 90.5107 15.6411 90.2853 15.7893C90.0741 14.4631 91.8946 14.5478 91.6517 15.7893L91.6618 15.7854ZM89.5947 17.7288C89.6275 17.7421 89.6572 17.762 89.6819 17.7873C89.7066 17.8126 89.7259 17.8428 89.7385 17.8759C89.751 17.909 89.7566 17.9443 89.7549 17.9797C89.7533 18.0151 89.7443 18.0497 89.7286 18.0815C89.8026 17.9333 89.8765 17.9122 90.0596 17.9192C90.0072 18.3671 89.3553 18.3847 89.2391 18.0709C89.2928 18.0349 89.3573 18.0187 89.4215 18.0252C89.4858 18.0316 89.5458 18.0602 89.5913 18.1061C89.4399 17.9968 89.5389 17.8029 89.5913 17.7534L89.5947 17.7288ZM90.9645 17.6194C90.9923 17.6379 91.0162 17.6617 91.0348 17.6895C91.0534 17.7172 91.0663 17.7484 91.0728 17.7811C91.0794 17.8139 91.0794 17.8476 91.0729 17.8804C91.0664 17.9132 91.0535 17.9443 91.035 17.9721C91.1335 17.8416 91.211 17.8311 91.3871 17.8698C91.2533 18.3036 90.5908 18.2013 90.5526 17.8698C90.612 17.8378 90.6813 17.8295 90.7466 17.8465C90.8119 17.8635 90.8684 17.9046 90.9047 17.9615C90.7779 17.8275 90.9047 17.6547 90.9751 17.6088L90.9645 17.6194ZM92.3273 17.7534C92.3738 17.8003 92.3999 17.8637 92.3999 17.9298C92.3999 17.9958 92.3738 18.0592 92.3273 18.1061C92.4505 18.0003 92.5281 18.0038 92.6795 18.0779C92.4577 18.4767 91.8308 18.2437 91.8622 17.9191C91.9247 17.9044 91.9904 17.9127 92.0473 17.9425C92.1042 17.9723 92.1485 18.0216 92.1722 18.0814C92.0771 17.9227 92.2426 17.7781 92.313 17.7463L92.3273 17.7534ZM93.7359 17.2385L94.088 16.9669L94.4578 17.2279L94.324 16.7976L94.6761 16.519H94.2078L94.0704 16.1202L93.9331 16.519H93.4753L93.8275 16.7976L93.6867 17.2384L93.7359 17.2385ZM93.3098 15.6372L93.6619 15.3656L94.0352 15.6302L93.9014 15.1999L94.2536 14.9177H93.817L93.6796 14.519L93.5458 14.9177H93.0881L93.4402 15.1999L93.2959 15.6373L93.3098 15.6372ZM92.1619 14.5128L92.514 14.2412L92.8838 14.5022L92.7606 14.0614L93.1127 13.7792H92.6444L92.507 13.3842L92.3697 13.7792H91.9119L92.2643 14.0615L92.1199 14.5023L92.1619 14.5128ZM90.6513 14.03L90.7957 13.5893L90.4259 13.3071H90.8837L91.021 12.9121L91.1584 13.3071H91.6267L91.2746 13.5893L91.4048 14.0195L91.0527 13.7586L90.7005 14.0301L90.6513 14.03ZM89.1653 14.4427L89.3097 14.0019L88.9575 13.7233H89.4153L89.5526 13.3245L89.69 13.7233H90.1583L89.8062 14.0019L89.94 14.4322L89.5702 14.1712L89.2181 14.4428L89.1653 14.4427ZM88.0068 15.6172L88.3765 15.3456L88.7499 15.6066L88.6161 15.1763L88.9682 14.8977H88.4999L88.3625 14.4989L88.2287 14.8977H87.771L88.1231 15.1763L87.9787 15.6171L88.0068 15.6172ZM87.5353 17.1584L87.8875 16.8868L88.2608 17.1478L88.127 16.7176L88.4791 16.4389H88.0105L87.8731 16.0402L87.7393 16.4389H87.2812L87.6333 16.7165L87.5353 17.1584Z" fill="#AC8734"/>
<path d="M55.7384 19.0625C55.9171 19.4904 56.0951 19.9186 56.2724 20.3471C56.3329 20.4928 56.3935 20.6385 56.4543 20.784C56.5417 20.9933 56.6284 21.2028 56.7149 21.4124C56.7423 21.4774 56.7696 21.5424 56.7978 21.6094C56.8228 21.6704 56.8479 21.7314 56.8736 21.7942C56.8958 21.8476 56.918 21.9011 56.9409 21.9561C56.9884 22.1094 56.9884 22.1094 56.9884 22.4219C56.9406 22.4265 56.8928 22.4312 56.8435 22.436C53.163 22.808 49.7743 24.3922 47.3201 27.2021C46.9453 27.6715 46.6104 28.1672 46.2853 28.6719C46.2559 28.7174 46.2266 28.7629 46.1964 28.8098C45.5047 29.9032 45.0144 31.1639 44.7228 32.4219C44.6995 32.5191 44.6762 32.6162 44.6523 32.7164C44.0885 35.3481 44.56 38.2298 45.7384 40.625C45.7628 40.6751 45.7871 40.7253 45.8122 40.7769C46.1615 41.4871 46.5646 42.1193 47.0665 42.7344C47.1024 42.7786 47.1383 42.8228 47.1752 42.8684C48.8174 44.8802 51.0963 46.3934 53.629 47.0312C53.7177 47.0542 53.7177 47.0542 53.8083 47.0777C57.1935 47.9183 60.865 47.1516 63.8329 45.4019C64.3962 45.0522 64.9452 44.6668 65.4479 44.2343C65.6603 44.0625 65.6603 44.0625 65.8165 44.0625C65.957 44.407 66.0973 44.7516 66.2376 45.0963C66.2852 45.2133 66.3328 45.3303 66.3805 45.4472C66.4495 45.6163 66.5183 45.7854 66.5871 45.9546C66.6081 46.006 66.6291 46.0575 66.6507 46.1105C66.6913 46.2105 66.7316 46.3106 66.7715 46.4108C66.814 46.5171 66.8577 46.6229 66.9023 46.7284C67.0957 47.2033 67.0957 47.2033 66.9884 47.5C66.8727 47.6091 66.8727 47.6091 66.7226 47.7081C66.6667 47.7454 66.6108 47.7827 66.5532 47.8211C66.4922 47.8601 66.4311 47.8992 66.3683 47.9395C66.3048 47.9806 66.2413 48.0218 66.1759 48.0642C65.979 48.1904 65.781 48.3144 65.5821 48.4375C65.4966 48.4905 65.4966 48.4905 65.4093 48.5446C63.8451 49.4981 62.0999 50.1196 60.3185 50.5176C60.2105 50.5418 60.2105 50.5418 60.1004 50.5665C59.0104 50.8007 57.9571 50.885 56.8458 50.8797C56.6371 50.8789 56.4284 50.8797 56.2196 50.8807C53.1692 50.8836 50.0739 49.8654 47.6134 48.0469C47.5314 47.987 47.4494 47.927 47.365 47.8653C46.761 47.4163 46.2038 46.926 45.6603 46.4062C45.5878 46.338 45.5154 46.2697 45.4408 46.1993C44.8821 45.6588 44.4 45.0789 43.9415 44.4531C43.909 44.4089 43.8765 44.3646 43.843 44.319C42.1493 41.9785 40.9638 39.004 40.9596 36.0913C40.9594 36.0261 40.9591 35.9609 40.9588 35.8937C40.9585 35.7563 40.9583 35.619 40.9583 35.4816C40.9581 35.2761 40.9567 35.0706 40.9552 34.8651C40.9512 33.6944 41.0389 32.5632 41.3341 31.4258C41.3545 31.3465 41.375 31.2673 41.396 31.1856C41.94 29.1475 42.8739 27.2098 44.1759 25.5469C44.2098 25.5031 44.2438 25.4594 44.2788 25.4143C45.1897 24.2544 46.2631 23.2081 47.4571 22.3437C47.5386 22.284 47.6201 22.2243 47.704 22.1628C49.944 20.5667 52.9207 19.0625 55.7384 19.0625Z" fill="white"/>
<path d="M54.5664 26.875C55.9586 26.875 57.3508 26.875 58.7852 26.875C59.0265 27.4061 59.2619 27.9325 59.4782 28.4732C59.5197 28.5763 59.5197 28.5763 59.5621 28.6815C59.6219 28.8299 59.6816 28.9783 59.7412 29.1268C59.9057 29.5365 60.0709 29.9458 60.236 30.3552C60.2706 30.4411 60.3052 30.5271 60.3409 30.6156C60.7265 31.5718 61.1156 32.5267 61.5049 33.4814C61.5763 33.6566 61.6477 33.8318 61.7191 34.007C62.0383 34.7904 62.3578 35.5736 62.6778 36.3567C62.856 36.7928 63.0341 37.2289 63.2121 37.6651C63.2873 37.8492 63.3626 38.0333 63.4379 38.2173C63.5426 38.4733 63.6471 38.7293 63.7516 38.9853C63.7821 39.0597 63.8126 39.1342 63.8441 39.2109C64.0454 39.705 64.2275 40.2008 64.4102 40.7031C63.1984 40.7031 61.9867 40.7031 60.7383 40.7031C60.5836 40.2802 60.5836 40.2802 60.4258 39.8486C60.0911 38.9412 59.7434 38.0392 59.3906 37.1387C58.9114 35.9145 58.4334 34.6899 57.9589 33.4639C57.8625 33.2148 57.7659 32.9657 57.6691 32.7167C57.5602 32.4363 57.4517 32.1558 57.3432 31.8753C57.3108 31.7921 57.2784 31.7089 57.245 31.6232C57.0586 31.1397 56.8942 30.6551 56.7539 30.1562C56.7023 30.1562 56.6508 30.1562 56.5977 30.1562C56.5843 30.2033 56.5709 30.2503 56.5571 30.2987C56.4136 30.7911 56.245 31.2682 56.059 31.7459C56.0293 31.8229 55.9996 31.8999 55.969 31.9793C55.8712 32.2327 55.773 32.486 55.6748 32.7393C55.6058 32.9177 55.5369 33.0963 55.468 33.2748C55.3032 33.7016 55.1381 34.1283 54.973 34.555C54.6623 35.3578 54.3523 36.1609 54.0423 36.964C53.9134 37.298 53.7843 37.6318 53.6552 37.9657C53.5864 38.1437 53.5176 38.3217 53.4489 38.4998C53.4186 38.5778 53.3884 38.6559 53.3573 38.7363C53.1047 39.3903 52.8595 40.0466 52.6133 40.7031C51.4273 40.7031 50.2414 40.7031 49.0195 40.7031C49.0817 40.3923 49.1522 40.1529 49.2692 39.8633C49.3051 39.7737 49.3411 39.6842 49.3782 39.592C49.4181 39.4936 49.4581 39.3952 49.498 39.2969C49.54 39.1929 49.5819 39.0889 49.6238 38.9849C49.737 38.7041 49.8507 38.4236 49.9645 38.1431C50.0348 37.9695 50.1051 37.7959 50.1753 37.6223C50.4441 36.958 50.7134 36.2939 50.9831 35.6299C51.1514 35.2154 51.3194 34.8009 51.4872 34.3863C52.0203 33.0694 52.5551 31.7533 53.0915 30.4378C53.1589 30.2725 53.2262 30.1073 53.2935 29.942C53.3889 29.708 53.4843 29.4741 53.5798 29.2401C53.607 29.1732 53.6342 29.1063 53.6623 29.0374C53.9578 28.314 54.2631 27.5953 54.5664 26.875Z" fill="white"/>
<defs>
<filter id="filter0_d_859_22093" x="0.171428" y="0.171428" width="107.657" height="69.6571" filterUnits="userSpaceOnUse" color-interpolation-filters="sRGB">
<feFlood flood-opacity="0" result="BackgroundImageFix"/>
<feColorMatrix in="SourceAlpha" type="matrix" values="0 0 0 0 0 0 0 0 0 0 0 0 0 0 0 0 0 0 127 0" result="hardAlpha"/>
<feOffset/>
<feGaussianBlur stdDeviation="1.91429"/>
<feComposite in2="hardAlpha" operator="out"/>
<feColorMatrix type="matrix" values="0 0 0 0 0 0 0 0 0 0 0 0 0 0 0 0 0 0 0.3 0"/>
<feBlend mode="normal" in2="BackgroundImageFix" result="effect1_dropShadow_859_22093"/>
<feBlend mode="normal" in="SourceGraphic" in2="effect1_dropShadow_859_22093" result="shape"/>
</filter>
</defs>
</svg>
