<svg width="108" height="70" viewBox="0 0 108 70" fill="none" xmlns="http://www.w3.org/2000/svg">
<g filter="url(#filter0_d_1_11508)">
<rect x="4" y="4" width="100" height="62" rx="8" fill="#3AB980"/>
</g>
<path fill-rule="evenodd" clip-rule="evenodd" d="M85.7602 10.001H96.2398C96.4648 9.99452 96.689 10.0325 96.8993 10.1129C97.1096 10.1933 97.3021 10.3145 97.4656 10.4695C97.6291 10.6245 97.7605 10.8103 97.8522 11.0162C97.9439 11.2221 97.9941 11.4442 98 11.6696V28.3307C97.9941 28.5561 97.9438 28.7782 97.8521 28.9841C97.7604 29.19 97.6291 29.3758 97.4656 29.5308C97.302 29.6858 97.1096 29.807 96.8993 29.8874C96.6889 29.9677 96.4648 30.0058 96.2398 29.9993H85.7602C85.5352 30.0058 85.311 29.9678 85.1007 29.8874C84.8904 29.807 84.6979 29.6858 84.5344 29.5308C84.3709 29.3758 84.2395 29.1901 84.1478 28.9841C84.0561 28.7782 84.0059 28.5561 84 28.3307V11.6693C84.0059 11.4439 84.0561 11.2218 84.1479 11.0159C84.2396 10.81 84.3709 10.6242 84.5344 10.4692C84.698 10.3142 84.8904 10.193 85.1007 10.1126C85.3111 10.0323 85.5352 9.99422 85.7602 10.0007V10.001Z" fill="white" stroke="#AC8734" stroke-width="0.0226399" stroke-miterlimit="22.926"/>
<path fill-rule="evenodd" clip-rule="evenodd" d="M86.9616 24.6589V24.7541C86.9696 24.7712 86.9833 24.7849 87.0003 24.7929C87.0133 24.7905 87.0267 24.7918 87.0391 24.7965C87.0526 24.8035 87.0645 24.813 87.0743 24.8246C87.0819 24.8454 87.0819 24.8682 87.0743 24.889C87.0727 24.8985 87.0686 24.9074 87.0624 24.9147C87.0562 24.9221 87.0482 24.9277 87.0391 24.9309C87.0121 24.9456 86.9818 24.9529 86.9511 24.9519H86.4901C86.4587 24.9526 86.4274 24.9466 86.3985 24.9343C86.3876 24.928 86.3787 24.9187 86.3731 24.9074C86.3675 24.896 86.3654 24.8833 86.3671 24.8708C86.3664 24.8601 86.3683 24.8494 86.3725 24.8396C86.3768 24.8298 86.3834 24.8211 86.3917 24.8143C86.4024 24.8057 86.4142 24.7986 86.4269 24.7934C86.436 24.7902 86.446 24.7902 86.4551 24.7934C86.4703 24.784 86.4825 24.7705 86.4903 24.7545V23.4597C86.4925 23.4409 86.4925 23.422 86.4903 23.4032C86.4867 23.3949 86.4814 23.3874 86.4747 23.3813C86.4681 23.3753 86.4601 23.3707 86.4515 23.368H86.4233L86.3814 23.3365C86.3752 23.3307 86.3704 23.3235 86.3674 23.3156C86.3643 23.3076 86.3631 23.2991 86.3638 23.2906C86.3621 23.2777 86.3646 23.2646 86.3709 23.2532C86.3773 23.2419 86.3871 23.2329 86.399 23.2277C86.4263 23.2137 86.4565 23.2065 86.487 23.2067H86.969C86.9992 23.2064 87.0292 23.2124 87.057 23.2243C87.0816 23.2243 87.0922 23.2558 87.0922 23.2913C87.0926 23.3014 87.0905 23.3114 87.0862 23.3206C87.0819 23.3297 87.0756 23.3377 87.0676 23.3438L87.0324 23.3685H87.0042C86.9913 23.3748 86.9804 23.3846 86.9728 23.3967C86.9664 23.4172 86.9664 23.4392 86.9728 23.4597V24.0557L87.3883 23.7383L87.5081 23.6254L87.5996 23.5266C87.6358 23.4937 87.6636 23.4526 87.6806 23.4067C87.6806 23.3857 87.6632 23.3647 87.6282 23.3437C87.6124 23.3376 87.5986 23.327 87.5886 23.3133C87.5786 23.2995 87.5728 23.2832 87.5719 23.2662C87.572 23.2544 87.5753 23.2429 87.5815 23.233C87.5877 23.223 87.5966 23.2149 87.6071 23.2097C87.6325 23.1982 87.6601 23.1921 87.6881 23.1921H88.1036C88.1212 23.1969 88.1368 23.2075 88.1476 23.2222C88.1585 23.2369 88.164 23.2549 88.1634 23.2732C88.1626 23.283 88.1597 23.2925 88.1548 23.3011C88.15 23.3096 88.1433 23.317 88.1352 23.3226C88.1201 23.3395 88.1006 23.3517 88.0789 23.3579C88.0215 23.3852 87.97 23.4235 87.9274 23.4707L87.8429 23.5624L87.5155 23.8905C87.6296 24.0064 87.7355 24.1302 87.8324 24.2608C87.9204 24.3807 88.0085 24.5183 88.1 24.6701L88.1458 24.7406C88.1646 24.7646 88.1887 24.7839 88.2162 24.797L88.2686 24.8285C88.2816 24.8443 88.2879 24.8646 88.2861 24.885C88.2861 24.9132 88.2651 24.9344 88.2263 24.9479H87.6805C87.6466 24.9529 87.6122 24.9529 87.5784 24.9479C87.5619 24.9453 87.547 24.9366 87.5366 24.9236C87.5262 24.9106 87.521 24.8941 87.5221 24.8774C87.5238 24.8634 87.5285 24.8499 87.5357 24.8378C87.5429 24.8256 87.5525 24.8151 87.564 24.8069C87.5954 24.7859 87.6098 24.7681 87.6098 24.7575C87.577 24.6374 87.5154 24.5272 87.4302 24.4366C87.3511 24.3268 87.264 24.2231 87.1696 24.1262L86.9725 24.2743L86.9616 24.6589Z" fill="#AC8734"/>
<path fill-rule="evenodd" clip-rule="evenodd" d="M89.7696 24.1111C89.7778 23.9318 89.7351 23.7538 89.6463 23.5978C89.6105 23.5191 89.5523 23.4527 89.479 23.407C89.4057 23.3612 89.3206 23.338 89.2343 23.3403C89.1465 23.3394 89.0606 23.3653 88.9878 23.4144C88.9197 23.4667 88.8633 23.5328 88.8223 23.6083C88.7886 23.6769 88.7627 23.7491 88.7449 23.8234C88.714 23.9261 88.7046 24.0341 88.7171 24.1406C88.7345 24.2856 88.7798 24.4258 88.8505 24.5535C88.8871 24.6305 88.9447 24.6955 89.0167 24.741C89.0887 24.7865 89.1721 24.8107 89.2572 24.8107C89.3423 24.8107 89.4257 24.7865 89.4977 24.741C89.5697 24.6955 89.6273 24.6305 89.6639 24.5535C89.7415 24.4047 89.7502 24.3614 89.7696 24.1111ZM88.5159 24.7407C88.4255 24.655 88.3535 24.5517 88.3044 24.437C88.2554 24.3224 88.2303 24.1989 88.2307 24.0741C88.2275 23.9502 88.2518 23.8271 88.3017 23.7137C88.3516 23.6003 88.426 23.4994 88.5195 23.4182C88.7127 23.2447 88.9645 23.1514 89.2238 23.1572C89.4812 23.1519 89.7316 23.2409 89.9281 23.4076C90.0245 23.4892 90.1015 23.5915 90.1533 23.7068C90.2051 23.8222 90.2304 23.9477 90.2274 24.0741C90.2306 24.2001 90.2054 24.3252 90.1536 24.44C90.1017 24.5549 90.0246 24.6565 89.9281 24.7373C89.7291 24.9131 89.4714 25.0075 89.2062 25.0018C89.0764 25.0025 88.9476 24.9798 88.8259 24.9348C88.7102 24.8923 88.6047 24.8262 88.5159 24.7407Z" fill="#AC8734"/>
<path fill-rule="evenodd" clip-rule="evenodd" d="M90.9397 24.1129C91.0708 24.0998 91.1978 24.0602 91.313 23.9965C91.3694 23.9673 91.4169 23.9233 91.4503 23.8693C91.4838 23.8153 91.5021 23.7532 91.5032 23.6896C91.506 23.6448 91.4986 23.5999 91.4815 23.5583C91.4644 23.5168 91.4381 23.4796 91.4046 23.4498C91.3293 23.3884 91.234 23.357 91.137 23.3616H91.0385C91.0155 23.3693 90.9942 23.3812 90.9757 23.3969C90.9652 23.4062 90.9567 23.4176 90.9506 23.4304C90.9446 23.4431 90.9411 23.4569 90.9405 23.4709V24.1058L90.9397 24.1129ZM90.9397 24.6631V24.7512L90.9607 24.7795L91.0236 24.8077C91.0358 24.8077 91.0477 24.811 91.0583 24.8172C91.0688 24.8234 91.0774 24.8323 91.0834 24.8429C91.0867 24.8508 91.0884 24.8592 91.0884 24.8677C91.0884 24.8761 91.0867 24.8845 91.0834 24.8924C91.0837 24.9079 91.0787 24.923 91.0692 24.9352C91.0596 24.9475 91.0461 24.956 91.031 24.9593C90.9994 24.9626 90.9676 24.9626 90.936 24.9593H90.4361C90.4047 24.96 90.3735 24.954 90.3445 24.9417C90.3335 24.9355 90.3247 24.9261 90.319 24.9148C90.3134 24.9035 90.3114 24.8907 90.3131 24.8782C90.3124 24.8675 90.3143 24.8568 90.3185 24.847C90.3228 24.8371 90.3294 24.8285 90.3377 24.8217L90.3729 24.8008L90.4011 24.7831C90.4147 24.7734 90.4266 24.7615 90.4363 24.7479V23.4502C90.4387 23.4314 90.4387 23.4125 90.4363 23.3937C90.4328 23.385 90.4275 23.377 90.4209 23.3704C90.4142 23.3637 90.4063 23.3584 90.3975 23.3549H90.3694L90.3274 23.3267C90.3242 23.3194 90.3226 23.3116 90.3226 23.3037C90.3226 23.2958 90.3242 23.288 90.3274 23.2808C90.3263 23.2684 90.3291 23.2559 90.3355 23.2451C90.3418 23.2344 90.3513 23.2259 90.3627 23.2208C90.3899 23.2068 90.4201 23.1996 90.4508 23.1998H91.236C91.3232 23.1994 91.4103 23.2053 91.4966 23.2174C91.5775 23.2278 91.656 23.2516 91.729 23.2879C91.8021 23.325 91.865 23.3795 91.9121 23.4466C91.9589 23.5165 91.9834 23.5988 91.9825 23.6829C91.9821 23.7911 91.942 23.8953 91.8699 23.9757C91.7963 24.0572 91.7063 24.1221 91.6058 24.1662C91.5011 24.2133 91.3912 24.2476 91.2784 24.2685C91.1624 24.2917 91.0445 24.3035 90.9262 24.3038L90.9397 24.6631Z" fill="#AC8734"/>
<path fill-rule="evenodd" clip-rule="evenodd" d="M92.6824 23.5023V23.4708C92.6877 23.4452 92.6877 23.4188 92.6824 23.3932C92.6548 23.3803 92.6249 23.3732 92.5944 23.3723C92.4943 23.3707 92.3974 23.4072 92.3232 23.4746C92.2848 23.5173 92.2364 23.55 92.1824 23.5698C92.1196 23.5698 92.0874 23.5415 92.0874 23.478V23.3293C92.0855 23.3189 92.0855 23.3083 92.0874 23.2979C92.0916 23.266 92.1037 23.2357 92.1225 23.2097C92.1344 23.1998 92.149 23.1936 92.1644 23.1921H93.6152C93.6354 23.192 93.655 23.1982 93.6716 23.2097C93.6905 23.2361 93.7037 23.2661 93.7103 23.2979L93.7313 23.4002V23.4777C93.7313 23.5407 93.6999 23.5694 93.6363 23.5694C93.5727 23.5694 93.5659 23.538 93.4954 23.4707C93.4217 23.4031 93.3242 23.3676 93.2243 23.3719C93.1945 23.3684 93.1645 23.3759 93.1399 23.3929C93.1275 23.4169 93.1214 23.4436 93.1222 23.4705V24.7543C93.1302 24.7714 93.144 24.7851 93.161 24.7932H93.1892L93.235 24.8246C93.2411 24.8393 93.2411 24.8558 93.235 24.8705C93.2351 24.8827 93.2319 24.8948 93.2257 24.9054C93.2195 24.9159 93.2105 24.9246 93.1998 24.9304C93.1728 24.9451 93.1424 24.9524 93.1118 24.9514H92.63C92.5986 24.9521 92.5674 24.9461 92.5384 24.9338C92.5275 24.9276 92.5187 24.9183 92.5131 24.9071C92.5075 24.8959 92.5054 24.8832 92.507 24.8708C92.5063 24.8601 92.5082 24.8494 92.5125 24.8396C92.5168 24.8298 92.5233 24.8211 92.5316 24.8144L92.5668 24.7934H92.595C92.6109 24.7849 92.6234 24.7712 92.6302 24.7545V24.6981L92.6824 23.5023Z" fill="#AC8734"/>
<path fill-rule="evenodd" clip-rule="evenodd" d="M94.452 24.6597V24.7549C94.46 24.7719 94.4737 24.7857 94.4907 24.7937H94.5189L94.5647 24.8252C94.5708 24.8399 94.5708 24.8564 94.5647 24.871C94.5649 24.8833 94.5617 24.8954 94.5555 24.9059C94.5493 24.9165 94.5403 24.9251 94.5295 24.931C94.5025 24.9457 94.4722 24.9529 94.4415 24.9519H93.9595C93.9281 24.9526 93.8969 24.9466 93.868 24.9343C93.857 24.9281 93.8481 24.9187 93.8425 24.9074C93.8369 24.8961 93.8348 24.8833 93.8365 24.8708C93.8358 24.8601 93.8377 24.8494 93.842 24.8396C93.8463 24.8298 93.8528 24.8211 93.8611 24.8144L93.8964 24.7934H93.9245C93.9404 24.7849 93.9529 24.7712 93.9597 24.7546V23.4605C93.9619 23.4418 93.9619 23.4228 93.9597 23.4041C93.9562 23.3958 93.9509 23.3883 93.9442 23.3822C93.9375 23.3761 93.9296 23.3716 93.921 23.3688H93.892L93.85 23.3373C93.8468 23.3301 93.8452 23.3223 93.8452 23.3144C93.8452 23.3065 93.8468 23.2987 93.85 23.2915C93.8482 23.2785 93.8506 23.2653 93.8569 23.2538C93.8633 23.2423 93.8733 23.2332 93.8853 23.228C93.9125 23.214 93.9427 23.2068 93.9734 23.207H94.4553C94.4856 23.2063 94.5157 23.2123 94.5433 23.2246C94.568 23.2246 94.5785 23.2561 94.5785 23.2917C94.5789 23.3018 94.5769 23.3118 94.5726 23.3209C94.5683 23.3301 94.5619 23.338 94.5539 23.3442L94.5187 23.3688H94.4905C94.4776 23.3751 94.4668 23.3849 94.4591 23.397C94.4527 23.4175 94.4527 23.4395 94.4591 23.46V24.289L95.2162 23.5624V23.4499C95.2184 23.4312 95.2184 23.4122 95.2162 23.3935C95.2126 23.3852 95.2073 23.3777 95.2006 23.3717C95.1939 23.3656 95.186 23.361 95.1774 23.3582H95.1492L95.1073 23.3267C95.1011 23.3209 95.0963 23.3138 95.0933 23.3058C95.0902 23.2979 95.089 23.2894 95.0897 23.2809C95.0882 23.2676 95.0912 23.2541 95.0983 23.2427C95.1053 23.2313 95.1159 23.2226 95.1285 23.2179C95.1544 23.2036 95.1835 23.1964 95.213 23.1969H95.6814C95.7128 23.1966 95.7439 23.2026 95.7729 23.2146C95.7831 23.2206 95.7916 23.2291 95.7978 23.2392C95.8039 23.2494 95.8075 23.2608 95.8082 23.2727C95.8089 23.2845 95.8067 23.2963 95.8017 23.3071C95.7968 23.3179 95.7894 23.3273 95.78 23.3345L95.7448 23.3592H95.7166C95.7037 23.3655 95.6928 23.3752 95.6851 23.3874C95.6803 23.4083 95.6803 23.43 95.6851 23.4509V24.7453C95.6917 24.7622 95.7042 24.776 95.7203 24.7841H95.7485C95.7657 24.7915 95.7813 24.8022 95.7943 24.8156C95.8003 24.8216 95.805 24.8288 95.808 24.8367C95.8111 24.8446 95.8124 24.853 95.8119 24.8615C95.8114 24.874 95.8075 24.8862 95.8007 24.8968C95.7939 24.9073 95.7844 24.9159 95.7732 24.9215C95.7462 24.9362 95.7158 24.9435 95.6851 24.9425H95.2032C95.1729 24.9432 95.1428 24.9372 95.1152 24.9249C95.1032 24.9196 95.0932 24.9106 95.0868 24.8991C95.0804 24.8876 95.078 24.8744 95.0799 24.8614C95.0792 24.8507 95.0811 24.84 95.0854 24.8301C95.0897 24.8203 95.0963 24.8117 95.1046 24.8049L95.1398 24.7839H95.168C95.1839 24.7755 95.1963 24.7617 95.2032 24.7451V23.8175L94.4461 24.5441L94.452 24.6597Z" fill="#AC8734"/>
<path fill-rule="evenodd" clip-rule="evenodd" d="M87.46 26.1692C87.4737 26.1322 87.4951 26.0986 87.5228 26.0705C87.5539 26.0498 87.5914 26.0411 87.6284 26.0458H88.0999C88.1113 26.0454 88.1227 26.0472 88.1333 26.0513C88.144 26.0553 88.1537 26.0615 88.162 26.0694C88.1702 26.0773 88.1767 26.0868 88.1812 26.0973C88.1856 26.1078 88.1879 26.1191 88.1879 26.1305C88.1878 26.1428 88.185 26.1549 88.1795 26.1659C88.1741 26.1769 88.1662 26.1865 88.1565 26.194L88.0895 26.2222C88.0772 26.2234 88.0653 26.2276 88.0548 26.2343C88.0444 26.2411 88.0358 26.2502 88.0296 26.2611C88.0229 26.2877 88.0229 26.3156 88.0296 26.3422V27.6084C88.0296 27.6084 88.0296 27.6331 88.0684 27.6436H88.0966C88.1136 27.653 88.129 27.6649 88.1424 27.6789C88.1474 27.6924 88.1474 27.7073 88.1424 27.7209C88.1423 27.7339 88.1387 27.7467 88.1319 27.7579C88.125 27.769 88.1152 27.778 88.1036 27.7838C88.0777 27.7981 88.0486 27.8054 88.019 27.8048H87.5331C87.5028 27.8056 87.4728 27.7996 87.4451 27.7872C87.4331 27.7809 87.4234 27.7711 87.4171 27.7591C87.4108 27.7472 87.4083 27.7336 87.4099 27.7202C87.4114 27.699 87.4201 27.6791 87.4346 27.6637L87.4698 27.6427H87.498C87.506 27.6397 87.5134 27.635 87.5194 27.6289C87.5255 27.6228 87.5302 27.6155 87.5332 27.6074V26.4585L87.1246 27.4319L87.0788 27.5236C87.0631 27.5458 87.0418 27.5633 87.017 27.5744C86.9922 27.5855 86.9649 27.5897 86.938 27.5866C86.8983 27.5923 86.8579 27.5923 86.8182 27.5866C86.7866 27.5648 86.762 27.5341 86.7478 27.4984L86.3005 26.5003V27.629L86.3634 27.6572C86.3761 27.6568 86.3886 27.6599 86.3997 27.6662C86.4108 27.6724 86.4199 27.6814 86.4263 27.6924C86.4295 27.6997 86.4311 27.7075 86.4311 27.7154C86.4311 27.7233 86.4295 27.7311 86.4263 27.7383C86.4263 27.7736 86.4053 27.7948 86.3634 27.8088H85.9234C85.9144 27.8089 85.9056 27.807 85.8974 27.8034C85.8893 27.7998 85.882 27.7945 85.876 27.7878C85.8701 27.7811 85.8656 27.7733 85.8629 27.7647C85.8603 27.7562 85.8594 27.7472 85.8605 27.7383C85.8604 27.721 85.8658 27.7042 85.876 27.6902C85.8861 27.6762 85.9004 27.6659 85.9169 27.6607L85.9943 27.6292C86.0072 27.6164 86.0169 27.6006 86.0225 27.5833C86.0241 27.5716 86.0241 27.5597 86.0225 27.548C86.0225 27.548 86.0225 27.5234 86.0225 27.5128V26.2926C86.017 26.2753 86.0074 26.2595 85.9943 26.2468C85.9715 26.2278 85.9451 26.2136 85.9168 26.2048L85.8569 26.1838C85.8469 26.1777 85.8388 26.1688 85.8338 26.1581C85.8288 26.1475 85.8271 26.1356 85.8288 26.1239C85.828 26.1083 85.8325 26.093 85.8414 26.0802C85.8504 26.0675 85.8633 26.058 85.8781 26.0534H86.526C86.5482 26.051 86.5706 26.0539 86.5914 26.0619C86.6122 26.0699 86.6309 26.0827 86.6458 26.0992C86.6458 26.0992 86.6704 26.1517 86.7021 26.2227L87.0543 27.0937L87.46 26.1692Z" fill="#AC8734"/>
<path fill-rule="evenodd" clip-rule="evenodd" d="M88.8895 27.5098V27.6086C88.8895 27.6086 88.8895 27.6332 88.9247 27.6438H88.9529C88.9697 27.6533 88.9852 27.6652 88.9987 27.6791C89.0048 27.6842 89.0095 27.6906 89.0126 27.6979C89.0157 27.7052 89.0169 27.7132 89.0163 27.7211C89.0164 27.7342 89.0128 27.7471 89.006 27.7583C88.9992 27.7696 88.9893 27.7786 88.9776 27.7846C88.9507 27.7993 88.9203 27.8065 88.8896 27.8055H88.4076C88.3774 27.8063 88.3473 27.8003 88.3196 27.7879C88.3077 27.7816 88.298 27.7718 88.2917 27.7599C88.2854 27.7479 88.2829 27.7344 88.2844 27.721C88.2842 27.7103 88.2863 27.6998 88.2906 27.69C88.2948 27.6803 88.3011 27.6716 88.3091 27.6645L88.3443 27.6435H88.3724C88.3805 27.6405 88.3878 27.6358 88.3939 27.6297C88.3999 27.6236 88.4046 27.6163 88.4076 27.6083V26.3142C88.4115 26.2945 88.4115 26.2741 88.4076 26.2543C88.4076 26.2543 88.4076 26.2297 88.3689 26.2191H88.3407L88.2988 26.1908C88.2917 26.1824 88.2865 26.1726 88.2837 26.1619C88.2809 26.1513 88.2805 26.1402 88.2825 26.1294C88.2845 26.1186 88.2889 26.1083 88.2953 26.0994C88.3018 26.0905 88.3101 26.0832 88.3197 26.0779C88.3476 26.0722 88.3764 26.0722 88.4043 26.0779H88.8863C88.9165 26.072 88.9476 26.072 88.9778 26.0779C88.9898 26.0842 88.9995 26.094 89.0058 26.106C89.0121 26.1179 89.0146 26.1315 89.013 26.145C89.0123 26.1662 89.0035 26.1864 88.9884 26.2014L88.9496 26.2224H88.9216C88.9094 26.2297 88.8987 26.2393 88.8901 26.2506C88.8858 26.2728 88.8858 26.2956 88.8901 26.3177V27.1572L89.6472 26.4306V26.3177C89.6511 26.2979 89.6511 26.2776 89.6472 26.2578C89.6368 26.2435 89.6236 26.2315 89.6085 26.2225H89.5838L89.538 26.1943C89.5336 26.1781 89.5336 26.161 89.538 26.1449C89.5381 26.1318 89.5417 26.119 89.5485 26.1079C89.5554 26.0968 89.5652 26.0878 89.5768 26.0819C89.6058 26.0759 89.6358 26.0759 89.6648 26.0819H90.1468C90.1758 26.0759 90.2058 26.0759 90.2348 26.0819C90.2594 26.0819 90.27 26.1134 90.27 26.149C90.2704 26.1596 90.2684 26.1702 90.2642 26.18C90.2599 26.1898 90.2535 26.1985 90.2454 26.2054L90.2102 26.2264H90.182C90.1686 26.2319 90.1575 26.2419 90.1506 26.2546C90.1446 26.2765 90.1446 26.2997 90.1506 26.3216V27.616C90.1506 27.616 90.1506 27.6407 90.1893 27.6513H90.2175C90.2345 27.6606 90.2499 27.6725 90.2633 27.6865C90.2633 27.6865 90.2633 27.7075 90.2633 27.7285C90.2633 27.7416 90.2596 27.7544 90.2528 27.7655C90.246 27.7766 90.2362 27.7856 90.2245 27.7915C90.1989 27.8063 90.1696 27.8135 90.14 27.8125H89.658C89.6266 27.8135 89.5953 27.8075 89.5664 27.7948C89.5545 27.7885 89.5448 27.7787 89.5385 27.7668C89.5322 27.7548 89.5297 27.7412 89.5312 27.7278C89.5327 27.7067 89.5415 27.6867 89.556 27.6713L89.5947 27.6503H89.6194C89.6361 27.6437 89.6499 27.6312 89.6581 27.6151V26.6875L88.901 27.4141L88.8895 27.5098Z" fill="#AC8734"/>
<path fill-rule="evenodd" clip-rule="evenodd" d="M90.9978 26.2996C90.9978 26.2749 90.9978 26.2537 90.938 26.2291C90.9206 26.2182 90.9064 26.2032 90.8965 26.1852C90.8866 26.1673 90.8815 26.1472 90.8816 26.1267C90.8816 26.0743 90.9274 26.0456 91.0225 26.0456H92.079C92.1092 26.0397 92.1403 26.0397 92.1705 26.0456C92.1825 26.0519 92.1922 26.0617 92.1985 26.0737C92.2048 26.0857 92.2073 26.0993 92.2057 26.1127C92.2055 26.1236 92.2028 26.1343 92.1979 26.1441C92.1931 26.1538 92.1861 26.1624 92.1775 26.1691L92.1423 26.1901H92.1142C92.102 26.1975 92.0913 26.207 92.0827 26.2184C92.0784 26.2405 92.0784 26.2633 92.0827 26.2854V27.5799C92.0924 27.5935 92.1043 27.6054 92.1179 27.6151H92.1461C92.1638 27.6234 92.1794 27.6354 92.1919 27.6504C92.195 27.6569 92.1966 27.6641 92.1966 27.6714C92.1966 27.6786 92.195 27.6858 92.1919 27.6923C92.192 27.7055 92.1884 27.7184 92.1816 27.7296C92.1747 27.7408 92.1649 27.7499 92.1531 27.7558C92.1262 27.7706 92.0958 27.7778 92.0651 27.7768H91.5832C91.5529 27.7776 91.5228 27.7715 91.4952 27.7592C91.4832 27.7529 91.4735 27.7431 91.4672 27.7311C91.4609 27.7192 91.4584 27.7056 91.46 27.6921C91.4597 27.6815 91.4618 27.6709 91.4661 27.6612C91.4703 27.6515 91.4766 27.6427 91.4846 27.6357L91.5198 27.6147H91.548C91.556 27.6117 91.5633 27.607 91.5694 27.6009C91.5755 27.5948 91.5802 27.5875 91.5832 27.5794V26.3699C91.5882 26.3274 91.577 26.2845 91.5517 26.2499L91.5165 26.2323C91.4791 26.2277 91.4413 26.2277 91.4039 26.2323H91.3547C91.3228 26.2354 91.2921 26.2455 91.2647 26.262C91.2372 26.2784 91.2138 26.3008 91.1961 26.3275C91.1502 26.3907 91.1101 26.458 91.0764 26.5286C90.9874 26.7105 90.9098 26.8978 90.844 27.0894C90.7833 27.2341 90.7464 27.3878 90.7348 27.5444C90.7365 27.5708 90.7462 27.5961 90.7625 27.6168C90.7789 27.6376 90.8011 27.6529 90.8264 27.6608C90.8862 27.6922 90.918 27.7237 90.918 27.7559C90.9183 27.7715 90.9133 27.7866 90.9038 27.7989C90.8942 27.8111 90.8807 27.8196 90.8656 27.823H90.4801C90.451 27.8281 90.4212 27.8281 90.3921 27.823C90.3773 27.8191 90.3641 27.8104 90.3547 27.7983C90.3452 27.7862 90.34 27.7713 90.3397 27.7559C90.3347 27.7424 90.3347 27.7275 90.3397 27.714C90.3497 27.6965 90.3642 27.682 90.3816 27.672C90.4051 27.6559 90.4254 27.6356 90.4415 27.6121L90.4767 27.5203C90.5234 27.3492 90.5798 27.1808 90.6457 27.016C90.6703 26.9489 90.702 26.875 90.7337 26.7973L90.8604 26.5222L90.9128 26.4058C90.9471 26.3759 90.9757 26.34 90.9974 26.3L90.9978 26.2996Z" fill="#AC8734"/>
<path fill-rule="evenodd" clip-rule="evenodd" d="M92.8892 26.2993C92.8892 26.2746 92.8683 26.2535 92.8294 26.2288C92.8121 26.218 92.7978 26.2029 92.788 26.185C92.7781 26.1671 92.773 26.1469 92.773 26.1265C92.773 26.074 92.8188 26.0454 92.914 26.0454H93.9704C93.9994 26.0392 94.0294 26.0392 94.0584 26.0454C94.083 26.0454 94.0936 26.0768 94.0936 26.1124C94.094 26.1231 94.0921 26.1337 94.0878 26.1435C94.0835 26.1533 94.0771 26.1619 94.069 26.1689L94.0338 26.1899H94.0056C93.9934 26.1972 93.9828 26.2068 93.9742 26.2181C93.9698 26.2402 93.9698 26.263 93.9742 26.2851V27.5796C93.9826 27.5955 93.9963 27.6079 94.0129 27.6148H94.0411C94.0588 27.6231 94.0744 27.6351 94.0869 27.6501C94.0869 27.6501 94.0869 27.6711 94.0869 27.6921C94.0876 27.7048 94.0847 27.7176 94.0785 27.7287C94.0722 27.7399 94.063 27.749 94.0517 27.755C94.0248 27.7698 93.9944 27.777 93.9637 27.776H93.4817C93.4503 27.7763 93.4192 27.7703 93.3902 27.7584C93.3792 27.7512 93.3705 27.7412 93.3649 27.7293C93.3594 27.7175 93.3572 27.7043 93.3587 27.6913C93.3586 27.6807 93.3607 27.6702 93.365 27.6604C93.3692 27.6507 93.3755 27.642 93.3835 27.6349L93.4187 27.6139H93.4468C93.4627 27.6071 93.4753 27.5945 93.482 27.5786V26.3695C93.4871 26.327 93.4759 26.2841 93.4506 26.2496L93.4154 26.2319C93.378 26.2274 93.3402 26.2274 93.3028 26.2319H93.2504C93.2192 26.2357 93.1893 26.2462 93.1625 26.2626C93.1358 26.2791 93.1129 26.3011 93.0954 26.3272C93.0495 26.3904 93.0094 26.4577 92.9757 26.5283C92.8869 26.7108 92.8081 26.898 92.7397 27.0891C92.6807 27.2346 92.6444 27.3883 92.6321 27.5448C92.6338 27.5713 92.6435 27.5965 92.6598 27.6173C92.6762 27.6381 92.6985 27.6534 92.7237 27.6612C92.7835 27.6927 92.8117 27.7242 92.8117 27.7564C92.8122 27.7715 92.8076 27.7863 92.7987 27.7985C92.7897 27.8106 92.7769 27.8194 92.7624 27.8234H92.3786C92.3495 27.8289 92.3196 27.8289 92.2906 27.8234C92.2757 27.8194 92.2626 27.8107 92.2531 27.7986C92.2437 27.7865 92.2384 27.7717 92.2382 27.7563C92.2331 27.7428 92.2331 27.7279 92.2382 27.7143C92.2482 27.6968 92.2626 27.6824 92.2801 27.6723C92.3036 27.6563 92.3239 27.636 92.3399 27.6124L92.3713 27.5207C92.4193 27.3495 92.4768 27.1811 92.5438 27.0164C92.5685 26.9494 92.5962 26.8753 92.6319 26.7977L92.7587 26.5225L92.8111 26.4061C92.8428 26.3756 92.8691 26.3399 92.8886 26.3004L92.8892 26.2993Z" fill="#AC8734"/>
<path fill-rule="evenodd" clip-rule="evenodd" d="M94.6268 25.8364C94.5929 25.8413 94.5585 25.8413 94.5246 25.8364C94.5037 25.8364 94.4932 25.7975 94.4932 25.7588C94.4932 25.7201 94.4932 25.6918 94.5178 25.6813C94.5488 25.6676 94.5826 25.6616 94.6164 25.6636H95.5918C95.6269 25.6586 95.6624 25.6586 95.6975 25.6636C95.7184 25.6636 95.7289 25.6951 95.7289 25.7342C95.7289 25.7732 95.7289 25.8083 95.7007 25.8189C95.6709 25.8362 95.6364 25.8435 95.6021 25.8398L94.6268 25.8364ZM94.7431 27.5079V27.6066C94.7431 27.6066 94.7431 27.6313 94.7783 27.6419H94.8065C94.8233 27.6514 94.8387 27.6633 94.8522 27.6771C94.8583 27.6822 94.8631 27.6887 94.8661 27.696C94.8692 27.7033 94.8705 27.7112 94.8699 27.7191C94.87 27.7322 94.8664 27.7452 94.8595 27.7564C94.8527 27.7676 94.8429 27.7767 94.8312 27.7826C94.8042 27.7973 94.7739 27.8045 94.7432 27.8036H94.2748C94.2446 27.8043 94.2145 27.7983 94.1868 27.786C94.1749 27.7796 94.1652 27.7699 94.1589 27.7579C94.1526 27.7459 94.1501 27.7323 94.1516 27.7189C94.1514 27.7083 94.1536 27.6977 94.1578 27.688C94.1621 27.6782 94.1683 27.6695 94.1762 27.6624L94.2115 27.6415H94.2396C94.2477 27.6384 94.255 27.6337 94.2611 27.6277C94.2671 27.6216 94.2718 27.6143 94.2748 27.6062V26.3125C94.277 26.2926 94.277 26.2725 94.2748 26.2526C94.2644 26.2383 94.2513 26.2263 94.2361 26.2173H94.2079L94.166 26.1891C94.1589 26.1807 94.1537 26.1708 94.1509 26.1602C94.1481 26.1496 94.1477 26.1384 94.1497 26.1276C94.1517 26.1168 94.1561 26.1066 94.1625 26.0977C94.169 26.0888 94.1773 26.0814 94.1869 26.0762C94.2148 26.0705 94.2436 26.0705 94.2715 26.0762H94.7534C94.7837 26.0703 94.8148 26.0703 94.845 26.0762C94.857 26.0825 94.8667 26.0923 94.873 26.1042C94.8793 26.1162 94.8818 26.1298 94.8802 26.1432C94.8794 26.1645 94.8706 26.1846 94.8556 26.1997L94.8168 26.2207H94.7886C94.7765 26.228 94.7658 26.2376 94.7572 26.2489C94.7529 26.271 94.7529 26.2937 94.7572 26.3158V27.1554L95.5143 26.4288V26.3158C95.5182 26.2961 95.5182 26.2757 95.5143 26.2559C95.5143 26.2559 95.5143 26.2313 95.4755 26.2207H95.4509L95.4051 26.1924C95.4006 26.1763 95.4006 26.1592 95.4051 26.143C95.4051 26.1299 95.4088 26.1171 95.4156 26.106C95.4225 26.0949 95.4322 26.0859 95.4439 26.08C95.4729 26.0741 95.5029 26.0741 95.5319 26.08H96.0139C96.0429 26.0741 96.0728 26.0741 96.1019 26.08C96.1266 26.08 96.1371 26.1115 96.1371 26.1471C96.1375 26.1578 96.1355 26.1684 96.1312 26.1782C96.127 26.1879 96.1206 26.1966 96.1125 26.2036L96.0773 26.2245H96.0491C96.0357 26.2301 96.0246 26.2401 96.0176 26.2528C96.0117 26.2747 96.0117 26.2978 96.0176 26.3197V27.6142C96.028 27.6285 96.0412 27.6405 96.0564 27.6494H96.0846C96.1016 27.6587 96.117 27.6706 96.1304 27.6847C96.1304 27.6847 96.1304 27.7057 96.1304 27.7267C96.1304 27.7397 96.1267 27.7525 96.1199 27.7636C96.1131 27.7748 96.1033 27.7838 96.0916 27.7896C96.0659 27.8044 96.0366 27.8117 96.0071 27.8106H95.5251C95.4936 27.8117 95.4624 27.8056 95.4335 27.793C95.4216 27.7867 95.4118 27.7769 95.4056 27.7649C95.3993 27.7529 95.3968 27.7394 95.3983 27.7259C95.3998 27.7048 95.4085 27.6849 95.4231 27.6695L95.4618 27.6485H95.4864C95.5032 27.6419 95.517 27.6293 95.5252 27.6132V26.6857L94.7681 27.4123L94.7431 27.5079Z" fill="#AC8734"/>
<path fill-rule="evenodd" clip-rule="evenodd" d="M94.6863 17.7784C94.9617 17.6708 95.1983 17.4825 95.3651 17.238C95.532 16.9935 95.6212 16.7042 95.6212 16.4081C95.6212 16.112 95.532 15.8228 95.3651 15.5783C95.1983 15.3338 94.9617 15.1454 94.6863 15.0379L94.5806 14.992C94.7244 14.6964 94.7641 14.3608 94.6933 14.0397C94.6382 13.8214 94.5375 13.6173 94.3977 13.4411C94.2579 13.2648 94.0822 13.1203 93.8824 13.0172C93.6825 12.9141 93.4631 12.8548 93.2386 12.8432C93.0142 12.8316 92.7898 12.868 92.5804 12.9499L92.4712 12.9887C92.3479 12.6776 92.1282 12.4143 91.8445 12.2374C91.6537 12.1186 91.4402 12.041 91.2177 12.0096C90.9952 11.9782 90.7686 11.9937 90.5525 12.0551C90.3363 12.1166 90.1353 12.2225 89.9625 12.3663C89.7896 12.5101 89.6486 12.6884 89.5486 12.8899L89.5028 12.9887C89.1881 12.8518 88.8391 12.8148 88.5028 12.8829C88.2852 12.9199 88.0786 13.0048 87.8978 13.1315C87.7171 13.2582 87.5667 13.4235 87.4575 13.6156C87.3483 13.8076 87.2831 14.0215 87.2665 14.2419C87.25 14.4623 87.2825 14.6836 87.3618 14.8898L87.4005 14.9921C87.082 15.1039 86.8069 15.3138 86.6147 15.5917C86.4919 15.774 86.4116 15.9816 86.3797 16.1991C86.3478 16.4167 86.3651 16.6386 86.4304 16.8486C86.4956 17.0585 86.6071 17.2511 86.7567 17.412C86.9063 17.573 87.09 17.6982 87.2944 17.7785L87.4 17.8243C87.2575 18.1216 87.2179 18.4578 87.2873 18.7801C87.3432 18.9978 87.4446 19.2011 87.5846 19.3767C87.7247 19.5523 87.9004 19.6961 88.1 19.7988C88.2996 19.9014 88.5187 19.9605 88.7428 19.9722C88.9669 19.9839 89.191 19.9478 89.4001 19.8665L89.5093 19.8277C89.6316 20.1394 89.8516 20.403 90.1362 20.5789C90.3267 20.6979 90.54 20.7757 90.7624 20.8074C90.9847 20.839 91.2112 20.8238 91.4273 20.7627C91.6434 20.7016 91.8445 20.596 92.0175 20.4526C92.1905 20.3092 92.3317 20.1312 92.4321 19.93L92.4778 19.8277C92.7925 19.9646 93.1416 20.0015 93.4779 19.9334C93.6934 19.8956 93.8979 19.8106 94.0769 19.6846C94.2559 19.5586 94.405 19.3947 94.5136 19.2045C94.6222 19.0142 94.6876 18.8024 94.7051 18.584C94.7227 18.3655 94.6921 18.1459 94.6153 17.9407L94.5734 17.8384L94.679 17.7925L94.6863 17.7784ZM88.5591 12.2234L88.8338 11.4258L89.6191 11.8036C90.0188 11.5112 90.501 11.3537 90.9959 11.3537C91.4909 11.3537 91.973 11.5112 92.3728 11.8036L93.1616 11.4258L93.4363 12.2234C93.9206 12.2733 94.3747 12.483 94.7271 12.8194C95.0796 13.1558 95.3105 13.5999 95.3836 14.0821L96.2182 14.3431L95.8239 15.0943C96.128 15.4644 96.2943 15.9288 96.2943 16.4081C96.2943 16.8874 96.128 17.3519 95.8239 17.7219L96.2182 18.4732L95.3837 18.7342C95.3106 19.2163 95.0797 19.6604 94.7272 19.9968C94.3748 20.3333 93.9207 20.5429 93.4364 20.5929L93.1617 21.3904L92.3729 21.0126C91.9731 21.305 91.491 21.4625 90.996 21.4625C90.5011 21.4625 90.0189 21.305 89.6192 21.0126L88.8339 21.3904L88.5592 20.5929C88.0749 20.5429 87.6209 20.3333 87.2684 19.9968C86.916 19.6604 86.685 19.2163 86.6119 18.7342L85.7737 18.4732L86.1719 17.7219C85.8664 17.3525 85.6992 16.8878 85.6992 16.4081C85.6992 15.9284 85.8664 15.4638 86.1719 15.0943L85.7737 14.3431L86.6119 14.0821C86.685 13.6 86.9159 13.1559 87.2683 12.8194C87.6207 12.483 88.0748 12.2734 88.5591 12.2234Z" fill="#AC8734"/>
<path fill-rule="evenodd" clip-rule="evenodd" d="M95.2791 14.1737L96.0538 14.417L95.7017 15.1224C95.5729 14.9794 95.4261 14.8537 95.2651 14.7485C95.3007 14.5638 95.3102 14.3751 95.2933 14.1877L95.2791 14.1737ZM95.6877 17.7006L96.0399 18.406L95.2652 18.6494C95.2821 18.462 95.2727 18.2732 95.237 18.0886C95.3989 17.9845 95.5458 17.8587 95.6737 17.7148L95.6877 17.7006ZM93.3565 20.4728L93.0995 21.2099L92.3741 20.8572C92.5238 20.7371 92.6565 20.597 92.7684 20.441C92.9613 20.475 93.1577 20.4845 93.353 20.4692L93.3565 20.4728ZM89.6521 20.8611L88.9231 21.2138L88.6696 20.4767C88.866 20.4938 89.0638 20.4843 89.2577 20.4485C89.3686 20.6054 89.5014 20.7456 89.6521 20.8647V20.8611ZM86.7434 18.6461L85.9688 18.4028L86.3385 17.6973C86.4664 17.8413 86.6133 17.9671 86.7752 18.0712C86.7367 18.2555 86.7261 18.4446 86.7438 18.6321L86.7434 18.6461ZM86.3385 15.1192L85.9688 14.4138L86.7434 14.1704C86.7258 14.3579 86.7364 14.5469 86.7749 14.7312C86.6138 14.8364 86.4671 14.9621 86.3383 15.1051L86.3385 15.1192ZM88.6697 12.3434L88.9233 11.6063L89.6522 11.959C89.5015 12.0781 89.3687 12.2183 89.2578 12.3752C89.0637 12.3411 88.8661 12.3316 88.6697 12.347V12.3434ZM92.3742 11.9551L93.0996 11.6024L93.3566 12.3395C93.1602 12.3242 92.9626 12.3337 92.7685 12.3677C92.6557 12.2124 92.5232 12.0725 92.3742 11.9516V11.9551Z" fill="#AC8734" stroke="white" stroke-width="0.0226399" stroke-miterlimit="22.926"/>
<path fill-rule="evenodd" clip-rule="evenodd" d="M86.7664 14.7344C86.7002 14.4077 86.7189 14.0695 86.8207 13.7521C86.9225 13.4347 87.1039 13.1487 87.3476 12.9217C87.5987 12.6859 87.9016 12.5126 88.232 12.4158C88.5623 12.319 88.9107 12.3014 89.2491 12.3645C89.4514 12.0867 89.7163 11.8607 90.0223 11.705C90.3282 11.5492 90.6666 11.468 91.0098 11.468C91.3531 11.468 91.6915 11.5492 91.9974 11.705C92.3034 11.8607 92.5683 12.0867 92.7705 12.3645C93.1089 12.3017 93.4573 12.3195 93.7876 12.4163C94.1179 12.513 94.4208 12.6862 94.6721 12.9217C94.9144 13.1498 95.0949 13.4358 95.1965 13.7529C95.2982 14.07 95.3177 14.4078 95.2531 14.7345C95.5387 14.9103 95.7746 15.1564 95.9382 15.4495C96.1018 15.7425 96.1878 16.0726 96.1878 16.4083C96.1878 16.7441 96.1018 17.0742 95.9382 17.3672C95.7746 17.6603 95.5387 17.9064 95.2531 18.0821C95.3177 18.4089 95.2982 18.7467 95.1965 19.0638C95.0949 19.3809 94.9144 19.6669 94.6721 19.895C94.4208 20.1305 94.1179 20.3037 93.7876 20.4004C93.4573 20.4972 93.1089 20.515 92.7705 20.4522C92.5683 20.73 92.3034 20.9559 91.9974 21.1117C91.6915 21.2675 91.3531 21.3487 91.0099 21.3487C90.6667 21.3487 90.3283 21.2675 90.0223 21.1117C89.7164 20.9559 89.4515 20.73 89.2492 20.4522C88.9109 20.5161 88.5622 20.4989 88.2317 20.4021C87.9012 20.3052 87.5983 20.1315 87.3477 19.895C87.104 19.6679 86.9226 19.382 86.8208 19.0646C86.7191 18.7471 86.7004 18.4089 86.7666 18.0821C86.481 17.9064 86.2452 17.6603 86.0816 17.3672C85.9179 17.0742 85.832 16.7441 85.832 16.4083C85.832 16.0726 85.9179 15.7425 86.0816 15.4495C86.2452 15.1564 86.481 14.9103 86.7666 14.7345L86.7664 14.7344Z" stroke="white" stroke-width="0.0226399" stroke-miterlimit="22.926"/>
<path fill-rule="evenodd" clip-rule="evenodd" d="M89.4564 19.9752C89.6004 20.2634 89.8215 20.5056 90.0952 20.675C90.3688 20.8443 90.6841 20.934 91.0058 20.934C91.3275 20.934 91.6428 20.8443 91.9164 20.675C92.1901 20.5056 92.4113 20.2634 92.5552 19.9752C92.8599 20.0898 93.1904 20.1175 93.51 20.0553C93.8295 19.993 94.1255 19.8432 94.3651 19.6225C94.5953 19.4073 94.7548 19.1273 94.8227 18.8193C94.8906 18.5114 94.8637 18.1901 94.7455 17.8978C95.0424 17.7822 95.2976 17.5794 95.4775 17.316C95.6574 17.0526 95.7537 16.7409 95.7537 16.4218C95.7537 16.1027 95.6574 15.791 95.4775 15.5276C95.2976 15.2642 95.0424 15.0614 94.7455 14.9458C94.8627 14.6533 94.8891 14.3323 94.8213 14.0246C94.7534 13.7169 94.5944 13.4368 94.3651 13.2211C94.1255 13.0005 93.8295 12.8507 93.51 12.7884C93.1904 12.7262 92.86 12.7538 92.5552 12.8684C92.4113 12.5802 92.1901 12.3379 91.9164 12.1685C91.6428 11.9992 91.3274 11.9095 91.0058 11.9095C90.6841 11.9095 90.3687 11.9992 90.0951 12.1685C89.8214 12.3379 89.6002 12.5802 89.4563 12.8684C89.152 12.7545 88.8223 12.7272 88.5034 12.7894C88.1846 12.8517 87.8892 13.0011 87.6499 13.2211C87.4196 13.4362 87.2597 13.716 87.1912 14.0238C87.1227 14.3317 87.1488 14.6531 87.266 14.9458C86.9691 15.0614 86.7139 15.2642 86.534 15.5276C86.3541 15.791 86.2578 16.1027 86.2578 16.4218C86.2578 16.7409 86.3541 17.0526 86.534 17.316C86.7139 17.5794 86.9691 17.7822 87.266 17.8978C87.1488 18.1905 87.1227 18.5119 87.1912 18.8198C87.2597 19.1276 87.4196 19.4074 87.6499 19.6225C87.8892 19.8426 88.1846 19.992 88.5035 20.0542C88.8223 20.1165 89.1521 20.0891 89.4564 19.9752Z" stroke="white" stroke-width="0.0226399" stroke-miterlimit="22.926"/>
<path d="M90.7079 11.9055L90.6328 11.507" stroke="white" stroke-width="0.0226399" stroke-miterlimit="22.926"/>
<path d="M91.0039 11.8805V11.4785" stroke="white" stroke-width="0.0226399" stroke-miterlimit="22.926"/>
<path d="M91.3008 11.9055L91.3722 11.507" stroke="white" stroke-width="0.0226399" stroke-miterlimit="22.926"/>
<path d="M91.5898 11.9795L91.7345 11.5986" stroke="white" stroke-width="0.0226399" stroke-miterlimit="22.926"/>
<path d="M91.8477 12.0962L92.0593 11.7471" stroke="white" stroke-width="0.0226399" stroke-miterlimit="22.926"/>
<path d="M92.0859 12.258L92.3611 11.9476" stroke="white" stroke-width="0.0226399" stroke-miterlimit="22.926"/>
<path d="M92.3047 12.4597L92.6292 12.1987" stroke="white" stroke-width="0.0226399" stroke-miterlimit="22.926"/>
<path d="M90.4294 11.9795L90.2812 11.5986" stroke="white" stroke-width="0.0226399" stroke-miterlimit="22.926"/>
<path d="M90.1565 12.0962L89.9414 11.7471" stroke="white" stroke-width="0.0226399" stroke-miterlimit="22.926"/>
<path d="M89.9122 12.2592L89.6406 11.9524" stroke="white" stroke-width="0.0226399" stroke-miterlimit="22.926"/>
<path d="M89.7109 12.4597L89.3828 12.1987" stroke="white" stroke-width="0.0226399" stroke-miterlimit="22.926"/>
<path d="M87.4629 13.4221L87.1172 13.1928" stroke="white" stroke-width="0.0226399" stroke-miterlimit="22.926"/>
<path d="M87.6514 13.2065L87.3516 12.9209" stroke="white" stroke-width="0.0226399" stroke-miterlimit="22.926"/>
<path d="M87.8762 13.0278L87.6328 12.6963" stroke="white" stroke-width="0.0226399" stroke-miterlimit="22.926"/>
<path d="M88.1291 12.8856L87.9492 12.5189" stroke="white" stroke-width="0.0226399" stroke-miterlimit="22.926"/>
<path d="M88.4059 12.7913L88.293 12.3998" stroke="white" stroke-width="0.0226399" stroke-miterlimit="22.926"/>
<path d="M88.6959 12.7416L88.6602 12.3395" stroke="white" stroke-width="0.0226399" stroke-miterlimit="22.926"/>
<path d="M88.9922 12.7416L89.0279 12.3395" stroke="white" stroke-width="0.0226399" stroke-miterlimit="22.926"/>
<path d="M87.3102 13.6663L86.9258 13.497" stroke="white" stroke-width="0.0226399" stroke-miterlimit="22.926"/>
<path d="M87.2138 13.9295L86.8047 13.8272" stroke="white" stroke-width="0.0226399" stroke-miterlimit="22.926"/>
<path d="M87.1576 14.2095L86.7344 14.1738" stroke="white" stroke-width="0.0226399" stroke-miterlimit="22.926"/>
<path d="M87.1576 14.491L86.7344 14.5267" stroke="white" stroke-width="0.0226399" stroke-miterlimit="22.926"/>
<path d="M86.2873 16.6922L85.8711 16.7601" stroke="white" stroke-width="0.0226399" stroke-miterlimit="22.926"/>
<path d="M86.2553 16.4097H85.832" stroke="white" stroke-width="0.0226399" stroke-miterlimit="22.926"/>
<path d="M86.2873 16.1286L85.8711 16.0607" stroke="white" stroke-width="0.0226399" stroke-miterlimit="22.926"/>
<path d="M86.3673 15.8564L85.9688 15.7189" stroke="white" stroke-width="0.0226399" stroke-miterlimit="22.926"/>
<path d="M86.484 15.6022L86.1172 15.4012" stroke="white" stroke-width="0.0226399" stroke-miterlimit="22.926"/>
<path d="M86.6562 15.3724L86.3281 15.1115" stroke="white" stroke-width="0.0226399" stroke-miterlimit="22.926"/>
<path d="M86.8614 15.1717L86.5898 14.8613" stroke="white" stroke-width="0.0226399" stroke-miterlimit="22.926"/>
<path d="M86.3673 16.9636L85.9688 17.1012" stroke="white" stroke-width="0.0226399" stroke-miterlimit="22.926"/>
<path d="M86.484 17.2177L86.1172 17.4188" stroke="white" stroke-width="0.0226399" stroke-miterlimit="22.926"/>
<path d="M86.6562 17.4467L86.3281 17.7076" stroke="white" stroke-width="0.0226399" stroke-miterlimit="22.926"/>
<path d="M86.8614 17.6477L86.5898 17.9581" stroke="white" stroke-width="0.0226399" stroke-miterlimit="22.926"/>
<path d="M87.8762 19.792L87.6328 20.1235" stroke="white" stroke-width="0.0226399" stroke-miterlimit="22.926"/>
<path d="M87.6514 19.6122L87.3516 19.8978" stroke="white" stroke-width="0.0226399" stroke-miterlimit="22.926"/>
<path d="M87.4629 19.3967L87.1172 19.626" stroke="white" stroke-width="0.0226399" stroke-miterlimit="22.926"/>
<path d="M87.3102 19.1498L86.9258 19.3227" stroke="white" stroke-width="0.0226399" stroke-miterlimit="22.926"/>
<path d="M87.2138 18.8862L86.8047 18.9919" stroke="white" stroke-width="0.0226399" stroke-miterlimit="22.926"/>
<path d="M87.1576 18.6104L86.7344 18.6461" stroke="white" stroke-width="0.0226399" stroke-miterlimit="22.926"/>
<path d="M87.1576 18.3284L86.7344 18.2927" stroke="white" stroke-width="0.0226399" stroke-miterlimit="22.926"/>
<path d="M88.1291 19.9327L87.9492 20.2995" stroke="white" stroke-width="0.0226399" stroke-miterlimit="22.926"/>
<path d="M88.4059 20.0282L88.293 20.4197" stroke="white" stroke-width="0.0226399" stroke-miterlimit="22.926"/>
<path d="M88.6959 20.0774L88.6602 20.4794" stroke="white" stroke-width="0.0226399" stroke-miterlimit="22.926"/>
<path d="M88.9922 20.0774L89.0279 20.4794" stroke="white" stroke-width="0.0226399" stroke-miterlimit="22.926"/>
<path d="M91.3008 20.9133L91.3758 21.3118" stroke="white" stroke-width="0.0226399" stroke-miterlimit="22.926"/>
<path d="M91.0039 20.9379V21.3399" stroke="white" stroke-width="0.0226399" stroke-miterlimit="22.926"/>
<path d="M90.7079 20.9133L90.6328 21.3118" stroke="white" stroke-width="0.0226399" stroke-miterlimit="22.926"/>
<path d="M90.4294 20.8391L90.2812 21.22" stroke="white" stroke-width="0.0226399" stroke-miterlimit="22.926"/>
<path d="M90.1609 20.719L89.9492 21.0717" stroke="white" stroke-width="0.0226399" stroke-miterlimit="22.926"/>
<path d="M89.9122 20.5609L89.6406 20.8678" stroke="white" stroke-width="0.0226399" stroke-miterlimit="22.926"/>
<path d="M89.7112 20.3604L89.3867 20.6213" stroke="white" stroke-width="0.0226399" stroke-miterlimit="22.926"/>
<path d="M91.5898 20.8391L91.7345 21.22" stroke="white" stroke-width="0.0226399" stroke-miterlimit="22.926"/>
<path d="M91.8477 20.719L92.0593 21.0717" stroke="white" stroke-width="0.0226399" stroke-miterlimit="22.926"/>
<path d="M92.0859 20.5609L92.3611 20.8678" stroke="white" stroke-width="0.0226399" stroke-miterlimit="22.926"/>
<path d="M92.3047 20.3604L92.6292 20.6213" stroke="white" stroke-width="0.0226399" stroke-miterlimit="22.926"/>
<path d="M94.5508 19.3967L94.8999 19.626" stroke="white" stroke-width="0.0226399" stroke-miterlimit="22.926"/>
<path d="M94.3633 19.6122L94.6631 19.8978" stroke="white" stroke-width="0.0226399" stroke-miterlimit="22.926"/>
<path d="M94.1328 19.792L94.3762 20.1235" stroke="white" stroke-width="0.0226399" stroke-miterlimit="22.926"/>
<path d="M93.8789 19.9327L94.0552 20.2995" stroke="white" stroke-width="0.0226399" stroke-miterlimit="22.926"/>
<path d="M93.5977 20.0282L93.707 20.4197" stroke="white" stroke-width="0.0226399" stroke-miterlimit="22.926"/>
<path d="M93.3086 20.0774L93.3479 20.4794" stroke="white" stroke-width="0.0226399" stroke-miterlimit="22.926"/>
<path d="M93.0084 20.0774L92.9727 20.4794" stroke="white" stroke-width="0.0226399" stroke-miterlimit="22.926"/>
<path d="M94.6953 19.1498L95.0797 19.3227" stroke="white" stroke-width="0.0226399" stroke-miterlimit="22.926"/>
<path d="M94.7969 18.8862L95.206 18.9919" stroke="white" stroke-width="0.0226399" stroke-miterlimit="22.926"/>
<path d="M94.8516 18.6104L95.2748 18.6461" stroke="white" stroke-width="0.0226399" stroke-miterlimit="22.926"/>
<path d="M94.8516 18.3284L95.2748 18.2927" stroke="white" stroke-width="0.0226399" stroke-miterlimit="22.926"/>
<path d="M95.7305 16.1283L96.1467 16.0568" stroke="white" stroke-width="0.0226399" stroke-miterlimit="22.926"/>
<path d="M95.7461 16.4097H96.1693" stroke="white" stroke-width="0.0226399" stroke-miterlimit="22.926"/>
<path d="M95.7305 16.6884L96.1467 16.7598" stroke="white" stroke-width="0.0226399" stroke-miterlimit="22.926"/>
<path d="M95.6523 16.9636L96.0509 17.1012" stroke="white" stroke-width="0.0226399" stroke-miterlimit="22.926"/>
<path d="M95.5234 17.2177L95.8902 17.4188" stroke="white" stroke-width="0.0226399" stroke-miterlimit="22.926"/>
<path d="M95.3594 17.4467L95.6839 17.7076" stroke="white" stroke-width="0.0226399" stroke-miterlimit="22.926"/>
<path d="M95.1445 17.6477L95.4197 17.9581" stroke="white" stroke-width="0.0226399" stroke-miterlimit="22.926"/>
<path d="M95.6523 15.8564L96.0509 15.7189" stroke="white" stroke-width="0.0226399" stroke-miterlimit="22.926"/>
<path d="M95.5234 15.6022L95.8902 15.4012" stroke="white" stroke-width="0.0226399" stroke-miterlimit="22.926"/>
<path d="M95.3594 15.3724L95.6839 15.1115" stroke="white" stroke-width="0.0226399" stroke-miterlimit="22.926"/>
<path d="M95.1445 15.1717L95.4197 14.8613" stroke="white" stroke-width="0.0226399" stroke-miterlimit="22.926"/>
<path d="M94.1328 13.0278L94.3762 12.6963" stroke="white" stroke-width="0.0226399" stroke-miterlimit="22.926"/>
<path d="M94.3633 13.2065L94.6631 12.9209" stroke="white" stroke-width="0.0226399" stroke-miterlimit="22.926"/>
<path d="M94.5508 13.4221L94.8999 13.1928" stroke="white" stroke-width="0.0226399" stroke-miterlimit="22.926"/>
<path d="M94.6953 13.6663L95.0797 13.497" stroke="white" stroke-width="0.0226399" stroke-miterlimit="22.926"/>
<path d="M94.7969 13.9295L95.206 13.8272" stroke="white" stroke-width="0.0226399" stroke-miterlimit="22.926"/>
<path d="M94.8516 14.2095L95.2748 14.1738" stroke="white" stroke-width="0.0226399" stroke-miterlimit="22.926"/>
<path d="M94.8516 14.491L95.2748 14.5267" stroke="white" stroke-width="0.0226399" stroke-miterlimit="22.926"/>
<path d="M93.8789 12.8856L94.0552 12.5189" stroke="white" stroke-width="0.0226399" stroke-miterlimit="22.926"/>
<path d="M93.5977 12.7913L93.707 12.3998" stroke="white" stroke-width="0.0226399" stroke-miterlimit="22.926"/>
<path d="M93.3086 12.7416L93.3479 12.3395" stroke="white" stroke-width="0.0226399" stroke-miterlimit="22.926"/>
<path d="M93.0084 12.7416L92.9727 12.3395" stroke="white" stroke-width="0.0226399" stroke-miterlimit="22.926"/>
<path d="M89.2539 12.3675L89.4584 12.8436" stroke="white" stroke-width="0.0226399" stroke-miterlimit="22.926"/>
<path d="M92.7628 12.3675L92.5547 12.8436" stroke="white" stroke-width="0.0226399" stroke-miterlimit="22.926"/>
<path d="M95.2431 14.7345L94.7422 14.932" stroke="white" stroke-width="0.0226399" stroke-miterlimit="22.926"/>
<path d="M86.7656 14.7345L87.2629 14.932" stroke="white" stroke-width="0.0226399" stroke-miterlimit="22.926"/>
<path d="M86.7656 18.0839L87.2629 17.8864" stroke="white" stroke-width="0.0226399" stroke-miterlimit="22.926"/>
<path d="M89.4584 19.9752L89.2539 20.4513" stroke="white" stroke-width="0.0226399" stroke-miterlimit="22.926"/>
<path d="M92.5547 19.9752L92.7628 20.4513" stroke="white" stroke-width="0.0226399" stroke-miterlimit="22.926"/>
<path d="M94.7422 17.8864L95.2431 18.0839" stroke="white" stroke-width="0.0226399" stroke-miterlimit="22.926"/>
<path fill-rule="evenodd" clip-rule="evenodd" d="M88.5419 17.9964L88.8166 18.5678C90.1915 18.1316 91.6673 18.1316 93.0422 18.5678L93.338 18.074C92.7534 18.095 92.5879 17.9082 92.4259 17.5096C92.3243 17.6077 92.2012 17.6805 92.0663 17.7221C91.9315 17.7638 91.7888 17.7732 91.6497 17.7495C91.5106 17.7258 91.379 17.6697 91.2655 17.5858C91.152 17.5019 91.0597 17.3924 90.9962 17.2662C90.5067 17.8729 90.0208 17.8976 89.5384 17.3792C89.5154 17.4858 89.4716 17.5868 89.4096 17.6764C89.3476 17.766 89.2685 17.8425 89.1769 17.9015C89.0854 17.9605 88.9831 18.0008 88.8759 18.0201C88.7687 18.0394 88.6588 18.0373 88.5525 18.014L88.5419 17.9964ZM90.4892 15.4958C90.4368 14.9632 91.4435 14.9174 91.4611 15.4958C91.3061 15.4958 90.9963 15.4433 91.0245 15.6827H90.9223C90.9223 15.4499 90.7392 15.4993 90.4892 15.5028V15.4958ZM91.6618 15.785C91.6242 15.7481 91.5791 15.7196 91.5297 15.7014C91.4802 15.6832 91.4275 15.6757 91.3749 15.6794C91.3224 15.683 91.2712 15.6978 91.2248 15.7227C91.1783 15.7476 91.1377 15.7821 91.1055 15.8238V16.8291C91.3731 17.4039 92.0386 17.5345 92.5352 16.8291C92.6162 17.7602 93.2043 17.9541 94.0564 17.4604L93.1658 18.9065C91.3699 18.4552 90.472 18.4268 88.6585 18.9065L87.8203 17.4251C88.676 17.799 89.1057 17.7249 89.4296 16.7762C89.7818 17.3899 90.486 17.5697 90.7924 16.7762V15.8242C90.6762 15.6655 90.5107 15.6407 90.2853 15.7889C90.0741 14.4628 91.8946 14.5474 91.6517 15.7889L91.6618 15.785ZM89.5947 17.7284C89.6275 17.7417 89.6572 17.7616 89.6819 17.787C89.7066 17.8123 89.7259 17.8424 89.7385 17.8755C89.751 17.9086 89.7566 17.944 89.7549 17.9793C89.7533 18.0147 89.7443 18.0494 89.7286 18.0811C89.8026 17.9329 89.8765 17.9118 90.0596 17.9189C90.0072 18.3667 89.3553 18.3844 89.2391 18.0705C89.2928 18.0345 89.3573 18.0184 89.4215 18.0248C89.4858 18.0312 89.5458 18.0599 89.5913 18.1058C89.4399 17.9964 89.5389 17.8025 89.5913 17.7531L89.5947 17.7284ZM90.9645 17.6191C90.9923 17.6375 91.0162 17.6613 91.0348 17.6891C91.0534 17.7168 91.0663 17.748 91.0728 17.7808C91.0794 17.8135 91.0794 17.8473 91.0729 17.88C91.0664 17.9128 91.0535 17.944 91.035 17.9718C91.1335 17.8412 91.211 17.8307 91.3871 17.8694C91.2533 18.3033 90.5908 18.2009 90.5526 17.8694C90.612 17.8374 90.6813 17.8291 90.7466 17.8461C90.8119 17.8631 90.8684 17.9042 90.9047 17.9612C90.7779 17.8271 90.9047 17.6543 90.9751 17.6085L90.9645 17.6191ZM92.3273 17.7531C92.3738 17.8 92.3999 17.8633 92.3999 17.9294C92.3999 17.9955 92.3738 18.0589 92.3273 18.1058C92.4505 18 92.5281 18.0034 92.6795 18.0775C92.4577 18.4763 91.8308 18.2433 91.8622 17.9188C91.9247 17.9041 91.9904 17.9124 92.0473 17.9422C92.1042 17.9719 92.1485 18.0212 92.1722 18.081C92.0771 17.9223 92.2426 17.7777 92.313 17.7459L92.3273 17.7531ZM93.7359 17.2381L94.088 16.9665L94.4578 17.2275L94.324 16.7973L94.6761 16.5186H94.2078L94.0704 16.1199L93.9331 16.5186H93.4753L93.8275 16.7973L93.6867 17.238L93.7359 17.2381ZM93.3098 15.6368L93.6619 15.3652L94.0352 15.6298L93.9014 15.1995L94.2536 14.9174H93.817L93.6796 14.5186L93.5458 14.9174H93.0881L93.4402 15.1995L93.2959 15.6369L93.3098 15.6368ZM92.1619 14.5124L92.514 14.2408L92.8838 14.5018L92.7606 14.0611L93.1127 13.7789H92.6444L92.507 13.3839L92.3697 13.7789H91.9119L92.2643 14.0612L92.1199 14.5019L92.1619 14.5124ZM90.6513 14.0297L90.7957 13.5889L90.4259 13.3067H90.8837L91.021 12.9117L91.1584 13.3067H91.6267L91.2746 13.5889L91.4048 14.0192L91.0527 13.7582L90.7005 14.0298L90.6513 14.0297ZM89.1653 14.4423L89.3097 14.0015L88.9575 13.7229H89.4153L89.5526 13.3242L89.69 13.7229H90.1583L89.8062 14.0015L89.94 14.4318L89.5702 14.1708L89.2181 14.4424L89.1653 14.4423ZM88.0068 15.6168L88.3765 15.3452L88.7499 15.6062L88.6161 15.1759L88.9682 14.8973H88.4999L88.3625 14.4985L88.2287 14.8973H87.771L88.1231 15.1759L87.9787 15.6167L88.0068 15.6168ZM87.5353 17.158L87.8875 16.8865L88.2608 17.1474L88.127 16.7172L88.4791 16.4386H88.0105L87.8731 16.0398L87.7393 16.4386H87.2812L87.6333 16.7161L87.5353 17.158Z" fill="#AC8734"/>
<path d="M55.7374 19.0623C55.9161 19.4902 56.0941 19.9184 56.2715 20.3469C56.3319 20.4926 56.3925 20.6382 56.4533 20.7838C56.5407 20.993 56.6274 21.2025 56.714 21.4121C56.7413 21.4771 56.7687 21.5422 56.7968 21.6092C56.8218 21.6702 56.8469 21.7311 56.8727 21.794C56.8949 21.8474 56.9171 21.9008 56.9399 21.9559C56.9874 22.1091 56.9874 22.1091 56.9874 22.4216C56.9396 22.4263 56.8918 22.4309 56.8426 22.4357C53.162 22.8078 49.7733 24.392 47.3191 27.2019C46.9443 27.6712 46.6094 28.1669 46.2843 28.6716C46.2549 28.7171 46.2256 28.7627 46.1954 28.8096C45.5038 29.9029 45.0134 31.1636 44.7218 32.4216C44.6985 32.5188 44.6753 32.616 44.6513 32.7161C44.0875 35.3478 44.559 38.2295 45.7374 40.6248C45.7618 40.6749 45.7861 40.725 45.8113 40.7767C46.1605 41.4868 46.5636 42.119 47.0655 42.7341C47.1014 42.7784 47.1373 42.8226 47.1742 42.8681C48.8165 44.88 51.0953 46.3932 53.628 47.031C53.7168 47.054 53.7168 47.054 53.8073 47.0774C57.1925 47.9181 60.864 47.1513 63.8319 45.4017C64.3952 45.052 64.9442 44.6666 65.4469 44.2341C65.6593 44.0623 65.6593 44.0623 65.8155 44.0623C65.956 44.4068 66.0963 44.7514 66.2366 45.096C66.2842 45.213 66.3319 45.33 66.3796 45.447C66.4485 45.6161 66.5173 45.7852 66.5861 45.9543C66.6071 46.0058 66.6281 46.0573 66.6498 46.1103C66.6904 46.2102 66.7306 46.3103 66.7705 46.4106C66.813 46.5169 66.8567 46.6227 66.9013 46.7281C67.0948 47.203 67.0948 47.203 66.9874 47.4998C66.8718 47.6089 66.8718 47.6089 66.7216 47.7079C66.6657 47.7452 66.6098 47.7824 66.5522 47.8208C66.4912 47.8599 66.4302 47.899 66.3673 47.9392C66.3038 47.9804 66.2403 48.0216 66.1749 48.064C65.978 48.1902 65.78 48.3142 65.5812 48.4373C65.4956 48.4903 65.4956 48.4903 65.4083 48.5444C63.8441 49.4978 62.0989 50.1194 60.3175 50.5173C60.2095 50.5415 60.2095 50.5415 60.0994 50.5663C59.0094 50.8004 57.9561 50.8848 56.8448 50.8795C56.6361 50.8787 56.4274 50.8795 56.2187 50.8805C53.1682 50.8833 50.073 49.8651 47.6124 48.0466C47.5304 47.9867 47.4485 47.9268 47.364 47.865C46.76 47.4161 46.2028 46.9258 45.6593 46.406C45.5869 46.3377 45.5145 46.2694 45.4399 46.1991C44.8811 45.6586 44.399 45.0787 43.9405 44.4529C43.908 44.4086 43.8755 44.3644 43.842 44.3188C42.1483 41.9783 40.9628 39.0037 40.9587 36.0911C40.9584 36.0258 40.9581 35.9606 40.9579 35.8934C40.9575 35.7561 40.9573 35.6187 40.9573 35.4814C40.9571 35.2759 40.9557 35.0704 40.9542 34.8649C40.9502 33.6942 41.0379 32.563 41.3331 31.4255C41.3535 31.3463 41.374 31.267 41.395 31.1853C41.9391 29.1473 42.8729 27.2095 44.1749 25.5466C44.2089 25.5029 44.2428 25.4591 44.2778 25.414C45.1887 24.2541 46.2621 23.2079 47.4562 22.3435C47.5376 22.2838 47.6191 22.2241 47.703 22.1625C49.943 20.5665 52.9197 19.0623 55.7374 19.0623Z" fill="white"/>
<path d="M54.5654 26.8751C55.9576 26.8751 57.3498 26.8751 58.7842 26.8751C59.0256 27.4062 59.261 27.9327 59.4772 28.4733C59.5188 28.5764 59.5188 28.5764 59.5611 28.6816C59.6209 28.83 59.6806 28.9785 59.7402 29.127C59.9047 29.5366 60.0699 29.946 60.235 30.3553C60.2696 30.4413 60.3042 30.5272 60.3399 30.6157C60.7256 31.572 61.1146 32.5268 61.5039 33.4816C61.5753 33.6568 61.6467 33.8319 61.7181 34.0071C62.0374 34.7905 62.3569 35.5737 62.6769 36.3568C62.8551 36.7929 63.0331 37.229 63.2111 37.6652C63.2863 37.8493 63.3616 38.0334 63.4369 38.2175C63.5416 38.4734 63.6461 38.7294 63.7506 38.9854C63.7811 39.0599 63.8117 39.1343 63.8431 39.211C64.0444 39.7051 64.2265 40.201 64.4092 40.7032C63.1975 40.7032 61.9857 40.7032 60.7373 40.7032C60.5826 40.2803 60.5826 40.2803 60.4248 39.8488C60.0901 38.9413 59.7424 38.0393 59.3896 37.1388C58.9104 35.9146 58.4325 34.69 57.9579 33.464C57.8615 33.2149 57.765 32.9658 57.6682 32.7168C57.5592 32.4364 57.4507 32.156 57.3422 31.8754C57.3098 31.7922 57.2774 31.709 57.244 31.6233C57.0576 31.1398 56.8932 30.6552 56.7529 30.1564C56.7014 30.1564 56.6498 30.1564 56.5967 30.1564C56.5833 30.2034 56.5699 30.2504 56.5561 30.2988C56.4126 30.7912 56.244 31.2683 56.058 31.746C56.0283 31.8231 55.9986 31.9001 55.968 31.9794C55.8702 32.2328 55.772 32.4861 55.6738 32.7394C55.6049 32.9179 55.5359 33.0964 55.467 33.2749C55.3022 33.7017 55.1372 34.1284 54.972 34.5551C54.6613 35.3579 54.3513 36.161 54.0413 36.9641C53.9124 37.2981 53.7833 37.632 53.6542 37.9658C53.5854 38.1439 53.5167 38.3219 53.4479 38.4999C53.4177 38.5779 53.3874 38.656 53.3563 38.7364C53.1037 39.3904 52.8585 40.0467 52.6123 40.7032C51.4264 40.7032 50.2404 40.7032 49.0186 40.7032C49.0807 40.3924 49.1512 40.153 49.2682 39.8634C49.3042 39.7739 49.3402 39.6843 49.3772 39.5921C49.4172 39.4937 49.4571 39.3954 49.4971 39.297C49.539 39.193 49.581 39.089 49.6229 38.985C49.7361 38.7042 49.8497 38.4237 49.9635 38.1432C50.0339 37.9696 50.1041 37.7961 50.1744 37.6225C50.4432 36.9581 50.7125 36.294 50.9821 35.63C51.1504 35.2156 51.3184 34.801 51.4862 34.3864C52.0193 33.0696 52.5541 31.7534 53.0905 30.4379C53.1579 30.2727 53.2252 30.1074 53.2925 29.9421C53.3879 29.7081 53.4833 29.4742 53.5788 29.2402C53.606 29.1733 53.6333 29.1064 53.6613 29.0375C53.9568 28.3142 54.2621 27.5954 54.5654 26.8751Z" fill="white"/>
<defs>
<filter id="filter0_d_1_11508" x="0.171428" y="0.171428" width="107.657" height="69.6571" filterUnits="userSpaceOnUse" color-interpolation-filters="sRGB">
<feFlood flood-opacity="0" result="BackgroundImageFix"/>
<feColorMatrix in="SourceAlpha" type="matrix" values="0 0 0 0 0 0 0 0 0 0 0 0 0 0 0 0 0 0 127 0" result="hardAlpha"/>
<feOffset/>
<feGaussianBlur stdDeviation="1.91429"/>
<feComposite in2="hardAlpha" operator="out"/>
<feColorMatrix type="matrix" values="0 0 0 0 0 0 0 0 0 0 0 0 0 0 0 0 0 0 0.3 0"/>
<feBlend mode="normal" in2="BackgroundImageFix" result="effect1_dropShadow_1_11508"/>
<feBlend mode="normal" in="SourceGraphic" in2="effect1_dropShadow_1_11508" result="shape"/>
</filter>
</defs>
</svg>
