<svg width="50" height="50" viewBox="0 0 50 50" fill="none" xmlns="http://www.w3.org/2000/svg">
<circle cx="25" cy="25" r="25" fill="#F3F9F9"/>
<path d="M13.8642 38.5368C13.1435 38.5368 12.5335 38.2871 12.0342 37.7878C11.5348 37.2884 11.2852 36.6784 11.2852 35.9577V19.7155C11.2852 18.9948 11.5348 18.3848 12.0342 17.8854C12.5335 17.3861 13.1435 17.1364 13.8642 17.1364H19.8453V14.7221C19.8453 14.0014 20.095 13.3914 20.5943 12.8921C21.0937 12.3927 21.7037 12.1431 22.4244 12.1431H27.2531C27.9738 12.1431 28.5838 12.3927 29.0831 12.8921C29.5825 13.3914 29.8321 14.0014 29.8321 14.7221V17.1364H35.8133C36.5339 17.1364 37.1439 17.3861 37.6433 17.8854C38.1426 18.3848 38.3923 18.9948 38.3923 19.7155V35.9577C38.3923 36.6784 38.1426 37.2884 37.6433 37.7878C37.1439 38.2871 36.5339 38.5368 35.8133 38.5368H13.8642ZM13.8642 36.3968H35.8133C35.923 36.3968 36.0236 36.3511 36.1151 36.2596C36.2066 36.1681 36.2523 36.0675 36.2523 35.9577V19.7155C36.2523 19.6057 36.2066 19.5051 36.1151 19.4136C36.0236 19.3222 35.923 19.2764 35.8133 19.2764H13.8642C13.7544 19.2764 13.6538 19.3222 13.5623 19.4136C13.4709 19.5051 13.4252 19.6057 13.4252 19.7155V35.9577C13.4252 36.0675 13.4709 36.1681 13.5623 36.2596C13.6538 36.3511 13.7544 36.3968 13.8642 36.3968ZM21.9853 17.1364H27.6921V14.7221C27.6921 14.6123 27.6464 14.5117 27.5549 14.4203C27.4635 14.3288 27.3628 14.283 27.2531 14.283H22.4244C22.3146 14.283 22.214 14.3288 22.1225 14.4203C22.0311 14.5117 21.9853 14.6123 21.9853 14.7221V17.1364ZM23.7687 28.9066V33.1867H25.9087V28.9066H30.1888V26.7666H25.9087V22.4865H23.7687V26.7666H19.4887V28.9066H23.7687Z" fill="#47AAAF"/>
</svg>
