<svg width="50" height="50" viewBox="0 0 50 50" fill="none" xmlns="http://www.w3.org/2000/svg">
<circle cx="25" cy="25" r="25" fill="#47AAAF" fill-opacity="0.06"/>
<path d="M13.8642 38.5363C13.1435 38.5363 12.5335 38.2866 12.0342 37.7873C11.5348 37.2879 11.2852 36.6779 11.2852 35.9573V19.715C11.2852 18.9943 11.5348 18.3843 12.0342 17.885C12.5335 17.3856 13.1435 17.1359 13.8642 17.1359H19.8453V14.7216C19.8453 14.0009 20.095 13.3909 20.5943 12.8916C21.0937 12.3922 21.7037 12.1426 22.4244 12.1426H27.2531C27.9738 12.1426 28.5838 12.3922 29.0831 12.8916C29.5825 13.3909 29.8321 14.0009 29.8321 14.7216V17.1359H35.8133C36.5339 17.1359 37.1439 17.3856 37.6433 17.885C38.1426 18.3843 38.3923 18.9943 38.3923 19.715V35.9573C38.3923 36.6779 38.1426 37.2879 37.6433 37.7873C37.1439 38.2866 36.5339 38.5363 35.8133 38.5363H13.8642ZM13.8642 36.3963H35.8133C35.923 36.3963 36.0236 36.3506 36.1151 36.2591C36.2066 36.1676 36.2523 36.067 36.2523 35.9573V19.715C36.2523 19.6052 36.2066 19.5046 36.1151 19.4131C36.0236 19.3217 35.923 19.2759 35.8133 19.2759H13.8642C13.7544 19.2759 13.6538 19.3217 13.5623 19.4131C13.4709 19.5046 13.4252 19.6052 13.4252 19.715V35.9573C13.4252 36.067 13.4709 36.1676 13.5623 36.2591C13.6538 36.3506 13.7544 36.3963 13.8642 36.3963ZM21.9853 17.1359H27.6921V14.7216C27.6921 14.6118 27.6464 14.5112 27.5549 14.4198C27.4635 14.3283 27.3628 14.2825 27.2531 14.2825H22.4244C22.3146 14.2825 22.214 14.3283 22.1225 14.4198C22.0311 14.5112 21.9853 14.6118 21.9853 14.7216V17.1359ZM23.7687 28.9061V33.1862H25.9087V28.9061H30.1888V26.7661H25.9087V22.486H23.7687V26.7661H19.4887V28.9061H23.7687Z" fill="#47AAAF"/>
</svg>
