<svg width="50" height="50" viewBox="0 0 50 50" fill="none" xmlns="http://www.w3.org/2000/svg">
<circle cx="25" cy="25" r="25" fill="#47AAAF" fill-opacity="0.06"/>
<g clip-path="url(#clip0_1002_12225)">
<path d="M26.2733 39.0253C24.3195 39.0253 24.1297 37.9017 24.1297 37.9017L24.1289 35.0611L24.1296 30.3066C24.1296 30.3066 24.1315 23.3007 24.1315 21.3468L24.1305 19.204V10.6325C24.1305 10.6325 24.3195 10.5254 26.2733 10.5254C28.2425 10.5254 30.0901 10.8999 31.8161 11.649C33.542 12.398 35.0502 13.4177 36.3406 14.7081C37.631 15.9985 38.6507 17.5066 39.3997 19.2326C40.1488 20.9585 40.5233 22.8061 40.5233 24.7754C40.5233 26.7292 40.1488 28.5729 39.3997 30.3066C38.6507 32.0402 37.631 33.5522 36.3406 34.8426C35.0502 36.133 33.542 37.1527 31.8161 37.9017C30.0901 38.6508 28.2425 39.0253 26.2733 39.0253ZM26.2733 36.7436C27.0387 35.7282 27.683 34.7042 28.206 33.6715C28.7291 32.6388 29.1551 31.5099 29.4839 30.2849H26.2733V33.6715V36.7436ZM29.1781 36.3311C30.8569 35.9773 32.3627 35.2706 33.6954 34.211C35.0281 33.1513 36.0906 31.8427 36.883 30.2849H31.7944C31.4925 31.3984 31.1127 32.4806 30.655 33.5316C30.1973 34.5826 29.705 35.5158 29.1781 36.3311ZM26.2733 28.035H30.0003C30.0945 27.4773 30.1628 26.9355 30.2051 26.4095C30.2474 25.8835 30.2685 25.3388 30.2685 24.7754C30.2685 24.2119 30.2474 23.6672 30.2051 23.1412C30.1628 22.6152 30.0945 22.0734 30.0003 21.5157H26.2733V23.1556C26.231 23.6816 26.2733 28.035 26.2733 28.035ZM32.2502 28.035H37.8262C37.9704 27.5254 38.081 26.9956 38.1579 26.4456C38.2349 25.8956 38.2733 25.3388 38.2733 24.7754C38.2733 24.2119 38.2349 23.6551 38.1579 23.1051C38.081 22.5551 37.9704 22.0253 37.8262 21.5157H32.2502C32.3444 22.0734 32.4127 22.62 32.455 23.1556C32.4973 23.6912 32.5185 24.2311 32.5185 24.7754C32.5185 25.3196 32.4973 25.8595 32.455 26.3951C32.4127 26.9307 32.3444 27.4773 32.2502 28.035ZM31.7944 19.2658H36.883C36.081 17.6888 35.0257 16.3802 33.7171 15.3398C32.4084 14.2994 30.8954 13.5878 29.1781 13.2051C29.7531 14.0782 30.2646 15.033 30.7127 16.0696C31.1608 17.1061 31.5214 18.1715 31.7944 19.2658ZM26.2733 19.2326L29.4839 19.2658C29.1358 18.0119 28.6979 16.8566 28.17 15.7999C27.6421 14.7432 27.0099 13.7456 26.2733 12.8071V16.0696V19.2326Z" fill="#47AAAF"/>
<path d="M16.8443 38.9179C15.2161 37.2897 13.1412 35.0862 12.2572 32.6839C11.3732 30.2816 10.9345 27.7009 10.9412 24.9419C10.9478 22.1828 11.395 19.6023 12.2829 17.2004C13.1708 14.7984 15.3155 12.1825 16.9483 10.5498C17.2105 10.2875 17.5155 10.1553 17.8632 10.1533C18.2108 10.1512 18.5142 10.2797 18.7734 10.5389L22.0518 13.6983C22.27 13.9165 22.3911 14.1803 22.4151 14.4898C22.4391 14.7992 22.3688 15.0816 22.2043 15.3369L19.8757 18.8818C19.6735 19.1527 19.463 19.3488 19.2443 19.47C19.0257 19.5912 18.7955 19.6464 18.5537 19.6356L14.6107 19.5879C14.3421 20.4989 13.9527 21.1565 13.8394 22.095C13.7261 23.0335 13.6704 23.9825 13.6724 24.9419C13.6711 25.8913 13.7336 26.8368 13.8598 27.7783C13.986 28.7198 14.1832 29.6756 14.4514 30.6457L18.5586 30.3465C18.8348 30.3405 19.0973 30.4054 19.3461 30.5409C19.5949 30.6764 19.8084 30.8622 19.9867 31.0982L21.9872 34.2036C22.1476 34.4796 22.214 34.7692 22.1865 35.0726C22.1589 35.376 22.0401 35.6327 21.8302 35.8426L18.6694 38.9237C18.4095 39.1836 18.1057 39.313 17.7581 39.3119C17.4105 39.3108 17.1059 39.1795 16.8443 38.9179ZM15.0287 17.4782L18.05 17.5405C18.0999 17.546 18.1484 17.5334 18.1956 17.5029C18.2428 17.4723 18.2775 17.4348 18.2998 17.3904L19.8602 15.079C19.8936 15.0235 19.9075 14.9708 19.902 14.9209C19.8966 14.871 19.8717 14.8239 19.8274 14.7796L17.9799 12.9321C17.9467 12.8988 17.9079 12.8823 17.8635 12.8823C17.8191 12.8824 17.7803 12.8991 17.7469 12.9324C17.1992 13.5687 16.6944 14.2668 16.2325 15.0266C15.7706 15.7865 15.3693 16.6037 15.0287 17.4782ZM15.0578 32.4816C15.3627 33.322 15.7554 34.1239 16.2357 34.8874C16.716 35.651 17.2131 36.3163 17.727 36.8835C17.7602 36.9167 17.799 36.9333 17.8433 36.9332C17.8877 36.9332 17.9266 36.9165 17.9599 36.8832L19.7825 35.0605C19.827 35.0161 19.852 34.9689 19.8576 34.919C19.8632 34.8691 19.8494 34.8164 19.8162 34.761L18.3718 32.5768C18.3497 32.5325 18.322 32.5021 18.2888 32.4855C18.2555 32.4689 18.2112 32.4606 18.1557 32.4607L15.0578 32.4816Z" fill="#47AAAF"/>
</g>
<defs>
<clipPath id="clip0_1002_12225">
<rect width="36" height="36" fill="white" transform="translate(7 7)"/>
</clipPath>
</defs>
</svg>
