<svg width="50" height="50" viewBox="0 0 50 50" fill="none" xmlns="http://www.w3.org/2000/svg">
<circle cx="25" cy="25" r="25" fill="#47AAAF" fill-opacity="0.06"/>
<path d="M14.5 33.9999V35.5V14.5V33.9999ZM14.9615 37.7499C14.2135 37.7499 13.5745 37.485 13.0447 36.9552C12.5149 36.4254 12.25 35.7865 12.25 35.0384V14.9616C12.25 14.2135 12.5149 13.5745 13.0447 13.0447C13.5745 12.5149 14.2135 12.25 14.9615 12.25H35.0384C35.7864 12.25 36.4254 12.5149 36.9552 13.0447C37.485 13.5745 37.7499 14.2135 37.7499 14.9616V19.0433H35.5V14.9616C35.5 14.8269 35.4567 14.7163 35.3701 14.6298C35.2836 14.5432 35.173 14.5 35.0384 14.5H14.9615C14.8269 14.5 14.7163 14.5432 14.6298 14.6298C14.5432 14.7163 14.5 14.8269 14.5 14.9616V35.0384C14.5 35.173 14.5432 35.2836 14.6298 35.3701C14.7163 35.4567 14.8269 35.5 14.9615 35.5H35.0384C35.173 35.5 35.2836 35.4567 35.3701 35.3701C35.4567 35.2836 35.5 35.173 35.5 35.0384V30.9567H37.7499V35.0384C37.7499 35.7865 37.485 36.4254 36.9552 36.9552C36.4254 37.485 35.7864 37.7499 35.0384 37.7499H14.9615ZM26.9616 31.7499C26.2135 31.7499 25.5745 31.485 25.0447 30.9552C24.5149 30.4254 24.25 29.7865 24.25 29.0384V20.9616C24.25 20.2135 24.5149 19.5745 25.0447 19.0447C25.5745 18.5149 26.2135 18.25 26.9616 18.25H36.5384C37.2864 18.25 37.9254 18.5149 38.4552 19.0447C38.985 19.5745 39.2499 20.2135 39.2499 20.9616V29.0384C39.2499 29.7865 38.985 30.4254 38.4552 30.9552C37.9254 31.485 37.2864 31.7499 36.5384 31.7499H26.9616ZM36.5384 29.5C36.673 29.5 36.7836 29.4567 36.8701 29.3701C36.9567 29.2836 37 29.173 37 29.0384V20.9616C37 20.8269 36.9567 20.7163 36.8701 20.6298C36.7836 20.5432 36.673 20.5 36.5384 20.5H26.9616C26.8269 20.5 26.7163 20.5432 26.6298 20.6298C26.5432 20.7163 26.5 20.8269 26.5 20.9616V29.0384C26.5 29.173 26.5432 29.2836 26.6298 29.3701C26.7163 29.4567 26.8269 29.5 26.9616 29.5H36.5384ZM31 27.25C31.625 27.25 32.1562 27.0312 32.5937 26.5937C33.0312 26.1562 33.25 25.625 33.25 25C33.25 24.375 33.0312 23.8437 32.5937 23.4062C32.1562 22.9687 31.625 22.75 31 22.75C30.375 22.75 29.8437 22.9687 29.4062 23.4062C28.9687 23.8437 28.75 24.375 28.75 25C28.75 25.625 28.9687 26.1562 29.4062 26.5937C29.8437 27.0312 30.375 27.25 31 27.25Z" fill="#47AAAF"/>
</svg>
