<svg width="50" height="50" viewBox="0 0 50 50" fill="none" xmlns="http://www.w3.org/2000/svg">
<circle cx="25" cy="25" r="25" fill="#47AAAF" fill-opacity="0.06"/>
<path d="M14.9615 37.7499C14.2038 37.7499 13.5625 37.4874 13.0375 36.9624C12.5125 36.4374 12.25 35.7961 12.25 35.0384V29.9615C12.25 29.2038 12.5125 28.5625 13.0375 28.0375C13.5625 27.5125 14.2038 27.25 14.9615 27.25H29.875V21.25H32.1249V27.25H35.0384C35.7961 27.25 36.4374 27.5125 36.9624 28.0375C37.4874 28.5625 37.7499 29.2038 37.7499 29.9615V35.0384C37.7499 35.7961 37.4874 36.4374 36.9624 36.9624C36.4374 37.4874 35.7961 37.7499 35.0384 37.7499H14.9615ZM14.9615 35.5H35.0384C35.173 35.5 35.2836 35.4567 35.3701 35.3701C35.4567 35.2836 35.5 35.173 35.5 35.0384V29.9615C35.5 29.8269 35.4567 29.7163 35.3701 29.6298C35.2836 29.5432 35.173 29.5 35.0384 29.5H14.9615C14.8269 29.5 14.7163 29.5432 14.6298 29.6298C14.5432 29.7163 14.5 29.8269 14.5 29.9615V35.0384C14.5 35.173 14.5432 35.2836 14.6298 35.3701C14.7163 35.4567 14.8269 35.5 14.9615 35.5ZM17.5 33.8269C17.8769 33.8269 18.1923 33.7 18.4461 33.4461C18.6999 33.1923 18.8269 32.8769 18.8269 32.5C18.8269 32.123 18.6999 31.8077 18.4461 31.5538C18.1923 31.3 17.8769 31.1731 17.5 31.1731C17.123 31.1731 16.8076 31.3 16.5538 31.5538C16.3 31.8077 16.1731 32.123 16.1731 32.5C16.1731 32.8769 16.3 33.1923 16.5538 33.4461C16.8076 33.7 17.123 33.8269 17.5 33.8269ZM22.75 33.8269C23.1269 33.8269 23.4423 33.7 23.6961 33.4461C23.9499 33.1923 24.0769 32.8769 24.0769 32.5C24.0769 32.123 23.9499 31.8077 23.6961 31.5538C23.4423 31.3 23.1269 31.1731 22.75 31.1731C22.373 31.1731 22.0576 31.3 21.8038 31.5538C21.55 31.8077 21.4231 32.123 21.4231 32.5C21.4231 32.8769 21.55 33.1923 21.8038 33.4461C22.0576 33.7 22.373 33.8269 22.75 33.8269ZM28 33.8269C28.3769 33.8269 28.6923 33.7 28.9461 33.4461C29.1999 33.1923 29.3269 32.8769 29.3269 32.5C29.3269 32.123 29.1999 31.8077 28.9461 31.5538C28.6923 31.3 28.3769 31.1731 28 31.1731C27.623 31.1731 27.3076 31.3 27.0538 31.5538C26.8 31.8077 26.6731 32.123 26.6731 32.5C26.6731 32.8769 26.8 33.1923 27.0538 33.4461C27.3076 33.7 27.623 33.8269 28 33.8269ZM28.1153 19.4904L26.4884 17.8635C27.1384 17.2635 27.8346 16.8029 28.5769 16.4818C29.3192 16.1606 30.1269 16 31 16C31.873 16 32.6807 16.1606 33.423 16.4818C34.1653 16.8029 34.8615 17.2635 35.5115 17.8635L33.8846 19.4904C33.4961 19.1019 33.0639 18.7981 32.5879 18.5788C32.112 18.3596 31.5827 18.25 31 18.25C30.4173 18.25 29.8879 18.3596 29.412 18.5788C28.936 18.7981 28.5038 19.1019 28.1153 19.4904ZM24.3653 15.7404L22.7846 14.1596C23.8558 13.0885 25.0899 12.2524 26.487 11.6515C27.8841 11.0505 29.3884 10.75 31 10.75C32.6115 10.75 34.1158 11.0505 35.5129 11.6515C36.91 12.2524 38.1442 13.0885 39.2153 14.1596L37.6346 15.7404C36.8096 14.9154 35.8341 14.2524 34.7081 13.7514C33.5822 13.2505 32.3461 13 31 13C29.6538 13 28.4177 13.2505 27.2918 13.7514C26.1658 14.2524 25.1903 14.9154 24.3653 15.7404Z" fill="#47AAAF"/>
</svg>
