<svg width="50" height="50" viewBox="0 0 50 50" fill="none" xmlns="http://www.w3.org/2000/svg">
<circle cx="25" cy="25" r="25" fill="#F3F9F9"/>
<path d="M24.9767 34.5332C25.227 34.5092 25.4332 34.4156 25.5952 34.2522C25.7572 34.0888 25.8382 33.8918 25.8382 33.6612C25.8382 33.3921 25.7499 33.1789 25.5733 33.0215C25.3968 32.8642 25.1713 32.7974 24.8966 32.8214C23.9156 32.8931 22.8471 32.6055 21.6911 31.9586C20.5352 31.3116 19.8137 30.1864 19.5265 28.5832C19.4787 28.3384 19.376 28.1461 19.2187 28.0062C19.0613 27.8663 18.874 27.7963 18.6568 27.7963C18.3954 27.7963 18.1778 27.8944 18.0038 28.0904C17.8299 28.2864 17.7742 28.5381 17.8368 28.8455C18.2252 30.931 19.1639 32.4219 20.653 33.3183C22.1421 34.2147 23.5834 34.6197 24.9767 34.5332ZM24.6208 38.3433C21.5467 38.3433 18.984 37.2872 16.9326 35.1751C14.8812 33.063 13.8555 30.434 13.8555 27.2883C13.8555 25.0611 14.7468 22.62 16.5295 19.9648C18.3122 17.3096 21.0101 14.4166 24.6233 11.2856C28.2365 14.4166 30.9345 17.3096 32.7172 19.9648C34.4998 22.62 35.3912 25.0611 35.3912 27.2883C35.3912 30.434 34.3646 33.063 32.3115 35.1751C30.2584 37.2872 27.6948 38.3433 24.6208 38.3433ZM24.6233 36.1898C27.1119 36.1898 29.1698 35.3463 30.7969 33.6593C32.4241 31.9723 33.2376 29.8487 33.2376 27.2883C33.2376 25.5415 32.5138 23.5674 31.0661 21.366C29.6184 19.1645 27.4708 16.7597 24.6233 14.1515C21.7758 16.7597 19.6282 19.1645 18.1805 21.366C16.7329 23.5674 16.009 25.5415 16.009 27.2883C16.009 29.8487 16.8226 31.9723 18.4497 33.6593C20.0769 35.3463 22.1347 36.1898 24.6233 36.1898Z" fill="#47AAAF"/>
</svg>
