<svg width="50" height="50" viewBox="0 0 50 50" fill="none" xmlns="http://www.w3.org/2000/svg">
<circle cx="25" cy="25" r="25" fill="#47AAAF" fill-opacity="0.06"/>
<path d="M20.0244 37.75V34.8382H13.9209C13.1855 34.8382 12.563 34.5834 12.0534 34.0739C11.5438 33.5643 11.2891 32.9418 11.2891 32.2064V15.6318C11.2891 14.8964 11.5438 14.2739 12.0534 13.7643C12.563 13.2548 13.1855 13 13.9209 13H36.319C37.0544 13 37.6769 13.2548 38.1865 13.7643C38.6961 14.2739 38.9508 14.8964 38.9508 15.6318V32.2064C38.9508 32.9418 38.6961 33.5643 38.1865 34.0739C37.6769 34.5834 37.0544 34.8382 36.319 34.8382H30.2155V37.75H20.0244ZM13.9209 32.6544H36.319C36.431 32.6544 36.5337 32.6078 36.6271 32.5144C36.7204 32.4211 36.767 32.3184 36.767 32.2064V15.6318C36.767 15.5198 36.7204 15.4171 36.6271 15.3238C36.5337 15.2305 36.431 15.1838 36.319 15.1838H13.9209C13.8089 15.1838 13.7062 15.2305 13.6128 15.3238C13.5195 15.4171 13.4729 15.5198 13.4729 15.6318V32.2064C13.4729 32.3184 13.5195 32.4211 13.6128 32.5144C13.7062 32.6078 13.8089 32.6544 13.9209 32.6544Z" fill="#47AAAF"/>
<path d="M19.2964 28.2868V21.0074H16.3847V19.5515H23.6641V21.0074H20.7523V28.2868H19.2964Z" fill="#47AAAF"/>
<path d="M25.12 19.5515L28.7597 28.2868H30.2156L33.8553 19.5515H32.3994L29.4876 26.103L26.5759 19.5515H25.12Z" fill="#47AAAF"/>
</svg>
