<svg width="50" height="50" viewBox="0 0 50 50" fill="none" xmlns="http://www.w3.org/2000/svg">
<circle cx="25" cy="25" r="25" fill="#47AAAF" fill-opacity="0.06"/>
<path d="M25.2452 34.9879C24.5566 34.9879 23.9745 34.7501 23.499 34.2746C23.0236 33.7992 22.7858 33.2171 22.7858 32.5285C22.7858 31.8399 23.0236 31.2578 23.499 30.7823C23.9745 30.3069 24.5566 30.0691 25.2452 30.0691C25.9338 30.0691 26.5158 30.3069 26.9913 30.7823C27.4668 31.2578 27.7046 31.8399 27.7046 32.5285C27.7046 33.2171 27.4668 33.7992 26.9913 34.2746C26.5158 34.7501 25.9338 34.9879 25.2452 34.9879ZM18.3635 28.4576L16.4616 26.5182C17.589 25.3908 18.9018 24.5023 20.3998 23.8527C21.8978 23.2031 23.5136 22.8783 25.2471 22.8783C26.9807 22.8783 28.5958 23.2062 30.0925 23.862C31.5893 24.5179 32.9013 25.4157 34.0287 26.5557L32.1268 28.4576C31.2337 27.5644 30.1984 26.864 29.021 26.3565C27.8436 25.849 26.585 25.5953 25.2452 25.5953C23.9054 25.5953 22.6468 25.849 21.4694 26.3565C20.292 26.864 19.2567 27.5644 18.3635 28.4576ZM13.1871 23.2811L11.2852 21.3792C13.0669 19.5725 15.1476 18.1527 17.5273 17.1198C19.9071 16.0868 22.4797 15.5703 25.2452 15.5703C28.0106 15.5703 30.5833 16.0868 32.963 17.1198C35.3428 18.1527 37.4235 19.5725 39.2052 21.3792L37.3033 23.2811C35.7402 21.718 33.9285 20.4949 31.868 19.6119C29.8076 18.7288 27.6 18.2873 25.2452 18.2873C22.8904 18.2873 20.6828 18.7288 18.6223 19.6119C16.5619 20.4949 14.7501 21.718 13.1871 23.2811Z" fill="#47AAAF"/>
</svg>
