<svg width="50" height="50" viewBox="0 0 50 50" fill="none" xmlns="http://www.w3.org/2000/svg">
<circle cx="25" cy="25" r="25" fill="#47AAAF" fill-opacity="0.06"/>
<path d="M24.9767 34.5327C25.227 34.5087 25.4332 34.4151 25.5952 34.2517C25.7572 34.0883 25.8382 33.8913 25.8382 33.6607C25.8382 33.3916 25.7499 33.1784 25.5733 33.021C25.3968 32.8637 25.1713 32.7969 24.8966 32.8209C23.9156 32.8927 22.8471 32.6051 21.6911 31.9581C20.5352 31.3111 19.8137 30.186 19.5265 28.5827C19.4787 28.3379 19.376 28.1456 19.2187 28.0057C19.0613 27.8658 18.874 27.7959 18.6568 27.7959C18.3954 27.7959 18.1778 27.8939 18.0038 28.0899C17.8299 28.2859 17.7742 28.5377 17.8368 28.845C18.2252 30.9305 19.1639 32.4214 20.653 33.3178C22.1421 34.2142 23.5834 34.6192 24.9767 34.5327ZM24.6208 38.3428C21.5467 38.3428 18.984 37.2868 16.9326 35.1746C14.8812 33.0625 13.8555 30.4336 13.8555 27.2878C13.8555 25.0606 14.7468 22.6195 16.5295 19.9643C18.3122 17.3092 21.0101 14.4161 24.6233 11.2852C28.2365 14.4161 30.9345 17.3092 32.7172 19.9643C34.4998 22.6195 35.3912 25.0606 35.3912 27.2878C35.3912 30.4336 34.3646 33.0625 32.3115 35.1746C30.2584 37.2868 27.6948 38.3428 24.6208 38.3428ZM24.6233 36.1893C27.1119 36.1893 29.1698 35.3458 30.7969 33.6588C32.4241 31.9719 33.2376 29.8482 33.2376 27.2878C33.2376 25.541 32.5138 23.5669 31.0661 21.3655C29.6184 19.164 27.4708 16.7592 24.6233 14.151C21.7758 16.7592 19.6282 19.164 18.1805 21.3655C16.7329 23.5669 16.009 25.541 16.009 27.2878C16.009 29.8482 16.8226 31.9719 18.4497 33.6588C20.0769 35.3458 22.1347 36.1893 24.6233 36.1893Z" fill="#47AAAF"/>
</svg>
