<svg width="50" height="50" viewBox="0 0 50 50" fill="none" xmlns="http://www.w3.org/2000/svg">
<circle cx="25" cy="25" r="25" fill="#47AAAF" fill-opacity="0.06"/>
<path d="M30.4943 11.3516H18.858C17.1976 11.3516 15.8516 12.6976 15.8516 14.358V35.9744C15.8516 37.6349 17.1976 38.9809 18.858 38.9809H30.4943C32.1547 38.9809 33.5007 37.6349 33.5007 35.9744V14.358C33.5007 12.6976 32.1547 11.3516 30.4943 11.3516Z" stroke="#47AAAF" stroke-width="2.52"/>
<path d="M29.274 14.1992H22.5229C21.9019 14.1992 21.3984 14.7232 21.3984 15.3695V15.3711C21.3984 16.0174 21.9019 16.5413 22.5229 16.5413H29.274C29.895 16.5413 30.3984 16.0174 30.3984 15.3711V15.3695C30.3984 14.7232 29.895 14.1992 29.274 14.1992Z" fill="#47AAAF"/>
<path d="M19.5352 14.1992H19.5335C18.8872 14.1992 18.3633 14.7232 18.3633 15.3695V15.3711C18.3633 16.0174 18.8872 16.5413 19.5335 16.5413H19.5352C20.1815 16.5413 20.7054 16.0174 20.7054 15.3711V15.3695C20.7054 14.7232 20.1815 14.1992 19.5352 14.1992Z" fill="#47AAAF"/>
<path d="M27.9264 34H21.1752C20.5542 34 20.0508 34.5436 20.0508 35.2142V35.2158C20.0508 35.8864 20.5542 36.43 21.1752 36.43H27.9264C28.5474 36.43 29.0508 35.8864 29.0508 35.2158V35.2142C29.0508 34.5436 28.5474 34 27.9264 34Z" fill="#47AAAF"/>
</svg>
