<svg width="50" height="50" viewBox="0 0 50 50" fill="none" xmlns="http://www.w3.org/2000/svg">
<circle cx="25" cy="25" r="25" fill="#47AAAF" fill-opacity="0.06"/>
<path d="M36.6441 37.1906V36.2843L35.7783 36.2554C35.7783 36.2554 35.9547 35.2104 35.7465 34.849C35.5355 34.4906 35.4777 34.3576 35.4777 34.0526C35.4777 33.7476 35.2666 33.366 34.82 33.3068C34.3734 33.2562 33.9831 33.1709 33.9528 33.6942C33.9224 34.2159 34.1335 34.6033 33.9831 34.823C33.8343 35.0427 33.6261 35.5096 33.6261 35.5096V34.9618H31.9206V34.3272H31.5621V18.7531C31.5621 18.7531 31.6069 14.2478 26.6897 13.3618L26.8993 11.7559L26.7981 11.6143L26.1361 12.1505L25.1677 10.6198L25.0622 10.6097V10.5996L25 10.6068L24.9378 10.5996V10.6112L24.8367 10.6198L23.8654 12.1491L23.2048 11.6128L23.0993 11.753L23.3089 13.3603C18.3916 14.2449 18.4379 18.7531 18.4379 18.7531V34.3287H18.0794V34.9632H16.3753V35.511C16.3753 35.511 16.1643 35.0456 16.0154 34.8245C15.8665 34.6033 16.0776 34.2174 16.0458 33.6956C16.0154 33.1738 15.6252 33.2576 15.1785 33.3082C14.729 33.3675 14.5209 33.7491 14.5209 34.0541C14.5209 34.359 14.4602 34.492 14.2491 34.8505C14.041 35.2118 14.2217 36.2568 14.2217 36.2568L13.3544 36.2857V37.1949H11.5V38.7906H38.5V37.1949H36.6441V37.1906ZM29.3781 35.3217H27.6032V34.1552H26.587V33.8503H26.0335C26.0537 32.7922 26.0783 30.1327 25.9742 29.7713C25.8354 29.3204 25.8167 29.1137 25.8167 28.9504C25.8167 28.7899 25.912 28.6425 25.912 28.6425C25.912 28.6425 26.1838 29.4635 26.4729 29.3623C26.7619 29.2582 26.7056 28.9894 26.3977 28.417C26.0869 27.8446 26.0508 27.7001 25.8167 27.6177C25.5897 27.5353 25.3932 27.372 25.4885 27.1436C25.5868 26.9181 25.6056 26.5091 25.4495 26.3443C25.2963 26.181 25.0867 26.181 24.893 26.3226C24.6994 26.4672 24.6618 26.6507 24.7196 26.9181C24.776 27.1841 24.7976 27.4544 24.6618 27.4544C24.5245 27.4544 24.0836 27.1017 24.0836 26.7143C24.0836 26.3226 24.2354 25.4193 24.1429 25.3383C24.0446 25.2559 23.9463 25.1519 23.9463 25.1519L23.9102 24.7833L24.1993 24.7659C24.1993 24.7659 24.2556 24.5766 24.1993 24.4349C24.1414 24.2875 23.9102 24.2687 23.7743 24.2687C23.637 24.2687 23.4621 24.3945 23.4838 24.5361C23.5026 24.6836 23.6196 24.8079 23.6196 24.8079H23.7555L23.8336 25.2169C23.8336 25.2169 23.7179 25.4655 23.6991 25.6881C23.676 25.9136 23.5604 26.8993 23.5806 27.1248C23.6023 27.3503 24.2368 28.2537 24.3178 28.3982C24.3958 28.5428 24.5071 28.8925 24.4305 28.9908C24.3539 29.0949 23.8133 29.9144 23.7179 30.2266C23.6225 30.5287 23.5806 31.1474 23.7367 31.2717C23.8899 31.3931 24.4132 31.6836 24.4132 31.6836V33.8517H23.8061V34.1567H22.6281V35.3231H20.6205V34.3287L22.8334 25.8254C22.8334 25.8254 22.8334 21.5297 22.8334 19.577C22.8334 17.8714 23.9478 17.497 25 17.497C25.8889 17.497 27.1667 17.8728 27.1667 19.577C27.1667 21.5311 27.1667 25.8254 27.1667 25.8254L29.3781 34.3287V35.3217ZM30.8466 34.2376H29.8421V18.8586C29.8421 18.8225 29.7149 14.943 25.1995 14.943H24.7196C20.21 14.943 20.0828 18.8225 20.0828 18.8586V34.2405H19.0768V18.8586C19.0768 17.5852 20.116 13.9356 24.7182 13.9356H25.1966C29.8074 13.9356 30.8437 17.5852 30.8437 18.8586L30.8466 34.2376Z" fill="#47AAAF"/>
</svg>
