<svg width="50" height="50" viewBox="0 0 50 50" fill="none" xmlns="http://www.w3.org/2000/svg">
<circle cx="25" cy="25" r="25" fill="#F3F9F9"/>
<path d="M36.6441 37.1909V36.2847L35.7783 36.2558C35.7783 36.2558 35.9547 35.2107 35.7465 34.8494C35.5355 34.4909 35.4777 34.358 35.4777 34.053C35.4777 33.748 35.2666 33.3664 34.82 33.3072C34.3734 33.2566 33.9831 33.1713 33.9528 33.6945C33.9224 34.2163 34.1335 34.6037 33.9831 34.8234C33.8343 35.0431 33.6261 35.5099 33.6261 35.5099V34.9621H31.9206V34.3276H31.5621V18.7535C31.5621 18.7535 31.6069 14.2482 26.6897 13.3621L26.8993 11.7563L26.7981 11.6146L26.1361 12.1509L25.1677 10.6202L25.0622 10.6101V10.6L25 10.6072L24.9378 10.6V10.6115L24.8367 10.6202L23.8654 12.1494L23.2048 11.6132L23.0993 11.7534L23.3089 13.3607C18.3916 14.2453 18.4379 18.7535 18.4379 18.7535V34.329H18.0794V34.9636H16.3753V35.5114C16.3753 35.5114 16.1643 35.046 16.0154 34.8248C15.8665 34.6037 16.0776 34.2178 16.0458 33.696C16.0154 33.1742 15.6252 33.258 15.1785 33.3086C14.729 33.3679 14.5209 33.7494 14.5209 34.0544C14.5209 34.3594 14.4602 34.4924 14.2491 34.8508C14.041 35.2122 14.2217 36.2572 14.2217 36.2572L13.3544 36.2861V37.1953H11.5V38.791H38.5V37.1953H36.6441V37.1909ZM29.3781 35.322H27.6032V34.1556H26.587V33.8506H26.0335C26.0537 32.7926 26.0783 30.1331 25.9742 29.7717C25.8354 29.3207 25.8167 29.1141 25.8167 28.9507C25.8167 28.7903 25.912 28.6429 25.912 28.6429C25.912 28.6429 26.1838 29.4638 26.4729 29.3627C26.7619 29.2586 26.7056 28.9898 26.3977 28.4174C26.0869 27.845 26.0508 27.7005 25.8167 27.6181C25.5897 27.5357 25.3932 27.3724 25.4885 27.144C25.5868 26.9185 25.6056 26.5095 25.4495 26.3447C25.2963 26.1813 25.0867 26.1813 24.893 26.323C24.6994 26.4675 24.6618 26.6511 24.7196 26.9185C24.776 27.1845 24.7976 27.4547 24.6618 27.4547C24.5245 27.4547 24.0836 27.1021 24.0836 26.7147C24.0836 26.323 24.2354 25.4196 24.1429 25.3387C24.0446 25.2563 23.9463 25.1522 23.9463 25.1522L23.9102 24.7836L24.1993 24.7663C24.1993 24.7663 24.2556 24.577 24.1993 24.4353C24.1414 24.2879 23.9102 24.2691 23.7743 24.2691C23.637 24.2691 23.4621 24.3948 23.4838 24.5365C23.5026 24.6839 23.6196 24.8082 23.6196 24.8082H23.7555L23.8336 25.2173C23.8336 25.2173 23.7179 25.4659 23.6991 25.6885C23.676 25.9139 23.5604 26.8997 23.5806 27.1252C23.6023 27.3507 24.2368 28.254 24.3178 28.3986C24.3958 28.5431 24.5071 28.8929 24.4305 28.9912C24.3539 29.0953 23.8133 29.9148 23.7179 30.227C23.6225 30.5291 23.5806 31.1477 23.7367 31.272C23.8899 31.3934 24.4132 31.684 24.4132 31.684V33.8521H23.8061V34.157H22.6281V35.3235H20.6205V34.329L22.8334 25.8258C22.8334 25.8258 22.8334 21.5301 22.8334 19.5773C22.8334 17.8718 23.9478 17.4974 25 17.4974C25.8889 17.4974 27.1667 17.8732 27.1667 19.5773C27.1667 21.5315 27.1667 25.8258 27.1667 25.8258L29.3781 34.329V35.322ZM30.8466 34.238H29.8421V18.859C29.8421 18.8228 29.7149 14.9434 25.1995 14.9434H24.7196C20.21 14.9434 20.0828 18.8228 20.0828 18.859V34.2409H19.0768V18.859C19.0768 17.5856 20.116 13.936 24.7182 13.936H25.1966C29.8074 13.936 30.8437 17.5856 30.8437 18.859L30.8466 34.238Z" fill="#47AAAF"/>
</svg>
