<svg width="332" height="202" viewBox="0 0 332 202" fill="none" xmlns="http://www.w3.org/2000/svg">
<path d="M0 14C0 6.26801 6.26801 0 14 0H318C325.732 0 332 6.26801 332 14V188C332 195.732 325.732 202 318 202H14C6.26801 202 0 195.732 0 188V14Z" fill="url(#paint0_linear_150_4764)"/>
<path d="M287.852 30.0781C289.417 31.3064 290.681 32.8746 291.551 34.664C292.42 36.4534 292.871 38.4171 292.869 40.4065C292.87 42.3952 292.419 44.3581 291.55 46.1468C290.681 47.9355 289.416 49.5031 287.852 50.731C286.287 49.5029 285.022 47.935 284.153 46.1459C283.284 44.3569 282.833 42.3936 282.834 40.4045C282.833 38.4155 283.284 36.4522 284.153 34.6631C285.022 32.8741 286.287 31.3062 287.852 30.0781ZM286.17 28.9532C284.514 30.3672 283.184 32.1239 282.273 34.102C281.362 36.0802 280.892 38.2325 280.894 40.4103C280.892 42.5872 281.362 44.7386 282.272 46.716C283.182 48.6934 284.511 50.4497 286.166 51.8635C284.167 52.9861 281.908 53.5657 279.615 53.5448C277.322 53.5239 275.074 52.9032 273.096 51.7444C271.117 50.5856 269.476 48.9291 268.336 46.9395C267.195 44.9499 266.596 42.6966 266.596 40.4034C266.597 38.1103 267.198 35.8573 268.339 33.8683C269.48 31.8793 271.122 30.2236 273.101 29.0658C275.081 27.908 277.329 27.2885 279.622 27.2687C281.915 27.249 284.171 27.8297 286.17 28.9532ZM289.537 51.8635C291.192 50.4497 292.521 48.6934 293.431 46.716C294.341 44.7386 294.812 42.5872 294.809 40.4103C294.812 38.2325 294.341 36.0802 293.43 34.102C292.519 32.1239 291.19 30.3672 289.533 28.9532C291.532 27.8297 293.79 27.249 296.083 27.2687C298.377 27.2885 300.624 27.908 302.604 29.0658C304.583 30.2236 306.225 31.8793 307.366 33.8683C308.508 35.8573 309.108 38.1103 309.109 40.4034C309.109 42.6966 308.51 44.9499 307.37 46.9395C306.229 48.9291 304.588 50.5856 302.61 51.7444C300.631 52.9032 298.383 53.5239 296.09 53.5448C293.797 53.5657 291.539 52.9861 289.539 51.8635H289.537Z" fill="white"/>
<path d="M272.711 60.3225V57.8891C272.711 56.9559 272.143 56.3477 271.211 56.3477C270.721 56.3477 270.197 56.5103 269.832 57.0332C269.548 56.5867 269.146 56.3477 268.534 56.3477C268.307 56.3379 268.08 56.3846 267.875 56.4838C267.67 56.5829 267.493 56.7313 267.359 56.9157V56.4261H266.589V60.3195H267.359V58.0918C267.359 57.4063 267.765 57.0783 268.333 57.0783C268.901 57.0783 269.225 57.4435 269.225 58.0918V60.3225H269.995V58.0918C269.995 57.4063 270.401 57.0783 270.969 57.0783C271.537 57.0783 271.861 57.4435 271.861 58.0918V60.3225H272.711ZM285.365 56.4692H283.945V55.2941H283.176V56.4692H282.365V57.1546H283.176V58.9839C283.176 59.876 283.5 60.4038 284.473 60.4038C284.842 60.3961 285.203 60.2986 285.526 60.1198L285.282 59.4343C285.063 59.5711 284.81 59.6415 284.552 59.637C284.146 59.637 283.944 59.3932 283.944 58.9878V57.1233H285.364V56.4741L285.365 56.4692ZM292.583 56.3477C292.374 56.3431 292.166 56.3929 291.981 56.4925C291.796 56.592 291.64 56.7379 291.529 56.9157V56.4261H290.758V60.3195H291.529V58.1329C291.529 57.4837 291.853 57.0783 292.381 57.0783C292.559 57.0855 292.736 57.1127 292.908 57.1595L293.151 56.429C292.966 56.3821 292.775 56.3549 292.583 56.3477ZM281.674 56.7532C281.268 56.4692 280.7 56.3477 280.092 56.3477C279.119 56.3477 278.511 56.7943 278.511 57.5649C278.511 58.2142 278.957 58.5785 279.808 58.7009L280.214 58.741C280.66 58.8223 280.944 58.9848 280.944 59.1875C280.944 59.4715 280.62 59.6772 280.011 59.6772C279.546 59.6867 279.09 59.5444 278.714 59.2718L278.308 59.8799C278.876 60.2853 279.565 60.3695 279.973 60.3695C281.109 60.3695 281.717 59.8427 281.717 59.1121C281.717 58.4267 281.227 58.0986 280.378 57.9762L279.973 57.9361C279.608 57.8959 279.287 57.7735 279.287 57.5307C279.287 57.2467 279.611 57.041 280.058 57.041C280.548 57.041 281.031 57.2438 281.275 57.3652L281.674 56.7532ZM293.435 58.3758C293.435 59.5508 294.206 60.4038 295.463 60.4038C296.031 60.4038 296.437 60.2823 296.842 59.9572L296.437 59.3491C296.15 59.5816 295.793 59.7103 295.423 59.7144C294.738 59.7144 294.206 59.1875 294.206 58.4169C294.206 57.6462 294.731 57.1233 295.423 57.1233C295.793 57.1274 296.15 57.2561 296.437 57.4886L296.842 56.8805C296.437 56.5563 296.031 56.4339 295.463 56.4339C294.246 56.3526 293.435 57.2046 293.435 58.3806V58.3758ZM288.001 56.3477C286.865 56.3477 286.094 57.1586 286.094 58.3758C286.094 59.593 286.905 60.4038 288.081 60.4038C288.653 60.4158 289.212 60.2297 289.662 59.8769L289.257 59.309C288.931 59.5615 288.533 59.7035 288.121 59.7144C287.594 59.7144 287.026 59.3902 286.946 58.7009H289.826V58.3767C289.826 57.1595 289.095 56.3477 288.001 56.3477ZM287.961 57.0783C288.528 57.0783 288.934 57.4435 288.974 58.0516H286.866C286.987 57.4837 287.355 57.0783 287.961 57.0783ZM277.456 56.429H276.686V56.9186C276.402 56.5534 276 56.3507 275.428 56.3507C274.333 56.3507 273.522 57.2026 273.522 58.3787C273.522 59.5548 274.332 60.4067 275.428 60.4067C275.996 60.4067 276.402 60.204 276.686 59.8387V60.3284H277.456V56.429ZM274.333 58.3758C274.333 57.6452 274.78 57.0783 275.551 57.0783C276.281 57.0783 276.726 57.6462 276.726 58.3758C276.726 59.1464 276.236 59.6733 275.551 59.6733C274.78 59.7134 274.333 59.1053 274.333 58.3758ZM304.306 56.3477C304.096 56.3431 303.889 56.3929 303.704 56.4925C303.519 56.592 303.363 56.7379 303.251 56.9157V56.4261H302.481V60.3195H303.25V58.1329C303.25 57.4837 303.575 57.0783 304.102 57.0783C304.28 57.0855 304.457 57.1127 304.629 57.1595L304.873 56.429C304.687 56.3821 304.498 56.3549 304.306 56.3477ZM301.305 56.429H300.534V56.9186C300.25 56.5534 299.848 56.3507 299.277 56.3507C298.182 56.3507 297.37 57.2026 297.37 58.3787C297.37 59.5548 298.181 60.4067 299.277 60.4067C299.845 60.4067 300.25 60.204 300.534 59.8387V60.3284H301.305V56.429ZM298.182 58.3758C298.182 57.6452 298.628 57.0783 299.399 57.0783C300.13 57.0783 300.574 57.6462 300.574 58.3758C300.574 59.1464 300.084 59.6733 299.399 59.6733C298.628 59.7134 298.182 59.1053 298.182 58.3758ZM309.133 54.8877H308.362V56.9157C308.078 56.5504 307.677 56.3477 307.105 56.3477C306.01 56.3477 305.198 57.1997 305.198 58.3758C305.198 59.5518 306.009 60.4038 307.105 60.4038C307.673 60.4038 308.078 60.2011 308.362 59.8358V60.3254H309.133V54.8877ZM306.01 58.3758C306.01 57.6452 306.456 57.0783 307.227 57.0783C307.958 57.0783 308.402 57.6462 308.402 58.3758C308.402 59.1464 307.913 59.6733 307.227 59.6733C306.455 59.7144 306.01 59.1063 306.01 58.3758Z" fill="white"/>
<defs>
<linearGradient id="paint0_linear_150_4764" x1="21.5" y1="-17.5" x2="304" y2="225.5" gradientUnits="userSpaceOnUse">
<stop stop-color="#29CBD3"/>
<stop offset="1" stop-color="#5BAC5F"/>
</linearGradient>
</defs>
</svg>
