<svg width="108" height="70" viewBox="0 0 108 70" fill="none" xmlns="http://www.w3.org/2000/svg">
<g filter="url(#filter0_d_859_22215)">
<rect x="4" y="4" width="100" height="62" rx="8" fill="#47AAAF"/>
</g>
<path fill-rule="evenodd" clip-rule="evenodd" d="M86.7949 22.1986L87.2572 22.2103C87.3452 22.0759 90.501 13.2417 90.5534 12.918L90.095 12.9352C89.9664 13.1382 86.9137 21.6796 86.7949 22.1986Z" fill="white"/>
<path fill-rule="evenodd" clip-rule="evenodd" d="M88.5176 22.2344L89.0409 22.2351C89.1405 21.6568 89.6211 20.5411 89.8381 19.9022L92.3198 12.8984L91.8527 12.9057C91.6194 13.2177 90.3985 16.88 90.1745 17.5321C89.6281 19.1228 89.0119 20.6267 88.5176 22.2344Z" fill="white"/>
<path fill-rule="evenodd" clip-rule="evenodd" d="M87.6387 22.2223L88.1664 22.2258L91.439 12.9102L90.9347 12.9213L87.6387 22.2223Z" fill="white"/>
<path fill-rule="evenodd" clip-rule="evenodd" d="M80.4688 22.1084L80.9801 22.1109L84.1648 12.9375L83.6477 12.9425L80.4688 22.1084Z" fill="white"/>
<path fill-rule="evenodd" clip-rule="evenodd" d="M85.9727 22.178L86.4143 22.1855L89.6917 12.9355L89.1749 12.9397L88.3792 15.2646C88.0018 16.3272 85.968 21.9162 85.9727 22.178Z" fill="white"/>
<path fill-rule="evenodd" clip-rule="evenodd" d="M79.6406 22.096L80.1319 22.098C80.4058 21.0949 81.3004 18.7563 81.7092 17.5486C81.9717 16.773 82.2388 16.0408 82.5023 15.279C82.7533 14.5531 83.1316 13.6295 83.3131 12.9414L82.805 12.9419L79.6406 22.096Z" fill="white"/>
<path fill-rule="evenodd" clip-rule="evenodd" d="M82.1504 22.1323L82.6047 22.1308L85.8668 12.9336L85.3507 12.9348L82.1504 22.1323Z" fill="white"/>
<path fill-rule="evenodd" clip-rule="evenodd" d="M81.3145 22.1036L81.8242 22.1309C81.9326 21.5786 83.1054 18.404 83.3878 17.5736C83.6946 16.671 84.8646 13.513 85.007 12.9355L84.5502 12.9438L81.3145 22.1036Z" fill="white"/>
<path fill-rule="evenodd" clip-rule="evenodd" d="M92.2559 19.038L92.8142 18.9849L94.9357 12.9769L94.4122 12.9336L92.2559 19.038Z" fill="white"/>
<path fill-rule="evenodd" clip-rule="evenodd" d="M93.2109 18.8735C93.5469 18.8295 93.7347 18.7638 93.8417 18.5481L95.7359 13.2031L95.2571 13.0469L93.2109 18.8735Z" fill="white"/>
<path fill-rule="evenodd" clip-rule="evenodd" d="M87.1891 23.2437L86.5801 24.8359L87.3815 24.872C87.4467 24.5998 87.7633 23.6915 87.9042 23.5193C88.1233 23.5111 88.2489 23.4767 88.4392 23.5685C88.3855 23.9971 87.9415 23.7426 87.8365 23.9219C87.7787 24.258 88.1393 24.5434 88.2461 24.8711L89.1291 24.8676C88.9978 24.6146 88.8176 24.3581 88.6961 24.1308C88.9218 24.0064 89.0977 23.9925 89.2266 23.7679C89.3774 23.5052 89.3191 23.2677 89.0181 23.2298C88.6623 23.1851 87.5738 23.2232 87.1891 23.2437Z" fill="white"/>
<path fill-rule="evenodd" clip-rule="evenodd" d="M87.5938 27.0018L88.4345 27.0067L88.9741 25.5836C89.2046 25.582 89.4418 25.5777 89.5985 25.6422C89.575 25.8673 89.4898 25.893 89.2562 25.9237C88.9204 25.9677 89.0005 25.8533 88.881 26.2342C89.2311 26.2273 89.8108 26.2963 90.1026 26.1762C90.3369 26.0798 90.6624 25.7537 90.4373 25.3903C90.1811 25.1841 88.6871 25.2764 88.258 25.2907C88.1161 25.4613 87.6695 26.7197 87.5938 27.0018Z" fill="white"/>
<path fill-rule="evenodd" clip-rule="evenodd" d="M91.4082 19.0093L91.921 19.0471L94.0705 12.9275L93.5588 12.8926C93.4709 13.3306 93.1679 14.0169 93.0246 14.432C92.7069 15.3527 93.3165 14.4589 92.7145 16.1224C92.6286 16.3598 92.553 16.6666 92.4031 16.8731C92.2195 17.1258 92.0927 17.0647 91.9408 17.4697C91.7613 17.9482 91.5478 18.5323 91.4082 19.0093Z" fill="white"/>
<path fill-rule="evenodd" clip-rule="evenodd" d="M89.2246 27.0191C89.6583 27.0631 89.6092 26.9589 90.1764 26.5464C90.4174 26.3712 90.7652 26.0379 91.0102 25.94C91.12 26.146 91.2213 26.3073 91.3114 26.5065C90.7309 26.4985 90.3549 26.3878 90.1258 26.808L91.4981 26.8171C91.8193 27.2112 91.6927 27.0377 92.7496 27.0855L92.2601 26.1653C91.5825 24.939 91.9738 24.9347 89.4782 26.7931C89.3379 26.8975 89.3387 26.9187 89.2246 27.0191Z" fill="white"/>
<path fill-rule="evenodd" clip-rule="evenodd" d="M94.2754 18.3482L94.595 18.1786C94.6569 18.1279 94.7858 18.0116 94.8366 17.9582C95.082 17.7 96.2882 14.2094 96.3114 14.066C96.3606 13.7616 96.2393 13.5836 96.0214 13.4316L94.2754 18.3482Z" fill="white"/>
<path fill-rule="evenodd" clip-rule="evenodd" d="M91.1047 24.6886C90.9006 24.5049 90.325 24.6474 90.0305 24.5623C89.9801 24.4433 89.9723 24.3324 90.02 24.2092C90.1356 23.911 90.3975 24.1143 90.9213 24.0683C91.2399 24.0404 91.1287 24.0993 91.2207 23.7697L90.2256 23.7759C90.2705 23.4392 90.5103 23.5503 90.9137 23.4981C91.3761 23.5024 91.5284 23.6274 91.6433 23.2086C91.1981 23.2151 90.51 23.1722 90.0983 23.2294C89.7077 23.2837 89.3943 23.5972 89.2382 23.9575C88.7608 25.0589 89.7581 24.8693 90.4432 24.8794C91.2189 24.8908 91.0002 24.9186 91.1047 24.6886Z" fill="white"/>
<path fill-rule="evenodd" clip-rule="evenodd" d="M84.1875 24.8788L84.9904 24.8821L85.4732 23.5556C85.7101 23.5365 85.8538 23.4906 86.0553 23.6265C85.8457 24.1844 85.5568 23.5176 85.3985 24.1292C85.6883 24.1439 86.2673 24.1804 86.5134 24.0659C86.7288 23.9655 87.0378 23.644 86.786 23.3338C86.5074 23.1945 85.1876 23.2615 84.7918 23.2837C84.5811 23.79 84.3352 24.3741 84.1875 24.8788Z" fill="white"/>
<path fill-rule="evenodd" clip-rule="evenodd" d="M92.9261 27.076L93.8071 27.1018C93.8686 26.8666 93.9983 26.4084 94.1777 26.2533C94.4689 26.0016 95.2103 25.6116 95.401 25.3222C94.9102 25.3318 94.9943 25.3539 94.692 25.5879L94.1433 25.9758C94.0217 25.8709 93.8156 25.4805 93.7568 25.3145L92.6289 25.3172C92.7548 25.6199 92.9113 25.8513 93.0609 26.1262C93.2811 26.5307 92.9265 26.686 92.9261 27.076Z" fill="white"/>
<path fill-rule="evenodd" clip-rule="evenodd" d="M82.6604 24.098C82.405 24.3073 81.846 24.6719 81.7168 24.8703C82.1779 24.8727 82.1462 24.7307 82.7771 24.2934L83.1251 24.8589L84.0717 24.8762C83.9734 24.6427 83.7972 24.295 83.6825 24.098C83.9264 23.8394 84.2871 23.6251 84.6444 23.2865C84.1198 23.2515 84.2049 23.4963 83.5316 23.8823L83.2328 23.2898L82.3135 23.2904C82.3698 23.5676 82.5985 23.8131 82.6604 24.098Z" fill="white"/>
<path fill-rule="evenodd" clip-rule="evenodd" d="M81.6841 24.6318C81.2718 24.4979 80.6151 24.8664 80.699 24.3163C80.7096 24.2466 80.89 23.6963 81.0571 23.6082C81.5655 23.3402 82.045 23.8835 82.1881 23.2874C81.7509 23.3051 81.214 23.2616 80.798 23.3056C80.5184 23.3351 80.4746 23.3922 80.3054 23.5656L80.1654 23.7195C79.9606 24.0035 79.5985 24.8168 80.3646 24.8683C80.5848 24.8831 80.8484 24.8676 81.0749 24.8713C81.4483 24.8774 81.5876 24.9159 81.6841 24.6318Z" fill="white"/>
<path fill-rule="evenodd" clip-rule="evenodd" d="M86.0156 18.4056L86.5186 18.4105L87.2334 16.3428L86.742 16.3223C86.5278 16.9406 86.1701 17.8188 86.0156 18.4056Z" fill="white"/>
<path fill-rule="evenodd" clip-rule="evenodd" d="M84.3047 18.3996L84.821 18.4049L85.5261 16.3125L85.0761 16.3169C85.0143 16.3922 85.082 16.2785 85.0036 16.4281C84.9835 16.4664 84.9646 16.5094 84.9481 16.5499L84.3047 18.3996Z" fill="white"/>
<path fill-rule="evenodd" clip-rule="evenodd" d="M85.1523 18.4057L85.6781 18.4037C85.7194 18.0926 85.9058 17.6729 86.0066 17.3715C86.1243 17.0193 86.2866 16.6382 86.3774 16.3163L85.8726 16.3145L85.1523 18.4057Z" fill="white"/>
<path fill-rule="evenodd" clip-rule="evenodd" d="M87.9602 12.9311L87.2285 14.9579L87.7322 14.9563L88.4401 12.9199L87.9602 12.9311Z" fill="white"/>
<path fill-rule="evenodd" clip-rule="evenodd" d="M86.3613 14.9537L86.8665 14.9503L87.568 12.93L87.0977 12.9297L86.3613 14.9537Z" fill="white"/>
<path fill-rule="evenodd" clip-rule="evenodd" d="M83.832 22.1628L84.3438 22.17L85.0181 20.2101L84.5462 20.1934L83.832 22.1628Z" fill="white"/>
<path fill-rule="evenodd" clip-rule="evenodd" d="M85.5195 14.9582L86.0099 14.9496L86.7181 12.9355L86.2438 12.9438L85.5195 14.9582Z" fill="white"/>
<path fill-rule="evenodd" clip-rule="evenodd" d="M83.0078 22.1406L83.4928 22.1505L84.1664 20.1861C83.6973 20.1877 83.7155 20.1197 83.6021 20.392L83.0078 22.1406Z" fill="white"/>
<path fill-rule="evenodd" clip-rule="evenodd" d="M84.6797 22.1727L85.1472 22.1763L85.819 20.2305L85.3531 20.1934L84.6797 22.1727Z" fill="white"/>
<path fill-rule="evenodd" clip-rule="evenodd" d="M92.0723 14.6342L92.5539 14.6463L93.1887 12.9124L92.6634 12.8906C92.5378 13.4502 92.2307 14.0797 92.0723 14.6342Z" fill="white"/>
<path fill-rule="evenodd" clip-rule="evenodd" d="M90.5645 19.0014L91.0112 19.0134L91.5897 17.4102L91.0553 17.4329C90.9994 17.868 90.5627 18.6192 90.5645 19.0014Z" fill="white"/>
<path d="M81.9976 23.8008H81.0176L80.9108 24.1023H81.8908L81.9976 23.8008Z" fill="white"/>
<path d="M82.187 23.2852H81.207L81.1002 23.5867H82.0802L82.187 23.2852Z" fill="white"/>
<path d="M81.73 24.5742H80.75L80.6432 24.8758H81.6232L81.73 24.5742Z" fill="white"/>
<path d="M86.3394 23.2695H85.3594L85.2526 23.5711H86.2326L86.3394 23.2695Z" fill="white"/>
<path d="M86.2137 23.8477H85.4863L85.371 24.1492H86.0984L86.2137 23.8477Z" fill="white"/>
<path d="M88.8101 23.2129H87.8301L87.7233 23.5144H88.7033L88.8101 23.2129Z" fill="white"/>
<path d="M91.1402 24.5781H90.1602L90.0534 24.8797H91.0334L91.1402 24.5781Z" fill="white"/>
<path d="M91.6323 23.2129H90.6523L90.5456 23.5144H91.5256L91.6323 23.2129Z" fill="white"/>
<path fill-rule="evenodd" clip-rule="evenodd" d="M94.3792 24.6077C93.5064 24.5854 93.4639 24.4942 93.3418 24.8014C93.5595 24.9233 95.0592 24.9027 95.3162 24.7406C95.8497 24.404 94.8858 23.6972 94.7455 23.4812C95.736 23.4459 95.7406 23.6157 95.8322 23.2194C95.3633 23.1433 94.2642 23.1285 93.8896 23.3707C93.2674 23.7731 94.1919 24.3456 94.3792 24.6077Z" fill="white"/>
<path d="M94.4019 24.5762H93.4219L93.3151 24.8777H94.2951L94.4019 24.5762Z" fill="white"/>
<path d="M95.8531 23.1836H94.873L94.7663 23.4851H95.7463L95.8531 23.1836Z" fill="white"/>
<path fill-rule="evenodd" clip-rule="evenodd" d="M92.2679 24.6077C91.3951 24.5854 91.3526 24.4942 91.2305 24.8014C91.4482 24.9233 92.9479 24.9027 93.2049 24.7406C93.7384 24.404 92.7745 23.6972 92.6342 23.4812C93.6247 23.4459 93.6293 23.6157 93.7209 23.2194C93.2519 23.1433 92.1529 23.1285 91.7783 23.3707C91.156 23.7731 92.0805 24.3456 92.2679 24.6077Z" fill="white"/>
<path d="M92.2906 24.5762H91.3105L91.2038 24.8777H92.1838L92.2906 24.5762Z" fill="white"/>
<path d="M93.7417 23.1836H92.7617L92.6549 23.4851H93.6349L93.7417 23.1836Z" fill="white"/>
<path d="M91.2066 23.7715H90.2266L90.1198 24.073H91.0998L91.2066 23.7715Z" fill="white"/>
<mask id="path-48-inside-1_859_22215" fill="white">
<path fill-rule="evenodd" clip-rule="evenodd" d="M52.1861 24.7846L53.7993 23.1096C53.8064 23.1022 53.815 23.0962 53.8245 23.0922C53.834 23.0881 53.8441 23.0859 53.8545 23.0859C53.8648 23.0859 53.875 23.0881 53.8845 23.0922C53.8939 23.0962 53.9026 23.1022 53.9097 23.1096L55.5226 24.7846C55.5374 24.8 55.5457 24.8205 55.5457 24.8419C55.5457 24.8633 55.5374 24.8838 55.5226 24.8993L53.9097 26.5743C53.9025 26.5817 53.8939 26.5877 53.8845 26.5918C53.875 26.5958 53.8648 26.598 53.8545 26.598C53.8441 26.598 53.834 26.5958 53.8245 26.5918C53.815 26.5877 53.8064 26.5817 53.7993 26.5743L52.1861 24.8993C52.1715 24.8837 52.1633 24.8632 52.1633 24.8419C52.1633 24.8206 52.1715 24.8001 52.1861 24.7846ZM46.1392 36.962L46.7073 36.3721C46.7098 36.3695 46.7128 36.3675 46.7161 36.366C46.7195 36.3646 46.723 36.3639 46.7267 36.3639C46.7303 36.3639 46.7339 36.3646 46.7372 36.366C46.7405 36.3675 46.7435 36.3695 46.746 36.3721L47.3143 36.962C47.3195 36.9675 47.3223 36.9747 47.3223 36.9822C47.3223 36.9897 47.3195 36.997 47.3143 37.0025L46.746 37.5922C46.7435 37.5948 46.7405 37.5968 46.7372 37.5983C46.7339 37.5997 46.7303 37.6004 46.7267 37.6004C46.723 37.6004 46.7195 37.5997 46.7161 37.5983C46.7128 37.5968 46.7098 37.5948 46.7073 37.5922L46.1392 37.0025C46.1341 36.997 46.1312 36.9897 46.1312 36.9822C46.1312 36.9747 46.1341 36.9675 46.1392 36.962ZM60.6277 36.9088L61.1956 36.3191C61.1982 36.3165 61.2012 36.3143 61.2046 36.3129C61.2079 36.3114 61.2116 36.3107 61.2152 36.3107C61.2189 36.3107 61.2225 36.3114 61.2258 36.3129C61.2292 36.3143 61.2322 36.3165 61.2347 36.3191L61.8027 36.9088C61.8079 36.9143 61.8107 36.9216 61.8107 36.9291C61.8107 36.9366 61.8079 36.9437 61.8027 36.9492L61.2347 37.5391C61.2322 37.5417 61.2292 37.5438 61.2258 37.5452C61.2225 37.5467 61.2189 37.5474 61.2152 37.5474C61.2116 37.5474 61.2079 37.5467 61.2046 37.5452C61.2012 37.5438 61.1982 37.5417 61.1956 37.5391L60.6277 36.9492C60.6226 36.9437 60.6197 36.9365 60.6197 36.9291C60.6197 36.9216 60.6225 36.9144 60.6276 36.9089L60.6277 36.9088ZM49.486 36.9561L50.4149 35.9919C50.4189 35.9875 50.4238 35.984 50.4293 35.9817C50.4347 35.9793 50.4406 35.9781 50.4466 35.9781C50.4525 35.9781 50.4584 35.9793 50.4639 35.9817C50.4693 35.984 50.4742 35.9875 50.4783 35.9919L51.407 36.9561C51.4152 36.9651 51.4198 36.9769 51.4198 36.9892C51.4198 37.0014 51.4152 37.0132 51.407 37.0222L50.4783 37.9866C50.4742 37.9909 50.4693 37.9943 50.4638 37.9966C50.4584 37.999 50.4525 38.0002 50.4466 38.0002C50.4406 38.0002 50.4347 37.999 50.4293 37.9966C50.4238 37.9943 50.4189 37.9909 50.4149 37.9866L49.486 37.0222C49.4776 37.0133 49.4728 37.0016 49.4728 36.9893C49.4728 36.977 49.4775 36.9652 49.4859 36.9562L49.486 36.9561ZM53.0222 36.8627L53.951 35.8983C53.9551 35.894 53.96 35.8906 53.9655 35.8883C53.9709 35.8859 53.9768 35.8848 53.9827 35.8848C53.9886 35.8848 53.9945 35.8859 54 35.8883C54.0055 35.8906 54.0104 35.894 54.0145 35.8983L54.9432 36.8627C54.9517 36.8716 54.9565 36.8835 54.9565 36.8958C54.9565 36.9081 54.9517 36.9199 54.9432 36.9288L54.0145 37.8933C54.0104 37.8976 54.0055 37.901 54 37.9034C53.9945 37.9057 53.9886 37.9068 53.9827 37.9068C53.9768 37.9068 53.9709 37.9057 53.9655 37.9034C53.96 37.901 53.9551 37.8976 53.951 37.8933L53.0222 36.9288C53.0139 36.9198 53.0094 36.9081 53.0093 36.8959C53.0093 36.8837 53.0139 36.8719 53.022 36.8628L53.0222 36.8627ZM56.661 36.9695L57.5896 36.0051C57.5937 36.0008 57.5986 35.9974 57.6041 35.9951C57.6095 35.9927 57.6154 35.9915 57.6214 35.9915C57.6273 35.9915 57.6332 35.9927 57.6387 35.9951C57.6441 35.9974 57.649 36.0008 57.6531 36.0051L58.5819 36.9695C58.5904 36.9784 58.5951 36.9903 58.5951 37.0026C58.5951 37.0149 58.5904 37.0266 58.5819 37.0355L57.6531 37.9998C57.649 38.0041 57.6441 38.0076 57.6387 38.0099C57.6332 38.0123 57.6273 38.0135 57.6214 38.0135C57.6154 38.0135 57.6095 38.0123 57.6041 38.0099C57.5986 38.0076 57.5937 38.0041 57.5896 37.9998L56.661 37.0355C56.6526 37.0266 56.6479 37.0148 56.6479 37.0026C56.6479 36.9904 56.6525 36.9786 56.6608 36.9696L56.661 36.9695ZM58.3904 38.9277L59.3192 37.9632C59.3233 37.9589 59.3282 37.9555 59.3336 37.9532C59.3391 37.9508 59.345 37.9496 59.351 37.9496C59.3569 37.9496 59.3627 37.9508 59.3682 37.9532C59.3737 37.9555 59.3786 37.9589 59.3827 37.9632L60.3115 38.9277C60.32 38.9366 60.3247 38.9484 60.3247 38.9607C60.3247 38.9729 60.32 38.9847 60.3115 38.9936L59.3827 39.958C59.3786 39.9623 59.3737 39.9658 59.3683 39.9681C59.3628 39.9705 59.3569 39.9716 59.351 39.9716C59.345 39.9716 59.3391 39.9705 59.3336 39.9681C59.3282 39.9658 59.3232 39.9623 59.3192 39.958L58.3904 38.9936C58.3821 38.9847 58.3774 38.973 58.3774 38.9608C58.3774 38.9486 58.382 38.9368 58.3903 38.9279L58.3904 38.9277ZM47.6282 38.9542L48.557 37.9899C48.5611 37.9856 48.566 37.9822 48.5715 37.9799C48.5769 37.9775 48.5828 37.9763 48.5888 37.9763C48.5947 37.9763 48.6006 37.9775 48.606 37.9799C48.6115 37.9822 48.6164 37.9856 48.6205 37.9899L49.5493 38.9542C49.5578 38.9631 49.5625 38.9749 49.5625 38.9872C49.5625 38.9995 49.5578 39.0113 49.5493 39.0202L48.6205 39.9847C48.6164 39.989 48.6115 39.9924 48.606 39.9947C48.6006 39.9971 48.5947 39.9983 48.5888 39.9983C48.5828 39.9983 48.5769 39.9971 48.5715 39.9947C48.566 39.9924 48.5611 39.989 48.557 39.9847L47.6282 39.0202C47.62 39.0112 47.6154 38.9995 47.6154 38.9872C47.6153 38.975 47.62 38.9632 47.6282 38.9542ZM50.9375 38.9713L52.1234 37.7398C52.1287 37.7344 52.135 37.73 52.142 37.727C52.1489 37.724 52.1564 37.7226 52.1639 37.7226C52.1715 37.7226 52.179 37.724 52.186 37.727C52.1929 37.73 52.1992 37.7344 52.2045 37.7398L53.3905 38.9713C53.4013 38.9827 53.4073 38.9978 53.4073 39.0135C53.4073 39.0292 53.4013 39.0442 53.3905 39.0556L52.2045 40.287C52.1992 40.2925 52.193 40.2969 52.186 40.2999C52.1791 40.3029 52.1715 40.3045 52.1639 40.3045C52.1564 40.3045 52.1489 40.3029 52.1419 40.2999C52.1349 40.2969 52.1286 40.2925 52.1234 40.287L50.9375 39.0556C50.9267 39.0442 50.9206 39.0292 50.9206 39.0135C50.9206 38.9978 50.9267 38.9827 50.9375 38.9713ZM54.5375 38.9183L55.7235 37.6865C55.7287 37.681 55.735 37.6767 55.742 37.6737C55.749 37.6707 55.7566 37.6692 55.7642 37.6692C55.7718 37.6692 55.7793 37.6707 55.7863 37.6737C55.7933 37.6767 55.7996 37.681 55.8049 37.6865L56.9908 38.9183C57.0015 38.9297 57.0075 38.9446 57.0075 38.9603C57.0075 38.976 57.0015 38.9911 56.9908 39.0024L55.8049 40.234C55.7996 40.2394 55.7933 40.2438 55.7863 40.2468C55.7793 40.2497 55.7718 40.2512 55.7642 40.2512C55.7566 40.2512 55.749 40.2497 55.742 40.2468C55.735 40.2438 55.7287 40.2394 55.7235 40.234L54.5375 39.0024C54.5267 38.9911 54.5208 38.976 54.5208 38.9603C54.5207 38.9446 54.5268 38.9297 54.5375 38.9183ZM52.5034 40.9368L53.8844 39.5031C53.8905 39.4966 53.8978 39.4915 53.9059 39.488C53.914 39.4845 53.9228 39.4826 53.9316 39.4826C53.9405 39.4826 53.9493 39.4845 53.9574 39.488C53.9655 39.4915 53.9729 39.4966 53.9789 39.5031L55.3596 40.9368C55.3722 40.9501 55.3792 40.9676 55.3792 40.9858C55.3792 41.0041 55.3722 41.0217 55.3596 41.0349L53.9789 42.4686C53.9728 42.475 53.9655 42.4801 53.9574 42.4836C53.9493 42.4871 53.9405 42.4889 53.9316 42.4889C53.9228 42.4889 53.9141 42.4871 53.906 42.4836C53.8978 42.4801 53.8905 42.475 53.8844 42.4686L52.5034 41.0349C52.4908 41.0217 52.4838 41.0041 52.4838 40.9858C52.4837 40.9676 52.4908 40.9501 52.5034 40.9368ZM54.2712 42.9883L55.6522 41.5537C55.6583 41.5473 55.6657 41.5422 55.6738 41.5388C55.6819 41.5353 55.6906 41.5335 55.6995 41.5335C55.7083 41.5335 55.7171 41.5353 55.7252 41.5388C55.7333 41.5422 55.7407 41.5473 55.7468 41.5537L57.1277 42.9883C57.1403 43.0015 57.1473 43.0192 57.1473 43.0374C57.1473 43.0557 57.1403 43.0731 57.1277 43.0864L55.7468 44.521C55.7407 44.5274 55.7333 44.5324 55.7252 44.5359C55.7171 44.5394 55.7083 44.5413 55.6995 44.5413C55.6906 44.5413 55.6819 44.5394 55.6738 44.5359C55.6657 44.5324 55.6583 44.5274 55.6522 44.521L54.2712 43.0864C54.2587 43.0731 54.2518 43.0556 54.2518 43.0374C54.2518 43.0192 54.2587 43.0016 54.2712 42.9883ZM56.3058 40.9427L57.4918 39.7112C57.497 39.7057 57.5033 39.7013 57.5103 39.6984C57.5172 39.6954 57.5247 39.6938 57.5323 39.6938C57.5399 39.6938 57.5474 39.6954 57.5543 39.6984C57.5613 39.7013 57.5676 39.7057 57.5728 39.7112L58.7591 40.9427C58.7698 40.9542 58.7757 40.9693 58.7757 40.985C58.7757 41.0006 58.7698 41.0156 58.7591 41.0271L57.5728 42.2583C57.5676 42.2638 57.5614 42.2683 57.5544 42.2713C57.5474 42.2743 57.5399 42.2759 57.5323 42.2759C57.5247 42.2759 57.5172 42.2743 57.5102 42.2713C57.5032 42.2683 57.497 42.2638 57.4918 42.2583L56.3058 41.0271C56.2949 41.0157 56.2889 41.0007 56.2889 40.985C56.2889 40.9693 56.2949 40.9542 56.3056 40.9428L56.3058 40.9427ZM49.118 40.9557L50.3042 39.7246C50.3094 39.719 50.3157 39.7147 50.3227 39.7117C50.3296 39.7086 50.3371 39.707 50.3447 39.707C50.3523 39.707 50.3599 39.7086 50.3668 39.7117C50.3738 39.7147 50.3801 39.719 50.3853 39.7246L51.5712 40.9557C51.582 40.9671 51.5881 40.9823 51.5881 40.998C51.5881 41.0137 51.582 41.0289 51.5712 41.0403L50.3853 42.2718C50.38 42.2773 50.3737 42.2816 50.3668 42.2846C50.3598 42.2876 50.3523 42.2892 50.3447 42.2892C50.3372 42.2892 50.3297 42.2876 50.3227 42.2846C50.3157 42.2816 50.3094 42.2773 50.3042 42.2718L49.118 41.0403C49.1072 41.0289 49.1012 41.0138 49.1011 40.9981C49.1011 40.9825 49.1071 40.9674 49.1178 40.956L49.118 40.9557ZM50.7095 42.948L52.0904 41.5143C52.0965 41.508 52.1039 41.5029 52.112 41.4995C52.1201 41.496 52.1289 41.4942 52.1377 41.4942C52.1465 41.4942 52.1553 41.496 52.1634 41.4995C52.1715 41.5029 52.1788 41.508 52.1849 41.5143L53.566 42.948C53.5784 42.9613 53.5854 42.9788 53.5854 42.9971C53.5854 43.0153 53.5784 43.0329 53.566 43.0461L52.1849 44.4806C52.1788 44.487 52.1715 44.492 52.1634 44.4955C52.1553 44.4989 52.1465 44.5007 52.1377 44.5007C52.1289 44.5007 52.1201 44.4989 52.112 44.4955C52.1039 44.492 52.0965 44.487 52.0904 44.4806L50.7095 43.0461C50.6972 43.0329 50.6904 43.0154 50.6904 42.9973C50.6904 42.9792 50.6972 42.9617 50.7095 42.9484V42.948ZM55.523 45.0324L53.9098 43.3575C53.9027 43.35 53.8941 43.3441 53.8846 43.34C53.8752 43.3359 53.8649 43.3339 53.8546 43.3339C53.8443 43.3339 53.8341 43.3359 53.8246 43.34C53.8151 43.3441 53.8065 43.35 53.7994 43.3575L52.1861 45.0324C52.1715 45.0479 52.1633 45.0685 52.1633 45.0898C52.1633 45.1112 52.1715 45.1318 52.1861 45.1473L53.7994 46.8225C53.8065 46.8299 53.8152 46.8357 53.8246 46.8397C53.8341 46.8437 53.8443 46.8458 53.8546 46.8458C53.8649 46.8458 53.8751 46.8437 53.8846 46.8397C53.8941 46.8357 53.9026 46.8299 53.9098 46.8225L55.523 45.1473C55.5377 45.1318 55.5459 45.1111 55.5458 45.0897C55.5458 45.0683 55.5376 45.0477 55.5228 45.0321L55.523 45.0324ZM62.6533 33.9683H64.1781V34.0189C64.101 34.0119 64.0238 34.031 63.959 34.0734C63.9174 34.143 63.9005 34.2247 63.911 34.3051V35.3284C63.9025 35.452 63.9139 35.5762 63.945 35.6962C63.968 35.7426 64.0414 35.7665 64.1657 35.7665V36.348H64.1194C64.0998 36.2314 64.0549 36.1206 63.988 36.0231C63.9376 35.9486 63.8659 35.8911 63.7822 35.8581C63.6933 35.8285 63.6 35.8144 63.5063 35.8166H63.0346C62.9512 35.8094 62.8673 35.8207 62.7887 35.8496C62.7102 35.8785 62.6389 35.9243 62.5801 35.9838C62.4882 36.0859 62.4279 36.2123 62.4064 36.348H62.3601V35.7665C62.4371 35.7566 62.5103 35.7271 62.5728 35.681C62.6353 35.6349 62.685 35.5737 62.7173 35.5031C62.8168 35.3168 62.8813 35.114 62.9079 34.9045C62.9396 34.7118 62.9574 34.517 62.9611 34.3217C62.9654 34.2532 62.9538 34.1846 62.9272 34.1213C62.9114 34.0853 62.8825 34.0567 62.8464 34.0412C62.7831 34.0262 62.7182 34.0188 62.6532 34.0193V33.9688L62.6533 33.9683ZM63.0975 34.0689C63.0945 34.4504 63.0512 34.8306 62.9683 35.203C62.92 35.3899 62.8327 35.5645 62.7121 35.7151H63.3961C63.4706 35.724 63.546 35.7129 63.6148 35.6831C63.6393 35.6615 63.6515 35.593 63.6515 35.4757V34.0689H63.0975ZM59.0275 34.8252H59.8858V34.2966C59.8893 34.2338 59.8834 34.1708 59.8681 34.1098C59.8562 34.0844 59.8361 34.0638 59.811 34.0514C59.7731 34.03 59.7304 34.0188 59.6869 34.0188H59.6216V33.9682H60.4118V34.0188H60.3463C60.3031 34.0187 60.2606 34.0294 60.2227 34.0501C60.2089 34.0565 60.1964 34.0655 60.1862 34.0769C60.176 34.0882 60.1681 34.1016 60.1631 34.116C60.1497 34.1752 60.1445 34.236 60.1476 34.2966V35.4891C60.1439 35.5514 60.1498 35.614 60.1652 35.6744C60.1765 35.6998 60.1963 35.7204 60.2211 35.7329C60.2593 35.7545 60.3024 35.766 60.3463 35.7662H60.4118V35.8162H59.6216V35.7662H59.6869C59.7177 35.7688 59.7488 35.764 59.7775 35.7524C59.8061 35.7407 59.8317 35.7224 59.8519 35.699C59.8819 35.6334 59.8936 35.5609 59.8858 35.4892V34.9263H59.0275V35.4892C59.024 35.5515 59.0299 35.614 59.0451 35.6746C59.0571 35.7001 59.0775 35.7207 59.1029 35.733C59.1406 35.7547 59.1832 35.7663 59.2267 35.7663H59.2935V35.8163H58.5021V35.7663H58.5671C58.5982 35.7689 58.6294 35.7642 58.6583 35.7525C58.6872 35.7408 58.713 35.7226 58.7336 35.6991C58.7623 35.6331 58.7736 35.5609 58.7662 35.4893V34.2967C58.7696 34.234 58.7636 34.171 58.7485 34.11C58.737 34.0848 58.7172 34.0642 58.6925 34.0515C58.6541 34.0301 58.6109 34.0189 58.567 34.0189H58.5019V33.9684H59.2935V34.0189H59.2267C59.1835 34.0187 59.1409 34.0295 59.1029 34.0503C59.0893 34.0569 59.0771 34.0661 59.0671 34.0774C59.057 34.0887 59.0493 34.1019 59.0443 34.1162C59.0299 34.1752 59.0242 34.236 59.0275 34.2967V34.8252ZM55.86 35.1975H55.1447L55.0195 35.4891C54.9941 35.5393 54.9783 35.5939 54.9729 35.65C54.9734 35.6645 54.9774 35.6788 54.9843 35.6916C54.9913 35.7043 55.0011 35.7152 55.0131 35.7235C55.0663 35.7524 55.1262 35.7669 55.1868 35.7656V35.8157H54.605V35.7656C54.6586 35.7606 54.7101 35.7422 54.7547 35.712C54.822 35.6338 54.8743 35.5438 54.9086 35.4464L55.5584 33.926H55.6058L56.2492 35.4629C56.2794 35.5517 56.3273 35.6335 56.3901 35.7033C56.4404 35.7431 56.5025 35.765 56.5667 35.7657V35.8158H55.8376V35.7657C55.8898 35.7678 55.9416 35.755 55.9868 35.7289C55.999 35.7202 56.0088 35.7088 56.0156 35.6955C56.0224 35.6822 56.0259 35.6675 56.0259 35.6526C56.0187 35.5868 56.0002 35.5228 55.971 35.4633L55.8593 35.1978L55.86 35.1975ZM55.8219 35.0965L55.5082 34.35L55.1868 35.0965H55.8219ZM52.3309 34.8733C52.437 34.8899 52.5365 34.9351 52.6189 35.004C52.6613 35.0429 52.695 35.0903 52.7178 35.1431C52.7405 35.196 52.7518 35.253 52.751 35.3105C52.7499 35.4054 52.7193 35.4976 52.6634 35.5742C52.6048 35.6589 52.5212 35.7232 52.4243 35.7581C52.2742 35.8036 52.1175 35.8233 51.9607 35.8163H51.0883V35.7662H51.1577C51.1894 35.7691 51.2213 35.7638 51.2503 35.7509C51.2794 35.7381 51.3047 35.718 51.3237 35.6925C51.3509 35.6286 51.3618 35.5588 51.3554 35.4897V34.2959C51.3644 34.2214 51.3506 34.1458 51.3158 34.0794C51.2954 34.0585 51.2707 34.0423 51.2434 34.032C51.2161 34.0216 51.1868 34.0174 51.1577 34.0195H51.0883V33.969H51.8866C52.007 33.9663 52.1274 33.9773 52.2453 34.0019C52.3651 34.0251 52.4744 34.0859 52.5573 34.1754C52.6274 34.2545 52.6656 34.3568 52.6646 34.4624C52.6656 34.5525 52.6359 34.6403 52.5804 34.7113C52.5158 34.7897 52.4287 34.8465 52.3308 34.8739L52.3309 34.8733ZM51.6168 34.7996C51.655 34.8066 51.6935 34.8115 51.7323 34.8142C51.7756 34.8173 51.8229 34.8185 51.8745 34.8185C51.9761 34.8237 52.0776 34.8093 52.1737 34.7759C52.2378 34.7498 52.2917 34.7036 52.3272 34.6442C52.3625 34.5859 52.3809 34.5189 52.3803 34.4507C52.3804 34.3977 52.3685 34.3453 52.3456 34.2974C52.3227 34.2496 52.2893 34.2076 52.2479 34.1745C52.1374 34.091 52.0006 34.0504 51.8625 34.0599C51.7798 34.0588 51.6973 34.0688 51.6173 34.0897L51.6168 34.7996ZM51.6168 35.6825C51.7191 35.7066 51.8237 35.719 51.9288 35.7192C52.0635 35.7284 52.1971 35.6891 52.3052 35.6082C52.3461 35.5752 52.3789 35.5333 52.4013 35.4857C52.4237 35.4382 52.435 35.3862 52.4344 35.3337C52.434 35.2606 52.4137 35.189 52.3758 35.1266C52.3307 35.0553 52.2639 35.0005 52.1851 34.9701C52.0812 34.9291 51.97 34.9096 51.8582 34.9129C51.8018 34.9129 51.7534 34.9139 51.7134 34.9153C51.6809 34.9162 51.6486 34.9195 51.6165 34.9251L51.6168 35.6825ZM48.2066 34.9508V35.4891C48.1974 35.5636 48.2109 35.6391 48.2451 35.7059C48.265 35.7269 48.2894 35.7431 48.3164 35.7535C48.3434 35.7638 48.3724 35.7682 48.4013 35.766H48.4725V35.8161H47.6807V35.766H47.7501C47.7822 35.7689 47.8145 35.7634 47.8439 35.75C47.8732 35.7366 47.8986 35.7159 47.9175 35.6898C47.9416 35.6258 47.951 35.5572 47.9449 35.4891V34.2952C47.954 34.221 47.9412 34.1458 47.9081 34.0788C47.8878 34.0579 47.863 34.0416 47.8357 34.0313C47.8084 34.0209 47.7792 34.0168 47.7501 34.0189H47.6807V33.9683H48.358C48.4902 33.9637 48.6223 33.9809 48.7489 34.0194C48.8439 34.0531 48.9276 34.1128 48.9903 34.1917C49.0558 34.273 49.0905 34.3749 49.0884 34.4793C49.0909 34.5477 49.0789 34.6159 49.0531 34.6793C49.0274 34.7427 48.9885 34.7999 48.939 34.8472C48.8223 34.9478 48.6708 34.9987 48.5171 34.989C48.4689 34.9887 48.4207 34.9856 48.3729 34.9793C48.3212 34.9727 48.2655 34.9634 48.2064 34.9506L48.2066 34.9508ZM48.2066 34.8731C48.2548 34.8821 48.2978 34.889 48.3347 34.8936C48.3663 34.8976 48.3981 34.8998 48.4299 34.9003C48.4763 34.9006 48.5223 34.8909 48.5646 34.8718C48.6069 34.8528 48.6446 34.8248 48.6752 34.7899C48.7453 34.7124 48.7823 34.6106 48.7781 34.5061C48.7786 34.4292 48.7619 34.353 48.729 34.2834C48.6999 34.2189 48.6513 34.1651 48.59 34.1296C48.5274 34.0946 48.4567 34.0769 48.3851 34.0782C48.3248 34.0801 48.2649 34.0887 48.2066 34.1038V34.8727V34.8731ZM45.0402 35.1974H44.3249L44.1997 35.489C44.1743 35.5392 44.1585 35.5939 44.1531 35.65C44.1536 35.6645 44.1575 35.6788 44.1645 35.6916C44.1714 35.7043 44.1813 35.7152 44.1932 35.7235C44.2465 35.7524 44.3064 35.7669 44.367 35.7656V35.8157H43.7852V35.7656C43.8388 35.7607 43.8903 35.7423 43.9349 35.712C44.0022 35.6339 44.0544 35.5439 44.0886 35.4466L44.7385 33.9261H44.7859L45.4293 35.463C45.4596 35.5518 45.5075 35.6335 45.5702 35.7034C45.6205 35.7432 45.6826 35.7651 45.7467 35.7658V35.816H45.0177V35.7658C45.0699 35.7678 45.1216 35.7551 45.1669 35.729C45.179 35.7203 45.1889 35.7089 45.1957 35.6956C45.2025 35.6824 45.206 35.6677 45.206 35.6528C45.1988 35.5869 45.1802 35.5229 45.1511 35.4635L45.0402 35.1974ZM45.0021 35.0965L44.6885 34.35L44.3671 35.0965H45.0021ZM46.1391 32.9297L46.707 32.3397C46.7095 32.3371 46.7125 32.3349 46.7159 32.3335C46.7192 32.332 46.7228 32.3313 46.7265 32.3313C46.7301 32.3313 46.7337 32.332 46.737 32.3335C46.7404 32.3349 46.7434 32.3371 46.7459 32.3397L47.314 32.9298C47.3191 32.9351 47.322 32.9423 47.322 32.9498C47.322 32.9572 47.3191 32.9644 47.314 32.9698L46.7459 33.56C46.7434 33.5626 46.7404 33.5646 46.737 33.5661C46.7337 33.5675 46.7301 33.5683 46.7265 33.5683C46.7228 33.5683 46.7192 33.5675 46.7159 33.5661C46.7125 33.5646 46.7095 33.5626 46.707 33.56L46.1391 32.9699C46.1364 32.9672 46.1343 32.9641 46.1329 32.9607C46.1314 32.9572 46.1307 32.9534 46.1307 32.9497C46.1307 32.9459 46.1314 32.9422 46.1329 32.9388C46.1343 32.9353 46.1364 32.9321 46.1391 32.9294V32.9297ZM60.6276 32.9828L61.1955 32.393C61.198 32.3903 61.201 32.3882 61.2044 32.3868C61.2077 32.3853 61.2113 32.3846 61.215 32.3846C61.2186 32.3846 61.2222 32.3853 61.2255 32.3868C61.2289 32.3882 61.2319 32.3903 61.2344 32.393L61.8026 32.9828C61.8077 32.9883 61.8106 32.9954 61.8106 33.0029C61.8106 33.0104 61.8077 33.0177 61.8026 33.0232L61.2344 33.6129C61.2319 33.6155 61.2289 33.6176 61.2255 33.619C61.2222 33.6204 61.2186 33.6213 61.215 33.6213C61.2114 33.6213 61.2077 33.6204 61.2044 33.619C61.201 33.6176 61.198 33.6155 61.1955 33.6129L60.6276 33.0232C60.6224 33.0177 60.6195 33.0104 60.6195 33.0028C60.6195 32.9952 60.6224 32.988 60.6276 32.9825V32.9828ZM49.4859 32.9092L50.4143 31.9452C50.4184 31.9408 50.4234 31.9372 50.4289 31.9349C50.4343 31.9325 50.4402 31.9313 50.4462 31.9313C50.4522 31.9313 50.4581 31.9325 50.4636 31.9349C50.4691 31.9372 50.474 31.9408 50.4781 31.9452L51.4069 32.9092C51.4151 32.9182 51.4197 32.93 51.4197 32.9422C51.4197 32.9545 51.4151 32.9662 51.4069 32.9753L50.4781 33.9395C50.4739 33.9438 50.469 33.9473 50.4635 33.9496C50.458 33.9519 50.4522 33.9531 50.4462 33.9531C50.4403 33.9531 50.4343 33.9519 50.4289 33.9496C50.4234 33.9473 50.4184 33.9438 50.4143 33.9395L49.4859 32.9753C49.4774 32.9664 49.4727 32.9546 49.4727 32.9424C49.4727 32.9301 49.4774 32.9181 49.4859 32.9092ZM53.022 33.0027L53.9509 32.0381C53.9549 32.0338 53.9598 32.0303 53.9653 32.0279C53.9707 32.0256 53.9766 32.0243 53.9826 32.0243C53.9885 32.0243 53.9944 32.0256 53.9999 32.0279C54.0053 32.0303 54.0103 32.0338 54.0144 32.0381L54.9431 33.0027C54.9516 33.0116 54.9564 33.0233 54.9564 33.0356C54.9564 33.0479 54.9516 33.0598 54.9431 33.0687L54.0144 34.0328C54.0103 34.0371 54.0053 34.0405 53.9999 34.0429C53.9944 34.0452 53.9885 34.0465 53.9826 34.0465C53.9766 34.0465 53.9708 34.0452 53.9653 34.0429C53.9599 34.0405 53.955 34.0371 53.9509 34.0328L53.022 33.0687C53.0135 33.0598 53.0088 33.0479 53.0088 33.0356C53.0088 33.0233 53.0135 33.0116 53.022 33.0027ZM56.6607 32.8961L57.5895 31.9316C57.5936 31.9273 57.5985 31.9239 57.604 31.9216C57.6094 31.9192 57.6153 31.918 57.6213 31.918C57.6272 31.918 57.633 31.9192 57.6385 31.9216C57.644 31.9239 57.6489 31.9273 57.653 31.9316L58.5818 32.8961C58.5902 32.9051 58.5948 32.9168 58.5948 32.9291C58.5948 32.9413 58.5902 32.9531 58.5818 32.962L57.653 33.9264C57.6489 33.9307 57.644 33.9341 57.6385 33.9364C57.633 33.9388 57.6272 33.94 57.6213 33.94C57.6153 33.94 57.6094 33.9388 57.604 33.9364C57.5985 33.9341 57.5936 33.9307 57.5895 33.9264L56.6607 32.962C56.6523 32.9531 56.6475 32.9413 56.6475 32.9291C56.6475 32.9168 56.6523 32.905 56.6607 32.8961ZM58.3903 30.9378L59.319 29.9735C59.3231 29.9693 59.3281 29.9658 59.3335 29.9635C59.339 29.9612 59.3449 29.9599 59.3508 29.9599C59.3568 29.9599 59.3626 29.9612 59.3681 29.9635C59.3735 29.9658 59.3785 29.9693 59.3826 29.9735L60.3113 30.9378C60.3196 30.9468 60.3242 30.9586 60.3242 30.9709C60.3242 30.9831 60.3196 30.9948 60.3113 31.0038L59.3826 31.968C59.3785 31.9724 59.3736 31.9759 59.3681 31.9783C59.3627 31.9807 59.3568 31.9819 59.3508 31.9819C59.3449 31.9819 59.3389 31.9807 59.3335 31.9783C59.328 31.9759 59.3231 31.9724 59.319 31.968L58.3903 31.0038C58.3819 30.9949 58.3771 30.9831 58.3771 30.9709C58.3771 30.9586 58.3819 30.9467 58.3903 30.9378ZM47.6281 30.911L48.5569 29.9468C48.5609 29.9425 48.5659 29.9391 48.5714 29.9368C48.5768 29.9344 48.5827 29.9332 48.5887 29.9332C48.5946 29.9332 48.6004 29.9344 48.6059 29.9368C48.6114 29.9391 48.6163 29.9425 48.6204 29.9468L49.5491 30.911C49.5576 30.9199 49.5623 30.9317 49.5623 30.944C49.5623 30.9563 49.5576 30.9682 49.5491 30.9771L48.6204 31.9415C48.6163 31.9458 48.6114 31.9493 48.6059 31.9516C48.6004 31.954 48.5946 31.9551 48.5887 31.9551C48.5827 31.9551 48.5768 31.954 48.5714 31.9516C48.5659 31.9493 48.5609 31.9458 48.5569 31.9415L47.6281 30.9771C47.6197 30.9682 47.6149 30.9564 47.6149 30.9442C47.6149 30.9319 47.6197 30.9199 47.6281 30.911ZM50.937 30.8758L52.123 29.6441C52.1283 29.6386 52.1346 29.6343 52.1416 29.6313C52.1486 29.6283 52.1561 29.6268 52.1637 29.6268C52.1713 29.6268 52.1788 29.6283 52.1858 29.6313C52.1928 29.6343 52.1991 29.6386 52.2043 29.6441L53.3904 30.8758C53.4011 30.8872 53.4071 30.9023 53.4071 30.9179C53.4071 30.9336 53.4011 30.9487 53.3904 30.9601L52.2043 32.1916C52.1991 32.1971 52.1928 32.2014 52.1858 32.2044C52.1788 32.2074 52.1713 32.209 52.1637 32.209C52.1561 32.209 52.1486 32.2074 52.1416 32.2044C52.1346 32.2014 52.1283 32.1971 52.123 32.1916L50.937 30.9601C50.9263 30.9487 50.9203 30.9337 50.9203 30.918C50.9203 30.9024 50.9263 30.8872 50.937 30.8758ZM54.5374 30.9291L55.7233 29.6974C55.7286 29.692 55.7349 29.6876 55.7418 29.6846C55.7488 29.6816 55.7564 29.6801 55.7639 29.6801C55.7715 29.6801 55.779 29.6816 55.786 29.6846C55.7929 29.6876 55.7992 29.692 55.8045 29.6974L56.9907 30.9291C57.0014 30.9404 57.0074 30.9555 57.0074 30.9711C57.0074 30.9867 57.0014 31.0017 56.9907 31.0131L55.8045 32.2448C55.7992 32.2503 55.793 32.2547 55.786 32.2577C55.7791 32.2607 55.7715 32.2622 55.7639 32.2622C55.7563 32.2622 55.7488 32.2607 55.7418 32.2577C55.7349 32.2547 55.7286 32.2503 55.7233 32.2448L54.5374 31.0131C54.5267 31.0017 54.5207 30.9867 54.5207 30.9711C54.5207 30.9555 54.5267 30.9404 54.5374 30.9291ZM52.5033 28.8964L53.884 27.4626C53.8901 27.4562 53.8975 27.4511 53.9056 27.4477C53.9137 27.4442 53.9224 27.4424 53.9313 27.4424C53.9401 27.4424 53.9489 27.4442 53.957 27.4477C53.9651 27.4511 53.9725 27.4562 53.9786 27.4626L55.3595 28.8964C55.3721 28.9096 55.3791 28.9271 55.3791 28.9454C55.3791 28.9636 55.3721 28.9812 55.3595 28.9944L53.9786 30.4282C53.9725 30.4347 53.9652 30.4398 53.957 30.4433C53.9489 30.4468 53.9401 30.4487 53.9313 30.4487C53.9224 30.4487 53.9137 30.4468 53.9055 30.4433C53.8974 30.4398 53.8901 30.4347 53.884 30.4282L52.5033 28.9944C52.4907 28.9812 52.4837 28.9637 52.4837 28.9455C52.4837 28.9272 52.4908 28.9096 52.5033 28.8964ZM54.2712 26.845L55.6522 25.4105C55.6583 25.4042 55.6657 25.399 55.6738 25.3956C55.6819 25.3921 55.6906 25.3903 55.6995 25.3903C55.7083 25.3903 55.7171 25.3921 55.7252 25.3956C55.7333 25.399 55.7406 25.4042 55.7468 25.4105L57.1277 26.845C57.1402 26.8583 57.1473 26.8759 57.1473 26.8941C57.1473 26.9124 57.1402 26.9299 57.1277 26.9432L55.7468 28.3777C55.7406 28.384 55.7333 28.3892 55.7252 28.3926C55.7171 28.3961 55.7083 28.3979 55.6995 28.3979C55.6906 28.3979 55.6819 28.3961 55.6738 28.3926C55.6657 28.3892 55.6583 28.384 55.6522 28.3777L54.2712 26.9432C54.2587 26.9299 54.2518 26.9123 54.2518 26.8941C54.2518 26.8759 54.2587 26.8583 54.2712 26.845ZM56.3058 28.905L57.4916 27.6734C57.4968 27.6678 57.5031 27.6635 57.5101 27.6604C57.5171 27.6574 57.5246 27.6558 57.5322 27.6558C57.5398 27.6558 57.5473 27.6574 57.5543 27.6604C57.5612 27.6635 57.5675 27.6678 57.5727 27.6734L58.7587 28.905C58.7695 28.9164 58.7755 28.9314 58.7755 28.947C58.7755 28.9627 58.7695 28.9778 58.7587 28.9892L57.5727 30.2207C57.5675 30.2262 57.5612 30.2305 57.5542 30.2335C57.5472 30.2365 57.5398 30.2381 57.5322 30.2381C57.5246 30.2381 57.5171 30.2365 57.5101 30.2335C57.5032 30.2305 57.4969 30.2262 57.4916 30.2207L56.3058 28.9892C56.2948 28.9778 56.2887 28.9626 56.2887 28.9468C56.2887 28.931 56.2947 28.9158 56.3056 28.9044L56.3058 28.905ZM49.118 28.8915L50.3042 27.66C50.3095 27.6545 50.3157 27.6501 50.3227 27.6471C50.3297 27.6442 50.3372 27.6427 50.3447 27.6427C50.3523 27.6427 50.3598 27.6442 50.3668 27.6471C50.3737 27.6501 50.38 27.6545 50.3853 27.66L51.5712 28.8915C51.582 28.9029 51.588 28.9179 51.588 28.9336C51.588 28.9493 51.582 28.9644 51.5712 28.9758L50.3853 30.207C50.3801 30.2126 50.3738 30.2171 50.3668 30.2201C50.3599 30.2231 50.3523 30.2248 50.3447 30.2248C50.3371 30.2248 50.3296 30.2231 50.3227 30.2201C50.3157 30.2171 50.3094 30.2126 50.3042 30.207L49.118 28.9758C49.107 28.9644 49.1008 28.9492 49.1008 28.9334C49.1008 28.9175 49.1069 28.9023 49.1178 28.8909L49.118 28.8915ZM50.7095 26.8856L52.0904 25.4519C52.0965 25.4454 52.1038 25.4403 52.112 25.4368C52.1201 25.4333 52.1289 25.4314 52.1377 25.4314C52.1466 25.4314 52.1553 25.4333 52.1635 25.4368C52.1716 25.4403 52.1789 25.4454 52.1849 25.4519L53.5657 26.8856C53.5783 26.8988 53.5853 26.9164 53.5853 26.9347C53.5853 26.953 53.5783 26.9704 53.5657 26.9837L52.1849 28.4175C52.1788 28.4239 52.1715 28.429 52.1634 28.4325C52.1553 28.436 52.1465 28.4378 52.1377 28.4378C52.1289 28.4378 52.1202 28.436 52.112 28.4325C52.1039 28.429 52.0965 28.4239 52.0904 28.4175L50.7095 26.9837C50.6968 26.9704 50.6897 26.9527 50.6897 26.9343C50.6897 26.916 50.6968 26.8983 50.7095 26.885V26.8856Z"/>
</mask>
<path fill-rule="evenodd" clip-rule="evenodd" d="M52.1861 24.7846L53.7993 23.1096C53.8064 23.1022 53.815 23.0962 53.8245 23.0922C53.834 23.0881 53.8441 23.0859 53.8545 23.0859C53.8648 23.0859 53.875 23.0881 53.8845 23.0922C53.8939 23.0962 53.9026 23.1022 53.9097 23.1096L55.5226 24.7846C55.5374 24.8 55.5457 24.8205 55.5457 24.8419C55.5457 24.8633 55.5374 24.8838 55.5226 24.8993L53.9097 26.5743C53.9025 26.5817 53.8939 26.5877 53.8845 26.5918C53.875 26.5958 53.8648 26.598 53.8545 26.598C53.8441 26.598 53.834 26.5958 53.8245 26.5918C53.815 26.5877 53.8064 26.5817 53.7993 26.5743L52.1861 24.8993C52.1715 24.8837 52.1633 24.8632 52.1633 24.8419C52.1633 24.8206 52.1715 24.8001 52.1861 24.7846ZM46.1392 36.962L46.7073 36.3721C46.7098 36.3695 46.7128 36.3675 46.7161 36.366C46.7195 36.3646 46.723 36.3639 46.7267 36.3639C46.7303 36.3639 46.7339 36.3646 46.7372 36.366C46.7405 36.3675 46.7435 36.3695 46.746 36.3721L47.3143 36.962C47.3195 36.9675 47.3223 36.9747 47.3223 36.9822C47.3223 36.9897 47.3195 36.997 47.3143 37.0025L46.746 37.5922C46.7435 37.5948 46.7405 37.5968 46.7372 37.5983C46.7339 37.5997 46.7303 37.6004 46.7267 37.6004C46.723 37.6004 46.7195 37.5997 46.7161 37.5983C46.7128 37.5968 46.7098 37.5948 46.7073 37.5922L46.1392 37.0025C46.1341 36.997 46.1312 36.9897 46.1312 36.9822C46.1312 36.9747 46.1341 36.9675 46.1392 36.962ZM60.6277 36.9088L61.1956 36.3191C61.1982 36.3165 61.2012 36.3143 61.2046 36.3129C61.2079 36.3114 61.2116 36.3107 61.2152 36.3107C61.2189 36.3107 61.2225 36.3114 61.2258 36.3129C61.2292 36.3143 61.2322 36.3165 61.2347 36.3191L61.8027 36.9088C61.8079 36.9143 61.8107 36.9216 61.8107 36.9291C61.8107 36.9366 61.8079 36.9437 61.8027 36.9492L61.2347 37.5391C61.2322 37.5417 61.2292 37.5438 61.2258 37.5452C61.2225 37.5467 61.2189 37.5474 61.2152 37.5474C61.2116 37.5474 61.2079 37.5467 61.2046 37.5452C61.2012 37.5438 61.1982 37.5417 61.1956 37.5391L60.6277 36.9492C60.6226 36.9437 60.6197 36.9365 60.6197 36.9291C60.6197 36.9216 60.6225 36.9144 60.6276 36.9089L60.6277 36.9088ZM49.486 36.9561L50.4149 35.9919C50.4189 35.9875 50.4238 35.984 50.4293 35.9817C50.4347 35.9793 50.4406 35.9781 50.4466 35.9781C50.4525 35.9781 50.4584 35.9793 50.4639 35.9817C50.4693 35.984 50.4742 35.9875 50.4783 35.9919L51.407 36.9561C51.4152 36.9651 51.4198 36.9769 51.4198 36.9892C51.4198 37.0014 51.4152 37.0132 51.407 37.0222L50.4783 37.9866C50.4742 37.9909 50.4693 37.9943 50.4638 37.9966C50.4584 37.999 50.4525 38.0002 50.4466 38.0002C50.4406 38.0002 50.4347 37.999 50.4293 37.9966C50.4238 37.9943 50.4189 37.9909 50.4149 37.9866L49.486 37.0222C49.4776 37.0133 49.4728 37.0016 49.4728 36.9893C49.4728 36.977 49.4775 36.9652 49.4859 36.9562L49.486 36.9561ZM53.0222 36.8627L53.951 35.8983C53.9551 35.894 53.96 35.8906 53.9655 35.8883C53.9709 35.8859 53.9768 35.8848 53.9827 35.8848C53.9886 35.8848 53.9945 35.8859 54 35.8883C54.0055 35.8906 54.0104 35.894 54.0145 35.8983L54.9432 36.8627C54.9517 36.8716 54.9565 36.8835 54.9565 36.8958C54.9565 36.9081 54.9517 36.9199 54.9432 36.9288L54.0145 37.8933C54.0104 37.8976 54.0055 37.901 54 37.9034C53.9945 37.9057 53.9886 37.9068 53.9827 37.9068C53.9768 37.9068 53.9709 37.9057 53.9655 37.9034C53.96 37.901 53.9551 37.8976 53.951 37.8933L53.0222 36.9288C53.0139 36.9198 53.0094 36.9081 53.0093 36.8959C53.0093 36.8837 53.0139 36.8719 53.022 36.8628L53.0222 36.8627ZM56.661 36.9695L57.5896 36.0051C57.5937 36.0008 57.5986 35.9974 57.6041 35.9951C57.6095 35.9927 57.6154 35.9915 57.6214 35.9915C57.6273 35.9915 57.6332 35.9927 57.6387 35.9951C57.6441 35.9974 57.649 36.0008 57.6531 36.0051L58.5819 36.9695C58.5904 36.9784 58.5951 36.9903 58.5951 37.0026C58.5951 37.0149 58.5904 37.0266 58.5819 37.0355L57.6531 37.9998C57.649 38.0041 57.6441 38.0076 57.6387 38.0099C57.6332 38.0123 57.6273 38.0135 57.6214 38.0135C57.6154 38.0135 57.6095 38.0123 57.6041 38.0099C57.5986 38.0076 57.5937 38.0041 57.5896 37.9998L56.661 37.0355C56.6526 37.0266 56.6479 37.0148 56.6479 37.0026C56.6479 36.9904 56.6525 36.9786 56.6608 36.9696L56.661 36.9695ZM58.3904 38.9277L59.3192 37.9632C59.3233 37.9589 59.3282 37.9555 59.3336 37.9532C59.3391 37.9508 59.345 37.9496 59.351 37.9496C59.3569 37.9496 59.3627 37.9508 59.3682 37.9532C59.3737 37.9555 59.3786 37.9589 59.3827 37.9632L60.3115 38.9277C60.32 38.9366 60.3247 38.9484 60.3247 38.9607C60.3247 38.9729 60.32 38.9847 60.3115 38.9936L59.3827 39.958C59.3786 39.9623 59.3737 39.9658 59.3683 39.9681C59.3628 39.9705 59.3569 39.9716 59.351 39.9716C59.345 39.9716 59.3391 39.9705 59.3336 39.9681C59.3282 39.9658 59.3232 39.9623 59.3192 39.958L58.3904 38.9936C58.3821 38.9847 58.3774 38.973 58.3774 38.9608C58.3774 38.9486 58.382 38.9368 58.3903 38.9279L58.3904 38.9277ZM47.6282 38.9542L48.557 37.9899C48.5611 37.9856 48.566 37.9822 48.5715 37.9799C48.5769 37.9775 48.5828 37.9763 48.5888 37.9763C48.5947 37.9763 48.6006 37.9775 48.606 37.9799C48.6115 37.9822 48.6164 37.9856 48.6205 37.9899L49.5493 38.9542C49.5578 38.9631 49.5625 38.9749 49.5625 38.9872C49.5625 38.9995 49.5578 39.0113 49.5493 39.0202L48.6205 39.9847C48.6164 39.989 48.6115 39.9924 48.606 39.9947C48.6006 39.9971 48.5947 39.9983 48.5888 39.9983C48.5828 39.9983 48.5769 39.9971 48.5715 39.9947C48.566 39.9924 48.5611 39.989 48.557 39.9847L47.6282 39.0202C47.62 39.0112 47.6154 38.9995 47.6154 38.9872C47.6153 38.975 47.62 38.9632 47.6282 38.9542ZM50.9375 38.9713L52.1234 37.7398C52.1287 37.7344 52.135 37.73 52.142 37.727C52.1489 37.724 52.1564 37.7226 52.1639 37.7226C52.1715 37.7226 52.179 37.724 52.186 37.727C52.1929 37.73 52.1992 37.7344 52.2045 37.7398L53.3905 38.9713C53.4013 38.9827 53.4073 38.9978 53.4073 39.0135C53.4073 39.0292 53.4013 39.0442 53.3905 39.0556L52.2045 40.287C52.1992 40.2925 52.193 40.2969 52.186 40.2999C52.1791 40.3029 52.1715 40.3045 52.1639 40.3045C52.1564 40.3045 52.1489 40.3029 52.1419 40.2999C52.1349 40.2969 52.1286 40.2925 52.1234 40.287L50.9375 39.0556C50.9267 39.0442 50.9206 39.0292 50.9206 39.0135C50.9206 38.9978 50.9267 38.9827 50.9375 38.9713ZM54.5375 38.9183L55.7235 37.6865C55.7287 37.681 55.735 37.6767 55.742 37.6737C55.749 37.6707 55.7566 37.6692 55.7642 37.6692C55.7718 37.6692 55.7793 37.6707 55.7863 37.6737C55.7933 37.6767 55.7996 37.681 55.8049 37.6865L56.9908 38.9183C57.0015 38.9297 57.0075 38.9446 57.0075 38.9603C57.0075 38.976 57.0015 38.9911 56.9908 39.0024L55.8049 40.234C55.7996 40.2394 55.7933 40.2438 55.7863 40.2468C55.7793 40.2497 55.7718 40.2512 55.7642 40.2512C55.7566 40.2512 55.749 40.2497 55.742 40.2468C55.735 40.2438 55.7287 40.2394 55.7235 40.234L54.5375 39.0024C54.5267 38.9911 54.5208 38.976 54.5208 38.9603C54.5207 38.9446 54.5268 38.9297 54.5375 38.9183ZM52.5034 40.9368L53.8844 39.5031C53.8905 39.4966 53.8978 39.4915 53.9059 39.488C53.914 39.4845 53.9228 39.4826 53.9316 39.4826C53.9405 39.4826 53.9493 39.4845 53.9574 39.488C53.9655 39.4915 53.9729 39.4966 53.9789 39.5031L55.3596 40.9368C55.3722 40.9501 55.3792 40.9676 55.3792 40.9858C55.3792 41.0041 55.3722 41.0217 55.3596 41.0349L53.9789 42.4686C53.9728 42.475 53.9655 42.4801 53.9574 42.4836C53.9493 42.4871 53.9405 42.4889 53.9316 42.4889C53.9228 42.4889 53.9141 42.4871 53.906 42.4836C53.8978 42.4801 53.8905 42.475 53.8844 42.4686L52.5034 41.0349C52.4908 41.0217 52.4838 41.0041 52.4838 40.9858C52.4837 40.9676 52.4908 40.9501 52.5034 40.9368ZM54.2712 42.9883L55.6522 41.5537C55.6583 41.5473 55.6657 41.5422 55.6738 41.5388C55.6819 41.5353 55.6906 41.5335 55.6995 41.5335C55.7083 41.5335 55.7171 41.5353 55.7252 41.5388C55.7333 41.5422 55.7407 41.5473 55.7468 41.5537L57.1277 42.9883C57.1403 43.0015 57.1473 43.0192 57.1473 43.0374C57.1473 43.0557 57.1403 43.0731 57.1277 43.0864L55.7468 44.521C55.7407 44.5274 55.7333 44.5324 55.7252 44.5359C55.7171 44.5394 55.7083 44.5413 55.6995 44.5413C55.6906 44.5413 55.6819 44.5394 55.6738 44.5359C55.6657 44.5324 55.6583 44.5274 55.6522 44.521L54.2712 43.0864C54.2587 43.0731 54.2518 43.0556 54.2518 43.0374C54.2518 43.0192 54.2587 43.0016 54.2712 42.9883ZM56.3058 40.9427L57.4918 39.7112C57.497 39.7057 57.5033 39.7013 57.5103 39.6984C57.5172 39.6954 57.5247 39.6938 57.5323 39.6938C57.5399 39.6938 57.5474 39.6954 57.5543 39.6984C57.5613 39.7013 57.5676 39.7057 57.5728 39.7112L58.7591 40.9427C58.7698 40.9542 58.7757 40.9693 58.7757 40.985C58.7757 41.0006 58.7698 41.0156 58.7591 41.0271L57.5728 42.2583C57.5676 42.2638 57.5614 42.2683 57.5544 42.2713C57.5474 42.2743 57.5399 42.2759 57.5323 42.2759C57.5247 42.2759 57.5172 42.2743 57.5102 42.2713C57.5032 42.2683 57.497 42.2638 57.4918 42.2583L56.3058 41.0271C56.2949 41.0157 56.2889 41.0007 56.2889 40.985C56.2889 40.9693 56.2949 40.9542 56.3056 40.9428L56.3058 40.9427ZM49.118 40.9557L50.3042 39.7246C50.3094 39.719 50.3157 39.7147 50.3227 39.7117C50.3296 39.7086 50.3371 39.707 50.3447 39.707C50.3523 39.707 50.3599 39.7086 50.3668 39.7117C50.3738 39.7147 50.3801 39.719 50.3853 39.7246L51.5712 40.9557C51.582 40.9671 51.5881 40.9823 51.5881 40.998C51.5881 41.0137 51.582 41.0289 51.5712 41.0403L50.3853 42.2718C50.38 42.2773 50.3737 42.2816 50.3668 42.2846C50.3598 42.2876 50.3523 42.2892 50.3447 42.2892C50.3372 42.2892 50.3297 42.2876 50.3227 42.2846C50.3157 42.2816 50.3094 42.2773 50.3042 42.2718L49.118 41.0403C49.1072 41.0289 49.1012 41.0138 49.1011 40.9981C49.1011 40.9825 49.1071 40.9674 49.1178 40.956L49.118 40.9557ZM50.7095 42.948L52.0904 41.5143C52.0965 41.508 52.1039 41.5029 52.112 41.4995C52.1201 41.496 52.1289 41.4942 52.1377 41.4942C52.1465 41.4942 52.1553 41.496 52.1634 41.4995C52.1715 41.5029 52.1788 41.508 52.1849 41.5143L53.566 42.948C53.5784 42.9613 53.5854 42.9788 53.5854 42.9971C53.5854 43.0153 53.5784 43.0329 53.566 43.0461L52.1849 44.4806C52.1788 44.487 52.1715 44.492 52.1634 44.4955C52.1553 44.4989 52.1465 44.5007 52.1377 44.5007C52.1289 44.5007 52.1201 44.4989 52.112 44.4955C52.1039 44.492 52.0965 44.487 52.0904 44.4806L50.7095 43.0461C50.6972 43.0329 50.6904 43.0154 50.6904 42.9973C50.6904 42.9792 50.6972 42.9617 50.7095 42.9484V42.948ZM55.523 45.0324L53.9098 43.3575C53.9027 43.35 53.8941 43.3441 53.8846 43.34C53.8752 43.3359 53.8649 43.3339 53.8546 43.3339C53.8443 43.3339 53.8341 43.3359 53.8246 43.34C53.8151 43.3441 53.8065 43.35 53.7994 43.3575L52.1861 45.0324C52.1715 45.0479 52.1633 45.0685 52.1633 45.0898C52.1633 45.1112 52.1715 45.1318 52.1861 45.1473L53.7994 46.8225C53.8065 46.8299 53.8152 46.8357 53.8246 46.8397C53.8341 46.8437 53.8443 46.8458 53.8546 46.8458C53.8649 46.8458 53.8751 46.8437 53.8846 46.8397C53.8941 46.8357 53.9026 46.8299 53.9098 46.8225L55.523 45.1473C55.5377 45.1318 55.5459 45.1111 55.5458 45.0897C55.5458 45.0683 55.5376 45.0477 55.5228 45.0321L55.523 45.0324ZM62.6533 33.9683H64.1781V34.0189C64.101 34.0119 64.0238 34.031 63.959 34.0734C63.9174 34.143 63.9005 34.2247 63.911 34.3051V35.3284C63.9025 35.452 63.9139 35.5762 63.945 35.6962C63.968 35.7426 64.0414 35.7665 64.1657 35.7665V36.348H64.1194C64.0998 36.2314 64.0549 36.1206 63.988 36.0231C63.9376 35.9486 63.8659 35.8911 63.7822 35.8581C63.6933 35.8285 63.6 35.8144 63.5063 35.8166H63.0346C62.9512 35.8094 62.8673 35.8207 62.7887 35.8496C62.7102 35.8785 62.6389 35.9243 62.5801 35.9838C62.4882 36.0859 62.4279 36.2123 62.4064 36.348H62.3601V35.7665C62.4371 35.7566 62.5103 35.7271 62.5728 35.681C62.6353 35.6349 62.685 35.5737 62.7173 35.5031C62.8168 35.3168 62.8813 35.114 62.9079 34.9045C62.9396 34.7118 62.9574 34.517 62.9611 34.3217C62.9654 34.2532 62.9538 34.1846 62.9272 34.1213C62.9114 34.0853 62.8825 34.0567 62.8464 34.0412C62.7831 34.0262 62.7182 34.0188 62.6532 34.0193V33.9688L62.6533 33.9683ZM63.0975 34.0689C63.0945 34.4504 63.0512 34.8306 62.9683 35.203C62.92 35.3899 62.8327 35.5645 62.7121 35.7151H63.3961C63.4706 35.724 63.546 35.7129 63.6148 35.6831C63.6393 35.6615 63.6515 35.593 63.6515 35.4757V34.0689H63.0975ZM59.0275 34.8252H59.8858V34.2966C59.8893 34.2338 59.8834 34.1708 59.8681 34.1098C59.8562 34.0844 59.8361 34.0638 59.811 34.0514C59.7731 34.03 59.7304 34.0188 59.6869 34.0188H59.6216V33.9682H60.4118V34.0188H60.3463C60.3031 34.0187 60.2606 34.0294 60.2227 34.0501C60.2089 34.0565 60.1964 34.0655 60.1862 34.0769C60.176 34.0882 60.1681 34.1016 60.1631 34.116C60.1497 34.1752 60.1445 34.236 60.1476 34.2966V35.4891C60.1439 35.5514 60.1498 35.614 60.1652 35.6744C60.1765 35.6998 60.1963 35.7204 60.2211 35.7329C60.2593 35.7545 60.3024 35.766 60.3463 35.7662H60.4118V35.8162H59.6216V35.7662H59.6869C59.7177 35.7688 59.7488 35.764 59.7775 35.7524C59.8061 35.7407 59.8317 35.7224 59.8519 35.699C59.8819 35.6334 59.8936 35.5609 59.8858 35.4892V34.9263H59.0275V35.4892C59.024 35.5515 59.0299 35.614 59.0451 35.6746C59.0571 35.7001 59.0775 35.7207 59.1029 35.733C59.1406 35.7547 59.1832 35.7663 59.2267 35.7663H59.2935V35.8163H58.5021V35.7663H58.5671C58.5982 35.7689 58.6294 35.7642 58.6583 35.7525C58.6872 35.7408 58.713 35.7226 58.7336 35.6991C58.7623 35.6331 58.7736 35.5609 58.7662 35.4893V34.2967C58.7696 34.234 58.7636 34.171 58.7485 34.11C58.737 34.0848 58.7172 34.0642 58.6925 34.0515C58.6541 34.0301 58.6109 34.0189 58.567 34.0189H58.5019V33.9684H59.2935V34.0189H59.2267C59.1835 34.0187 59.1409 34.0295 59.1029 34.0503C59.0893 34.0569 59.0771 34.0661 59.0671 34.0774C59.057 34.0887 59.0493 34.1019 59.0443 34.1162C59.0299 34.1752 59.0242 34.236 59.0275 34.2967V34.8252ZM55.86 35.1975H55.1447L55.0195 35.4891C54.9941 35.5393 54.9783 35.5939 54.9729 35.65C54.9734 35.6645 54.9774 35.6788 54.9843 35.6916C54.9913 35.7043 55.0011 35.7152 55.0131 35.7235C55.0663 35.7524 55.1262 35.7669 55.1868 35.7656V35.8157H54.605V35.7656C54.6586 35.7606 54.7101 35.7422 54.7547 35.712C54.822 35.6338 54.8743 35.5438 54.9086 35.4464L55.5584 33.926H55.6058L56.2492 35.4629C56.2794 35.5517 56.3273 35.6335 56.3901 35.7033C56.4404 35.7431 56.5025 35.765 56.5667 35.7657V35.8158H55.8376V35.7657C55.8898 35.7678 55.9416 35.755 55.9868 35.7289C55.999 35.7202 56.0088 35.7088 56.0156 35.6955C56.0224 35.6822 56.0259 35.6675 56.0259 35.6526C56.0187 35.5868 56.0002 35.5228 55.971 35.4633L55.8593 35.1978L55.86 35.1975ZM55.8219 35.0965L55.5082 34.35L55.1868 35.0965H55.8219ZM52.3309 34.8733C52.437 34.8899 52.5365 34.9351 52.6189 35.004C52.6613 35.0429 52.695 35.0903 52.7178 35.1431C52.7405 35.196 52.7518 35.253 52.751 35.3105C52.7499 35.4054 52.7193 35.4976 52.6634 35.5742C52.6048 35.6589 52.5212 35.7232 52.4243 35.7581C52.2742 35.8036 52.1175 35.8233 51.9607 35.8163H51.0883V35.7662H51.1577C51.1894 35.7691 51.2213 35.7638 51.2503 35.7509C51.2794 35.7381 51.3047 35.718 51.3237 35.6925C51.3509 35.6286 51.3618 35.5588 51.3554 35.4897V34.2959C51.3644 34.2214 51.3506 34.1458 51.3158 34.0794C51.2954 34.0585 51.2707 34.0423 51.2434 34.032C51.2161 34.0216 51.1868 34.0174 51.1577 34.0195H51.0883V33.969H51.8866C52.007 33.9663 52.1274 33.9773 52.2453 34.0019C52.3651 34.0251 52.4744 34.0859 52.5573 34.1754C52.6274 34.2545 52.6656 34.3568 52.6646 34.4624C52.6656 34.5525 52.6359 34.6403 52.5804 34.7113C52.5158 34.7897 52.4287 34.8465 52.3308 34.8739L52.3309 34.8733ZM51.6168 34.7996C51.655 34.8066 51.6935 34.8115 51.7323 34.8142C51.7756 34.8173 51.8229 34.8185 51.8745 34.8185C51.9761 34.8237 52.0776 34.8093 52.1737 34.7759C52.2378 34.7498 52.2917 34.7036 52.3272 34.6442C52.3625 34.5859 52.3809 34.5189 52.3803 34.4507C52.3804 34.3977 52.3685 34.3453 52.3456 34.2974C52.3227 34.2496 52.2893 34.2076 52.2479 34.1745C52.1374 34.091 52.0006 34.0504 51.8625 34.0599C51.7798 34.0588 51.6973 34.0688 51.6173 34.0897L51.6168 34.7996ZM51.6168 35.6825C51.7191 35.7066 51.8237 35.719 51.9288 35.7192C52.0635 35.7284 52.1971 35.6891 52.3052 35.6082C52.3461 35.5752 52.3789 35.5333 52.4013 35.4857C52.4237 35.4382 52.435 35.3862 52.4344 35.3337C52.434 35.2606 52.4137 35.189 52.3758 35.1266C52.3307 35.0553 52.2639 35.0005 52.1851 34.9701C52.0812 34.9291 51.97 34.9096 51.8582 34.9129C51.8018 34.9129 51.7534 34.9139 51.7134 34.9153C51.6809 34.9162 51.6486 34.9195 51.6165 34.9251L51.6168 35.6825ZM48.2066 34.9508V35.4891C48.1974 35.5636 48.2109 35.6391 48.2451 35.7059C48.265 35.7269 48.2894 35.7431 48.3164 35.7535C48.3434 35.7638 48.3724 35.7682 48.4013 35.766H48.4725V35.8161H47.6807V35.766H47.7501C47.7822 35.7689 47.8145 35.7634 47.8439 35.75C47.8732 35.7366 47.8986 35.7159 47.9175 35.6898C47.9416 35.6258 47.951 35.5572 47.9449 35.4891V34.2952C47.954 34.221 47.9412 34.1458 47.9081 34.0788C47.8878 34.0579 47.863 34.0416 47.8357 34.0313C47.8084 34.0209 47.7792 34.0168 47.7501 34.0189H47.6807V33.9683H48.358C48.4902 33.9637 48.6223 33.9809 48.7489 34.0194C48.8439 34.0531 48.9276 34.1128 48.9903 34.1917C49.0558 34.273 49.0905 34.3749 49.0884 34.4793C49.0909 34.5477 49.0789 34.6159 49.0531 34.6793C49.0274 34.7427 48.9885 34.7999 48.939 34.8472C48.8223 34.9478 48.6708 34.9987 48.5171 34.989C48.4689 34.9887 48.4207 34.9856 48.3729 34.9793C48.3212 34.9727 48.2655 34.9634 48.2064 34.9506L48.2066 34.9508ZM48.2066 34.8731C48.2548 34.8821 48.2978 34.889 48.3347 34.8936C48.3663 34.8976 48.3981 34.8998 48.4299 34.9003C48.4763 34.9006 48.5223 34.8909 48.5646 34.8718C48.6069 34.8528 48.6446 34.8248 48.6752 34.7899C48.7453 34.7124 48.7823 34.6106 48.7781 34.5061C48.7786 34.4292 48.7619 34.353 48.729 34.2834C48.6999 34.2189 48.6513 34.1651 48.59 34.1296C48.5274 34.0946 48.4567 34.0769 48.3851 34.0782C48.3248 34.0801 48.2649 34.0887 48.2066 34.1038V34.8727V34.8731ZM45.0402 35.1974H44.3249L44.1997 35.489C44.1743 35.5392 44.1585 35.5939 44.1531 35.65C44.1536 35.6645 44.1575 35.6788 44.1645 35.6916C44.1714 35.7043 44.1813 35.7152 44.1932 35.7235C44.2465 35.7524 44.3064 35.7669 44.367 35.7656V35.8157H43.7852V35.7656C43.8388 35.7607 43.8903 35.7423 43.9349 35.712C44.0022 35.6339 44.0544 35.5439 44.0886 35.4466L44.7385 33.9261H44.7859L45.4293 35.463C45.4596 35.5518 45.5075 35.6335 45.5702 35.7034C45.6205 35.7432 45.6826 35.7651 45.7467 35.7658V35.816H45.0177V35.7658C45.0699 35.7678 45.1216 35.7551 45.1669 35.729C45.179 35.7203 45.1889 35.7089 45.1957 35.6956C45.2025 35.6824 45.206 35.6677 45.206 35.6528C45.1988 35.5869 45.1802 35.5229 45.1511 35.4635L45.0402 35.1974ZM45.0021 35.0965L44.6885 34.35L44.3671 35.0965H45.0021ZM46.1391 32.9297L46.707 32.3397C46.7095 32.3371 46.7125 32.3349 46.7159 32.3335C46.7192 32.332 46.7228 32.3313 46.7265 32.3313C46.7301 32.3313 46.7337 32.332 46.737 32.3335C46.7404 32.3349 46.7434 32.3371 46.7459 32.3397L47.314 32.9298C47.3191 32.9351 47.322 32.9423 47.322 32.9498C47.322 32.9572 47.3191 32.9644 47.314 32.9698L46.7459 33.56C46.7434 33.5626 46.7404 33.5646 46.737 33.5661C46.7337 33.5675 46.7301 33.5683 46.7265 33.5683C46.7228 33.5683 46.7192 33.5675 46.7159 33.5661C46.7125 33.5646 46.7095 33.5626 46.707 33.56L46.1391 32.9699C46.1364 32.9672 46.1343 32.9641 46.1329 32.9607C46.1314 32.9572 46.1307 32.9534 46.1307 32.9497C46.1307 32.9459 46.1314 32.9422 46.1329 32.9388C46.1343 32.9353 46.1364 32.9321 46.1391 32.9294V32.9297ZM60.6276 32.9828L61.1955 32.393C61.198 32.3903 61.201 32.3882 61.2044 32.3868C61.2077 32.3853 61.2113 32.3846 61.215 32.3846C61.2186 32.3846 61.2222 32.3853 61.2255 32.3868C61.2289 32.3882 61.2319 32.3903 61.2344 32.393L61.8026 32.9828C61.8077 32.9883 61.8106 32.9954 61.8106 33.0029C61.8106 33.0104 61.8077 33.0177 61.8026 33.0232L61.2344 33.6129C61.2319 33.6155 61.2289 33.6176 61.2255 33.619C61.2222 33.6204 61.2186 33.6213 61.215 33.6213C61.2114 33.6213 61.2077 33.6204 61.2044 33.619C61.201 33.6176 61.198 33.6155 61.1955 33.6129L60.6276 33.0232C60.6224 33.0177 60.6195 33.0104 60.6195 33.0028C60.6195 32.9952 60.6224 32.988 60.6276 32.9825V32.9828ZM49.4859 32.9092L50.4143 31.9452C50.4184 31.9408 50.4234 31.9372 50.4289 31.9349C50.4343 31.9325 50.4402 31.9313 50.4462 31.9313C50.4522 31.9313 50.4581 31.9325 50.4636 31.9349C50.4691 31.9372 50.474 31.9408 50.4781 31.9452L51.4069 32.9092C51.4151 32.9182 51.4197 32.93 51.4197 32.9422C51.4197 32.9545 51.4151 32.9662 51.4069 32.9753L50.4781 33.9395C50.4739 33.9438 50.469 33.9473 50.4635 33.9496C50.458 33.9519 50.4522 33.9531 50.4462 33.9531C50.4403 33.9531 50.4343 33.9519 50.4289 33.9496C50.4234 33.9473 50.4184 33.9438 50.4143 33.9395L49.4859 32.9753C49.4774 32.9664 49.4727 32.9546 49.4727 32.9424C49.4727 32.9301 49.4774 32.9181 49.4859 32.9092ZM53.022 33.0027L53.9509 32.0381C53.9549 32.0338 53.9598 32.0303 53.9653 32.0279C53.9707 32.0256 53.9766 32.0243 53.9826 32.0243C53.9885 32.0243 53.9944 32.0256 53.9999 32.0279C54.0053 32.0303 54.0103 32.0338 54.0144 32.0381L54.9431 33.0027C54.9516 33.0116 54.9564 33.0233 54.9564 33.0356C54.9564 33.0479 54.9516 33.0598 54.9431 33.0687L54.0144 34.0328C54.0103 34.0371 54.0053 34.0405 53.9999 34.0429C53.9944 34.0452 53.9885 34.0465 53.9826 34.0465C53.9766 34.0465 53.9708 34.0452 53.9653 34.0429C53.9599 34.0405 53.955 34.0371 53.9509 34.0328L53.022 33.0687C53.0135 33.0598 53.0088 33.0479 53.0088 33.0356C53.0088 33.0233 53.0135 33.0116 53.022 33.0027ZM56.6607 32.8961L57.5895 31.9316C57.5936 31.9273 57.5985 31.9239 57.604 31.9216C57.6094 31.9192 57.6153 31.918 57.6213 31.918C57.6272 31.918 57.633 31.9192 57.6385 31.9216C57.644 31.9239 57.6489 31.9273 57.653 31.9316L58.5818 32.8961C58.5902 32.9051 58.5948 32.9168 58.5948 32.9291C58.5948 32.9413 58.5902 32.9531 58.5818 32.962L57.653 33.9264C57.6489 33.9307 57.644 33.9341 57.6385 33.9364C57.633 33.9388 57.6272 33.94 57.6213 33.94C57.6153 33.94 57.6094 33.9388 57.604 33.9364C57.5985 33.9341 57.5936 33.9307 57.5895 33.9264L56.6607 32.962C56.6523 32.9531 56.6475 32.9413 56.6475 32.9291C56.6475 32.9168 56.6523 32.905 56.6607 32.8961ZM58.3903 30.9378L59.319 29.9735C59.3231 29.9693 59.3281 29.9658 59.3335 29.9635C59.339 29.9612 59.3449 29.9599 59.3508 29.9599C59.3568 29.9599 59.3626 29.9612 59.3681 29.9635C59.3735 29.9658 59.3785 29.9693 59.3826 29.9735L60.3113 30.9378C60.3196 30.9468 60.3242 30.9586 60.3242 30.9709C60.3242 30.9831 60.3196 30.9948 60.3113 31.0038L59.3826 31.968C59.3785 31.9724 59.3736 31.9759 59.3681 31.9783C59.3627 31.9807 59.3568 31.9819 59.3508 31.9819C59.3449 31.9819 59.3389 31.9807 59.3335 31.9783C59.328 31.9759 59.3231 31.9724 59.319 31.968L58.3903 31.0038C58.3819 30.9949 58.3771 30.9831 58.3771 30.9709C58.3771 30.9586 58.3819 30.9467 58.3903 30.9378ZM47.6281 30.911L48.5569 29.9468C48.5609 29.9425 48.5659 29.9391 48.5714 29.9368C48.5768 29.9344 48.5827 29.9332 48.5887 29.9332C48.5946 29.9332 48.6004 29.9344 48.6059 29.9368C48.6114 29.9391 48.6163 29.9425 48.6204 29.9468L49.5491 30.911C49.5576 30.9199 49.5623 30.9317 49.5623 30.944C49.5623 30.9563 49.5576 30.9682 49.5491 30.9771L48.6204 31.9415C48.6163 31.9458 48.6114 31.9493 48.6059 31.9516C48.6004 31.954 48.5946 31.9551 48.5887 31.9551C48.5827 31.9551 48.5768 31.954 48.5714 31.9516C48.5659 31.9493 48.5609 31.9458 48.5569 31.9415L47.6281 30.9771C47.6197 30.9682 47.6149 30.9564 47.6149 30.9442C47.6149 30.9319 47.6197 30.9199 47.6281 30.911ZM50.937 30.8758L52.123 29.6441C52.1283 29.6386 52.1346 29.6343 52.1416 29.6313C52.1486 29.6283 52.1561 29.6268 52.1637 29.6268C52.1713 29.6268 52.1788 29.6283 52.1858 29.6313C52.1928 29.6343 52.1991 29.6386 52.2043 29.6441L53.3904 30.8758C53.4011 30.8872 53.4071 30.9023 53.4071 30.9179C53.4071 30.9336 53.4011 30.9487 53.3904 30.9601L52.2043 32.1916C52.1991 32.1971 52.1928 32.2014 52.1858 32.2044C52.1788 32.2074 52.1713 32.209 52.1637 32.209C52.1561 32.209 52.1486 32.2074 52.1416 32.2044C52.1346 32.2014 52.1283 32.1971 52.123 32.1916L50.937 30.9601C50.9263 30.9487 50.9203 30.9337 50.9203 30.918C50.9203 30.9024 50.9263 30.8872 50.937 30.8758ZM54.5374 30.9291L55.7233 29.6974C55.7286 29.692 55.7349 29.6876 55.7418 29.6846C55.7488 29.6816 55.7564 29.6801 55.7639 29.6801C55.7715 29.6801 55.779 29.6816 55.786 29.6846C55.7929 29.6876 55.7992 29.692 55.8045 29.6974L56.9907 30.9291C57.0014 30.9404 57.0074 30.9555 57.0074 30.9711C57.0074 30.9867 57.0014 31.0017 56.9907 31.0131L55.8045 32.2448C55.7992 32.2503 55.793 32.2547 55.786 32.2577C55.7791 32.2607 55.7715 32.2622 55.7639 32.2622C55.7563 32.2622 55.7488 32.2607 55.7418 32.2577C55.7349 32.2547 55.7286 32.2503 55.7233 32.2448L54.5374 31.0131C54.5267 31.0017 54.5207 30.9867 54.5207 30.9711C54.5207 30.9555 54.5267 30.9404 54.5374 30.9291ZM52.5033 28.8964L53.884 27.4626C53.8901 27.4562 53.8975 27.4511 53.9056 27.4477C53.9137 27.4442 53.9224 27.4424 53.9313 27.4424C53.9401 27.4424 53.9489 27.4442 53.957 27.4477C53.9651 27.4511 53.9725 27.4562 53.9786 27.4626L55.3595 28.8964C55.3721 28.9096 55.3791 28.9271 55.3791 28.9454C55.3791 28.9636 55.3721 28.9812 55.3595 28.9944L53.9786 30.4282C53.9725 30.4347 53.9652 30.4398 53.957 30.4433C53.9489 30.4468 53.9401 30.4487 53.9313 30.4487C53.9224 30.4487 53.9137 30.4468 53.9055 30.4433C53.8974 30.4398 53.8901 30.4347 53.884 30.4282L52.5033 28.9944C52.4907 28.9812 52.4837 28.9637 52.4837 28.9455C52.4837 28.9272 52.4908 28.9096 52.5033 28.8964ZM54.2712 26.845L55.6522 25.4105C55.6583 25.4042 55.6657 25.399 55.6738 25.3956C55.6819 25.3921 55.6906 25.3903 55.6995 25.3903C55.7083 25.3903 55.7171 25.3921 55.7252 25.3956C55.7333 25.399 55.7406 25.4042 55.7468 25.4105L57.1277 26.845C57.1402 26.8583 57.1473 26.8759 57.1473 26.8941C57.1473 26.9124 57.1402 26.9299 57.1277 26.9432L55.7468 28.3777C55.7406 28.384 55.7333 28.3892 55.7252 28.3926C55.7171 28.3961 55.7083 28.3979 55.6995 28.3979C55.6906 28.3979 55.6819 28.3961 55.6738 28.3926C55.6657 28.3892 55.6583 28.384 55.6522 28.3777L54.2712 26.9432C54.2587 26.9299 54.2518 26.9123 54.2518 26.8941C54.2518 26.8759 54.2587 26.8583 54.2712 26.845ZM56.3058 28.905L57.4916 27.6734C57.4968 27.6678 57.5031 27.6635 57.5101 27.6604C57.5171 27.6574 57.5246 27.6558 57.5322 27.6558C57.5398 27.6558 57.5473 27.6574 57.5543 27.6604C57.5612 27.6635 57.5675 27.6678 57.5727 27.6734L58.7587 28.905C58.7695 28.9164 58.7755 28.9314 58.7755 28.947C58.7755 28.9627 58.7695 28.9778 58.7587 28.9892L57.5727 30.2207C57.5675 30.2262 57.5612 30.2305 57.5542 30.2335C57.5472 30.2365 57.5398 30.2381 57.5322 30.2381C57.5246 30.2381 57.5171 30.2365 57.5101 30.2335C57.5032 30.2305 57.4969 30.2262 57.4916 30.2207L56.3058 28.9892C56.2948 28.9778 56.2887 28.9626 56.2887 28.9468C56.2887 28.931 56.2947 28.9158 56.3056 28.9044L56.3058 28.905ZM49.118 28.8915L50.3042 27.66C50.3095 27.6545 50.3157 27.6501 50.3227 27.6471C50.3297 27.6442 50.3372 27.6427 50.3447 27.6427C50.3523 27.6427 50.3598 27.6442 50.3668 27.6471C50.3737 27.6501 50.38 27.6545 50.3853 27.66L51.5712 28.8915C51.582 28.9029 51.588 28.9179 51.588 28.9336C51.588 28.9493 51.582 28.9644 51.5712 28.9758L50.3853 30.207C50.3801 30.2126 50.3738 30.2171 50.3668 30.2201C50.3599 30.2231 50.3523 30.2248 50.3447 30.2248C50.3371 30.2248 50.3296 30.2231 50.3227 30.2201C50.3157 30.2171 50.3094 30.2126 50.3042 30.207L49.118 28.9758C49.107 28.9644 49.1008 28.9492 49.1008 28.9334C49.1008 28.9175 49.1069 28.9023 49.1178 28.8909L49.118 28.8915ZM50.7095 26.8856L52.0904 25.4519C52.0965 25.4454 52.1038 25.4403 52.112 25.4368C52.1201 25.4333 52.1289 25.4314 52.1377 25.4314C52.1466 25.4314 52.1553 25.4333 52.1635 25.4368C52.1716 25.4403 52.1789 25.4454 52.1849 25.4519L53.5657 26.8856C53.5783 26.8988 53.5853 26.9164 53.5853 26.9347C53.5853 26.953 53.5783 26.9704 53.5657 26.9837L52.1849 28.4175C52.1788 28.4239 52.1715 28.429 52.1634 28.4325C52.1553 28.436 52.1465 28.4378 52.1377 28.4378C52.1289 28.4378 52.1202 28.436 52.112 28.4325C52.1039 28.429 52.0965 28.4239 52.0904 28.4175L50.7095 26.9837C50.6968 26.9704 50.6897 26.9527 50.6897 26.9343C50.6897 26.916 50.6968 26.8983 50.7095 26.885V26.8856Z" fill="white" stroke="white" stroke-width="0.245225" mask="url(#path-48-inside-1_859_22215)"/>
<circle cx="54.0873" cy="35.0853" r="14.766" stroke="white" stroke-width="0.595745"/>
<circle cx="54" cy="35" r="15.8298" stroke="white" stroke-width="0.340426"/>
<defs>
<filter id="filter0_d_859_22215" x="0.171428" y="0.171428" width="107.657" height="69.6571" filterUnits="userSpaceOnUse" color-interpolation-filters="sRGB">
<feFlood flood-opacity="0" result="BackgroundImageFix"/>
<feColorMatrix in="SourceAlpha" type="matrix" values="0 0 0 0 0 0 0 0 0 0 0 0 0 0 0 0 0 0 127 0" result="hardAlpha"/>
<feOffset/>
<feGaussianBlur stdDeviation="1.91429"/>
<feComposite in2="hardAlpha" operator="out"/>
<feColorMatrix type="matrix" values="0 0 0 0 0 0 0 0 0 0 0 0 0 0 0 0 0 0 0.3 0"/>
<feBlend mode="normal" in2="BackgroundImageFix" result="effect1_dropShadow_859_22215"/>
<feBlend mode="normal" in="SourceGraphic" in2="effect1_dropShadow_859_22215" result="shape"/>
</filter>
</defs>
</svg>
