<svg width="108" height="70" viewBox="0 0 108 70" fill="none" xmlns="http://www.w3.org/2000/svg">
<g filter="url(#filter0_d_1_11630)">
<rect x="4" y="4" width="100" height="62" rx="8" fill="#55B1B5"/>
</g>
<path fill-rule="evenodd" clip-rule="evenodd" d="M86.7959 22.1988L87.2582 22.2106C87.3461 22.0761 90.502 13.242 90.5543 12.9182L90.0959 12.9354C89.9674 13.1384 86.9147 21.6799 86.7959 22.1988Z" fill="white"/>
<path fill-rule="evenodd" clip-rule="evenodd" d="M88.5186 22.2354L89.0419 22.2361C89.1414 21.6578 89.6221 20.5421 89.8391 19.9031L92.3208 12.8994L91.8537 12.9066C91.6204 13.2186 90.3995 16.881 90.1755 17.5331C89.6291 19.1238 89.0129 20.6277 88.5186 22.2354Z" fill="white"/>
<path fill-rule="evenodd" clip-rule="evenodd" d="M87.6396 22.2234L88.1674 22.2269L91.44 12.9113L90.9357 12.9224L87.6396 22.2234Z" fill="white"/>
<path fill-rule="evenodd" clip-rule="evenodd" d="M80.4688 22.1085L80.9801 22.111L84.1648 12.9376L83.6477 12.9426L80.4688 22.1085Z" fill="white"/>
<path fill-rule="evenodd" clip-rule="evenodd" d="M85.9727 22.1791L86.4143 22.1866L89.6917 12.9366L89.1749 12.9408L88.3792 15.2657C88.0018 16.3282 85.968 21.9172 85.9727 22.1791Z" fill="white"/>
<path fill-rule="evenodd" clip-rule="evenodd" d="M79.6416 22.0962L80.1328 22.0982C80.4068 21.0951 81.3014 18.7565 81.7102 17.5488C81.9726 16.7732 82.2398 16.0409 82.5032 15.2792C82.7543 14.5533 83.1326 13.6297 83.314 12.9416L82.806 12.9421L79.6416 22.0962Z" fill="white"/>
<path fill-rule="evenodd" clip-rule="evenodd" d="M82.1514 22.1333L82.6057 22.1318L85.8678 12.9346L85.3517 12.9358L82.1514 22.1333Z" fill="white"/>
<path fill-rule="evenodd" clip-rule="evenodd" d="M81.3154 22.1036L81.8252 22.131C81.9336 21.5786 83.1064 18.4041 83.3888 17.5737C83.6956 16.6711 84.8656 13.513 85.008 12.9356L84.5512 12.9439L81.3154 22.1036Z" fill="white"/>
<path fill-rule="evenodd" clip-rule="evenodd" d="M92.2568 19.038L92.8152 18.985L94.9367 12.9769L94.4131 12.9336L92.2568 19.038Z" fill="white"/>
<path fill-rule="evenodd" clip-rule="evenodd" d="M93.2109 18.8741C93.5469 18.8301 93.7347 18.7644 93.8417 18.5486L95.7359 13.2036L95.2571 13.0475L93.2109 18.8741Z" fill="white"/>
<path fill-rule="evenodd" clip-rule="evenodd" d="M87.19 23.2437L86.5811 24.8359L87.3825 24.8721C87.4477 24.5998 87.7643 23.6915 87.9052 23.5193C88.1243 23.5112 88.2499 23.4768 88.4402 23.5685C88.3865 23.9971 87.9425 23.7426 87.8375 23.9219C87.7797 24.2581 88.1403 24.5435 88.2471 24.8711L89.1301 24.8676C88.9987 24.6146 88.8186 24.3582 88.697 24.1308C88.9227 24.0064 89.0987 23.9925 89.2276 23.7679C89.3784 23.5052 89.3201 23.2677 89.019 23.2299C88.6633 23.1851 87.5748 23.2233 87.19 23.2437Z" fill="white"/>
<path fill-rule="evenodd" clip-rule="evenodd" d="M87.5957 27.0026L88.4365 27.0076L88.976 25.5844C89.2066 25.5828 89.4437 25.5785 89.6005 25.643C89.577 25.8681 89.4918 25.8939 89.2581 25.9245C88.9224 25.9686 89.0025 25.8542 88.883 26.235C89.233 26.2281 89.8128 26.2971 90.1046 26.177C90.3388 26.0806 90.6643 25.7545 90.4392 25.3912C90.183 25.1849 88.689 25.2773 88.2599 25.2915C88.1181 25.4622 87.6715 26.7205 87.5957 27.0026Z" fill="white"/>
<path fill-rule="evenodd" clip-rule="evenodd" d="M91.4092 19.0096L91.922 19.0474L94.0715 12.9278L93.5598 12.8929C93.4719 13.3309 93.1689 14.0172 93.0256 14.4323C92.7078 15.353 93.3175 14.4592 92.7155 16.1227C92.6296 16.3601 92.554 16.6669 92.4041 16.8734C92.2204 17.1261 92.0937 17.065 91.9418 17.47C91.7623 17.9485 91.5487 18.5326 91.4092 19.0096Z" fill="white"/>
<path fill-rule="evenodd" clip-rule="evenodd" d="M89.2256 27.0184C89.6593 27.0624 89.6101 26.9582 90.1774 26.5457C90.4184 26.3705 90.7661 26.0372 91.0112 25.9393C91.1209 26.1453 91.2222 26.3066 91.3124 26.5058C90.7319 26.4978 90.3559 26.3871 90.1267 26.8073L91.4991 26.8164C91.8202 27.2105 91.6937 27.037 92.7506 27.0848L92.261 26.1646C91.5834 24.9383 91.9748 24.934 89.4791 26.7924C89.3389 26.8968 89.3397 26.918 89.2256 27.0184Z" fill="white"/>
<path fill-rule="evenodd" clip-rule="evenodd" d="M94.2764 18.3478L94.596 18.1782C94.6578 18.1275 94.7868 18.0112 94.8375 17.9578C95.0829 17.6996 96.2892 14.209 96.3124 14.0656C96.3616 13.7612 96.2403 13.5832 96.0224 13.4312L94.2764 18.3478Z" fill="white"/>
<path fill-rule="evenodd" clip-rule="evenodd" d="M91.1057 24.688C90.9015 24.5043 90.326 24.6468 90.0315 24.5616C89.9811 24.4426 89.9733 24.3318 90.021 24.2086C90.1366 23.9103 90.3985 24.1136 90.9223 24.0677C91.2408 24.0397 91.1297 24.0987 91.2217 23.7691L90.2266 23.7753C90.2715 23.4386 90.5112 23.5496 90.9146 23.4975C91.3771 23.5018 91.5294 23.6268 91.6443 23.208C91.199 23.2144 90.5109 23.1715 90.0992 23.2288C89.7087 23.2831 89.3953 23.5965 89.2391 23.9569C88.7617 25.0583 89.7591 24.8687 90.4442 24.8788C91.2199 24.8902 91.0011 24.918 91.1057 24.688Z" fill="white"/>
<path fill-rule="evenodd" clip-rule="evenodd" d="M84.1875 24.8791L84.9904 24.8823L85.4732 23.5559C85.7101 23.5368 85.8538 23.4909 86.0553 23.6268C85.8457 24.1847 85.5568 23.5178 85.3985 24.1295C85.6883 24.1442 86.2673 24.1806 86.5134 24.0661C86.7288 23.9658 87.0378 23.6442 86.786 23.3341C86.5074 23.1948 85.1876 23.2618 84.7918 23.2839C84.5811 23.7903 84.3352 24.3744 84.1875 24.8791Z" fill="white"/>
<path fill-rule="evenodd" clip-rule="evenodd" d="M92.9271 27.0764L93.8081 27.1021C93.8695 26.867 93.9992 26.4088 94.1787 26.2537C94.4699 26.002 95.2113 25.612 95.402 25.3225C94.9112 25.3322 94.9953 25.3542 94.693 25.5883L94.1443 25.9761C94.0227 25.8713 93.8166 25.4808 93.7578 25.3148L92.6299 25.3176C92.7558 25.6203 92.9123 25.8516 93.0619 26.1265C93.282 26.5311 92.9275 26.6864 92.9271 27.0764Z" fill="white"/>
<path fill-rule="evenodd" clip-rule="evenodd" d="M82.6614 24.0984C82.406 24.3077 81.847 24.6723 81.7178 24.8707C82.1789 24.8731 82.1472 24.7311 82.7781 24.2938L83.126 24.8593L84.0726 24.8766C83.9743 24.6431 83.7982 24.2954 83.6835 24.0984C83.9274 23.8398 84.2881 23.6255 84.6454 23.2869C84.1208 23.2519 84.2059 23.4967 83.5326 23.8827L83.2338 23.2902L82.3144 23.2908C82.3708 23.568 82.5995 23.8135 82.6614 24.0984Z" fill="white"/>
<path fill-rule="evenodd" clip-rule="evenodd" d="M81.6861 24.6312C81.2737 24.4974 80.617 24.8658 80.7009 24.3157C80.7116 24.246 80.892 23.6957 81.059 23.6076C81.5674 23.3396 82.0469 23.8829 82.1901 23.2869C81.7529 23.3045 81.216 23.261 80.7999 23.305C80.5203 23.3345 80.4766 23.3917 80.3074 23.565L80.1674 23.7189C79.9625 24.0029 79.6004 24.8162 80.3666 24.8677C80.5868 24.8826 80.8504 24.867 81.0769 24.8707C81.4502 24.8769 81.5895 24.9153 81.6861 24.6312Z" fill="white"/>
<path fill-rule="evenodd" clip-rule="evenodd" d="M86.0166 18.4068L86.5195 18.4117L87.2344 16.344L86.743 16.3235C86.5288 16.9418 86.1711 17.82 86.0166 18.4068Z" fill="white"/>
<path fill-rule="evenodd" clip-rule="evenodd" d="M84.3066 18.3996L84.823 18.405L85.528 16.3125L85.0781 16.3169C85.0163 16.3922 85.0839 16.2786 85.0055 16.4281C84.9855 16.4664 84.9665 16.5094 84.95 16.5499L84.3066 18.3996Z" fill="white"/>
<path fill-rule="evenodd" clip-rule="evenodd" d="M85.1533 18.4068L85.6791 18.4048C85.7204 18.0937 85.9068 17.674 86.0075 17.3725C86.1253 17.0204 86.2875 16.6393 86.3784 16.3174L85.8736 16.3155L85.1533 18.4068Z" fill="white"/>
<path fill-rule="evenodd" clip-rule="evenodd" d="M87.9611 12.9309L87.2295 14.9577L87.7332 14.9561L88.4411 12.9197L87.9611 12.9309Z" fill="white"/>
<path fill-rule="evenodd" clip-rule="evenodd" d="M86.3623 14.9547L86.8675 14.9513L87.569 12.931L87.0987 12.9306L86.3623 14.9547Z" fill="white"/>
<path fill-rule="evenodd" clip-rule="evenodd" d="M83.833 22.1625L84.3448 22.1697L85.0191 20.2097L84.5472 20.193L83.833 22.1625Z" fill="white"/>
<path fill-rule="evenodd" clip-rule="evenodd" d="M85.5195 14.9592L86.0099 14.9506L86.7181 12.9366L86.2438 12.9448L85.5195 14.9592Z" fill="white"/>
<path fill-rule="evenodd" clip-rule="evenodd" d="M83.0098 22.1405L83.4948 22.1504L84.1683 20.186C83.6993 20.1876 83.7175 20.1196 83.6041 20.3919L83.0098 22.1405Z" fill="white"/>
<path fill-rule="evenodd" clip-rule="evenodd" d="M84.6807 22.1738L85.1481 22.1774L85.82 20.2316L85.3541 20.1945L84.6807 22.1738Z" fill="white"/>
<path fill-rule="evenodd" clip-rule="evenodd" d="M92.0732 14.6344L92.5548 14.6466L93.1897 12.9127L92.6644 12.8909C92.5388 13.4504 92.2317 14.08 92.0732 14.6344Z" fill="white"/>
<path fill-rule="evenodd" clip-rule="evenodd" d="M90.5664 19.0014L91.0132 19.0134L91.5917 17.4102L91.0572 17.4329C91.0014 17.868 90.5647 18.6192 90.5664 19.0014Z" fill="white"/>
<path d="M81.9976 23.8011H81.0176L80.9108 24.1026H81.8908L81.9976 23.8011Z" fill="white"/>
<path d="M82.189 23.2856H81.209L81.1022 23.5871H82.0822L82.189 23.2856Z" fill="white"/>
<path d="M81.731 24.5746H80.751L80.6442 24.8762H81.6242L81.731 24.5746Z" fill="white"/>
<path d="M86.3404 23.2697H85.3604L85.2536 23.5712H86.2336L86.3404 23.2697Z" fill="white"/>
<path d="M86.2147 23.8473H85.4873L85.372 24.1489H86.0994L86.2147 23.8473Z" fill="white"/>
<path d="M88.8101 23.213H87.8301L87.7233 23.5146H88.7033L88.8101 23.213Z" fill="white"/>
<path d="M91.1402 24.5781H90.1602L90.0534 24.8796H91.0334L91.1402 24.5781Z" fill="white"/>
<path d="M91.6333 23.213H90.6533L90.5465 23.5146H91.5265L91.6333 23.213Z" fill="white"/>
<path fill-rule="evenodd" clip-rule="evenodd" d="M94.3802 24.6085C93.5074 24.5861 93.4649 24.495 93.3428 24.8021C93.5605 24.9241 95.0602 24.9035 95.3172 24.7414C95.8507 24.4048 94.8868 23.6979 94.7465 23.4819C95.737 23.4467 95.7416 23.6164 95.8332 23.2201C95.3642 23.144 94.2652 23.1292 93.8906 23.3715C93.2683 23.7739 94.1928 24.3463 94.3802 24.6085Z" fill="white"/>
<path d="M94.4019 24.577H93.4219L93.3151 24.8785H94.2951L94.4019 24.577Z" fill="white"/>
<path d="M95.854 23.1846H94.874L94.7672 23.4861H95.7472L95.854 23.1846Z" fill="white"/>
<path fill-rule="evenodd" clip-rule="evenodd" d="M92.2698 24.6085C91.397 24.5861 91.3545 24.495 91.2324 24.8021C91.4501 24.9241 92.9498 24.9035 93.2068 24.7414C93.7404 24.4048 92.7764 23.6979 92.6361 23.4819C93.6267 23.4467 93.6312 23.6164 93.7228 23.2201C93.2539 23.144 92.1549 23.1292 91.7802 23.3715C91.158 23.7739 92.0825 24.3463 92.2698 24.6085Z" fill="white"/>
<path d="M92.2915 24.577H91.3115L91.2047 24.8785H92.1847L92.2915 24.577Z" fill="white"/>
<path d="M93.7437 23.1841H92.7637L92.6569 23.4856H93.6369L93.7437 23.1841Z" fill="white"/>
<path d="M91.2085 23.7713H90.2285L90.1217 24.0728H91.1017L91.2085 23.7713Z" fill="white"/>
<mask id="path-48-inside-1_1_11630" fill="white">
<path fill-rule="evenodd" clip-rule="evenodd" d="M52.1851 24.7838L53.7983 23.1089C53.8054 23.1015 53.814 23.0955 53.8235 23.0915C53.833 23.0874 53.8432 23.0852 53.8535 23.0852C53.8638 23.0852 53.874 23.0874 53.8835 23.0915C53.893 23.0955 53.9016 23.1015 53.9087 23.1089L55.5216 24.7838C55.5364 24.7993 55.5447 24.8198 55.5447 24.8412C55.5447 24.8626 55.5364 24.8831 55.5216 24.8986L53.9087 26.5736C53.9016 26.581 53.893 26.587 53.8835 26.5911C53.874 26.5951 53.8638 26.5973 53.8535 26.5973C53.8432 26.5973 53.833 26.5951 53.8235 26.5911C53.814 26.587 53.8054 26.581 53.7983 26.5736L52.1851 24.8986C52.1705 24.883 52.1624 24.8625 52.1624 24.8412C52.1624 24.8199 52.1705 24.7994 52.1851 24.7838ZM46.1382 36.9613L46.7063 36.3714C46.7088 36.3688 46.7118 36.3668 46.7151 36.3653C46.7185 36.3639 46.7221 36.3632 46.7257 36.3632C46.7293 36.3632 46.7329 36.3639 46.7362 36.3653C46.7395 36.3668 46.7425 36.3688 46.745 36.3714L47.3134 36.9613C47.3185 36.9668 47.3213 36.974 47.3213 36.9815C47.3213 36.989 47.3185 36.9963 47.3134 37.0018L46.745 37.5915C46.7425 37.5941 46.7395 37.5961 46.7362 37.5976C46.7329 37.599 46.7293 37.5997 46.7257 37.5997C46.7221 37.5997 46.7185 37.599 46.7151 37.5976C46.7118 37.5961 46.7088 37.5941 46.7063 37.5915L46.1382 37.0018C46.1331 36.9963 46.1302 36.989 46.1302 36.9815C46.1302 36.974 46.1331 36.9668 46.1382 36.9613ZM60.6267 36.9081L61.1947 36.3184C61.1972 36.3158 61.2002 36.3136 61.2036 36.3122C61.207 36.3107 61.2106 36.31 61.2142 36.31C61.2179 36.31 61.2215 36.3107 61.2248 36.3122C61.2282 36.3136 61.2312 36.3158 61.2338 36.3184L61.8017 36.9081C61.8069 36.9136 61.8097 36.9209 61.8097 36.9284C61.8097 36.9358 61.8069 36.943 61.8017 36.9485L61.2338 37.5384C61.2312 37.541 61.2282 37.5431 61.2248 37.5445C61.2215 37.5459 61.2179 37.5467 61.2142 37.5467C61.2106 37.5467 61.207 37.5459 61.2036 37.5445C61.2002 37.5431 61.1972 37.541 61.1947 37.5384L60.6267 36.9485C60.6216 36.943 60.6187 36.9358 60.6187 36.9284C60.6187 36.9209 60.6215 36.9137 60.6266 36.9082L60.6267 36.9081ZM49.4851 36.9554L50.4139 35.9912C50.418 35.9868 50.4228 35.9833 50.4283 35.981C50.4338 35.9786 50.4397 35.9774 50.4456 35.9774C50.4516 35.9774 50.4574 35.9786 50.4629 35.981C50.4684 35.9833 50.4733 35.9868 50.4773 35.9912L51.406 36.9554C51.4143 36.9644 51.4188 36.9762 51.4188 36.9885C51.4188 37.0007 51.4143 37.0125 51.406 37.0215L50.4773 37.9859C50.4732 37.9902 50.4683 37.9936 50.4628 37.9959C50.4574 37.9983 50.4515 37.9995 50.4456 37.9995C50.4397 37.9995 50.4338 37.9983 50.4283 37.9959C50.4228 37.9936 50.418 37.9902 50.4139 37.9859L49.4851 37.0215C49.4766 37.0126 49.4719 37.0009 49.4718 36.9886C49.4718 36.9763 49.4765 36.9645 49.4849 36.9555L49.4851 36.9554ZM53.0212 36.862L53.95 35.8976C53.9541 35.8933 53.959 35.8899 53.9645 35.8876C53.9699 35.8852 53.9758 35.8841 53.9817 35.8841C53.9877 35.8841 53.9936 35.8852 53.999 35.8876C54.0045 35.8899 54.0094 35.8933 54.0135 35.8976L54.9423 36.862C54.9508 36.8709 54.9555 36.8828 54.9555 36.8951C54.9555 36.9074 54.9508 36.9192 54.9423 36.9281L54.0135 37.8926C54.0094 37.8969 54.0045 37.9003 53.999 37.9027C53.9936 37.905 53.9877 37.9061 53.9817 37.9061C53.9758 37.9061 53.9699 37.905 53.9645 37.9027C53.959 37.9003 53.9541 37.8969 53.95 37.8926L53.0212 36.9281C53.013 36.9191 53.0084 36.9074 53.0084 36.8952C53.0084 36.883 53.0129 36.8712 53.0211 36.8621L53.0212 36.862ZM56.66 36.9688L57.5886 36.0044C57.5927 36.0001 57.5976 35.9967 57.6031 35.9944C57.6086 35.992 57.6145 35.9908 57.6204 35.9908C57.6264 35.9908 57.6323 35.992 57.6377 35.9944C57.6432 35.9967 57.6481 36.0001 57.6521 36.0044L58.581 36.9688C58.5894 36.9777 58.5941 36.9896 58.5941 37.0019C58.5941 37.0142 58.5894 37.0259 58.581 37.0348L57.6521 37.9991C57.6481 38.0034 57.6432 38.0069 57.6377 38.0092C57.6322 38.0116 57.6264 38.0128 57.6204 38.0128C57.6145 38.0128 57.6086 38.0116 57.6031 38.0092C57.5976 38.0069 57.5927 38.0034 57.5886 37.9991L56.66 37.0348C56.6516 37.0259 56.647 37.0141 56.6469 37.0019C56.6469 36.9897 56.6516 36.9779 56.6599 36.9689L56.66 36.9688ZM58.3894 38.927L59.3182 37.9625C59.3223 37.9582 59.3272 37.9548 59.3327 37.9525C59.3381 37.9501 59.344 37.9489 59.35 37.9489C59.3559 37.9489 59.3618 37.9501 59.3672 37.9525C59.3727 37.9548 59.3776 37.9582 59.3817 37.9625L60.3105 38.927C60.319 38.9359 60.3237 38.9477 60.3237 38.96C60.3237 38.9722 60.319 38.984 60.3105 38.9929L59.3817 39.9573C59.3776 39.9616 59.3727 39.9651 59.3673 39.9674C59.3618 39.9698 59.3559 39.9709 59.35 39.9709C59.344 39.9709 59.3381 39.9698 59.3327 39.9674C59.3272 39.9651 59.3223 39.9616 59.3182 39.9573L58.3894 38.9929C58.3811 38.984 58.3765 38.9723 58.3764 38.9601C58.3764 38.9479 58.381 38.9361 58.3893 38.9271L58.3894 38.927ZM47.6273 38.9535L48.556 37.9892C48.5601 37.9849 48.565 37.9815 48.5705 37.9792C48.576 37.9768 48.5819 37.9756 48.5878 37.9756C48.5937 37.9756 48.5996 37.9768 48.605 37.9792C48.6105 37.9815 48.6154 37.9849 48.6195 37.9892L49.5483 38.9535C49.5568 38.9624 49.5615 38.9742 49.5615 38.9865C49.5615 38.9988 49.5568 39.0106 49.5483 39.0195L48.6195 39.984C48.6154 39.9883 48.6105 39.9917 48.605 39.994C48.5996 39.9964 48.5937 39.9976 48.5878 39.9976C48.5819 39.9976 48.576 39.9964 48.5705 39.994C48.565 39.9917 48.5601 39.9883 48.556 39.984L47.6273 39.0195C47.619 39.0104 47.6144 38.9988 47.6144 38.9865C47.6144 38.9743 47.619 38.9625 47.6273 38.9535ZM50.9365 38.9706L52.1224 37.7391C52.1277 37.7337 52.134 37.7292 52.141 37.7263C52.1479 37.7233 52.1554 37.7219 52.163 37.7219C52.1705 37.7219 52.178 37.7233 52.185 37.7263C52.192 37.7292 52.1982 37.7337 52.2035 37.7391L53.3895 38.9706C53.4003 38.982 53.4063 38.9971 53.4063 39.0128C53.4063 39.0285 53.4003 39.0435 53.3895 39.0549L52.2035 40.2863C52.1983 40.2918 52.192 40.2962 52.185 40.2992C52.1781 40.3022 52.1705 40.3038 52.163 40.3038C52.1554 40.3038 52.1479 40.3022 52.1409 40.2992C52.134 40.2962 52.1276 40.2918 52.1224 40.2863L50.9365 39.0549C50.9257 39.0435 50.9197 39.0285 50.9197 39.0128C50.9196 38.9971 50.9258 38.982 50.9365 38.9706ZM54.5365 38.9176L55.7225 37.6858C55.7277 37.6803 55.7341 37.676 55.741 37.673C55.748 37.67 55.7556 37.6685 55.7632 37.6685C55.7708 37.6685 55.7784 37.67 55.7854 37.673C55.7924 37.676 55.7987 37.6803 55.8039 37.6858L56.9898 38.9176C57.0006 38.929 57.0066 38.9439 57.0066 38.9596C57.0066 38.9753 57.0006 38.9904 56.9898 39.0017L55.8039 40.2333C55.7986 40.2387 55.7923 40.2431 55.7853 40.2461C55.7783 40.249 55.7708 40.2505 55.7632 40.2505C55.7556 40.2505 55.748 40.249 55.741 40.2461C55.7341 40.2431 55.7278 40.2387 55.7225 40.2333L54.5365 39.0017C54.5258 38.9904 54.5198 38.9753 54.5198 38.9596C54.5198 38.9439 54.5258 38.929 54.5365 38.9176ZM52.5024 40.9361L53.8834 39.5024C53.8895 39.4959 53.8968 39.4908 53.9049 39.4873C53.913 39.4838 53.9218 39.4819 53.9307 39.4819C53.9395 39.4819 53.9483 39.4838 53.9564 39.4873C53.9645 39.4908 53.9719 39.4959 53.978 39.5024L55.3587 40.9361C55.3712 40.9494 55.3782 40.9668 55.3782 40.9851C55.3782 41.0034 55.3712 41.021 55.3587 41.0342L53.978 42.4679C53.9719 42.4743 53.9645 42.4794 53.9564 42.4829C53.9483 42.4864 53.9395 42.4882 53.9307 42.4882C53.9218 42.4882 53.9131 42.4864 53.905 42.4829C53.8969 42.4794 53.8895 42.4743 53.8834 42.4679L52.5024 41.0342C52.4898 41.021 52.4828 41.0034 52.4828 40.9851C52.4828 40.9668 52.4899 40.9494 52.5024 40.9361ZM54.2702 42.9876L55.6512 41.553C55.6573 41.5466 55.6647 41.5415 55.6728 41.5381C55.6809 41.5346 55.6896 41.5328 55.6985 41.5328C55.7073 41.5328 55.7161 41.5346 55.7242 41.5381C55.7324 41.5415 55.7397 41.5466 55.7458 41.553L57.1267 42.9876C57.1393 43.0008 57.1463 43.0185 57.1463 43.0367C57.1463 43.055 57.1393 43.0724 57.1267 43.0857L55.7458 44.5203C55.7397 44.5267 55.7324 44.5317 55.7242 44.5352C55.7161 44.5387 55.7073 44.5406 55.6985 44.5406C55.6896 44.5406 55.6809 44.5387 55.6728 44.5352C55.6647 44.5317 55.6573 44.5267 55.6512 44.5203L54.2702 43.0857C54.2578 43.0724 54.2508 43.0549 54.2508 43.0367C54.2508 43.0185 54.2578 43.0009 54.2702 42.9876ZM56.3048 40.942L57.4908 39.7105C57.496 39.705 57.5023 39.7006 57.5093 39.6977C57.5163 39.6947 57.5238 39.6931 57.5313 39.6931C57.5389 39.6931 57.5464 39.6947 57.5534 39.6977C57.5603 39.7006 57.5666 39.705 57.5719 39.7105L58.7581 40.942C58.7688 40.9535 58.7748 40.9686 58.7748 40.9843C58.7748 40.9999 58.7688 41.0149 58.7581 41.0264L57.5719 42.2576C57.5667 42.2631 57.5604 42.2676 57.5534 42.2706C57.5464 42.2736 57.5389 42.2752 57.5313 42.2752C57.5237 42.2752 57.5162 42.2736 57.5092 42.2706C57.5023 42.2676 57.496 42.2631 57.4908 42.2576L56.3048 41.0264C56.294 41.015 56.2879 41 56.2879 40.9843C56.2879 40.9686 56.2939 40.9535 56.3047 40.9421L56.3048 40.942ZM49.117 40.955L50.3032 39.7239C50.3084 39.7183 50.3147 39.714 50.3217 39.711C50.3286 39.7079 50.3362 39.7063 50.3438 39.7063C50.3514 39.7063 50.3589 39.7079 50.3659 39.711C50.3728 39.714 50.3791 39.7183 50.3843 39.7239L51.5702 40.955C51.581 40.9664 51.5871 40.9816 51.5871 40.9973C51.5871 41.013 51.581 41.0282 51.5702 41.0396L50.3843 42.2711C50.3791 42.2766 50.3728 42.2809 50.3658 42.2839C50.3588 42.2869 50.3513 42.2885 50.3438 42.2885C50.3362 42.2885 50.3287 42.2869 50.3217 42.2839C50.3148 42.2809 50.3085 42.2766 50.3032 42.2711L49.117 41.0396C49.1062 41.0282 49.1002 41.0131 49.1002 40.9974C49.1001 40.9818 49.1061 40.9667 49.1169 40.9553L49.117 40.955ZM50.7085 42.9473L52.0894 41.5136C52.0956 41.5073 52.1029 41.5022 52.1111 41.4988C52.1192 41.4953 52.1279 41.4935 52.1367 41.4935C52.1456 41.4935 52.1543 41.4953 52.1624 41.4988C52.1705 41.5022 52.1778 41.5073 52.184 41.5136L53.565 42.9473C53.5774 42.9606 53.5844 42.9781 53.5844 42.9964C53.5844 43.0146 53.5774 43.0322 53.565 43.0454L52.184 44.4799C52.1778 44.4863 52.1705 44.4913 52.1624 44.4948C52.1543 44.4982 52.1456 44.5 52.1367 44.5C52.1279 44.5 52.1192 44.4982 52.1111 44.4948C52.1029 44.4913 52.0956 44.4863 52.0894 44.4799L50.7085 43.0454C50.6962 43.0322 50.6894 43.0147 50.6894 42.9966C50.6894 42.9785 50.6962 42.961 50.7085 42.9477V42.9473ZM55.522 45.0317L53.9088 43.3568C53.9017 43.3493 53.8931 43.3434 53.8837 43.3393C53.8742 43.3352 53.8639 43.3332 53.8536 43.3332C53.8433 43.3332 53.8331 43.3352 53.8236 43.3393C53.8141 43.3434 53.8055 43.3493 53.7984 43.3568L52.1851 45.0317C52.1705 45.0472 52.1624 45.0678 52.1624 45.0891C52.1624 45.1105 52.1705 45.1311 52.1851 45.1466L53.7984 46.8218C53.8056 46.8292 53.8142 46.835 53.8237 46.839C53.8332 46.843 53.8433 46.8451 53.8536 46.8451C53.8639 46.8451 53.8741 46.843 53.8836 46.839C53.8931 46.835 53.9017 46.8292 53.9088 46.8218L55.522 45.1466C55.5367 45.1311 55.5449 45.1104 55.5449 45.089C55.5448 45.0676 55.5366 45.047 55.5219 45.0314L55.522 45.0317ZM62.6523 33.9676H64.1771V34.0182C64.1 34.0112 64.0228 34.0303 63.958 34.0727C63.9165 34.1423 63.8996 34.224 63.91 34.3044V35.3277C63.9015 35.4513 63.913 35.5755 63.944 35.6955C63.967 35.7419 64.0404 35.7658 64.1647 35.7658V36.3473H64.1184C64.0988 36.2307 64.0539 36.1199 63.987 36.0224C63.9366 35.9479 63.8649 35.8904 63.7812 35.8574C63.6923 35.8278 63.599 35.8137 63.5053 35.8159H63.0336C62.9502 35.8087 62.8663 35.82 62.7877 35.8489C62.7092 35.8778 62.6379 35.9236 62.5791 35.9831C62.4872 36.0852 62.4269 36.2116 62.4055 36.3473H62.3591V35.7658C62.4361 35.7559 62.5094 35.7264 62.5718 35.6803C62.6343 35.6342 62.6841 35.573 62.7163 35.5024C62.8158 35.3161 62.8804 35.1133 62.9069 34.9038C62.9386 34.7111 62.9564 34.5163 62.9602 34.321C62.9644 34.2525 62.9528 34.1839 62.9262 34.1206C62.9104 34.0846 62.8815 34.056 62.8454 34.0405C62.7821 34.0255 62.7172 34.0181 62.6522 34.0186V33.9681L62.6523 33.9676ZM63.0965 34.0682C63.0935 34.4497 63.0502 34.8299 62.9673 35.2023C62.919 35.3892 62.8317 35.5638 62.7112 35.7144H63.3952C63.4696 35.7233 63.5451 35.7122 63.6138 35.6823C63.6383 35.6608 63.6506 35.5923 63.6506 35.475V34.0682H63.0965ZM59.0265 34.8245H59.8848V34.2959C59.8883 34.2331 59.8824 34.1701 59.8671 34.1091C59.8553 34.0837 59.8351 34.0631 59.81 34.0507C59.7722 34.0293 59.7294 34.0181 59.6859 34.0181H59.6206V33.9675H60.4108V34.0181H60.3453C60.3021 34.018 60.2596 34.0287 60.2217 34.0494C60.2079 34.0558 60.1955 34.0648 60.1852 34.0762C60.175 34.0875 60.1672 34.1009 60.1622 34.1153C60.1487 34.1745 60.1435 34.2353 60.1466 34.2959V35.4884C60.1429 35.5507 60.1489 35.6133 60.1643 35.6737C60.1756 35.6991 60.1953 35.7197 60.2201 35.7322C60.2583 35.7538 60.3014 35.7653 60.3453 35.7654H60.4108V35.8155H59.6206V35.7654H59.6859C59.7168 35.7681 59.7478 35.7633 59.7765 35.7517C59.8052 35.74 59.8307 35.7217 59.851 35.6983C59.881 35.6327 59.8926 35.5602 59.8848 35.4885V34.9256H59.0265V35.4885C59.023 35.5508 59.0289 35.6133 59.0442 35.6738C59.0561 35.6994 59.0765 35.72 59.1019 35.7323C59.1396 35.754 59.1823 35.7656 59.2257 35.7656H59.2926V35.8156H58.5011V35.7656H58.5661C58.5972 35.7682 58.6284 35.7634 58.6573 35.7518C58.6863 35.7401 58.7121 35.7219 58.7326 35.6984C58.7613 35.6324 58.7726 35.5602 58.7652 35.4886V34.296C58.7686 34.2333 58.7627 34.1703 58.7476 34.1093C58.736 34.0841 58.7162 34.0635 58.6915 34.0508C58.6531 34.0294 58.6099 34.0182 58.566 34.0182H58.501V33.9677H59.2926V34.0182H59.2257C59.1825 34.018 59.1399 34.0288 59.1019 34.0496C59.0883 34.0562 59.0761 34.0654 59.0661 34.0767C59.056 34.088 59.0483 34.1012 59.0433 34.1154C59.0289 34.1745 59.0232 34.2353 59.0265 34.296V34.8245ZM55.8591 35.1968H55.1437L55.0185 35.4884C54.9931 35.5386 54.9774 35.5932 54.972 35.6493C54.9725 35.6638 54.9764 35.6781 54.9833 35.6909C54.9903 35.7036 55.0001 35.7145 55.0121 35.7228C55.0654 35.7517 55.1252 35.7662 55.1858 35.7648V35.815H54.604V35.7648C54.6576 35.7599 54.7091 35.7415 54.7537 35.7113C54.8211 35.6331 54.8733 35.5431 54.9076 35.4457L55.5574 33.9253H55.6048L56.2483 35.4622C56.2784 35.551 56.3264 35.6328 56.3891 35.7026C56.4394 35.7424 56.5015 35.7643 56.5657 35.765V35.8151H55.8366V35.765C55.8888 35.7671 55.9406 35.7543 55.9859 35.7282C55.998 35.7195 56.0078 35.7081 56.0147 35.6948C56.0215 35.6815 56.025 35.6668 56.025 35.6519C56.0178 35.5861 55.9992 35.5221 55.97 35.4626L55.8583 35.197L55.8591 35.1968ZM55.8209 35.0957L55.5073 34.3493L55.1858 35.0957H55.8209ZM52.3299 34.8726C52.436 34.8892 52.5356 34.9344 52.6179 35.0033C52.6603 35.0422 52.694 35.0896 52.7168 35.1424C52.7396 35.1953 52.7509 35.2523 52.75 35.3098C52.7489 35.4047 52.7183 35.4969 52.6624 35.5735C52.6038 35.6582 52.5202 35.7225 52.4233 35.7574C52.2732 35.8029 52.1165 35.8226 51.9598 35.8156H51.0873V35.7654H51.1567C51.1884 35.7684 51.2203 35.7631 51.2494 35.7502C51.2784 35.7374 51.3037 35.7173 51.3228 35.6918C51.3499 35.6279 51.3608 35.5581 51.3544 35.489V34.2952C51.3635 34.2207 51.3496 34.1451 51.3148 34.0787C51.2944 34.0578 51.2697 34.0416 51.2424 34.0313C51.2151 34.0209 51.1859 34.0167 51.1567 34.0188H51.0873V33.9683H51.8856C52.006 33.9656 52.1264 33.9766 52.2443 34.0012C52.3641 34.0244 52.4735 34.0852 52.5564 34.1747C52.6264 34.2538 52.6647 34.3561 52.6636 34.4617C52.6646 34.5518 52.6349 34.6396 52.5794 34.7106C52.5148 34.789 52.4277 34.8458 52.3298 34.8732L52.3299 34.8726ZM51.6158 34.7989C51.654 34.8059 51.6926 34.8108 51.7313 34.8135C51.7746 34.8166 51.8219 34.8178 51.8735 34.8178C51.9751 34.823 52.0767 34.8086 52.1727 34.7752C52.2368 34.7491 52.2907 34.7029 52.3262 34.6435C52.3615 34.5852 52.3799 34.5182 52.3793 34.45C52.3794 34.397 52.3675 34.3446 52.3446 34.2967C52.3217 34.2489 52.2883 34.2069 52.2469 34.1738C52.1365 34.0903 51.9996 34.0496 51.8615 34.0592C51.7788 34.0581 51.6963 34.0681 51.6163 34.089L51.6158 34.7989ZM51.6158 35.6818C51.7181 35.7059 51.8228 35.7182 51.9279 35.7185C52.0625 35.7277 52.1961 35.6884 52.3042 35.6075C52.3451 35.5745 52.378 35.5326 52.4003 35.485C52.4227 35.4375 52.434 35.3855 52.4334 35.333C52.433 35.2599 52.4128 35.1883 52.3748 35.1259C52.3297 35.0546 52.2629 34.9998 52.1842 34.9694C52.0802 34.9284 51.969 34.9089 51.8573 34.9122C51.8009 34.9122 51.7524 34.9132 51.7124 34.9146C51.68 34.9155 51.6476 34.9188 51.6156 34.9244L51.6158 35.6818ZM48.2056 34.9501V35.4884C48.1965 35.5629 48.2099 35.6384 48.2441 35.7052C48.2641 35.7262 48.2884 35.7424 48.3155 35.7528C48.3425 35.7631 48.3714 35.7675 48.4003 35.7653H48.4715V35.8154H47.6797V35.7653H47.7491C47.7812 35.7682 47.8136 35.7627 47.8429 35.7493C47.8722 35.7359 47.8976 35.7152 47.9165 35.6891C47.9406 35.6251 47.95 35.5565 47.944 35.4884V34.2945C47.953 34.2203 47.9402 34.1451 47.9071 34.0781C47.8868 34.0571 47.8621 34.0409 47.8348 34.0306C47.8075 34.0202 47.7782 34.0161 47.7491 34.0182H47.6797V33.9676H48.357C48.4892 33.963 48.6213 33.9802 48.7479 34.0187C48.8429 34.0524 48.9266 34.1121 48.9893 34.191C49.0549 34.2723 49.0896 34.3742 49.0874 34.4786C49.0899 34.547 49.0779 34.6152 49.0521 34.6786C49.0264 34.742 48.9875 34.7992 48.938 34.8465C48.8213 34.9471 48.6699 34.998 48.5161 34.9883C48.4679 34.988 48.4197 34.9849 48.372 34.9786C48.3202 34.972 48.2646 34.9627 48.2055 34.9499L48.2056 34.9501ZM48.2056 34.8724C48.2538 34.8814 48.2968 34.8883 48.3337 34.8929C48.3653 34.8969 48.3971 34.8991 48.429 34.8996C48.4754 34.8999 48.5213 34.8902 48.5636 34.8711C48.6059 34.8521 48.6436 34.8241 48.6742 34.7892C48.7443 34.7117 48.7813 34.6099 48.7771 34.5054C48.7776 34.4285 48.7609 34.3523 48.7281 34.2827C48.6989 34.2182 48.6503 34.1644 48.589 34.1289C48.5265 34.0939 48.4558 34.0762 48.3841 34.0775C48.3238 34.0794 48.264 34.088 48.2056 34.1031V34.872V34.8724ZM45.0392 35.1967H44.3239L44.1987 35.4883C44.1733 35.5385 44.1575 35.5932 44.1521 35.6493C44.1526 35.6638 44.1566 35.6781 44.1635 35.6909C44.1705 35.7036 44.1803 35.7145 44.1922 35.7228C44.2455 35.7517 44.3054 35.7662 44.366 35.7648V35.815H43.7842V35.7648C43.8378 35.76 43.8894 35.7416 43.9339 35.7113C44.0013 35.6332 44.0534 35.5432 44.0877 35.4459L44.7375 33.9254H44.785L45.4283 35.4623C45.4586 35.5511 45.5065 35.6328 45.5692 35.7027C45.6195 35.7425 45.6816 35.7644 45.7457 35.7651V35.8153H45.0167V35.7651C45.0689 35.7671 45.1206 35.7544 45.1659 35.7283C45.178 35.7196 45.1879 35.7082 45.1947 35.6949C45.2015 35.6817 45.205 35.667 45.205 35.6521C45.1978 35.5862 45.1793 35.5222 45.1501 35.4627L45.0392 35.1967ZM45.0011 35.0957L44.6875 34.3493L44.3661 35.0957H45.0011ZM46.1381 32.929L46.706 32.339C46.7085 32.3364 46.7116 32.3342 46.7149 32.3328C46.7182 32.3313 46.7219 32.3306 46.7255 32.3306C46.7291 32.3306 46.7327 32.3313 46.736 32.3328C46.7394 32.3342 46.7424 32.3364 46.7449 32.339L47.313 32.9291C47.3182 32.9344 47.321 32.9416 47.321 32.9491C47.321 32.9565 47.3182 32.9637 47.313 32.9691L46.7449 33.5593C46.7424 33.5619 46.7394 33.5639 46.736 33.5654C46.7327 33.5668 46.7291 33.5676 46.7255 33.5676C46.7219 33.5676 46.7182 33.5668 46.7149 33.5654C46.7116 33.5639 46.7085 33.5619 46.706 33.5593L46.1381 32.9692C46.1355 32.9665 46.1333 32.9634 46.1319 32.96C46.1305 32.9565 46.1297 32.9527 46.1297 32.949C46.1297 32.9452 46.1305 32.9415 46.1319 32.9381C46.1333 32.9346 46.1355 32.9314 46.1381 32.9287V32.929ZM60.6266 32.9821L61.1946 32.3923C61.197 32.3896 61.2001 32.3875 61.2034 32.3861C61.2068 32.3846 61.2104 32.3839 61.214 32.3839C61.2177 32.3839 61.2212 32.3846 61.2245 32.3861C61.2279 32.3875 61.2309 32.3896 61.2334 32.3923L61.8016 32.9821C61.8068 32.9876 61.8096 32.9947 61.8096 33.0022C61.8096 33.0097 61.8068 33.017 61.8016 33.0225L61.2334 33.6122C61.2309 33.6148 61.2279 33.6169 61.2245 33.6183C61.2212 33.6197 61.2176 33.6206 61.214 33.6206C61.2104 33.6206 61.2068 33.6197 61.2034 33.6183C61.2001 33.6169 61.1971 33.6148 61.1946 33.6122L60.6266 33.0225C60.6214 33.017 60.6185 33.0097 60.6185 33.0021C60.6185 32.9945 60.6214 32.9873 60.6266 32.9818V32.9821ZM49.4849 32.9085L50.4133 31.9445C50.4174 31.9401 50.4224 31.9365 50.4279 31.9342C50.4334 31.9318 50.4393 31.9306 50.4452 31.9306C50.4512 31.9306 50.4571 31.9318 50.4626 31.9342C50.4681 31.9365 50.473 31.9401 50.4771 31.9445L51.4059 32.9085C51.4141 32.9175 51.4187 32.9293 51.4187 32.9415C51.4187 32.9538 51.4141 32.9655 51.4059 32.9746L50.4771 33.9388C50.473 33.9431 50.468 33.9466 50.4625 33.9489C50.4571 33.9512 50.4512 33.9524 50.4452 33.9524C50.4393 33.9524 50.4334 33.9512 50.4279 33.9489C50.4224 33.9466 50.4175 33.9431 50.4133 33.9388L49.4849 32.9746C49.4765 32.9657 49.4717 32.9539 49.4717 32.9416C49.4717 32.9294 49.4765 32.9174 49.4849 32.9085ZM53.0211 33.002L53.9499 32.0374C53.954 32.0331 53.9588 32.0296 53.9643 32.0272C53.9698 32.0248 53.9757 32.0236 53.9816 32.0236C53.9876 32.0236 53.9935 32.0248 53.9989 32.0272C54.0044 32.0296 54.0093 32.0331 54.0134 32.0374L54.9422 33.002C54.9506 33.0109 54.9554 33.0226 54.9554 33.0349C54.9554 33.0472 54.9506 33.0591 54.9422 33.068L54.0134 34.0321C54.0093 34.0364 54.0044 34.0398 53.9989 34.0422C53.9935 34.0445 53.9875 34.0458 53.9816 34.0458C53.9757 34.0458 53.9698 34.0445 53.9644 34.0422C53.9589 34.0398 53.954 34.0364 53.9499 34.0321L53.0211 33.068C53.0126 33.0591 53.0078 33.0472 53.0078 33.0349C53.0078 33.0226 53.0126 33.0109 53.0211 33.002ZM56.6597 32.8954L57.5885 31.9309C57.5926 31.9266 57.5975 31.9232 57.603 31.9209C57.6084 31.9185 57.6144 31.9173 57.6203 31.9173C57.6262 31.9173 57.6321 31.9185 57.6375 31.9209C57.643 31.9232 57.6479 31.9266 57.652 31.9309L58.5808 32.8954C58.5892 32.9044 58.5938 32.9161 58.5938 32.9284C58.5938 32.9406 58.5892 32.9524 58.5808 32.9613L57.652 33.9257C57.6479 33.93 57.643 33.9334 57.6375 33.9357C57.6321 33.9381 57.6262 33.9393 57.6203 33.9393C57.6144 33.9393 57.6084 33.9381 57.603 33.9357C57.5975 33.9334 57.5926 33.93 57.5885 33.9257L56.6597 32.9613C56.6513 32.9524 56.6465 32.9406 56.6465 32.9284C56.6465 32.9161 56.6513 32.9043 56.6597 32.8954ZM58.3893 30.9371L59.3181 29.9728C59.3222 29.9686 59.3271 29.9651 59.3326 29.9628C59.338 29.9605 59.3439 29.9592 59.3499 29.9592C59.3558 29.9592 59.3616 29.9605 59.3671 29.9628C59.3726 29.9651 59.3775 29.9686 59.3816 29.9728L60.3103 30.9371C60.3186 30.9461 60.3233 30.9579 60.3233 30.9702C60.3233 30.9824 60.3186 30.9941 60.3103 31.0031L59.3816 31.9673C59.3775 31.9717 59.3726 31.9752 59.3672 31.9776C59.3617 31.98 59.3558 31.9812 59.3499 31.9812C59.3439 31.9812 59.338 31.98 59.3325 31.9776C59.327 31.9752 59.3221 31.9717 59.3181 31.9673L58.3893 31.0031C58.3809 30.9942 58.3761 30.9824 58.3761 30.9702C58.3761 30.9579 58.3809 30.946 58.3893 30.9371ZM47.6271 30.9103L48.5559 29.9461C48.56 29.9418 48.5649 29.9384 48.5704 29.9361C48.5758 29.9337 48.5817 29.9325 48.5877 29.9325C48.5936 29.9325 48.5995 29.9337 48.6049 29.9361C48.6104 29.9384 48.6153 29.9418 48.6194 29.9461L49.5481 30.9103C49.5566 30.9192 49.5613 30.931 49.5613 30.9433C49.5613 30.9556 49.5566 30.9675 49.5481 30.9764L48.6194 31.9408C48.6153 31.9451 48.6104 31.9486 48.6049 31.9509C48.5995 31.9533 48.5936 31.9544 48.5877 31.9544C48.5817 31.9544 48.5758 31.9533 48.5704 31.9509C48.5649 31.9486 48.56 31.9451 48.5559 31.9408L47.6271 30.9764C47.6187 30.9675 47.614 30.9557 47.614 30.9434C47.614 30.9312 47.6187 30.9192 47.6271 30.9103ZM50.9361 30.8751L52.1221 29.6434C52.1273 29.6379 52.1336 29.6336 52.1406 29.6306C52.1476 29.6276 52.1551 29.6261 52.1627 29.6261C52.1703 29.6261 52.1778 29.6276 52.1848 29.6306C52.1918 29.6336 52.1981 29.6379 52.2034 29.6434L53.3894 30.8751C53.4001 30.8865 53.4061 30.9016 53.4061 30.9172C53.4061 30.9329 53.4001 30.948 53.3894 30.9594L52.2034 32.1909C52.1981 32.1964 52.1918 32.2007 52.1848 32.2037C52.1778 32.2067 52.1703 32.2083 52.1627 32.2083C52.1551 32.2083 52.1476 32.2067 52.1406 32.2037C52.1336 32.2007 52.1273 32.1964 52.1221 32.1909L50.9361 30.9594C50.9253 30.948 50.9194 30.933 50.9194 30.9173C50.9194 30.9017 50.9253 30.8865 50.9361 30.8751ZM54.5364 30.9284L55.7224 29.6967C55.7276 29.6913 55.7339 29.6869 55.7409 29.6839C55.7478 29.6809 55.7554 29.6794 55.763 29.6794C55.7705 29.6794 55.778 29.6809 55.785 29.6839C55.792 29.6869 55.7982 29.6913 55.8035 29.6967L56.9897 30.9284C57.0004 30.9397 57.0064 30.9548 57.0064 30.9704C57.0064 30.986 57.0004 31.001 56.9897 31.0124L55.8035 32.2441C55.7983 32.2496 55.792 32.254 55.7851 32.257C55.7781 32.26 55.7706 32.2615 55.763 32.2615C55.7554 32.2615 55.7478 32.26 55.7409 32.257C55.7339 32.254 55.7276 32.2496 55.7224 32.2441L54.5364 31.0124C54.5257 31.001 54.5197 30.986 54.5197 30.9704C54.5197 30.9548 54.5257 30.9397 54.5364 30.9284ZM52.5023 28.8957L53.8831 27.4619C53.8892 27.4555 53.8965 27.4504 53.9046 27.447C53.9127 27.4435 53.9215 27.4417 53.9303 27.4417C53.9391 27.4417 53.9479 27.4435 53.956 27.447C53.9642 27.4504 53.9715 27.4555 53.9776 27.4619L55.3585 28.8957C55.3711 28.9089 55.3781 28.9264 55.3781 28.9447C55.3781 28.9629 55.3711 28.9805 55.3585 28.9937L53.9776 30.4275C53.9715 30.434 53.9642 30.4391 53.956 30.4426C53.9479 30.4461 53.9392 30.448 53.9303 30.448C53.9214 30.448 53.9127 30.4461 53.9046 30.4426C53.8964 30.4391 53.8891 30.434 53.8831 30.4275L52.5023 28.9937C52.4897 28.9805 52.4827 28.963 52.4827 28.9448C52.4827 28.9265 52.4898 28.9089 52.5023 28.8957ZM54.2702 26.8443L55.6512 25.4098C55.6574 25.4035 55.6647 25.3983 55.6728 25.3949C55.6809 25.3914 55.6897 25.3896 55.6985 25.3896C55.7073 25.3896 55.7161 25.3914 55.7242 25.3949C55.7323 25.3983 55.7397 25.4035 55.7458 25.4098L57.1267 26.8443C57.1393 26.8576 57.1463 26.8752 57.1463 26.8934C57.1463 26.9116 57.1393 26.9292 57.1267 26.9425L55.7458 28.377C55.7397 28.3833 55.7323 28.3885 55.7242 28.3919C55.7161 28.3954 55.7073 28.3972 55.6985 28.3972C55.6897 28.3972 55.6809 28.3954 55.6728 28.3919C55.6647 28.3885 55.6574 28.3833 55.6512 28.377L54.2702 26.9425C54.2577 26.9292 54.2508 26.9116 54.2508 26.8934C54.2508 26.8752 54.2577 26.8576 54.2702 26.8443ZM56.3048 28.9043L57.4907 27.6727C57.4959 27.6671 57.5021 27.6628 57.5091 27.6597C57.5161 27.6567 57.5236 27.6551 57.5312 27.6551C57.5388 27.6551 57.5463 27.6567 57.5533 27.6597C57.5603 27.6628 57.5666 27.6671 57.5717 27.6727L58.7577 28.9043C58.7685 28.9157 58.7745 28.9307 58.7745 28.9463C58.7745 28.962 58.7685 28.9771 58.7577 28.9885L57.5717 30.22C57.5665 30.2255 57.5602 30.2298 57.5532 30.2328C57.5463 30.2358 57.5388 30.2373 57.5312 30.2373C57.5236 30.2373 57.5161 30.2358 57.5092 30.2328C57.5022 30.2298 57.4959 30.2255 57.4907 30.22L56.3048 28.9885C56.2939 28.9771 56.2877 28.9619 56.2877 28.9461C56.2877 28.9303 56.2938 28.9151 56.3047 28.9037L56.3048 28.9043ZM49.117 28.8908L50.3032 27.6593C50.3085 27.6538 50.3148 27.6494 50.3217 27.6464C50.3287 27.6435 50.3362 27.642 50.3438 27.642C50.3513 27.642 50.3588 27.6435 50.3658 27.6464C50.3728 27.6494 50.3791 27.6538 50.3843 27.6593L51.5702 28.8908C51.581 28.9022 51.587 28.9172 51.587 28.9329C51.587 28.9486 51.581 28.9637 51.5702 28.9751L50.3843 30.2063C50.3791 30.2119 50.3728 30.2164 50.3659 30.2194C50.3589 30.2224 50.3514 30.2241 50.3438 30.2241C50.3362 30.2241 50.3286 30.2224 50.3217 30.2194C50.3147 30.2164 50.3084 30.2119 50.3032 30.2063L49.117 28.9751C49.106 28.9637 49.0998 28.9485 49.0998 28.9327C49.0998 28.9168 49.1059 28.9016 49.1169 28.8902L49.117 28.8908ZM50.7085 26.8849L52.0894 25.4512C52.0955 25.4447 52.1029 25.4396 52.111 25.4361C52.1191 25.4326 52.1279 25.4307 52.1367 25.4307C52.1456 25.4307 52.1544 25.4326 52.1625 25.4361C52.1706 25.4396 52.1779 25.4447 52.184 25.4512L53.5647 26.8849C53.5773 26.8981 53.5843 26.9157 53.5843 26.934C53.5843 26.9522 53.5773 26.9697 53.5647 26.983L52.184 28.4168C52.1779 28.4232 52.1705 28.4283 52.1624 28.4318C52.1543 28.4353 52.1456 28.4371 52.1367 28.4371C52.1279 28.4371 52.1192 28.4353 52.1111 28.4318C52.1029 28.4283 52.0955 28.4232 52.0894 28.4168L50.7085 26.983C50.6958 26.9697 50.6887 26.952 50.6887 26.9336C50.6887 26.9153 50.6958 26.8976 50.7085 26.8843V26.8849Z"/>
</mask>
<path fill-rule="evenodd" clip-rule="evenodd" d="M52.1851 24.7838L53.7983 23.1089C53.8054 23.1015 53.814 23.0955 53.8235 23.0915C53.833 23.0874 53.8432 23.0852 53.8535 23.0852C53.8638 23.0852 53.874 23.0874 53.8835 23.0915C53.893 23.0955 53.9016 23.1015 53.9087 23.1089L55.5216 24.7838C55.5364 24.7993 55.5447 24.8198 55.5447 24.8412C55.5447 24.8626 55.5364 24.8831 55.5216 24.8986L53.9087 26.5736C53.9016 26.581 53.893 26.587 53.8835 26.5911C53.874 26.5951 53.8638 26.5973 53.8535 26.5973C53.8432 26.5973 53.833 26.5951 53.8235 26.5911C53.814 26.587 53.8054 26.581 53.7983 26.5736L52.1851 24.8986C52.1705 24.883 52.1624 24.8625 52.1624 24.8412C52.1624 24.8199 52.1705 24.7994 52.1851 24.7838ZM46.1382 36.9613L46.7063 36.3714C46.7088 36.3688 46.7118 36.3668 46.7151 36.3653C46.7185 36.3639 46.7221 36.3632 46.7257 36.3632C46.7293 36.3632 46.7329 36.3639 46.7362 36.3653C46.7395 36.3668 46.7425 36.3688 46.745 36.3714L47.3134 36.9613C47.3185 36.9668 47.3213 36.974 47.3213 36.9815C47.3213 36.989 47.3185 36.9963 47.3134 37.0018L46.745 37.5915C46.7425 37.5941 46.7395 37.5961 46.7362 37.5976C46.7329 37.599 46.7293 37.5997 46.7257 37.5997C46.7221 37.5997 46.7185 37.599 46.7151 37.5976C46.7118 37.5961 46.7088 37.5941 46.7063 37.5915L46.1382 37.0018C46.1331 36.9963 46.1302 36.989 46.1302 36.9815C46.1302 36.974 46.1331 36.9668 46.1382 36.9613ZM60.6267 36.9081L61.1947 36.3184C61.1972 36.3158 61.2002 36.3136 61.2036 36.3122C61.207 36.3107 61.2106 36.31 61.2142 36.31C61.2179 36.31 61.2215 36.3107 61.2248 36.3122C61.2282 36.3136 61.2312 36.3158 61.2338 36.3184L61.8017 36.9081C61.8069 36.9136 61.8097 36.9209 61.8097 36.9284C61.8097 36.9358 61.8069 36.943 61.8017 36.9485L61.2338 37.5384C61.2312 37.541 61.2282 37.5431 61.2248 37.5445C61.2215 37.5459 61.2179 37.5467 61.2142 37.5467C61.2106 37.5467 61.207 37.5459 61.2036 37.5445C61.2002 37.5431 61.1972 37.541 61.1947 37.5384L60.6267 36.9485C60.6216 36.943 60.6187 36.9358 60.6187 36.9284C60.6187 36.9209 60.6215 36.9137 60.6266 36.9082L60.6267 36.9081ZM49.4851 36.9554L50.4139 35.9912C50.418 35.9868 50.4228 35.9833 50.4283 35.981C50.4338 35.9786 50.4397 35.9774 50.4456 35.9774C50.4516 35.9774 50.4574 35.9786 50.4629 35.981C50.4684 35.9833 50.4733 35.9868 50.4773 35.9912L51.406 36.9554C51.4143 36.9644 51.4188 36.9762 51.4188 36.9885C51.4188 37.0007 51.4143 37.0125 51.406 37.0215L50.4773 37.9859C50.4732 37.9902 50.4683 37.9936 50.4628 37.9959C50.4574 37.9983 50.4515 37.9995 50.4456 37.9995C50.4397 37.9995 50.4338 37.9983 50.4283 37.9959C50.4228 37.9936 50.418 37.9902 50.4139 37.9859L49.4851 37.0215C49.4766 37.0126 49.4719 37.0009 49.4718 36.9886C49.4718 36.9763 49.4765 36.9645 49.4849 36.9555L49.4851 36.9554ZM53.0212 36.862L53.95 35.8976C53.9541 35.8933 53.959 35.8899 53.9645 35.8876C53.9699 35.8852 53.9758 35.8841 53.9817 35.8841C53.9877 35.8841 53.9936 35.8852 53.999 35.8876C54.0045 35.8899 54.0094 35.8933 54.0135 35.8976L54.9423 36.862C54.9508 36.8709 54.9555 36.8828 54.9555 36.8951C54.9555 36.9074 54.9508 36.9192 54.9423 36.9281L54.0135 37.8926C54.0094 37.8969 54.0045 37.9003 53.999 37.9027C53.9936 37.905 53.9877 37.9061 53.9817 37.9061C53.9758 37.9061 53.9699 37.905 53.9645 37.9027C53.959 37.9003 53.9541 37.8969 53.95 37.8926L53.0212 36.9281C53.013 36.9191 53.0084 36.9074 53.0084 36.8952C53.0084 36.883 53.0129 36.8712 53.0211 36.8621L53.0212 36.862ZM56.66 36.9688L57.5886 36.0044C57.5927 36.0001 57.5976 35.9967 57.6031 35.9944C57.6086 35.992 57.6145 35.9908 57.6204 35.9908C57.6264 35.9908 57.6323 35.992 57.6377 35.9944C57.6432 35.9967 57.6481 36.0001 57.6521 36.0044L58.581 36.9688C58.5894 36.9777 58.5941 36.9896 58.5941 37.0019C58.5941 37.0142 58.5894 37.0259 58.581 37.0348L57.6521 37.9991C57.6481 38.0034 57.6432 38.0069 57.6377 38.0092C57.6322 38.0116 57.6264 38.0128 57.6204 38.0128C57.6145 38.0128 57.6086 38.0116 57.6031 38.0092C57.5976 38.0069 57.5927 38.0034 57.5886 37.9991L56.66 37.0348C56.6516 37.0259 56.647 37.0141 56.6469 37.0019C56.6469 36.9897 56.6516 36.9779 56.6599 36.9689L56.66 36.9688ZM58.3894 38.927L59.3182 37.9625C59.3223 37.9582 59.3272 37.9548 59.3327 37.9525C59.3381 37.9501 59.344 37.9489 59.35 37.9489C59.3559 37.9489 59.3618 37.9501 59.3672 37.9525C59.3727 37.9548 59.3776 37.9582 59.3817 37.9625L60.3105 38.927C60.319 38.9359 60.3237 38.9477 60.3237 38.96C60.3237 38.9722 60.319 38.984 60.3105 38.9929L59.3817 39.9573C59.3776 39.9616 59.3727 39.9651 59.3673 39.9674C59.3618 39.9698 59.3559 39.9709 59.35 39.9709C59.344 39.9709 59.3381 39.9698 59.3327 39.9674C59.3272 39.9651 59.3223 39.9616 59.3182 39.9573L58.3894 38.9929C58.3811 38.984 58.3765 38.9723 58.3764 38.9601C58.3764 38.9479 58.381 38.9361 58.3893 38.9271L58.3894 38.927ZM47.6273 38.9535L48.556 37.9892C48.5601 37.9849 48.565 37.9815 48.5705 37.9792C48.576 37.9768 48.5819 37.9756 48.5878 37.9756C48.5937 37.9756 48.5996 37.9768 48.605 37.9792C48.6105 37.9815 48.6154 37.9849 48.6195 37.9892L49.5483 38.9535C49.5568 38.9624 49.5615 38.9742 49.5615 38.9865C49.5615 38.9988 49.5568 39.0106 49.5483 39.0195L48.6195 39.984C48.6154 39.9883 48.6105 39.9917 48.605 39.994C48.5996 39.9964 48.5937 39.9976 48.5878 39.9976C48.5819 39.9976 48.576 39.9964 48.5705 39.994C48.565 39.9917 48.5601 39.9883 48.556 39.984L47.6273 39.0195C47.619 39.0104 47.6144 38.9988 47.6144 38.9865C47.6144 38.9743 47.619 38.9625 47.6273 38.9535ZM50.9365 38.9706L52.1224 37.7391C52.1277 37.7337 52.134 37.7292 52.141 37.7263C52.1479 37.7233 52.1554 37.7219 52.163 37.7219C52.1705 37.7219 52.178 37.7233 52.185 37.7263C52.192 37.7292 52.1982 37.7337 52.2035 37.7391L53.3895 38.9706C53.4003 38.982 53.4063 38.9971 53.4063 39.0128C53.4063 39.0285 53.4003 39.0435 53.3895 39.0549L52.2035 40.2863C52.1983 40.2918 52.192 40.2962 52.185 40.2992C52.1781 40.3022 52.1705 40.3038 52.163 40.3038C52.1554 40.3038 52.1479 40.3022 52.1409 40.2992C52.134 40.2962 52.1276 40.2918 52.1224 40.2863L50.9365 39.0549C50.9257 39.0435 50.9197 39.0285 50.9197 39.0128C50.9196 38.9971 50.9258 38.982 50.9365 38.9706ZM54.5365 38.9176L55.7225 37.6858C55.7277 37.6803 55.7341 37.676 55.741 37.673C55.748 37.67 55.7556 37.6685 55.7632 37.6685C55.7708 37.6685 55.7784 37.67 55.7854 37.673C55.7924 37.676 55.7987 37.6803 55.8039 37.6858L56.9898 38.9176C57.0006 38.929 57.0066 38.9439 57.0066 38.9596C57.0066 38.9753 57.0006 38.9904 56.9898 39.0017L55.8039 40.2333C55.7986 40.2387 55.7923 40.2431 55.7853 40.2461C55.7783 40.249 55.7708 40.2505 55.7632 40.2505C55.7556 40.2505 55.748 40.249 55.741 40.2461C55.7341 40.2431 55.7278 40.2387 55.7225 40.2333L54.5365 39.0017C54.5258 38.9904 54.5198 38.9753 54.5198 38.9596C54.5198 38.9439 54.5258 38.929 54.5365 38.9176ZM52.5024 40.9361L53.8834 39.5024C53.8895 39.4959 53.8968 39.4908 53.9049 39.4873C53.913 39.4838 53.9218 39.4819 53.9307 39.4819C53.9395 39.4819 53.9483 39.4838 53.9564 39.4873C53.9645 39.4908 53.9719 39.4959 53.978 39.5024L55.3587 40.9361C55.3712 40.9494 55.3782 40.9668 55.3782 40.9851C55.3782 41.0034 55.3712 41.021 55.3587 41.0342L53.978 42.4679C53.9719 42.4743 53.9645 42.4794 53.9564 42.4829C53.9483 42.4864 53.9395 42.4882 53.9307 42.4882C53.9218 42.4882 53.9131 42.4864 53.905 42.4829C53.8969 42.4794 53.8895 42.4743 53.8834 42.4679L52.5024 41.0342C52.4898 41.021 52.4828 41.0034 52.4828 40.9851C52.4828 40.9668 52.4899 40.9494 52.5024 40.9361ZM54.2702 42.9876L55.6512 41.553C55.6573 41.5466 55.6647 41.5415 55.6728 41.5381C55.6809 41.5346 55.6896 41.5328 55.6985 41.5328C55.7073 41.5328 55.7161 41.5346 55.7242 41.5381C55.7324 41.5415 55.7397 41.5466 55.7458 41.553L57.1267 42.9876C57.1393 43.0008 57.1463 43.0185 57.1463 43.0367C57.1463 43.055 57.1393 43.0724 57.1267 43.0857L55.7458 44.5203C55.7397 44.5267 55.7324 44.5317 55.7242 44.5352C55.7161 44.5387 55.7073 44.5406 55.6985 44.5406C55.6896 44.5406 55.6809 44.5387 55.6728 44.5352C55.6647 44.5317 55.6573 44.5267 55.6512 44.5203L54.2702 43.0857C54.2578 43.0724 54.2508 43.0549 54.2508 43.0367C54.2508 43.0185 54.2578 43.0009 54.2702 42.9876ZM56.3048 40.942L57.4908 39.7105C57.496 39.705 57.5023 39.7006 57.5093 39.6977C57.5163 39.6947 57.5238 39.6931 57.5313 39.6931C57.5389 39.6931 57.5464 39.6947 57.5534 39.6977C57.5603 39.7006 57.5666 39.705 57.5719 39.7105L58.7581 40.942C58.7688 40.9535 58.7748 40.9686 58.7748 40.9843C58.7748 40.9999 58.7688 41.0149 58.7581 41.0264L57.5719 42.2576C57.5667 42.2631 57.5604 42.2676 57.5534 42.2706C57.5464 42.2736 57.5389 42.2752 57.5313 42.2752C57.5237 42.2752 57.5162 42.2736 57.5092 42.2706C57.5023 42.2676 57.496 42.2631 57.4908 42.2576L56.3048 41.0264C56.294 41.015 56.2879 41 56.2879 40.9843C56.2879 40.9686 56.2939 40.9535 56.3047 40.9421L56.3048 40.942ZM49.117 40.955L50.3032 39.7239C50.3084 39.7183 50.3147 39.714 50.3217 39.711C50.3286 39.7079 50.3362 39.7063 50.3438 39.7063C50.3514 39.7063 50.3589 39.7079 50.3659 39.711C50.3728 39.714 50.3791 39.7183 50.3843 39.7239L51.5702 40.955C51.581 40.9664 51.5871 40.9816 51.5871 40.9973C51.5871 41.013 51.581 41.0282 51.5702 41.0396L50.3843 42.2711C50.3791 42.2766 50.3728 42.2809 50.3658 42.2839C50.3588 42.2869 50.3513 42.2885 50.3438 42.2885C50.3362 42.2885 50.3287 42.2869 50.3217 42.2839C50.3148 42.2809 50.3085 42.2766 50.3032 42.2711L49.117 41.0396C49.1062 41.0282 49.1002 41.0131 49.1002 40.9974C49.1001 40.9818 49.1061 40.9667 49.1169 40.9553L49.117 40.955ZM50.7085 42.9473L52.0894 41.5136C52.0956 41.5073 52.1029 41.5022 52.1111 41.4988C52.1192 41.4953 52.1279 41.4935 52.1367 41.4935C52.1456 41.4935 52.1543 41.4953 52.1624 41.4988C52.1705 41.5022 52.1778 41.5073 52.184 41.5136L53.565 42.9473C53.5774 42.9606 53.5844 42.9781 53.5844 42.9964C53.5844 43.0146 53.5774 43.0322 53.565 43.0454L52.184 44.4799C52.1778 44.4863 52.1705 44.4913 52.1624 44.4948C52.1543 44.4982 52.1456 44.5 52.1367 44.5C52.1279 44.5 52.1192 44.4982 52.1111 44.4948C52.1029 44.4913 52.0956 44.4863 52.0894 44.4799L50.7085 43.0454C50.6962 43.0322 50.6894 43.0147 50.6894 42.9966C50.6894 42.9785 50.6962 42.961 50.7085 42.9477V42.9473ZM55.522 45.0317L53.9088 43.3568C53.9017 43.3493 53.8931 43.3434 53.8837 43.3393C53.8742 43.3352 53.8639 43.3332 53.8536 43.3332C53.8433 43.3332 53.8331 43.3352 53.8236 43.3393C53.8141 43.3434 53.8055 43.3493 53.7984 43.3568L52.1851 45.0317C52.1705 45.0472 52.1624 45.0678 52.1624 45.0891C52.1624 45.1105 52.1705 45.1311 52.1851 45.1466L53.7984 46.8218C53.8056 46.8292 53.8142 46.835 53.8237 46.839C53.8332 46.843 53.8433 46.8451 53.8536 46.8451C53.8639 46.8451 53.8741 46.843 53.8836 46.839C53.8931 46.835 53.9017 46.8292 53.9088 46.8218L55.522 45.1466C55.5367 45.1311 55.5449 45.1104 55.5449 45.089C55.5448 45.0676 55.5366 45.047 55.5219 45.0314L55.522 45.0317ZM62.6523 33.9676H64.1771V34.0182C64.1 34.0112 64.0228 34.0303 63.958 34.0727C63.9165 34.1423 63.8996 34.224 63.91 34.3044V35.3277C63.9015 35.4513 63.913 35.5755 63.944 35.6955C63.967 35.7419 64.0404 35.7658 64.1647 35.7658V36.3473H64.1184C64.0988 36.2307 64.0539 36.1199 63.987 36.0224C63.9366 35.9479 63.8649 35.8904 63.7812 35.8574C63.6923 35.8278 63.599 35.8137 63.5053 35.8159H63.0336C62.9502 35.8087 62.8663 35.82 62.7877 35.8489C62.7092 35.8778 62.6379 35.9236 62.5791 35.9831C62.4872 36.0852 62.4269 36.2116 62.4055 36.3473H62.3591V35.7658C62.4361 35.7559 62.5094 35.7264 62.5718 35.6803C62.6343 35.6342 62.6841 35.573 62.7163 35.5024C62.8158 35.3161 62.8804 35.1133 62.9069 34.9038C62.9386 34.7111 62.9564 34.5163 62.9602 34.321C62.9644 34.2525 62.9528 34.1839 62.9262 34.1206C62.9104 34.0846 62.8815 34.056 62.8454 34.0405C62.7821 34.0255 62.7172 34.0181 62.6522 34.0186V33.9681L62.6523 33.9676ZM63.0965 34.0682C63.0935 34.4497 63.0502 34.8299 62.9673 35.2023C62.919 35.3892 62.8317 35.5638 62.7112 35.7144H63.3952C63.4696 35.7233 63.5451 35.7122 63.6138 35.6823C63.6383 35.6608 63.6506 35.5923 63.6506 35.475V34.0682H63.0965ZM59.0265 34.8245H59.8848V34.2959C59.8883 34.2331 59.8824 34.1701 59.8671 34.1091C59.8553 34.0837 59.8351 34.0631 59.81 34.0507C59.7722 34.0293 59.7294 34.0181 59.6859 34.0181H59.6206V33.9675H60.4108V34.0181H60.3453C60.3021 34.018 60.2596 34.0287 60.2217 34.0494C60.2079 34.0558 60.1955 34.0648 60.1852 34.0762C60.175 34.0875 60.1672 34.1009 60.1622 34.1153C60.1487 34.1745 60.1435 34.2353 60.1466 34.2959V35.4884C60.1429 35.5507 60.1489 35.6133 60.1643 35.6737C60.1756 35.6991 60.1953 35.7197 60.2201 35.7322C60.2583 35.7538 60.3014 35.7653 60.3453 35.7654H60.4108V35.8155H59.6206V35.7654H59.6859C59.7168 35.7681 59.7478 35.7633 59.7765 35.7517C59.8052 35.74 59.8307 35.7217 59.851 35.6983C59.881 35.6327 59.8926 35.5602 59.8848 35.4885V34.9256H59.0265V35.4885C59.023 35.5508 59.0289 35.6133 59.0442 35.6738C59.0561 35.6994 59.0765 35.72 59.1019 35.7323C59.1396 35.754 59.1823 35.7656 59.2257 35.7656H59.2926V35.8156H58.5011V35.7656H58.5661C58.5972 35.7682 58.6284 35.7634 58.6573 35.7518C58.6863 35.7401 58.7121 35.7219 58.7326 35.6984C58.7613 35.6324 58.7726 35.5602 58.7652 35.4886V34.296C58.7686 34.2333 58.7627 34.1703 58.7476 34.1093C58.736 34.0841 58.7162 34.0635 58.6915 34.0508C58.6531 34.0294 58.6099 34.0182 58.566 34.0182H58.501V33.9677H59.2926V34.0182H59.2257C59.1825 34.018 59.1399 34.0288 59.1019 34.0496C59.0883 34.0562 59.0761 34.0654 59.0661 34.0767C59.056 34.088 59.0483 34.1012 59.0433 34.1154C59.0289 34.1745 59.0232 34.2353 59.0265 34.296V34.8245ZM55.8591 35.1968H55.1437L55.0185 35.4884C54.9931 35.5386 54.9774 35.5932 54.972 35.6493C54.9725 35.6638 54.9764 35.6781 54.9833 35.6909C54.9903 35.7036 55.0001 35.7145 55.0121 35.7228C55.0654 35.7517 55.1252 35.7662 55.1858 35.7648V35.815H54.604V35.7648C54.6576 35.7599 54.7091 35.7415 54.7537 35.7113C54.8211 35.6331 54.8733 35.5431 54.9076 35.4457L55.5574 33.9253H55.6048L56.2483 35.4622C56.2784 35.551 56.3264 35.6328 56.3891 35.7026C56.4394 35.7424 56.5015 35.7643 56.5657 35.765V35.8151H55.8366V35.765C55.8888 35.7671 55.9406 35.7543 55.9859 35.7282C55.998 35.7195 56.0078 35.7081 56.0147 35.6948C56.0215 35.6815 56.025 35.6668 56.025 35.6519C56.0178 35.5861 55.9992 35.5221 55.97 35.4626L55.8583 35.197L55.8591 35.1968ZM55.8209 35.0957L55.5073 34.3493L55.1858 35.0957H55.8209ZM52.3299 34.8726C52.436 34.8892 52.5356 34.9344 52.6179 35.0033C52.6603 35.0422 52.694 35.0896 52.7168 35.1424C52.7396 35.1953 52.7509 35.2523 52.75 35.3098C52.7489 35.4047 52.7183 35.4969 52.6624 35.5735C52.6038 35.6582 52.5202 35.7225 52.4233 35.7574C52.2732 35.8029 52.1165 35.8226 51.9598 35.8156H51.0873V35.7654H51.1567C51.1884 35.7684 51.2203 35.7631 51.2494 35.7502C51.2784 35.7374 51.3037 35.7173 51.3228 35.6918C51.3499 35.6279 51.3608 35.5581 51.3544 35.489V34.2952C51.3635 34.2207 51.3496 34.1451 51.3148 34.0787C51.2944 34.0578 51.2697 34.0416 51.2424 34.0313C51.2151 34.0209 51.1859 34.0167 51.1567 34.0188H51.0873V33.9683H51.8856C52.006 33.9656 52.1264 33.9766 52.2443 34.0012C52.3641 34.0244 52.4735 34.0852 52.5564 34.1747C52.6264 34.2538 52.6647 34.3561 52.6636 34.4617C52.6646 34.5518 52.6349 34.6396 52.5794 34.7106C52.5148 34.789 52.4277 34.8458 52.3298 34.8732L52.3299 34.8726ZM51.6158 34.7989C51.654 34.8059 51.6926 34.8108 51.7313 34.8135C51.7746 34.8166 51.8219 34.8178 51.8735 34.8178C51.9751 34.823 52.0767 34.8086 52.1727 34.7752C52.2368 34.7491 52.2907 34.7029 52.3262 34.6435C52.3615 34.5852 52.3799 34.5182 52.3793 34.45C52.3794 34.397 52.3675 34.3446 52.3446 34.2967C52.3217 34.2489 52.2883 34.2069 52.2469 34.1738C52.1365 34.0903 51.9996 34.0496 51.8615 34.0592C51.7788 34.0581 51.6963 34.0681 51.6163 34.089L51.6158 34.7989ZM51.6158 35.6818C51.7181 35.7059 51.8228 35.7182 51.9279 35.7185C52.0625 35.7277 52.1961 35.6884 52.3042 35.6075C52.3451 35.5745 52.378 35.5326 52.4003 35.485C52.4227 35.4375 52.434 35.3855 52.4334 35.333C52.433 35.2599 52.4128 35.1883 52.3748 35.1259C52.3297 35.0546 52.2629 34.9998 52.1842 34.9694C52.0802 34.9284 51.969 34.9089 51.8573 34.9122C51.8009 34.9122 51.7524 34.9132 51.7124 34.9146C51.68 34.9155 51.6476 34.9188 51.6156 34.9244L51.6158 35.6818ZM48.2056 34.9501V35.4884C48.1965 35.5629 48.2099 35.6384 48.2441 35.7052C48.2641 35.7262 48.2884 35.7424 48.3155 35.7528C48.3425 35.7631 48.3714 35.7675 48.4003 35.7653H48.4715V35.8154H47.6797V35.7653H47.7491C47.7812 35.7682 47.8136 35.7627 47.8429 35.7493C47.8722 35.7359 47.8976 35.7152 47.9165 35.6891C47.9406 35.6251 47.95 35.5565 47.944 35.4884V34.2945C47.953 34.2203 47.9402 34.1451 47.9071 34.0781C47.8868 34.0571 47.8621 34.0409 47.8348 34.0306C47.8075 34.0202 47.7782 34.0161 47.7491 34.0182H47.6797V33.9676H48.357C48.4892 33.963 48.6213 33.9802 48.7479 34.0187C48.8429 34.0524 48.9266 34.1121 48.9893 34.191C49.0549 34.2723 49.0896 34.3742 49.0874 34.4786C49.0899 34.547 49.0779 34.6152 49.0521 34.6786C49.0264 34.742 48.9875 34.7992 48.938 34.8465C48.8213 34.9471 48.6699 34.998 48.5161 34.9883C48.4679 34.988 48.4197 34.9849 48.372 34.9786C48.3202 34.972 48.2646 34.9627 48.2055 34.9499L48.2056 34.9501ZM48.2056 34.8724C48.2538 34.8814 48.2968 34.8883 48.3337 34.8929C48.3653 34.8969 48.3971 34.8991 48.429 34.8996C48.4754 34.8999 48.5213 34.8902 48.5636 34.8711C48.6059 34.8521 48.6436 34.8241 48.6742 34.7892C48.7443 34.7117 48.7813 34.6099 48.7771 34.5054C48.7776 34.4285 48.7609 34.3523 48.7281 34.2827C48.6989 34.2182 48.6503 34.1644 48.589 34.1289C48.5265 34.0939 48.4558 34.0762 48.3841 34.0775C48.3238 34.0794 48.264 34.088 48.2056 34.1031V34.872V34.8724ZM45.0392 35.1967H44.3239L44.1987 35.4883C44.1733 35.5385 44.1575 35.5932 44.1521 35.6493C44.1526 35.6638 44.1566 35.6781 44.1635 35.6909C44.1705 35.7036 44.1803 35.7145 44.1922 35.7228C44.2455 35.7517 44.3054 35.7662 44.366 35.7648V35.815H43.7842V35.7648C43.8378 35.76 43.8894 35.7416 43.9339 35.7113C44.0013 35.6332 44.0534 35.5432 44.0877 35.4459L44.7375 33.9254H44.785L45.4283 35.4623C45.4586 35.5511 45.5065 35.6328 45.5692 35.7027C45.6195 35.7425 45.6816 35.7644 45.7457 35.7651V35.8153H45.0167V35.7651C45.0689 35.7671 45.1206 35.7544 45.1659 35.7283C45.178 35.7196 45.1879 35.7082 45.1947 35.6949C45.2015 35.6817 45.205 35.667 45.205 35.6521C45.1978 35.5862 45.1793 35.5222 45.1501 35.4627L45.0392 35.1967ZM45.0011 35.0957L44.6875 34.3493L44.3661 35.0957H45.0011ZM46.1381 32.929L46.706 32.339C46.7085 32.3364 46.7116 32.3342 46.7149 32.3328C46.7182 32.3313 46.7219 32.3306 46.7255 32.3306C46.7291 32.3306 46.7327 32.3313 46.736 32.3328C46.7394 32.3342 46.7424 32.3364 46.7449 32.339L47.313 32.9291C47.3182 32.9344 47.321 32.9416 47.321 32.9491C47.321 32.9565 47.3182 32.9637 47.313 32.9691L46.7449 33.5593C46.7424 33.5619 46.7394 33.5639 46.736 33.5654C46.7327 33.5668 46.7291 33.5676 46.7255 33.5676C46.7219 33.5676 46.7182 33.5668 46.7149 33.5654C46.7116 33.5639 46.7085 33.5619 46.706 33.5593L46.1381 32.9692C46.1355 32.9665 46.1333 32.9634 46.1319 32.96C46.1305 32.9565 46.1297 32.9527 46.1297 32.949C46.1297 32.9452 46.1305 32.9415 46.1319 32.9381C46.1333 32.9346 46.1355 32.9314 46.1381 32.9287V32.929ZM60.6266 32.9821L61.1946 32.3923C61.197 32.3896 61.2001 32.3875 61.2034 32.3861C61.2068 32.3846 61.2104 32.3839 61.214 32.3839C61.2177 32.3839 61.2212 32.3846 61.2245 32.3861C61.2279 32.3875 61.2309 32.3896 61.2334 32.3923L61.8016 32.9821C61.8068 32.9876 61.8096 32.9947 61.8096 33.0022C61.8096 33.0097 61.8068 33.017 61.8016 33.0225L61.2334 33.6122C61.2309 33.6148 61.2279 33.6169 61.2245 33.6183C61.2212 33.6197 61.2176 33.6206 61.214 33.6206C61.2104 33.6206 61.2068 33.6197 61.2034 33.6183C61.2001 33.6169 61.1971 33.6148 61.1946 33.6122L60.6266 33.0225C60.6214 33.017 60.6185 33.0097 60.6185 33.0021C60.6185 32.9945 60.6214 32.9873 60.6266 32.9818V32.9821ZM49.4849 32.9085L50.4133 31.9445C50.4174 31.9401 50.4224 31.9365 50.4279 31.9342C50.4334 31.9318 50.4393 31.9306 50.4452 31.9306C50.4512 31.9306 50.4571 31.9318 50.4626 31.9342C50.4681 31.9365 50.473 31.9401 50.4771 31.9445L51.4059 32.9085C51.4141 32.9175 51.4187 32.9293 51.4187 32.9415C51.4187 32.9538 51.4141 32.9655 51.4059 32.9746L50.4771 33.9388C50.473 33.9431 50.468 33.9466 50.4625 33.9489C50.4571 33.9512 50.4512 33.9524 50.4452 33.9524C50.4393 33.9524 50.4334 33.9512 50.4279 33.9489C50.4224 33.9466 50.4175 33.9431 50.4133 33.9388L49.4849 32.9746C49.4765 32.9657 49.4717 32.9539 49.4717 32.9416C49.4717 32.9294 49.4765 32.9174 49.4849 32.9085ZM53.0211 33.002L53.9499 32.0374C53.954 32.0331 53.9588 32.0296 53.9643 32.0272C53.9698 32.0248 53.9757 32.0236 53.9816 32.0236C53.9876 32.0236 53.9935 32.0248 53.9989 32.0272C54.0044 32.0296 54.0093 32.0331 54.0134 32.0374L54.9422 33.002C54.9506 33.0109 54.9554 33.0226 54.9554 33.0349C54.9554 33.0472 54.9506 33.0591 54.9422 33.068L54.0134 34.0321C54.0093 34.0364 54.0044 34.0398 53.9989 34.0422C53.9935 34.0445 53.9875 34.0458 53.9816 34.0458C53.9757 34.0458 53.9698 34.0445 53.9644 34.0422C53.9589 34.0398 53.954 34.0364 53.9499 34.0321L53.0211 33.068C53.0126 33.0591 53.0078 33.0472 53.0078 33.0349C53.0078 33.0226 53.0126 33.0109 53.0211 33.002ZM56.6597 32.8954L57.5885 31.9309C57.5926 31.9266 57.5975 31.9232 57.603 31.9209C57.6084 31.9185 57.6144 31.9173 57.6203 31.9173C57.6262 31.9173 57.6321 31.9185 57.6375 31.9209C57.643 31.9232 57.6479 31.9266 57.652 31.9309L58.5808 32.8954C58.5892 32.9044 58.5938 32.9161 58.5938 32.9284C58.5938 32.9406 58.5892 32.9524 58.5808 32.9613L57.652 33.9257C57.6479 33.93 57.643 33.9334 57.6375 33.9357C57.6321 33.9381 57.6262 33.9393 57.6203 33.9393C57.6144 33.9393 57.6084 33.9381 57.603 33.9357C57.5975 33.9334 57.5926 33.93 57.5885 33.9257L56.6597 32.9613C56.6513 32.9524 56.6465 32.9406 56.6465 32.9284C56.6465 32.9161 56.6513 32.9043 56.6597 32.8954ZM58.3893 30.9371L59.3181 29.9728C59.3222 29.9686 59.3271 29.9651 59.3326 29.9628C59.338 29.9605 59.3439 29.9592 59.3499 29.9592C59.3558 29.9592 59.3616 29.9605 59.3671 29.9628C59.3726 29.9651 59.3775 29.9686 59.3816 29.9728L60.3103 30.9371C60.3186 30.9461 60.3233 30.9579 60.3233 30.9702C60.3233 30.9824 60.3186 30.9941 60.3103 31.0031L59.3816 31.9673C59.3775 31.9717 59.3726 31.9752 59.3672 31.9776C59.3617 31.98 59.3558 31.9812 59.3499 31.9812C59.3439 31.9812 59.338 31.98 59.3325 31.9776C59.327 31.9752 59.3221 31.9717 59.3181 31.9673L58.3893 31.0031C58.3809 30.9942 58.3761 30.9824 58.3761 30.9702C58.3761 30.9579 58.3809 30.946 58.3893 30.9371ZM47.6271 30.9103L48.5559 29.9461C48.56 29.9418 48.5649 29.9384 48.5704 29.9361C48.5758 29.9337 48.5817 29.9325 48.5877 29.9325C48.5936 29.9325 48.5995 29.9337 48.6049 29.9361C48.6104 29.9384 48.6153 29.9418 48.6194 29.9461L49.5481 30.9103C49.5566 30.9192 49.5613 30.931 49.5613 30.9433C49.5613 30.9556 49.5566 30.9675 49.5481 30.9764L48.6194 31.9408C48.6153 31.9451 48.6104 31.9486 48.6049 31.9509C48.5995 31.9533 48.5936 31.9544 48.5877 31.9544C48.5817 31.9544 48.5758 31.9533 48.5704 31.9509C48.5649 31.9486 48.56 31.9451 48.5559 31.9408L47.6271 30.9764C47.6187 30.9675 47.614 30.9557 47.614 30.9434C47.614 30.9312 47.6187 30.9192 47.6271 30.9103ZM50.9361 30.8751L52.1221 29.6434C52.1273 29.6379 52.1336 29.6336 52.1406 29.6306C52.1476 29.6276 52.1551 29.6261 52.1627 29.6261C52.1703 29.6261 52.1778 29.6276 52.1848 29.6306C52.1918 29.6336 52.1981 29.6379 52.2034 29.6434L53.3894 30.8751C53.4001 30.8865 53.4061 30.9016 53.4061 30.9172C53.4061 30.9329 53.4001 30.948 53.3894 30.9594L52.2034 32.1909C52.1981 32.1964 52.1918 32.2007 52.1848 32.2037C52.1778 32.2067 52.1703 32.2083 52.1627 32.2083C52.1551 32.2083 52.1476 32.2067 52.1406 32.2037C52.1336 32.2007 52.1273 32.1964 52.1221 32.1909L50.9361 30.9594C50.9253 30.948 50.9194 30.933 50.9194 30.9173C50.9194 30.9017 50.9253 30.8865 50.9361 30.8751ZM54.5364 30.9284L55.7224 29.6967C55.7276 29.6913 55.7339 29.6869 55.7409 29.6839C55.7478 29.6809 55.7554 29.6794 55.763 29.6794C55.7705 29.6794 55.778 29.6809 55.785 29.6839C55.792 29.6869 55.7982 29.6913 55.8035 29.6967L56.9897 30.9284C57.0004 30.9397 57.0064 30.9548 57.0064 30.9704C57.0064 30.986 57.0004 31.001 56.9897 31.0124L55.8035 32.2441C55.7983 32.2496 55.792 32.254 55.7851 32.257C55.7781 32.26 55.7706 32.2615 55.763 32.2615C55.7554 32.2615 55.7478 32.26 55.7409 32.257C55.7339 32.254 55.7276 32.2496 55.7224 32.2441L54.5364 31.0124C54.5257 31.001 54.5197 30.986 54.5197 30.9704C54.5197 30.9548 54.5257 30.9397 54.5364 30.9284ZM52.5023 28.8957L53.8831 27.4619C53.8892 27.4555 53.8965 27.4504 53.9046 27.447C53.9127 27.4435 53.9215 27.4417 53.9303 27.4417C53.9391 27.4417 53.9479 27.4435 53.956 27.447C53.9642 27.4504 53.9715 27.4555 53.9776 27.4619L55.3585 28.8957C55.3711 28.9089 55.3781 28.9264 55.3781 28.9447C55.3781 28.9629 55.3711 28.9805 55.3585 28.9937L53.9776 30.4275C53.9715 30.434 53.9642 30.4391 53.956 30.4426C53.9479 30.4461 53.9392 30.448 53.9303 30.448C53.9214 30.448 53.9127 30.4461 53.9046 30.4426C53.8964 30.4391 53.8891 30.434 53.8831 30.4275L52.5023 28.9937C52.4897 28.9805 52.4827 28.963 52.4827 28.9448C52.4827 28.9265 52.4898 28.9089 52.5023 28.8957ZM54.2702 26.8443L55.6512 25.4098C55.6574 25.4035 55.6647 25.3983 55.6728 25.3949C55.6809 25.3914 55.6897 25.3896 55.6985 25.3896C55.7073 25.3896 55.7161 25.3914 55.7242 25.3949C55.7323 25.3983 55.7397 25.4035 55.7458 25.4098L57.1267 26.8443C57.1393 26.8576 57.1463 26.8752 57.1463 26.8934C57.1463 26.9116 57.1393 26.9292 57.1267 26.9425L55.7458 28.377C55.7397 28.3833 55.7323 28.3885 55.7242 28.3919C55.7161 28.3954 55.7073 28.3972 55.6985 28.3972C55.6897 28.3972 55.6809 28.3954 55.6728 28.3919C55.6647 28.3885 55.6574 28.3833 55.6512 28.377L54.2702 26.9425C54.2577 26.9292 54.2508 26.9116 54.2508 26.8934C54.2508 26.8752 54.2577 26.8576 54.2702 26.8443ZM56.3048 28.9043L57.4907 27.6727C57.4959 27.6671 57.5021 27.6628 57.5091 27.6597C57.5161 27.6567 57.5236 27.6551 57.5312 27.6551C57.5388 27.6551 57.5463 27.6567 57.5533 27.6597C57.5603 27.6628 57.5666 27.6671 57.5717 27.6727L58.7577 28.9043C58.7685 28.9157 58.7745 28.9307 58.7745 28.9463C58.7745 28.962 58.7685 28.9771 58.7577 28.9885L57.5717 30.22C57.5665 30.2255 57.5602 30.2298 57.5532 30.2328C57.5463 30.2358 57.5388 30.2373 57.5312 30.2373C57.5236 30.2373 57.5161 30.2358 57.5092 30.2328C57.5022 30.2298 57.4959 30.2255 57.4907 30.22L56.3048 28.9885C56.2939 28.9771 56.2877 28.9619 56.2877 28.9461C56.2877 28.9303 56.2938 28.9151 56.3047 28.9037L56.3048 28.9043ZM49.117 28.8908L50.3032 27.6593C50.3085 27.6538 50.3148 27.6494 50.3217 27.6464C50.3287 27.6435 50.3362 27.642 50.3438 27.642C50.3513 27.642 50.3588 27.6435 50.3658 27.6464C50.3728 27.6494 50.3791 27.6538 50.3843 27.6593L51.5702 28.8908C51.581 28.9022 51.587 28.9172 51.587 28.9329C51.587 28.9486 51.581 28.9637 51.5702 28.9751L50.3843 30.2063C50.3791 30.2119 50.3728 30.2164 50.3659 30.2194C50.3589 30.2224 50.3514 30.2241 50.3438 30.2241C50.3362 30.2241 50.3286 30.2224 50.3217 30.2194C50.3147 30.2164 50.3084 30.2119 50.3032 30.2063L49.117 28.9751C49.106 28.9637 49.0998 28.9485 49.0998 28.9327C49.0998 28.9168 49.1059 28.9016 49.1169 28.8902L49.117 28.8908ZM50.7085 26.8849L52.0894 25.4512C52.0955 25.4447 52.1029 25.4396 52.111 25.4361C52.1191 25.4326 52.1279 25.4307 52.1367 25.4307C52.1456 25.4307 52.1544 25.4326 52.1625 25.4361C52.1706 25.4396 52.1779 25.4447 52.184 25.4512L53.5647 26.8849C53.5773 26.8981 53.5843 26.9157 53.5843 26.934C53.5843 26.9522 53.5773 26.9697 53.5647 26.983L52.184 28.4168C52.1779 28.4232 52.1705 28.4283 52.1624 28.4318C52.1543 28.4353 52.1456 28.4371 52.1367 28.4371C52.1279 28.4371 52.1192 28.4353 52.1111 28.4318C52.1029 28.4283 52.0955 28.4232 52.0894 28.4168L50.7085 26.983C50.6958 26.9697 50.6887 26.952 50.6887 26.9336C50.6887 26.9153 50.6958 26.8976 50.7085 26.8843V26.8849Z" fill="white" stroke="white" stroke-width="0.245225" mask="url(#path-48-inside-1_1_11630)"/>
<circle cx="54.0863" cy="35.0851" r="14.766" stroke="white" stroke-width="0.595745"/>
<circle cx="54" cy="35" r="15.8298" stroke="white" stroke-width="0.340426"/>
<defs>
<filter id="filter0_d_1_11630" x="0.171428" y="0.171428" width="107.657" height="69.6571" filterUnits="userSpaceOnUse" color-interpolation-filters="sRGB">
<feFlood flood-opacity="0" result="BackgroundImageFix"/>
<feColorMatrix in="SourceAlpha" type="matrix" values="0 0 0 0 0 0 0 0 0 0 0 0 0 0 0 0 0 0 127 0" result="hardAlpha"/>
<feOffset/>
<feGaussianBlur stdDeviation="1.91429"/>
<feComposite in2="hardAlpha" operator="out"/>
<feColorMatrix type="matrix" values="0 0 0 0 0 0 0 0 0 0 0 0 0 0 0 0 0 0 0.3 0"/>
<feBlend mode="normal" in2="BackgroundImageFix" result="effect1_dropShadow_1_11630"/>
<feBlend mode="normal" in="SourceGraphic" in2="effect1_dropShadow_1_11630" result="shape"/>
</filter>
</defs>
</svg>
