<svg width="36" height="36" viewBox="0 0 36 36" fill="none" xmlns="http://www.w3.org/2000/svg">
<path fill-rule="evenodd" clip-rule="evenodd" d="M10.1403 3.00156H25.8597C26.1973 2.9918 26.5334 3.04884 26.8489 3.16941C27.1645 3.28999 27.4531 3.47173 27.6984 3.70423C27.9436 3.93673 28.1407 4.21541 28.2782 4.52431C28.4158 4.83322 28.4912 5.16627 28.5 5.50439V30.4961C28.4911 30.8342 28.4158 31.1673 28.2782 31.4762C28.1406 31.7851 27.9436 32.0637 27.6983 32.2962C27.4531 32.5287 27.1644 32.7105 26.8489 32.8311C26.5334 32.9516 26.1973 33.0087 25.8597 32.999H10.1403C9.80273 33.0087 9.46656 32.9517 9.15105 32.8311C8.83554 32.7105 8.54688 32.5288 8.30162 32.2963C8.05635 32.0638 7.85929 31.7851 7.72173 31.4762C7.58418 31.1673 7.50883 30.8342 7.5 30.4961V5.50392C7.50885 5.1658 7.58422 4.83276 7.72178 4.52387C7.85935 4.21497 8.0564 3.9363 8.30166 3.70381C8.54693 3.47131 8.83558 3.28957 9.15108 3.16898C9.46658 3.0484 9.80273 2.99182 10.1403 3.00156Z" fill="white"/>
<path fill-rule="evenodd" clip-rule="evenodd" d="M11.9365 24.9884V25.1312C11.9485 25.1568 11.9691 25.1774 11.9946 25.1894C12.0141 25.1858 12.0343 25.1877 12.0528 25.1948C12.073 25.2052 12.091 25.2195 12.1056 25.2369C12.117 25.2681 12.117 25.3023 12.1056 25.3334C12.1032 25.3477 12.097 25.361 12.0877 25.3721C12.0784 25.3832 12.0664 25.3915 12.0528 25.3964C12.0124 25.4184 11.9668 25.4293 11.9208 25.4279H11.2293C11.1821 25.4289 11.1353 25.4199 11.0919 25.4014C11.0755 25.3921 11.0622 25.378 11.0538 25.361C11.0454 25.3441 11.0423 25.325 11.0448 25.3062C11.0437 25.2902 11.0465 25.2741 11.053 25.2594C11.0594 25.2446 11.0692 25.2317 11.0817 25.2215C11.0977 25.2085 11.1155 25.1979 11.1345 25.19C11.1482 25.1852 11.1631 25.1852 11.1768 25.19C11.1995 25.176 11.2178 25.1558 11.2296 25.1318V23.1895C11.2328 23.1614 11.2328 23.133 11.2296 23.1048C11.2243 23.0923 11.2163 23.0811 11.2063 23.072C11.1962 23.0629 11.1844 23.056 11.1714 23.0519H11.1292L11.0663 23.0047C11.057 22.996 11.0498 22.9853 11.0452 22.9733C11.0406 22.9614 11.0388 22.9486 11.0399 22.9359C11.0372 22.9166 11.041 22.8969 11.0505 22.8798C11.06 22.8628 11.0748 22.8493 11.0927 22.8415C11.1335 22.8205 11.1788 22.8097 11.2247 22.81H11.9476C11.993 22.8096 12.038 22.8186 12.0797 22.8364C12.1166 22.8364 12.1325 22.8837 12.1325 22.937C12.133 22.9521 12.1299 22.9672 12.1235 22.9808C12.1171 22.9945 12.1075 23.0065 12.0955 23.0157L12.0427 23.0527H12.0004C11.9811 23.0622 11.9648 23.0769 11.9533 23.0951C11.9437 23.1258 11.9437 23.1588 11.9533 23.1895V24.0836L12.5766 23.6074L12.7562 23.4381L12.8936 23.2899C12.9478 23.2405 12.9895 23.1788 13.0151 23.11C13.0151 23.0785 12.9889 23.047 12.9365 23.0156C12.9127 23.0064 12.8921 22.9906 12.8771 22.9699C12.8621 22.9493 12.8533 22.9247 12.8519 22.8992C12.8521 22.8816 12.8571 22.8644 12.8664 22.8494C12.8757 22.8345 12.889 22.8224 12.9047 22.8146C12.9429 22.7972 12.9843 22.7882 13.0262 22.7881H13.6495C13.676 22.7953 13.6993 22.8112 13.7156 22.8333C13.7319 22.8554 13.7402 22.8823 13.7393 22.9098C13.7381 22.9245 13.7337 22.9388 13.7264 22.9516C13.7191 22.9644 13.709 22.9754 13.697 22.9839C13.6743 23.0092 13.645 23.0275 13.6124 23.0368C13.5264 23.0778 13.4492 23.1353 13.3852 23.206L13.2585 23.3436L12.7674 23.8357C12.9385 24.0096 13.0973 24.1952 13.2428 24.3912C13.3748 24.5711 13.5068 24.7775 13.6442 25.0051L13.7129 25.1109C13.741 25.1469 13.7772 25.1759 13.8185 25.1955L13.8971 25.2428C13.9166 25.2664 13.926 25.2969 13.9233 25.3275C13.9233 25.3698 13.8919 25.4016 13.8336 25.4219H13.0149C12.9641 25.4294 12.9125 25.4294 12.8617 25.4219C12.837 25.418 12.8146 25.405 12.799 25.3854C12.7834 25.3658 12.7756 25.3411 12.7773 25.3161C12.7799 25.2951 12.7869 25.2748 12.7977 25.2566C12.8085 25.2384 12.823 25.2227 12.8402 25.2103C12.8873 25.1789 12.9088 25.1521 12.9088 25.1362C12.8597 24.9561 12.7672 24.7908 12.6395 24.6548C12.5208 24.4902 12.3901 24.3346 12.2486 24.1892L11.9528 24.4115L11.9365 24.9884Z" fill="#AC8734"/>
<path fill-rule="evenodd" clip-rule="evenodd" d="M16.1524 24.1656C16.1647 23.8967 16.1006 23.6297 15.9676 23.3957C15.9137 23.2777 15.8264 23.1781 15.7165 23.1094C15.6066 23.0408 15.479 23.006 15.3494 23.0095C15.2178 23.0082 15.0889 23.0469 14.9798 23.1206C14.8776 23.199 14.793 23.2982 14.7315 23.4115C14.681 23.5144 14.642 23.6226 14.6154 23.7342C14.5691 23.8882 14.5549 24.0501 14.5737 24.2099C14.5997 24.4274 14.6677 24.6377 14.7738 24.8293C14.8287 24.9447 14.9151 25.0423 15.0231 25.1105C15.1311 25.1788 15.2562 25.215 15.3839 25.215C15.5116 25.215 15.6366 25.1788 15.7446 25.1105C15.8526 25.0423 15.939 24.9447 15.994 24.8293C16.1103 24.6061 16.1233 24.5411 16.1524 24.1656ZM14.272 25.1101C14.1362 24.9815 14.0283 24.8265 13.9547 24.6545C13.8811 24.4826 13.8435 24.2973 13.8442 24.1102C13.8394 23.9244 13.8757 23.7397 13.9506 23.5696C14.0255 23.3995 14.1371 23.2481 14.2773 23.1263C14.567 22.8661 14.9447 22.7261 15.3337 22.7348C15.7198 22.7269 16.0955 22.8604 16.3902 23.1104C16.5348 23.2328 16.6503 23.3862 16.728 23.5592C16.8057 23.7323 16.8437 23.9206 16.8392 24.1102C16.844 24.2992 16.8062 24.4868 16.7284 24.6591C16.6507 24.8313 16.535 24.9837 16.3902 25.1049C16.0918 25.3687 15.7052 25.5103 15.3073 25.5017C15.1127 25.5028 14.9194 25.4687 14.7368 25.4011C14.5634 25.3375 14.4051 25.2384 14.272 25.1101Z" fill="#AC8734"/>
<path fill-rule="evenodd" clip-rule="evenodd" d="M17.9096 24.1695C18.1061 24.1499 18.2967 24.0905 18.4696 23.9949C18.5541 23.9511 18.6253 23.8852 18.6755 23.8041C18.7257 23.7231 18.7531 23.63 18.7548 23.5346C18.759 23.4674 18.7479 23.4 18.7223 23.3376C18.6967 23.2753 18.6572 23.2196 18.6069 23.1748C18.4939 23.0828 18.351 23.0357 18.2055 23.0426H18.0578C18.0233 23.0541 17.9913 23.072 17.9635 23.0955C17.9478 23.1095 17.935 23.1266 17.9259 23.1457C17.9169 23.1648 17.9117 23.1855 17.9107 23.2066V24.1589L17.9096 24.1695ZM17.9096 24.9948V25.127L17.941 25.1694L18.0353 25.2117C18.0536 25.2117 18.0716 25.2166 18.0874 25.2259C18.1032 25.2352 18.1162 25.2486 18.1251 25.2646C18.13 25.2763 18.1326 25.2889 18.1326 25.3017C18.1326 25.3144 18.13 25.327 18.1251 25.3387C18.1256 25.362 18.1181 25.3847 18.1038 25.403C18.0894 25.4214 18.0692 25.4341 18.0465 25.4392C17.9991 25.4441 17.9513 25.4441 17.904 25.4392H17.1541C17.107 25.4402 17.0602 25.4312 17.0168 25.4127C17.0003 25.4034 16.987 25.3894 16.9786 25.3724C16.9702 25.3554 16.967 25.3363 16.9696 25.3175C16.9686 25.3014 16.9714 25.2854 16.9778 25.2706C16.9842 25.2559 16.9941 25.2429 17.0066 25.2328L17.0594 25.2013L17.1017 25.1749C17.122 25.1603 17.1399 25.1424 17.1545 25.122V23.1754C17.1581 23.1473 17.1581 23.1189 17.1545 23.0907C17.1492 23.0776 17.1413 23.0657 17.1313 23.0557C17.1213 23.0457 17.1094 23.0378 17.0963 23.0325H17.054L16.9912 22.9902C16.9863 22.9793 16.9838 22.9676 16.9838 22.9558C16.9838 22.9439 16.9863 22.9322 16.9912 22.9214C16.9895 22.9027 16.9937 22.884 17.0032 22.8679C17.0126 22.8517 17.0269 22.839 17.044 22.8313C17.0849 22.8103 17.1302 22.7995 17.1762 22.7999H18.3541C18.4848 22.7993 18.6154 22.8081 18.7449 22.8263C18.8662 22.8419 18.984 22.8776 19.0935 22.9321C19.2032 22.9877 19.2975 23.0694 19.3682 23.1701C19.4383 23.2749 19.4752 23.3984 19.4738 23.5246C19.4732 23.6868 19.4131 23.8431 19.3049 23.9637C19.1945 24.086 19.0595 24.1834 18.9087 24.2494C18.7517 24.3201 18.5868 24.3716 18.4176 24.4029C18.2436 24.4377 18.0667 24.4554 17.8893 24.4558L17.9096 24.9948Z" fill="#AC8734"/>
<path fill-rule="evenodd" clip-rule="evenodd" d="M20.5236 23.2534V23.2062C20.5316 23.1678 20.5316 23.1282 20.5236 23.0899C20.4822 23.0705 20.4373 23.0598 20.3916 23.0584C20.2415 23.056 20.0961 23.1109 19.9849 23.2119C19.9272 23.276 19.8546 23.325 19.7737 23.3546C19.6794 23.3546 19.6311 23.3123 19.6311 23.2171V22.994C19.6282 22.9784 19.6282 22.9624 19.6311 22.9468C19.6374 22.899 19.6555 22.8536 19.6838 22.8146C19.7016 22.7996 19.7235 22.7904 19.7466 22.7881H21.9228C21.953 22.7881 21.9825 22.7973 22.0074 22.8146C22.0357 22.8541 22.0555 22.8991 22.0655 22.9468L22.0969 23.1003V23.2166C22.0969 23.311 22.0498 23.3542 21.9544 23.3542C21.859 23.3542 21.8488 23.3069 21.7432 23.206C21.6326 23.1046 21.4863 23.0513 21.3364 23.0579C21.2918 23.0526 21.2468 23.0638 21.2098 23.0894C21.1913 23.1253 21.1822 23.1653 21.1834 23.2057V25.1315C21.1954 25.1571 21.2159 25.1777 21.2415 25.1897H21.2838L21.3525 25.2369C21.3616 25.259 21.3616 25.2837 21.3525 25.3057C21.3527 25.3241 21.3479 25.3422 21.3386 25.358C21.3293 25.3739 21.3158 25.3869 21.2997 25.3956C21.2592 25.4177 21.2137 25.4286 21.1677 25.4271H20.445C20.3979 25.4281 20.3511 25.4191 20.3077 25.4007C20.2913 25.3914 20.2781 25.3775 20.2697 25.3606C20.2613 25.3438 20.2581 25.3249 20.2605 25.3062C20.2595 25.2902 20.2623 25.2741 20.2687 25.2594C20.2752 25.2446 20.285 25.2317 20.2975 25.2215L20.3503 25.19H20.3925C20.4164 25.1774 20.435 25.1568 20.4453 25.1318V25.0471L20.5236 23.2534Z" fill="#AC8734"/>
<path fill-rule="evenodd" clip-rule="evenodd" d="M23.178 24.9891V25.1319C23.19 25.1575 23.2105 25.1781 23.2361 25.1901H23.2784L23.3471 25.2374C23.3562 25.2594 23.3562 25.2841 23.3471 25.3062C23.3473 25.3245 23.3425 25.3426 23.3332 25.3585C23.3239 25.3743 23.3104 25.3873 23.2943 25.396C23.2538 25.4181 23.2082 25.429 23.1622 25.4275H22.4393C22.3922 25.4286 22.3453 25.4195 22.3019 25.4011C22.2854 25.3918 22.2721 25.3777 22.2637 25.3607C22.2553 25.3437 22.2522 25.3246 22.2548 25.3058C22.2537 25.2898 22.2566 25.2737 22.263 25.259C22.2694 25.2443 22.2793 25.2313 22.2917 25.2212L22.3445 25.1897H22.3868C22.4106 25.177 22.4293 25.1564 22.4396 25.1314V23.1904C22.4428 23.1623 22.4428 23.1338 22.4396 23.1057C22.4343 23.0932 22.4263 23.082 22.4163 23.0729C22.4063 23.0638 22.3944 23.0569 22.3815 23.0528H22.3379L22.2751 23.0056C22.2702 22.9948 22.2678 22.9831 22.2678 22.9712C22.2678 22.9594 22.2702 22.9476 22.2751 22.9368C22.2723 22.9173 22.2759 22.8975 22.2854 22.8803C22.295 22.8631 22.3099 22.8495 22.3279 22.8416C22.3688 22.8206 22.4141 22.8098 22.46 22.8101H23.183C23.2284 22.809 23.2735 22.818 23.315 22.8365C23.3519 22.8365 23.3678 22.8838 23.3678 22.9371C23.3684 22.9523 23.3653 22.9673 23.3589 22.981C23.3525 22.9947 23.3429 23.0066 23.3309 23.0158L23.2781 23.0528H23.2358C23.2165 23.0623 23.2001 23.077 23.1886 23.0952C23.1791 23.1259 23.1791 23.1589 23.1886 23.1896V24.4332L24.3243 23.3432V23.1745C24.3275 23.1464 24.3275 23.118 24.3243 23.0898C24.3189 23.0774 24.3109 23.0662 24.3009 23.0571C24.2909 23.048 24.279 23.0411 24.2661 23.0369H24.2238L24.161 22.9897C24.1517 22.981 24.1445 22.9702 24.1399 22.9583C24.1354 22.9464 24.1335 22.9336 24.1346 22.9209C24.1324 22.9009 24.1369 22.8808 24.1474 22.8637C24.1579 22.8465 24.1739 22.8334 24.1927 22.8265C24.2315 22.8051 24.2753 22.7942 24.3196 22.795H25.0221C25.0692 22.7945 25.1159 22.8035 25.1594 22.8214C25.1747 22.8305 25.1874 22.8432 25.1967 22.8584C25.2059 22.8736 25.2112 22.8909 25.2123 22.9086C25.2133 22.9263 25.21 22.9441 25.2026 22.9602C25.1952 22.9764 25.184 22.9905 25.17 23.0014L25.1171 23.0383H25.0749C25.0555 23.0478 25.0392 23.0625 25.0277 23.0807C25.0205 23.112 25.0205 23.1446 25.0277 23.1759V25.1176C25.0376 25.1428 25.0564 25.1636 25.0805 25.1758H25.1228C25.1486 25.1868 25.1719 25.2029 25.1915 25.223C25.2005 25.232 25.2075 25.2427 25.212 25.2546C25.2166 25.2665 25.2186 25.2791 25.2179 25.2918C25.2171 25.3107 25.2113 25.3289 25.201 25.3448C25.1908 25.3606 25.1766 25.3734 25.1597 25.3819C25.1193 25.4039 25.0737 25.4148 25.0277 25.4134H24.3048C24.2594 25.4145 24.2143 25.4054 24.1728 25.3869C24.1547 25.379 24.1398 25.3655 24.1302 25.3482C24.1207 25.331 24.117 25.3112 24.1198 25.2917C24.1188 25.2756 24.1216 25.2595 24.128 25.2448C24.1345 25.2301 24.1444 25.2171 24.1569 25.207L24.2097 25.1755H24.252C24.2758 25.1628 24.2945 25.1422 24.3048 25.1173V23.7259L23.1691 24.8158L23.178 24.9891Z" fill="#AC8734"/>
<path fill-rule="evenodd" clip-rule="evenodd" d="M12.6899 27.2535C12.7105 27.1979 12.7427 27.1475 12.7842 27.1053C12.8309 27.0743 12.8871 27.0612 12.9427 27.0683H13.6499C13.667 27.0676 13.684 27.0704 13.7 27.0765C13.716 27.0825 13.7306 27.0918 13.7429 27.1037C13.7553 27.1155 13.7651 27.1298 13.7718 27.1455C13.7785 27.1613 13.7819 27.1782 13.7819 27.1954C13.7818 27.2138 13.7774 27.2319 13.7693 27.2484C13.7611 27.2649 13.7493 27.2793 13.7347 27.2906L13.6343 27.333C13.6158 27.3347 13.5979 27.3409 13.5823 27.3511C13.5666 27.3612 13.5536 27.375 13.5444 27.3912C13.5344 27.4311 13.5344 27.4729 13.5444 27.5129V29.4122C13.5444 29.4122 13.5444 29.4492 13.6026 29.4651H13.6449C13.6703 29.479 13.6935 29.4969 13.7135 29.518C13.7211 29.5383 13.7211 29.5606 13.7135 29.5809C13.7135 29.6005 13.7081 29.6197 13.6978 29.6364C13.6875 29.6531 13.6728 29.6666 13.6554 29.6754C13.6166 29.6968 13.5729 29.7077 13.5286 29.7069H12.7996C12.7542 29.708 12.7091 29.6989 12.6676 29.6804C12.6497 29.6709 12.6351 29.6563 12.6257 29.6383C12.6162 29.6204 12.6125 29.6 12.6148 29.5798C12.6171 29.5482 12.6302 29.5182 12.6519 29.4951L12.7047 29.4637H12.747C12.7591 29.4591 12.77 29.4521 12.7791 29.443C12.7883 29.4338 12.7953 29.4229 12.7998 29.4108V27.6873L12.1869 29.1474L12.1182 29.285C12.0947 29.3182 12.0627 29.3446 12.0255 29.3612C11.9883 29.3778 11.9474 29.3841 11.907 29.3794C11.8474 29.3881 11.7869 29.3881 11.7273 29.3794C11.6798 29.3468 11.6431 29.3008 11.6217 29.2472L10.9508 27.7501V29.443L11.0451 29.4854C11.0641 29.4849 11.0829 29.4895 11.0995 29.4988C11.1161 29.5081 11.1299 29.5218 11.1394 29.5383C11.1442 29.5491 11.1467 29.5608 11.1467 29.5727C11.1467 29.5845 11.1442 29.5962 11.1394 29.6071C11.1394 29.6599 11.108 29.6917 11.0451 29.7128H10.385C10.3716 29.7129 10.3584 29.7102 10.3461 29.7047C10.3339 29.6993 10.3229 29.6913 10.314 29.6813C10.3051 29.6713 10.2984 29.6595 10.2944 29.6467C10.2904 29.6339 10.2891 29.6204 10.2908 29.6071C10.2906 29.5811 10.2987 29.5559 10.3139 29.5349C10.3292 29.514 10.3506 29.4984 10.3753 29.4906L10.4914 29.4433C10.5108 29.4241 10.5253 29.4006 10.5337 29.3746C10.5362 29.357 10.5362 29.3392 10.5337 29.3217C10.5337 29.3217 10.5337 29.2847 10.5337 29.2688V27.4386C10.5256 27.4125 10.511 27.3888 10.4914 27.3698C10.4572 27.3413 10.4177 27.3199 10.3751 27.3068L10.2854 27.2753C10.2703 27.2662 10.2583 27.2528 10.2507 27.2368C10.2432 27.2208 10.2406 27.2029 10.2431 27.1855C10.2421 27.1621 10.2488 27.1391 10.2621 27.1199C10.2755 27.1008 10.2949 27.0866 10.3171 27.0797H11.289C11.3223 27.0761 11.3559 27.0805 11.3871 27.0924C11.4183 27.1044 11.4463 27.1236 11.4687 27.1485C11.4687 27.1485 11.5056 27.2272 11.5532 27.3336L12.0814 28.6401L12.6899 27.2535Z" fill="#AC8734"/>
<path fill-rule="evenodd" clip-rule="evenodd" d="M14.8343 29.2644V29.4125C14.8343 29.4125 14.8343 29.4495 14.8871 29.4654H14.9293C14.9546 29.4797 14.9777 29.4975 14.998 29.5183C15.0071 29.5259 15.0143 29.5356 15.0189 29.5466C15.0235 29.5575 15.0254 29.5694 15.0244 29.5813C15.0246 29.601 15.0192 29.6203 15.009 29.6372C14.9987 29.654 14.984 29.6676 14.9664 29.6765C14.926 29.6986 14.8804 29.7094 14.8344 29.708H14.1115C14.0661 29.7091 14.021 29.7 13.9795 29.6815C13.9616 29.6721 13.947 29.6574 13.9375 29.6395C13.9281 29.6216 13.9243 29.6012 13.9266 29.5811C13.9264 29.5652 13.9295 29.5493 13.9359 29.5347C13.9423 29.5201 13.9517 29.507 13.9636 29.4964L14.0164 29.4649H14.0587C14.0707 29.4604 14.0817 29.4534 14.0908 29.4442C14.0999 29.4351 14.107 29.4241 14.1115 29.412V27.471C14.1173 27.4413 14.1173 27.4108 14.1115 27.3811C14.1115 27.3811 14.1115 27.3441 14.0533 27.3282H14.0111L13.9482 27.2859C13.9375 27.2733 13.9298 27.2585 13.9256 27.2426C13.9214 27.2266 13.9207 27.21 13.9237 27.1937C13.9268 27.1775 13.9333 27.1622 13.943 27.1488C13.9527 27.1355 13.9652 27.1244 13.9796 27.1165C14.0215 27.108 14.0646 27.108 14.1064 27.1165H14.8294C14.8747 27.1077 14.9214 27.1077 14.9667 27.1165C14.9846 27.126 14.9993 27.1407 15.0087 27.1586C15.0181 27.1766 15.0219 27.197 15.0195 27.2171C15.0184 27.249 15.0052 27.2793 14.9826 27.3018L14.9245 27.3333H14.8823C14.8641 27.3443 14.8481 27.3587 14.8352 27.3756C14.8286 27.4088 14.8286 27.443 14.8352 27.4762V28.7355L15.9708 27.6456V27.4762C15.9767 27.4465 15.9767 27.416 15.9708 27.3863C15.9553 27.3649 15.9355 27.3469 15.9127 27.3334H15.8758L15.8071 27.2911C15.8003 27.2668 15.8003 27.2412 15.8071 27.217C15.8071 27.1974 15.8125 27.1782 15.8228 27.1615C15.8331 27.1448 15.8478 27.1313 15.8652 27.1225C15.9088 27.1135 15.9537 27.1135 15.9972 27.1225H16.7202C16.7637 27.1135 16.8086 27.1135 16.8522 27.1225C16.8891 27.1225 16.905 27.1697 16.905 27.2231C16.9056 27.2391 16.9026 27.255 16.8962 27.2697C16.8898 27.2844 16.8802 27.2974 16.8681 27.3078L16.8152 27.3393H16.773C16.7529 27.3476 16.7363 27.3625 16.7258 27.3816C16.7169 27.4145 16.7169 27.4492 16.7258 27.482V29.4237C16.7258 29.4237 16.7258 29.4607 16.784 29.4766H16.8262C16.8517 29.4905 16.8749 29.5084 16.8949 29.5295C16.8949 29.5295 16.8949 29.561 16.8949 29.5924C16.8949 29.612 16.8895 29.6312 16.8792 29.6479C16.8689 29.6646 16.8543 29.6781 16.8368 29.6869C16.7983 29.709 16.7543 29.72 16.71 29.7184H15.987C15.9398 29.7199 15.8929 29.7109 15.8497 29.6919C15.8318 29.6824 15.8171 29.6678 15.8077 29.6498C15.7983 29.6319 15.7945 29.6115 15.7969 29.5913C15.7991 29.5597 15.8122 29.5297 15.8339 29.5066L15.8921 29.4752H15.929C15.9542 29.4652 15.9749 29.4464 15.9872 29.4223V28.0309L14.8515 29.1208L14.8343 29.2644Z" fill="#AC8734"/>
<path fill-rule="evenodd" clip-rule="evenodd" d="M17.9967 27.4491C17.9967 27.4121 17.9967 27.3803 17.907 27.3433C17.881 27.3271 17.8596 27.3045 17.8448 27.2776C17.83 27.2508 17.8223 27.2205 17.8224 27.1899C17.8224 27.1112 17.8911 27.0682 18.0338 27.0682H19.6184C19.6638 27.0593 19.7104 27.0593 19.7558 27.0682C19.7737 27.0777 19.7883 27.0923 19.7977 27.1103C19.8072 27.1282 19.8109 27.1486 19.8086 27.1688C19.8082 27.1851 19.8042 27.2012 19.7969 27.2158C19.7896 27.2305 19.7791 27.2433 19.7663 27.2535L19.7135 27.2849H19.6712C19.653 27.2959 19.637 27.3103 19.6241 27.3273C19.6176 27.3605 19.6176 27.3947 19.6241 27.4279V29.3695C19.6387 29.3899 19.6565 29.4078 19.6769 29.4224H19.7192C19.7456 29.4348 19.7691 29.4529 19.7878 29.4753C19.7925 29.4852 19.7949 29.4959 19.7949 29.5068C19.7949 29.5177 19.7925 29.5284 19.7878 29.5383C19.788 29.558 19.7826 29.5774 19.7723 29.5942C19.7621 29.611 19.7473 29.6246 19.7297 29.6335C19.6893 29.6556 19.6437 29.6665 19.5977 29.665H18.8747C18.8293 29.6661 18.7842 29.6571 18.7427 29.6385C18.7248 29.6291 18.7102 29.6144 18.7008 29.5964C18.6914 29.5785 18.6876 29.5581 18.6899 29.538C18.6896 29.522 18.6927 29.5062 18.6991 29.4915C18.7055 29.4769 18.715 29.4639 18.7269 29.4533L18.7797 29.4218H18.8219C18.834 29.4173 18.845 29.4102 18.8541 29.4011C18.8632 29.392 18.8703 29.381 18.8747 29.3689V27.5546C18.8823 27.4908 18.8654 27.4265 18.8276 27.3747L18.7748 27.3482C18.7187 27.3414 18.662 27.3414 18.6058 27.3482H18.532C18.4842 27.3528 18.4381 27.368 18.397 27.3927C18.3559 27.4174 18.3207 27.451 18.2942 27.491C18.2252 27.5858 18.1651 27.6868 18.1146 27.7926C17.981 28.0655 17.8646 28.3464 17.766 28.6338C17.6749 28.8509 17.6196 29.0814 17.6022 29.3163C17.6048 29.3559 17.6193 29.3938 17.6438 29.425C17.6683 29.4562 17.7017 29.4792 17.7396 29.4909C17.8293 29.5381 17.8769 29.5853 17.8769 29.6337C17.8775 29.6569 17.87 29.6797 17.8556 29.698C17.8413 29.7164 17.8211 29.7292 17.7984 29.7342H17.2202C17.1765 29.7419 17.1318 29.7419 17.0882 29.7342C17.0659 29.7283 17.0462 29.7153 17.032 29.6972C17.0178 29.679 17.0099 29.6567 17.0096 29.6337C17.002 29.6134 17.002 29.591 17.0096 29.5707C17.0246 29.5445 17.0463 29.5227 17.0724 29.5077C17.1077 29.4836 17.1381 29.4531 17.1622 29.4179L17.215 29.2803C17.2851 29.0235 17.3698 28.7709 17.4685 28.5238C17.5054 28.4232 17.553 28.3122 17.6005 28.1957L17.7907 27.783L17.8692 27.6084C17.9206 27.5635 17.9642 27.5092 17.9967 27.4491Z" fill="#AC8734"/>
<path fill-rule="evenodd" clip-rule="evenodd" d="M20.8339 27.4485C20.8339 27.4115 20.8024 27.3797 20.7441 27.3427C20.7181 27.3264 20.6967 27.3038 20.6819 27.277C20.6671 27.2501 20.6594 27.2199 20.6596 27.1892C20.6596 27.1105 20.7282 27.0675 20.871 27.0675H22.4556C22.4991 27.0583 22.5441 27.0583 22.5876 27.0675C22.6245 27.0675 22.6404 27.1148 22.6404 27.1681C22.6411 27.1841 22.6381 27.2001 22.6317 27.2147C22.6253 27.2294 22.6156 27.2424 22.6035 27.2528L22.5507 27.2843H22.5084C22.4902 27.2953 22.4741 27.3097 22.4612 27.3266C22.4547 27.3598 22.4547 27.394 22.4612 27.4272V29.3689C22.4739 29.3927 22.4945 29.4114 22.5194 29.4218H22.5617C22.5881 29.4342 22.6116 29.4522 22.6304 29.4747C22.6304 29.4747 22.6304 29.5061 22.6304 29.5376C22.6315 29.5568 22.6271 29.5758 22.6177 29.5926C22.6084 29.6093 22.5944 29.623 22.5775 29.6321C22.5371 29.6542 22.4916 29.665 22.4455 29.6635H21.7226C21.6755 29.664 21.6288 29.655 21.5852 29.6371C21.5688 29.6264 21.5557 29.6113 21.5474 29.5935C21.5391 29.5758 21.5359 29.556 21.5381 29.5365C21.5379 29.5206 21.541 29.5047 21.5474 29.4901C21.5538 29.4755 21.5633 29.4625 21.5752 29.4518L21.628 29.4204H21.6703C21.694 29.4102 21.7129 29.3912 21.7231 29.3675V27.5538C21.7306 27.49 21.7138 27.4257 21.6759 27.3739L21.6231 27.3474C21.567 27.3406 21.5103 27.3406 21.4542 27.3474H21.3756C21.3289 27.3531 21.2839 27.3688 21.2438 27.3935C21.2037 27.4181 21.1694 27.4512 21.1432 27.4903C21.0742 27.5852 21.0141 27.6861 20.9635 27.7919C20.8304 28.0657 20.7122 28.3465 20.6096 28.6331C20.521 28.8514 20.4666 29.0819 20.4482 29.3168C20.4507 29.3564 20.4652 29.3943 20.4897 29.4255C20.5143 29.4566 20.5477 29.4796 20.5855 29.4913C20.6753 29.5386 20.7176 29.5858 20.7176 29.6341C20.7183 29.6568 20.7115 29.679 20.698 29.6972C20.6846 29.7155 20.6654 29.7286 20.6435 29.7345H20.0679C20.0243 29.7428 19.9795 29.7428 19.9358 29.7345C19.9136 29.7286 19.8939 29.7156 19.8797 29.6975C19.8655 29.6793 19.8576 29.657 19.8573 29.634C19.8497 29.6137 19.8497 29.5913 19.8573 29.571C19.8723 29.5448 19.894 29.523 19.9201 29.508C19.9554 29.4839 19.9858 29.4534 20.0099 29.4181L20.057 29.2806C20.1289 29.0237 20.2153 28.7711 20.3157 28.5241C20.3528 28.4236 20.3943 28.3125 20.4479 28.196L20.638 27.7833L20.7166 27.6087C20.7643 27.563 20.8036 27.5093 20.8329 27.45L20.8339 27.4485Z" fill="#AC8734"/>
<path fill-rule="evenodd" clip-rule="evenodd" d="M23.4402 26.7541C23.3894 26.7615 23.3377 26.7615 23.2869 26.7541C23.2555 26.7541 23.2398 26.6958 23.2398 26.6377C23.2398 26.5797 23.2398 26.5372 23.2767 26.5214C23.3232 26.5009 23.3739 26.4919 23.4246 26.495H24.8878C24.9403 26.4874 24.9936 26.4874 25.0462 26.495C25.0776 26.495 25.0933 26.5422 25.0933 26.6008C25.0933 26.6593 25.0933 26.7119 25.0511 26.7278C25.0063 26.7537 24.9545 26.7648 24.9032 26.7593L23.4402 26.7541ZM23.6146 29.2613V29.4094C23.6146 29.4094 23.6146 29.4464 23.6674 29.4623H23.7097C23.735 29.4766 23.7581 29.4944 23.7784 29.5152C23.7875 29.5228 23.7946 29.5325 23.7992 29.5435C23.8038 29.5544 23.8057 29.5663 23.8048 29.5782C23.8049 29.5979 23.7996 29.6172 23.7893 29.6341C23.7791 29.6509 23.7643 29.6645 23.7468 29.6734C23.7064 29.6955 23.6608 29.7063 23.6148 29.7049H22.9123C22.8668 29.706 22.8217 29.6969 22.7802 29.6784C22.7623 29.669 22.7477 29.6543 22.7383 29.6363C22.7289 29.6184 22.7251 29.598 22.7274 29.5779C22.7272 29.5619 22.7303 29.5461 22.7367 29.5315C22.7431 29.5169 22.7525 29.5038 22.7644 29.4932L22.8172 29.4617H22.8595C22.8715 29.4572 22.8825 29.4501 22.8916 29.441C22.9007 29.4319 22.9078 29.4209 22.9123 29.4088V27.4682C22.9155 27.4384 22.9155 27.4082 22.9123 27.3784C22.8967 27.357 22.8769 27.339 22.8541 27.3255H22.8118L22.749 27.2831C22.7383 27.2705 22.7306 27.2557 22.7264 27.2398C22.7221 27.2239 22.7215 27.2072 22.7245 27.191C22.7275 27.1747 22.7341 27.1594 22.7438 27.146C22.7534 27.1327 22.766 27.1217 22.7804 27.1138C22.8223 27.1052 22.8654 27.1052 22.9072 27.1138H23.6302C23.6755 27.1049 23.7222 27.1049 23.7675 27.1138C23.7854 27.1232 23.8001 27.1379 23.8095 27.1558C23.8189 27.1738 23.8227 27.1942 23.8203 27.2143C23.8191 27.2462 23.8059 27.2764 23.7834 27.299L23.7252 27.3305H23.683C23.6647 27.3415 23.6487 27.3559 23.6358 27.3728C23.6293 27.406 23.6293 27.4401 23.6358 27.4733V28.7326L24.7715 27.6427V27.4733C24.7773 27.4436 24.7773 27.4131 24.7715 27.3834C24.7715 27.3834 24.7715 27.3464 24.7133 27.3305H24.6764L24.6077 27.2882C24.6009 27.2639 24.6009 27.2383 24.6077 27.214C24.6077 27.1944 24.6132 27.1752 24.6234 27.1586C24.6337 27.1419 24.6484 27.1284 24.6658 27.1196C24.7094 27.1106 24.7543 27.1106 24.7979 27.1196H25.5208C25.5643 27.1106 25.6093 27.1106 25.6528 27.1196C25.6899 27.1196 25.7056 27.1668 25.7056 27.2202C25.7063 27.2362 25.7033 27.2521 25.6969 27.2668C25.6905 27.2814 25.6808 27.2945 25.6687 27.3049L25.6159 27.3363H25.5736C25.5535 27.3446 25.5369 27.3596 25.5265 27.3787C25.5175 27.4116 25.5175 27.4462 25.5265 27.4791V29.4208C25.542 29.4422 25.5618 29.4602 25.5846 29.4736H25.6269C25.6524 29.4876 25.6755 29.5055 25.6956 29.5265C25.6956 29.5265 25.6956 29.558 25.6956 29.5895C25.6955 29.6091 25.6901 29.6283 25.6798 29.645C25.6696 29.6617 25.6549 29.6751 25.6374 29.684C25.5989 29.7061 25.555 29.717 25.5106 29.7154H24.7876C24.7405 29.717 24.6935 29.7079 24.6503 29.689C24.6324 29.6795 24.6178 29.6648 24.6084 29.6469C24.5989 29.6289 24.5951 29.6085 24.5975 29.5884C24.5997 29.5567 24.6128 29.5268 24.6346 29.5037L24.6927 29.4722H24.7297C24.7548 29.4623 24.7755 29.4435 24.7878 29.4193V28.028L23.6522 29.1179L23.6146 29.2613Z" fill="#AC8734"/>
<path fill-rule="evenodd" clip-rule="evenodd" d="M23.5352 14.6673C23.9484 14.506 24.3033 14.2234 24.5536 13.8567C24.8038 13.49 24.9377 13.0561 24.9377 12.6119C24.9377 12.1677 24.8038 11.7339 24.5536 11.3672C24.3033 11.0004 23.9484 10.7179 23.5352 10.5565L23.3768 10.4878C23.5925 10.0443 23.652 9.54088 23.5458 9.05926C23.4632 8.73184 23.3121 8.42575 23.1024 8.16133C22.8927 7.8969 22.6292 7.68019 22.3294 7.52558C22.0297 7.37097 21.7005 7.282 21.3638 7.26458C21.0271 7.24716 20.6905 7.3017 20.3765 7.42455L20.2127 7.48279C20.0276 7.01617 19.6982 6.62123 19.2726 6.35589C18.9864 6.1776 18.6662 6.06118 18.3324 6.01409C17.9987 5.967 17.6588 5.99027 17.3345 6.08242C17.0103 6.17457 16.7089 6.33357 16.4496 6.54922C16.1903 6.76486 15.9788 7.0324 15.8288 7.33467L15.7601 7.48279C15.288 7.27739 14.7644 7.22201 14.26 7.32412C13.9337 7.37957 13.6238 7.50692 13.3526 7.69698C13.0815 7.88704 12.8559 8.13505 12.6921 8.42311C12.5283 8.71116 12.4305 9.03205 12.4057 9.3626C12.3808 9.69314 12.4296 10.0251 12.5485 10.3344L12.6067 10.4879C12.1288 10.6556 11.7162 10.9704 11.428 11.3874C11.2438 11.6608 11.1233 11.9721 11.0754 12.2984C11.0276 12.6248 11.0535 12.9577 11.1514 13.2726C11.2493 13.5875 11.4166 13.8764 11.6409 14.1178C11.8652 14.3592 12.1409 14.5471 12.4475 14.6675L12.6059 14.7363C12.3922 15.1821 12.3327 15.6865 12.4368 16.17C12.5207 16.4965 12.6727 16.8014 12.8828 17.0648C13.093 17.3282 13.3564 17.5439 13.6559 17.6979C13.9553 17.8519 14.284 17.9405 14.6201 17.958C14.9562 17.9755 15.2923 17.9215 15.6061 17.7995L15.7698 17.7412C15.9533 18.2088 16.2832 18.6043 16.7101 18.8681C16.996 19.0466 17.3159 19.1633 17.6494 19.2108C17.9829 19.2583 18.3226 19.2355 18.6468 19.1438C18.971 19.0522 19.2725 18.8937 19.5321 18.6786C19.7916 18.4635 20.0034 18.1965 20.1539 17.8947L20.2226 17.7412C20.6947 17.9466 21.2183 18.002 21.7227 17.8999C22.0459 17.8431 22.3527 17.7157 22.6212 17.5267C22.8897 17.3377 23.1133 17.0918 23.2762 16.8064C23.4391 16.5211 23.5372 16.2033 23.5636 15.8757C23.59 15.5481 23.544 15.2186 23.4288 14.9108L23.366 14.7574L23.5244 14.6886L23.5352 14.6673ZM14.3445 6.3348L14.7566 5.13848L15.9345 5.70516C16.5341 5.26662 17.2573 5.0303 17.9998 5.0303C18.7422 5.0303 19.4654 5.26662 20.065 5.70516L21.2483 5.13848L21.6603 6.3348C22.3868 6.40972 23.0678 6.72419 23.5965 7.22883C24.1252 7.73346 24.4716 8.39967 24.5813 9.12285L25.8332 9.51433L25.2417 10.6412C25.6978 11.1963 25.9473 11.893 25.9473 12.6119C25.9473 13.3309 25.6978 14.0275 25.2417 14.5826L25.8332 15.7095L24.5815 16.101C24.4717 16.8242 24.1254 17.4904 23.5967 17.995C23.068 18.4996 22.3869 18.8141 21.6605 18.8891L21.2484 20.0854L20.0652 19.5187C19.4656 19.9572 18.7423 20.1936 17.9999 20.1936C17.2575 20.1936 16.5343 19.9572 15.9347 19.5187L14.7568 20.0854L14.3447 18.8891C13.6182 18.8141 12.9372 18.4996 12.4085 17.995C11.8798 17.4904 11.5334 16.8242 11.4237 16.101L10.1664 15.7095L10.7637 14.5826C10.3054 14.0285 10.0547 13.3315 10.0547 12.6119C10.0547 11.8924 10.3054 11.1954 10.7637 10.6412L10.1664 9.51433L11.4237 9.12285C11.5334 8.39972 11.8797 7.73354 12.4084 7.22891C12.937 6.72429 13.6181 6.40979 14.3445 6.3348Z" fill="#AC8734"/>
<path fill-rule="evenodd" clip-rule="evenodd" d="M24.4187 9.2607L25.5807 9.62574L25.0525 10.6838C24.8593 10.4693 24.6392 10.2808 24.3976 10.123C24.4511 9.84598 24.4653 9.56279 24.4399 9.2818L24.4187 9.2607ZM25.0316 14.5511L25.5598 15.6092L24.3978 15.9743C24.4232 15.6933 24.409 15.4101 24.3555 15.1331C24.5983 14.9769 24.8187 14.7883 25.0105 14.5724L25.0316 14.5511ZM21.5348 18.7094L21.1493 19.8151L20.0611 19.286C20.2857 19.1058 20.4847 18.8958 20.6526 18.6617C20.942 18.7127 21.2366 18.727 21.5294 18.7041L21.5348 18.7094ZM15.9781 19.2918L14.8847 19.8209L14.5044 18.7152C14.799 18.7409 15.0957 18.7267 15.3865 18.6729C15.5529 18.9083 15.7521 19.1185 15.9781 19.2972V19.2918ZM11.6152 15.9694L10.4531 15.6043L11.0078 14.5462C11.1996 14.7622 11.42 14.9509 11.6628 15.1071C11.605 15.3835 11.5891 15.6671 11.6156 15.9483L11.6152 15.9694ZM11.0078 10.679L10.4531 9.62086L11.6152 9.25582C11.5887 9.537 11.6045 9.82058 11.6623 10.097C11.4207 10.2548 11.2006 10.4434 11.0074 10.6579L11.0078 10.679ZM14.5046 6.51531L14.8849 5.40966L15.9782 5.93871C15.7522 6.11734 15.553 6.32759 15.3867 6.563C15.0956 6.51189 14.7992 6.49767 14.5046 6.52066V6.51531ZM20.0612 5.93289L21.1494 5.40383L21.5349 6.50948C21.2403 6.48648 20.9439 6.50071 20.6528 6.55183C20.4836 6.31881 20.2847 6.10894 20.0612 5.92754V5.93289Z" fill="#AC8734"/>
<path fill-rule="evenodd" clip-rule="evenodd" d="M14.3128 14.9942L14.7249 15.8513C16.7872 15.1971 19.001 15.1971 21.0633 15.8513L21.507 15.1105C20.6302 15.142 20.3819 14.8618 20.1389 14.264C19.9865 14.4111 19.8017 14.5203 19.5995 14.5828C19.3973 14.6453 19.1832 14.6593 18.9746 14.6238C18.7659 14.5883 18.5685 14.5042 18.3982 14.3783C18.228 14.2524 18.0896 14.0882 17.9943 13.899C17.26 14.8089 16.5311 14.8459 15.8076 14.0683C15.7731 14.2282 15.7075 14.3797 15.6144 14.5142C15.5214 14.6486 15.4028 14.7634 15.2654 14.8518C15.128 14.9403 14.9746 15.0008 14.8139 15.0297C14.6531 15.0587 14.4882 15.0556 14.3287 15.0207L14.3128 14.9942ZM17.2338 11.2433C17.1552 10.4444 18.6652 10.3756 18.6916 11.2433C18.4592 11.2433 17.9944 11.1646 18.0367 11.5236H17.8835C17.8835 11.1745 17.6088 11.2485 17.2338 11.2538V11.2433ZM18.9927 11.6771C18.9362 11.6218 18.8687 11.579 18.7945 11.5517C18.7203 11.5244 18.6412 11.5131 18.5624 11.5186C18.4836 11.5241 18.4068 11.5463 18.3371 11.5837C18.2675 11.621 18.2065 11.6727 18.1582 11.7354V13.2432C18.5596 14.1055 19.5579 14.3013 20.3028 13.2432C20.4243 14.6399 21.3064 14.9308 22.5846 14.1902L21.2487 16.3593C18.5549 15.6824 17.208 15.6398 14.4877 16.3593L13.2305 14.1373C14.514 14.6981 15.1585 14.587 15.6444 13.1639C16.1726 14.0844 17.2291 14.3542 17.6886 13.1639V11.7358C17.5143 11.4978 17.266 11.4607 16.928 11.6829C16.6111 9.69374 19.3419 9.82077 18.9775 11.6829L18.9927 11.6771ZM15.8921 14.5922C15.9413 14.6122 15.9858 14.6421 16.0229 14.68C16.0599 14.718 16.0888 14.7632 16.1077 14.8129C16.1265 14.8625 16.1349 14.9155 16.1324 14.9686C16.1299 15.0217 16.1165 15.0736 16.093 15.1212C16.2039 14.899 16.3147 14.8673 16.5894 14.8779C16.5109 15.5497 15.533 15.5762 15.3587 15.1054C15.4392 15.0514 15.5359 15.0272 15.6323 15.0368C15.7287 15.0465 15.8187 15.0894 15.8869 15.1582C15.6598 14.9942 15.8083 14.7033 15.8869 14.6292L15.8921 14.5922ZM17.9468 14.4282C17.9885 14.4559 18.0243 14.4916 18.0522 14.5332C18.08 14.5749 18.0994 14.6216 18.1093 14.6707C18.1191 14.7199 18.1191 14.7705 18.1094 14.8197C18.0996 14.8688 18.0803 14.9156 18.0524 14.9572C18.2003 14.7614 18.3165 14.7457 18.5806 14.8038C18.38 15.4545 17.3862 15.301 17.3289 14.8038C17.418 14.7558 17.522 14.7433 17.6199 14.7688C17.7179 14.7943 17.8026 14.8559 17.8571 14.9413C17.6669 14.7403 17.8571 14.4811 17.9627 14.4123L17.9468 14.4282ZM19.991 14.6292C20.0607 14.6995 20.0998 14.7946 20.0998 14.8937C20.0998 14.9928 20.0607 15.0879 19.991 15.1582C20.1758 14.9996 20.2921 15.0048 20.5192 15.1159C20.1865 15.7141 19.2462 15.3646 19.2934 14.8777C19.3871 14.8557 19.4856 14.8682 19.571 14.9128C19.6563 14.9575 19.7228 15.0314 19.7582 15.1211C19.6157 14.8831 19.8639 14.6662 19.9695 14.6185L19.991 14.6292ZM22.1038 13.8568L22.6321 13.4494L23.1867 13.8409L22.986 13.1955L23.5142 12.7776H22.8117L22.6057 12.1794L22.3996 12.7776H21.713L22.2412 13.1955L22.03 13.8566L22.1038 13.8568ZM21.4647 11.4548L21.9929 11.0475L22.5529 11.4443L22.3522 10.7989L22.8804 10.3756H22.2255L22.0195 9.77748L21.8188 10.3756H21.1321L21.6604 10.7989L21.4438 11.455L21.4647 11.4548ZM19.7428 9.76819L20.2711 9.36081L20.8257 9.75229L20.6409 9.09117L21.1691 8.6679H20.4666L20.2605 8.0754L20.0545 8.6679H19.3679L19.8964 9.09133L19.6798 9.75245L19.7428 9.76819ZM17.4769 9.04411L17.6935 8.38298L17.1389 7.9597H17.8255L18.0315 7.36721L18.2376 7.9597H18.9401L18.4119 8.38298L18.6072 9.02836L18.079 8.63688L17.5508 9.04426L17.4769 9.04411ZM15.2479 9.66304L15.4645 9.00192L14.9363 8.58399H15.6229L15.8289 7.98584L16.035 8.58399H16.7375L16.2093 9.00192L16.41 9.6473L15.8553 9.25582L15.3271 9.6632L15.2479 9.66304ZM13.5102 11.4248L14.0648 11.0174L14.6248 11.4089L14.4241 10.7635L14.9523 10.3456H14.2498L14.0438 9.74742L13.8431 10.3456H13.1564L13.6846 10.7635L13.4681 11.4246L13.5102 11.4248ZM12.803 13.7367L13.3312 13.3293L13.8912 13.7208L13.6905 13.0754L14.2187 12.6575H13.5157L13.3097 12.0593L13.109 12.6575H12.4219L12.9499 13.0738L12.803 13.7367Z" fill="#AC8734"/>
</svg>
