<svg width="36" height="36" viewBox="0 0 36 36" fill="none" xmlns="http://www.w3.org/2000/svg">
<path fill-rule="evenodd" clip-rule="evenodd" d="M9.55767 17.9168C10.3541 18.6506 11.4236 19.0957 12.5869 19.0957C15.0853 19.0957 17.1074 17.058 17.1074 14.5517C17.1074 12.0378 15.0853 10 12.5869 10C11.4236 10 10.3541 10.445 9.55767 11.1789C8.6442 12.0143 8.06641 13.2167 8.06641 14.5517C8.0665 15.8868 8.6442 17.0892 9.55767 17.9168Z" fill="#E9B040"/>
<path fill-rule="evenodd" clip-rule="evenodd" d="M16.5039 17.0809C16.5039 17.0028 16.5664 16.9404 16.6444 16.9404C16.7302 16.9404 16.7926 17.0029 16.7926 17.0809C16.7926 17.1669 16.7301 17.2293 16.6444 17.2293C16.5664 17.2293 16.5039 17.1669 16.5039 17.0809ZM16.6444 17.1982C16.7069 17.1982 16.7614 17.1434 16.7614 17.081C16.7614 17.0186 16.7068 16.9718 16.6444 16.9718C16.5896 16.9718 16.5351 17.0186 16.5351 17.081C16.5351 17.1434 16.5897 17.1982 16.6444 17.1982ZM16.6288 17.1513H16.5975V17.0185H16.6521C16.66 17.0185 16.6756 17.0185 16.6834 17.0264C16.699 17.0342 16.699 17.0421 16.699 17.0577C16.699 17.0733 16.6913 17.0889 16.6756 17.0889L16.7069 17.1514H16.6677L16.6521 17.0966H16.6288V17.1513V17.0732H16.66C16.6677 17.0732 16.6677 17.0653 16.6677 17.0576C16.6677 17.0497 16.6677 17.0497 16.66 17.042H16.6288V17.1513Z" fill="#E9B040"/>
<path fill-rule="evenodd" clip-rule="evenodd" d="M11.0175 14.0677C11.0019 13.9038 10.9707 13.7477 10.9394 13.5837H8.17559C8.20683 13.4197 8.2537 13.2636 8.30047 13.1074H10.8067C10.7523 12.9431 10.6898 12.7815 10.6194 12.6233H8.49573C8.57385 12.458 8.65983 12.2964 8.75339 12.1393H10.354C10.251 11.9725 10.1362 11.8134 10.0105 11.663H9.09696C9.23827 11.4904 9.39232 11.3286 9.55767 11.1789C8.75355 10.4528 7.69161 10 6.52048 10C4.02992 10 2 12.0378 2 14.5517C2 17.058 4.02992 19.0957 6.52048 19.0957C7.69161 19.0957 8.75346 18.6506 9.55767 17.9168C9.7205 17.7697 9.87184 17.6105 10.0105 17.4404H9.09696C8.97199 17.2843 8.86274 17.1282 8.75339 16.9564H10.354C10.4547 16.802 10.5434 16.6402 10.6195 16.4723H8.49573C8.42544 16.3162 8.35523 16.1601 8.30047 15.9959H10.8067C10.8613 15.8398 10.9005 15.676 10.9393 15.5119C10.9706 15.3558 11.0018 15.1919 11.0174 15.0278C11.0333 14.8695 11.0411 14.7105 11.041 14.5515C11.041 14.3878 11.0332 14.2239 11.0175 14.0677Z" fill="#CC2131"/>
<path fill-rule="evenodd" clip-rule="evenodd" d="M16.5039 15.6062C16.5039 15.5204 16.5664 15.458 16.6444 15.458C16.7302 15.458 16.7926 15.5205 16.7926 15.6062C16.7926 15.6843 16.7301 15.7546 16.6444 15.7546C16.5664 15.7546 16.5039 15.6842 16.5039 15.6062ZM16.6444 15.7155C16.7069 15.7155 16.7614 15.6686 16.7614 15.6062C16.7614 15.5438 16.7068 15.497 16.6444 15.497C16.5896 15.497 16.5351 15.5438 16.5351 15.6062C16.5351 15.6686 16.5897 15.7155 16.6444 15.7155ZM16.6288 15.6686H16.5975V15.5437H16.6834C16.699 15.5516 16.699 15.5673 16.699 15.5829C16.699 15.5906 16.6913 15.6062 16.6756 15.6141L16.7069 15.6687H16.6677L16.6521 15.6218H16.6288V15.6686V15.5984H16.6444C16.6521 15.5984 16.66 15.5984 16.66 15.5905C16.6677 15.5905 16.6677 15.5828 16.6677 15.5749C16.6677 15.5749 16.6677 15.5672 16.66 15.5672C16.66 15.5593 16.6521 15.5672 16.6444 15.5672H16.6288V15.6686Z" fill="white"/>
<path fill-rule="evenodd" clip-rule="evenodd" d="M8.01973 15.8629C7.87142 15.9018 7.76207 15.9253 7.65281 15.9253C7.41859 15.9253 7.278 15.7769 7.278 15.5115C7.278 15.4569 7.28581 15.4022 7.29362 15.3397L7.32486 15.1603L7.34829 15.0119L7.55909 13.7315H8.02754L7.97286 14.0126H8.26957L8.19928 14.481H7.90257L7.77769 15.2461C7.76988 15.2852 7.76988 15.3086 7.76988 15.3242C7.76988 15.4257 7.81674 15.4647 7.93381 15.4647C7.98848 15.4647 8.03526 15.457 8.08212 15.4491L8.01973 15.8629ZM9.53443 15.8472C9.36269 15.8941 9.20657 15.9174 9.03473 15.9174C8.5038 15.9174 8.19928 15.6363 8.19928 15.0822C8.19928 14.4341 8.55847 13.9656 9.05807 13.9656C9.45623 13.9656 9.71389 14.2311 9.71389 14.6448C9.71389 14.7855 9.69827 14.9181 9.6593 15.1055H8.68335C8.67554 15.1367 8.67554 15.1524 8.67554 15.168C8.67554 15.3866 8.82385 15.4958 9.10494 15.4958C9.28449 15.4958 9.44061 15.4569 9.61244 15.3789L9.53443 15.8472ZM9.24553 14.7308V14.6371C9.24553 14.4809 9.15961 14.395 9.0113 14.395C8.85509 14.395 8.74583 14.5121 8.69897 14.7307L9.24553 14.7308ZM4.27212 15.8862H3.78805L4.06914 14.114L3.43676 15.8862H3.10109L3.06203 14.1218L2.76532 15.8862H2.28906L2.6716 13.5831H3.38208L3.3977 15.0042L3.87397 13.5831H4.65475L4.27212 15.8862ZM5.45115 15.0509C5.40429 15.043 5.38867 15.043 5.35742 15.043C5.07633 15.043 4.93584 15.1523 4.93584 15.3241C4.93584 15.4413 5.00613 15.5194 5.11539 15.5194C5.34961 15.5194 5.44325 15.3241 5.45115 15.0509ZM5.8415 15.8862H5.41991L5.42772 15.6911C5.31837 15.8393 5.17006 15.9174 4.9124 15.9174C4.67818 15.9174 4.4752 15.7067 4.4752 15.4022C4.4752 15.3164 4.49082 15.2384 4.51425 15.1603C4.59226 14.8713 4.88116 14.6918 5.32618 14.6839C5.38086 14.6839 5.46668 14.6839 5.54479 14.6918C5.56031 14.6293 5.56031 14.6058 5.56031 14.5669C5.56031 14.4419 5.45887 14.4028 5.23245 14.4028C5.09196 14.4028 4.93574 14.4263 4.82649 14.4653L4.75619 14.4809L4.72495 14.4887L4.79525 14.0671C5.02166 13.9968 5.18559 13.9656 5.36523 13.9656C5.78682 13.9656 6.01324 14.1608 6.01324 14.5199C6.01324 14.6136 6.02105 14.6839 5.9898 14.8869L5.88055 15.5583L5.86493 15.6755L5.85712 15.7692L5.84931 15.8317L5.8415 15.8862ZM11.8923 14.0281C12.0328 14.0281 12.1578 14.0672 12.3295 14.153L12.4153 13.6533C12.3685 13.6299 12.3528 13.6299 12.2905 13.6064L12.0954 13.5518C12.0329 13.5361 11.9549 13.5283 11.8689 13.5283C11.6267 13.5283 11.4862 13.5361 11.338 13.622C11.2599 13.6767 11.1584 13.747 11.049 13.8719L10.9866 13.8563L10.4869 14.2076L10.5104 14.0124H9.99497L9.69064 15.8861H10.1826L10.3621 14.8791C10.3621 14.8791 10.4325 14.7384 10.4636 14.6917C10.5573 14.5746 10.6354 14.5746 10.7368 14.5746H10.7759C10.7596 14.6936 10.7517 14.8136 10.7524 14.9337C10.7524 15.5426 11.0959 15.9252 11.6268 15.9252C11.7596 15.9252 11.8769 15.9096 12.0563 15.8628L12.1423 15.3319C11.9862 15.4177 11.8456 15.4568 11.7285 15.4568C11.4397 15.4568 11.2677 15.2382 11.2677 14.8947C11.2675 14.3872 11.5253 14.0281 11.8923 14.0281ZM16.0379 13.5831L15.9287 14.2389C15.8116 14.0593 15.671 13.9734 15.4836 13.9734C15.2259 13.9734 14.9839 14.1217 14.8355 14.4028V14.3951L14.5233 14.2077L14.5545 14.0125H14.0314L13.7347 15.8862H14.2187L14.3828 14.8792C14.3828 14.8792 14.5076 14.7385 14.5389 14.6918C14.617 14.5981 14.695 14.5824 14.7575 14.5747C14.7029 14.7308 14.6717 14.9181 14.6717 15.129C14.6717 15.5975 14.9136 15.9097 15.2727 15.9097C15.4524 15.9097 15.5929 15.8472 15.7255 15.6988L15.7022 15.8862H16.1629L16.5377 13.5831H16.0379ZM15.4368 15.4413C15.2728 15.4413 15.187 15.3164 15.187 15.0743C15.187 14.7073 15.3431 14.4419 15.5694 14.4419C15.7412 14.4419 15.8272 14.5747 15.8272 14.8089C15.8272 15.1836 15.6711 15.4413 15.4368 15.4413ZM13.1806 15.0509C13.1337 15.043 13.1181 15.043 13.0869 15.043C12.8056 15.043 12.6651 15.1523 12.6651 15.3241C12.6651 15.4413 12.7355 15.5194 12.8447 15.5194C13.079 15.5194 13.1727 15.3241 13.1806 15.0509ZM13.5709 15.8862H13.1414L13.1571 15.6911C13.0478 15.8393 12.8993 15.9174 12.6418 15.9174C12.3997 15.9174 12.189 15.7145 12.189 15.4022C12.189 14.9573 12.5246 14.684 13.0555 14.684C13.1103 14.684 13.196 14.684 13.2664 14.6919C13.282 14.6294 13.2899 14.6059 13.2899 14.5669C13.2899 14.442 13.1884 14.4029 12.9542 14.4029C12.8214 14.4029 12.6575 14.4264 12.5482 14.4654L12.4857 14.481L12.4545 14.4887L12.5247 14.0672C12.7512 13.9969 12.9152 13.9657 13.0947 13.9657C13.5163 13.9657 13.7349 14.1609 13.7349 14.52C13.7349 14.6137 13.7505 14.684 13.7115 14.887L13.61 15.5584L13.5944 15.6756L13.5787 15.7693L13.571 15.8318L13.5709 15.8862ZM6.86422 14.4106C6.95795 14.4106 7.09064 14.4185 7.23123 14.4419L7.30152 14.0047C7.16093 13.9891 6.97357 13.9656 6.86422 13.9656C6.31776 13.9656 6.13821 14.2623 6.13821 14.6058C6.13821 14.8323 6.23965 14.9962 6.50512 15.121C6.70029 15.2148 6.73153 15.2303 6.73153 15.3163C6.73153 15.4333 6.63009 15.5037 6.44263 15.5037C6.29433 15.5037 6.15373 15.4801 5.99762 15.4256L5.94294 15.8549L5.95066 15.8628L6.04439 15.8784C6.07563 15.8861 6.11468 15.894 6.16936 15.9017C6.28642 15.9096 6.38796 15.9173 6.45044 15.9173C6.997 15.9173 7.22342 15.7066 7.22342 15.2928C7.22342 15.0352 7.09845 14.8791 6.85641 14.7698C6.64562 14.676 6.62219 14.6606 6.62219 14.5746C6.62219 14.4887 6.71591 14.4106 6.86422 14.4106Z" fill="#1B3771"/>
<path fill-rule="evenodd" clip-rule="evenodd" d="M12.5482 13.5057L12.4621 14.0054C12.2904 13.9195 12.1654 13.8806 12.0249 13.8806C11.6579 13.8806 11.4004 14.2397 11.4004 14.7472C11.4004 15.0985 11.5721 15.3092 11.8611 15.3092C11.9781 15.3092 12.1187 15.2703 12.2748 15.1923L12.189 15.7152C12.0093 15.7621 11.8922 15.7856 11.7595 15.7856C11.2286 15.7856 10.9007 15.403 10.9007 14.7863C10.9007 13.9665 11.3535 13.3887 12.0015 13.3887C12.0873 13.3887 12.1653 13.3965 12.2278 13.4121L12.4231 13.459C12.4857 13.4824 12.5013 13.4902 12.5482 13.5057ZM10.971 13.8493H10.9241C10.7603 13.8493 10.6665 13.9274 10.5181 14.1537L10.565 13.8648H10.1199L9.81555 15.7386H10.3075C10.487 14.5909 10.5338 14.3958 10.7681 14.3958H10.7993C10.8462 14.1694 10.9084 14.0046 10.9866 13.8563L10.971 13.8493ZM8.14473 15.7152C8.01204 15.7621 7.9027 15.7777 7.79344 15.7777C7.54359 15.7777 7.403 15.6372 7.403 15.364C7.403 15.3171 7.41081 15.2548 7.41862 15.2L7.44987 15.0126L7.4733 14.8644L7.68409 13.5838H8.16816L8.11349 13.8649H8.36334L8.30085 14.3256H8.05101L7.91832 15.1064C7.91051 15.1376 7.91051 15.1611 7.91051 15.1845C7.91051 15.2782 7.95737 15.3172 8.07444 15.3172C8.12911 15.3172 8.17588 15.3172 8.20713 15.3016L8.14473 15.7152ZM6.26312 14.4583C6.26312 14.6926 6.37238 14.8564 6.63003 14.9814C6.83302 15.0751 6.86426 15.1063 6.86426 15.1844C6.86426 15.3015 6.77834 15.3561 6.58317 15.3561C6.43486 15.3561 6.30208 15.3328 6.14596 15.2859L6.07567 15.7152L6.0991 15.7231L6.18501 15.7387C6.21616 15.7465 6.25531 15.7544 6.3177 15.7544C6.42696 15.77 6.52068 15.77 6.58317 15.77C7.09839 15.77 7.34052 15.5747 7.34052 15.1454C7.34052 14.8877 7.23907 14.7393 6.99704 14.6223C6.78624 14.5286 6.76281 14.5052 6.76281 14.4193C6.76281 14.3179 6.84873 14.271 7.00485 14.271C7.09858 14.271 7.23126 14.2788 7.35623 14.2944L7.42643 13.865C7.30156 13.8416 7.10639 13.826 6.99704 13.826C6.45048 13.8259 6.25531 14.1148 6.26312 14.4583ZM16.2879 15.7387H15.8272L15.8507 15.5591C15.718 15.6996 15.5774 15.7621 15.3977 15.7621C15.0386 15.7621 14.8044 15.4577 14.8044 14.9893C14.8044 14.3646 15.1714 13.8337 15.6007 13.8337C15.796 13.8337 15.9365 13.9196 16.0693 14.0913L16.1786 13.4355H16.6627L16.2879 15.7387ZM15.5696 15.3015C15.7961 15.3015 15.9522 15.0361 15.9522 14.6691C15.9522 14.427 15.8662 14.302 15.6944 14.302C15.4758 14.302 15.312 14.5597 15.312 14.9267C15.312 15.1766 15.3978 15.3015 15.5696 15.3015ZM9.64372 15.6996C9.47189 15.7544 9.31577 15.7777 9.13622 15.7777C8.58966 15.7777 8.30857 15.4889 8.30857 14.9345C8.30857 14.2943 8.66777 13.8181 9.15965 13.8181C9.56561 13.8181 9.82318 14.0835 9.82318 14.4973C9.82318 14.6379 9.80756 14.7707 9.76069 14.9658H8.79273C8.78492 14.9893 8.78492 15.0049 8.78492 15.0205C8.78492 15.2391 8.93332 15.3484 9.21432 15.3484C9.39387 15.3484 9.54999 15.3171 9.72183 15.2312L9.64372 15.6996ZM9.37044 14.5831V14.4895C9.37044 14.3334 9.28452 14.2475 9.13622 14.2475C8.9801 14.2475 8.87075 14.3646 8.82388 14.5831H9.37044ZM4.39713 15.7387H3.91306L4.19414 13.9664L3.56176 15.7387H3.226L3.18695 13.982L2.89033 15.7387H2.4375L2.82003 13.4355H3.52271L3.54614 14.8643L4.0145 13.4355H4.77966L4.39713 15.7387ZM5.60731 14.9033C5.56044 14.9033 5.53701 14.8956 5.49796 14.8956C5.22468 14.8956 5.08418 14.997 5.08418 15.1844C5.08418 15.3015 5.14667 15.3717 5.25592 15.3717C5.45891 15.3717 5.5995 15.1844 5.60731 14.9033ZM5.96641 15.7387H5.56035L5.56816 15.5435C5.44319 15.6996 5.27926 15.77 5.05285 15.77C4.78738 15.77 4.60783 15.567 4.60783 15.2625C4.60783 14.8019 4.92007 14.5365 5.46662 14.5365C5.5213 14.5365 5.59159 14.5443 5.66961 14.552C5.68523 14.4896 5.68523 14.4662 5.68523 14.4349C5.68523 14.31 5.59931 14.2632 5.3729 14.2632C5.2324 14.2632 5.07619 14.2788 4.96693 14.31L4.89664 14.3335L4.84977 14.3413L4.92007 13.9197C5.1621 13.8494 5.32603 13.826 5.50568 13.826C5.92726 13.826 6.15368 14.0133 6.15368 14.3724C6.15368 14.4662 6.14587 14.5365 6.11463 14.7473L6.00528 15.411L5.98966 15.5279L5.98185 15.6217L5.97404 15.6921L5.96641 15.7387ZM13.3367 14.9033C13.282 14.9033 13.2586 14.8956 13.2275 14.8956C12.9464 14.8956 12.8057 14.997 12.8057 15.1844C12.8057 15.3015 12.8761 15.3717 12.9854 15.3717C13.1806 15.3717 13.3288 15.1844 13.3367 14.9033ZM13.6958 15.7387H13.2899L13.2976 15.5435C13.1727 15.6996 13.0088 15.77 12.7824 15.77C12.5169 15.77 12.3373 15.567 12.3373 15.2625C12.3373 14.8019 12.6495 14.5365 13.1961 14.5365C13.2508 14.5365 13.3211 14.5443 13.3913 14.552C13.4069 14.4896 13.4148 14.4662 13.4148 14.4349C13.4148 14.31 13.3288 14.2632 13.1026 14.2632C12.9619 14.2632 12.7981 14.2788 12.6887 14.31L12.6263 14.3335L12.5794 14.3413L12.6496 13.9197C12.8917 13.8494 13.0556 13.826 13.2352 13.826C13.6568 13.826 13.8754 14.0133 13.8754 14.3724C13.8754 14.4662 13.8754 14.5365 13.8364 14.7473L13.7349 15.411L13.7193 15.5279L13.7037 15.6217L13.6959 15.6921L13.6958 15.7387ZM15.0075 13.8493H14.9606C14.7968 13.8493 14.703 13.9274 14.5546 14.1537L14.6015 13.8648H14.1564L13.8597 15.7386H14.3438C14.5234 14.5909 14.5703 14.3958 14.8045 14.3958L14.8355 14.3951C14.8824 14.1687 14.945 14.0053 15.0231 13.857L15.0075 13.8493Z" fill="white"/>
<path d="M21.6328 24.4961V26.9485H22.9953V25.4952H24.5394C25.1889 25.4907 25.7407 25.0751 25.9496 24.4961H21.6328Z" fill="#37A72E"/>
<path d="M21.4492 22.4746C21.5287 23.476 22.4779 24.2685 23.636 24.2685C23.6405 24.2685 26.0044 24.2685 26.0044 24.2685C26.0226 24.1777 26.0317 24.0823 26.0317 23.9847C26.0317 23.1536 25.3618 22.4814 24.533 22.4746H21.4492Z" fill="url(#paint0_linear_1_12061)"/>
<path d="M19.4323 24.2436C19.4482 24.2163 19.4732 24.2004 19.505 24.2004C19.5504 24.2004 19.5845 24.2367 19.5867 24.2799V26.9254H20.9492V22.4746H19.5867C19.4142 22.4814 19.2189 22.6063 19.1462 22.763L18.063 25.0883C18.0608 25.0974 18.0562 25.1065 18.0517 25.1155C18.0358 25.1382 18.0085 25.1541 17.9767 25.1541C17.9268 25.1541 17.8859 25.1133 17.8859 25.0633V22.4746H16.5234V26.9254H17.8859C18.0562 26.9163 18.247 26.7914 18.3196 26.637L19.4323 24.2504C19.4301 24.2481 19.4323 24.2458 19.4323 24.2436Z" fill="#37A72E"/>
<path d="M14.3468 24.3211L13.5497 26.9257H12.5687L11.774 24.3188C11.7672 24.2779 11.7308 24.2461 11.6854 24.2461C11.6355 24.2461 11.5969 24.287 11.5969 24.3347V26.9234H10.2344V22.4727H11.7513C12.0011 22.4727 12.2645 22.6679 12.3371 22.9064L13.0002 25.075C13.0343 25.184 13.0865 25.1817 13.1206 25.075L13.7836 22.9064C13.8563 22.6657 14.1197 22.4727 14.3695 22.4727H15.8864V26.9234H14.5239V24.3347C14.5239 24.3347 14.5239 24.3347 14.5239 24.3324C14.5239 24.2825 14.483 24.2439 14.4353 24.2439C14.3899 24.2461 14.3536 24.2779 14.3468 24.3211Z" fill="#37A72E"/>
<path d="M24.5117 16.8732L25.2996 12.25H26.5597L25.7713 16.8732H24.5117Z" fill="#0E4595"/>
<path d="M30.3203 12.3504C30.0706 12.2568 29.6794 12.1562 29.1909 12.1562C27.9457 12.1562 27.0687 12.7833 27.0612 13.682C27.0542 14.3463 27.6873 14.7168 28.1653 14.938C28.6558 15.1646 28.8207 15.3091 28.8184 15.5115C28.8152 15.8214 28.4267 15.9629 28.0644 15.9629C27.5601 15.9629 27.2922 15.8928 26.8783 15.7203L26.7159 15.6468L26.5391 16.6817C26.8334 16.8108 27.3776 16.9226 27.9428 16.9284C29.2674 16.9284 30.1273 16.3085 30.1371 15.3488C30.1418 14.8229 29.8061 14.4227 29.0791 14.0927C28.6386 13.8789 28.3689 13.7362 28.3717 13.5196C28.3717 13.3274 28.6001 13.1219 29.0934 13.1219C29.5055 13.1155 29.804 13.2054 30.0366 13.2991L30.1495 13.3524L30.3203 12.3504Z" fill="#0E4595"/>
<path d="M33.5636 12.25H32.5899C32.2883 12.25 32.0625 12.3323 31.93 12.6334L30.0586 16.8702H31.3818C31.3818 16.8702 31.5982 16.3005 31.6471 16.1754C31.7917 16.1754 33.0772 16.1774 33.2609 16.1774C33.2986 16.3393 33.4142 16.8702 33.4142 16.8702H34.5835L33.5636 12.25ZM32.0187 15.2353C32.1229 14.9689 32.5208 13.9429 32.5208 13.9429C32.5134 13.9552 32.6242 13.6752 32.6878 13.5017L32.773 13.9003C32.773 13.9003 33.0143 15.0038 33.0647 15.2352L32.0187 15.2353Z" fill="#0E4595"/>
<path d="M19.0239 12.25L19.0078 12.3462C19.5059 12.4668 19.9509 12.6413 20.3404 12.8584L21.4585 16.8658L22.7918 16.8643L24.7756 12.25H23.4407L22.207 15.4027L22.0756 14.7619C22.0695 14.7422 22.0628 14.7223 22.0559 14.7024L21.627 12.6403C21.5508 12.3476 21.3296 12.2602 21.0559 12.25H19.0239Z" fill="#0E4595"/>
<defs>
<linearGradient id="paint0_linear_1_12061" x1="2.00394" y1="18.4743" x2="34.5815" y2="18.4743" gradientUnits="userSpaceOnUse">
<stop stop-color="#00A0E5"/>
<stop offset="1" stop-color="#0077C3"/>
</linearGradient>
</defs>
</svg>
