<svg width="68" height="68" viewBox="0 0 68 68" fill="none" xmlns="http://www.w3.org/2000/svg">
<rect width="68" height="68" rx="16" fill="#47AAAF" fill-opacity="0.06"/>
<path d="M49.8346 24.5128V43.4871C49.8346 44.329 49.5429 45.0416 48.9596 45.6249C48.3762 46.2083 47.6636 46.4999 46.8217 46.4999H21.1808C20.3389 46.4999 19.6263 46.2083 19.043 45.6249C18.4596 45.0416 18.168 44.329 18.168 43.4871V24.5128C18.168 23.6709 18.4596 22.9583 19.043 22.375C19.6263 21.7917 20.3389 21.5 21.1808 21.5H46.8217C47.6636 21.5 48.3762 21.7917 48.9596 22.375C49.5429 22.9583 49.8346 23.6709 49.8346 24.5128ZM20.6679 29H47.3346L47.3346 24.5128C47.3346 24.3846 47.2812 24.2671 47.1743 24.1602C47.0675 24.0534 46.9499 24 46.8217 24H21.1808C21.0526 24 20.935 24.0534 20.8282 24.1602C20.7213 24.2671 20.6679 24.3846 20.6679 24.5128L20.6679 29ZM20.6679 33L20.6679 43.4871C20.6679 43.6153 20.7213 43.7328 20.8282 43.8397C20.935 43.9465 21.0526 44 21.1808 44H46.8217C46.9499 44 47.0675 43.9465 47.1743 43.8397C47.2812 43.7328 47.3346 43.6153 47.3346 43.4871L47.3346 33H20.6679Z" fill="#47AAAF"/>
</svg>
