<svg width="100" height="62" viewBox="0 0 100 62" fill="none" xmlns="http://www.w3.org/2000/svg">
<path d="M0 8C0 3.58172 3.58172 0 8 0H92C96.4183 0 100 3.58172 100 8V54C100 58.4183 96.4183 62 92 62H8C3.58172 62 0 58.4183 0 54V8Z" fill="#55B1B5" fill-opacity="0.1"/>
<path fill-rule="evenodd" clip-rule="evenodd" d="M65.1683 24.3392C65.0738 24.3333 64.971 24.3333 64.8645 24.3333L60.657 24.3334C57.2108 24.3334 54.2622 27.046 54.2622 30.5833C54.2622 34.1207 57.2108 36.8333 60.657 36.8333H64.8645C64.971 36.8333 65.0738 36.8335 65.1683 36.8275C66.5682 36.739 67.806 35.6437 67.9102 34.1137C67.917 34.0133 67.9168 33.9052 67.9168 33.805V27.3617C67.9168 27.2615 67.917 27.1533 67.9102 27.053C67.806 25.523 66.5682 24.4276 65.1683 24.3392ZM60.2863 32.25C61.1735 32.25 61.8927 31.5038 61.8927 30.5833C61.8927 29.6628 61.1735 28.9167 60.2863 28.9167C59.3992 28.9167 58.6798 29.6628 58.6798 30.5833C58.6798 31.5038 59.3992 32.25 60.2863 32.25Z" fill="#47AAAF"/>
<path fill-rule="evenodd" clip-rule="evenodd" d="M64.8632 39.3333C65.1117 39.3268 65.2998 39.557 65.2323 39.7963C64.8978 40.9837 64.3667 41.9958 63.5147 42.848C62.2673 44.0952 60.6857 44.6487 58.7317 44.9115C56.833 45.1667 54.407 45.1667 51.344 45.1667H47.8227C44.7597 45.1667 42.3337 45.1667 40.435 44.9115C38.4809 44.6487 36.8994 44.0952 35.6521 42.848C34.4048 41.6007 33.8513 40.019 33.5886 38.065C33.3333 36.1663 33.3333 33.7403 33.3333 30.6773V30.4893C33.3333 27.4264 33.3333 25.0003 33.5886 23.1016C33.8513 21.1476 34.4048 19.566 35.6521 18.3187C36.8994 17.0715 38.4809 16.5179 40.435 16.2552C42.3337 16 44.7597 16 47.8227 16H51.344C54.407 16 56.833 16 58.7317 16.2552C60.6857 16.5179 62.2673 17.0715 63.5147 18.3187C64.3667 19.1709 64.8977 20.1829 65.2323 21.3703C65.2998 21.6096 65.1117 21.8398 64.8632 21.8333L60.6567 21.8334C55.929 21.8334 51.7618 25.5682 51.7618 30.5833C51.7618 35.5985 55.929 39.3333 60.6567 39.3333H64.8632ZM39.5833 22.6667C38.893 22.6667 38.3333 23.2263 38.3333 23.9167C38.3333 24.607 38.893 25.1667 39.5833 25.1667H46.25C46.9403 25.1667 47.5 24.607 47.5 23.9167C47.5 23.2263 46.9403 22.6667 46.25 22.6667H39.5833Z" fill="#47AAAF"/>
</svg>
