<svg width="100" height="62" viewBox="0 0 100 62" fill="none" xmlns="http://www.w3.org/2000/svg">
<path d="M0 8C0 3.58172 3.58172 0 8 0H92C96.4183 0 100 3.58172 100 8V54C100 58.4183 96.4183 62 92 62H8C3.58172 62 0 58.4183 0 54V8Z" fill="#55B1B5" fill-opacity="0.1"/>
<path d="M43.0445 43.0725C43.0445 44.2192 42.0412 45.2225 40.8945 45.2225C39.7478 45.2225 38.7445 44.2192 38.7445 43.0725M57.378 43.0725C57.378 44.2192 58.3814 45.2225 59.5281 45.2225C60.6747 45.2225 61.6781 44.2192 61.6781 43.0725M65.9781 19.4223V38.0558C65.9781 39.6325 64.6881 40.9225 63.1114 40.9225H37.3111C35.7345 40.9225 34.4444 39.6325 34.4444 38.0558V19.4223C34.4444 17.8456 35.7345 16.5556 37.3111 16.5556H63.1114C64.6881 16.5556 65.9781 17.8456 65.9781 19.4223ZM55.9447 28.739C55.9447 24.439 52.3613 20.8556 48.0613 20.8556C43.7612 20.8556 40.1778 24.439 40.1778 28.739C40.1778 33.0391 43.7612 36.6225 48.0613 36.6225C52.3613 36.6225 55.9447 33.0391 55.9447 28.739ZM61.6781 26.589C61.6781 25.729 61.1047 25.1557 60.2447 25.1557C59.3847 25.1557 58.8114 25.729 58.8114 26.589V30.8891C58.8114 31.7491 59.3847 32.3224 60.2447 32.3224C61.1047 32.3224 61.6781 31.7491 61.6781 30.8891V26.589ZM51.788 26.7323L52.218 25.0123C52.3613 24.7256 52.0746 24.439 51.6446 24.439L49.9246 24.869C49.3513 24.5823 48.6346 24.2956 47.9179 24.2956C45.4812 24.2956 43.6179 26.159 43.6179 28.5957C43.6179 31.0324 45.4812 32.8957 47.9179 32.8957C50.3546 32.8957 52.218 31.0324 52.218 28.5957C52.3613 28.0224 52.218 27.3057 51.788 26.7323Z" fill="#47AAAF"/>
</svg>
