<svg width="24" height="31" viewBox="0 0 24 31" fill="none" xmlns="http://www.w3.org/2000/svg">
<path d="M12.3552 25.827C12.6333 25.8004 12.8623 25.6964 13.0423 25.5149C13.2223 25.3334 13.3122 25.1145 13.3122 24.8583C13.3122 24.5594 13.2142 24.3225 13.018 24.1477C12.8219 23.9728 12.5713 23.8987 12.2663 23.9253C11.1763 24.005 9.9893 23.6855 8.7051 22.9667C7.4209 22.2479 6.6193 20.998 6.3003 19.2169C6.2471 18.9449 6.1331 18.7312 5.9583 18.5758C5.7834 18.4204 5.5754 18.3427 5.3341 18.3427C5.0437 18.3427 4.8019 18.4516 4.6086 18.6694C4.4154 18.8872 4.3536 19.1668 4.4231 19.5083C4.8546 21.8252 5.8974 23.4815 7.5518 24.4774C9.2061 25.4732 10.8072 25.9231 12.3552 25.827ZM11.9598 30.0599C8.5446 30.0599 5.6976 28.8867 3.4186 26.5402C1.1395 24.1937 0 21.2731 0 17.7783C0 15.304 0.990197 12.592 2.9707 9.6422C4.9512 6.6924 7.9485 3.4784 11.9626 0C15.9767 3.4784 18.974 6.6924 20.9545 9.6422C22.935 12.592 23.9252 15.304 23.9252 17.7783C23.9252 21.2731 22.7848 24.1937 20.5039 26.5402C18.2229 28.8867 15.3749 30.0599 11.9598 30.0599ZM11.9626 27.6674C14.7273 27.6674 17.0135 26.7304 18.8212 24.8562C20.6289 22.9821 21.5327 20.6228 21.5327 17.7783C21.5327 15.8377 20.7286 13.6445 19.1203 11.1988C17.5119 8.7531 15.1261 6.0815 11.9626 3.1839C8.7991 6.0815 6.4133 8.7531 4.8049 11.1988C3.1966 13.6445 2.3925 15.8377 2.3925 17.7783C2.3925 20.6228 3.2963 22.9821 5.104 24.8562C6.9117 26.7304 9.1979 27.6674 11.9626 27.6674Z" fill="#47AAAF"/>
</svg>
