<svg width="68" height="68" viewBox="0 0 68 68" fill="none" xmlns="http://www.w3.org/2000/svg">
<rect width="68" height="68" rx="16" fill="#F3F9F9" fill-opacity="0.6"/>
<path d="M33.9724 44.5887C34.2505 44.5621 34.4795 44.4581 34.6595 44.2765C34.8395 44.0951 34.9294 43.8762 34.9294 43.62C34.9294 43.3211 34.8314 43.0842 34.6352 42.9093C34.4391 42.7345 34.1885 42.6604 33.8835 42.6869C32.7935 42.7667 31.6065 42.4472 30.3223 41.7284C29.0381 41.0096 28.2365 39.7597 27.9175 37.9786C27.8643 37.7066 27.7503 37.4929 27.5755 37.3375C27.4006 37.1821 27.1926 37.1044 26.9513 37.1044C26.6609 37.1044 26.4191 37.2133 26.2258 37.431C26.0326 37.6488 25.9708 37.9285 26.0403 38.27C26.4718 40.5868 27.5146 42.2432 29.169 43.2391C30.8233 44.2349 32.4244 44.6848 33.9724 44.5887ZM33.577 48.8216C30.1618 48.8216 27.3148 47.6483 25.0358 45.3019C22.7567 42.9554 21.6172 40.0347 21.6172 36.54C21.6172 34.0657 22.6074 31.3536 24.5879 28.4039C26.5684 25.4541 29.5657 22.2401 33.5798 18.7617C37.5939 22.2401 40.5912 25.4541 42.5717 28.4039C44.5522 31.3536 45.5424 34.0657 45.5424 36.54C45.5424 40.0347 44.402 42.9554 42.1211 45.3019C39.8401 47.6483 36.9921 48.8216 33.577 48.8216ZM33.5798 46.4291C36.3445 46.4291 38.6307 45.492 40.4384 43.6179C42.2461 41.7437 43.1499 39.3844 43.1499 36.54C43.1499 34.5994 42.3458 32.4062 40.7375 29.9605C39.1291 27.5148 36.7433 24.8432 33.5798 21.9455C30.4163 24.8432 28.0305 27.5148 26.4221 29.9605C24.8138 32.4062 24.0097 34.5994 24.0097 36.54C24.0097 39.3844 24.9135 41.7437 26.7212 43.6179C28.5289 45.492 30.8151 46.4291 33.5798 46.4291Z" fill="#47AAAF"/>
</svg>
