<svg width="40" height="40" viewBox="0 0 40 40" fill="none" xmlns="http://www.w3.org/2000/svg">
<path d="M19.9724 30.5887C20.2505 30.5621 20.4795 30.4581 20.6595 30.2765C20.8395 30.0951 20.9294 29.8762 20.9294 29.62C20.9294 29.3211 20.8314 29.0842 20.6352 28.9093C20.4391 28.7345 20.1885 28.6604 19.8835 28.6869C18.7935 28.7667 17.6065 28.4472 16.3223 27.7284C15.0381 27.0096 14.2365 25.7597 13.9175 23.9786C13.8643 23.7066 13.7503 23.4929 13.5755 23.3375C13.4006 23.1821 13.1926 23.1044 12.9513 23.1044C12.6609 23.1044 12.4191 23.2133 12.2258 23.431C12.0326 23.6488 11.9708 23.9285 12.0403 24.27C12.4718 26.5868 13.5146 28.2432 15.169 29.2391C16.8233 30.2349 18.4244 30.6848 19.9724 30.5887ZM19.577 34.8216C16.1618 34.8216 13.3148 33.6483 11.0358 31.3019C8.75671 28.9554 7.61719 26.0347 7.61719 22.54C7.61719 20.0657 8.60743 17.3536 10.5879 14.4039C12.5684 11.4541 15.5657 8.24006 19.5798 4.76172C23.5939 8.24006 26.5912 11.4541 28.5717 14.4039C30.5522 17.3536 31.5424 20.0657 31.5424 22.54C31.5424 26.0347 30.402 28.9554 28.1211 31.3019C25.8401 33.6483 22.9921 34.8216 19.577 34.8216ZM19.5798 32.4291C22.3445 32.4291 24.6307 31.492 26.4384 29.6179C28.2461 27.7437 29.1499 25.3844 29.1499 22.54C29.1499 20.5994 28.3458 18.4062 26.7375 15.9605C25.1291 13.5148 22.7433 10.8432 19.5798 7.94554C16.4163 10.8432 14.0305 13.5148 12.4221 15.9605C10.8138 18.4062 10.0097 20.5994 10.0097 22.54C10.0097 25.3844 10.9135 27.7437 12.7212 29.6179C14.5289 31.492 16.8151 32.4291 19.5798 32.4291Z" fill="#47AAAF"/>
</svg>
