<svg width="40" height="28" viewBox="0 0 40 28" fill="none" xmlns="http://www.w3.org/2000/svg">
<rect width="40" height="27.8333" rx="2.16667" fill="#003399"/>
<path d="M20.4941 3.33362L20.0363 4.74259L20.7408 4.97149L20.4941 3.33362Z" fill="#FFCC00"/>
<path d="M20.4941 3.33362L20.9519 4.74259L20.2475 4.97149L20.4941 3.33362Z" fill="#FFCC00"/>
<path d="M21.918 4.3573H20.4365V5.09804L21.918 4.3573Z" fill="#FFCC00"/>
<path d="M21.918 4.3573L20.7194 5.22809L20.284 4.62882L21.918 4.3573Z" fill="#FFCC00"/>
<path d="M21.3691 6.01318L20.9113 4.60421L20.2069 4.83311L21.3691 6.01318Z" fill="#FFCC00"/>
<path d="M21.3691 6.01318L20.1706 5.14239L20.606 4.54312L21.3691 6.01318Z" fill="#FFCC00"/>
<path d="M19.0957 4.3573H20.5772V5.09804L19.0957 4.3573Z" fill="#FFCC00"/>
<path d="M19.0957 4.3573L20.2942 5.22809L20.7296 4.62882L19.0957 4.3573Z" fill="#FFCC00"/>
<path d="M19.6484 6.01318L20.1062 4.60421L20.8107 4.83311L19.6484 6.01318Z" fill="#FFCC00"/>
<path d="M19.6484 6.01318L20.847 5.14239L20.4116 4.54312L19.6484 6.01318Z" fill="#FFCC00"/>
<path d="M20.4941 21.1115L20.0363 22.5204L20.7408 22.7493L20.4941 21.1115Z" fill="#FFCC00"/>
<path d="M20.4941 21.1115L20.9519 22.5204L20.2475 22.7493L20.4941 21.1115Z" fill="#FFCC00"/>
<path d="M21.918 22.1351H20.4365V22.8759L21.918 22.1351Z" fill="#FFCC00"/>
<path d="M21.918 22.1351L20.7194 23.0059L20.284 22.4067L21.918 22.1351Z" fill="#FFCC00"/>
<path d="M21.3691 23.7911L20.9113 22.3822L20.2069 22.6111L21.3691 23.7911Z" fill="#FFCC00"/>
<path d="M21.3691 23.7911L20.1706 22.9203L20.606 22.3211L21.3691 23.7911Z" fill="#FFCC00"/>
<path d="M19.0957 22.1351H20.5772V22.8759L19.0957 22.1351Z" fill="#FFCC00"/>
<path d="M19.0957 22.1351L20.2942 23.0059L20.7296 22.4067L19.0957 22.1351Z" fill="#FFCC00"/>
<path d="M19.6484 23.7911L20.1062 22.3822L20.8107 22.6111L19.6484 23.7911Z" fill="#FFCC00"/>
<path d="M19.6484 23.7911L20.847 22.9203L20.4116 22.3211L19.6484 23.7911Z" fill="#FFCC00"/>
<path d="M11.6113 12.2226L11.1535 13.6315L11.858 13.8604L11.6113 12.2226Z" fill="#FFCC00"/>
<path d="M11.6113 12.2226L12.0691 13.6315L11.3646 13.8604L11.6113 12.2226Z" fill="#FFCC00"/>
<path d="M13.0352 13.2465H11.5537V13.9872L13.0352 13.2465Z" fill="#FFCC00"/>
<path d="M13.0352 13.2465L11.8366 14.1173L11.4012 13.518L13.0352 13.2465Z" fill="#FFCC00"/>
<path d="M12.4707 14.9021L12.0129 13.4932L11.3084 13.7221L12.4707 14.9021Z" fill="#FFCC00"/>
<path d="M12.4707 14.9021L11.2722 14.0313L11.7076 13.4321L12.4707 14.9021Z" fill="#FFCC00"/>
<path d="M10.2051 13.2465H11.6866V13.9872L10.2051 13.2465Z" fill="#FFCC00"/>
<path d="M10.2051 13.2465L11.4036 14.1173L11.839 13.518L10.2051 13.2465Z" fill="#FFCC00"/>
<path d="M10.7656 14.9021L11.2234 13.4932L11.9279 13.7221L10.7656 14.9021Z" fill="#FFCC00"/>
<path d="M10.7656 14.9021L11.9642 14.0313L11.5288 13.4321L10.7656 14.9021Z" fill="#FFCC00"/>
<path d="M15.1855 7.2068L16.3841 6.33601L15.9487 5.73674L15.1855 7.2068Z" fill="#FFCC00"/>
<path d="M15.1855 7.20692L15.6433 5.79795L16.3478 6.02685L15.1855 7.20692Z" fill="#FFCC00"/>
<path d="M14.6465 5.55032L15.845 6.42112L16.2804 5.82184L14.6465 5.55032Z" fill="#FFCC00"/>
<path d="M14.6465 5.55032H16.128V6.29106L14.6465 5.55032Z" fill="#FFCC00"/>
<path d="M16.0488 4.52689L15.591 5.93586L16.2955 6.16476L16.0488 4.52689Z" fill="#FFCC00"/>
<path d="M16.0488 4.52689L16.5066 5.93586L15.8021 6.16476L16.0488 4.52689Z" fill="#FFCC00"/>
<path d="M16.9434 7.2068L15.7448 6.33601L16.1802 5.73674L16.9434 7.2068Z" fill="#FFCC00"/>
<path d="M16.9434 7.20692L16.4856 5.79795L15.7811 6.02685L16.9434 7.20692Z" fill="#FFCC00"/>
<path d="M17.4785 5.55035L16.28 6.42115L15.8446 5.82188L17.4785 5.55035Z" fill="#FFCC00"/>
<path d="M17.4785 5.55035H15.997V6.29109L17.4785 5.55035Z" fill="#FFCC00"/>
<path d="M13.668 10.4579L13.2102 9.04894L12.5057 9.27785L13.668 10.4579Z" fill="#FFCC00"/>
<path d="M13.668 10.4579L12.4694 9.58712L12.9048 8.98785L13.668 10.4579Z" fill="#FFCC00"/>
<path d="M11.9336 10.4583L13.1321 9.58755L12.6967 8.98828L11.9336 10.4583Z" fill="#FFCC00"/>
<path d="M11.9336 10.4583L12.3914 9.04937L13.0959 9.27827L11.9336 10.4583Z" fill="#FFCC00"/>
<path d="M11.4023 8.8019L12.6009 9.67269L13.0363 9.07342L11.4023 8.8019Z" fill="#FFCC00"/>
<path d="M11.4023 8.8019H12.8838V9.54264L11.4023 8.8019Z" fill="#FFCC00"/>
<path d="M14.2246 8.80141L13.0261 9.6722L12.5907 9.07293L14.2246 8.80141Z" fill="#FFCC00"/>
<path d="M14.2246 8.80141H12.7431V9.54215L14.2246 8.80141Z" fill="#FFCC00"/>
<path d="M12.8105 7.77773L13.2683 9.1867L12.5639 9.4156L12.8105 7.77773Z" fill="#FFCC00"/>
<path d="M12.8105 7.77773L12.3527 9.1867L13.0572 9.4156L12.8105 7.77773Z" fill="#FFCC00"/>
<path d="M14.2266 17.6914H12.7451V18.4322L14.2266 17.6914Z" fill="#FFCC00"/>
<path d="M14.2266 17.6914L13.028 18.5622L12.5926 17.963L14.2266 17.6914Z" fill="#FFCC00"/>
<path d="M13.6797 19.3477L13.2219 17.9387L12.5174 18.1676L13.6797 19.3477Z" fill="#FFCC00"/>
<path d="M13.6797 19.3477L12.4811 18.4769L12.9165 17.8776L13.6797 19.3477Z" fill="#FFCC00"/>
<path d="M11.9375 19.3478L13.136 18.477L12.7006 17.8777L11.9375 19.3478Z" fill="#FFCC00"/>
<path d="M11.9375 19.3478L12.3953 17.9388L13.0998 18.1677L11.9375 19.3478Z" fill="#FFCC00"/>
<path d="M12.8242 16.6676L13.282 18.0766L12.5775 18.3055L12.8242 16.6676Z" fill="#FFCC00"/>
<path d="M12.8242 16.6676L12.3664 18.0766L13.0709 18.3055L12.8242 16.6676Z" fill="#FFCC00"/>
<path d="M11.418 17.6915H12.8994V18.4323L11.418 17.6915Z" fill="#FFCC00"/>
<path d="M11.418 17.6915L12.6165 18.5623L13.0519 17.9631L11.418 17.6915Z" fill="#FFCC00"/>
<path d="M17.4844 20.9451H16.0029V21.6858L17.4844 20.9451Z" fill="#FFCC00"/>
<path d="M17.4844 20.9451L16.2858 21.8159L15.8504 21.2166L17.4844 20.9451Z" fill="#FFCC00"/>
<path d="M16.916 22.6014L16.4582 21.1924L15.7537 21.4213L16.916 22.6014Z" fill="#FFCC00"/>
<path d="M16.916 22.6014L15.7175 21.7306L16.1529 21.1313L16.916 22.6014Z" fill="#FFCC00"/>
<path d="M15.1816 22.6013L16.3802 21.7305L15.9448 21.1313L15.1816 22.6013Z" fill="#FFCC00"/>
<path d="M15.1816 22.6013L15.6394 21.1924L16.3439 21.4213L15.1816 22.6013Z" fill="#FFCC00"/>
<path d="M16.0723 19.9215L16.5301 21.3305L15.8256 21.5594L16.0723 19.9215Z" fill="#FFCC00"/>
<path d="M16.0723 19.9215L15.6145 21.3305L16.3189 21.5594L16.0723 19.9215Z" fill="#FFCC00"/>
<path d="M14.666 20.9456H16.1475V21.6863L14.666 20.9456Z" fill="#FFCC00"/>
<path d="M14.666 20.9456L15.8646 21.8164L16.3 21.2171L14.666 20.9456Z" fill="#FFCC00"/>
<path d="M29.4219 12.2226L29.8797 13.6316L29.1752 13.8605L29.4219 12.2226Z" fill="#FFCC00"/>
<path d="M29.4219 12.2226L28.9641 13.6316L29.6686 13.8605L29.4219 12.2226Z" fill="#FFCC00"/>
<path d="M27.998 13.2465H29.4795V13.9872L27.998 13.2465Z" fill="#FFCC00"/>
<path d="M27.998 13.2465L29.1966 14.1173L29.632 13.518L27.998 13.2465Z" fill="#FFCC00"/>
<path d="M28.5625 14.9021L29.0203 13.4932L29.7248 13.7221L28.5625 14.9021Z" fill="#FFCC00"/>
<path d="M28.5625 14.9021L29.761 14.0314L29.3256 13.4321L28.5625 14.9021Z" fill="#FFCC00"/>
<path d="M30.8242 13.2464H29.3427V13.9871L30.8242 13.2464Z" fill="#FFCC00"/>
<path d="M30.8242 13.2464L29.6257 14.1172L29.1903 13.5179L30.8242 13.2464Z" fill="#FFCC00"/>
<path d="M30.2637 14.9021L29.8059 13.4932L29.1014 13.7221L30.2637 14.9021Z" fill="#FFCC00"/>
<path d="M30.2637 14.9021L29.0651 14.0314L29.5005 13.4321L30.2637 14.9021Z" fill="#FFCC00"/>
<path d="M25.8477 7.20665L24.6491 6.33586L25.0845 5.73658L25.8477 7.20665Z" fill="#FFCC00"/>
<path d="M25.8477 7.20677L25.3899 5.7978L24.6854 6.0267L25.8477 7.20677Z" fill="#FFCC00"/>
<path d="M26.3828 5.55017L25.1843 6.42096L24.7489 5.82169L26.3828 5.55017Z" fill="#FFCC00"/>
<path d="M26.3828 5.55017H24.9013V6.29091L26.3828 5.55017Z" fill="#FFCC00"/>
<path d="M24.9805 4.52673L25.4383 5.93571L24.7338 6.16461L24.9805 4.52673Z" fill="#FFCC00"/>
<path d="M24.9805 4.52673L24.5227 5.93571L25.2272 6.16461L24.9805 4.52673Z" fill="#FFCC00"/>
<path d="M24.0898 7.20665L25.2884 6.33586L24.853 5.73659L24.0898 7.20665Z" fill="#FFCC00"/>
<path d="M24.0898 7.20677L24.5476 5.7978L25.2521 6.0267L24.0898 7.20677Z" fill="#FFCC00"/>
<path d="M23.5547 5.5502L24.7532 6.42099L25.1886 5.82172L23.5547 5.5502Z" fill="#FFCC00"/>
<path d="M23.5547 5.5502H25.0362V6.29094L23.5547 5.5502Z" fill="#FFCC00"/>
<path d="M27.3574 10.458L27.8152 9.04905L28.5197 9.27795L27.3574 10.458Z" fill="#FFCC00"/>
<path d="M27.3574 10.458L28.556 9.58723L28.1206 8.98796L27.3574 10.458Z" fill="#FFCC00"/>
<path d="M29.0996 10.4583L27.9011 9.58754L28.3365 8.98826L29.0996 10.4583Z" fill="#FFCC00"/>
<path d="M29.0996 10.4583L28.6418 9.04936L27.9373 9.27826L29.0996 10.4583Z" fill="#FFCC00"/>
<path d="M29.6309 8.80188L28.4323 9.67267L27.9969 9.0734L29.6309 8.80188Z" fill="#FFCC00"/>
<path d="M29.6309 8.80188H28.1494V9.54262L29.6309 8.80188Z" fill="#FFCC00"/>
<path d="M26.8008 8.80164L27.9993 9.67243L28.4347 9.07316L26.8008 8.80164Z" fill="#FFCC00"/>
<path d="M26.8008 8.80164H28.2823V9.54238L26.8008 8.80164Z" fill="#FFCC00"/>
<path d="M28.2148 7.77795L27.757 9.18693L28.4615 9.41583L28.2148 7.77795Z" fill="#FFCC00"/>
<path d="M28.2148 7.77795L28.6726 9.18693L27.9682 9.41583L28.2148 7.77795Z" fill="#FFCC00"/>
<path d="M26.8066 17.6913H28.2881V18.432L26.8066 17.6913Z" fill="#FFCC00"/>
<path d="M26.8066 17.6913L28.0052 18.5621L28.4406 17.9628L26.8066 17.6913Z" fill="#FFCC00"/>
<path d="M27.3574 19.3474L27.8152 17.9384L28.5197 18.1673L27.3574 19.3474Z" fill="#FFCC00"/>
<path d="M27.3574 19.3474L28.556 18.4766L28.1206 17.8773L27.3574 19.3474Z" fill="#FFCC00"/>
<path d="M29.0957 19.3472L27.8972 18.4764L28.3326 17.8771L29.0957 19.3472Z" fill="#FFCC00"/>
<path d="M29.0957 19.3472L28.6379 17.9382L27.9334 18.1671L29.0957 19.3472Z" fill="#FFCC00"/>
<path d="M28.209 16.6672L27.7512 18.0762L28.4557 18.3051L28.209 16.6672Z" fill="#FFCC00"/>
<path d="M28.209 16.6672L28.6668 18.0762L27.9623 18.3051L28.209 16.6672Z" fill="#FFCC00"/>
<path d="M29.6152 17.691H28.1338V18.4318L29.6152 17.691Z" fill="#FFCC00"/>
<path d="M29.6152 17.691L28.4167 18.5618L27.9813 17.9626L29.6152 17.691Z" fill="#FFCC00"/>
<path d="M23.5488 20.9452H25.0303V21.6859L23.5488 20.9452Z" fill="#FFCC00"/>
<path d="M23.5488 20.9452L24.7474 21.816L25.1828 21.2167L23.5488 20.9452Z" fill="#FFCC00"/>
<path d="M24.1191 22.6016L24.5769 21.1926L25.2814 21.4215L24.1191 22.6016Z" fill="#FFCC00"/>
<path d="M24.1191 22.6016L25.3177 21.7308L24.8823 21.1315L24.1191 22.6016Z" fill="#FFCC00"/>
<path d="M25.8535 22.6014L24.655 21.7306L25.0904 21.1314L25.8535 22.6014Z" fill="#FFCC00"/>
<path d="M25.8535 22.6014L25.3957 21.1925L24.6912 21.4214L25.8535 22.6014Z" fill="#FFCC00"/>
<path d="M24.959 19.9214L24.5012 21.3304L25.2057 21.5593L24.959 19.9214Z" fill="#FFCC00"/>
<path d="M24.959 19.9214L25.4168 21.3304L24.7123 21.5593L24.959 19.9214Z" fill="#FFCC00"/>
<path d="M26.3711 20.9456H24.8896V21.6863L26.3711 20.9456Z" fill="#FFCC00"/>
<path d="M26.3711 20.9456L25.1725 21.8163L24.7372 21.2171L26.3711 20.9456Z" fill="#FFCC00"/>
</svg>
