<svg width="100" height="100" viewBox="0 0 100 100" fill="none" xmlns="http://www.w3.org/2000/svg">
<g filter="url(#filter0_d_470_4826)">
<path d="M32.6116 80.1813C32.6116 83.048 30.1032 85.5564 27.2365 85.5564C24.3698 85.5564 21.8614 83.048 21.8614 80.1813M68.4453 80.1813C68.4453 83.048 70.9537 85.5564 73.8204 85.5564C76.6871 85.5564 79.1954 83.048 79.1954 80.1813M89.9455 21.0557V67.6395C89.9455 71.5812 86.7205 74.8063 82.7788 74.8063H18.2781C14.3364 74.8063 11.1113 71.5812 11.1113 67.6395V21.0557C11.1113 17.114 14.3364 13.8889 18.2781 13.8889H82.7788C86.7205 13.8889 89.9455 17.114 89.9455 21.0557ZM64.8619 44.3476C64.8619 33.5975 55.9035 24.639 45.1534 24.639C34.4033 24.639 25.4448 33.5975 25.4448 44.3476C25.4448 55.0977 34.4033 64.0562 45.1534 64.0562C55.9035 64.0562 64.8619 55.0977 64.8619 44.3476ZM79.1954 38.9725C79.1954 36.8225 77.7621 35.3892 75.612 35.3892C73.462 35.3892 72.0287 36.8225 72.0287 38.9725V49.7227C72.0287 51.8727 73.462 53.306 75.612 53.306C77.7621 53.306 79.1954 51.8727 79.1954 49.7227V38.9725ZM54.4701 39.3309L55.5452 35.0308C55.9035 34.3141 55.1868 33.5975 54.1118 33.5975L49.8118 34.6725C48.3784 33.9558 46.5867 33.2391 44.795 33.2391C38.7033 33.2391 34.0449 37.8975 34.0449 43.9893C34.0449 50.081 38.7033 54.7394 44.795 54.7394C50.8868 54.7394 55.5452 50.081 55.5452 43.9893C55.9035 42.5559 55.5452 40.7642 54.4701 39.3309Z" fill="#47AAAF"/>
</g>
<defs>
<filter id="filter0_d_470_4826" x="7.11133" y="13.8889" width="86.834" height="79.6675" filterUnits="userSpaceOnUse" color-interpolation-filters="sRGB">
<feFlood flood-opacity="0" result="BackgroundImageFix"/>
<feColorMatrix in="SourceAlpha" type="matrix" values="0 0 0 0 0 0 0 0 0 0 0 0 0 0 0 0 0 0 127 0" result="hardAlpha"/>
<feOffset dy="4"/>
<feGaussianBlur stdDeviation="2"/>
<feComposite in2="hardAlpha" operator="out"/>
<feColorMatrix type="matrix" values="0 0 0 0 0 0 0 0 0 0 0 0 0 0 0 0 0 0 0.25 0"/>
<feBlend mode="normal" in2="BackgroundImageFix" result="effect1_dropShadow_470_4826"/>
<feBlend mode="normal" in="SourceGraphic" in2="effect1_dropShadow_470_4826" result="shape"/>
</filter>
</defs>
</svg>
