<svg width="100" height="100" viewBox="0 0 100 100" fill="none" xmlns="http://www.w3.org/2000/svg">
<g filter="url(#filter0_d_627_5018)">
<path fill-rule="evenodd" clip-rule="evenodd" d="M11.198 31.7757C11.198 30.6494 13.1905 28.137 14.8366 28.137H19.8613L25.6658 18.1742C27.3985 16.2678 29.3044 16.0943 32.4232 18.0865L49.3168 28.137H86.0494C87.9554 28.137 89.7747 30.129 89.8613 32.0349V69.9811C89.8613 72.5795 87.8688 74.572 85.7895 74.5727H81.2846L75.1336 84.7954C73.4009 86.4935 71.3217 86.4068 69.1559 84.8474L51.8292 74.6247H14.9232C12.9803 74.6247 11.1113 72.2856 11.1113 70.6742L11.198 31.7757ZM27.3985 34.3747C25.6658 39.7113 21.2475 43.2633 17.4356 44.3895V58.4588C22.5557 60.5126 24.7666 62.6134 27.3985 68.2484H42.5593C46.8044 70.6735 53.7351 70.6735 58.4133 68.2484H73.7475C76.0554 62.9708 78.1712 60.7841 83.6237 58.2856V44.3895C78.7722 42.6568 75.4801 39.538 73.6608 34.3747H58.4133C53.9084 32.2608 47.5841 32.1742 42.646 34.3747H27.3985Z" fill="#47AAAF"/>
<path d="M31.3836 51.4068C31.3836 53.6556 29.5606 55.4786 27.3118 55.4786C25.063 55.4786 23.24 53.6556 23.24 51.4068C23.24 49.1581 25.063 47.3351 27.3118 47.3351C29.5606 47.3351 31.3836 49.1581 31.3836 51.4068Z" fill="#47AAAF"/>
<path d="M77.1262 51.4068C77.1262 53.6556 75.3808 55.4786 73.2277 55.4786C71.0746 55.4786 69.3292 53.6556 69.3292 51.4068C69.3292 49.1581 71.0746 47.3351 73.2277 47.3351C75.3808 47.3351 77.1262 49.1581 77.1262 51.4068Z" fill="#47AAAF"/>
<path fill-rule="evenodd" clip-rule="evenodd" d="M50.926 65.7715C58.9886 65.7715 65.5247 59.2354 65.5247 51.1728C65.5247 43.1101 58.9886 36.5741 50.926 36.5741C42.8633 36.5741 36.3273 43.1101 36.3273 51.1728C36.3273 59.2354 42.8633 65.7715 50.926 65.7715ZM56.4094 42.4929C55.489 41.9114 54.2714 42.186 53.6898 43.1064L44.1091 58.2687C43.5275 59.1891 43.8021 60.4067 44.7225 60.9883C45.6429 61.5699 46.8606 61.2952 47.4421 60.3748L57.0229 45.2125C57.6045 44.2921 57.3298 43.0745 56.4094 42.4929ZM47.6421 46.5741C47.6421 48.3546 46.1988 49.798 44.4183 49.798C42.6378 49.798 41.1944 48.3546 41.1944 46.5741C41.1944 44.7936 42.6378 43.3503 44.4183 43.3503C46.1988 43.3503 47.6421 44.7936 47.6421 46.5741ZM56.5839 60.26C58.3644 60.26 59.8077 58.8166 59.8077 57.0361C59.8077 55.2556 58.3644 53.8122 56.5839 53.8122C54.8034 53.8122 53.36 55.2556 53.36 57.0361C53.36 58.8166 54.8034 60.26 56.5839 60.26Z" fill="#47AAAF"/>
</g>
<defs>
<filter id="filter0_d_627_5018" x="7.11133" y="16.6667" width="86.75" height="77.3762" filterUnits="userSpaceOnUse" color-interpolation-filters="sRGB">
<feFlood flood-opacity="0" result="BackgroundImageFix"/>
<feColorMatrix in="SourceAlpha" type="matrix" values="0 0 0 0 0 0 0 0 0 0 0 0 0 0 0 0 0 0 127 0" result="hardAlpha"/>
<feOffset dy="4"/>
<feGaussianBlur stdDeviation="2"/>
<feComposite in2="hardAlpha" operator="out"/>
<feColorMatrix type="matrix" values="0 0 0 0 0 0 0 0 0 0 0 0 0 0 0 0 0 0 0.25 0"/>
<feBlend mode="normal" in2="BackgroundImageFix" result="effect1_dropShadow_627_5018"/>
<feBlend mode="normal" in="SourceGraphic" in2="effect1_dropShadow_627_5018" result="shape"/>
</filter>
</defs>
</svg>
