<svg width="40" height="40" viewBox="0 0 40 40" fill="none" xmlns="http://www.w3.org/2000/svg">
<path d="M22.4662 0.117676V20.7059C22.4662 21.6471 21.7603 22.353 20.8191 22.353H18.3486C18.2309 22.353 18.1133 22.4706 18.1133 22.5883V39.8824C18.7015 39.8824 19.2897 40.0001 19.9956 40.0001C31.0544 40.0001 39.9955 31.0589 39.9955 20C39.9955 9.76474 32.3485 1.29415 22.4662 0.117676ZM21.9956 30.9412C20.5839 30.9412 19.525 29.7648 19.525 28.4706C19.525 27.0589 20.7015 26 21.9956 26C23.4074 26 24.4662 27.1765 24.4662 28.4706C24.5838 29.7648 23.4074 30.9412 21.9956 30.9412ZM27.8779 30.9412C26.4662 30.9412 25.4074 29.7648 25.4074 28.4706C25.4074 27.0589 26.5838 26 27.8779 26C29.2897 26 30.3485 27.1765 30.3485 28.4706C30.3485 29.7648 29.2897 30.9412 27.8779 30.9412ZM33.7603 30.9412C32.3485 30.9412 31.2897 29.7648 31.2897 28.4706C31.2897 27.0589 32.4661 26 33.7603 26C35.172 26 36.2308 27.1765 36.2308 28.4706C36.2308 29.7648 35.172 30.9412 33.7603 30.9412Z" fill="#00985F"/>
<path d="M19.9999 0C8.94113 0 0 8.94119 0 20C0 29.6471 6.70584 37.6471 15.7646 39.5294V21.5294C15.7646 20.7059 16.4705 20 17.294 19.8824H19.7646C19.8822 19.8824 19.9999 19.7647 19.9999 19.6471V0ZM16.1176 16.4706C14.7058 16.4706 13.647 15.2941 13.647 14C13.647 12.5882 14.8234 11.5294 16.1176 11.5294C17.5293 11.5294 18.5881 12.7059 18.5881 14C18.5881 15.2941 17.5293 16.4706 16.1176 16.4706Z" fill="#00985F"/>
</svg>
