<svg width="108" height="70" viewBox="0 0 108 70" fill="none" xmlns="http://www.w3.org/2000/svg">
<g filter="url(#filter0_d_859_22078)">
<rect x="4" y="4" width="100" height="62" rx="8" fill="#37A72E"/>
</g>
<g clip-path="url(#clip0_859_22078)">
<path d="M62.8555 34.123V40.3329H66.3054V36.653H70.2153C71.8598 36.6415 73.257 35.5893 73.786 34.123H62.8555Z" fill="white"/>
<path d="M62.3984 29.0059C62.5997 31.5416 65.0031 33.5483 67.9356 33.5483C67.9471 33.5483 73.9327 33.5483 73.9327 33.5483C73.9787 33.3183 74.0017 33.0768 74.0017 32.8295C74.0017 30.7251 72.3055 29.0231 70.2068 29.0059H62.3984Z" fill="white"/>
<path d="M57.2914 33.485C57.3316 33.416 57.3949 33.3758 57.4754 33.3758C57.5904 33.3758 57.6766 33.4678 57.6824 33.577V40.2756H61.1323V29.0059H57.6824C57.2454 29.0231 56.7509 29.3394 56.5669 29.7361L53.8242 35.624C53.8184 35.647 53.8069 35.67 53.7954 35.693C53.7552 35.7505 53.6862 35.7907 53.6057 35.7907C53.4792 35.7907 53.3757 35.6872 53.3757 35.5607V29.0059H49.9258V40.2756H53.3757C53.8069 40.2526 54.2899 39.9364 54.4739 39.5454L57.2914 33.5023C57.2856 33.4965 57.2914 33.4908 57.2914 33.485Z" fill="white"/>
<path d="M44.413 33.6804L42.3948 40.2755H39.9109L37.8984 33.6746C37.8812 33.5711 37.7892 33.4906 37.6742 33.4906C37.5477 33.4906 37.4499 33.5941 37.4499 33.7149V40.2697H34V29H36.9612H37.8409C38.4734 29 39.1404 29.4945 39.3244 30.0982L41.0033 35.5893C41.0896 35.8653 41.2218 35.8596 41.3081 35.5893L42.987 30.0982C43.171 29.4887 43.838 29 44.4705 29H45.3502H48.3114V40.2697H44.8615V33.7149C44.8615 33.7149 44.8615 33.7149 44.8615 33.7091C44.8615 33.5826 44.758 33.4849 44.6373 33.4849C44.5223 33.4906 44.4303 33.5711 44.413 33.6804Z" fill="white"/>
</g>
<defs>
<filter id="filter0_d_859_22078" x="0.171429" y="0.171429" width="107.657" height="69.6571" filterUnits="userSpaceOnUse" color-interpolation-filters="sRGB">
<feFlood flood-opacity="0" result="BackgroundImageFix"/>
<feColorMatrix in="SourceAlpha" type="matrix" values="0 0 0 0 0 0 0 0 0 0 0 0 0 0 0 0 0 0 127 0" result="hardAlpha"/>
<feOffset/>
<feGaussianBlur stdDeviation="1.91429"/>
<feComposite in2="hardAlpha" operator="out"/>
<feColorMatrix type="matrix" values="0 0 0 0 0 0 0 0 0 0 0 0 0 0 0 0 0 0 0.3 0"/>
<feBlend mode="normal" in2="BackgroundImageFix" result="effect1_dropShadow_859_22078"/>
<feBlend mode="normal" in="SourceGraphic" in2="effect1_dropShadow_859_22078" result="shape"/>
</filter>
<clipPath id="clip0_859_22078">
<rect width="40" height="40" fill="white" transform="translate(34 15)"/>
</clipPath>
</defs>
</svg>
