<svg width="270" height="164" viewBox="0 0 270 164" fill="none" xmlns="http://www.w3.org/2000/svg">
<path d="M10.5068 0.429932H259.493C262.28 0.429932 264.952 1.53332 266.923 3.49736C268.893 5.46141 270 8.12522 270 10.9028V153.097C270 154.472 269.728 155.834 269.2 157.105C268.672 158.375 267.898 159.53 266.923 160.503C265.947 161.475 264.789 162.246 263.514 162.773C262.239 163.299 260.873 163.57 259.493 163.57H10.5068C9.12702 163.57 7.76076 163.299 6.48602 162.773C5.21128 162.246 4.05302 161.475 3.07737 160.503C2.10172 159.53 1.3278 158.375 0.799782 157.105C0.271766 155.834 0 154.472 0 153.097V10.9028C0 8.12522 1.10696 5.46141 3.07737 3.49736C5.04778 1.53332 7.72022 0.429932 10.5068 0.429932Z" fill="#E3D6D6"/>
<path d="M0 90.8318H270V153.097C270 158.881 265.296 163.57 259.493 163.57H10.5068C4.70391 163.57 0 158.881 0 153.097V90.8318Z" fill="#D5D9E1"/>
<path d="M95.925 17.0568H178.279V21.2136H95.925V17.0568Z" fill="#403148"/>
<path d="M95.925 53.425H147.006V57.5818H95.925V53.425Z" fill="#403148"/>
<path d="M95.925 71.0907H165.771V75.2475H95.925V71.0907Z" fill="#403148"/>
<path d="M95.925 78.3636H165.771V82.5204H95.925V78.3636Z" fill="#403148"/>
<path d="M153.235 53.425H204.316V57.5818H153.235V53.425Z" fill="#403148"/>
<path d="M210.568 53.425H261.649V57.5818H210.568V53.425Z" fill="#403148"/>
<path d="M95.925 24.3319H178.279V28.4887H95.925V24.3319Z" fill="#403148"/>
<path d="M95.925 31.6046H178.279V35.7614H95.925V31.6046Z" fill="#403148"/>
<path d="M19.8116 31.0855C19.7797 33.0752 20.4707 35.0485 21.8447 36.8917C23.2187 38.7349 25.2485 40.4114 27.817 41.8245C30.3854 43.2376 33.4416 44.3592 36.8091 45.1246C40.1766 45.8901 43.7887 46.2842 47.437 46.2842C51.0853 46.2842 54.6974 45.8901 58.0649 45.1246C61.4324 44.3592 64.4886 43.2376 67.057 41.8245C69.6255 40.4114 71.6553 38.7349 73.0293 36.8917C74.4033 35.0485 75.0943 33.0752 75.0624 31.0855C75.0943 29.0959 74.4033 27.1226 73.0293 25.2794C71.6553 23.4362 69.6255 21.7596 67.057 20.3466C64.4886 18.9335 61.4324 17.8119 58.0649 17.0465C54.6974 16.281 51.0853 15.8869 47.437 15.8869C43.7887 15.8869 40.1766 16.281 36.8091 17.0465C33.4416 17.8119 30.3854 18.9335 27.817 20.3466C25.2485 21.7596 23.2187 23.4362 21.8447 25.2794C20.4707 27.1226 19.7797 29.0959 19.8116 31.0855Z" fill="#E9E9E9"/>
<path d="M46.9201 39.5251L43.6611 35.629V33.291C43.6611 33.291 44.3129 34.1993 46.9201 34.1993C49.5252 34.1993 50.177 33.291 50.177 33.291V35.629L46.9201 39.5251Z" fill="#B6ACAD"/>
<path d="M54.0868 27.8366C54.0868 28.5536 53.5025 29.1339 52.7832 29.1339C52.0639 29.1339 51.4817 28.5536 51.4817 27.8366C51.4817 27.1176 52.0639 26.5372 52.7832 26.5372C53.5025 26.5372 54.0868 27.1176 54.0868 27.8366ZM42.3587 27.8366C42.3587 27.1176 41.7744 26.5372 41.0572 26.5372C40.3358 26.5372 39.7536 27.1176 39.7536 27.8366C39.7536 28.5536 40.3358 29.1339 41.0572 29.1339C41.7744 29.1339 42.3587 28.5536 42.3587 27.8366Z" fill="#B6ACAD"/>
<path d="M52.792 23.9387C52.792 18.9809 41.0639 20.7113 41.0639 23.9387V28.4845C41.0639 31.714 43.688 34.3296 46.928 34.3296C50.1658 34.3296 52.792 31.714 52.792 28.4845V23.9387Z" fill="#C7BABC"/>
<path d="M46.9168 18.0936C42.9596 18.0936 40.4009 21.2937 40.4009 25.2381V26.7225L41.7045 27.8369V24.5884L49.524 21.9917L52.1291 24.5884V27.8369L53.4327 26.7036V25.2381C53.4327 22.6246 52.7556 20.0321 49.524 19.393L48.8722 18.0936H46.9168Z" fill="#321F49"/>
<path d="M46.9201 43.4232L43.6611 35.629L46.9201 36.2787L50.177 35.629L46.9201 43.4232Z" fill="white"/>
<path d="M46.2628 38.2279L45.8282 41.1273L46.9145 43.7261L48.0009 41.1273L47.5663 38.2279L48.2181 37.5782L46.9145 36.2788L45.611 37.5782L46.2628 38.2279Z" fill="#321F49"/>
<path d="M50.1826 35.629L46.9258 43.4232L43.6668 35.629C43.6668 35.629 36.5012 36.9199 36.5012 44.0708H57.3503C57.3503 36.9452 50.1826 35.629 50.1826 35.629Z" fill="#7C707A"/>
<path d="M21.0896 106.818H246.793V111.023H21.0896V106.818Z" fill="#403148"/>
<path d="M21.0896 121.536H246.793V125.741H21.0896V121.536Z" fill="#403148"/>
<path d="M21.0896 136.254H246.793V140.459H21.0896V136.254Z" fill="#403148"/>
</svg>
