<svg width="148" height="212" viewBox="0 0 148 212" fill="none" xmlns="http://www.w3.org/2000/svg">
<g clip-path="url(#clip0_1_6656)">
<path d="M0 0H148V212H0V0Z" fill="#E5D0BF"/>
<path d="M0 106H148" stroke="#403148"/>
<path d="M22 100V5" stroke="#403148"/>
<path d="M31 7H106V13H31V7Z" fill="#403148"/>
<path d="M31 116H106V122H31V116Z" fill="#403148"/>
<path d="M31 25H42V27H31V25Z" fill="#403148"/>
<path d="M31 29H61V32H31V29Z" fill="#403148"/>
<path d="M31 34H42V36H31V34Z" fill="#403148"/>
<path d="M31 38H73V41H31V38Z" fill="#403148"/>
<path d="M31 43H42V45H31V43Z" fill="#403148"/>
<path d="M31 47H51V50H31V47Z" fill="#403148"/>
<path d="M31 52H42V54H31V52Z" fill="#403148"/>
<path d="M31 56H88V59H31V56Z" fill="#403148"/>
<path d="M31 61H42V63H31V61Z" fill="#403148"/>
<path d="M31 65H101V68H31V65Z" fill="#403148"/>
<path d="M57 135H68V137H57V135Z" fill="#403148"/>
<path d="M57 139H87V142H57V139Z" fill="#403148"/>
<path d="M17 196H47V201H17V196Z" fill="#403148"/>
<path d="M57 144H68V146H57V144Z" fill="#403148"/>
<path d="M57 148H99V151H57V148Z" fill="#403148"/>
<path d="M57 153H68V155H57V153Z" fill="#403148"/>
<path d="M57 157H77V160H57V157Z" fill="#403148"/>
<path d="M57 162H68V164H57V162Z" fill="#403148"/>
<path d="M57 166H114V169H57V166Z" fill="#403148"/>
<path d="M57 171H68V173H57V171Z" fill="#403148"/>
<path d="M17 192H28V194H17V192Z" fill="#403148"/>
<path d="M57 175H105V178H57V175Z" fill="#403148"/>
<path d="M31 70H42V72H31V70Z" fill="#403148"/>
<path d="M31 74H67V77H31V74Z" fill="#403148"/>
<path d="M31.5 83.5H105.5V97.5H31.5V83.5Z" stroke="#403148"/>
<path d="M57.5 186.5H138.5V200.5H57.5V186.5Z" stroke="#403148"/>
<path d="M10.5 130.5H48.237V177.5H10.5V130.5Z" stroke="#403148"/>
<path d="M29.5 169.344L24.031 162.781V156.219H34.969V162.781L29.5 169.344Z" fill="#B6ACAD"/>
<path d="M41.531 149.656C41.531 150.866 40.551 151.844 39.344 151.844C38.134 151.844 37.156 150.866 37.156 149.656C37.156 148.448 38.134 147.469 39.344 147.469C40.551 147.469 41.531 148.448 41.531 149.656ZM21.844 149.656C21.844 148.448 20.864 147.469 19.656 147.469C18.447 147.469 17.469 148.448 17.469 149.656C17.469 150.866 18.447 151.844 19.656 151.844C20.864 151.844 21.844 150.866 21.844 149.656Z" fill="#B6ACAD"/>
<path d="M39.344 143.094C39.344 134.743 19.656 137.657 19.656 143.094V150.75C19.656 156.187 24.062 160.594 29.5 160.594C34.937 160.594 39.344 156.187 39.344 150.75V143.094Z" fill="#C7BABC"/>
<path d="M29.5 133.25C22.855 133.25 18.563 138.638 18.563 145.281V147.78L20.75 149.656V144.188L33.875 139.812L38.25 144.188V149.656L40.438 147.751V145.281C40.438 140.879 39.302 136.514 33.875 135.438L32.781 133.25H29.5Z" fill="#321F49"/>
<path d="M29.5 175.906L24.031 162.781L29.5 163.875L34.969 162.781L29.5 175.906Z" fill="white"/>
<path d="M28.406 167.156L27.677 172.04L29.5 176.415L31.323 172.04L30.594 167.156L31.688 166.062L29.5 163.875L27.313 166.062L28.406 167.156Z" fill="#321F49"/>
<path d="M34.969 162.781L29.5 175.906L24.031 162.781C24.031 162.781 12 164.953 12 177H47C47 164.996 34.969 162.781 34.969 162.781Z" fill="#7C707A"/>
</g>
<defs>
<clipPath id="clip0_1_6656">
<rect width="148" height="212" fill="white"/>
</clipPath>
</defs>
</svg>
