<svg width="170" height="176" viewBox="0 0 170 176" fill="none" xmlns="http://www.w3.org/2000/svg">
<path d="M70.8768 144.641L49.8088 119.359V94.0774H91.9465V119.36L70.8768 144.641Z" fill="#E4B692"/>
<path d="M114.437 65.8977C114.437 67.5647 113.943 69.1942 113.017 70.5802C112.091 71.9662 110.774 73.0465 109.234 73.6844C107.694 74.3223 106 74.4893 104.365 74.164C102.73 73.8388 101.228 73.0361 100.049 71.8574C98.8705 70.6787 98.0678 69.1769 97.7426 67.542C97.4174 65.9071 97.5843 64.2125 98.2222 62.6724C98.8601 61.1323 99.9404 59.816 101.326 58.8899C102.712 57.9638 104.342 57.4695 106.009 57.4695C107.116 57.469 108.212 57.6867 109.235 58.1101C110.258 58.5335 111.187 59.1543 111.97 59.937C112.752 60.7197 113.373 61.6491 113.797 62.6718C114.22 63.6946 114.438 64.7908 114.437 65.8977ZM38.5901 65.8977C38.5901 64.2308 38.0958 62.6013 37.1697 61.2152C36.2436 59.8292 34.9273 58.749 33.3872 58.1111C31.8472 57.4731 30.1525 57.3062 28.5176 57.6314C26.8827 57.9566 25.3809 58.7594 24.2022 59.9381C23.0235 61.1168 22.2208 62.6186 21.8956 64.2535C21.5704 65.8884 21.7373 67.583 22.3752 69.1231C23.0131 70.6631 24.0934 71.9795 25.4794 72.9056C26.8654 73.8317 28.4949 74.326 30.1619 74.326C31.2687 74.326 32.3647 74.108 33.3872 73.6844C34.4098 73.2609 35.3389 72.64 36.1216 71.8574C36.9042 71.0748 37.525 70.1456 37.9486 69.1231C38.3721 68.1005 38.5901 67.0046 38.5901 65.8977Z" fill="#E4B692"/>
<path d="M108.497 37.9245C108.497 5.75242 32.6503 16.9787 32.6503 37.9245V67.4207C32.6159 72.4228 33.5714 77.3823 35.4618 82.0137C37.3522 86.645 40.1401 90.8565 43.6651 94.4058C47.19 97.9551 51.3823 100.772 56.0005 102.694C60.6187 104.616 65.5716 105.606 70.5738 105.606C75.5761 105.606 80.5289 104.616 85.1471 102.694C89.7653 100.772 93.9576 97.9551 97.4825 94.4058C101.007 90.8565 103.795 86.645 105.686 82.0137C107.576 77.3823 108.532 72.4228 108.497 67.4207V37.9245Z" fill="#F1C9A5"/>
<path d="M70.4516 0C44.8526 0 28.314 20.7572 28.314 46.3509V55.9788L36.7422 63.2056V42.1376L87.3099 25.2829L104.165 42.1376V63.2056L112.593 55.8656V46.3473C112.593 29.3866 108.218 12.5696 87.3099 8.42285L83.0931 0H70.4516Z" fill="#1B1B1B"/>
<path d="M70.8768 171.785L49.8088 121.221L70.8768 125.434L91.9447 121.221L70.8768 171.785Z" fill="white"/>
<path d="M66.8074 138.077L63.9968 156.891L71.0206 173.746L78.0445 156.891L75.2339 138.077L79.4471 133.864L71.0188 125.436L62.5906 133.864L66.8074 138.077Z" fill="#A91B1B"/>
<path d="M89.1621 121.221L68.0942 171.785L47.0244 121.221C47.0244 121.221 0.673584 129.59 0.673584 176H135.513C135.513 129.753 89.1621 121.221 89.1621 121.221Z" fill="#3C7C85"/>
<g clip-path="url(#clip0_388_4773)">
<path d="M131.002 122H166.002V172.135H131.002V122Z" fill="#E5D0BF"/>
<path d="M131.002 147.067H166.002" stroke="#403148" stroke-width="0.236486"/>
<path d="M136.209 145.649V123.183" stroke="#403148" stroke-width="0.236486"/>
<path d="M138.328 123.656H156.064V125.074H138.328V123.656Z" fill="#403148"/>
<path d="M138.328 149.433H156.064V150.852H138.328V149.433Z" fill="#403148"/>
<path d="M138.328 127.912H140.929V128.385H138.328V127.912Z" fill="#403148"/>
<path d="M138.328 128.858H145.422V129.567H138.328V128.858Z" fill="#403148"/>
<path d="M138.328 130.041H140.929V130.514H138.328V130.041Z" fill="#403148"/>
<path d="M138.328 130.986H148.26V131.696H138.328V130.986Z" fill="#403148"/>
<path d="M138.328 132.169H140.929V132.642H138.328V132.169Z" fill="#403148"/>
<path d="M138.328 133.115H143.058V133.824H138.328V133.115Z" fill="#403148"/>
<path d="M138.328 134.297H140.929V134.77H138.328V134.297Z" fill="#403148"/>
<path d="M138.328 135.243H151.808V135.953H138.328V135.243Z" fill="#403148"/>
<path d="M138.328 136.426H140.929V136.899H138.328V136.426Z" fill="#403148"/>
<path d="M138.328 137.372H154.882V138.081H138.328V137.372Z" fill="#403148"/>
<path d="M144.479 153.926H147.08V154.399H144.479V153.926Z" fill="#403148"/>
<path d="M144.479 154.872H151.574V155.581H144.479V154.872Z" fill="#403148"/>
<path d="M135.025 168.351H142.12V169.534H135.025V168.351Z" fill="#403148"/>
<path d="M144.479 156.054H147.08V156.527H144.479V156.054Z" fill="#403148"/>
<path d="M144.479 157H154.411V157.709H144.479V157Z" fill="#403148"/>
<path d="M144.479 158.183H147.08V158.656H144.479V158.183Z" fill="#403148"/>
<path d="M144.479 159.128H149.209V159.838H144.479V159.128Z" fill="#403148"/>
<path d="M144.479 160.311H147.08V160.784H144.479V160.311Z" fill="#403148"/>
<path d="M144.479 161.257H157.959V161.966H144.479V161.257Z" fill="#403148"/>
<path d="M144.479 162.439H147.08V162.912H144.479V162.439Z" fill="#403148"/>
<path d="M135.025 167.406H137.627V167.878H135.025V167.406Z" fill="#403148"/>
<path d="M144.479 163.385H155.83V164.095H144.479V163.385Z" fill="#403148"/>
<path d="M138.328 138.554H140.929V139.027H138.328V138.554Z" fill="#403148"/>
<path d="M138.328 139.5H146.841V140.209H138.328V139.5Z" fill="#403148"/>
<path d="M138.453 141.747H155.953V145.058H138.453V141.747Z" stroke="#403148" stroke-width="0.236486"/>
<path d="M144.604 166.105H163.759V169.416H144.604V166.105Z" stroke="#403148" stroke-width="0.236486"/>
<path d="M133.485 152.862H142.41V163.976H133.485V152.862Z" stroke="#403148" stroke-width="0.236486"/>
<path d="M137.974 162.048L136.681 160.496V158.944H139.268V160.496L137.974 162.048Z" fill="#B6ACAD"/>
<path d="M140.822 157.391C140.822 157.678 140.591 157.909 140.305 157.909C140.019 157.909 139.788 157.678 139.788 157.391C139.788 157.106 140.019 156.874 140.305 156.874C140.591 156.874 140.822 157.106 140.822 157.391ZM136.167 157.391C136.167 157.106 135.935 156.874 135.649 156.874C135.363 156.874 135.132 157.106 135.132 157.391C135.132 157.678 135.363 157.909 135.649 157.909C135.935 157.909 136.167 157.678 136.167 157.391Z" fill="#B6ACAD"/>
<path d="M140.304 155.84C140.304 153.865 135.648 154.554 135.648 155.84V157.65C135.648 158.936 136.69 159.978 137.976 159.978C139.262 159.978 140.304 158.936 140.304 157.65V155.84Z" fill="#C7BABC"/>
<path d="M137.977 153.512C136.405 153.512 135.39 154.786 135.39 156.357V156.948L135.908 157.392V156.098L139.011 155.064L140.046 156.098V157.392L140.564 156.941V156.357C140.564 155.316 140.295 154.284 139.011 154.029L138.753 153.512H137.977Z" fill="#321F49"/>
<path d="M137.974 163.599L136.681 160.495L137.974 160.754L139.268 160.495L137.974 163.599Z" fill="white"/>
<path d="M137.714 161.53L137.542 162.685L137.973 163.72L138.404 162.685L138.231 161.53L138.49 161.271L137.973 160.754L137.456 161.271L137.714 161.53Z" fill="#321F49"/>
<path d="M139.273 160.495L137.98 163.599L136.686 160.495C136.686 160.495 133.841 161.009 133.841 163.858H142.118C142.118 161.019 139.273 160.495 139.273 160.495Z" fill="#7C707A"/>
</g>
<path d="M155.003 116.201C154.267 115.502 153.319 115.067 152.309 114.966C151.165 114.868 150.02 115.142 149.045 115.749C148.68 115.965 148.272 116.098 147.849 116.138C147.426 116.178 147 116.123 146.601 115.979C145.92 115.742 145.213 115.589 144.495 115.521C143.626 115.475 142.774 115.765 142.115 116.332C141.605 116.798 141.193 117.36 140.904 117.988C140.615 118.615 140.455 119.293 140.434 119.984C140.24 123.743 140.339 127.512 140.73 131.257L140.784 131.937C140.805 132.964 141.166 133.955 141.811 134.755C142.264 135.267 142.895 135.588 143.575 135.653C144.32 135.727 145.068 135.543 145.694 135.134C146.258 134.742 146.665 134.163 146.842 133.5C146.802 133.225 146.795 132.946 146.822 132.67L147.645 123.992C147.657 123.843 147.681 123.694 147.716 123.549C147.729 123.495 147.747 123.443 147.769 123.392C147.781 123.366 147.796 123.34 147.813 123.317C147.844 123.275 147.885 123.242 147.932 123.222C147.974 123.204 148.02 123.197 148.066 123.203C148.111 123.209 148.154 123.226 148.191 123.254C148.232 123.286 148.263 123.329 148.282 123.378C148.303 123.436 148.314 123.496 148.316 123.557C148.324 123.725 148.318 123.893 148.298 124.06L147.476 132.738C147.452 133.006 147.405 133.27 147.338 133.53C147.491 134.264 147.91 134.915 148.514 135.358C149.215 135.9 150.048 136.245 150.928 136.355C151.732 136.417 152.535 136.229 153.228 135.816C153.832 135.458 154.287 134.896 154.512 134.231C154.485 133.955 154.485 133.678 154.512 133.403L155.335 124.725C155.347 124.575 155.371 124.427 155.407 124.281C155.42 124.228 155.437 124.175 155.459 124.125C155.47 124.098 155.485 124.073 155.502 124.05C155.532 124.008 155.573 123.975 155.62 123.954C155.662 123.936 155.709 123.93 155.754 123.936C155.799 123.941 155.842 123.959 155.879 123.987C155.92 124.019 155.952 124.062 155.971 124.111C155.991 124.168 156.003 124.229 156.005 124.29C156.013 124.458 156.007 124.626 155.988 124.793L155.166 133.471C155.141 133.747 155.087 134.021 155.006 134.286C155.088 134.943 155.385 135.554 155.852 136.023C156.424 136.591 157.174 136.944 157.977 137.025C158.602 137.067 159.224 136.9 159.744 136.55C160.264 136.201 160.653 135.688 160.85 135.093C160.843 134.934 160.847 134.776 160.863 134.619L161.62 126.618C161.633 126.468 161.657 126.32 161.692 126.174C161.705 126.121 161.723 126.07 161.744 126.02C161.757 125.992 161.772 125.967 161.789 125.942C161.821 125.9 161.863 125.867 161.911 125.847C161.954 125.83 162 125.824 162.045 125.831C162.09 125.837 162.132 125.855 162.168 125.883C162.209 125.916 162.24 125.959 162.258 126.007C162.278 126.065 162.29 126.125 162.292 126.187C162.299 126.355 162.293 126.523 162.274 126.69L161.574 134.085C161.54 134.452 161.461 134.814 161.34 135.163C161.368 135.52 161.48 135.867 161.665 136.174C161.85 136.481 162.104 136.741 162.407 136.933C163.001 137.321 163.678 137.561 164.383 137.636C164.927 137.706 165.478 137.573 165.931 137.262C166.267 136.967 166.535 136.602 166.717 136.194C166.899 135.785 166.991 135.342 166.987 134.895L167.942 124.811C168.06 124.288 168.071 123.746 167.973 123.219C167.875 122.692 167.671 122.19 167.373 121.744C167.074 121.299 166.689 120.918 166.239 120.626C165.789 120.334 165.285 120.137 164.756 120.046C164.499 120.022 164.24 120.016 163.982 120.03C163.46 120.064 162.939 119.952 162.476 119.709C162.014 119.466 161.627 119.1 161.358 118.651C161.082 118.147 160.683 117.72 160.199 117.409C159.715 117.099 159.161 116.915 158.587 116.875C158.157 116.835 157.724 116.849 157.298 116.914C156.886 116.975 156.466 116.943 156.069 116.819C155.672 116.696 155.307 116.485 155.003 116.201Z" fill="#F1C9A5" stroke="#E4B692" stroke-width="2.62922"/>
<defs>
<clipPath id="clip0_388_4773">
<rect width="35" height="50.1351" fill="white" transform="translate(131.002 122)"/>
</clipPath>
</defs>
</svg>
