<svg width="20" height="29" viewBox="0 0 20 29" fill="none" xmlns="http://www.w3.org/2000/svg">
<path d="M15.2713 1H3.9302C2.3119 1 1 2.3119 1 3.9302V24.9984C1 26.6167 2.3119 27.9286 3.9302 27.9286H15.2713C16.8896 27.9286 18.2015 26.6167 18.2015 24.9984V3.9302C18.2015 2.3119 16.8896 1 15.2713 1Z" stroke="#47AAAF" stroke-width="1.89789"/>
<path d="M14.0782 3.77542H7.49825C6.89305 3.77542 6.40234 4.28602 6.40234 4.91592V4.91752C6.40234 5.54742 6.89305 6.05812 7.49825 6.05812H14.0782C14.6834 6.05812 15.1741 5.54742 15.1741 4.91752V4.91592C15.1741 4.28602 14.6834 3.77542 14.0782 3.77542Z" fill="#47AAAF"/>
<path d="M4.5835 3.77542H4.58191C3.95201 3.77542 3.44141 4.28602 3.44141 4.91592V4.91752C3.44141 5.54742 3.95201 6.05812 4.58191 6.05812H4.5835C5.2134 6.05812 5.72411 5.54742 5.72411 4.91752V4.91592C5.72411 4.28602 5.2134 3.77542 4.5835 3.77542Z" fill="#47AAAF"/>
<path d="M12.7578 23.0722H6.17793C5.57263 23.0722 5.08203 23.602 5.08203 24.2556V24.2572C5.08203 24.9108 5.57263 25.4406 6.17793 25.4406H12.7578C13.3631 25.4406 13.8537 24.9108 13.8537 24.2572V24.2556C13.8537 23.602 13.3631 23.0722 12.7578 23.0722Z" fill="#47AAAF"/>
</svg>
