<svg width="84" height="84" viewBox="0 0 84 84" fill="none" xmlns="http://www.w3.org/2000/svg">
<g filter="url(#filter0_d_1063_4275)">
<rect x="4" width="76" height="76" rx="20.2667" fill="#F3F9F9"/>
</g>
<path d="M47.6815 24.0684H36.3404C34.7221 24.0684 33.4102 25.3803 33.4102 26.9986V48.0668C33.4102 49.6851 34.7221 50.997 36.3404 50.997H47.6815C49.2998 50.997 50.6117 49.6851 50.6117 48.0668V26.9986C50.6117 25.3803 49.2998 24.0684 47.6815 24.0684Z" stroke="#47AAAF" stroke-width="1.89789"/>
<path d="M46.4884 26.8438H39.9084C39.3032 26.8438 38.8125 27.3544 38.8125 27.9843V27.9859C38.8125 28.6158 39.3032 29.1265 39.9084 29.1265H46.4884C47.0936 29.1265 47.5843 28.6158 47.5843 27.9859V27.9843C47.5843 27.3544 47.0936 26.8438 46.4884 26.8438Z" fill="#47AAAF"/>
<path d="M36.9937 26.8438H36.9921C36.3622 26.8438 35.8516 27.3544 35.8516 27.9843V27.9859C35.8516 28.6158 36.3622 29.1265 36.9921 29.1265H36.9937C37.6236 29.1265 38.1343 28.6158 38.1343 27.9859V27.9843C38.1343 27.3544 37.6236 26.8438 36.9937 26.8438Z" fill="#47AAAF"/>
<path d="M45.168 46.1406H38.5881C37.9828 46.1406 37.4922 46.6704 37.4922 47.324V47.3256C37.4922 47.9792 37.9828 48.509 38.5881 48.509H45.168C45.7733 48.509 46.2639 47.9792 46.2639 47.3256V47.324C46.2639 46.6704 45.7733 46.1406 45.168 46.1406Z" fill="#47AAAF"/>
<defs>
<filter id="filter0_d_1063_4275" x="0" y="0" width="84" height="84" filterUnits="userSpaceOnUse" color-interpolation-filters="sRGB">
<feFlood flood-opacity="0" result="BackgroundImageFix"/>
<feColorMatrix in="SourceAlpha" type="matrix" values="0 0 0 0 0 0 0 0 0 0 0 0 0 0 0 0 0 0 127 0" result="hardAlpha"/>
<feOffset dy="4"/>
<feGaussianBlur stdDeviation="2"/>
<feComposite in2="hardAlpha" operator="out"/>
<feColorMatrix type="matrix" values="0 0 0 0 0.620833 0 0 0 0 0.620833 0 0 0 0 0.620833 0 0 0 0.1 0"/>
<feBlend mode="normal" in2="BackgroundImageFix" result="effect1_dropShadow_1063_4275"/>
<feBlend mode="normal" in="SourceGraphic" in2="effect1_dropShadow_1063_4275" result="shape"/>
</filter>
</defs>
</svg>
