<svg width="68" height="68" viewBox="0 0 68 68" fill="none" xmlns="http://www.w3.org/2000/svg">
<rect width="68" height="68" rx="16" fill="#47AAAF" fill-opacity="0.06"/>
<path d="M39.6815 20.0684H28.3404C26.7221 20.0684 25.4102 21.3803 25.4102 22.9986V44.0668C25.4102 45.6851 26.7221 46.997 28.3404 46.997H39.6815C41.2998 46.997 42.6117 45.6851 42.6117 44.0668V22.9986C42.6117 21.3803 41.2998 20.0684 39.6815 20.0684Z" stroke="#47AAAF" stroke-width="1.89789"/>
<path d="M38.4884 22.8438H31.9084C31.3032 22.8438 30.8125 23.3544 30.8125 23.9843V23.9859C30.8125 24.6158 31.3032 25.1265 31.9084 25.1265H38.4884C39.0936 25.1265 39.5843 24.6158 39.5843 23.9859V23.9843C39.5843 23.3544 39.0936 22.8438 38.4884 22.8438Z" fill="#47AAAF"/>
<path d="M28.9957 22.8438H28.9941C28.3642 22.8438 27.8535 23.3544 27.8535 23.9843V23.9859C27.8535 24.6158 28.3642 25.1265 28.9941 25.1265H28.9957C29.6256 25.1265 30.1362 24.6158 30.1362 23.9859V23.9843C30.1362 23.3544 29.6256 22.8438 28.9957 22.8438Z" fill="#47AAAF"/>
<path d="M37.17 42.1406H30.59C29.9848 42.1406 29.4941 42.6704 29.4941 43.324V43.3256C29.4941 43.9792 29.9848 44.509 30.59 44.509H37.17C37.7752 44.509 38.2659 43.9792 38.2659 43.3256V43.324C38.2659 42.6704 37.7752 42.1406 37.17 42.1406Z" fill="#47AAAF"/>
</svg>
