<svg width="41" height="28" viewBox="0 0 41 28" fill="none" xmlns="http://www.w3.org/2000/svg">
<g clip-path="url(#clip0_1_4644)">
<path d="M2.24546 0.0435791H37.9578C39.1717 0.0435791 40.1603 1.03216 40.1603 2.24607V14H0.0429688V2.24607C0.0429688 1.03216 1.03155 0.0435791 2.24546 0.0435791Z" fill="white"/>
<path d="M0.0429688 13.9998H40.1676V25.7537C40.1676 26.9676 39.179 27.9561 37.9651 27.9561H2.24546C1.03155 27.9561 0.0429688 26.9603 0.0429688 25.7537V13.9998Z" fill="#D52B1E"/>
<path d="M0.0429688 9.34778H40.1676V18.652H0.0429688V9.34778Z" fill="#0039A6"/>
<path d="M2.24546 0.0435791H37.9578C39.1717 0.0435791 40.1603 1.03216 40.1603 2.24607V25.7466C40.1603 26.9605 39.1717 27.9491 37.9578 27.9491H2.24546C1.03155 27.9491 0.0429688 26.9532 0.0429688 25.7466V2.24607C0.0429687 1.03216 1.03155 0.0435791 2.24546 0.0435791Z" stroke="#CCCCCC" stroke-width="0.0871547" stroke-miterlimit="2.6131"/>
</g>
<defs>
<clipPath id="clip0_1_4644">
<rect width="40.2118" height="28" fill="white"/>
</clipPath>
</defs>
</svg>
