<svg width="28" height="29" viewBox="0 0 28 29" fill="none" xmlns="http://www.w3.org/2000/svg">
<path d="M25.446 26.9103V25.9931L24.5699 25.9639C24.5699 25.9639 24.7483 24.9063 24.5377 24.5406C24.3241 24.1778 24.2656 24.0433 24.2656 23.7346C24.2656 23.426 24.052 23.0398 23.6001 22.9798C23.1481 22.9287 22.7531 22.8423 22.7224 23.3719C22.6917 23.8999 22.9052 24.2919 22.7531 24.5143C22.6025 24.7366 22.3918 25.2091 22.3918 25.2091V24.6547H20.6658V24.0126H20.303V8.2514C20.303 8.2514 20.3484 3.692 15.3721 2.7953L15.5842 1.1702L15.4818 1.0269L14.8118 1.5695L13.8318 0.0205002L13.725 0.0102005V0L13.6621 0.00729942L13.5992 0V0.0116997L13.4968 0.0205002L12.5138 1.5681L11.8454 1.0254L11.7386 1.1673L11.9507 2.7939C6.9744 3.6891 7.0212 8.2514 7.0212 8.2514V24.014H6.6585V24.6562H4.9339V25.2105C4.9339 25.2105 4.7203 24.7395 4.5696 24.5157C4.419 24.2919 4.6325 23.9014 4.6004 23.3733C4.5696 22.8453 4.1747 22.9301 3.7227 22.9813C3.2678 23.0413 3.0572 23.4274 3.0572 23.7361C3.0572 24.0447 2.9957 24.1793 2.7822 24.5421C2.5715 24.9078 2.7544 25.9653 2.7544 25.9653L1.8767 25.9946V26.9147H0V28.5295H27.3242V26.9147H25.446V26.9103ZM18.0928 25.0189H16.2965V23.8385H15.2682V23.5298H14.708C14.7285 22.4591 14.7533 19.7676 14.648 19.402C14.5076 18.9456 14.4886 18.7364 14.4886 18.5711C14.4886 18.4087 14.5851 18.2595 14.5851 18.2595C14.5851 18.2595 14.8601 19.0904 15.1527 18.988C15.4452 18.8827 15.3882 18.6106 15.0766 18.0314C14.7621 17.4521 14.7255 17.3058 14.4886 17.2225C14.2589 17.1391 14.06 16.9738 14.1565 16.7427C14.256 16.5145 14.275 16.1005 14.117 15.9338C13.962 15.7685 13.7499 15.7685 13.5539 15.9118C13.3579 16.0581 13.3198 16.2439 13.3783 16.5145C13.4354 16.7836 13.4573 17.0572 13.3198 17.0572C13.1809 17.0572 12.7347 16.7002 12.7347 16.3082C12.7347 15.9118 12.8883 14.9976 12.7947 14.9157C12.6952 14.8323 12.5958 14.727 12.5958 14.727L12.5592 14.354L12.8517 14.3364C12.8517 14.3364 12.9088 14.1448 12.8517 14.0015C12.7932 13.8523 12.5592 13.8333 12.4217 13.8333C12.2827 13.8333 12.1057 13.9605 12.1277 14.1039C12.1467 14.2531 12.2652 14.3789 12.2652 14.3789H12.4027L12.4817 14.7928C12.4817 14.7928 12.3646 15.0444 12.3456 15.2697C12.3222 15.4979 12.2052 16.4955 12.2257 16.7237C12.2476 16.9518 12.8898 17.8661 12.9717 18.0123C13.0507 18.1586 13.1633 18.5126 13.0858 18.6121C13.0083 18.7174 12.4612 19.5468 12.3646 19.8627C12.2681 20.1684 12.2257 20.7945 12.3837 20.9203C12.5387 21.0432 13.0682 21.3372 13.0682 21.3372V23.5313H12.4539V23.8399H11.2617V25.0204H9.23V24.014L11.4694 15.4086C11.4694 15.4086 11.4694 11.0613 11.4694 9.0852C11.4694 7.3591 12.5972 6.9803 13.6621 6.9803C14.5617 6.9803 15.8548 7.3606 15.8548 9.0852C15.8548 11.0628 15.8548 15.4086 15.8548 15.4086L18.0928 24.014V25.0189ZM19.5789 23.9219H18.5623V8.3582C18.5623 8.3216 18.4336 4.3956 13.864 4.3956H13.3783C8.8145 4.3956 8.6858 8.3216 8.6858 8.3582V23.9248H7.6677V8.3582C7.6677 7.0695 8.7195 3.376 13.3769 3.376H13.861C18.5272 3.376 19.576 7.0695 19.576 8.3582L19.5789 23.9219Z" fill="#47AAAF"/>
</svg>
