<svg width="84" height="84" viewBox="0 0 84 84" fill="none" xmlns="http://www.w3.org/2000/svg">
<g filter="url(#filter0_d_1_19073)">
<rect x="4" width="76" height="76" rx="20.2667" fill="#F3F9F9"/>
</g>
<path d="M53.446 50.9103V49.9931L52.5699 49.9639C52.5699 49.9639 52.7483 48.9063 52.5377 48.5406C52.3241 48.1778 52.2656 48.0433 52.2656 47.7346C52.2656 47.426 52.052 47.0398 51.6001 46.9798C51.1481 46.9287 50.7531 46.8423 50.7224 47.3719C50.6917 47.8999 50.9052 48.2919 50.7531 48.5143C50.6025 48.7366 50.3918 49.2091 50.3918 49.2091V48.6547H48.6658V48.0126H48.303V32.2514C48.303 32.2514 48.3484 27.692 43.3721 26.7953L43.5842 25.1702L43.4818 25.0269L42.8118 25.5695L41.8318 24.0205L41.725 24.0102V24L41.6621 24.0073L41.5992 24V24.0117L41.4968 24.0205L40.5138 25.5681L39.8454 25.0254L39.7386 25.1673L39.9507 26.7939C34.9744 27.6891 35.0212 32.2514 35.0212 32.2514V48.014H34.6585V48.6562H32.9339V49.2105C32.9339 49.2105 32.7203 48.7395 32.5696 48.5157C32.419 48.2919 32.6325 47.9014 32.6004 47.3733C32.5696 46.8453 32.1747 46.9301 31.7227 46.9813C31.2678 47.0413 31.0572 47.4274 31.0572 47.7361C31.0572 48.0447 30.9957 48.1793 30.7822 48.5421C30.5715 48.9078 30.7544 49.9653 30.7544 49.9653L29.8767 49.9946V50.9147H28V52.5295H55.3242V50.9147H53.446V50.9103ZM46.0928 49.0189H44.2965V47.8385H43.2682V47.5298H42.708C42.7285 46.4591 42.7533 43.7676 42.648 43.402C42.5076 42.9456 42.4886 42.7364 42.4886 42.5711C42.4886 42.4087 42.5851 42.2595 42.5851 42.2595C42.5851 42.2595 42.8601 43.0904 43.1527 42.988C43.4452 42.8827 43.3882 42.6106 43.0766 42.0314C42.7621 41.4521 42.7255 41.3058 42.4886 41.2225C42.2589 41.1391 42.06 40.9738 42.1565 40.7427C42.256 40.5145 42.275 40.1005 42.117 39.9338C41.962 39.7685 41.7499 39.7685 41.5539 39.9118C41.3579 40.0581 41.3198 40.2439 41.3783 40.5145C41.4354 40.7836 41.4573 41.0572 41.3198 41.0572C41.1809 41.0572 40.7347 40.7002 40.7347 40.3082C40.7347 39.9118 40.8883 38.9976 40.7947 38.9157C40.6952 38.8323 40.5958 38.727 40.5958 38.727L40.5592 38.354L40.8517 38.3364C40.8517 38.3364 40.9088 38.1448 40.8517 38.0015C40.7932 37.8523 40.5592 37.8333 40.4217 37.8333C40.2827 37.8333 40.1057 37.9605 40.1277 38.1039C40.1467 38.2531 40.2652 38.3789 40.2652 38.3789H40.4027L40.4817 38.7928C40.4817 38.7928 40.3646 39.0444 40.3456 39.2697C40.3222 39.4979 40.2052 40.4955 40.2257 40.7237C40.2476 40.9518 40.8898 41.8661 40.9717 42.0123C41.0507 42.1586 41.1633 42.5126 41.0858 42.6121C41.0083 42.7174 40.4612 43.5468 40.3646 43.8627C40.2681 44.1684 40.2257 44.7945 40.3837 44.9203C40.5387 45.0432 41.0682 45.3372 41.0682 45.3372V47.5313H40.4539V47.8399H39.2617V49.0204H37.23V48.014L39.4694 39.4086C39.4694 39.4086 39.4694 35.0613 39.4694 33.0852C39.4694 31.3591 40.5972 30.9803 41.6621 30.9803C42.5617 30.9803 43.8548 31.3606 43.8548 33.0852C43.8548 35.0628 43.8548 39.4086 43.8548 39.4086L46.0928 48.014V49.0189ZM47.5789 47.9219H46.5623V32.3582C46.5623 32.3216 46.4336 28.3956 41.864 28.3956H41.3783C36.8145 28.3956 36.6858 32.3216 36.6858 32.3582V47.9248H35.6677V32.3582C35.6677 31.0695 36.7195 27.376 41.3769 27.376H41.861C46.5272 27.376 47.576 31.0695 47.576 32.3582L47.5789 47.9219Z" fill="#47AAAF"/>
<defs>
<filter id="filter0_d_1_19073" x="0" y="0" width="84" height="84" filterUnits="userSpaceOnUse" color-interpolation-filters="sRGB">
<feFlood flood-opacity="0" result="BackgroundImageFix"/>
<feColorMatrix in="SourceAlpha" type="matrix" values="0 0 0 0 0 0 0 0 0 0 0 0 0 0 0 0 0 0 127 0" result="hardAlpha"/>
<feOffset dy="4"/>
<feGaussianBlur stdDeviation="2"/>
<feComposite in2="hardAlpha" operator="out"/>
<feColorMatrix type="matrix" values="0 0 0 0 0.620833 0 0 0 0 0.620833 0 0 0 0 0.620833 0 0 0 0.1 0"/>
<feBlend mode="normal" in2="BackgroundImageFix" result="effect1_dropShadow_1_19073"/>
<feBlend mode="normal" in="SourceGraphic" in2="effect1_dropShadow_1_19073" result="shape"/>
</filter>
</defs>
</svg>
