<svg width="68" height="68" viewBox="0 0 68 68" fill="none" xmlns="http://www.w3.org/2000/svg">
<rect width="68" height="68" rx="16" fill="#47AAAF" fill-opacity="0.06"/>
<path d="M45.446 46.9103V45.9931L44.5699 45.9639C44.5699 45.9639 44.7483 44.9063 44.5377 44.5406C44.3241 44.1778 44.2656 44.0433 44.2656 43.7346C44.2656 43.426 44.052 43.0398 43.6001 42.9798C43.1481 42.9287 42.7531 42.8423 42.7224 43.3719C42.6917 43.8999 42.9052 44.2919 42.7531 44.5143C42.6025 44.7366 42.3918 45.2091 42.3918 45.2091V44.6547H40.6658V44.0126H40.303V28.2514C40.303 28.2514 40.3484 23.692 35.3721 22.7953L35.5842 21.1702L35.4818 21.0269L34.8118 21.5695L33.8318 20.0205L33.725 20.0102V20L33.6621 20.0073L33.5992 20V20.0117L33.4968 20.0205L32.5138 21.5681L31.8454 21.0254L31.7386 21.1673L31.9507 22.7939C26.9744 23.6891 27.0212 28.2514 27.0212 28.2514V44.014H26.6585V44.6562H24.9339V45.2105C24.9339 45.2105 24.7203 44.7395 24.5696 44.5157C24.419 44.2919 24.6325 43.9014 24.6004 43.3733C24.5696 42.8453 24.1747 42.9301 23.7227 42.9813C23.2678 43.0413 23.0572 43.4274 23.0572 43.7361C23.0572 44.0447 22.9957 44.1793 22.7822 44.5421C22.5715 44.9078 22.7544 45.9653 22.7544 45.9653L21.8767 45.9946V46.9147H20V48.5295H47.3242V46.9147H45.446V46.9103ZM38.0928 45.0189H36.2965V43.8385H35.2682V43.5298H34.708C34.7285 42.4591 34.7533 39.7676 34.648 39.402C34.5076 38.9456 34.4886 38.7364 34.4886 38.5711C34.4886 38.4087 34.5851 38.2595 34.5851 38.2595C34.5851 38.2595 34.8601 39.0904 35.1527 38.988C35.4452 38.8827 35.3882 38.6106 35.0766 38.0314C34.7621 37.4521 34.7255 37.3058 34.4886 37.2225C34.2589 37.1391 34.06 36.9738 34.1565 36.7427C34.256 36.5145 34.275 36.1005 34.117 35.9338C33.962 35.7685 33.7499 35.7685 33.5539 35.9118C33.3579 36.0581 33.3198 36.2439 33.3783 36.5145C33.4354 36.7836 33.4573 37.0572 33.3198 37.0572C33.1809 37.0572 32.7347 36.7002 32.7347 36.3082C32.7347 35.9118 32.8883 34.9976 32.7947 34.9157C32.6952 34.8323 32.5958 34.727 32.5958 34.727L32.5592 34.354L32.8517 34.3364C32.8517 34.3364 32.9088 34.1448 32.8517 34.0015C32.7932 33.8523 32.5592 33.8333 32.4217 33.8333C32.2827 33.8333 32.1057 33.9605 32.1277 34.1039C32.1467 34.2531 32.2652 34.3789 32.2652 34.3789H32.4027L32.4817 34.7928C32.4817 34.7928 32.3646 35.0444 32.3456 35.2697C32.3222 35.4979 32.2052 36.4955 32.2257 36.7237C32.2476 36.9518 32.8898 37.8661 32.9717 38.0123C33.0507 38.1586 33.1633 38.5126 33.0858 38.6121C33.0083 38.7174 32.4612 39.5468 32.3646 39.8627C32.2681 40.1684 32.2257 40.7945 32.3837 40.9203C32.5387 41.0432 33.0682 41.3372 33.0682 41.3372V43.5313H32.4539V43.8399H31.2617V45.0204H29.23V44.014L31.4694 35.4086C31.4694 35.4086 31.4694 31.0613 31.4694 29.0852C31.4694 27.3591 32.5972 26.9803 33.6621 26.9803C34.5617 26.9803 35.8548 27.3606 35.8548 29.0852C35.8548 31.0628 35.8548 35.4086 35.8548 35.4086L38.0928 44.014V45.0189ZM39.5789 43.9219H38.5623V28.3582C38.5623 28.3216 38.4336 24.3956 33.864 24.3956H33.3783C28.8145 24.3956 28.6858 28.3216 28.6858 28.3582V43.9248H27.6677V28.3582C27.6677 27.0695 28.7195 23.376 33.3769 23.376H33.861C38.5272 23.376 39.576 27.0695 39.576 28.3582L39.5789 43.9219Z" fill="#47AAAF"/>
</svg>
