<svg width="36" height="36" viewBox="0 0 36 36" fill="none" xmlns="http://www.w3.org/2000/svg">
<circle cx="18" cy="18" r="18" fill="#EFFEFF"/>
<path d="M13.375 27.025C12.775 27.0083 12.2042 26.8542 11.6625 26.5625C11.1208 26.2708 10.6083 25.8417 10.125 25.275C9.45833 24.475 8.9375 23.5208 8.5625 22.4125C8.1875 21.3042 8 20.1667 8 19C8 17.6167 8.2625 16.3167 8.7875 15.1C9.3125 13.8833 10.025 12.825 10.925 11.925C11.825 11.025 12.8833 10.3125 14.1 9.7875C15.3167 9.2625 16.6167 9 18 9C19.3833 9 20.6833 9.26667 21.9 9.8C23.1167 10.3333 24.175 11.0583 25.075 11.975C25.975 12.8917 26.6875 13.9667 27.2125 15.2C27.7375 16.4333 28 17.7583 28 19.175C28 20.4583 27.7917 21.6583 27.375 22.775C26.9583 23.8917 26.3667 24.8333 25.6 25.6C25.1333 26.0667 24.6417 26.4208 24.125 26.6625C23.6083 26.9042 23.0833 27.025 22.55 27.025C22.25 27.025 21.95 26.9875 21.65 26.9125C21.35 26.8375 21.05 26.725 20.75 26.575L19.35 25.875C19.15 25.775 18.9375 25.7 18.7125 25.65C18.4875 25.6 18.25 25.575 18 25.575C17.75 25.575 17.5125 25.6 17.2875 25.65C17.0625 25.7 16.85 25.775 16.65 25.875L15.25 26.575C14.9333 26.7417 14.6208 26.8625 14.3125 26.9375C14.0042 27.0125 13.6917 27.0417 13.375 27.025ZM13.425 25.025C13.575 25.025 13.7292 25.0083 13.8875 24.975C14.0458 24.9417 14.2 24.8833 14.35 24.8L15.75 24.1C16.1 23.9167 16.4625 23.7833 16.8375 23.7C17.2125 23.6167 17.5917 23.575 17.975 23.575C18.3583 23.575 18.7417 23.6167 19.125 23.7C19.5083 23.7833 19.875 23.9167 20.225 24.1L21.65 24.8C21.8 24.8833 21.95 24.9417 22.1 24.975C22.25 25.0083 22.4 25.025 22.55 25.025C22.8667 25.025 23.1667 24.9417 23.45 24.775C23.7333 24.6083 24.0167 24.3583 24.3 24.025C24.8333 23.3917 25.25 22.6333 25.55 21.75C25.85 20.8667 26 19.9583 26 19.025C26 16.7917 25.225 14.8958 23.675 13.3375C22.125 11.7792 20.2333 11 18 11C15.7667 11 13.875 11.7833 12.325 13.35C10.775 14.9167 10 16.8167 10 19.05C10 20 10.1542 20.925 10.4625 21.825C10.7708 22.725 11.2 23.4833 11.75 24.1C12.0333 24.4333 12.3083 24.6708 12.575 24.8125C12.8417 24.9542 13.125 25.025 13.425 25.025ZM18 21C18.55 21 19.0208 20.8042 19.4125 20.4125C19.8042 20.0208 20 19.55 20 19C20 18.8667 19.9875 18.7333 19.9625 18.6C19.9375 18.4667 19.9 18.3333 19.85 18.2L21.1 16.525C21.2667 16.7417 21.4125 16.9708 21.5375 17.2125C21.6625 17.4542 21.7667 17.7167 21.85 18H23.9C23.65 16.5333 22.9708 15.3333 21.8625 14.4C20.7542 13.4667 19.4667 13 18 13C16.5333 13 15.2417 13.4708 14.125 14.4125C13.0083 15.3542 12.3333 16.55 12.1 18H14.15C14.3833 17.1 14.8583 16.375 15.575 15.825C16.2917 15.275 17.1 15 18 15C18.2833 15 18.55 15.025 18.8 15.075C19.05 15.125 19.2917 15.2 19.525 15.3L18.25 17.025C18.2167 17.025 18.175 17.0208 18.125 17.0125C18.075 17.0042 18.0333 17 18 17C17.45 17 16.9792 17.1958 16.5875 17.5875C16.1958 17.9792 16 18.45 16 19C16 19.55 16.1958 20.0208 16.5875 20.4125C16.9792 20.8042 17.45 21 18 21Z" fill="#47AAAF"/>
</svg>
