<svg id="vector" xmlns="http://www.w3.org/2000/svg" width="36" height="36" viewBox="0 0 36 36"><path fill="#00EFFF0F" d="M18,18m-18,0a18,18 0,1 1,36 0a18,18 0,1 1,-36 0" id="path_0"/><path fill="#47AAAF" d="M13.375,27.025C12.775,27.008 12.204,26.854 11.663,26.563C11.121,26.271 10.608,25.842 10.125,25.275C9.458,24.475 8.938,23.521 8.563,22.413C8.188,21.304 8,20.167 8,19C8,17.617 8.262,16.317 8.788,15.1C9.313,13.883 10.025,12.825 10.925,11.925C11.825,11.025 12.883,10.313 14.1,9.788C15.317,9.262 16.617,9 18,9C19.383,9 20.683,9.267 21.9,9.8C23.117,10.333 24.175,11.058 25.075,11.975C25.975,12.892 26.688,13.967 27.212,15.2C27.737,16.433 28,17.758 28,19.175C28,20.458 27.792,21.658 27.375,22.775C26.958,23.892 26.367,24.833 25.6,25.6C25.133,26.067 24.642,26.421 24.125,26.663C23.608,26.904 23.083,27.025 22.55,27.025C22.25,27.025 21.95,26.987 21.65,26.913C21.35,26.837 21.05,26.725 20.75,26.575L19.35,25.875C19.15,25.775 18.938,25.7 18.712,25.65C18.487,25.6 18.25,25.575 18,25.575C17.75,25.575 17.513,25.6 17.288,25.65C17.063,25.7 16.85,25.775 16.65,25.875L15.25,26.575C14.933,26.742 14.621,26.862 14.313,26.938C14.004,27.013 13.692,27.042 13.375,27.025ZM13.425,25.025C13.575,25.025 13.729,25.008 13.887,24.975C14.046,24.942 14.2,24.883 14.35,24.8L15.75,24.1C16.1,23.917 16.462,23.783 16.837,23.7C17.212,23.617 17.592,23.575 17.975,23.575C18.358,23.575 18.742,23.617 19.125,23.7C19.508,23.783 19.875,23.917 20.225,24.1L21.65,24.8C21.8,24.883 21.95,24.942 22.1,24.975C22.25,25.008 22.4,25.025 22.55,25.025C22.867,25.025 23.167,24.942 23.45,24.775C23.733,24.608 24.017,24.358 24.3,24.025C24.833,23.392 25.25,22.633 25.55,21.75C25.85,20.867 26,19.958 26,19.025C26,16.792 25.225,14.896 23.675,13.337C22.125,11.779 20.233,11 18,11C15.767,11 13.875,11.783 12.325,13.35C10.775,14.917 10,16.817 10,19.05C10,20 10.154,20.925 10.462,21.825C10.771,22.725 11.2,23.483 11.75,24.1C12.033,24.433 12.308,24.671 12.575,24.813C12.842,24.954 13.125,25.025 13.425,25.025ZM18,21C18.55,21 19.021,20.804 19.413,20.413C19.804,20.021 20,19.55 20,19C20,18.867 19.987,18.733 19.962,18.6C19.938,18.467 19.9,18.333 19.85,18.2L21.1,16.525C21.267,16.742 21.413,16.971 21.538,17.212C21.663,17.454 21.767,17.717 21.85,18H23.9C23.65,16.533 22.971,15.333 21.862,14.4C20.754,13.467 19.467,13 18,13C16.533,13 15.242,13.471 14.125,14.413C13.008,15.354 12.333,16.55 12.1,18H14.15C14.383,17.1 14.858,16.375 15.575,15.825C16.292,15.275 17.1,15 18,15C18.283,15 18.55,15.025 18.8,15.075C19.05,15.125 19.292,15.2 19.525,15.3L18.25,17.025C18.217,17.025 18.175,17.021 18.125,17.013C18.075,17.004 18.033,17 18,17C17.45,17 16.979,17.196 16.587,17.587C16.196,17.979 16,18.45 16,19C16,19.55 16.196,20.021 16.587,20.413C16.979,20.804 17.45,21 18,21Z" id="path_1"/></svg>