<svg width="36" height="36" viewBox="0 0 36 36" fill="none" xmlns="http://www.w3.org/2000/svg">
<circle cx="18" cy="18" r="18" fill="#EFFEFF"/>
<path d="M18 28L17.75 25H17.5C15.1333 25 13.125 24.175 11.475 22.525C9.825 20.875 9 18.8667 9 16.5C9 14.1333 9.825 12.125 11.475 10.475C13.125 8.825 15.1333 8 17.5 8C18.6833 8 19.7875 8.22083 20.8125 8.6625C21.8375 9.10417 22.7375 9.7125 23.5125 10.4875C24.2875 11.2625 24.8958 12.1625 25.3375 13.1875C25.7792 14.2125 26 15.3167 26 16.5C26 17.75 25.7958 18.95 25.3875 20.1C24.9792 21.25 24.4208 22.3167 23.7125 23.3C23.0042 24.2833 22.1625 25.175 21.1875 25.975C20.2125 26.775 19.15 27.45 18 28ZM20 24.35C21.1833 23.35 22.1458 22.1792 22.8875 20.8375C23.6292 19.4958 24 18.05 24 16.5C24 14.6833 23.3708 13.1458 22.1125 11.8875C20.8542 10.6292 19.3167 10 17.5 10C15.6833 10 14.1458 10.6292 12.8875 11.8875C11.6292 13.1458 11 14.6833 11 16.5C11 18.3167 11.6292 19.8542 12.8875 21.1125C14.1458 22.3708 15.6833 23 17.5 23H20V24.35ZM17.475 21.975C17.7583 21.975 18 21.875 18.2 21.675C18.4 21.475 18.5 21.2333 18.5 20.95C18.5 20.6667 18.4 20.425 18.2 20.225C18 20.025 17.7583 19.925 17.475 19.925C17.1917 19.925 16.95 20.025 16.75 20.225C16.55 20.425 16.45 20.6667 16.45 20.95C16.45 21.2333 16.55 21.475 16.75 21.675C16.95 21.875 17.1917 21.975 17.475 21.975ZM16.75 18.8H18.25C18.25 18.3 18.3 17.95 18.4 17.75C18.5 17.55 18.8167 17.1833 19.35 16.65C19.65 16.35 19.9 16.025 20.1 15.675C20.3 15.325 20.4 14.95 20.4 14.55C20.4 13.7 20.1125 13.0625 19.5375 12.6375C18.9625 12.2125 18.2833 12 17.5 12C16.7667 12 16.15 12.2042 15.65 12.6125C15.15 13.0208 14.8 13.5167 14.6 14.1L16 14.65C16.0833 14.3667 16.2417 14.0875 16.475 13.8125C16.7083 13.5375 17.05 13.4 17.5 13.4C17.95 13.4 18.2875 13.525 18.5125 13.775C18.7375 14.025 18.85 14.3 18.85 14.6C18.85 14.8833 18.7667 15.1375 18.6 15.3625C18.4333 15.5875 18.2333 15.8167 18 16.05C17.4167 16.55 17.0625 16.9458 16.9375 17.2375C16.8125 17.5292 16.75 18.05 16.75 18.8Z" fill="#47AAAF"/>
</svg>
