<svg width="36" height="36" viewBox="0 0 36 36" fill="none" xmlns="http://www.w3.org/2000/svg">
<circle cx="18" cy="18" r="18" fill="#EFFEFF"/>
<path d="M18 18C18.55 18 19.0208 17.8042 19.4125 17.4125C19.8042 17.0208 20 16.55 20 16C20 15.45 19.8042 14.9792 19.4125 14.5875C19.0208 14.1958 18.55 14 18 14C17.45 14 16.9792 14.1958 16.5875 14.5875C16.1958 14.9792 16 15.45 16 16C16 16.55 16.1958 17.0208 16.5875 17.4125C16.9792 17.8042 17.45 18 18 18ZM18 25.35C20.0333 23.4833 21.5417 21.7875 22.525 20.2625C23.5083 18.7375 24 17.3833 24 16.2C24 14.3833 23.4208 12.8958 22.2625 11.7375C21.1042 10.5792 19.6833 10 18 10C16.3167 10 14.8958 10.5792 13.7375 11.7375C12.5792 12.8958 12 14.3833 12 16.2C12 17.3833 12.4917 18.7375 13.475 20.2625C14.4583 21.7875 15.9667 23.4833 18 25.35ZM18 28C15.3167 25.7167 13.3125 23.5958 11.9875 21.6375C10.6625 19.6792 10 17.8667 10 16.2C10 13.7 10.8042 11.7083 12.4125 10.225C14.0208 8.74167 15.8833 8 18 8C20.1167 8 21.9792 8.74167 23.5875 10.225C25.1958 11.7083 26 13.7 26 16.2C26 17.8667 25.3375 19.6792 24.0125 21.6375C22.6875 23.5958 20.6833 25.7167 18 28Z" fill="#47AAAF"/>
</svg>
