<svg width="36" height="36" viewBox="0 0 36 36" fill="none" xmlns="http://www.w3.org/2000/svg">
<circle cx="18" cy="18" r="18" fill="#EFFEFF"/>
<path d="M18 28C15.6833 27.4167 13.7708 26.0875 12.2625 24.0125C10.7542 21.9375 10 19.6333 10 17.1V11L18 8L26 11V17.1C26 19.6333 25.2458 21.9375 23.7375 24.0125C22.2292 26.0875 20.3167 27.4167 18 28ZM18 25.9C19.7333 25.35 21.1667 24.25 22.3 22.6C23.4333 20.95 24 19.1167 24 17.1V12.375L18 10.125L12 12.375V17.1C12 19.1167 12.5667 20.95 13.7 22.6C14.8333 24.25 16.2667 25.35 18 25.9ZM16 22H20C20.2833 22 20.5208 21.9042 20.7125 21.7125C20.9042 21.5208 21 21.2833 21 21V18C21 17.7167 20.9042 17.4792 20.7125 17.2875C20.5208 17.0958 20.2833 17 20 17V16C20 15.45 19.8042 14.9792 19.4125 14.5875C19.0208 14.1958 18.55 14 18 14C17.45 14 16.9792 14.1958 16.5875 14.5875C16.1958 14.9792 16 15.45 16 16V17C15.7167 17 15.4792 17.0958 15.2875 17.2875C15.0958 17.4792 15 17.7167 15 18V21C15 21.2833 15.0958 21.5208 15.2875 21.7125C15.4792 21.9042 15.7167 22 16 22ZM17 17V16C17 15.7167 17.0958 15.4792 17.2875 15.2875C17.4792 15.0958 17.7167 15 18 15C18.2833 15 18.5208 15.0958 18.7125 15.2875C18.9042 15.4792 19 15.7167 19 16V17H17Z" fill="#47AAAF"/>
</svg>
