<svg width="36" height="36" viewBox="0 0 36 36" fill="none" xmlns="http://www.w3.org/2000/svg">
<circle cx="18" cy="18" r="18" fill="#EFFEFF"/>
<path d="M24 27H13V14L20 7L21.25 8.25C21.3667 8.36667 21.4625 8.525 21.5375 8.725C21.6125 8.925 21.65 9.11667 21.65 9.3V9.65L20.55 14H27C27.5333 14 28 14.2 28.4 14.6C28.8 15 29 15.4667 29 16V18C29 18.1167 28.9833 18.2417 28.95 18.375C28.9167 18.5083 28.8833 18.6333 28.85 18.75L25.85 25.8C25.7 26.1333 25.45 26.4167 25.1 26.65C24.75 26.8833 24.3833 27 24 27ZM15 25H24L27 18V16H18L19.35 10.5L15 14.85V25ZM13 14V16H10V25H13V27H8V14H13Z" fill="#47AAAF"/>
</svg>
