<svg width="36" height="36" viewBox="0 0 36 36" fill="none" xmlns="http://www.w3.org/2000/svg">
<circle cx="18" cy="18" r="18" fill="#EFFEFF"/>
<path d="M14 15V13H22V15H14ZM13 29C12.45 29 11.9792 28.8042 11.5875 28.4125C11.1958 28.0208 11 27.55 11 27V9C11 8.45 11.1958 7.97917 11.5875 7.5875C11.9792 7.19583 12.45 7 13 7H23C23.55 7 24.0208 7.19583 24.4125 7.5875C24.8042 7.97917 25 8.45 25 9V27C25 27.55 24.8042 28.0208 24.4125 28.4125C24.0208 28.8042 23.55 29 23 29H13ZM13 26V27H23V26H13ZM13 24H23V12H13V24ZM13 10H23V9H13V10Z" fill="#47AAAF"/>
</svg>
