<svg width="68" height="68" viewBox="0 0 68 68" fill="none" xmlns="http://www.w3.org/2000/svg">
<rect width="68" height="68" rx="16" fill="#47AAAF" fill-opacity="0.06"/>
<circle cx="34" cy="34" r="20" fill="#8331A7"/>
<path d="M43.2042 29.1992C42.8362 29.1992 42.5352 29.5003 42.5352 29.8683V38.5158H43.2042C43.5722 38.5158 43.8733 38.2148 43.8733 37.8468V29.1992H43.2042Z" fill="white"/>
<path d="M46.1339 29.1992C45.7659 29.1992 45.4648 29.5003 45.4648 29.8683V38.5158H46.1339C46.5019 38.5158 46.803 38.2148 46.803 37.8468V29.1992H46.1339Z" fill="white"/>
<path d="M30.809 33.1955H33.4769C33.8449 33.1955 34.1459 32.8945 34.1459 32.5265V31.8574H30.8174C29.7302 31.8574 28.76 32.3843 28.1495 33.1872C27.7314 33.7475 27.4805 34.4333 27.4805 35.186C27.4805 35.9387 27.7314 36.6244 28.1495 37.1848C28.76 37.996 29.7218 38.5145 30.8174 38.5145H34.1459V37.8455C34.1459 37.4775 33.8449 37.1764 33.4769 37.1764H30.809C29.7051 37.1764 28.8102 36.2816 28.8102 35.1776C28.8102 34.0904 29.7051 33.1955 30.809 33.1955Z" fill="white"/>
<path d="M21.8683 29.1992C21.5003 29.1992 21.1992 29.5003 21.1992 29.8683V30.5373H24.5278V38.5326H25.1968C25.5648 38.5326 25.8659 38.2315 25.8659 37.8635V30.5373H28.5421C28.9101 30.5373 29.2112 30.2363 29.2112 29.8683V29.1992H21.8683Z" fill="white"/>
<path d="M37.9028 33.1955H40.5706C40.9386 33.1955 41.2397 32.8945 41.2397 32.5265V31.8574H37.9111C36.8239 31.8574 35.8538 32.3843 35.2433 33.1872C34.8251 33.7475 34.5742 34.4333 34.5742 35.186C34.5742 35.9387 34.8251 36.6244 35.2433 37.1848C35.8538 37.996 36.8156 38.5145 37.9111 38.5145H41.2397V37.8455C41.2397 37.4775 40.9386 37.1764 40.5706 37.1764H37.9028C37.0246 37.1764 36.2719 36.6077 36.0043 35.8132H40.0438V35.1943C40.0438 34.8431 39.7594 34.5504 39.3998 34.5504H36.0043C36.2803 33.7642 37.0246 33.1955 37.9028 33.1955Z" fill="white"/>
</svg>
