<svg width="84" height="84" viewBox="0 0 84 84" fill="none" xmlns="http://www.w3.org/2000/svg">
<g filter="url(#filter0_d_1_10873)">
<rect x="4" width="76" height="76" rx="20.2667" fill="#F3F9F9"/>
</g>
<circle cx="42" cy="38" r="20" fill="#8331A7"/>
<path d="M51.2042 33.2004C50.8362 33.2004 50.5352 33.5015 50.5352 33.8695V42.517H51.2042C51.5722 42.517 51.8733 42.216 51.8733 41.848V33.2004H51.2042Z" fill="white"/>
<path d="M54.1339 33.2004C53.7659 33.2004 53.4648 33.5015 53.4648 33.8695V42.517H54.1339C54.5019 42.517 54.803 42.216 54.803 41.848V33.2004H54.1339Z" fill="white"/>
<path d="M38.809 37.1977H41.4769C41.8449 37.1977 42.1459 36.8967 42.1459 36.5287V35.8596H38.8174C37.7302 35.8596 36.76 36.3865 36.1495 37.1894C35.7314 37.7497 35.4805 38.4355 35.4805 39.1882C35.4805 39.9409 35.7314 40.6266 36.1495 41.187C36.76 41.9982 37.7218 42.5167 38.8174 42.5167H42.1459V41.8477C42.1459 41.4797 41.8449 41.1786 41.4769 41.1786H38.809C37.7051 41.1786 36.8102 40.2838 36.8102 39.1798C36.8102 38.0926 37.7051 37.1977 38.809 37.1977Z" fill="white"/>
<path d="M29.8683 33.2004C29.5003 33.2004 29.1992 33.5015 29.1992 33.8695V34.5386H32.5278V42.5338H33.1968C33.5648 42.5338 33.8659 42.2327 33.8659 41.8647V34.5386H36.5421C36.9101 34.5386 37.2112 34.2375 37.2112 33.8695V33.2004H29.8683Z" fill="white"/>
<path d="M45.9028 37.1977H48.5706C48.9386 37.1977 49.2397 36.8967 49.2397 36.5287V35.8596H45.9111C44.8239 35.8596 43.8538 36.3865 43.2433 37.1894C42.8251 37.7497 42.5742 38.4355 42.5742 39.1882C42.5742 39.9409 42.8251 40.6266 43.2433 41.187C43.8538 41.9982 44.8156 42.5167 45.9111 42.5167H49.2397V41.8477C49.2397 41.4797 48.9386 41.1786 48.5706 41.1786H45.9028C45.0246 41.1786 44.2719 40.6099 44.0043 39.8154H48.0438V39.1965C48.0438 38.8453 47.7594 38.5526 47.3998 38.5526H44.0043C44.2803 37.7664 45.0246 37.1977 45.9028 37.1977Z" fill="white"/>
<defs>
<filter id="filter0_d_1_10873" x="0" y="0" width="84" height="84" filterUnits="userSpaceOnUse" color-interpolation-filters="sRGB">
<feFlood flood-opacity="0" result="BackgroundImageFix"/>
<feColorMatrix in="SourceAlpha" type="matrix" values="0 0 0 0 0 0 0 0 0 0 0 0 0 0 0 0 0 0 127 0" result="hardAlpha"/>
<feOffset dy="4"/>
<feGaussianBlur stdDeviation="2"/>
<feComposite in2="hardAlpha" operator="out"/>
<feColorMatrix type="matrix" values="0 0 0 0 0.620833 0 0 0 0 0.620833 0 0 0 0 0.620833 0 0 0 0.1 0"/>
<feBlend mode="normal" in2="BackgroundImageFix" result="effect1_dropShadow_1_10873"/>
<feBlend mode="normal" in="SourceGraphic" in2="effect1_dropShadow_1_10873" result="shape"/>
</filter>
</defs>
</svg>
