<svg width="48" height="48" viewBox="0 0 48 48" fill="none" xmlns="http://www.w3.org/2000/svg">
<path d="M24 44C35.0457 44 44 35.0457 44 24C44 12.9543 35.0457 4 24 4C12.9543 4 4 12.9543 4 24C4 35.0457 12.9543 44 24 44Z" fill="url(#paint0_linear_1824_12164)"/>
<path d="M17.5469 25.4616L19.9197 32.0292C19.9197 32.0292 20.2164 32.6437 20.534 32.6437C20.8517 32.6437 25.5765 27.7284 25.5765 27.7284L30.8307 17.5801L17.6315 23.7662L17.5469 25.4616Z" fill="#C8DAEA"/>
<path d="M20.6822 27.1465L20.2267 31.9875C20.2267 31.9875 20.0361 33.4708 21.5191 31.9875C23.0021 30.5041 24.4216 29.3603 24.4216 29.3603" fill="#A9C6D8"/>
<path d="M17.595 25.6965L12.714 24.1061C12.714 24.1061 12.1307 23.8695 12.3185 23.3328C12.3572 23.2221 12.4352 23.128 12.6685 22.9661C13.75 22.2123 32.6862 15.4061 32.6862 15.4061C32.6862 15.4061 33.2208 15.226 33.5362 15.3458C33.6142 15.37 33.6844 15.4144 33.7396 15.4746C33.7948 15.5348 33.833 15.6085 33.8503 15.6883C33.8844 15.8293 33.8987 15.9743 33.8927 16.1191C33.8912 16.2445 33.876 16.3606 33.8645 16.5428C33.7492 18.4036 30.2978 32.2916 30.2978 32.2916C30.2978 32.2916 30.0913 33.1043 29.3515 33.1321C29.1697 33.138 28.9886 33.1072 28.8189 33.0416C28.6493 32.976 28.4945 32.8768 28.364 32.7501C26.9122 31.5013 21.8942 28.129 20.7853 27.3873C20.7603 27.3703 20.7393 27.3481 20.7236 27.3222C20.7079 27.2963 20.6979 27.2674 20.6943 27.2373C20.6788 27.1591 20.7638 27.0623 20.7638 27.0623C20.7638 27.0623 29.5015 19.2956 29.734 18.4803C29.752 18.4171 29.684 18.386 29.5927 18.4136C29.0123 18.6271 18.952 24.9803 17.8417 25.6815C17.7618 25.7057 17.6773 25.7108 17.595 25.6965Z" fill="white"/>
<defs>
<linearGradient id="paint0_linear_1824_12164" x1="24" y1="44" x2="24" y2="4" gradientUnits="userSpaceOnUse">
<stop stop-color="#1D93D2"/>
<stop offset="1" stop-color="#38B0E3"/>
</linearGradient>
</defs>
</svg>
