<svg width="24" height="24" viewBox="0 0 24 24" fill="none" xmlns="http://www.w3.org/2000/svg">
<path d="M19.9484 17.15L18.4484 15.65C18.6318 15.2 18.7693 14.7542 18.8609 14.3125C18.9526 13.8708 18.9984 13.4333 18.9984 13C18.9984 11.0667 18.3151 9.41667 16.9484 8.05C15.5818 6.68333 13.9318 6 11.9984 6C11.5984 6 11.1734 6.04167 10.7234 6.125C10.2734 6.20833 9.80677 6.34167 9.32344 6.525L7.82344 5.025C8.45677 4.69167 9.1276 4.4375 9.83594 4.2625C10.5443 4.0875 11.2651 4 11.9984 4C12.9984 4 13.9776 4.16667 14.9359 4.5C15.8943 4.83333 16.7984 5.31667 17.6484 5.95L19.0484 4.55L20.4484 5.95L19.0484 7.35C19.6818 8.2 20.1651 9.10417 20.4984 10.0625C20.8318 11.0208 20.9984 12 20.9984 13C20.9984 13.7 20.9109 14.3958 20.7359 15.0875C20.5609 15.7792 20.2984 16.4667 19.9484 17.15ZM12.9984 10.2V8H10.9984V8.2L12.9984 10.2ZM19.7984 22.6L17.3984 20.2C16.5984 20.7833 15.7359 21.2292 14.8109 21.5375C13.8859 21.8458 12.9484 22 11.9984 22C10.7651 22 9.6026 21.7625 8.51094 21.2875C7.41927 20.8125 6.4651 20.1667 5.64844 19.35C4.83177 18.5333 4.18594 17.5792 3.71094 16.4875C3.23594 15.3958 2.99844 14.2333 2.99844 13C2.99844 12 3.1526 11.0375 3.46094 10.1125C3.76927 9.1875 4.2151 8.35 4.79844 7.6L1.39844 4.2L2.79844 2.8L21.1984 21.2L19.7984 22.6ZM11.9984 20C12.6984 20 13.3818 19.8917 14.0484 19.675C14.7151 19.4583 15.3401 19.15 15.9234 18.75L6.19844 9.025C5.79844 9.60833 5.49844 10.2333 5.29844 10.9C5.09844 11.5667 4.99844 12.2667 4.99844 13C4.99844 14.9333 5.68177 16.5833 7.04844 17.95C8.4151 19.3167 10.0651 20 11.9984 20ZM8.99844 3V1H14.9984V3H8.99844Z" fill="#454545"/>
</svg>
