<svg width="40" height="28" viewBox="0 0 40 28" fill="none" xmlns="http://www.w3.org/2000/svg">
<path d="M0 0H40V27.8333H0V0Z" fill="white"/>
<path d="M0 2.16667C0 0.97005 0.97005 0 2.16667 0H37.8333C39.0299 0 40 0.97005 40 2.16667V7.81667H0V2.16667Z" fill="#CC0000"/>
<path d="M0 20H40V25.65C40 26.8466 39.0299 27.8167 37.8333 27.8167H2.16667C0.97005 27.8167 0 26.8466 0 25.65V20Z" fill="#006600"/>
<path d="M19.3091 13.9237C19.3523 13.8508 19.4184 13.7937 19.4975 13.7611C19.5766 13.7284 19.6644 13.7219 19.7476 13.7426C19.8308 13.7633 19.9049 13.81 19.9586 13.8758C20.0124 13.9415 20.0429 14.0226 20.0455 14.1069V15.6592H20.3426V14.1069C20.3452 14.0226 20.3757 13.9415 20.4295 13.8758C20.4832 13.81 20.5573 13.7633 20.6405 13.7426C20.7237 13.7219 20.8115 13.7284 20.8906 13.7611C20.9697 13.7937 21.0358 13.8508 21.0789 13.9237C21.1254 13.7861 21.138 13.6396 21.1155 13.4963C21.0931 13.3529 21.0364 13.2169 20.95 13.0993C20.8636 12.9818 20.75 12.886 20.6186 12.82C20.4872 12.754 20.3417 12.7195 20.194 12.7195C20.0464 12.7195 19.9009 12.754 19.7695 12.82C19.6381 12.886 19.5245 12.9818 19.4381 13.0993C19.3517 13.2169 19.295 13.3529 19.2726 13.4963C19.2501 13.6396 19.2627 13.7861 19.3091 13.9237Z" fill="#F8C300"/>
<path d="M19.5235 13.5186C19.6531 13.4926 19.7879 13.5072 19.9086 13.5604C20.0294 13.6136 20.1301 13.7027 20.1966 13.8151C20.2631 13.7027 20.3638 13.6136 20.4846 13.5604C20.6054 13.5072 20.7401 13.4926 20.8698 13.5186C20.8474 13.3588 20.7669 13.2124 20.6432 13.1064C20.5194 13.0004 20.3608 12.942 20.1966 12.942C20.0324 12.942 19.8738 13.0004 19.75 13.1064C19.6263 13.2124 19.5458 13.3588 19.5235 13.5186Z" fill="white"/>
<path d="M20.0501 15.0391C20.03 15.2594 19.9472 15.4696 19.8113 15.6459C19.6754 15.8222 19.4918 15.9574 19.2814 16.0361C19.071 16.1148 18.8424 16.1338 18.6215 16.091C18.4007 16.0482 18.1965 15.9453 18.0324 15.794C17.9622 15.967 17.8529 16.1221 17.7126 16.2474C17.5724 16.3727 17.405 16.4649 17.223 16.5172C17.0411 16.5695 16.8494 16.5803 16.6625 16.549C16.4757 16.5177 16.2985 16.4449 16.1446 16.3363C16.2599 17.4672 17.9855 17.2363 18.1141 16.1367C18.6562 17.0717 19.8483 16.8039 20.1971 15.6586L20.0501 15.0391Z" fill="#F8C300"/>
<path d="M20.3406 15.0391C20.3607 15.2594 20.4435 15.4696 20.5794 15.6459C20.7153 15.8222 20.8989 15.9574 21.1093 16.0361C21.3196 16.1148 21.5483 16.1338 21.7691 16.091C21.99 16.0482 22.1941 15.9453 22.3583 15.794C22.4285 15.967 22.5378 16.1221 22.678 16.2474C22.8183 16.3727 22.9857 16.4649 23.1677 16.5172C23.3496 16.5695 23.5413 16.5803 23.7281 16.549C23.915 16.5177 24.0921 16.4449 24.2461 16.3363C24.1308 17.4672 22.4051 17.2363 22.2766 16.1367C21.7345 17.0717 20.5424 16.8039 20.1936 15.6586L20.3406 15.0391Z" fill="#F8C300"/>
<path d="M18.9047 17.0471C18.6639 17.5577 18.1827 17.6454 17.7617 17.2333C17.7617 17.2333 17.9309 17.1158 18.1121 17.0834C18.0781 16.9414 18.1478 16.745 18.2459 16.6387C18.3489 16.7079 18.4926 16.8464 18.5291 17.0074C18.7829 16.9751 18.9047 17.0471 18.9047 17.0471Z" fill="#F8C300"/>
<path d="M20.7866 16.9894C20.4644 17.4546 19.9751 17.4642 19.6281 16.9902C19.6281 16.9902 19.8145 16.9014 19.9986 16.8984C19.9886 16.7529 20.0899 16.5702 20.2043 16.4811C20.2945 16.5657 20.4132 16.7254 20.4226 16.8901C20.6784 16.8988 20.7866 16.9894 20.7866 16.9894Z" fill="#F8C300"/>
<path d="M22.648 17.2337C22.253 17.6413 21.7686 17.5724 21.5048 17.0493C21.5048 17.0493 21.7034 16.9915 21.8856 17.018C21.8999 16.8728 22.0301 16.7087 22.1578 16.6391C22.2327 16.737 22.3234 16.9136 22.3054 17.0775C22.5562 17.1271 22.648 17.2337 22.648 17.2337Z" fill="#F8C300"/>
<path d="M20.2056 10.0001L20.6827 11.4425L19.4336 10.551H20.9776L19.7285 11.4425L20.2056 10.0001Z" fill="#F8C300"/>
<path d="M17.9869 10.5823L18.464 12.0248L17.2149 11.1333H18.7588L17.5098 12.0248L17.9869 10.5823Z" fill="#F8C300"/>
<path d="M16.3658 12.1731L16.8429 13.6156L15.5938 12.7241H17.1377L15.8887 13.6156L16.3658 12.1731Z" fill="#F8C300"/>
<path d="M15.772 14.3465L16.2491 15.789L15.0001 14.8975H16.544L15.2949 15.789L15.772 14.3465Z" fill="#F8C300"/>
<path d="M22.4038 10.5822L21.9267 12.0247L23.1758 11.1332H21.6319L22.8809 12.0247L22.4038 10.5822Z" fill="#F8C300"/>
<path d="M24.0249 12.1732L23.5478 13.6156L24.7969 12.7241H23.253L24.502 13.6156L24.0249 12.1732Z" fill="#F8C300"/>
<path d="M24.6187 14.3464L24.1416 15.7889L25.3906 14.8974H23.8467L25.0958 15.7889L24.6187 14.3464Z" fill="#F8C300"/>
</svg>
