<svg width="64" height="64" viewBox="0 0 64 64" fill="none" xmlns="http://www.w3.org/2000/svg">
<path d="M2 32C2 35.9397 2.77597 39.8407 4.28361 43.4805C5.79125 47.1203 8.00104 50.4274 10.7868 53.2132C13.5726 55.999 16.8797 58.2087 20.5195 59.7164C24.1593 61.224 28.0603 62 32 62C35.9397 62 39.8407 61.224 43.4805 59.7164C47.1203 58.2087 50.4274 55.999 53.2132 53.2132C55.999 50.4274 58.2087 47.1203 59.7164 43.4805C61.224 39.8407 62 35.9397 62 32C62 28.0603 61.224 24.1593 59.7164 20.5195C58.2087 16.8797 55.999 13.5726 53.2132 10.7868C50.4274 8.00104 47.1203 5.79126 43.4805 4.28361C39.8407 2.77597 35.9397 2 32 2C28.0603 2 24.1593 2.77597 20.5195 4.28361C16.8797 5.79126 13.5726 8.00104 10.7868 10.7868C8.00104 13.5726 5.79125 16.8797 4.28361 20.5195C2.77597 24.1593 2 28.0603 2 32Z" fill="#E9E8FF"/>
<path d="M23.2 43.9998C23.2 43.1999 24 42.3999 24.8 42.3999H48.8C49.6 42.3999 50.4 43.1999 50.4 43.9998V46.7998C50.4 47.5998 49.6 48.3999 48.8 48.3999H24.8C24 48.3999 23.2 47.5998 23.2 46.7998V43.9998ZM23.2 35.1999C23.2 34.3999 24 33.5998 24.8 33.5998H48.8C49.6 33.5998 50.4 34.3999 50.4 35.1999V37.9999C50.4 38.7999 49.6 39.5998 48.8 39.5998H24.8C24 39.5998 23.2 38.7999 23.2 37.9999V35.1999ZM26 25.9999C26 25.1999 26.8 24.3999 27.6 24.3999H51.6C52.4 24.3999 53.2 25.1999 53.2 25.9999V28.7999C53.2 29.5999 52.4 30.3999 51.6 30.3999H27.6C26.8 30.3999 26 29.5999 26 28.7999V25.9999ZM20 17.1999C20 15.9999 20.8 15.5999 21.6 15.5999H45.6C46.4 15.5999 47.2 16.3999 47.2 17.1999V19.9999C47.2 20.7999 46.4 21.5999 45.6 21.5999H21.6C20.8 21.5999 20 20.7999 20 19.9999V17.1999Z" fill="#C6C9FF"/>
<path d="M26.0024 21.6001C18.4605 21.6001 12.4023 27.6583 12.4023 35.2001C12.4023 42.742 18.4605 48.8002 26.0024 48.8002C33.5442 48.8002 39.6024 42.742 39.6024 35.2001C39.6024 27.6583 33.5442 21.6001 26.0024 21.6001ZM34.2861 37.4256C34.1624 37.9202 33.6679 38.1674 33.1733 38.0438L26.2497 36.6838C26.0024 36.6838 25.7551 36.4365 25.5078 36.3129C25.0133 36.0656 24.766 35.6947 24.766 35.2001L25.0133 25.3092C25.0133 24.691 25.5078 24.3201 26.0024 24.3201C26.4969 24.3201 26.9915 24.8147 26.9915 25.3092L27.1151 33.8401L33.5442 36.0656C34.1624 36.1892 34.4097 36.8074 34.2861 37.4256Z" fill="#8880FE"/>
<path d="M34.2861 37.4256C34.1624 37.9202 33.6679 38.1674 33.1733 38.0438L26.2497 36.6838C26.0024 36.6838 25.7551 36.4365 25.5078 36.3129C25.0133 36.0656 24.766 35.6947 24.766 35.2001L25.0133 25.3092C25.0133 24.691 25.5078 24.3201 26.0024 24.3201C26.4969 24.3201 26.9915 24.8147 26.9915 25.3092L27.1151 33.8401L33.5442 36.0656C34.1624 36.1892 34.4097 36.8074 34.2861 37.4256Z" fill="white"/>
</svg>
