<svg width="64" height="64" viewBox="0 0 64 64" fill="none" xmlns="http://www.w3.org/2000/svg">
<path d="M2 32C2 35.9397 2.77597 39.8407 4.28361 43.4805C5.79125 47.1203 8.00104 50.4274 10.7868 53.2132C13.5726 55.999 16.8797 58.2087 20.5195 59.7164C24.1593 61.224 28.0603 62 32 62C35.9397 62 39.8407 61.224 43.4805 59.7164C47.1203 58.2087 50.4274 55.999 53.2132 53.2132C55.999 50.4274 58.2087 47.1203 59.7164 43.4805C61.224 39.8407 62 35.9397 62 32C62 28.0603 61.224 24.1593 59.7164 20.5195C58.2087 16.8797 55.999 13.5726 53.2132 10.7868C50.4274 8.00104 47.1203 5.79126 43.4805 4.28361C39.8407 2.77597 35.9397 2 32 2C28.0603 2 24.1593 2.77597 20.5195 4.28361C16.8797 5.79126 13.5726 8.00104 10.7868 10.7868C8.00104 13.5726 5.79125 16.8797 4.28361 20.5195C2.77597 24.1593 2 28.0603 2 32Z" fill="#E9E8FF"/>
<path d="M29.2 20.8001L43.6 15.6001L46.4 20.8001H29.2ZM24 20.8001L30 15.6001L32.4 18.8001L28.4 20.8001H24Z" fill="#C6C9FF"/>
<path d="M18.8016 47.1998C17.2016 47.1998 15.6016 45.5998 15.6016 43.9998V23.9998C15.6016 22.3998 17.2016 20.7998 18.8016 20.7998H45.6016C47.2016 20.7998 48.8016 22.3998 48.8016 23.9998V43.5998C48.8016 45.1998 47.2016 46.7998 45.6016 46.7998L18.8016 47.1998Z" fill="#8880FE"/>
<path d="M47.6008 37.9999H44.0008C42.4008 37.9999 40.8008 36.7999 40.8008 34.7999V33.5999C40.8008 31.9999 42.4008 30.3999 44.0008 30.3999H47.6008C49.2008 30.3999 50.8008 31.5999 50.8008 33.5999V35.1999C50.8008 36.7999 49.6008 37.9999 47.6008 37.9999Z" fill="#C6C9FF"/>
</svg>
