<svg width="64" height="64" viewBox="0 0 64 64" fill="none" xmlns="http://www.w3.org/2000/svg">
<rect width="64" height="64" rx="32" fill="#DEFCF9"/>
<path fill-rule="evenodd" clip-rule="evenodd" d="M40.8 38.8002L38.2667 24.0002H41.3333L45.8667 42.6668C46.4 44.9335 46.1333 46.6668 42.8 46.6668H22.5333C19.2 46.6668 18.8 44.9335 19.2 42.6668L22.6667 24.0002H26L24.1333 38.6668H25.6C27.6 38.8002 29.2 40.1335 29.4667 41.6002C29.4667 42.0002 29.4667 42.4002 29.3333 42.6668H35.7333C35.6 42.4002 35.6 42.0002 35.6 41.6002C35.7333 40.1335 37.3333 38.8002 39.3333 38.6668C40 38.6668 40.4 38.6668 40.8 38.8002ZM17.3333 17.3335H46.6667C47.4667 17.3335 48 17.8668 48 18.6668V25.3335C48 26.1335 47.4667 26.6668 46.6667 26.6668H44.9333L43.3333 21.3335H20.5333L19.3333 26.6668H17.3333C16.5333 26.6668 16 26.1335 16 25.3335V18.6668C16 17.8668 16.5333 17.3335 17.3333 17.3335Z" fill="#11C6A2"/>
<path fill-rule="evenodd" clip-rule="evenodd" d="M38.2637 24L40.797 38.8C40.397 38.6667 39.997 38.6667 39.3304 38.6667C37.3304 38.8 35.7304 40.1333 35.597 41.6V41.6C35.597 42 35.597 42.4 35.7304 42.6667H29.3304C29.4637 42.4 29.4637 42 29.4637 41.6C29.197 40.1333 27.597 38.8 25.597 38.6667H24.1304L25.997 24H38.2637Z" fill="#DEFCF9"/>
<path d="M32.4978 27V37M32.4978 37L34.5 33M32.4978 37L30.5 33" stroke="#11C6A2" stroke-width="2" stroke-linecap="round" stroke-linejoin="round"/>
</svg>
