<svg width="64" height="64" viewBox="0 0 64 64" fill="none" xmlns="http://www.w3.org/2000/svg">
<path d="M2 32C2 35.9397 2.77597 39.8407 4.28361 43.4805C5.79125 47.1203 8.00104 50.4274 10.7868 53.2132C13.5726 55.999 16.8797 58.2087 20.5195 59.7164C24.1593 61.224 28.0603 62 32 62C35.9397 62 39.8407 61.224 43.4805 59.7164C47.1203 58.2087 50.4274 55.999 53.2132 53.2132C55.999 50.4274 58.2087 47.1203 59.7164 43.4805C61.224 39.8407 62 35.9397 62 32C62 28.0603 61.224 24.1593 59.7164 20.5195C58.2087 16.8797 55.999 13.5726 53.2132 10.7868C50.4274 8.00104 47.1203 5.79126 43.4805 4.28361C39.8407 2.77597 35.9397 2 32 2C28.0603 2 24.1593 2.77597 20.5195 4.28361C16.8797 5.79126 13.5726 8.00104 10.7868 10.7868C8.00104 13.5726 5.79125 16.8797 4.28361 20.5195C2.77597 24.1593 2 28.0603 2 32Z" fill="#FFE8CD"/>
<path d="M14 22.8C14 21.2 15.2 20 17.2 20H47.2C48.8 20 50.4 21.2 50.4 22.8V40.8C50.4 42.4 49.2 43.6 47.2 43.6H17.2C15.6 43.6 14 42.4 14 40.8V22.8Z" fill="#FF9D1C"/>
<path d="M14 24.3999H50V28.7999H14V24.3999Z" fill="#FFCA83"/>
<path d="M39.6016 37.9999C39.6016 37.1999 40.4016 36.3999 41.2016 36.3999H45.6016C46.4016 36.3999 47.2016 37.1999 47.2016 37.9999V39.5999C47.2016 40.3999 46.4016 41.1999 45.6016 41.1999H41.2016C40.4016 41.1999 39.6016 40.3999 39.6016 39.5999V37.9999Z" fill="white"/>
</svg>
