<svg width="40" height="28" viewBox="0 0 40 28" fill="none" xmlns="http://www.w3.org/2000/svg">
<g clip-path="url(#clip0_1_4376)">
<path d="M2.19565 0H37.7971C39.0073 0 39.9928 0.985507 39.9928 2.19565V25.6232C39.9928 26.8333 39.0073 27.8188 37.7971 27.8188H2.19565C0.985507 27.8261 0 26.8406 0 25.6304V2.19565C0 0.985507 0.985507 0 2.19565 0Z" fill="#B22234"/>
<path d="M0.0144928 1.97827H39.9928C40 2.05074 40.0072 2.1232 40.0072 2.20291V4.33334H0V2.19566C0 2.1232 0.00724638 2.05074 0.0144928 1.97827ZM40 6.28262V8.63045H0V6.28262H40ZM40 10.587V12.9348H0V10.587H40ZM40 14.8913V17.2391H0V14.8913H40ZM40 19.1957V21.5435H0V19.1957H40ZM40 23.5V25.6232C40 25.6957 39.9928 25.7754 39.9855 25.8478H0.0144928C0.00724638 25.7826 0 25.7029 0 25.6304V23.5073H40V23.5Z" fill="white"/>
<path d="M15.0725 0V14.9855H0V2.19565C0 0.985507 0.985507 0 2.19565 0H15.0725Z" fill="#3C3B6E"/>
<path d="M0.889153 2.07251L1.38915 3.63048L0.0703125 2.66671H1.70799L0.381907 3.63048L0.889153 2.07251Z" fill="white"/>
<path d="M0.889153 5.08691L1.38915 6.64489L0.0703125 5.68112H1.70799L0.381907 6.64489L0.889153 5.08691Z" fill="white"/>
<path d="M0.889153 8.10144L1.38915 9.65941L0.0703125 8.69564H1.70799L0.381907 9.65941L0.889153 8.10144Z" fill="white"/>
<path d="M0.889153 11.116L1.38915 12.6739L0.0703125 11.7102H1.70799L0.381907 12.6739L0.889153 11.116Z" fill="white"/>
<path d="M2.65868 0.565308L3.16593 2.12328L1.83984 1.15951H3.48477L2.15144 2.12328L2.65868 0.565308Z" fill="white"/>
<path d="M2.65868 3.57971L3.16593 5.13768L1.83984 4.17391H3.48477L2.15144 5.13768L2.65868 3.57971Z" fill="white"/>
<path d="M2.65868 6.59399L3.16593 8.15197L1.83984 7.1882H3.48477L2.15144 8.15197L2.65868 6.59399Z" fill="white"/>
<path d="M2.65868 9.60864L3.16593 11.1666L1.83984 10.2028H3.48477L2.15144 11.1666L2.65868 9.60864Z" fill="white"/>
<path d="M2.65868 12.623L3.16593 14.181L1.83984 13.2172H3.48477L2.15144 14.181L2.65868 12.623Z" fill="white"/>
<path d="M4.43212 2.07251L4.93937 3.63048L3.61328 2.66671H5.25096L3.92488 3.63048L4.43212 2.07251Z" fill="white"/>
<path d="M4.43212 5.08691L4.93937 6.64489L3.61328 5.68112H5.25096L3.92488 6.64489L4.43212 5.08691Z" fill="white"/>
<path d="M4.43212 8.10144L4.93937 9.65941L3.61328 8.69564H5.25096L3.92488 9.65941L4.43212 8.10144Z" fill="white"/>
<path d="M4.43212 11.116L4.93937 12.6739L3.61328 11.7102H5.25096L3.92488 12.6739L4.43212 11.116Z" fill="white"/>
<path d="M6.20947 0.565338L6.70947 2.12331L5.39062 1.15954H7.02831L5.70222 2.12331L6.20947 0.565338Z" fill="white"/>
<path d="M6.20947 3.57974L6.70947 5.13771L5.39062 4.17395H7.02831L5.70222 5.13771L6.20947 3.57974Z" fill="white"/>
<path d="M6.20947 6.59404L6.70947 8.15201L5.39062 7.18824H7.02831L5.70222 8.15201L6.20947 6.59404Z" fill="white"/>
<path d="M6.20947 9.6086L6.70947 11.1666L5.39062 10.2028H7.02831L5.70222 11.1666L6.20947 9.6086Z" fill="white"/>
<path d="M6.20947 12.623L6.70947 14.181L5.39062 13.2172H7.02831L5.70222 14.181L6.20947 12.623Z" fill="white"/>
<path d="M7.9829 2.07251L8.49015 3.63048L7.16406 2.66671H8.80174L7.47566 3.63048L7.9829 2.07251Z" fill="white"/>
<path d="M7.9829 5.08691L8.49015 6.64489L7.16406 5.68112H8.80174L7.47566 6.64489L7.9829 5.08691Z" fill="white"/>
<path d="M7.9829 8.10144L8.49015 9.65941L7.16406 8.69564H8.80174L7.47566 9.65941L7.9829 8.10144Z" fill="white"/>
<path d="M7.9829 11.116L8.49015 12.6739L7.16406 11.7102H8.80174L7.47566 12.6739L7.9829 11.116Z" fill="white"/>
<path d="M9.74853 0.565308L10.2558 2.12328L8.92969 1.15951H10.5674L9.24128 2.12328L9.74853 0.565308Z" fill="white"/>
<path d="M9.74853 3.57971L10.2558 5.13768L8.92969 4.17391H10.5674L9.24128 5.13768L9.74853 3.57971Z" fill="white"/>
<path d="M9.74853 6.59399L10.2558 8.15197L8.92969 7.1882H10.5674L9.24128 8.15197L9.74853 6.59399Z" fill="white"/>
<path d="M9.74853 9.60864L10.2558 11.1666L8.92969 10.2028H10.5674L9.24128 11.1666L9.74853 9.60864Z" fill="white"/>
<path d="M9.74853 12.623L10.2558 14.181L8.92969 13.2172H10.5674L9.24128 14.181L9.74853 12.623Z" fill="white"/>
<path d="M11.522 2.07246L12.0292 3.63044L10.7031 2.66667H12.3408L11.022 3.63044L11.522 2.07246Z" fill="white"/>
<path d="M11.522 5.08696L12.0292 6.64493L10.7031 5.68116H12.3408L11.022 6.64493L11.522 5.08696Z" fill="white"/>
<path d="M11.522 8.10141L12.0292 9.65938L10.7031 8.69561H12.3408L11.022 9.65938L11.522 8.10141Z" fill="white"/>
<path d="M11.522 11.1159L12.0292 12.6739L10.7031 11.7101H12.3408L11.022 12.6739L11.522 11.1159Z" fill="white"/>
<path d="M13.2993 0.565308L13.8066 2.12328L12.4805 1.15951H14.1182L12.7921 2.12328L13.2993 0.565308Z" fill="white"/>
<path d="M13.2993 3.57971L13.8066 5.13768L12.4805 4.17391H14.1182L12.7921 5.13768L13.2993 3.57971Z" fill="white"/>
<path d="M13.2993 6.59399L13.8066 8.15197L12.4805 7.1882H14.1182L12.7921 8.15197L13.2993 6.59399Z" fill="white"/>
<path d="M13.2993 9.60864L13.8066 11.1666L12.4805 10.2028H14.1182L12.7921 11.1666L13.2993 9.60864Z" fill="white"/>
<path d="M13.2993 12.623L13.8066 14.181L12.4805 13.2172H14.1182L12.7921 14.181L13.2993 12.623Z" fill="white"/>
</g>
<defs>
<clipPath id="clip0_1_4376">
<rect width="40" height="27.8261" fill="white"/>
</clipPath>
</defs>
</svg>
