<svg width="48" height="48" viewBox="0 0 48 48" fill="none" xmlns="http://www.w3.org/2000/svg">
<path d="M39.7522 7.92175C38.7525 7.02723 34.7535 4.0806 25.7557 4.02799C25.7557 4.02799 15.1794 3.39656 10.0228 8.13222C7.12881 11.0262 6.12906 15.1831 6.02382 20.3923C5.91858 25.6015 5.76074 35.336 15.1794 38.0195V42.0711C15.1794 42.0711 15.1268 43.7023 16.1792 44.018C17.4947 44.4389 18.2313 43.1761 19.4941 41.8606C20.1782 41.124 21.1253 40.0716 21.8094 39.2297C28.2288 39.7559 33.1749 38.5457 33.7537 38.3352C35.0692 37.9142 42.3832 36.9671 43.5934 27.2327C44.8562 17.13 43.0672 10.7631 39.7522 7.92175ZM40.8572 26.4434C39.8575 34.5993 33.9116 35.1255 32.8066 35.4412C32.3331 35.599 28.0183 36.6514 22.546 36.3357C22.546 36.3357 18.4944 41.2292 17.1789 42.5447C16.9685 42.7551 16.758 42.8078 16.6001 42.8078C16.3897 42.7551 16.337 42.4921 16.337 42.1237C16.337 41.5975 16.3897 35.3886 16.3897 35.3886C8.44428 33.1786 8.91784 24.8649 8.97046 20.4976C9.07569 16.1302 9.86498 12.6048 12.2854 10.1843C16.6528 6.23795 25.6505 6.81676 25.6505 6.81676C33.2276 6.86938 36.8582 9.13197 37.7001 9.92124C40.4363 12.3417 41.857 18.0771 40.8572 26.4434Z" fill="#7360F2"/>
<path d="M29.4426 20.1816C29.3374 18.1821 28.3376 17.1297 26.3906 17.0244" stroke="#7360F2" stroke-width="1.01396" stroke-linecap="round" stroke-linejoin="round"/>
<path d="M32.0702 21.0245C32.1228 19.1828 31.544 17.6042 30.439 16.3939C29.2813 15.131 27.7027 14.4469 25.7031 14.2891" stroke="#7360F2" stroke-width="1.01396" stroke-linecap="round" stroke-linejoin="round"/>
<path d="M34.701 22.0762C34.701 18.8663 33.7012 16.3406 31.8069 14.4988C29.9126 12.6571 27.5446 11.71 24.7031 11.71" stroke="#7360F2" stroke-width="1.01396" stroke-linecap="round" stroke-linejoin="round"/>
<path d="M26.4871 26.9692C26.4871 26.9692 27.2238 27.0218 27.5921 26.5483L28.3288 25.6012C28.6971 25.1276 29.539 24.8119 30.4335 25.2854C30.9071 25.5485 31.749 26.0747 32.2752 26.4957C32.854 26.9166 34.0116 27.8637 34.0116 27.8637C34.5904 28.3373 34.6956 29.0213 34.3273 29.758C33.9589 30.442 33.4328 31.0735 32.7487 31.6523C32.2225 32.1258 31.6964 32.3363 31.1702 32.4415H30.9597C30.7492 32.4415 30.4861 32.3889 30.2757 32.3363C29.4864 32.1258 28.1709 31.547 25.9083 30.3368C24.4876 29.5475 23.2774 28.7056 22.2777 27.9164C21.7515 27.4954 21.1727 27.0219 20.6465 26.4431L20.436 26.2326C19.8572 25.6538 19.3836 25.1276 18.9627 24.6014C18.1734 23.6017 17.3315 22.3914 16.5422 20.9707C15.332 18.7607 14.7532 17.4453 14.5427 16.6034C14.4901 16.3929 14.4375 16.1825 14.4375 15.9194V15.7089C14.4901 15.1827 14.7532 14.6565 15.2268 14.1303C15.8056 13.4989 16.437 12.9727 17.121 12.5518C17.8577 12.1834 18.5417 12.2887 19.0153 12.8675C19.0153 12.8675 19.9624 14.0251 20.3834 14.6039C20.7517 15.1301 21.2779 15.972 21.5936 16.4455C22.0672 17.2874 21.7515 18.182 21.3305 18.5503L20.3834 19.2869C19.9098 19.6553 19.9624 20.3919 19.9624 20.3919C19.9624 20.3919 21.2779 25.6012 26.4871 26.9692Z" fill="#7360F2"/>
</svg>
