<svg width="252" height="154" viewBox="0 0 252 154" fill="none" xmlns="http://www.w3.org/2000/svg">
<path d="M0 12C0 5.37259 5.37258 0 12 0H240C246.627 0 252 5.37258 252 12V142C252 148.627 246.627 154 240 154H12C5.37258 154 0 148.627 0 142V12Z" fill="url(#paint0_linear_118_4761)"/>
<path fill-rule="evenodd" clip-rule="evenodd" d="M157.985 23.863L172.101 9.20745C172.163 9.14201 172.238 9.09009 172.321 9.05448C172.404 9.01888 172.493 9 172.584 9C172.674 9 172.763 9.01888 172.846 9.05448C172.929 9.09009 173.004 9.14201 173.067 9.20745L187.18 23.863C187.309 23.9981 187.382 24.1777 187.382 24.3648C187.382 24.5519 187.309 24.7315 187.18 24.8667L173.067 39.5232C173.004 39.5885 172.929 39.6407 172.846 39.6762C172.763 39.7117 172.674 39.7307 172.584 39.7307C172.493 39.7307 172.404 39.7117 172.321 39.6762C172.238 39.6407 172.163 39.5885 172.101 39.5232L157.985 24.8667C157.857 24.7308 157.786 24.5514 157.786 24.3648C157.786 24.1782 157.857 23.9989 157.985 23.863ZM105.074 95.1331L110.043 89.971C110.065 89.9478 110.091 89.9291 110.121 89.9165C110.15 89.9039 110.182 89.8976 110.213 89.8976C110.245 89.8976 110.276 89.9039 110.306 89.9165C110.335 89.9291 110.361 89.9478 110.383 89.971L115.354 95.1341C115.399 95.1811 115.424 95.2439 115.424 95.3091C115.424 95.3743 115.399 95.4371 115.354 95.4841L110.383 100.648C110.361 100.671 110.335 100.689 110.306 100.702C110.276 100.714 110.245 100.722 110.213 100.722C110.182 100.722 110.15 100.714 110.121 100.702C110.091 100.689 110.065 100.671 110.043 100.648L105.074 95.4851C105.051 95.4619 105.032 95.4348 105.019 95.4044C105.007 95.3741 105 95.3409 105 95.3081C105 95.2752 105.007 95.2431 105.019 95.2127C105.032 95.1823 105.051 95.1563 105.074 95.1331ZM231.849 95.5983L236.818 90.4372C236.84 90.4139 236.867 90.3954 236.896 90.3827C236.925 90.37 236.957 90.3639 236.989 90.3639C237.021 90.3639 237.052 90.37 237.081 90.3827C237.11 90.3954 237.137 90.4139 237.158 90.4372L242.13 95.5983C242.175 95.646 242.2 95.7087 242.2 95.7743C242.2 95.8399 242.175 95.9036 242.13 95.9514L237.158 101.111C237.136 101.134 237.11 101.152 237.081 101.165C237.052 101.177 237.02 101.185 236.989 101.185C236.957 101.185 236.925 101.177 236.896 101.165C236.867 101.152 236.84 101.134 236.818 101.111L231.849 95.9514C231.803 95.9033 231.778 95.8395 231.778 95.7732C231.778 95.7069 231.803 95.6463 231.849 95.5983ZM134.359 94.9539L142.482 86.5187C142.518 86.4805 142.562 86.4494 142.609 86.4286C142.657 86.4078 142.709 86.3972 142.761 86.3972C142.814 86.3972 142.865 86.4078 142.913 86.4286C142.961 86.4494 143.004 86.4805 143.04 86.5187L151.167 94.9539C151.239 95.033 151.279 95.1361 151.279 95.2431C151.279 95.3501 151.239 95.4532 151.167 95.5323L143.04 103.97C143.004 104.007 142.961 104.037 142.913 104.058C142.865 104.078 142.813 104.088 142.761 104.088C142.709 104.088 142.657 104.078 142.609 104.058C142.562 104.037 142.518 104.007 142.482 103.97L134.359 95.5323C134.285 95.4545 134.243 95.3516 134.243 95.2441C134.243 95.1367 134.285 95.0317 134.359 94.9539ZM165.3 95.7722L173.427 87.3318C173.463 87.2939 173.506 87.2633 173.553 87.2427C173.601 87.2221 173.653 87.2113 173.705 87.2113C173.757 87.2113 173.808 87.2221 173.856 87.2427C173.904 87.2633 173.947 87.2939 173.983 87.3318L182.11 95.7722C182.184 95.85 182.225 95.9529 182.225 96.0603C182.225 96.1678 182.184 96.2717 182.11 96.3495L173.983 104.786C173.947 104.823 173.904 104.853 173.856 104.874C173.808 104.894 173.757 104.905 173.705 104.905C173.653 104.905 173.602 104.894 173.554 104.874C173.506 104.853 173.463 104.823 173.427 104.786L165.3 96.3495C165.226 96.2718 165.184 96.1678 165.184 96.0603C165.184 95.9528 165.226 95.8499 165.3 95.7722ZM197.139 94.8397L205.265 86.4003C205.301 86.3627 205.344 86.3328 205.392 86.3123C205.44 86.2919 205.491 86.2809 205.543 86.2809C205.595 86.2809 205.647 86.2919 205.694 86.3123C205.742 86.3328 205.785 86.3627 205.821 86.4003L213.948 94.8397C214.021 94.9178 214.062 95.0209 214.062 95.1278C214.062 95.2348 214.021 95.3379 213.948 95.416L205.821 103.854C205.785 103.892 205.742 103.922 205.694 103.942C205.647 103.963 205.595 103.974 205.543 103.974C205.491 103.974 205.44 103.963 205.392 103.942C205.344 103.922 205.301 103.892 205.265 103.854L197.139 95.416C197.065 95.3383 197.023 95.2351 197.023 95.1278C197.023 95.0206 197.065 94.9173 197.139 94.8397ZM212.272 77.7043L220.399 69.267C220.435 69.2294 220.478 69.1994 220.526 69.179C220.574 69.1585 220.625 69.1475 220.677 69.1475C220.729 69.1475 220.78 69.1585 220.828 69.179C220.876 69.1994 220.919 69.2294 220.955 69.267L229.081 77.7043C229.154 77.7825 229.195 77.8863 229.195 77.9934C229.195 78.1006 229.154 78.2033 229.081 78.2816L220.955 86.7188C220.919 86.7571 220.876 86.7881 220.829 86.8089C220.781 86.8298 220.729 86.8404 220.677 86.8404C220.625 86.8404 220.573 86.8298 220.525 86.8089C220.477 86.7881 220.434 86.7571 220.399 86.7188L212.272 78.2816C212.199 78.2038 212.157 78.1006 212.157 77.9934C212.157 77.8862 212.199 77.782 212.272 77.7043ZM118.103 77.4696L126.229 69.0333C126.265 68.9955 126.308 68.9659 126.356 68.9453C126.404 68.9247 126.456 68.9139 126.508 68.9139C126.56 68.9139 126.611 68.9247 126.658 68.9453C126.706 68.9659 126.75 68.9955 126.785 69.0333L134.911 77.4696C134.986 77.5474 135.027 77.651 135.027 77.7587C135.027 77.8665 134.986 77.97 134.911 78.0479L126.785 86.4862C126.75 86.5241 126.706 86.5547 126.658 86.5753C126.611 86.5959 126.56 86.6057 126.508 86.6057C126.456 86.6057 126.404 86.5959 126.356 86.5753C126.308 86.5547 126.265 86.5241 126.229 86.4862L118.103 78.0479C118.029 77.97 117.988 77.8672 117.988 77.7598C117.988 77.6524 118.029 77.5475 118.103 77.4696ZM147.056 77.1615L157.434 66.3847C157.48 66.3366 157.535 66.2988 157.596 66.2726C157.657 66.2464 157.723 66.2328 157.789 66.2328C157.856 66.2328 157.922 66.2464 157.983 66.2726C158.044 66.2988 158.099 66.3366 158.145 66.3847L168.523 77.1615C168.617 77.2611 168.669 77.3933 168.669 77.5303C168.669 77.6674 168.617 77.7995 168.523 77.8991L158.145 88.6749C158.099 88.7229 158.044 88.7609 157.983 88.787C157.922 88.8131 157.856 88.8269 157.789 88.8269C157.723 88.8269 157.657 88.8131 157.596 88.787C157.535 88.7609 157.48 88.7229 157.434 88.6749L147.056 77.8991C146.962 77.7996 146.91 77.6682 146.91 77.5314C146.91 77.3946 146.962 77.2611 147.056 77.1615ZM178.559 77.6278L188.937 66.8509C188.982 66.8031 189.037 66.7648 189.098 66.7388C189.159 66.7128 189.225 66.699 189.292 66.699C189.358 66.699 189.423 66.7128 189.484 66.7388C189.546 66.7648 189.6 66.8031 189.646 66.8509L200.026 77.6278C200.119 77.7273 200.172 77.8587 200.172 77.9955C200.172 78.1323 200.119 78.2637 200.026 78.3633L189.646 89.1401C189.601 89.1884 189.546 89.227 189.485 89.2533C189.424 89.2795 189.358 89.2931 189.292 89.2931C189.225 89.2931 189.159 89.2795 189.098 89.2533C189.037 89.227 188.982 89.1884 188.937 89.1401L178.559 78.3633C178.466 78.2637 178.413 78.1323 178.413 77.9955C178.413 77.8587 178.466 77.7273 178.559 77.6278ZM160.761 59.8417L172.842 47.2963C172.896 47.2402 172.96 47.1958 173.031 47.1653C173.102 47.1348 173.178 47.1192 173.256 47.1192C173.333 47.1192 173.41 47.1348 173.481 47.1653C173.552 47.1958 173.616 47.2402 173.67 47.2963L185.753 59.8417C185.863 59.9575 185.924 60.1105 185.924 60.2702C185.924 60.4299 185.863 60.5839 185.753 60.6998L173.67 73.2452C173.617 73.3018 173.552 73.3463 173.481 73.3772C173.41 73.408 173.333 73.4243 173.256 73.4243C173.178 73.4243 173.102 73.408 173.031 73.3772C172.959 73.3463 172.895 73.3018 172.842 73.2452L160.761 60.6998C160.651 60.5839 160.59 60.4309 160.589 60.2712C160.589 60.1116 160.651 59.9578 160.761 59.8417ZM176.23 41.8921L188.314 29.3404C188.368 29.2847 188.432 29.2398 188.503 29.2095C188.574 29.1791 188.65 29.1634 188.728 29.1634C188.805 29.1634 188.882 29.1791 188.953 29.2095C189.024 29.2398 189.088 29.2847 189.141 29.3404L201.225 41.8921C201.334 42.0081 201.396 42.1621 201.396 42.3217C201.396 42.4813 201.334 42.6353 201.225 42.7513L189.141 55.3029C189.088 55.3587 189.024 55.4036 188.953 55.4339C188.882 55.4642 188.805 55.48 188.728 55.48C188.65 55.48 188.574 55.4642 188.503 55.4339C188.432 55.4036 188.368 55.3587 188.314 55.3029L176.23 42.7513C176.121 42.6352 176.06 42.4812 176.06 42.3217C176.06 42.1621 176.121 42.0082 176.23 41.8921ZM194.033 59.9171L204.409 49.1403C204.455 49.0916 204.51 49.0536 204.571 49.0271C204.632 49.0006 204.697 48.9862 204.764 48.9862C204.83 48.9862 204.896 49.0006 204.957 49.0271C205.018 49.0536 205.073 49.0916 205.119 49.1403L215.496 59.9171C215.59 60.0167 215.643 60.1478 215.643 60.2849C215.643 60.4219 215.59 60.5541 215.496 60.6537L205.119 71.4295C205.073 71.4774 205.018 71.5155 204.957 71.5416C204.896 71.5676 204.83 71.5814 204.764 71.5814C204.698 71.5814 204.632 71.5676 204.571 71.5416C204.51 71.5155 204.455 71.4774 204.409 71.4295L194.033 60.6537C193.937 60.554 193.884 60.4209 193.883 60.2828C193.883 60.1447 193.937 60.0171 194.033 59.9171ZM131.139 59.7987L141.519 49.0229C141.565 48.9751 141.62 48.9368 141.681 48.9108C141.742 48.8848 141.807 48.872 141.873 48.872C141.94 48.872 142.005 48.8848 142.066 48.9108C142.127 48.9368 142.182 48.9751 142.228 49.0229L152.605 59.7987C152.699 59.8984 152.752 60.0302 152.752 60.1675C152.752 60.3048 152.699 60.4367 152.605 60.5363L142.228 71.31C142.183 71.3587 142.128 71.3977 142.067 71.4242C142.006 71.4507 141.94 71.4651 141.873 71.4651C141.807 71.4651 141.741 71.4507 141.68 71.4242C141.619 71.3977 141.564 71.3587 141.519 71.31L131.139 60.5363C131.043 60.4365 130.989 60.304 130.989 60.1654C130.988 60.0268 131.043 59.8988 131.139 59.7987ZM145.065 42.2473L157.148 29.7019C157.201 29.6456 157.266 29.6006 157.337 29.5699C157.408 29.5392 157.485 29.5227 157.562 29.5227C157.639 29.5227 157.716 29.5392 157.787 29.5699C157.858 29.6006 157.922 29.6456 157.975 29.7019L170.057 42.2473C170.167 42.3631 170.228 42.5172 170.228 42.6769C170.228 42.8366 170.167 42.9896 170.057 43.1054L157.975 55.6518C157.922 55.7078 157.858 55.7524 157.787 55.7828C157.716 55.8132 157.639 55.8289 157.562 55.8289C157.485 55.8289 157.408 55.8132 157.337 55.7828C157.266 55.7524 157.202 55.7078 157.148 55.6518L145.065 43.1054C144.954 42.9889 144.892 42.8345 144.892 42.6737C144.892 42.513 144.954 42.3638 145.065 42.2473Z" fill="#4D4D4D" fill-opacity="0.2"/>
<path d="M18.6826 139H16.585C16.1416 139 15.7793 138.909 15.498 138.728C15.2188 138.546 14.9805 138.257 14.7832 137.86L13.6787 135.628C13.4639 135.194 13.3564 134.774 13.3564 134.368C13.3564 134.106 13.3809 133.882 13.4297 133.694C13.4805 133.507 13.5684 133.287 13.6934 133.035L14.7949 130.817C15 130.403 15.2441 130.107 15.5273 129.93C15.8125 129.752 16.1846 129.663 16.6436 129.663H18.6826C18.8428 129.663 18.9824 129.711 19.1016 129.807C19.2227 129.902 19.2832 130.055 19.2832 130.264C19.2832 130.465 19.2227 130.615 19.1016 130.715C18.9824 130.814 18.8428 130.864 18.6826 130.864H16.6787C16.4971 130.864 16.3623 130.875 16.2744 130.896C16.1885 130.918 16.1162 130.962 16.0576 131.028C16.001 131.095 15.9326 131.208 15.8525 131.368L14.8066 133.457C14.6387 133.805 14.5547 134.108 14.5547 134.368C14.5547 134.521 14.5713 134.646 14.6045 134.743C14.6396 134.841 14.707 134.992 14.8066 135.197L15.8291 137.271C15.9072 137.434 15.9805 137.552 16.0488 137.626C16.1172 137.7 16.1982 137.748 16.292 137.77C16.3857 137.789 16.5312 137.799 16.7285 137.799H18.6826C18.8428 137.799 18.9824 137.847 19.1016 137.942C19.2227 138.038 19.2832 138.19 19.2832 138.399C19.2832 138.601 19.2227 138.751 19.1016 138.851C18.9824 138.95 18.8428 139 18.6826 139Z" fill="#4D4D4D" fill-opacity="0.8"/>
<path d="M21.9932 138.399L24.3457 130.275C24.4023 130.08 24.4746 129.93 24.5625 129.824C24.6523 129.717 24.7842 129.663 24.958 129.663C25.2627 129.663 25.4707 129.867 25.582 130.275L27.8965 138.399C27.8965 138.573 27.8389 138.717 27.7236 138.83C27.6084 138.943 27.4736 139 27.3193 139C27.0049 139 26.7891 138.8 26.6719 138.399L26.2295 136.961H23.6719L23.2178 138.399C23.1006 138.8 22.8838 139 22.5674 139C22.415 139 22.2812 138.942 22.166 138.827C22.0508 138.712 21.9932 138.569 21.9932 138.399ZM25.8926 135.76L24.9697 132.508H24.9434L24.0088 135.76H25.8926Z" fill="#4D4D4D" fill-opacity="0.8"/>
<path d="M31.8281 133.935V138.399C31.8281 138.8 31.6289 139 31.2305 139C30.8301 139 30.6299 138.8 30.6299 138.399V129.663H34.6611C34.9834 129.663 35.29 129.735 35.5811 129.88C35.8721 130.024 36.1074 130.23 36.2871 130.498C36.4668 130.764 36.5566 131.065 36.5566 131.403V132.232C36.5566 132.592 36.4678 132.9 36.29 133.158C36.1143 133.414 35.8809 133.607 35.5898 133.738C35.2988 133.869 34.9893 133.935 34.6611 133.935H33.5566L36.2578 137.799C36.457 138.074 36.5566 138.286 36.5566 138.435C36.5566 138.601 36.4971 138.736 36.3779 138.842C36.2588 138.947 36.1143 139 35.9443 139C35.7451 139 35.5693 138.888 35.417 138.663L32.1064 133.935H31.8281ZM31.8281 130.864V132.736H34.4941C34.7402 132.736 34.9453 132.706 35.1094 132.646C35.2754 132.583 35.3584 132.445 35.3584 132.232V131.403C35.3584 131.044 35.0742 130.864 34.5059 130.864H31.8281Z" fill="#4D4D4D" fill-opacity="0.8"/>
<path d="M40.4414 137.799V130.864H39.999C39.5107 130.864 39.2666 130.664 39.2666 130.264C39.2666 130.061 39.3311 129.91 39.46 129.812C39.5889 129.713 39.7559 129.663 39.9609 129.663H41.9648C42.2773 129.663 42.542 129.706 42.7588 129.792C42.9775 129.876 43.168 130.007 43.3301 130.185C43.4922 130.362 43.6416 130.589 43.7783 130.864L44.833 132.977C44.9639 133.244 45.0566 133.477 45.1113 133.674C45.166 133.871 45.1934 134.103 45.1934 134.368C45.1934 134.784 45.0771 135.225 44.8447 135.689L43.7549 137.872C43.5459 138.292 43.2959 138.585 43.0049 138.751C42.7158 138.917 42.334 139 41.8594 139H39.8672C39.6934 139 39.5498 138.95 39.4365 138.851C39.3232 138.751 39.2666 138.601 39.2666 138.399C39.2666 138.198 39.3232 138.048 39.4365 137.948C39.5498 137.849 39.6934 137.799 39.8672 137.799H40.4414ZM41.6426 130.864V137.799H41.8711C42.125 137.799 42.3018 137.77 42.4014 137.711C42.5029 137.652 42.6055 137.514 42.709 137.295L43.7666 135.159C43.9189 134.841 43.9951 134.581 43.9951 134.38C43.9951 134.196 43.9727 134.045 43.9277 133.926C43.8848 133.805 43.8066 133.628 43.6934 133.396L42.6973 131.368C42.6113 131.198 42.5352 131.08 42.4688 131.014C42.4023 130.945 42.3242 130.903 42.2344 130.888C42.1465 130.872 41.9971 130.864 41.7861 130.864H41.6426Z" fill="#4D4D4D" fill-opacity="0.8"/>
<path d="M52.6318 134.931H49.1016V138.399C49.1016 138.8 48.9023 139 48.5039 139C48.1035 139 47.9033 138.8 47.9033 138.399V130.264C47.9033 129.863 48.1035 129.663 48.5039 129.663C48.9023 129.663 49.1016 129.863 49.1016 130.264V133.732H52.6318V130.264C52.6318 129.863 52.8311 129.663 53.2295 129.663C53.6299 129.663 53.8301 129.863 53.8301 130.264V138.399C53.8301 138.8 53.6299 139 53.2295 139C52.8311 139 52.6318 138.8 52.6318 138.399V134.931Z" fill="#4D4D4D" fill-opacity="0.8"/>
<path d="M60.9551 130.647L62.1562 133.035C62.3633 133.459 62.4668 133.903 62.4668 134.368C62.4668 134.636 62.4355 134.868 62.373 135.065C62.3125 135.263 62.2119 135.506 62.0713 135.795L60.9668 138.004C60.6367 138.668 60.1494 139 59.5049 139C58.8584 139 58.3701 138.668 58.04 138.004L56.9355 135.795C56.7949 135.506 56.6934 135.263 56.6309 135.065C56.5703 134.868 56.54 134.636 56.54 134.368C56.54 134.108 56.5625 133.882 56.6074 133.688C56.6543 133.495 56.7354 133.277 56.8506 133.035L58.0518 130.647C58.3857 129.991 58.8701 129.663 59.5049 129.663C60.1357 129.663 60.6191 129.991 60.9551 130.647ZM60.9902 133.396L59.9121 131.225C59.8496 131.096 59.7939 131.004 59.7451 130.949C59.6982 130.893 59.6182 130.864 59.5049 130.864C59.3916 130.864 59.3125 130.89 59.2676 130.94C59.2246 130.989 59.167 131.084 59.0947 131.225L58.0166 133.396C57.8311 133.751 57.7383 134.075 57.7383 134.368C57.7383 134.622 57.8066 134.886 57.9434 135.159L59.0947 137.441C59.1631 137.57 59.2217 137.662 59.2705 137.717C59.3193 137.771 59.3975 137.799 59.5049 137.799C59.6104 137.799 59.6895 137.769 59.7422 137.708C59.7969 137.647 59.8535 137.559 59.9121 137.441L61.0635 135.159C61.2002 134.886 61.2686 134.622 61.2686 134.368C61.2686 134.075 61.1758 133.751 60.9902 133.396Z" fill="#4D4D4D" fill-opacity="0.8"/>
<path d="M66.375 137.799H70.5029C70.6768 137.799 70.8203 137.849 70.9336 137.948C71.0469 138.046 71.1035 138.196 71.1035 138.399C71.1035 138.603 71.0469 138.754 70.9336 138.854C70.8203 138.951 70.6768 139 70.5029 139H65.1768V130.264C65.1768 129.863 65.377 129.663 65.7773 129.663C66.1758 129.663 66.375 129.863 66.375 130.264V137.799Z" fill="#4D4D4D" fill-opacity="0.8"/>
<path d="M74.9883 137.799V130.864H74.5459C74.0576 130.864 73.8135 130.664 73.8135 130.264C73.8135 130.061 73.8779 129.91 74.0068 129.812C74.1357 129.713 74.3027 129.663 74.5078 129.663H76.5117C76.8242 129.663 77.0889 129.706 77.3057 129.792C77.5244 129.876 77.7148 130.007 77.877 130.185C78.0391 130.362 78.1885 130.589 78.3252 130.864L79.3799 132.977C79.5107 133.244 79.6035 133.477 79.6582 133.674C79.7129 133.871 79.7402 134.103 79.7402 134.368C79.7402 134.784 79.624 135.225 79.3916 135.689L78.3018 137.872C78.0928 138.292 77.8428 138.585 77.5518 138.751C77.2627 138.917 76.8809 139 76.4062 139H74.4141C74.2402 139 74.0967 138.95 73.9834 138.851C73.8701 138.751 73.8135 138.601 73.8135 138.399C73.8135 138.198 73.8701 138.048 73.9834 137.948C74.0967 137.849 74.2402 137.799 74.4141 137.799H74.9883ZM76.1895 130.864V137.799H76.418C76.6719 137.799 76.8486 137.77 76.9482 137.711C77.0498 137.652 77.1523 137.514 77.2559 137.295L78.3135 135.159C78.4658 134.841 78.542 134.581 78.542 134.38C78.542 134.196 78.5195 134.045 78.4746 133.926C78.4316 133.805 78.3535 133.628 78.2402 133.396L77.2441 131.368C77.1582 131.198 77.082 131.08 77.0156 131.014C76.9492 130.945 76.8711 130.903 76.7812 130.888C76.6934 130.872 76.5439 130.864 76.333 130.864H76.1895Z" fill="#4D4D4D" fill-opacity="0.8"/>
<path d="M83.6484 137.799H87.7764C87.9502 137.799 88.0938 137.849 88.207 137.948C88.3203 138.046 88.377 138.196 88.377 138.399C88.377 138.603 88.3203 138.754 88.207 138.854C88.0938 138.951 87.9502 139 87.7764 139H82.4502V129.663H87.7764C87.9502 129.663 88.0938 129.713 88.207 129.812C88.3203 129.91 88.377 130.061 88.377 130.264C88.377 130.467 88.3203 130.618 88.207 130.718C88.0938 130.815 87.9502 130.864 87.7764 130.864H83.6484V133.732H85.415C85.5869 133.732 85.7295 133.782 85.8428 133.882C85.9561 133.979 86.0127 134.13 86.0127 134.333C86.0127 134.534 85.9561 134.685 85.8428 134.784C85.7295 134.882 85.5869 134.931 85.415 134.931H83.6484V137.799Z" fill="#4D4D4D" fill-opacity="0.8"/>
<path d="M92.2852 133.935V138.399C92.2852 138.8 92.0859 139 91.6875 139C91.2871 139 91.0869 138.8 91.0869 138.399V129.663H95.1182C95.4404 129.663 95.7471 129.735 96.0381 129.88C96.3291 130.024 96.5645 130.23 96.7441 130.498C96.9238 130.764 97.0137 131.065 97.0137 131.403V132.232C97.0137 132.592 96.9248 132.9 96.7471 133.158C96.5713 133.414 96.3379 133.607 96.0469 133.738C95.7559 133.869 95.4463 133.935 95.1182 133.935H94.0137L96.7148 137.799C96.9141 138.074 97.0137 138.286 97.0137 138.435C97.0137 138.601 96.9541 138.736 96.835 138.842C96.7158 138.947 96.5713 139 96.4014 139C96.2021 139 96.0264 138.888 95.874 138.663L92.5635 133.935H92.2852ZM92.2852 130.864V132.736H94.9512C95.1973 132.736 95.4023 132.706 95.5664 132.646C95.7324 132.583 95.8154 132.445 95.8154 132.232V131.403C95.8154 131.044 95.5312 130.864 94.9629 130.864H92.2852Z" fill="#4D4D4D" fill-opacity="0.8"/>
<path d="M113.089 136.949V130.264C113.089 129.863 113.288 129.663 113.687 129.663C114.087 129.663 114.287 129.863 114.287 130.264V139H112.705L109.573 131.799H109.585H109.559V138.399C109.559 138.8 109.359 139 108.961 139C108.561 139 108.36 138.8 108.36 138.399V129.663H109.945L113.077 136.949H113.062H113.089Z" fill="#4D4D4D" fill-opacity="0.8"/>
<path d="M116.997 138.399L119.35 130.275C119.406 130.08 119.479 129.93 119.566 129.824C119.656 129.717 119.788 129.663 119.962 129.663C120.267 129.663 120.475 129.867 120.586 130.275L122.9 138.399C122.9 138.573 122.843 138.717 122.728 138.83C122.612 138.943 122.478 139 122.323 139C122.009 139 121.793 138.8 121.676 138.399L121.233 136.961H118.676L118.222 138.399C118.104 138.8 117.888 139 117.571 139C117.419 139 117.285 138.942 117.17 138.827C117.055 138.712 116.997 138.569 116.997 138.399ZM120.896 135.76L119.974 132.508H119.947L119.013 135.76H120.896Z" fill="#4D4D4D" fill-opacity="0.8"/>
<path d="M128.599 131.775L130.061 129.663H131.561V138.399C131.561 138.8 131.36 139 130.96 139C130.562 139 130.362 138.8 130.362 138.399V131.321H130.336L129.196 133.012V133.205C129.196 133.684 128.997 133.923 128.599 133.923C128.397 133.923 128.247 133.855 128.147 133.721C128.048 133.584 127.998 133.412 127.998 133.205V133.012L126.858 131.321H126.832V138.399C126.832 138.8 126.633 139 126.234 139C125.834 139 125.634 138.8 125.634 138.399V129.663H127.134L128.599 131.775Z" fill="#4D4D4D" fill-opacity="0.8"/>
<path d="M135.469 137.799H139.597C139.771 137.799 139.914 137.849 140.027 137.948C140.141 138.046 140.197 138.196 140.197 138.399C140.197 138.603 140.141 138.754 140.027 138.854C139.914 138.951 139.771 139 139.597 139H134.271V129.663H139.597C139.771 129.663 139.914 129.713 140.027 129.812C140.141 129.91 140.197 130.061 140.197 130.264C140.197 130.467 140.141 130.618 140.027 130.718C139.914 130.815 139.771 130.864 139.597 130.864H135.469V133.732H137.235C137.407 133.732 137.55 133.782 137.663 133.882C137.776 133.979 137.833 134.13 137.833 134.333C137.833 134.534 137.776 134.685 137.663 134.784C137.55 134.882 137.407 134.931 137.235 134.931H135.469V137.799Z" fill="#4D4D4D" fill-opacity="0.8"/>
<path d="M110.136 116.219H113.078C113.354 116.219 113.59 116.318 113.783 116.515C113.979 116.71 114.076 116.945 114.076 117.22V122.999C114.076 123.279 113.981 123.516 113.791 123.709C113.6 123.903 113.362 124 113.078 124H110.136C109.851 124 109.613 123.903 109.423 123.709C109.232 123.516 109.137 123.279 109.137 122.999V117.22C109.137 116.945 109.234 116.71 109.428 116.515C109.623 116.318 109.859 116.219 110.136 116.219ZM110.136 122.999H113.078V117.22H110.136V122.999Z" fill="#4D4D4D" fill-opacity="0.8"/>
<path d="M117.333 116.219H120.275C120.552 116.219 120.787 116.318 120.98 116.515C121.176 116.71 121.273 116.945 121.273 117.22V122.999C121.273 123.279 121.178 123.516 120.988 123.709C120.797 123.903 120.56 124 120.275 124H117.333C117.048 124 116.811 123.903 116.62 123.709C116.43 123.516 116.334 123.279 116.334 122.999V117.22C116.334 116.945 116.431 116.71 116.625 116.515C116.82 116.318 117.056 116.219 117.333 116.219ZM117.333 122.999H120.275V117.22H117.333V122.999Z" fill="#4D4D4D" fill-opacity="0.8"/>
<path d="M128.361 117.081L124.521 123.651C124.389 123.884 124.226 124 124.032 124C123.905 124 123.79 123.954 123.686 123.861C123.583 123.766 123.532 123.656 123.532 123.529C123.532 123.418 123.605 123.245 123.751 123.009L127.492 116.6C127.57 116.47 127.643 116.374 127.711 116.312C127.78 116.25 127.87 116.219 127.982 116.219C128.114 116.219 128.228 116.266 128.324 116.358C128.422 116.45 128.471 116.56 128.471 116.69C128.471 116.819 128.434 116.949 128.361 117.081Z" fill="#4D4D4D" fill-opacity="0.8"/>
<path d="M131.728 116.219H134.669C134.946 116.219 135.181 116.318 135.375 116.515C135.57 116.71 135.668 116.945 135.668 117.22V122.999C135.668 123.279 135.573 123.516 135.382 123.709C135.192 123.903 134.954 124 134.669 124H131.728C131.443 124 131.205 123.903 131.015 123.709C130.824 123.516 130.729 123.279 130.729 122.999V117.22C130.729 116.945 130.826 116.71 131.02 116.515C131.215 116.318 131.451 116.219 131.728 116.219ZM131.728 122.999H134.669V117.22H131.728V122.999Z" fill="#4D4D4D" fill-opacity="0.8"/>
<path d="M138.925 116.219H141.867C142.143 116.219 142.379 116.318 142.572 116.515C142.768 116.71 142.865 116.945 142.865 117.22V122.999C142.865 123.279 142.77 123.516 142.58 123.709C142.389 123.903 142.152 124 141.867 124H138.925C138.64 124 138.402 123.903 138.212 123.709C138.021 123.516 137.926 123.279 137.926 122.999V117.22C137.926 116.945 138.023 116.71 138.217 116.515C138.412 116.318 138.648 116.219 138.925 116.219ZM138.925 122.999H141.867V117.22H138.925V122.999Z" fill="#4D4D4D" fill-opacity="0.8"/>
<path d="M20.0078 84.5508H24.7148C25.1576 84.5508 25.5339 84.7083 25.8438 85.0234C26.1562 85.3359 26.3125 85.7122 26.3125 86.1523V95.3984C26.3125 95.8464 26.1602 96.2253 25.8555 96.5352C25.5508 96.8451 25.1706 97 24.7148 97H20.0078C19.5521 97 19.1719 96.8451 18.8672 96.5352C18.5625 96.2253 18.4102 95.8464 18.4102 95.3984V86.1523C18.4102 85.7122 18.5651 85.3359 18.875 85.0234C19.1875 84.7083 19.5651 84.5508 20.0078 84.5508ZM20.0078 95.3984H24.7148V86.1523H20.0078V95.3984Z" fill="#4D4D4D" fill-opacity="0.8"/>
<path d="M31.5234 84.5508H36.2305C36.6732 84.5508 37.0495 84.7083 37.3594 85.0234C37.6719 85.3359 37.8281 85.7122 37.8281 86.1523V95.3984C37.8281 95.8464 37.6758 96.2253 37.3711 96.5352C37.0664 96.8451 36.6862 97 36.2305 97H31.5234C31.0677 97 30.6875 96.8451 30.3828 96.5352C30.0781 96.2253 29.9258 95.8464 29.9258 95.3984V86.1523C29.9258 85.7122 30.0807 85.3359 30.3906 85.0234C30.7031 84.7083 31.0807 84.5508 31.5234 84.5508ZM31.5234 95.3984H36.2305V86.1523H31.5234V95.3984Z" fill="#4D4D4D" fill-opacity="0.8"/>
<path d="M43.0391 84.5508H47.7461C48.1888 84.5508 48.5651 84.7083 48.875 85.0234C49.1875 85.3359 49.3438 85.7122 49.3438 86.1523V95.3984C49.3438 95.8464 49.1914 96.2253 48.8867 96.5352C48.582 96.8451 48.2018 97 47.7461 97H43.0391C42.5833 97 42.2031 96.8451 41.8984 96.5352C41.5938 96.2253 41.4414 95.8464 41.4414 95.3984V86.1523C41.4414 85.7122 41.5964 85.3359 41.9062 85.0234C42.2188 84.7083 42.5964 84.5508 43.0391 84.5508ZM43.0391 95.3984H47.7461V86.1523H43.0391V95.3984Z" fill="#4D4D4D" fill-opacity="0.8"/>
<path d="M54.5547 84.5508H59.2617C59.7044 84.5508 60.0807 84.7083 60.3906 85.0234C60.7031 85.3359 60.8594 85.7122 60.8594 86.1523V95.3984C60.8594 95.8464 60.707 96.2253 60.4023 96.5352C60.0977 96.8451 59.7174 97 59.2617 97H54.5547C54.099 97 53.7188 96.8451 53.4141 96.5352C53.1094 96.2253 52.957 95.8464 52.957 95.3984V86.1523C52.957 85.7122 53.112 85.3359 53.4219 85.0234C53.7344 84.7083 54.112 84.5508 54.5547 84.5508ZM54.5547 95.3984H59.2617V86.1523H54.5547V95.3984Z" fill="#4D4D4D" fill-opacity="0.8"/>
<path d="M77.5859 84.5508H82.293C82.7357 84.5508 83.112 84.7083 83.4219 85.0234C83.7344 85.3359 83.8906 85.7122 83.8906 86.1523V95.3984C83.8906 95.8464 83.7383 96.2253 83.4336 96.5352C83.1289 96.8451 82.7487 97 82.293 97H77.5859C77.1302 97 76.75 96.8451 76.4453 96.5352C76.1406 96.2253 75.9883 95.8464 75.9883 95.3984V86.1523C75.9883 85.7122 76.1432 85.3359 76.4531 85.0234C76.7656 84.7083 77.1432 84.5508 77.5859 84.5508ZM77.5859 95.3984H82.293V86.1523H77.5859V95.3984Z" fill="#4D4D4D" fill-opacity="0.8"/>
<path d="M89.1016 84.5508H93.8086C94.2513 84.5508 94.6276 84.7083 94.9375 85.0234C95.25 85.3359 95.4062 85.7122 95.4062 86.1523V95.3984C95.4062 95.8464 95.2539 96.2253 94.9492 96.5352C94.6445 96.8451 94.2643 97 93.8086 97H89.1016C88.6458 97 88.2656 96.8451 87.9609 96.5352C87.6562 96.2253 87.5039 95.8464 87.5039 95.3984V86.1523C87.5039 85.7122 87.6589 85.3359 87.9688 85.0234C88.2812 84.7083 88.6589 84.5508 89.1016 84.5508ZM89.1016 95.3984H93.8086V86.1523H89.1016V95.3984Z" fill="#4D4D4D" fill-opacity="0.8"/>
<path d="M100.617 84.5508H105.324C105.767 84.5508 106.143 84.7083 106.453 85.0234C106.766 85.3359 106.922 85.7122 106.922 86.1523V95.3984C106.922 95.8464 106.77 96.2253 106.465 96.5352C106.16 96.8451 105.78 97 105.324 97H100.617C100.161 97 99.7812 96.8451 99.4766 96.5352C99.1719 96.2253 99.0195 95.8464 99.0195 95.3984V86.1523C99.0195 85.7122 99.1745 85.3359 99.4844 85.0234C99.7969 84.7083 100.174 84.5508 100.617 84.5508ZM100.617 95.3984H105.324V86.1523H100.617V95.3984Z" fill="#4D4D4D" fill-opacity="0.8"/>
<path d="M112.133 84.5508H116.84C117.283 84.5508 117.659 84.7083 117.969 85.0234C118.281 85.3359 118.438 85.7122 118.438 86.1523V95.3984C118.438 95.8464 118.285 96.2253 117.98 96.5352C117.676 96.8451 117.296 97 116.84 97H112.133C111.677 97 111.297 96.8451 110.992 96.5352C110.688 96.2253 110.535 95.8464 110.535 95.3984V86.1523C110.535 85.7122 110.69 85.3359 111 85.0234C111.312 84.7083 111.69 84.5508 112.133 84.5508ZM112.133 95.3984H116.84V86.1523H112.133V95.3984Z" fill="#4D4D4D" fill-opacity="0.8"/>
<path d="M135.164 84.5508H139.871C140.314 84.5508 140.69 84.7083 141 85.0234C141.312 85.3359 141.469 85.7122 141.469 86.1523V95.3984C141.469 95.8464 141.316 96.2253 141.012 96.5352C140.707 96.8451 140.327 97 139.871 97H135.164C134.708 97 134.328 96.8451 134.023 96.5352C133.719 96.2253 133.566 95.8464 133.566 95.3984V86.1523C133.566 85.7122 133.721 85.3359 134.031 85.0234C134.344 84.7083 134.721 84.5508 135.164 84.5508ZM135.164 95.3984H139.871V86.1523H135.164V95.3984Z" fill="#4D4D4D" fill-opacity="0.8"/>
<path d="M146.68 84.5508H151.387C151.829 84.5508 152.206 84.7083 152.516 85.0234C152.828 85.3359 152.984 85.7122 152.984 86.1523V95.3984C152.984 95.8464 152.832 96.2253 152.527 96.5352C152.223 96.8451 151.842 97 151.387 97H146.68C146.224 97 145.844 96.8451 145.539 96.5352C145.234 96.2253 145.082 95.8464 145.082 95.3984V86.1523C145.082 85.7122 145.237 85.3359 145.547 85.0234C145.859 84.7083 146.237 84.5508 146.68 84.5508ZM146.68 95.3984H151.387V86.1523H146.68V95.3984Z" fill="#4D4D4D" fill-opacity="0.8"/>
<path d="M158.195 84.5508H162.902C163.345 84.5508 163.721 84.7083 164.031 85.0234C164.344 85.3359 164.5 85.7122 164.5 86.1523V95.3984C164.5 95.8464 164.348 96.2253 164.043 96.5352C163.738 96.8451 163.358 97 162.902 97H158.195C157.74 97 157.359 96.8451 157.055 96.5352C156.75 96.2253 156.598 95.8464 156.598 95.3984V86.1523C156.598 85.7122 156.753 85.3359 157.062 85.0234C157.375 84.7083 157.753 84.5508 158.195 84.5508ZM158.195 95.3984H162.902V86.1523H158.195V95.3984Z" fill="#4D4D4D" fill-opacity="0.8"/>
<path d="M169.711 84.5508H174.418C174.861 84.5508 175.237 84.7083 175.547 85.0234C175.859 85.3359 176.016 85.7122 176.016 86.1523V95.3984C176.016 95.8464 175.863 96.2253 175.559 96.5352C175.254 96.8451 174.874 97 174.418 97H169.711C169.255 97 168.875 96.8451 168.57 96.5352C168.266 96.2253 168.113 95.8464 168.113 95.3984V86.1523C168.113 85.7122 168.268 85.3359 168.578 85.0234C168.891 84.7083 169.268 84.5508 169.711 84.5508ZM169.711 95.3984H174.418V86.1523H169.711V95.3984Z" fill="#4D4D4D" fill-opacity="0.8"/>
<path d="M192.742 84.5508H197.449C197.892 84.5508 198.268 84.7083 198.578 85.0234C198.891 85.3359 199.047 85.7122 199.047 86.1523V95.3984C199.047 95.8464 198.895 96.2253 198.59 96.5352C198.285 96.8451 197.905 97 197.449 97H192.742C192.286 97 191.906 96.8451 191.602 96.5352C191.297 96.2253 191.145 95.8464 191.145 95.3984V86.1523C191.145 85.7122 191.299 85.3359 191.609 85.0234C191.922 84.7083 192.299 84.5508 192.742 84.5508ZM192.742 95.3984H197.449V86.1523H192.742V95.3984Z" fill="#4D4D4D" fill-opacity="0.8"/>
<path d="M204.258 84.5508H208.965C209.408 84.5508 209.784 84.7083 210.094 85.0234C210.406 85.3359 210.562 85.7122 210.562 86.1523V95.3984C210.562 95.8464 210.41 96.2253 210.105 96.5352C209.801 96.8451 209.421 97 208.965 97H204.258C203.802 97 203.422 96.8451 203.117 96.5352C202.812 96.2253 202.66 95.8464 202.66 95.3984V86.1523C202.66 85.7122 202.815 85.3359 203.125 85.0234C203.438 84.7083 203.815 84.5508 204.258 84.5508ZM204.258 95.3984H208.965V86.1523H204.258V95.3984Z" fill="#4D4D4D" fill-opacity="0.8"/>
<path d="M215.773 84.5508H220.48C220.923 84.5508 221.299 84.7083 221.609 85.0234C221.922 85.3359 222.078 85.7122 222.078 86.1523V95.3984C222.078 95.8464 221.926 96.2253 221.621 96.5352C221.316 96.8451 220.936 97 220.48 97H215.773C215.318 97 214.938 96.8451 214.633 96.5352C214.328 96.2253 214.176 95.8464 214.176 95.3984V86.1523C214.176 85.7122 214.331 85.3359 214.641 85.0234C214.953 84.7083 215.331 84.5508 215.773 84.5508ZM215.773 95.3984H220.48V86.1523H215.773V95.3984Z" fill="#4D4D4D" fill-opacity="0.8"/>
<path d="M227.289 84.5508H231.996C232.439 84.5508 232.815 84.7083 233.125 85.0234C233.438 85.3359 233.594 85.7122 233.594 86.1523V95.3984C233.594 95.8464 233.441 96.2253 233.137 96.5352C232.832 96.8451 232.452 97 231.996 97H227.289C226.833 97 226.453 96.8451 226.148 96.5352C225.844 96.2253 225.691 95.8464 225.691 95.3984V86.1523C225.691 85.7122 225.846 85.3359 226.156 85.0234C226.469 84.7083 226.846 84.5508 227.289 84.5508ZM227.289 95.3984H231.996V86.1523H227.289V95.3984Z" fill="#4D4D4D" fill-opacity="0.8"/>
<path d="M207.652 129.929L210.181 115.09H214.226L211.695 129.929H207.652Z" fill="#4D4D4D" fill-opacity="0.8"/>
<path d="M226.316 115.409C225.515 115.109 224.259 114.786 222.691 114.786C218.695 114.786 215.879 116.799 215.855 119.683C215.833 121.815 217.865 123.005 219.399 123.714C220.974 124.442 221.503 124.906 221.495 125.555C221.485 126.55 220.238 127.004 219.076 127.004C217.457 127.004 216.597 126.779 215.269 126.225L214.747 125.989L214.18 129.311C215.124 129.726 216.871 130.084 218.685 130.103C222.937 130.103 225.697 128.113 225.728 125.033C225.743 123.345 224.666 122.061 222.332 121.002C220.919 120.315 220.053 119.857 220.062 119.162C220.062 118.545 220.795 117.886 222.378 117.886C223.701 117.865 224.659 118.154 225.405 118.454L225.768 118.625L226.316 115.409Z" fill="#4D4D4D" fill-opacity="0.8"/>
<path d="M236.726 115.09H233.601C232.633 115.09 231.908 115.354 231.483 116.32L225.477 129.919H229.724C229.724 129.919 230.418 128.091 230.575 127.689C231.039 127.689 235.165 127.695 235.755 127.695C235.876 128.215 236.247 129.919 236.247 129.919H240L236.726 115.09ZM231.768 124.672C232.102 123.817 233.379 120.523 233.379 120.523C233.355 120.563 233.711 119.664 233.915 119.107L234.189 120.387C234.189 120.387 234.963 123.929 235.125 124.671L231.768 124.672Z" fill="#4D4D4D" fill-opacity="0.8"/>
<path d="M190.052 115.09L190 115.399C191.599 115.786 193.027 116.346 194.277 117.043L197.866 129.905L202.145 129.9L208.513 115.09H204.228L200.268 125.209L199.847 123.152C199.827 123.089 199.805 123.025 199.783 122.961L198.407 116.343C198.162 115.403 197.452 115.123 196.574 115.09H190.052Z" fill="#4D4D4D" fill-opacity="0.8"/>
<path d="M209.939 138.68H208.459V137.902H209.939C210.197 137.902 210.405 137.861 210.564 137.777C210.723 137.694 210.839 137.579 210.912 137.434C210.987 137.285 211.025 137.116 211.025 136.926C211.025 136.746 210.987 136.578 210.912 136.422C210.839 136.263 210.723 136.135 210.564 136.039C210.405 135.943 210.197 135.895 209.939 135.895H208.76V140.801H207.779V135.113H209.939C210.379 135.113 210.753 135.191 211.06 135.348C211.37 135.501 211.606 135.715 211.767 135.988C211.929 136.259 212.01 136.569 212.01 136.918C212.01 137.285 211.929 137.6 211.767 137.863C211.606 138.126 211.37 138.328 211.06 138.469C210.753 138.609 210.379 138.68 209.939 138.68Z" fill="#4D4D4D" fill-opacity="0.8"/>
<path d="M213.882 134.801V140.801H212.937V134.801H213.882Z" fill="#4D4D4D" fill-opacity="0.8"/>
<path d="M217.377 139.953V137.938C217.377 137.786 217.349 137.656 217.295 137.547C217.24 137.438 217.157 137.353 217.045 137.293C216.935 137.233 216.797 137.203 216.63 137.203C216.477 137.203 216.344 137.229 216.232 137.281C216.12 137.333 216.033 137.404 215.97 137.492C215.908 137.581 215.877 137.681 215.877 137.793H214.939C214.939 137.626 214.979 137.465 215.06 137.309C215.141 137.152 215.258 137.013 215.412 136.891C215.565 136.768 215.749 136.672 215.962 136.602C216.176 136.531 216.416 136.496 216.681 136.496C216.999 136.496 217.28 136.549 217.525 136.656C217.772 136.763 217.966 136.924 218.107 137.141C218.25 137.354 218.322 137.622 218.322 137.945V139.824C218.322 140.017 218.335 140.19 218.361 140.344C218.39 140.495 218.43 140.626 218.482 140.738V140.801H217.517C217.473 140.699 217.438 140.57 217.412 140.414C217.388 140.255 217.377 140.102 217.377 139.953ZM217.513 138.23L217.521 138.812H216.845C216.671 138.812 216.517 138.829 216.384 138.863C216.252 138.895 216.141 138.941 216.052 139.004C215.964 139.066 215.897 139.142 215.853 139.23C215.809 139.319 215.787 139.419 215.787 139.531C215.787 139.643 215.813 139.746 215.865 139.84C215.917 139.931 215.992 140.003 216.091 140.055C216.193 140.107 216.315 140.133 216.459 140.133C216.651 140.133 216.819 140.094 216.962 140.016C217.108 139.935 217.223 139.837 217.306 139.723C217.39 139.605 217.434 139.495 217.439 139.391L217.744 139.809C217.712 139.915 217.659 140.03 217.584 140.152C217.508 140.275 217.409 140.392 217.287 140.504C217.167 140.613 217.022 140.703 216.853 140.773C216.686 140.844 216.494 140.879 216.275 140.879C215.999 140.879 215.753 140.824 215.537 140.715C215.321 140.603 215.151 140.453 215.029 140.266C214.907 140.076 214.845 139.861 214.845 139.621C214.845 139.397 214.887 139.199 214.97 139.027C215.056 138.853 215.181 138.707 215.345 138.59C215.512 138.473 215.715 138.384 215.955 138.324C216.194 138.262 216.468 138.23 216.775 138.23H217.513Z" fill="#4D4D4D" fill-opacity="0.8"/>
<path d="M221.324 136.574V137.262H218.941V136.574H221.324ZM219.628 135.539H220.57V139.633C220.57 139.763 220.588 139.863 220.625 139.934C220.664 140.001 220.717 140.047 220.785 140.07C220.852 140.094 220.932 140.105 221.023 140.105C221.088 140.105 221.151 140.102 221.21 140.094C221.27 140.086 221.319 140.078 221.355 140.07L221.359 140.789C221.281 140.812 221.19 140.833 221.085 140.852C220.984 140.87 220.867 140.879 220.734 140.879C220.518 140.879 220.326 140.841 220.16 140.766C219.993 140.688 219.863 140.561 219.769 140.387C219.675 140.212 219.628 139.98 219.628 139.691V135.539Z" fill="#4D4D4D" fill-opacity="0.8"/>
<path d="M223.138 136.574V140.801H222.193V136.574H223.138ZM222.13 135.465C222.13 135.322 222.177 135.203 222.271 135.109C222.367 135.013 222.5 134.965 222.669 134.965C222.836 134.965 222.968 135.013 223.064 135.109C223.16 135.203 223.208 135.322 223.208 135.465C223.208 135.605 223.16 135.723 223.064 135.816C222.968 135.91 222.836 135.957 222.669 135.957C222.5 135.957 222.367 135.91 222.271 135.816C222.177 135.723 222.13 135.605 222.13 135.465Z" fill="#4D4D4D" fill-opacity="0.8"/>
<path d="M225.183 137.477V140.801H224.242V136.574H225.128L225.183 137.477ZM225.015 138.531L224.71 138.527C224.713 138.228 224.755 137.953 224.835 137.703C224.919 137.453 225.033 137.238 225.179 137.059C225.327 136.879 225.505 136.741 225.71 136.645C225.916 136.546 226.145 136.496 226.398 136.496C226.601 136.496 226.785 136.525 226.949 136.582C227.115 136.637 227.257 136.727 227.374 136.852C227.494 136.977 227.585 137.139 227.648 137.34C227.71 137.538 227.742 137.781 227.742 138.07V140.801H226.796V138.066C226.796 137.863 226.766 137.703 226.706 137.586C226.649 137.466 226.564 137.382 226.452 137.332C226.343 137.28 226.206 137.254 226.042 137.254C225.881 137.254 225.736 137.288 225.609 137.355C225.481 137.423 225.373 137.516 225.285 137.633C225.199 137.75 225.132 137.885 225.085 138.039C225.038 138.193 225.015 138.357 225.015 138.531Z" fill="#4D4D4D" fill-opacity="0.8"/>
<path d="M231.325 139.805V136.574H232.271V140.801H231.38L231.325 139.805ZM231.458 138.926L231.775 138.918C231.775 139.202 231.743 139.464 231.681 139.703C231.618 139.94 231.522 140.147 231.392 140.324C231.262 140.499 231.095 140.635 230.892 140.734C230.689 140.831 230.445 140.879 230.161 140.879C229.956 140.879 229.767 140.849 229.595 140.789C229.423 140.729 229.275 140.637 229.15 140.512C229.027 140.387 228.932 140.224 228.865 140.023C228.797 139.823 228.763 139.583 228.763 139.305V136.574H229.704V139.312C229.704 139.466 229.723 139.595 229.759 139.699C229.796 139.801 229.845 139.883 229.908 139.945C229.97 140.008 230.043 140.052 230.126 140.078C230.21 140.104 230.298 140.117 230.392 140.117C230.66 140.117 230.871 140.065 231.025 139.961C231.181 139.854 231.292 139.711 231.357 139.531C231.424 139.352 231.458 139.15 231.458 138.926Z" fill="#4D4D4D" fill-opacity="0.8"/>
<path d="M234.257 137.434V140.801H233.316V136.574H234.202L234.257 137.434ZM234.105 138.531L233.784 138.527C233.784 138.236 233.821 137.966 233.894 137.719C233.967 137.471 234.073 137.257 234.214 137.074C234.355 136.889 234.529 136.747 234.738 136.648C234.948 136.547 235.192 136.496 235.468 136.496C235.661 136.496 235.836 136.525 235.995 136.582C236.157 136.637 236.296 136.724 236.413 136.844C236.533 136.964 236.624 137.117 236.687 137.305C236.752 137.492 236.784 137.719 236.784 137.984V140.801H235.843V138.066C235.843 137.861 235.812 137.699 235.749 137.582C235.689 137.465 235.602 137.382 235.488 137.332C235.376 137.28 235.241 137.254 235.085 137.254C234.908 137.254 234.757 137.288 234.632 137.355C234.51 137.423 234.409 137.516 234.331 137.633C234.253 137.75 234.196 137.885 234.159 138.039C234.123 138.193 234.105 138.357 234.105 138.531ZM236.726 138.281L236.284 138.379C236.284 138.124 236.32 137.883 236.39 137.656C236.463 137.427 236.568 137.227 236.706 137.055C236.847 136.88 237.02 136.743 237.226 136.645C237.432 136.546 237.667 136.496 237.933 136.496C238.149 136.496 238.342 136.526 238.511 136.586C238.683 136.643 238.829 136.734 238.948 136.859C239.068 136.984 239.159 137.147 239.222 137.348C239.284 137.546 239.316 137.785 239.316 138.066V140.801H238.37V138.062C238.37 137.849 238.339 137.684 238.277 137.566C238.217 137.449 238.131 137.368 238.019 137.324C237.907 137.277 237.773 137.254 237.616 137.254C237.471 137.254 237.342 137.281 237.23 137.336C237.12 137.388 237.028 137.462 236.952 137.559C236.877 137.652 236.82 137.76 236.78 137.883C236.744 138.005 236.726 138.138 236.726 138.281Z" fill="#4D4D4D" fill-opacity="0.8"/>
<path d="M16.2219 19.1436H14.048L14.0363 18.0713H15.9348C16.2551 18.0713 16.5266 18.0244 16.7492 17.9307C16.9758 17.833 17.1477 17.6943 17.2648 17.5146C17.382 17.3311 17.4406 17.1104 17.4406 16.8525C17.4406 16.5674 17.3859 16.335 17.2766 16.1553C17.1672 15.9756 16.9992 15.8447 16.7727 15.7627C16.55 15.6807 16.2648 15.6396 15.9172 15.6396H14.4934V22.999H13.0227V14.4678H15.9172C16.3859 14.4678 16.8039 14.5127 17.1711 14.6025C17.5422 14.6924 17.8566 14.833 18.1145 15.0244C18.3762 15.2119 18.5734 15.4502 18.7063 15.7393C18.843 16.0283 18.9113 16.3721 18.9113 16.7705C18.9113 17.1221 18.8273 17.4443 18.6594 17.7373C18.4914 18.0264 18.2434 18.2627 17.9152 18.4463C17.5871 18.6299 17.1789 18.7393 16.6906 18.7744L16.2219 19.1436ZM16.1574 22.999H13.5852L14.2473 21.833H16.1574C16.4895 21.833 16.7668 21.7783 16.9895 21.6689C17.2121 21.5557 17.3781 21.4014 17.4875 21.2061C17.6008 21.0068 17.6574 20.7744 17.6574 20.5088C17.6574 20.2314 17.6086 19.9912 17.5109 19.7881C17.4133 19.5811 17.259 19.4229 17.048 19.3135C16.8371 19.2002 16.5617 19.1436 16.2219 19.1436H14.5695L14.5813 18.0713H16.7316L17.0656 18.4756C17.5344 18.4912 17.9191 18.5947 18.2199 18.7861C18.5246 18.9775 18.7512 19.2256 18.8996 19.5303C19.048 19.835 19.1223 20.1631 19.1223 20.5146C19.1223 21.0576 19.0031 21.5127 18.7648 21.8799C18.5305 22.2471 18.1926 22.5264 17.7512 22.7178C17.3098 22.9053 16.7785 22.999 16.1574 22.999Z" fill="#4D4D4D" fill-opacity="0.8"/>
<path d="M24.047 15.6045L21.4981 22.999H19.9571L23.168 14.4678H24.1524L24.047 15.6045ZM26.1798 22.999L23.6251 15.6045L23.5138 14.4678H24.504L27.7266 22.999H26.1798ZM26.0567 19.835V21.001H21.4161V19.835H26.0567Z" fill="#4D4D4D" fill-opacity="0.8"/>
<path d="M35.5693 14.4678V22.999H34.0986L30.2724 16.8877V22.999H28.8017V14.4678H30.2724L34.1103 20.5908V14.4678H35.5693Z" fill="#4D4D4D" fill-opacity="0.8"/>
<path d="M38.912 14.4678V22.999H37.4413V14.4678H38.912ZM44.0389 14.4678L40.5819 18.5752L38.6131 20.6611L38.3553 19.2021L39.7616 17.4678L42.2459 14.4678H44.0389ZM42.4569 22.999L39.6502 18.9561L40.6639 17.9541L44.203 22.999H42.4569Z" fill="#4D4D4D" fill-opacity="0.8"/>
<path d="M51.5738 15.6045L49.025 22.999H47.484L50.6949 14.4678H51.6793L51.5738 15.6045ZM53.7066 22.999L51.152 15.6045L51.0406 14.4678H52.0309L55.2535 22.999H53.7066ZM53.5836 19.835V21.001H48.943V19.835H53.5836Z" fill="#4D4D4D" fill-opacity="0.8"/>
<path d="M56.3286 14.4678H59.3462C59.9946 14.4678 60.5473 14.5654 61.0044 14.7607C61.4614 14.9561 61.811 15.2451 62.0532 15.6279C62.2993 16.0068 62.4223 16.4756 62.4223 17.0342C62.4223 17.46 62.3442 17.835 62.188 18.1592C62.0317 18.4834 61.811 18.7568 61.5259 18.9795C61.2407 19.1982 60.9009 19.3682 60.5063 19.4893L60.061 19.7061H57.3481L57.3364 18.54H59.3696C59.7212 18.54 60.0141 18.4775 60.2485 18.3525C60.4829 18.2275 60.6587 18.0576 60.7759 17.8428C60.897 17.624 60.9575 17.3779 60.9575 17.1045C60.9575 16.8076 60.8989 16.5498 60.7817 16.3311C60.6684 16.1084 60.4927 15.9385 60.2544 15.8213C60.0161 15.7002 59.7134 15.6396 59.3462 15.6396H57.7993V22.999H56.3286V14.4678ZM61.1977 22.999L59.1938 19.167L60.7348 19.1611L62.7681 22.9229V22.999H61.1977Z" fill="#4D4D4D" fill-opacity="0.8"/>
<path d="M66.8138 21.4404L69.058 14.4678H70.681L67.6224 22.999H66.5267L66.8138 21.4404ZM64.7396 14.4678L66.9662 21.4404L67.2709 22.999H66.1693L63.1224 14.4678H64.7396Z" fill="#4D4D4D" fill-opacity="0.8"/>
<path d="M74.633 15.6045L72.0842 22.999H70.5432L73.7541 14.4678H74.7385L74.633 15.6045ZM76.7659 22.999L74.2112 15.6045L74.0998 14.4678H75.0901L78.3127 22.999H76.7659ZM76.6428 19.835V21.001H72.0022V19.835H76.6428Z" fill="#4D4D4D" fill-opacity="0.8"/>
<path d="M86.1554 14.4678V22.999H84.6847L80.8585 16.8877V22.999H79.3878V14.4678H80.8585L84.6964 20.5908V14.4678H86.1554Z" fill="#4D4D4D" fill-opacity="0.8"/>
<path d="M90.5059 22.999H88.6836L88.6953 21.833H90.5059C91.0332 21.833 91.4746 21.7178 91.8301 21.4873C92.1895 21.2568 92.459 20.9268 92.6387 20.4971C92.8223 20.0674 92.9141 19.5557 92.9141 18.9619V18.499C92.9141 18.0381 92.8613 17.6299 92.7559 17.2744C92.6543 16.9189 92.502 16.6201 92.2988 16.3779C92.0996 16.1357 91.8535 15.9521 91.5605 15.8271C91.2715 15.7021 90.9375 15.6396 90.5586 15.6396H88.6484V14.4678H90.5586C91.125 14.4678 91.6426 14.5635 92.1113 14.7549C92.5801 14.9424 92.9844 15.2139 93.3242 15.5693C93.668 15.9248 93.9316 16.3506 94.1152 16.8467C94.2988 17.3428 94.3906 17.8975 94.3906 18.5107V18.9619C94.3906 19.5752 94.2988 20.1299 94.1152 20.626C93.9316 21.1221 93.668 21.5479 93.3242 21.9033C92.9805 22.2549 92.5703 22.5264 92.0938 22.7178C91.6211 22.9053 91.0918 22.999 90.5059 22.999ZM89.498 14.4678V22.999H88.0273V14.4678H89.498Z" fill="#4D4D4D" fill-opacity="0.8"/>
<path d="M48.5539 78.359H20.8039C19.258 78.359 18 77.0998 18 75.5539V47.8039C18 46.258 19.258 45 20.8039 45H48.5539C50.0998 45 51.359 46.258 51.359 47.8039V75.5539C51.359 77.0998 50.0998 78.359 48.5539 78.359ZM35.1703 77.3738H48.5539C49.5575 77.3738 50.3738 76.5575 50.3738 75.5539V72.5777H45.0852C44.9545 72.5777 44.8296 72.5257 44.7371 72.4332L40.2567 67.9527H35.1703V77.3738ZM18.9828 72.5777V75.5539C18.9828 76.5575 19.8003 77.3738 20.8039 77.3738H34.1875V67.9527H29.1023L24.6218 72.4332C24.5293 72.5257 24.4045 72.5777 24.2738 72.5777H18.9828ZM45.2887 71.5926H50.3738V62.1703H40.9527V67.2567L45.2887 71.5926ZM18.9828 71.5926H24.068L28.4051 67.2567V62.1703H18.9828V71.5926ZM29.3891 66.9676H39.9676V56.3891H29.3891V66.9676ZM40.9527 61.1875H50.3738V51.7641H45.2887L40.9527 56.1012V61.1875ZM18.9828 61.1875H28.4051V56.1023L24.0692 51.7641H18.9828V61.1875ZM35.1703 55.4062H40.2567L44.7371 50.9258C44.8296 50.8333 44.9545 50.7812 45.0852 50.7812H50.3738V47.8039C50.3738 46.8003 49.5575 45.9828 48.5539 45.9828H35.1703V55.4062ZM29.1012 55.4062H34.1863V45.9828H20.8039C19.8003 45.9828 18.9828 46.8003 18.9828 47.8039V50.7812H24.2727C24.4033 50.7812 24.5282 50.8321 24.6207 50.9258L29.1012 55.4062Z" fill="#A0A0A0"/>
<path d="M29.1012 55.4062H34.1863V45.9828H20.8039C19.8003 45.9828 18.9828 46.8003 18.9828 47.8039V50.7812H24.2727C24.4033 50.7812 24.5282 50.8321 24.6207 50.9258L29.1012 55.4062Z" fill="white"/>
<path d="M18.9828 61.1875H28.4051V56.1023L24.0692 51.7641H18.9828V61.1875Z" fill="white"/>
<path d="M18.9828 71.5926H24.068L28.4051 67.2567V62.1703H18.9828V71.5926Z" fill="white"/>
<path d="M29.3891 66.9676H39.9676V56.3891H29.3891V66.9676Z" fill="white"/>
<path d="M18.9828 72.5777V75.5539C18.9828 76.5575 19.8003 77.3738 20.8039 77.3738H34.1875V67.9527H29.1023L24.6218 72.4332C24.5293 72.5257 24.4045 72.5777 24.2738 72.5777H18.9828Z" fill="white"/>
<path d="M35.1703 77.3738H48.5539C49.5575 77.3738 50.3738 76.5575 50.3738 75.5539V72.5777H45.0852C44.9545 72.5777 44.8296 72.5257 44.7371 72.4332L40.2567 67.9527H35.1703V77.3738Z" fill="white"/>
<path d="M45.2887 71.5926H50.3738V62.1703H40.9527V67.2567L45.2887 71.5926Z" fill="white"/>
<path d="M40.9527 61.1875H50.3738V51.7641H45.2887L40.9527 56.1012V61.1875Z" fill="white"/>
<path d="M35.1703 55.4062H40.2567L44.7371 50.9258C44.8296 50.8333 44.9545 50.7812 45.0852 50.7812H50.3738V47.8039C50.3738 46.8003 49.5575 45.9828 48.5539 45.9828H35.1703V55.4062Z" fill="white"/>
<defs>
<linearGradient id="paint0_linear_118_4761" x1="57.4" y1="-14.7" x2="212.8" y2="183.4" gradientUnits="userSpaceOnUse">
<stop stop-color="#ECECEC"/>
<stop offset="1" stop-color="#D0D0D0"/>
</linearGradient>
</defs>
</svg>
