<svg width="100" height="62" viewBox="0 0 100 62" fill="none" xmlns="http://www.w3.org/2000/svg">
<path d="M0 8C0 3.58172 3.58172 0 8 0H92C96.4183 0 100 3.58172 100 8V54C100 58.4183 96.4183 62 92 62H8C3.58172 62 0 58.4183 0 54V8Z" fill="#F7F8FA"/>
<path d="M47.2198 37.783H43.9785L46.0038 25.224H49.2448L47.2198 37.783ZM41.2529 25.224L38.1634 33.8622L37.7971 32.002L36.7077 26.3548C36.7077 26.3548 36.5745 25.224 35.1705 25.224H30.0629L30.003 25.4367C31.1987 25.7385 32.3417 26.2226 33.3928 26.8722L36.2083 37.7833H39.5835L44.7406 25.224H41.2529ZM66.7424 37.783H69.718L67.1236 25.2237H64.5185C64.203 25.199 63.8878 25.2765 63.6188 25.4447C63.3498 25.613 63.141 25.8635 63.0226 26.1596L58.1894 37.7833H61.5676L62.2431 35.9178H66.3628L66.7424 37.783ZM63.1764 33.3404L64.8791 28.6406L65.8371 33.3404H63.1764ZM58.4428 28.2442L58.9052 25.5472C57.9687 25.2095 56.9848 25.0247 55.9905 24.9996C54.3824 24.9996 50.5633 25.7088 50.5633 29.1573C50.5633 32.4018 55.0456 32.4421 55.0456 34.1464C55.0456 35.8506 51.0252 35.5452 49.6983 34.4705L49.2165 37.2888C50.3742 37.7776 51.6196 38.0191 52.8744 37.998C55.0859 37.998 58.4221 36.8426 58.4221 33.6979C58.4221 30.4355 53.9006 30.1305 53.9006 28.7108C53.9006 27.2911 57.056 27.4732 58.4428 28.2442Z" fill="#1A1F71"/>
</svg>
