<svg width="108" height="70" viewBox="0 0 108 70" fill="none" xmlns="http://www.w3.org/2000/svg">
<g filter="url(#filter0_d_859_22067)">
<rect x="4" y="4" width="100" height="62" rx="8" fill="#1E65B3"/>
</g>
<g clip-path="url(#clip0_859_22067)">
<path d="M51.2207 41.7833H47.9794L50.0048 29.2244H53.2458L51.2207 41.7833ZM45.2538 29.2244L42.1643 37.8625L41.7981 36.0024L40.7086 30.3552C40.7086 30.3552 40.5755 29.2244 39.1714 29.2244H34.0638L34.0039 29.4371C35.1996 29.7389 36.3427 30.223 37.3937 30.8725L40.2092 41.7837H43.5844L48.7415 29.2244H45.2538ZM70.7433 41.7833H73.7189L71.1245 29.2241H68.5195C68.2039 29.1994 67.8887 29.2768 67.6197 29.4451C67.3507 29.6134 67.1419 29.8638 67.0235 30.16L62.1903 41.7837H65.5685L66.2441 39.9182H70.3637L70.7433 41.7833ZM67.1773 37.3408L68.8801 32.641L69.838 37.3408H67.1773ZM62.4437 32.2445L62.9062 29.5476C61.9696 29.2099 60.9857 29.025 59.9915 29C58.3833 29 54.5643 29.7092 54.5643 33.1576C54.5643 36.4022 59.0465 36.4425 59.0465 38.1467C59.0465 39.851 55.0261 39.5456 53.6993 38.4709L53.2175 41.2891C54.3751 41.778 55.6206 42.0195 56.8753 41.9983C59.0868 41.9983 62.423 40.843 62.423 37.6982C62.423 34.4359 57.9015 34.1309 57.9015 32.7112C57.9015 31.2915 61.0579 31.4736 62.4447 32.2445H62.4437Z" fill="white"/>
</g>
<defs>
<filter id="filter0_d_859_22067" x="0.38814" y="0.38814" width="107.224" height="69.2237" filterUnits="userSpaceOnUse" color-interpolation-filters="sRGB">
<feFlood flood-opacity="0" result="BackgroundImageFix"/>
<feColorMatrix in="SourceAlpha" type="matrix" values="0 0 0 0 0 0 0 0 0 0 0 0 0 0 0 0 0 0 127 0" result="hardAlpha"/>
<feOffset/>
<feGaussianBlur stdDeviation="1.80593"/>
<feComposite in2="hardAlpha" operator="out"/>
<feColorMatrix type="matrix" values="0 0 0 0 0 0 0 0 0 0 0 0 0 0 0 0 0 0 0.3 0"/>
<feBlend mode="normal" in2="BackgroundImageFix" result="effect1_dropShadow_859_22067"/>
<feBlend mode="normal" in="SourceGraphic" in2="effect1_dropShadow_859_22067" result="shape"/>
</filter>
<clipPath id="clip0_859_22067">
<rect width="39.715" height="13" fill="white" transform="translate(34 29)"/>
</clipPath>
</defs>
</svg>
