<svg width="30" height="30" viewBox="0 0 30 30" fill="none" xmlns="http://www.w3.org/2000/svg">
<path d="M26.1463 6.68478H25.7296V2.93478C25.7253 2.16258 25.4166 1.42328 24.8704 0.877175C24.3244 0.331175 23.5851 0.022475 22.8129 0.018075C22.6808 -0.006025 22.5451 -0.006025 22.4129 0.018075L2.5796 6.68478H2.3963H2.1296L1.8463 6.78478H1.6129L1.3463 6.93478L1.1463 7.21808L0.9129 7.41808L0.7296 7.58477L0.529601 7.83477C0.476301 7.88257 0.4312 7.93888 0.3963 8.00148C0.3344 8.09778 0.2787 8.19798 0.2296 8.30148L0.129599 8.48478C0.0831992 8.60448 0.0442 8.72688 0.0129 8.85148C0.0204 8.91228 0.0204 8.97388 0.0129 9.03478C-0.0043 9.22328 -0.0043 9.41298 0.0129 9.60148V26.2682C0.0164 27.0207 0.309001 27.743 0.830201 28.2858C1.3513 28.8288 2.0612 29.1507 2.8129 29.1848H26.1463C26.9184 29.1803 27.6578 28.8717 28.2038 28.3257C28.7499 27.7797 29.0586 27.0403 29.0629 26.2682V9.60148C29.0586 8.82928 28.7499 8.08988 28.2038 7.54388C27.6578 6.99788 26.9184 6.68918 26.1463 6.68478ZM22.9463 2.53478C23.0284 2.56508 23.0994 2.61948 23.1499 2.69088C23.2004 2.76228 23.2283 2.84728 23.2296 2.93478V6.68478H10.5129L22.9463 2.53478ZM26.5629 26.2682C26.5629 26.3787 26.5191 26.4847 26.4409 26.5627C26.3628 26.6408 26.2568 26.6848 26.1463 26.6848H2.8129C2.7024 26.6848 2.5965 26.6408 2.5183 26.5627C2.4402 26.4847 2.3963 26.3787 2.3963 26.2682V9.60148C2.3963 9.49098 2.4402 9.38498 2.5183 9.30678C2.5965 9.22868 2.7024 9.18478 2.8129 9.18478H26.1463C26.2568 9.18478 26.3628 9.22868 26.4409 9.30678C26.5191 9.38498 26.5629 9.49098 26.5629 9.60148V26.2682Z" fill="#47AAAF"/>
<path d="M21.9817 20.0154C23.1324 20.0154 24.065 19.0827 24.065 17.932C24.065 16.7814 23.1324 15.8487 21.9817 15.8487C20.831 15.8487 19.8984 16.7814 19.8984 17.932C19.8984 19.0827 20.831 20.0154 21.9817 20.0154Z" fill="#47AAAF"/>
</svg>
