<svg width="68" height="68" viewBox="0 0 68 68" fill="none" xmlns="http://www.w3.org/2000/svg">
<rect width="68" height="68" rx="16" fill="#F3F9F9" fill-opacity="0.5"/>
<path d="M45.6697 26.091H45.253V22.341C45.2487 21.5688 44.94 20.8294 44.3939 20.2834C43.8479 19.7374 43.1085 19.4287 42.3363 19.4243C42.2042 19.4002 42.0685 19.4002 41.9363 19.4243L22.103 26.091H21.9197H21.653L21.3697 26.191H21.1364L20.8697 26.341L20.6697 26.6243L20.4363 26.8243L20.253 26.991L20.053 27.241C19.9997 27.2888 19.9546 27.3451 19.9197 27.4076C19.8578 27.504 19.8022 27.6042 19.753 27.7076L19.653 27.891C19.6066 28.0107 19.5677 28.1331 19.5363 28.2576C19.5438 28.3185 19.5438 28.3801 19.5363 28.441C19.5191 28.6295 19.5191 28.8191 19.5363 29.0076V45.6744C19.5399 46.4269 19.8324 47.1492 20.3536 47.692C20.8747 48.235 21.5846 48.5569 22.3364 48.591H45.6697C46.4419 48.5865 47.1812 48.2779 47.7272 47.7319C48.2734 47.1859 48.582 46.4465 48.5863 45.6744V29.0076C48.582 28.2354 48.2734 27.4961 47.7272 26.9501C47.1812 26.404 46.4419 26.0953 45.6697 26.091ZM42.4697 21.941C42.5518 21.9713 42.6229 22.0257 42.6733 22.0971C42.7239 22.1685 42.7517 22.2535 42.753 22.341V26.091H30.0363L42.4697 21.941ZM46.0863 45.6744C46.0863 45.7849 46.0425 45.8909 45.9643 45.9689C45.8862 46.047 45.7802 46.091 45.6697 46.091H22.3364C22.2259 46.091 22.1199 46.047 22.0417 45.9689C21.9636 45.8909 21.9197 45.7849 21.9197 45.6744V29.0076C21.9197 28.8971 21.9636 28.7912 22.0417 28.713C22.1199 28.6349 22.2259 28.591 22.3364 28.591H45.6697C45.7802 28.591 45.8862 28.6349 45.9643 28.713C46.0425 28.7912 46.0863 28.8971 46.0863 29.0076V45.6744Z" fill="#47AAAF"/>
<path d="M41.4993 39.4167C42.65 39.4167 43.5827 38.484 43.5827 37.3333C43.5827 36.1827 42.65 35.25 41.4993 35.25C40.3487 35.25 39.416 36.1827 39.416 37.3333C39.416 38.484 40.3487 39.4167 41.4993 39.4167Z" fill="#47AAAF"/>
</svg>
