<svg width="48" height="48" viewBox="0 0 48 48" fill="none" xmlns="http://www.w3.org/2000/svg">
<path d="M24 44C35.0457 44 44 35.0457 44 24C44 12.9543 35.0457 4 24 4C12.9543 4 4 12.9543 4 24C4 35.0457 12.9543 44 24 44Z" fill="#27D045"/>
<path d="M24.1354 33.4993C29.4742 33.4993 33.8021 29.1714 33.8021 23.8327C33.8021 18.4939 29.4742 14.166 24.1354 14.166C18.7967 14.166 14.4688 18.4939 14.4688 23.8327C14.4688 29.1714 18.7967 33.4993 24.1354 33.4993Z" stroke="white" stroke-width="1.66667"/>
<path d="M15.3146 29.3328L13.7812 34.7661L19.4146 33.1995L19.7146 31.4661L16.0479 32.6328L17.0146 29.1328L15.3146 29.3328Z" fill="white"/>
<path d="M15.9844 32.6666C15.9844 32.6333 17.151 28.7666 17.151 28.7666L19.951 31.3999L15.9844 32.6666Z" fill="#27D045"/>
<path d="M19.9791 19.0443C19.6388 19.2805 19.3486 19.5818 19.1255 19.9308C18.9023 20.2798 18.7506 20.6696 18.6791 21.0777C18.5124 22.3777 19.3124 23.711 19.3124 23.711C20.1239 24.9183 21.0874 26.0162 22.1791 26.9777C23.1341 27.7333 24.2183 28.3093 25.3791 28.6777C26.0562 28.948 26.7969 29.0174 27.5124 28.8777C28.1467 28.7036 28.7078 28.3295 29.1124 27.811C29.2072 27.5751 29.2744 27.329 29.3124 27.0777C29.3506 26.8571 29.3506 26.6316 29.3124 26.411C29.2791 26.1777 26.8791 25.0777 26.6458 25.1443C26.4124 25.211 26.2124 25.6443 25.9457 26.011C25.6791 26.3777 25.5791 26.5443 25.3124 26.5443C25.0458 26.5443 23.8791 26.0777 22.7791 25.0777C22.1508 24.5329 21.6597 23.8477 21.3458 23.0777C21.3458 23.0777 21.5458 22.8443 21.8124 22.4777C22.0199 22.2503 22.1687 21.9757 22.2457 21.6777C22.2457 21.511 21.3124 19.1443 21.0791 19.0443C20.7142 18.993 20.344 18.993 19.9791 19.0443Z" fill="white"/>
</svg>
